%TF.GenerationSoftware,KiCad,Pcbnew,(7.0.0)*%
%TF.CreationDate,2023-05-08T01:10:33+02:00*%
%TF.ProjectId,Stacja Lutownicza V0.1,53746163-6a61-4204-9c75-746f776e6963,rev?*%
%TF.SameCoordinates,Original*%
%TF.FileFunction,Copper,L2,Inr*%
%TF.FilePolarity,Positive*%
%FSLAX46Y46*%
G04 Gerber Fmt 4.6, Leading zero omitted, Abs format (unit mm)*
G04 Created by KiCad (PCBNEW (7.0.0)) date 2023-05-08 01:10:33*
%MOMM*%
%LPD*%
G01*
G04 APERTURE LIST*
%TA.AperFunction,ComponentPad*%
%ADD10R,1.700000X1.700000*%
%TD*%
%TA.AperFunction,ComponentPad*%
%ADD11O,1.700000X1.700000*%
%TD*%
%TA.AperFunction,ComponentPad*%
%ADD12R,1.000000X1.000000*%
%TD*%
%TA.AperFunction,ComponentPad*%
%ADD13O,1.000000X1.000000*%
%TD*%
%TA.AperFunction,ComponentPad*%
%ADD14C,1.524000*%
%TD*%
%TA.AperFunction,ComponentPad*%
%ADD15O,2.100000X1.000000*%
%TD*%
%TA.AperFunction,ComponentPad*%
%ADD16O,1.600000X1.000000*%
%TD*%
%TA.AperFunction,ComponentPad*%
%ADD17O,2.000000X2.500000*%
%TD*%
%TA.AperFunction,ViaPad*%
%ADD18C,0.500000*%
%TD*%
%TA.AperFunction,ViaPad*%
%ADD19C,0.600000*%
%TD*%
G04 APERTURE END LIST*
D10*
%TO.N,SDA*%
%TO.C,OLED1*%
X178499999Y-87094999D03*
D11*
%TO.N,SCL*%
X178499999Y-89634999D03*
%TO.N,+3V3*%
X178499999Y-92174999D03*
%TO.N,GND*%
X178499999Y-94714999D03*
%TD*%
D12*
%TO.N,+3V3*%
%TO.C,BZ1*%
X122529999Y-84049999D03*
D13*
%TO.N,Net-(BZ1-+)*%
X123799999Y-84049999D03*
%TD*%
D14*
%TO.N,GND*%
%TO.C,SW4*%
X158750000Y-89500000D03*
%TO.N,TILT_SW*%
X158750000Y-92500000D03*
%TD*%
D15*
%TO.N,GND*%
%TO.C,J3*%
X218969999Y-86679999D03*
D16*
X223149999Y-86679999D03*
D15*
X218969999Y-95319999D03*
D16*
X223149999Y-95319999D03*
%TD*%
D17*
%TO.N,GND*%
%TO.C,E1*%
X103999999Y-90999999D03*
X98999999Y-91099999D03*
%TD*%
D12*
%TO.N,SWDIO*%
%TO.C,J1*%
X128199999Y-97449999D03*
D13*
%TO.N,SWCLK*%
X126929999Y-97449999D03*
%TO.N,NRST*%
X125659999Y-97449999D03*
%TO.N,+3V3*%
X124389999Y-97449999D03*
%TO.N,GND*%
X123119999Y-97449999D03*
%TD*%
D17*
%TO.N,T12_V-*%
%TO.C,-P1*%
X160999999Y-91099999D03*
X165999999Y-90999999D03*
%TD*%
%TO.N,T12_V+*%
%TO.C,+P1*%
X174999999Y-90999999D03*
X169999999Y-91099999D03*
%TD*%
D18*
%TO.N,Buzzer*%
X129325000Y-88775000D03*
%TO.N,GND*%
X120875000Y-89300000D03*
X120875000Y-88450000D03*
D19*
X141200000Y-84625000D03*
X143400000Y-84625000D03*
X145225000Y-84625000D03*
X187525000Y-97500000D03*
D18*
%TO.N,VDC*%
X183749500Y-93475000D03*
D19*
%TO.N,GND*%
X142350000Y-87725000D03*
D18*
%TO.N,Buzzer*%
X135825000Y-90000000D03*
%TO.N,GND*%
X127375000Y-85800000D03*
X133150000Y-84250000D03*
X130300000Y-84150000D03*
X131750000Y-95200000D03*
%TO.N,+3V3*%
X131250000Y-94700000D03*
D19*
%TO.N,GND*%
X142700000Y-91950000D03*
X141950000Y-91300000D03*
D18*
X136750000Y-83750000D03*
%TO.N,+3V3*%
X136175000Y-84250000D03*
X139350000Y-92050000D03*
D19*
%TO.N,GND*%
X143150000Y-88900000D03*
X143050000Y-86900000D03*
X141950000Y-91950000D03*
X142700000Y-91275000D03*
D18*
%TO.N,USB_D-*%
X133120000Y-99420000D03*
%TO.N,USB_D+*%
X132463009Y-98982328D03*
%TO.N,NRST*%
X134211673Y-85075000D03*
%TO.N,TILT_SW*%
X138625000Y-90825000D03*
%TO.N,PD_SAFE*%
X137025878Y-92231794D03*
X172900000Y-87725000D03*
X172900000Y-85450000D03*
X191575000Y-85425000D03*
%TO.N,SW_ON{slash}OFF*%
X205100000Y-84450000D03*
%TO.N,FLIP*%
X136048911Y-94680000D03*
%TO.N,INT*%
X135150000Y-95300000D03*
%TO.N,FLIP*%
X182512500Y-96700000D03*
%TO.N,INT*%
X186800000Y-93450000D03*
%TO.N,SCL*%
X135400000Y-86000000D03*
%TO.N,SDA*%
X134700000Y-85950000D03*
%TO.N,SW_NEXT*%
X132136416Y-87325000D03*
%TO.N,SW_BACK*%
X133250000Y-86300000D03*
%TO.N,SW_SELECT*%
X132550000Y-86750000D03*
D19*
%TO.N,VDC*%
X142000000Y-93950000D03*
X142000000Y-92950000D03*
X142850000Y-93950000D03*
X142800000Y-92950000D03*
%TO.N,GND*%
X174700000Y-95150000D03*
%TO.N,+3V3*%
X174750000Y-93250000D03*
%TO.N,GND*%
X162450000Y-83950000D03*
X152075000Y-87925000D03*
%TO.N,+3V3*%
X151025000Y-85250000D03*
%TO.N,GND*%
X159575000Y-84025000D03*
X160900000Y-85175000D03*
X159575000Y-83200000D03*
X162450000Y-83200000D03*
%TO.N,Net-(Q2-G)*%
X206800000Y-86900000D03*
%TO.N,VDC*%
X204350000Y-96800000D03*
%TO.N,GND*%
X204350000Y-95975000D03*
X216850000Y-95050000D03*
X216900000Y-87000000D03*
%TO.N,VBUS*%
X208800000Y-88900000D03*
%TO.N,GND*%
X213700000Y-86900000D03*
X213700000Y-86100000D03*
X213000000Y-86900000D03*
X213000000Y-86100000D03*
X209000000Y-86600000D03*
X209000000Y-85900000D03*
%TO.N,VBUS*%
X209000000Y-85100000D03*
X209000000Y-84200000D03*
%TO.N,GND*%
X195000000Y-97500000D03*
D18*
%TO.N,USB_D-*%
X214234615Y-98947387D03*
%TO.N,USB_D+*%
X214288972Y-98250000D03*
D19*
%TO.N,+3V3*%
X181250000Y-95500000D03*
%TO.N,SDA*%
X182500000Y-93500000D03*
%TO.N,CC2*%
X180300000Y-83000000D03*
%TO.N,CC1*%
X181009583Y-83789722D03*
%TO.N,GND*%
X204900000Y-89100000D03*
X216850000Y-94200000D03*
X183100000Y-83750000D03*
X190850000Y-88950000D03*
X195000000Y-96500000D03*
X195100000Y-86100000D03*
X203450000Y-89200000D03*
X204950000Y-90300000D03*
X195100000Y-87100000D03*
X195750000Y-97500000D03*
X205050000Y-95975000D03*
X190900000Y-84450000D03*
X186525000Y-84225000D03*
X199550000Y-86700000D03*
X190950000Y-93450000D03*
X216900000Y-87800000D03*
X210475000Y-97375000D03*
X190900000Y-97250000D03*
X214687500Y-93600000D03*
X195750000Y-96500000D03*
X200650000Y-91300000D03*
%TO.N,Net-(C21-Pad2)*%
X190900000Y-90450000D03*
%TO.N,Net-(F1-Pad2)*%
X216900000Y-88600000D03*
X216900000Y-93400000D03*
%TO.N,+3V3*%
X185050000Y-83750000D03*
X195100000Y-88000000D03*
X183547382Y-96897382D03*
X187350000Y-96500000D03*
X190750000Y-95700000D03*
X190750000Y-86700000D03*
X199550000Y-88200000D03*
X195100000Y-88800000D03*
D18*
%TO.N,CC1*%
X219750000Y-89750000D03*
%TO.N,Net-(J3-D+-PadA6)*%
X217250000Y-90650500D03*
X217250000Y-91849500D03*
%TO.N,CC2*%
X219750000Y-92750000D03*
D19*
%TO.N,VDC*%
X205050000Y-96800000D03*
X203475000Y-94075000D03*
%TO.N,VBUS*%
X210500000Y-88975000D03*
X211075000Y-92650000D03*
X208200000Y-84200000D03*
%TD*%
%TA.AperFunction,Conductor*%
%TO.N,VBUS*%
G36*
X224509631Y-82252025D02*
G01*
X224557706Y-82259639D01*
X224594595Y-82271625D01*
X224629156Y-82289235D01*
X224660538Y-82312036D01*
X224687963Y-82339461D01*
X224710766Y-82370846D01*
X224728372Y-82405399D01*
X224740361Y-82442297D01*
X224747973Y-82490358D01*
X224749500Y-82509756D01*
X224749500Y-99490244D01*
X224747973Y-99509642D01*
X224740361Y-99557702D01*
X224728372Y-99594600D01*
X224710766Y-99629153D01*
X224687963Y-99660538D01*
X224660538Y-99687963D01*
X224629153Y-99710766D01*
X224594600Y-99728372D01*
X224557702Y-99740361D01*
X224522884Y-99745875D01*
X224509640Y-99747973D01*
X224490244Y-99749500D01*
X211524000Y-99749500D01*
X211462000Y-99732887D01*
X211416613Y-99687500D01*
X211400000Y-99625500D01*
X211400000Y-98947387D01*
X213728968Y-98947387D01*
X213730230Y-98956164D01*
X213748187Y-99081064D01*
X213748188Y-99081068D01*
X213749450Y-99089844D01*
X213809238Y-99220760D01*
X213815045Y-99227462D01*
X213815046Y-99227463D01*
X213897680Y-99322829D01*
X213897682Y-99322831D01*
X213903487Y-99329530D01*
X214024562Y-99407340D01*
X214162654Y-99447887D01*
X214297705Y-99447887D01*
X214306576Y-99447887D01*
X214444668Y-99407340D01*
X214565743Y-99329530D01*
X214659992Y-99220760D01*
X214719780Y-99089844D01*
X214740262Y-98947387D01*
X214719780Y-98804930D01*
X214666806Y-98688934D01*
X214655740Y-98643322D01*
X214662420Y-98596865D01*
X214685886Y-98556220D01*
X214714349Y-98523373D01*
X214774137Y-98392457D01*
X214794619Y-98250000D01*
X214774137Y-98107543D01*
X214714349Y-97976627D01*
X214708540Y-97969923D01*
X214625906Y-97874557D01*
X214625904Y-97874555D01*
X214620100Y-97867857D01*
X214499025Y-97790047D01*
X214422648Y-97767621D01*
X214369445Y-97751999D01*
X214369442Y-97751998D01*
X214360933Y-97749500D01*
X214217011Y-97749500D01*
X214208502Y-97751998D01*
X214208498Y-97751999D01*
X214087433Y-97787547D01*
X214078919Y-97790047D01*
X214071456Y-97794842D01*
X214071456Y-97794843D01*
X213965301Y-97863064D01*
X213965297Y-97863066D01*
X213957844Y-97867857D01*
X213952042Y-97874551D01*
X213952037Y-97874557D01*
X213869403Y-97969923D01*
X213869400Y-97969927D01*
X213863595Y-97976627D01*
X213859913Y-97984689D01*
X213859910Y-97984694D01*
X213807492Y-98099473D01*
X213803807Y-98107543D01*
X213802545Y-98116316D01*
X213802544Y-98116322D01*
X213786092Y-98230754D01*
X213783325Y-98250000D01*
X213784587Y-98258777D01*
X213802544Y-98383677D01*
X213802545Y-98383681D01*
X213803807Y-98392457D01*
X213807491Y-98400525D01*
X213807492Y-98400526D01*
X213856780Y-98508451D01*
X213866724Y-98577608D01*
X213837702Y-98641163D01*
X213815042Y-98667314D01*
X213815037Y-98667320D01*
X213809238Y-98674014D01*
X213805558Y-98682071D01*
X213805554Y-98682078D01*
X213753135Y-98796860D01*
X213749450Y-98804930D01*
X213748188Y-98813703D01*
X213748187Y-98813709D01*
X213731735Y-98928141D01*
X213728968Y-98947387D01*
X211400000Y-98947387D01*
X211400000Y-95050000D01*
X216294750Y-95050000D01*
X216295811Y-95058059D01*
X216302702Y-95110405D01*
X216313670Y-95193709D01*
X216369139Y-95327625D01*
X216457379Y-95442621D01*
X216572375Y-95530861D01*
X216706291Y-95586330D01*
X216850000Y-95605250D01*
X216993709Y-95586330D01*
X217127625Y-95530861D01*
X217242621Y-95442621D01*
X217302999Y-95363935D01*
X217665669Y-95363935D01*
X217696135Y-95536711D01*
X217765623Y-95697804D01*
X217870390Y-95838530D01*
X218004786Y-95951302D01*
X218161567Y-96030040D01*
X218332279Y-96070500D01*
X219560111Y-96070500D01*
X219563709Y-96070500D01*
X219694255Y-96055241D01*
X219859117Y-95995237D01*
X220005696Y-95898830D01*
X220126092Y-95771218D01*
X220213812Y-95619281D01*
X220264130Y-95451210D01*
X220269213Y-95363935D01*
X222095669Y-95363935D01*
X222126135Y-95536711D01*
X222195623Y-95697804D01*
X222300390Y-95838530D01*
X222434786Y-95951302D01*
X222591567Y-96030040D01*
X222762279Y-96070500D01*
X223490111Y-96070500D01*
X223493709Y-96070500D01*
X223624255Y-96055241D01*
X223789117Y-95995237D01*
X223935696Y-95898830D01*
X224056092Y-95771218D01*
X224143812Y-95619281D01*
X224194130Y-95451210D01*
X224204331Y-95276065D01*
X224173865Y-95103289D01*
X224104377Y-94942196D01*
X223999610Y-94801470D01*
X223927747Y-94741170D01*
X223870745Y-94693339D01*
X223870744Y-94693338D01*
X223865214Y-94688698D01*
X223858763Y-94685458D01*
X223714883Y-94613199D01*
X223714880Y-94613198D01*
X223708433Y-94609960D01*
X223701407Y-94608294D01*
X223701405Y-94608294D01*
X223544749Y-94571165D01*
X223544743Y-94571164D01*
X223537721Y-94569500D01*
X222806291Y-94569500D01*
X222802725Y-94569916D01*
X222802721Y-94569917D01*
X222682915Y-94583920D01*
X222682907Y-94583921D01*
X222675745Y-94584759D01*
X222668967Y-94587225D01*
X222668958Y-94587228D01*
X222517674Y-94642291D01*
X222517671Y-94642292D01*
X222510883Y-94644763D01*
X222504850Y-94648730D01*
X222504842Y-94648735D01*
X222370340Y-94737199D01*
X222370334Y-94737203D01*
X222364304Y-94741170D01*
X222359351Y-94746419D01*
X222359346Y-94746424D01*
X222248865Y-94863527D01*
X222248861Y-94863531D01*
X222243908Y-94868782D01*
X222240299Y-94875032D01*
X222240296Y-94875037D01*
X222159799Y-95014463D01*
X222159796Y-95014468D01*
X222156188Y-95020719D01*
X222154117Y-95027634D01*
X222154117Y-95027636D01*
X222107941Y-95181869D01*
X222107939Y-95181877D01*
X222105870Y-95188790D01*
X222105450Y-95195996D01*
X222105449Y-95196004D01*
X222096088Y-95356725D01*
X222096088Y-95356733D01*
X222095669Y-95363935D01*
X220269213Y-95363935D01*
X220274331Y-95276065D01*
X220243865Y-95103289D01*
X220174377Y-94942196D01*
X220069610Y-94801470D01*
X219997747Y-94741170D01*
X219940745Y-94693339D01*
X219940744Y-94693338D01*
X219935214Y-94688698D01*
X219928763Y-94685458D01*
X219784887Y-94613201D01*
X219784884Y-94613200D01*
X219783635Y-94612572D01*
X219783633Y-94612571D01*
X219778433Y-94609960D01*
X219778873Y-94609082D01*
X219728134Y-94571881D01*
X219702980Y-94507200D01*
X219716520Y-94439133D01*
X219760562Y-94393128D01*
X219760233Y-94392698D01*
X219760232Y-94392698D01*
X219880451Y-94300451D01*
X219972698Y-94180233D01*
X220030687Y-94040236D01*
X220050466Y-93890000D01*
X220030687Y-93739764D01*
X219972698Y-93599767D01*
X219967753Y-93593322D01*
X219967751Y-93593319D01*
X219885394Y-93485991D01*
X219880451Y-93479549D01*
X219874008Y-93474605D01*
X219874006Y-93474603D01*
X219842015Y-93450055D01*
X219801712Y-93396047D01*
X219795607Y-93328936D01*
X219825503Y-93268542D01*
X219882564Y-93232705D01*
X219960053Y-93209953D01*
X220081128Y-93132143D01*
X220175377Y-93023373D01*
X220235165Y-92892457D01*
X220255647Y-92750000D01*
X220235165Y-92607543D01*
X220175377Y-92476627D01*
X220081128Y-92367857D01*
X219960053Y-92290047D01*
X219904863Y-92273841D01*
X219830473Y-92251999D01*
X219830470Y-92251998D01*
X219821961Y-92249500D01*
X219678039Y-92249500D01*
X219669530Y-92251998D01*
X219669526Y-92251999D01*
X219548461Y-92287547D01*
X219539947Y-92290047D01*
X219532484Y-92294842D01*
X219532484Y-92294843D01*
X219426329Y-92363064D01*
X219426325Y-92363066D01*
X219418872Y-92367857D01*
X219413070Y-92374551D01*
X219413065Y-92374557D01*
X219330431Y-92469923D01*
X219330428Y-92469927D01*
X219324623Y-92476627D01*
X219320941Y-92484689D01*
X219320938Y-92484694D01*
X219268520Y-92599473D01*
X219264835Y-92607543D01*
X219263573Y-92616316D01*
X219263572Y-92616322D01*
X219258926Y-92648638D01*
X219244353Y-92750000D01*
X219245615Y-92758777D01*
X219263572Y-92883677D01*
X219263573Y-92883681D01*
X219264835Y-92892457D01*
X219268519Y-92900525D01*
X219268520Y-92900526D01*
X219320260Y-93013821D01*
X219324623Y-93023373D01*
X219330430Y-93030075D01*
X219330431Y-93030076D01*
X219411240Y-93123335D01*
X219439622Y-93182882D01*
X219433450Y-93248558D01*
X219394472Y-93301776D01*
X219333718Y-93327475D01*
X219327828Y-93328250D01*
X219327818Y-93328252D01*
X219319764Y-93329313D01*
X219312259Y-93332421D01*
X219312254Y-93332423D01*
X219187276Y-93384191D01*
X219187272Y-93384193D01*
X219179767Y-93387302D01*
X219173328Y-93392242D01*
X219173319Y-93392248D01*
X219065991Y-93474605D01*
X219065987Y-93474608D01*
X219059549Y-93479549D01*
X219054608Y-93485987D01*
X219054605Y-93485991D01*
X218972248Y-93593319D01*
X218972242Y-93593328D01*
X218967302Y-93599767D01*
X218964193Y-93607272D01*
X218964191Y-93607276D01*
X218912423Y-93732254D01*
X218912421Y-93732259D01*
X218909313Y-93739764D01*
X218908252Y-93747815D01*
X218908251Y-93747823D01*
X218900411Y-93807379D01*
X218889534Y-93890000D01*
X218890595Y-93898059D01*
X218908251Y-94032176D01*
X218908252Y-94032182D01*
X218909313Y-94040236D01*
X218912422Y-94047742D01*
X218912423Y-94047745D01*
X218964191Y-94172723D01*
X218967302Y-94180233D01*
X218972245Y-94186674D01*
X218972248Y-94186680D01*
X219031334Y-94263681D01*
X219059549Y-94300451D01*
X219065991Y-94305394D01*
X219120374Y-94347124D01*
X219158167Y-94395065D01*
X219168505Y-94455229D01*
X219148882Y-94513035D01*
X219104055Y-94554473D01*
X219044887Y-94569500D01*
X218376291Y-94569500D01*
X218372725Y-94569916D01*
X218372721Y-94569917D01*
X218252915Y-94583920D01*
X218252907Y-94583921D01*
X218245745Y-94584759D01*
X218238967Y-94587225D01*
X218238958Y-94587228D01*
X218087674Y-94642291D01*
X218087671Y-94642292D01*
X218080883Y-94644763D01*
X218074850Y-94648730D01*
X218074842Y-94648735D01*
X217940340Y-94737199D01*
X217940334Y-94737203D01*
X217934304Y-94741170D01*
X217929351Y-94746419D01*
X217929346Y-94746424D01*
X217818865Y-94863527D01*
X217818861Y-94863531D01*
X217813908Y-94868782D01*
X217810299Y-94875032D01*
X217810296Y-94875037D01*
X217729799Y-95014463D01*
X217729796Y-95014468D01*
X217726188Y-95020719D01*
X217724117Y-95027634D01*
X217724117Y-95027636D01*
X217677941Y-95181869D01*
X217677939Y-95181877D01*
X217675870Y-95188790D01*
X217675450Y-95195996D01*
X217675449Y-95196004D01*
X217666088Y-95356725D01*
X217666088Y-95356733D01*
X217665669Y-95363935D01*
X217302999Y-95363935D01*
X217330861Y-95327625D01*
X217386330Y-95193709D01*
X217405250Y-95050000D01*
X217386330Y-94906291D01*
X217330861Y-94772375D01*
X217275698Y-94700486D01*
X217253014Y-94651839D01*
X217253014Y-94598161D01*
X217275699Y-94549513D01*
X217330861Y-94477625D01*
X217386330Y-94343709D01*
X217405250Y-94200000D01*
X217386330Y-94056291D01*
X217330861Y-93922375D01*
X217319881Y-93908066D01*
X217297197Y-93859418D01*
X217297197Y-93805741D01*
X217319883Y-93757093D01*
X217375911Y-93684076D01*
X217375911Y-93684075D01*
X217380861Y-93677625D01*
X217436330Y-93543709D01*
X217455250Y-93400000D01*
X217436330Y-93256291D01*
X217380861Y-93122375D01*
X217292621Y-93007379D01*
X217177625Y-92919139D01*
X217092011Y-92883677D01*
X217051223Y-92866782D01*
X217051220Y-92866781D01*
X217043709Y-92863670D01*
X217035649Y-92862608D01*
X217035646Y-92862608D01*
X216908059Y-92845811D01*
X216900000Y-92844750D01*
X216891941Y-92845811D01*
X216764353Y-92862608D01*
X216764348Y-92862609D01*
X216756291Y-92863670D01*
X216748781Y-92866780D01*
X216748776Y-92866782D01*
X216629885Y-92916028D01*
X216629883Y-92916029D01*
X216622375Y-92919139D01*
X216615933Y-92924082D01*
X216615928Y-92924085D01*
X216513821Y-93002435D01*
X216513817Y-93002438D01*
X216507379Y-93007379D01*
X216502438Y-93013817D01*
X216502435Y-93013821D01*
X216424085Y-93115928D01*
X216424082Y-93115933D01*
X216419139Y-93122375D01*
X216416029Y-93129883D01*
X216416028Y-93129885D01*
X216366782Y-93248776D01*
X216366780Y-93248781D01*
X216363670Y-93256291D01*
X216362609Y-93264348D01*
X216362608Y-93264353D01*
X216354298Y-93327475D01*
X216344750Y-93400000D01*
X216345811Y-93408059D01*
X216351171Y-93448776D01*
X216363670Y-93543709D01*
X216366781Y-93551220D01*
X216366782Y-93551223D01*
X216386986Y-93600000D01*
X216419139Y-93677625D01*
X216424086Y-93684072D01*
X216424089Y-93684077D01*
X216430120Y-93691937D01*
X216452802Y-93740584D01*
X216452801Y-93794259D01*
X216430117Y-93842905D01*
X216374088Y-93915923D01*
X216374082Y-93915932D01*
X216369139Y-93922375D01*
X216366029Y-93929883D01*
X216366028Y-93929885D01*
X216316782Y-94048776D01*
X216316780Y-94048781D01*
X216313670Y-94056291D01*
X216312609Y-94064348D01*
X216312608Y-94064353D01*
X216298341Y-94172723D01*
X216294750Y-94200000D01*
X216295811Y-94208059D01*
X216310064Y-94316326D01*
X216313670Y-94343709D01*
X216316781Y-94351220D01*
X216316782Y-94351223D01*
X216334140Y-94393128D01*
X216369139Y-94477625D01*
X216374084Y-94484070D01*
X216374088Y-94484076D01*
X216424300Y-94549514D01*
X216446985Y-94598162D01*
X216446985Y-94651838D01*
X216424300Y-94700486D01*
X216374088Y-94765923D01*
X216374082Y-94765932D01*
X216369139Y-94772375D01*
X216366029Y-94779883D01*
X216366028Y-94779885D01*
X216316782Y-94898776D01*
X216316780Y-94898781D01*
X216313670Y-94906291D01*
X216312609Y-94914348D01*
X216312608Y-94914353D01*
X216298605Y-95020719D01*
X216294750Y-95050000D01*
X211400000Y-95050000D01*
X211400000Y-94316326D01*
X211400000Y-94300000D01*
X211383674Y-94300000D01*
X209051362Y-94300000D01*
X209003909Y-94290561D01*
X208963681Y-94263681D01*
X208300000Y-93600000D01*
X214132250Y-93600000D01*
X214133311Y-93608059D01*
X214149661Y-93732254D01*
X214151170Y-93743709D01*
X214154281Y-93751220D01*
X214154282Y-93751223D01*
X214183697Y-93822238D01*
X214206639Y-93877625D01*
X214211584Y-93884069D01*
X214211585Y-93884071D01*
X214229998Y-93908067D01*
X214294879Y-93992621D01*
X214409875Y-94080861D01*
X214543791Y-94136330D01*
X214687500Y-94155250D01*
X214831209Y-94136330D01*
X214965125Y-94080861D01*
X215080121Y-93992621D01*
X215168361Y-93877625D01*
X215223830Y-93743709D01*
X215242750Y-93600000D01*
X215223830Y-93456291D01*
X215168361Y-93322375D01*
X215080121Y-93207379D01*
X214982072Y-93132143D01*
X214971571Y-93124085D01*
X214971569Y-93124084D01*
X214965125Y-93119139D01*
X214929092Y-93104214D01*
X214838723Y-93066782D01*
X214838720Y-93066781D01*
X214831209Y-93063670D01*
X214823149Y-93062608D01*
X214823146Y-93062608D01*
X214695559Y-93045811D01*
X214687500Y-93044750D01*
X214679441Y-93045811D01*
X214551853Y-93062608D01*
X214551848Y-93062609D01*
X214543791Y-93063670D01*
X214536281Y-93066780D01*
X214536276Y-93066782D01*
X214417385Y-93116028D01*
X214417383Y-93116029D01*
X214409875Y-93119139D01*
X214403433Y-93124082D01*
X214403428Y-93124085D01*
X214301321Y-93202435D01*
X214301317Y-93202438D01*
X214294879Y-93207379D01*
X214289938Y-93213817D01*
X214289935Y-93213821D01*
X214211585Y-93315928D01*
X214211582Y-93315933D01*
X214206639Y-93322375D01*
X214203529Y-93329883D01*
X214203528Y-93329885D01*
X214154282Y-93448776D01*
X214154280Y-93448781D01*
X214151170Y-93456291D01*
X214150109Y-93464348D01*
X214150108Y-93464353D01*
X214139661Y-93543709D01*
X214132250Y-93600000D01*
X208300000Y-93600000D01*
X207436319Y-92736319D01*
X207409439Y-92696091D01*
X207400000Y-92648638D01*
X207400000Y-91849500D01*
X216744353Y-91849500D01*
X216745615Y-91858277D01*
X216763572Y-91983177D01*
X216763573Y-91983181D01*
X216764835Y-91991957D01*
X216824623Y-92122873D01*
X216830430Y-92129575D01*
X216830431Y-92129576D01*
X216913065Y-92224942D01*
X216913067Y-92224944D01*
X216918872Y-92231643D01*
X217039947Y-92309453D01*
X217178039Y-92350000D01*
X217313090Y-92350000D01*
X217321961Y-92350000D01*
X217460053Y-92309453D01*
X217581128Y-92231643D01*
X217675377Y-92122873D01*
X217735165Y-91991957D01*
X217755647Y-91849500D01*
X217735165Y-91707043D01*
X217675377Y-91576127D01*
X217581128Y-91467357D01*
X217460053Y-91389547D01*
X217389996Y-91368976D01*
X217336007Y-91336420D01*
X217305005Y-91281523D01*
X217305005Y-91218477D01*
X217336007Y-91163580D01*
X217389997Y-91131023D01*
X217460053Y-91110453D01*
X217581128Y-91032643D01*
X217675377Y-90923873D01*
X217735165Y-90792957D01*
X217755647Y-90650500D01*
X217735165Y-90508043D01*
X217675377Y-90377127D01*
X217581128Y-90268357D01*
X217460053Y-90190547D01*
X217404863Y-90174341D01*
X217330473Y-90152499D01*
X217330470Y-90152498D01*
X217321961Y-90150000D01*
X217178039Y-90150000D01*
X217169530Y-90152498D01*
X217169526Y-90152499D01*
X217048461Y-90188047D01*
X217039947Y-90190547D01*
X217032484Y-90195342D01*
X217032484Y-90195343D01*
X216926329Y-90263564D01*
X216926325Y-90263566D01*
X216918872Y-90268357D01*
X216913070Y-90275051D01*
X216913065Y-90275057D01*
X216830431Y-90370423D01*
X216830428Y-90370427D01*
X216824623Y-90377127D01*
X216820941Y-90385189D01*
X216820938Y-90385194D01*
X216768520Y-90499973D01*
X216764835Y-90508043D01*
X216763573Y-90516816D01*
X216763572Y-90516822D01*
X216747120Y-90631254D01*
X216744353Y-90650500D01*
X216745615Y-90659277D01*
X216763572Y-90784177D01*
X216763573Y-90784181D01*
X216764835Y-90792957D01*
X216824623Y-90923873D01*
X216830430Y-90930575D01*
X216830431Y-90930576D01*
X216913065Y-91025942D01*
X216913067Y-91025944D01*
X216918872Y-91032643D01*
X217039947Y-91110453D01*
X217110003Y-91131023D01*
X217163992Y-91163580D01*
X217194994Y-91218477D01*
X217194994Y-91281523D01*
X217163992Y-91336420D01*
X217110003Y-91368977D01*
X217048459Y-91387047D01*
X217048454Y-91387048D01*
X217039947Y-91389547D01*
X217032484Y-91394342D01*
X217032484Y-91394343D01*
X216926329Y-91462564D01*
X216926325Y-91462566D01*
X216918872Y-91467357D01*
X216913070Y-91474051D01*
X216913065Y-91474057D01*
X216830431Y-91569423D01*
X216830428Y-91569427D01*
X216824623Y-91576127D01*
X216820941Y-91584189D01*
X216820938Y-91584194D01*
X216768520Y-91698973D01*
X216764835Y-91707043D01*
X216763573Y-91715816D01*
X216763572Y-91715822D01*
X216747120Y-91830254D01*
X216744353Y-91849500D01*
X207400000Y-91849500D01*
X207400000Y-89750000D01*
X219244353Y-89750000D01*
X219245615Y-89758777D01*
X219263572Y-89883677D01*
X219263573Y-89883681D01*
X219264835Y-89892457D01*
X219324623Y-90023373D01*
X219330430Y-90030075D01*
X219330431Y-90030076D01*
X219413065Y-90125442D01*
X219413067Y-90125444D01*
X219418872Y-90132143D01*
X219539947Y-90209953D01*
X219678039Y-90250500D01*
X219813090Y-90250500D01*
X219821961Y-90250500D01*
X219960053Y-90209953D01*
X220081128Y-90132143D01*
X220175377Y-90023373D01*
X220235165Y-89892457D01*
X220255647Y-89750000D01*
X220235165Y-89607543D01*
X220175377Y-89476627D01*
X220081128Y-89367857D01*
X219960053Y-89290047D01*
X219904863Y-89273841D01*
X219830473Y-89251999D01*
X219830470Y-89251998D01*
X219821961Y-89249500D01*
X219678039Y-89249500D01*
X219669530Y-89251998D01*
X219669526Y-89251999D01*
X219548461Y-89287547D01*
X219539947Y-89290047D01*
X219532484Y-89294842D01*
X219532484Y-89294843D01*
X219426329Y-89363064D01*
X219426325Y-89363066D01*
X219418872Y-89367857D01*
X219413070Y-89374551D01*
X219413065Y-89374557D01*
X219330431Y-89469923D01*
X219330428Y-89469927D01*
X219324623Y-89476627D01*
X219320941Y-89484689D01*
X219320938Y-89484694D01*
X219268520Y-89599473D01*
X219264835Y-89607543D01*
X219263573Y-89616316D01*
X219263572Y-89616322D01*
X219247120Y-89730754D01*
X219244353Y-89750000D01*
X207400000Y-89750000D01*
X207400000Y-88600000D01*
X216344750Y-88600000D01*
X216345811Y-88608059D01*
X216355936Y-88684970D01*
X216363670Y-88743709D01*
X216419139Y-88877625D01*
X216507379Y-88992621D01*
X216622375Y-89080861D01*
X216756291Y-89136330D01*
X216900000Y-89155250D01*
X217043709Y-89136330D01*
X217177625Y-89080861D01*
X217292621Y-88992621D01*
X217380861Y-88877625D01*
X217436330Y-88743709D01*
X217455250Y-88600000D01*
X217436330Y-88456291D01*
X217380861Y-88322375D01*
X217375913Y-88315927D01*
X217375911Y-88315923D01*
X217344882Y-88275485D01*
X217322197Y-88226837D01*
X217322198Y-88173159D01*
X217344884Y-88124511D01*
X217375910Y-88084077D01*
X217375911Y-88084076D01*
X217380861Y-88077625D01*
X217436330Y-87943709D01*
X217455250Y-87800000D01*
X217436330Y-87656291D01*
X217380861Y-87522375D01*
X217375913Y-87515927D01*
X217375911Y-87515923D01*
X217344882Y-87475485D01*
X217322197Y-87426837D01*
X217322198Y-87373159D01*
X217344884Y-87324511D01*
X217375910Y-87284077D01*
X217375911Y-87284076D01*
X217380861Y-87277625D01*
X217436330Y-87143709D01*
X217455250Y-87000000D01*
X217436330Y-86856291D01*
X217381507Y-86723935D01*
X217665669Y-86723935D01*
X217666923Y-86731046D01*
X217692769Y-86877625D01*
X217696135Y-86896711D01*
X217765623Y-87057804D01*
X217769936Y-87063597D01*
X217769937Y-87063599D01*
X217829577Y-87143709D01*
X217870390Y-87198530D01*
X218004786Y-87311302D01*
X218161567Y-87390040D01*
X218332279Y-87430500D01*
X218339500Y-87430500D01*
X219044887Y-87430500D01*
X219104055Y-87445527D01*
X219148882Y-87486965D01*
X219168505Y-87544771D01*
X219158167Y-87604935D01*
X219120374Y-87652876D01*
X219065991Y-87694605D01*
X219065987Y-87694608D01*
X219059549Y-87699549D01*
X219054608Y-87705987D01*
X219054605Y-87705991D01*
X218972248Y-87813319D01*
X218972242Y-87813328D01*
X218967302Y-87819767D01*
X218964193Y-87827272D01*
X218964191Y-87827276D01*
X218912423Y-87952254D01*
X218912421Y-87952259D01*
X218909313Y-87959764D01*
X218908252Y-87967815D01*
X218908251Y-87967823D01*
X218894785Y-88070114D01*
X218889534Y-88110000D01*
X218890595Y-88118059D01*
X218908251Y-88252176D01*
X218908252Y-88252182D01*
X218909313Y-88260236D01*
X218912422Y-88267742D01*
X218912423Y-88267745D01*
X218964191Y-88392723D01*
X218967302Y-88400233D01*
X218972245Y-88406674D01*
X218972248Y-88406680D01*
X219016503Y-88464353D01*
X219059549Y-88520451D01*
X219065991Y-88525394D01*
X219173319Y-88607751D01*
X219173322Y-88607753D01*
X219179767Y-88612698D01*
X219319764Y-88670687D01*
X219432280Y-88685500D01*
X219503667Y-88685500D01*
X219507720Y-88685500D01*
X219620236Y-88670687D01*
X219760233Y-88612698D01*
X219880451Y-88520451D01*
X219972698Y-88400233D01*
X220030687Y-88260236D01*
X220050466Y-88110000D01*
X220030687Y-87959764D01*
X219972698Y-87819767D01*
X219967753Y-87813322D01*
X219967751Y-87813319D01*
X219885394Y-87705991D01*
X219880451Y-87699549D01*
X219834583Y-87664353D01*
X219766677Y-87612246D01*
X219766673Y-87612243D01*
X219760233Y-87607302D01*
X219757881Y-87606327D01*
X219711691Y-87558077D01*
X219698152Y-87490012D01*
X219723305Y-87425333D01*
X219779271Y-87384298D01*
X219780170Y-87383971D01*
X219859117Y-87355237D01*
X220005696Y-87258830D01*
X220126092Y-87131218D01*
X220213812Y-86979281D01*
X220264130Y-86811210D01*
X220269213Y-86723935D01*
X222095669Y-86723935D01*
X222096923Y-86731046D01*
X222122769Y-86877625D01*
X222126135Y-86896711D01*
X222195623Y-87057804D01*
X222199936Y-87063597D01*
X222199937Y-87063599D01*
X222259577Y-87143709D01*
X222300390Y-87198530D01*
X222434786Y-87311302D01*
X222591567Y-87390040D01*
X222762279Y-87430500D01*
X223490111Y-87430500D01*
X223493709Y-87430500D01*
X223624255Y-87415241D01*
X223789117Y-87355237D01*
X223935696Y-87258830D01*
X224056092Y-87131218D01*
X224143812Y-86979281D01*
X224194130Y-86811210D01*
X224204331Y-86636065D01*
X224173865Y-86463289D01*
X224104377Y-86302196D01*
X223999610Y-86161470D01*
X223935957Y-86108059D01*
X223870745Y-86053339D01*
X223870744Y-86053338D01*
X223865214Y-86048698D01*
X223855280Y-86043709D01*
X223714883Y-85973199D01*
X223714880Y-85973198D01*
X223708433Y-85969960D01*
X223701407Y-85968294D01*
X223701405Y-85968294D01*
X223544749Y-85931165D01*
X223544743Y-85931164D01*
X223537721Y-85929500D01*
X222806291Y-85929500D01*
X222802725Y-85929916D01*
X222802721Y-85929917D01*
X222682915Y-85943920D01*
X222682907Y-85943921D01*
X222675745Y-85944759D01*
X222668967Y-85947225D01*
X222668958Y-85947228D01*
X222517674Y-86002291D01*
X222517671Y-86002292D01*
X222510883Y-86004763D01*
X222504850Y-86008730D01*
X222504842Y-86008735D01*
X222370340Y-86097199D01*
X222370334Y-86097203D01*
X222364304Y-86101170D01*
X222359351Y-86106419D01*
X222359346Y-86106424D01*
X222248865Y-86223527D01*
X222248861Y-86223531D01*
X222243908Y-86228782D01*
X222240299Y-86235032D01*
X222240296Y-86235037D01*
X222159799Y-86374463D01*
X222159796Y-86374468D01*
X222156188Y-86380719D01*
X222154117Y-86387634D01*
X222154117Y-86387636D01*
X222107941Y-86541869D01*
X222107939Y-86541877D01*
X222105870Y-86548790D01*
X222105450Y-86555996D01*
X222105449Y-86556004D01*
X222096088Y-86716725D01*
X222096088Y-86716733D01*
X222095669Y-86723935D01*
X220269213Y-86723935D01*
X220274331Y-86636065D01*
X220243865Y-86463289D01*
X220174377Y-86302196D01*
X220069610Y-86161470D01*
X220005957Y-86108059D01*
X219940745Y-86053339D01*
X219940744Y-86053338D01*
X219935214Y-86048698D01*
X219925280Y-86043709D01*
X219784883Y-85973199D01*
X219784880Y-85973198D01*
X219778433Y-85969960D01*
X219771407Y-85968294D01*
X219771405Y-85968294D01*
X219614749Y-85931165D01*
X219614743Y-85931164D01*
X219607721Y-85929500D01*
X218376291Y-85929500D01*
X218372725Y-85929916D01*
X218372721Y-85929917D01*
X218252915Y-85943920D01*
X218252907Y-85943921D01*
X218245745Y-85944759D01*
X218238967Y-85947225D01*
X218238958Y-85947228D01*
X218087674Y-86002291D01*
X218087671Y-86002292D01*
X218080883Y-86004763D01*
X218074850Y-86008730D01*
X218074842Y-86008735D01*
X217940340Y-86097199D01*
X217940334Y-86097203D01*
X217934304Y-86101170D01*
X217929351Y-86106419D01*
X217929346Y-86106424D01*
X217818865Y-86223527D01*
X217818861Y-86223531D01*
X217813908Y-86228782D01*
X217810299Y-86235032D01*
X217810296Y-86235037D01*
X217729799Y-86374463D01*
X217729796Y-86374468D01*
X217726188Y-86380719D01*
X217724117Y-86387634D01*
X217724117Y-86387636D01*
X217677941Y-86541869D01*
X217677939Y-86541877D01*
X217675870Y-86548790D01*
X217675450Y-86555996D01*
X217675449Y-86556004D01*
X217666088Y-86716725D01*
X217666088Y-86716733D01*
X217665669Y-86723935D01*
X217381507Y-86723935D01*
X217380861Y-86722375D01*
X217292621Y-86607379D01*
X217251059Y-86575487D01*
X217184071Y-86524085D01*
X217184069Y-86524084D01*
X217177625Y-86519139D01*
X217113604Y-86492621D01*
X217051223Y-86466782D01*
X217051220Y-86466781D01*
X217043709Y-86463670D01*
X217035649Y-86462608D01*
X217035646Y-86462608D01*
X216908059Y-86445811D01*
X216900000Y-86444750D01*
X216891941Y-86445811D01*
X216764353Y-86462608D01*
X216764348Y-86462609D01*
X216756291Y-86463670D01*
X216748781Y-86466780D01*
X216748776Y-86466782D01*
X216629885Y-86516028D01*
X216629883Y-86516029D01*
X216622375Y-86519139D01*
X216615933Y-86524082D01*
X216615928Y-86524085D01*
X216513821Y-86602435D01*
X216513817Y-86602438D01*
X216507379Y-86607379D01*
X216502438Y-86613817D01*
X216502435Y-86613821D01*
X216424085Y-86715928D01*
X216424082Y-86715933D01*
X216419139Y-86722375D01*
X216416029Y-86729883D01*
X216416028Y-86729885D01*
X216366782Y-86848776D01*
X216366780Y-86848781D01*
X216363670Y-86856291D01*
X216362609Y-86864348D01*
X216362608Y-86864353D01*
X216347478Y-86979281D01*
X216344750Y-87000000D01*
X216345811Y-87008059D01*
X216362288Y-87133217D01*
X216363670Y-87143709D01*
X216366781Y-87151220D01*
X216366782Y-87151223D01*
X216404214Y-87241592D01*
X216419139Y-87277625D01*
X216424084Y-87284070D01*
X216424088Y-87284076D01*
X216455117Y-87324514D01*
X216477802Y-87373162D01*
X216477802Y-87426838D01*
X216455117Y-87475486D01*
X216424088Y-87515923D01*
X216424082Y-87515932D01*
X216419139Y-87522375D01*
X216416029Y-87529883D01*
X216416028Y-87529885D01*
X216366782Y-87648776D01*
X216366780Y-87648781D01*
X216363670Y-87656291D01*
X216362609Y-87664348D01*
X216362608Y-87664353D01*
X216345811Y-87791941D01*
X216344750Y-87800000D01*
X216345811Y-87808059D01*
X216346503Y-87813319D01*
X216363670Y-87943709D01*
X216419139Y-88077625D01*
X216424084Y-88084070D01*
X216424088Y-88084076D01*
X216455117Y-88124514D01*
X216477802Y-88173162D01*
X216477802Y-88226838D01*
X216455117Y-88275486D01*
X216424088Y-88315923D01*
X216424082Y-88315932D01*
X216419139Y-88322375D01*
X216416029Y-88329883D01*
X216416028Y-88329885D01*
X216366782Y-88448776D01*
X216366780Y-88448781D01*
X216363670Y-88456291D01*
X216362609Y-88464348D01*
X216362608Y-88464353D01*
X216356071Y-88514008D01*
X216344750Y-88600000D01*
X207400000Y-88600000D01*
X207400000Y-86600000D01*
X208444750Y-86600000D01*
X208445811Y-86608059D01*
X208462002Y-86731046D01*
X208463670Y-86743709D01*
X208466781Y-86751220D01*
X208466782Y-86751223D01*
X208472221Y-86764353D01*
X208519139Y-86877625D01*
X208524084Y-86884069D01*
X208524085Y-86884071D01*
X208542492Y-86908059D01*
X208607379Y-86992621D01*
X208722375Y-87080861D01*
X208856291Y-87136330D01*
X209000000Y-87155250D01*
X209143709Y-87136330D01*
X209277625Y-87080861D01*
X209392621Y-86992621D01*
X209463692Y-86900000D01*
X212444750Y-86900000D01*
X212445811Y-86908059D01*
X212458976Y-87008059D01*
X212463670Y-87043709D01*
X212466781Y-87051220D01*
X212466782Y-87051223D01*
X212480347Y-87083971D01*
X212519139Y-87177625D01*
X212524084Y-87184069D01*
X212524085Y-87184071D01*
X212535180Y-87198530D01*
X212607379Y-87292621D01*
X212722375Y-87380861D01*
X212856291Y-87436330D01*
X213000000Y-87455250D01*
X213143709Y-87436330D01*
X213277625Y-87380861D01*
X213284079Y-87375908D01*
X213287998Y-87373646D01*
X213350000Y-87357032D01*
X213412002Y-87373646D01*
X213415921Y-87375908D01*
X213422375Y-87380861D01*
X213556291Y-87436330D01*
X213700000Y-87455250D01*
X213843709Y-87436330D01*
X213977625Y-87380861D01*
X214092621Y-87292621D01*
X214180861Y-87177625D01*
X214236330Y-87043709D01*
X214255250Y-86900000D01*
X214236330Y-86756291D01*
X214180861Y-86622375D01*
X214175913Y-86615927D01*
X214175911Y-86615923D01*
X214144883Y-86575487D01*
X214122197Y-86526839D01*
X214122197Y-86473161D01*
X214144883Y-86424513D01*
X214175911Y-86384076D01*
X214175911Y-86384075D01*
X214180861Y-86377625D01*
X214236330Y-86243709D01*
X214255250Y-86100000D01*
X214236330Y-85956291D01*
X214180861Y-85822375D01*
X214092621Y-85707379D01*
X214008677Y-85642966D01*
X213984071Y-85624085D01*
X213984069Y-85624084D01*
X213977625Y-85619139D01*
X213941592Y-85604214D01*
X213851223Y-85566782D01*
X213851220Y-85566781D01*
X213843709Y-85563670D01*
X213835649Y-85562608D01*
X213835646Y-85562608D01*
X213708059Y-85545811D01*
X213700000Y-85544750D01*
X213691941Y-85545811D01*
X213564353Y-85562608D01*
X213564348Y-85562609D01*
X213556291Y-85563670D01*
X213548781Y-85566780D01*
X213548776Y-85566782D01*
X213429885Y-85616028D01*
X213429883Y-85616029D01*
X213422375Y-85619139D01*
X213415931Y-85624083D01*
X213411993Y-85626357D01*
X213349997Y-85642966D01*
X213288001Y-85626354D01*
X213284070Y-85624084D01*
X213277625Y-85619139D01*
X213270120Y-85616030D01*
X213270116Y-85616028D01*
X213151223Y-85566782D01*
X213151220Y-85566781D01*
X213143709Y-85563670D01*
X213135649Y-85562608D01*
X213135646Y-85562608D01*
X213008059Y-85545811D01*
X213000000Y-85544750D01*
X212991941Y-85545811D01*
X212864353Y-85562608D01*
X212864348Y-85562609D01*
X212856291Y-85563670D01*
X212848781Y-85566780D01*
X212848776Y-85566782D01*
X212729885Y-85616028D01*
X212729883Y-85616029D01*
X212722375Y-85619139D01*
X212715933Y-85624082D01*
X212715928Y-85624085D01*
X212613821Y-85702435D01*
X212613817Y-85702438D01*
X212607379Y-85707379D01*
X212602438Y-85713817D01*
X212602435Y-85713821D01*
X212524085Y-85815928D01*
X212524082Y-85815933D01*
X212519139Y-85822375D01*
X212516029Y-85829883D01*
X212516028Y-85829885D01*
X212466782Y-85948776D01*
X212466780Y-85948781D01*
X212463670Y-85956291D01*
X212462609Y-85964348D01*
X212462608Y-85964353D01*
X212452161Y-86043709D01*
X212444750Y-86100000D01*
X212445811Y-86108059D01*
X212461704Y-86228782D01*
X212463670Y-86243709D01*
X212466781Y-86251220D01*
X212466782Y-86251223D01*
X212491955Y-86311996D01*
X212519139Y-86377625D01*
X212524084Y-86384070D01*
X212524088Y-86384076D01*
X212555117Y-86424514D01*
X212577802Y-86473162D01*
X212577802Y-86526838D01*
X212555117Y-86575486D01*
X212524088Y-86615923D01*
X212524082Y-86615932D01*
X212519139Y-86622375D01*
X212516029Y-86629883D01*
X212516028Y-86629885D01*
X212466782Y-86748776D01*
X212466780Y-86748781D01*
X212463670Y-86756291D01*
X212462609Y-86764348D01*
X212462608Y-86764353D01*
X212449443Y-86864353D01*
X212444750Y-86900000D01*
X209463692Y-86900000D01*
X209480861Y-86877625D01*
X209536330Y-86743709D01*
X209555250Y-86600000D01*
X209536330Y-86456291D01*
X209480861Y-86322375D01*
X209475908Y-86315921D01*
X209473646Y-86312002D01*
X209457032Y-86250000D01*
X209473646Y-86187998D01*
X209475908Y-86184079D01*
X209480861Y-86177625D01*
X209536330Y-86043709D01*
X209555250Y-85900000D01*
X209536330Y-85756291D01*
X209480861Y-85622375D01*
X209392621Y-85507379D01*
X209277625Y-85419139D01*
X209241592Y-85404214D01*
X209151223Y-85366782D01*
X209151220Y-85366781D01*
X209143709Y-85363670D01*
X209135649Y-85362608D01*
X209135646Y-85362608D01*
X209008059Y-85345811D01*
X209000000Y-85344750D01*
X208991941Y-85345811D01*
X208864353Y-85362608D01*
X208864348Y-85362609D01*
X208856291Y-85363670D01*
X208848781Y-85366780D01*
X208848776Y-85366782D01*
X208729885Y-85416028D01*
X208729883Y-85416029D01*
X208722375Y-85419139D01*
X208715933Y-85424082D01*
X208715928Y-85424085D01*
X208613821Y-85502435D01*
X208613817Y-85502438D01*
X208607379Y-85507379D01*
X208602438Y-85513817D01*
X208602435Y-85513821D01*
X208524085Y-85615928D01*
X208524082Y-85615933D01*
X208519139Y-85622375D01*
X208516029Y-85629883D01*
X208516028Y-85629885D01*
X208466782Y-85748776D01*
X208466780Y-85748781D01*
X208463670Y-85756291D01*
X208462609Y-85764348D01*
X208462608Y-85764353D01*
X208453981Y-85829885D01*
X208444750Y-85900000D01*
X208445811Y-85908059D01*
X208459065Y-86008735D01*
X208463670Y-86043709D01*
X208466781Y-86051220D01*
X208466782Y-86051223D01*
X208483648Y-86091941D01*
X208519139Y-86177625D01*
X208524086Y-86184072D01*
X208526356Y-86188004D01*
X208542966Y-86250000D01*
X208526356Y-86311996D01*
X208524085Y-86315927D01*
X208519139Y-86322375D01*
X208516028Y-86329884D01*
X208516027Y-86329887D01*
X208466782Y-86448776D01*
X208466780Y-86448781D01*
X208463670Y-86456291D01*
X208462609Y-86464348D01*
X208462608Y-86464353D01*
X208454382Y-86526838D01*
X208444750Y-86600000D01*
X207400000Y-86600000D01*
X207400000Y-82374500D01*
X207416613Y-82312500D01*
X207462000Y-82267113D01*
X207524000Y-82250500D01*
X224455830Y-82250500D01*
X224490244Y-82250500D01*
X224509631Y-82252025D01*
G37*
%TD.AperFunction*%
%TD*%
%TA.AperFunction,Conductor*%
%TO.N,VDC*%
G36*
X206838000Y-82267113D02*
G01*
X206883387Y-82312500D01*
X206900000Y-82374500D01*
X206900000Y-86222840D01*
X206885989Y-86280097D01*
X206847124Y-86324415D01*
X206792185Y-86345778D01*
X206766604Y-86349146D01*
X206664354Y-86362608D01*
X206664350Y-86362608D01*
X206656291Y-86363670D01*
X206648781Y-86366780D01*
X206648776Y-86366782D01*
X206529885Y-86416028D01*
X206529883Y-86416029D01*
X206522375Y-86419139D01*
X206515933Y-86424082D01*
X206515928Y-86424085D01*
X206413821Y-86502435D01*
X206413817Y-86502438D01*
X206407379Y-86507379D01*
X206402438Y-86513817D01*
X206402435Y-86513821D01*
X206324085Y-86615928D01*
X206324082Y-86615933D01*
X206319139Y-86622375D01*
X206316029Y-86629883D01*
X206316028Y-86629885D01*
X206266782Y-86748776D01*
X206266780Y-86748781D01*
X206263670Y-86756291D01*
X206262609Y-86764348D01*
X206262608Y-86764353D01*
X206252161Y-86843709D01*
X206244750Y-86900000D01*
X206245811Y-86908059D01*
X206254969Y-86977625D01*
X206263670Y-87043709D01*
X206266781Y-87051220D01*
X206266782Y-87051223D01*
X206283930Y-87092621D01*
X206319139Y-87177625D01*
X206324084Y-87184069D01*
X206324085Y-87184071D01*
X206369847Y-87243709D01*
X206407379Y-87292621D01*
X206522375Y-87380861D01*
X206656291Y-87436330D01*
X206792185Y-87454221D01*
X206847124Y-87475585D01*
X206885989Y-87519903D01*
X206900000Y-87577160D01*
X206900000Y-93000000D01*
X208700000Y-94800000D01*
X210676000Y-94800000D01*
X210738000Y-94816613D01*
X210783387Y-94862000D01*
X210800000Y-94924000D01*
X210800000Y-96728184D01*
X210785359Y-96786636D01*
X210744893Y-96831285D01*
X210688158Y-96851587D01*
X210634148Y-96843576D01*
X210634066Y-96843884D01*
X210631397Y-96843169D01*
X210628552Y-96842747D01*
X210626222Y-96841782D01*
X210618709Y-96838670D01*
X210610649Y-96837608D01*
X210610646Y-96837608D01*
X210483059Y-96820811D01*
X210475000Y-96819750D01*
X210466941Y-96820811D01*
X210339353Y-96837608D01*
X210339348Y-96837609D01*
X210331291Y-96838670D01*
X210323781Y-96841780D01*
X210323776Y-96841782D01*
X210204885Y-96891028D01*
X210204883Y-96891029D01*
X210197375Y-96894139D01*
X210190933Y-96899082D01*
X210190928Y-96899085D01*
X210088821Y-96977435D01*
X210088817Y-96977438D01*
X210082379Y-96982379D01*
X210077438Y-96988817D01*
X210077435Y-96988821D01*
X209999085Y-97090928D01*
X209999082Y-97090933D01*
X209994139Y-97097375D01*
X209991029Y-97104883D01*
X209991028Y-97104885D01*
X209941782Y-97223776D01*
X209941780Y-97223781D01*
X209938670Y-97231291D01*
X209937609Y-97239348D01*
X209937608Y-97239353D01*
X209930940Y-97290003D01*
X209919750Y-97375000D01*
X209920811Y-97383059D01*
X209936206Y-97500000D01*
X209938670Y-97518709D01*
X209994139Y-97652625D01*
X210082379Y-97767621D01*
X210197375Y-97855861D01*
X210331291Y-97911330D01*
X210475000Y-97930250D01*
X210618709Y-97911330D01*
X210628551Y-97907253D01*
X210631397Y-97906830D01*
X210634066Y-97906116D01*
X210634148Y-97906423D01*
X210688158Y-97898413D01*
X210744893Y-97918715D01*
X210785359Y-97963364D01*
X210800000Y-98021816D01*
X210800000Y-99625500D01*
X210783387Y-99687500D01*
X210738000Y-99732887D01*
X210676000Y-99749500D01*
X141774000Y-99749500D01*
X141712000Y-99732887D01*
X141666613Y-99687500D01*
X141650000Y-99625500D01*
X141650000Y-92604954D01*
X141662788Y-92550111D01*
X141698513Y-92506579D01*
X141749807Y-92483337D01*
X141803290Y-92485087D01*
X141806291Y-92486330D01*
X141950000Y-92505250D01*
X142093709Y-92486330D01*
X142227625Y-92430861D01*
X142249511Y-92414066D01*
X142298161Y-92391380D01*
X142351839Y-92391380D01*
X142400489Y-92414067D01*
X142415926Y-92425913D01*
X142415928Y-92425914D01*
X142422375Y-92430861D01*
X142556291Y-92486330D01*
X142700000Y-92505250D01*
X142739877Y-92500000D01*
X157732601Y-92500000D01*
X157733198Y-92506061D01*
X157751552Y-92692420D01*
X157751553Y-92692426D01*
X157752150Y-92698485D01*
X157753917Y-92704310D01*
X157753918Y-92704315D01*
X157781036Y-92793709D01*
X157810046Y-92889342D01*
X157812915Y-92894710D01*
X157812917Y-92894714D01*
X157901189Y-93059860D01*
X157901193Y-93059866D01*
X157904064Y-93065237D01*
X157907930Y-93069948D01*
X157907931Y-93069949D01*
X157991989Y-93172375D01*
X158030590Y-93219410D01*
X158184763Y-93345936D01*
X158190135Y-93348807D01*
X158190139Y-93348810D01*
X158334504Y-93425974D01*
X158360658Y-93439954D01*
X158551515Y-93497850D01*
X158750000Y-93517399D01*
X158948485Y-93497850D01*
X159139342Y-93439954D01*
X159315237Y-93345936D01*
X159469410Y-93219410D01*
X159595936Y-93065237D01*
X159689954Y-92889342D01*
X159747850Y-92698485D01*
X159767399Y-92500000D01*
X159747850Y-92301515D01*
X159689954Y-92110658D01*
X159629994Y-91998481D01*
X159598810Y-91940139D01*
X159598807Y-91940135D01*
X159595936Y-91934763D01*
X159469410Y-91780590D01*
X159463512Y-91775750D01*
X159319949Y-91657931D01*
X159319948Y-91657930D01*
X159315237Y-91654064D01*
X159309866Y-91651193D01*
X159309860Y-91651189D01*
X159144714Y-91562917D01*
X159144710Y-91562915D01*
X159139342Y-91560046D01*
X159133514Y-91558278D01*
X158954315Y-91503918D01*
X158954310Y-91503917D01*
X158948485Y-91502150D01*
X158942426Y-91501553D01*
X158942420Y-91501552D01*
X158756061Y-91483198D01*
X158750000Y-91482601D01*
X158743939Y-91483198D01*
X158557579Y-91501552D01*
X158557571Y-91501553D01*
X158551515Y-91502150D01*
X158545691Y-91503916D01*
X158545684Y-91503918D01*
X158366485Y-91558278D01*
X158366481Y-91558279D01*
X158360658Y-91560046D01*
X158355292Y-91562913D01*
X158355285Y-91562917D01*
X158190139Y-91651189D01*
X158190128Y-91651196D01*
X158184763Y-91654064D01*
X158180055Y-91657927D01*
X158180050Y-91657931D01*
X158035296Y-91776727D01*
X158035290Y-91776732D01*
X158030590Y-91780590D01*
X158026732Y-91785290D01*
X158026727Y-91785296D01*
X157907931Y-91930050D01*
X157907927Y-91930055D01*
X157904064Y-91934763D01*
X157901196Y-91940128D01*
X157901189Y-91940139D01*
X157812917Y-92105285D01*
X157812913Y-92105292D01*
X157810046Y-92110658D01*
X157808279Y-92116481D01*
X157808278Y-92116485D01*
X157753918Y-92295684D01*
X157753916Y-92295691D01*
X157752150Y-92301515D01*
X157751553Y-92307571D01*
X157751552Y-92307579D01*
X157736755Y-92457826D01*
X157732601Y-92500000D01*
X142739877Y-92500000D01*
X142843709Y-92486330D01*
X142977625Y-92430861D01*
X143092621Y-92342621D01*
X143180861Y-92227625D01*
X143236330Y-92093709D01*
X143255250Y-91950000D01*
X143236330Y-91806291D01*
X143180861Y-91672375D01*
X143179987Y-91671236D01*
X143164250Y-91612500D01*
X143179987Y-91553763D01*
X143180861Y-91552625D01*
X143236330Y-91418709D01*
X143255250Y-91275000D01*
X143236330Y-91131291D01*
X143180861Y-90997375D01*
X143092621Y-90882379D01*
X143020884Y-90827333D01*
X142984071Y-90799085D01*
X142984069Y-90799084D01*
X142977625Y-90794139D01*
X142933625Y-90775914D01*
X142851223Y-90741782D01*
X142851220Y-90741781D01*
X142843709Y-90738670D01*
X142835649Y-90737608D01*
X142835646Y-90737608D01*
X142708059Y-90720811D01*
X142700000Y-90719750D01*
X142691941Y-90720811D01*
X142564353Y-90737608D01*
X142564348Y-90737609D01*
X142556291Y-90738670D01*
X142548781Y-90741780D01*
X142548776Y-90741782D01*
X142429887Y-90791027D01*
X142429884Y-90791028D01*
X142422375Y-90794139D01*
X142415931Y-90799083D01*
X142415925Y-90799087D01*
X142384193Y-90823436D01*
X142335548Y-90846119D01*
X142281874Y-90846119D01*
X142241583Y-90827333D01*
X142241112Y-90828151D01*
X142234075Y-90824088D01*
X142227625Y-90819139D01*
X142220112Y-90816027D01*
X142101223Y-90766782D01*
X142101220Y-90766781D01*
X142093709Y-90763670D01*
X142085649Y-90762608D01*
X142085646Y-90762608D01*
X141958059Y-90745811D01*
X141950000Y-90744750D01*
X141941941Y-90745811D01*
X141814343Y-90762609D01*
X141814336Y-90762610D01*
X141806291Y-90763670D01*
X141803290Y-90764912D01*
X141749807Y-90766663D01*
X141698513Y-90743421D01*
X141662788Y-90699889D01*
X141650000Y-90645046D01*
X141650000Y-90424000D01*
X141666613Y-90362000D01*
X141712000Y-90316613D01*
X141774000Y-90300000D01*
X158084422Y-90300000D01*
X158126196Y-90307249D01*
X158163086Y-90328146D01*
X158184763Y-90345936D01*
X158190135Y-90348807D01*
X158190139Y-90348810D01*
X158315798Y-90415976D01*
X158360658Y-90439954D01*
X158551515Y-90497850D01*
X158750000Y-90517399D01*
X158948485Y-90497850D01*
X159139342Y-90439954D01*
X159315237Y-90345936D01*
X159336913Y-90328146D01*
X159373804Y-90307249D01*
X159415578Y-90300000D01*
X159587789Y-90300000D01*
X159600000Y-90300000D01*
X159628362Y-90271637D01*
X159686281Y-90238944D01*
X159752766Y-90240883D01*
X159808685Y-90276900D01*
X159837947Y-90336631D01*
X159832134Y-90402890D01*
X159791650Y-90510759D01*
X159791647Y-90510768D01*
X159789693Y-90515976D01*
X159788699Y-90521450D01*
X159788698Y-90521456D01*
X159750495Y-90731969D01*
X159749500Y-90737453D01*
X159749500Y-91406155D01*
X159749747Y-91408903D01*
X159749748Y-91408918D01*
X159764123Y-91568639D01*
X159764124Y-91568645D01*
X159764623Y-91574188D01*
X159766103Y-91579553D01*
X159766105Y-91579560D01*
X159823024Y-91785798D01*
X159824507Y-91791170D01*
X159826925Y-91796191D01*
X159919752Y-91988951D01*
X159919754Y-91988955D01*
X159922171Y-91993973D01*
X159925444Y-91998479D01*
X159925446Y-91998481D01*
X159981824Y-92076078D01*
X160054478Y-92176078D01*
X160058497Y-92179921D01*
X160058501Y-92179925D01*
X160179576Y-92295684D01*
X160217175Y-92331632D01*
X160405032Y-92455635D01*
X160612012Y-92544103D01*
X160831463Y-92594191D01*
X161056330Y-92604290D01*
X161279387Y-92574075D01*
X161493464Y-92504517D01*
X161691681Y-92397852D01*
X161867666Y-92257508D01*
X162015765Y-92087996D01*
X162131215Y-91894764D01*
X162210307Y-91684024D01*
X162250500Y-91462547D01*
X162250500Y-91306155D01*
X164749500Y-91306155D01*
X164749747Y-91308903D01*
X164749748Y-91308918D01*
X164764123Y-91468639D01*
X164764124Y-91468645D01*
X164764623Y-91474188D01*
X164766103Y-91479553D01*
X164766105Y-91479560D01*
X164823024Y-91685798D01*
X164824507Y-91691170D01*
X164826925Y-91696191D01*
X164919752Y-91888951D01*
X164919754Y-91888955D01*
X164922171Y-91893973D01*
X164925444Y-91898479D01*
X164925446Y-91898481D01*
X164957022Y-91941941D01*
X165054478Y-92076078D01*
X165058497Y-92079921D01*
X165058501Y-92079925D01*
X165205128Y-92220114D01*
X165217175Y-92231632D01*
X165405032Y-92355635D01*
X165612012Y-92444103D01*
X165831463Y-92494191D01*
X166056330Y-92504290D01*
X166279387Y-92474075D01*
X166493464Y-92404517D01*
X166691681Y-92297852D01*
X166867666Y-92157508D01*
X167015765Y-91987996D01*
X167131215Y-91794764D01*
X167210307Y-91584024D01*
X167242586Y-91406155D01*
X168749500Y-91406155D01*
X168749747Y-91408903D01*
X168749748Y-91408918D01*
X168764123Y-91568639D01*
X168764124Y-91568645D01*
X168764623Y-91574188D01*
X168766103Y-91579553D01*
X168766105Y-91579560D01*
X168823024Y-91785798D01*
X168824507Y-91791170D01*
X168826925Y-91796191D01*
X168919752Y-91988951D01*
X168919754Y-91988955D01*
X168922171Y-91993973D01*
X168925444Y-91998479D01*
X168925446Y-91998481D01*
X168981824Y-92076078D01*
X169054478Y-92176078D01*
X169058497Y-92179921D01*
X169058501Y-92179925D01*
X169179576Y-92295684D01*
X169217175Y-92331632D01*
X169405032Y-92455635D01*
X169612012Y-92544103D01*
X169831463Y-92594191D01*
X170056330Y-92604290D01*
X170279387Y-92574075D01*
X170493464Y-92504517D01*
X170691681Y-92397852D01*
X170867666Y-92257508D01*
X171015765Y-92087996D01*
X171131215Y-91894764D01*
X171210307Y-91684024D01*
X171250500Y-91462547D01*
X171250500Y-90793845D01*
X171235377Y-90625812D01*
X171175493Y-90408830D01*
X171077829Y-90206027D01*
X170945522Y-90023922D01*
X170941501Y-90020078D01*
X170941498Y-90020074D01*
X170786852Y-89872218D01*
X170786850Y-89872216D01*
X170782825Y-89868368D01*
X170594968Y-89744365D01*
X170589846Y-89742175D01*
X170589841Y-89742173D01*
X170393115Y-89658088D01*
X170393111Y-89658086D01*
X170387988Y-89655897D01*
X170382554Y-89654656D01*
X170382552Y-89654656D01*
X170173970Y-89607049D01*
X170173969Y-89607048D01*
X170168537Y-89605809D01*
X170162979Y-89605559D01*
X170162969Y-89605558D01*
X169949230Y-89595959D01*
X169949222Y-89595959D01*
X169943670Y-89595710D01*
X169938166Y-89596455D01*
X169938155Y-89596456D01*
X169726132Y-89625177D01*
X169726127Y-89625177D01*
X169720613Y-89625925D01*
X169715321Y-89627644D01*
X169715314Y-89627646D01*
X169511832Y-89693761D01*
X169511820Y-89693766D01*
X169506536Y-89695483D01*
X169501636Y-89698119D01*
X169501633Y-89698121D01*
X169313215Y-89799512D01*
X169313203Y-89799519D01*
X169308319Y-89802148D01*
X169303978Y-89805609D01*
X169303970Y-89805615D01*
X169136684Y-89939022D01*
X169136677Y-89939027D01*
X169132334Y-89942492D01*
X169128680Y-89946673D01*
X169128674Y-89946680D01*
X169025094Y-90065237D01*
X168984235Y-90112004D01*
X168981384Y-90116775D01*
X168981378Y-90116784D01*
X168871641Y-90300454D01*
X168871636Y-90300463D01*
X168868785Y-90305236D01*
X168866828Y-90310448D01*
X168866827Y-90310452D01*
X168791650Y-90510760D01*
X168791648Y-90510766D01*
X168789693Y-90515976D01*
X168788699Y-90521450D01*
X168788698Y-90521456D01*
X168750495Y-90731969D01*
X168749500Y-90737453D01*
X168749500Y-91406155D01*
X167242586Y-91406155D01*
X167250500Y-91362547D01*
X167250500Y-90693845D01*
X167235377Y-90525812D01*
X167175493Y-90308830D01*
X167077829Y-90106027D01*
X166945522Y-89923922D01*
X166941501Y-89920078D01*
X166941498Y-89920074D01*
X166786852Y-89772218D01*
X166786850Y-89772216D01*
X166782825Y-89768368D01*
X166610558Y-89654656D01*
X166599619Y-89647435D01*
X166599618Y-89647434D01*
X166594968Y-89644365D01*
X166589846Y-89642175D01*
X166589841Y-89642173D01*
X166393115Y-89558088D01*
X166393111Y-89558086D01*
X166387988Y-89555897D01*
X166382554Y-89554656D01*
X166382552Y-89554656D01*
X166173970Y-89507049D01*
X166173969Y-89507048D01*
X166168537Y-89505809D01*
X166162979Y-89505559D01*
X166162969Y-89505558D01*
X165949230Y-89495959D01*
X165949222Y-89495959D01*
X165943670Y-89495710D01*
X165938166Y-89496455D01*
X165938155Y-89496456D01*
X165726132Y-89525177D01*
X165726127Y-89525177D01*
X165720613Y-89525925D01*
X165715321Y-89527644D01*
X165715314Y-89527646D01*
X165511832Y-89593761D01*
X165511820Y-89593766D01*
X165506536Y-89595483D01*
X165501636Y-89598119D01*
X165501633Y-89598121D01*
X165313215Y-89699512D01*
X165313203Y-89699519D01*
X165308319Y-89702148D01*
X165303978Y-89705609D01*
X165303970Y-89705615D01*
X165136684Y-89839022D01*
X165136677Y-89839027D01*
X165132334Y-89842492D01*
X165128680Y-89846673D01*
X165128674Y-89846680D01*
X165041307Y-89946680D01*
X164984235Y-90012004D01*
X164981384Y-90016775D01*
X164981378Y-90016784D01*
X164871641Y-90200454D01*
X164871636Y-90200463D01*
X164868785Y-90205236D01*
X164866828Y-90210448D01*
X164866827Y-90210452D01*
X164791650Y-90410760D01*
X164791648Y-90410766D01*
X164789693Y-90415976D01*
X164788699Y-90421450D01*
X164788698Y-90421456D01*
X164750606Y-90631360D01*
X164749500Y-90637453D01*
X164749500Y-91306155D01*
X162250500Y-91306155D01*
X162250500Y-90793845D01*
X162235377Y-90625812D01*
X162175493Y-90408830D01*
X162077829Y-90206027D01*
X161945522Y-90023922D01*
X161941501Y-90020078D01*
X161941498Y-90020074D01*
X161786852Y-89872218D01*
X161786850Y-89872216D01*
X161782825Y-89868368D01*
X161594968Y-89744365D01*
X161589846Y-89742175D01*
X161589841Y-89742173D01*
X161393115Y-89658088D01*
X161393111Y-89658086D01*
X161387988Y-89655897D01*
X161382554Y-89654656D01*
X161382552Y-89654656D01*
X161173970Y-89607049D01*
X161173969Y-89607048D01*
X161168537Y-89605809D01*
X161162979Y-89605559D01*
X161162969Y-89605558D01*
X160949230Y-89595959D01*
X160949222Y-89595959D01*
X160943670Y-89595710D01*
X160938166Y-89596455D01*
X160938155Y-89596456D01*
X160726132Y-89625177D01*
X160726127Y-89625177D01*
X160720613Y-89625925D01*
X160715321Y-89627644D01*
X160715314Y-89627646D01*
X160550370Y-89681240D01*
X160485002Y-89684323D01*
X160427168Y-89653701D01*
X160392976Y-89597904D01*
X160391948Y-89532471D01*
X160424369Y-89475630D01*
X161563680Y-88336319D01*
X161603909Y-88309439D01*
X161651362Y-88300000D01*
X172176000Y-88300000D01*
X172238000Y-88316613D01*
X172283387Y-88362000D01*
X172300000Y-88424000D01*
X172300000Y-96600000D01*
X172300000Y-98000000D01*
X172316326Y-98000000D01*
X187268917Y-98000000D01*
X187316369Y-98009439D01*
X187381291Y-98036330D01*
X187525000Y-98055250D01*
X187668709Y-98036330D01*
X187733630Y-98009439D01*
X187781083Y-98000000D01*
X194743917Y-98000000D01*
X194791369Y-98009439D01*
X194856291Y-98036330D01*
X195000000Y-98055250D01*
X195143709Y-98036330D01*
X195208630Y-98009439D01*
X195256083Y-98000000D01*
X195493917Y-98000000D01*
X195541369Y-98009439D01*
X195606291Y-98036330D01*
X195750000Y-98055250D01*
X195893709Y-98036330D01*
X195958630Y-98009439D01*
X196006083Y-98000000D01*
X202883674Y-98000000D01*
X202900000Y-98000000D01*
X202900000Y-96900000D01*
X202900000Y-95975000D01*
X203794750Y-95975000D01*
X203813670Y-96118709D01*
X203869139Y-96252625D01*
X203874084Y-96259069D01*
X203874085Y-96259071D01*
X203937820Y-96342132D01*
X203957379Y-96367621D01*
X204072375Y-96455861D01*
X204206291Y-96511330D01*
X204350000Y-96530250D01*
X204493709Y-96511330D01*
X204627625Y-96455861D01*
X204634079Y-96450908D01*
X204637998Y-96448646D01*
X204700000Y-96432032D01*
X204762002Y-96448646D01*
X204765921Y-96450908D01*
X204772375Y-96455861D01*
X204906291Y-96511330D01*
X205050000Y-96530250D01*
X205193709Y-96511330D01*
X205327625Y-96455861D01*
X205442621Y-96367621D01*
X205530861Y-96252625D01*
X205586330Y-96118709D01*
X205605250Y-95975000D01*
X205586330Y-95831291D01*
X205530861Y-95697375D01*
X205442621Y-95582379D01*
X205358677Y-95517966D01*
X205334071Y-95499085D01*
X205334069Y-95499084D01*
X205327625Y-95494139D01*
X205244189Y-95459579D01*
X205201223Y-95441782D01*
X205201220Y-95441781D01*
X205193709Y-95438670D01*
X205185649Y-95437608D01*
X205185646Y-95437608D01*
X205058059Y-95420811D01*
X205050000Y-95419750D01*
X205041941Y-95420811D01*
X204914353Y-95437608D01*
X204914348Y-95437609D01*
X204906291Y-95438670D01*
X204898781Y-95441780D01*
X204898776Y-95441782D01*
X204779887Y-95491027D01*
X204779884Y-95491028D01*
X204772375Y-95494139D01*
X204765927Y-95499085D01*
X204761996Y-95501356D01*
X204700000Y-95517966D01*
X204638004Y-95501356D01*
X204634072Y-95499086D01*
X204627625Y-95494139D01*
X204544189Y-95459579D01*
X204501223Y-95441782D01*
X204501220Y-95441781D01*
X204493709Y-95438670D01*
X204485649Y-95437608D01*
X204485646Y-95437608D01*
X204358059Y-95420811D01*
X204350000Y-95419750D01*
X204341941Y-95420811D01*
X204214353Y-95437608D01*
X204214348Y-95437609D01*
X204206291Y-95438670D01*
X204198781Y-95441780D01*
X204198776Y-95441782D01*
X204079885Y-95491028D01*
X204079883Y-95491029D01*
X204072375Y-95494139D01*
X204065933Y-95499082D01*
X204065928Y-95499085D01*
X203963821Y-95577435D01*
X203963817Y-95577438D01*
X203957379Y-95582379D01*
X203952438Y-95588817D01*
X203952435Y-95588821D01*
X203874085Y-95690928D01*
X203874082Y-95690933D01*
X203869139Y-95697375D01*
X203866029Y-95704883D01*
X203866028Y-95704885D01*
X203816782Y-95823776D01*
X203816780Y-95823781D01*
X203813670Y-95831291D01*
X203812609Y-95839348D01*
X203812608Y-95839353D01*
X203796242Y-95963670D01*
X203794750Y-95975000D01*
X202900000Y-95975000D01*
X202900000Y-89723308D01*
X202918699Y-89657828D01*
X202969156Y-89612096D01*
X203036154Y-89599905D01*
X203099486Y-89624932D01*
X203165923Y-89675911D01*
X203165927Y-89675913D01*
X203172375Y-89680861D01*
X203306291Y-89736330D01*
X203450000Y-89755250D01*
X203593709Y-89736330D01*
X203727625Y-89680861D01*
X203842621Y-89592621D01*
X203930861Y-89477625D01*
X203986330Y-89343709D01*
X204005250Y-89200000D01*
X203992085Y-89100000D01*
X204344750Y-89100000D01*
X204345811Y-89108059D01*
X204358976Y-89208059D01*
X204363670Y-89243709D01*
X204366781Y-89251220D01*
X204366782Y-89251223D01*
X204383930Y-89292621D01*
X204419139Y-89377625D01*
X204424084Y-89384069D01*
X204424085Y-89384071D01*
X204460799Y-89431917D01*
X204507379Y-89492621D01*
X204622375Y-89580861D01*
X204660724Y-89596745D01*
X204714061Y-89639077D01*
X204737003Y-89703193D01*
X204722628Y-89769756D01*
X204676484Y-89817436D01*
X204672375Y-89819139D01*
X204665937Y-89824078D01*
X204665930Y-89824083D01*
X204563821Y-89902435D01*
X204563817Y-89902438D01*
X204557379Y-89907379D01*
X204552438Y-89913817D01*
X204552435Y-89913821D01*
X204474085Y-90015928D01*
X204474082Y-90015933D01*
X204469139Y-90022375D01*
X204466029Y-90029883D01*
X204466028Y-90029885D01*
X204416782Y-90148776D01*
X204416780Y-90148781D01*
X204413670Y-90156291D01*
X204412609Y-90164348D01*
X204412608Y-90164353D01*
X204407226Y-90205236D01*
X204394750Y-90300000D01*
X204395811Y-90308059D01*
X204410018Y-90415976D01*
X204413670Y-90443709D01*
X204416781Y-90451220D01*
X204416782Y-90451223D01*
X204443946Y-90516802D01*
X204469139Y-90577625D01*
X204474084Y-90584069D01*
X204474085Y-90584071D01*
X204510839Y-90631969D01*
X204557379Y-90692621D01*
X204672375Y-90780861D01*
X204806291Y-90836330D01*
X204950000Y-90855250D01*
X205093709Y-90836330D01*
X205227625Y-90780861D01*
X205342621Y-90692621D01*
X205430861Y-90577625D01*
X205486330Y-90443709D01*
X205505250Y-90300000D01*
X205486330Y-90156291D01*
X205430861Y-90022375D01*
X205342621Y-89907379D01*
X205227625Y-89819139D01*
X205189276Y-89803254D01*
X205135936Y-89760920D01*
X205112995Y-89696801D01*
X205127374Y-89630236D01*
X205173518Y-89582561D01*
X205177625Y-89580861D01*
X205292621Y-89492621D01*
X205380861Y-89377625D01*
X205436330Y-89243709D01*
X205455250Y-89100000D01*
X205436330Y-88956291D01*
X205380861Y-88822375D01*
X205292621Y-88707379D01*
X205223140Y-88654064D01*
X205184071Y-88624085D01*
X205184069Y-88624084D01*
X205177625Y-88619139D01*
X205113604Y-88592621D01*
X205051223Y-88566782D01*
X205051220Y-88566781D01*
X205043709Y-88563670D01*
X205035649Y-88562608D01*
X205035646Y-88562608D01*
X204908059Y-88545811D01*
X204900000Y-88544750D01*
X204891941Y-88545811D01*
X204764353Y-88562608D01*
X204764348Y-88562609D01*
X204756291Y-88563670D01*
X204748781Y-88566780D01*
X204748776Y-88566782D01*
X204629885Y-88616028D01*
X204629883Y-88616029D01*
X204622375Y-88619139D01*
X204615933Y-88624082D01*
X204615928Y-88624085D01*
X204513821Y-88702435D01*
X204513817Y-88702438D01*
X204507379Y-88707379D01*
X204502438Y-88713817D01*
X204502435Y-88713821D01*
X204424085Y-88815928D01*
X204424082Y-88815933D01*
X204419139Y-88822375D01*
X204416029Y-88829883D01*
X204416028Y-88829885D01*
X204366782Y-88948776D01*
X204366780Y-88948781D01*
X204363670Y-88956291D01*
X204362609Y-88964348D01*
X204362608Y-88964353D01*
X204349443Y-89064353D01*
X204344750Y-89100000D01*
X203992085Y-89100000D01*
X203986330Y-89056291D01*
X203930861Y-88922375D01*
X203842621Y-88807379D01*
X203727625Y-88719139D01*
X203675081Y-88697375D01*
X203601223Y-88666782D01*
X203601220Y-88666781D01*
X203593709Y-88663670D01*
X203585649Y-88662608D01*
X203585646Y-88662608D01*
X203458059Y-88645811D01*
X203450000Y-88644750D01*
X203441941Y-88645811D01*
X203314353Y-88662608D01*
X203314348Y-88662609D01*
X203306291Y-88663670D01*
X203298781Y-88666780D01*
X203298776Y-88666782D01*
X203179885Y-88716028D01*
X203179883Y-88716029D01*
X203172375Y-88719139D01*
X203165932Y-88724082D01*
X203165923Y-88724088D01*
X203099486Y-88775068D01*
X203036154Y-88800095D01*
X202969156Y-88787904D01*
X202918699Y-88742172D01*
X202900000Y-88676692D01*
X202900000Y-84450000D01*
X204594353Y-84450000D01*
X204595615Y-84458777D01*
X204613572Y-84583677D01*
X204613573Y-84583681D01*
X204614835Y-84592457D01*
X204618519Y-84600525D01*
X204618520Y-84600526D01*
X204670191Y-84713670D01*
X204674623Y-84723373D01*
X204680430Y-84730075D01*
X204680431Y-84730076D01*
X204763065Y-84825442D01*
X204763067Y-84825444D01*
X204768872Y-84832143D01*
X204889947Y-84909953D01*
X205028039Y-84950500D01*
X205163090Y-84950500D01*
X205171961Y-84950500D01*
X205310053Y-84909953D01*
X205431128Y-84832143D01*
X205525377Y-84723373D01*
X205585165Y-84592457D01*
X205605647Y-84450000D01*
X205585165Y-84307543D01*
X205525377Y-84176627D01*
X205453529Y-84093709D01*
X205436934Y-84074557D01*
X205436932Y-84074555D01*
X205431128Y-84067857D01*
X205310053Y-83990047D01*
X205238846Y-83969139D01*
X205180473Y-83951999D01*
X205180470Y-83951998D01*
X205171961Y-83949500D01*
X205028039Y-83949500D01*
X205019530Y-83951998D01*
X205019526Y-83951999D01*
X204898461Y-83987547D01*
X204889947Y-83990047D01*
X204882484Y-83994842D01*
X204882484Y-83994843D01*
X204776329Y-84063064D01*
X204776325Y-84063066D01*
X204768872Y-84067857D01*
X204763070Y-84074551D01*
X204763065Y-84074557D01*
X204680431Y-84169923D01*
X204680428Y-84169927D01*
X204674623Y-84176627D01*
X204670941Y-84184689D01*
X204670938Y-84184694D01*
X204618520Y-84299473D01*
X204614835Y-84307543D01*
X204613573Y-84316316D01*
X204613572Y-84316322D01*
X204599008Y-84417621D01*
X204594353Y-84450000D01*
X202900000Y-84450000D01*
X202900000Y-82374500D01*
X202916613Y-82312500D01*
X202962000Y-82267113D01*
X203024000Y-82250500D01*
X206776000Y-82250500D01*
X206838000Y-82267113D01*
G37*
%TD.AperFunction*%
%TD*%
%TA.AperFunction,Conductor*%
%TO.N,+3V3*%
G36*
X180112329Y-82268773D02*
G01*
X180158024Y-82318205D01*
X180171157Y-82384229D01*
X180147857Y-82447386D01*
X180094991Y-82489061D01*
X180029885Y-82516028D01*
X180029883Y-82516029D01*
X180022375Y-82519139D01*
X180015933Y-82524082D01*
X180015928Y-82524085D01*
X179913821Y-82602435D01*
X179913817Y-82602438D01*
X179907379Y-82607379D01*
X179902438Y-82613817D01*
X179902435Y-82613821D01*
X179824085Y-82715928D01*
X179824082Y-82715933D01*
X179819139Y-82722375D01*
X179816029Y-82729883D01*
X179816028Y-82729885D01*
X179766782Y-82848776D01*
X179766780Y-82848781D01*
X179763670Y-82856291D01*
X179762609Y-82864348D01*
X179762608Y-82864353D01*
X179753981Y-82929885D01*
X179744750Y-83000000D01*
X179745811Y-83008059D01*
X179757792Y-83099066D01*
X179763670Y-83143709D01*
X179766781Y-83151220D01*
X179766782Y-83151223D01*
X179790324Y-83208059D01*
X179819139Y-83277625D01*
X179824084Y-83284069D01*
X179824085Y-83284071D01*
X179875587Y-83351189D01*
X179907379Y-83392621D01*
X180022375Y-83480861D01*
X180156291Y-83536330D01*
X180300000Y-83555250D01*
X180328251Y-83551530D01*
X180384292Y-83557049D01*
X180432116Y-83586786D01*
X180461855Y-83634609D01*
X180467375Y-83690654D01*
X180455394Y-83781662D01*
X180454333Y-83789722D01*
X180455394Y-83797781D01*
X180470511Y-83912608D01*
X180473253Y-83933431D01*
X180476364Y-83940942D01*
X180476365Y-83940945D01*
X180500608Y-83999473D01*
X180528722Y-84067347D01*
X180533667Y-84073791D01*
X180533668Y-84073793D01*
X180566302Y-84116322D01*
X180616962Y-84182343D01*
X180731958Y-84270583D01*
X180865874Y-84326052D01*
X181009583Y-84344972D01*
X181153292Y-84326052D01*
X181287208Y-84270583D01*
X181402204Y-84182343D01*
X181490444Y-84067347D01*
X181545913Y-83933431D01*
X181564833Y-83789722D01*
X181559603Y-83750000D01*
X182544750Y-83750000D01*
X182545811Y-83758059D01*
X182562120Y-83881941D01*
X182563670Y-83893709D01*
X182566781Y-83901220D01*
X182566782Y-83901223D01*
X182590324Y-83958059D01*
X182619139Y-84027625D01*
X182624084Y-84034069D01*
X182624085Y-84034071D01*
X182687199Y-84116322D01*
X182707379Y-84142621D01*
X182822375Y-84230861D01*
X182956291Y-84286330D01*
X183100000Y-84305250D01*
X183243709Y-84286330D01*
X183377625Y-84230861D01*
X183385263Y-84225000D01*
X185969750Y-84225000D01*
X185970811Y-84233059D01*
X185985544Y-84344972D01*
X185988670Y-84368709D01*
X185991781Y-84376220D01*
X185991782Y-84376223D01*
X186001849Y-84400526D01*
X186044139Y-84502625D01*
X186049084Y-84509069D01*
X186049085Y-84509071D01*
X186119796Y-84601223D01*
X186132379Y-84617621D01*
X186247375Y-84705861D01*
X186381291Y-84761330D01*
X186525000Y-84780250D01*
X186668709Y-84761330D01*
X186802625Y-84705861D01*
X186917621Y-84617621D01*
X187005861Y-84502625D01*
X187027659Y-84450000D01*
X190344750Y-84450000D01*
X190345811Y-84458059D01*
X190359546Y-84562391D01*
X190363670Y-84593709D01*
X190366781Y-84601220D01*
X190366782Y-84601223D01*
X190383582Y-84641782D01*
X190419139Y-84727625D01*
X190424084Y-84734069D01*
X190424085Y-84734071D01*
X190470779Y-84794923D01*
X190507379Y-84842621D01*
X190622375Y-84930861D01*
X190756291Y-84986330D01*
X190900000Y-85005250D01*
X191014721Y-84990146D01*
X191079378Y-84998952D01*
X191130612Y-85039366D01*
X191154233Y-85100197D01*
X191143699Y-85164596D01*
X191093520Y-85274470D01*
X191093516Y-85274481D01*
X191089835Y-85282543D01*
X191088573Y-85291316D01*
X191088572Y-85291322D01*
X191080370Y-85348373D01*
X191069353Y-85425000D01*
X191072245Y-85445114D01*
X191088572Y-85558677D01*
X191088573Y-85558681D01*
X191089835Y-85567457D01*
X191093519Y-85575525D01*
X191093520Y-85575526D01*
X191139691Y-85676627D01*
X191149623Y-85698373D01*
X191155430Y-85705075D01*
X191155431Y-85705076D01*
X191238065Y-85800442D01*
X191238067Y-85800444D01*
X191243872Y-85807143D01*
X191364947Y-85884953D01*
X191503039Y-85925500D01*
X191638090Y-85925500D01*
X191646961Y-85925500D01*
X191785053Y-85884953D01*
X191906128Y-85807143D01*
X192000377Y-85698373D01*
X192060165Y-85567457D01*
X192080647Y-85425000D01*
X192060165Y-85282543D01*
X192000377Y-85151627D01*
X191933596Y-85074557D01*
X191911934Y-85049557D01*
X191911932Y-85049555D01*
X191906128Y-85042857D01*
X191785053Y-84965047D01*
X191729863Y-84948841D01*
X191655473Y-84926999D01*
X191655470Y-84926998D01*
X191646961Y-84924500D01*
X191503039Y-84924500D01*
X191495546Y-84926700D01*
X191438246Y-84921293D01*
X191389184Y-84889998D01*
X191359802Y-84839768D01*
X191356570Y-84781665D01*
X191374028Y-84742374D01*
X191371848Y-84741115D01*
X191375912Y-84734074D01*
X191380861Y-84727625D01*
X191436330Y-84593709D01*
X191455250Y-84450000D01*
X191436330Y-84306291D01*
X191380861Y-84172375D01*
X191292621Y-84057379D01*
X191283005Y-84050000D01*
X191184071Y-83974085D01*
X191184069Y-83974084D01*
X191177625Y-83969139D01*
X191125081Y-83947375D01*
X191051223Y-83916782D01*
X191051220Y-83916781D01*
X191043709Y-83913670D01*
X191035649Y-83912608D01*
X191035646Y-83912608D01*
X190908059Y-83895811D01*
X190900000Y-83894750D01*
X190891941Y-83895811D01*
X190764353Y-83912608D01*
X190764348Y-83912609D01*
X190756291Y-83913670D01*
X190748781Y-83916780D01*
X190748776Y-83916782D01*
X190629885Y-83966028D01*
X190629883Y-83966029D01*
X190622375Y-83969139D01*
X190615933Y-83974082D01*
X190615928Y-83974085D01*
X190513821Y-84052435D01*
X190513817Y-84052438D01*
X190507379Y-84057379D01*
X190502438Y-84063817D01*
X190502435Y-84063821D01*
X190424085Y-84165928D01*
X190424082Y-84165933D01*
X190419139Y-84172375D01*
X190416029Y-84179883D01*
X190416028Y-84179885D01*
X190366782Y-84298776D01*
X190366780Y-84298781D01*
X190363670Y-84306291D01*
X190362609Y-84314348D01*
X190362608Y-84314353D01*
X190347921Y-84425914D01*
X190344750Y-84450000D01*
X187027659Y-84450000D01*
X187061330Y-84368709D01*
X187080250Y-84225000D01*
X187061330Y-84081291D01*
X187005861Y-83947375D01*
X186917621Y-83832379D01*
X186870927Y-83796549D01*
X186809071Y-83749085D01*
X186809069Y-83749084D01*
X186802625Y-83744139D01*
X186765781Y-83728878D01*
X186676223Y-83691782D01*
X186676220Y-83691781D01*
X186668709Y-83688670D01*
X186660649Y-83687608D01*
X186660646Y-83687608D01*
X186533059Y-83670811D01*
X186525000Y-83669750D01*
X186516941Y-83670811D01*
X186389353Y-83687608D01*
X186389348Y-83687609D01*
X186381291Y-83688670D01*
X186373781Y-83691780D01*
X186373776Y-83691782D01*
X186254885Y-83741028D01*
X186254883Y-83741029D01*
X186247375Y-83744139D01*
X186240933Y-83749082D01*
X186240928Y-83749085D01*
X186138821Y-83827435D01*
X186138817Y-83827438D01*
X186132379Y-83832379D01*
X186127438Y-83838817D01*
X186127435Y-83838821D01*
X186049085Y-83940928D01*
X186049082Y-83940933D01*
X186044139Y-83947375D01*
X186041029Y-83954883D01*
X186041028Y-83954885D01*
X185991782Y-84073776D01*
X185991780Y-84073781D01*
X185988670Y-84081291D01*
X185987609Y-84089348D01*
X185987608Y-84089353D01*
X185971731Y-84209953D01*
X185969750Y-84225000D01*
X183385263Y-84225000D01*
X183492621Y-84142621D01*
X183580861Y-84027625D01*
X183636330Y-83893709D01*
X183655250Y-83750000D01*
X183636330Y-83606291D01*
X183580861Y-83472375D01*
X183492621Y-83357379D01*
X183486178Y-83352435D01*
X183384071Y-83274085D01*
X183384069Y-83274084D01*
X183377625Y-83269139D01*
X183296492Y-83235533D01*
X183251223Y-83216782D01*
X183251220Y-83216781D01*
X183243709Y-83213670D01*
X183235649Y-83212608D01*
X183235646Y-83212608D01*
X183108059Y-83195811D01*
X183100000Y-83194750D01*
X183091941Y-83195811D01*
X182964353Y-83212608D01*
X182964348Y-83212609D01*
X182956291Y-83213670D01*
X182948781Y-83216780D01*
X182948776Y-83216782D01*
X182829885Y-83266028D01*
X182829883Y-83266029D01*
X182822375Y-83269139D01*
X182815933Y-83274082D01*
X182815928Y-83274085D01*
X182713821Y-83352435D01*
X182713817Y-83352438D01*
X182707379Y-83357379D01*
X182702438Y-83363817D01*
X182702435Y-83363821D01*
X182624085Y-83465928D01*
X182624082Y-83465933D01*
X182619139Y-83472375D01*
X182616029Y-83479883D01*
X182616028Y-83479885D01*
X182566782Y-83598776D01*
X182566780Y-83598781D01*
X182563670Y-83606291D01*
X182562609Y-83614348D01*
X182562608Y-83614353D01*
X182547531Y-83728878D01*
X182544750Y-83750000D01*
X181559603Y-83750000D01*
X181545913Y-83646013D01*
X181490444Y-83512097D01*
X181402204Y-83397101D01*
X181363295Y-83367245D01*
X181293654Y-83313807D01*
X181293652Y-83313806D01*
X181287208Y-83308861D01*
X181211797Y-83277625D01*
X181160806Y-83256504D01*
X181160803Y-83256503D01*
X181153292Y-83253392D01*
X181145232Y-83252330D01*
X181145229Y-83252330D01*
X181017642Y-83235533D01*
X181009583Y-83234472D01*
X181001524Y-83235533D01*
X181001521Y-83235533D01*
X180981330Y-83238191D01*
X180925286Y-83232671D01*
X180877464Y-83202932D01*
X180847726Y-83155110D01*
X180842207Y-83099066D01*
X180846778Y-83064353D01*
X180855250Y-83000000D01*
X180836330Y-82856291D01*
X180780861Y-82722375D01*
X180692621Y-82607379D01*
X180577625Y-82519139D01*
X180505008Y-82489060D01*
X180452143Y-82447386D01*
X180428843Y-82384229D01*
X180441976Y-82318205D01*
X180487671Y-82268773D01*
X180552461Y-82250500D01*
X202076000Y-82250500D01*
X202138000Y-82267113D01*
X202183387Y-82312500D01*
X202200000Y-82374500D01*
X202200000Y-97176000D01*
X202183387Y-97238000D01*
X202138000Y-97283387D01*
X202076000Y-97300000D01*
X196345868Y-97300000D01*
X196298412Y-97290560D01*
X196258182Y-97263676D01*
X196239673Y-97235972D01*
X196238033Y-97236920D01*
X196233971Y-97229885D01*
X196230861Y-97222375D01*
X196142621Y-97107379D01*
X196136178Y-97102435D01*
X196136172Y-97102429D01*
X196130884Y-97098371D01*
X196095160Y-97054837D01*
X196082375Y-96999992D01*
X196095166Y-96945149D01*
X196130892Y-96901620D01*
X196142621Y-96892621D01*
X196230861Y-96777625D01*
X196286330Y-96643709D01*
X196305250Y-96500000D01*
X196286330Y-96356291D01*
X196230861Y-96222375D01*
X196142621Y-96107379D01*
X196124999Y-96093857D01*
X196034071Y-96024085D01*
X196034069Y-96024084D01*
X196027625Y-96019139D01*
X195991592Y-96004214D01*
X195901223Y-95966782D01*
X195901220Y-95966781D01*
X195893709Y-95963670D01*
X195885649Y-95962608D01*
X195885646Y-95962608D01*
X195758059Y-95945811D01*
X195750000Y-95944750D01*
X195741941Y-95945811D01*
X195614353Y-95962608D01*
X195614348Y-95962609D01*
X195606291Y-95963670D01*
X195598781Y-95966780D01*
X195598776Y-95966782D01*
X195479887Y-96016027D01*
X195479884Y-96016028D01*
X195472375Y-96019139D01*
X195465931Y-96024083D01*
X195465925Y-96024087D01*
X195450484Y-96035936D01*
X195401837Y-96058619D01*
X195348163Y-96058619D01*
X195299516Y-96035936D01*
X195284074Y-96024087D01*
X195284071Y-96024085D01*
X195277625Y-96019139D01*
X195270112Y-96016027D01*
X195151223Y-95966782D01*
X195151220Y-95966781D01*
X195143709Y-95963670D01*
X195135649Y-95962608D01*
X195135646Y-95962608D01*
X195008059Y-95945811D01*
X195000000Y-95944750D01*
X194991941Y-95945811D01*
X194864353Y-95962608D01*
X194864348Y-95962609D01*
X194856291Y-95963670D01*
X194848781Y-95966780D01*
X194848776Y-95966782D01*
X194729885Y-96016028D01*
X194729883Y-96016029D01*
X194722375Y-96019139D01*
X194715933Y-96024082D01*
X194715928Y-96024085D01*
X194613821Y-96102435D01*
X194613817Y-96102438D01*
X194607379Y-96107379D01*
X194602438Y-96113817D01*
X194602435Y-96113821D01*
X194524085Y-96215928D01*
X194524082Y-96215933D01*
X194519139Y-96222375D01*
X194516029Y-96229883D01*
X194516028Y-96229885D01*
X194466782Y-96348776D01*
X194466780Y-96348781D01*
X194463670Y-96356291D01*
X194462609Y-96364348D01*
X194462608Y-96364353D01*
X194454410Y-96426627D01*
X194444750Y-96500000D01*
X194445811Y-96508059D01*
X194460903Y-96622696D01*
X194463670Y-96643709D01*
X194466781Y-96651220D01*
X194466782Y-96651223D01*
X194490622Y-96708777D01*
X194519139Y-96777625D01*
X194524084Y-96784069D01*
X194524085Y-96784071D01*
X194593706Y-96874802D01*
X194607379Y-96892621D01*
X194613821Y-96897564D01*
X194613823Y-96897566D01*
X194619109Y-96901622D01*
X194654834Y-96945151D01*
X194667624Y-96999992D01*
X194654840Y-97054835D01*
X194619119Y-97098368D01*
X194613829Y-97102427D01*
X194613817Y-97102438D01*
X194607379Y-97107379D01*
X194602438Y-97113817D01*
X194602435Y-97113821D01*
X194524085Y-97215928D01*
X194524082Y-97215933D01*
X194519139Y-97222375D01*
X194516028Y-97229883D01*
X194511967Y-97236920D01*
X194510326Y-97235972D01*
X194491818Y-97263676D01*
X194451588Y-97290560D01*
X194404132Y-97300000D01*
X191570578Y-97300000D01*
X191513321Y-97285989D01*
X191469004Y-97247124D01*
X191447639Y-97192186D01*
X191439585Y-97131014D01*
X191436330Y-97106291D01*
X191380861Y-96972375D01*
X191292621Y-96857379D01*
X191283690Y-96850526D01*
X191184071Y-96774085D01*
X191184069Y-96774084D01*
X191177625Y-96769139D01*
X191141592Y-96754214D01*
X191051223Y-96716782D01*
X191051220Y-96716781D01*
X191043709Y-96713670D01*
X191035649Y-96712608D01*
X191035646Y-96712608D01*
X190908059Y-96695811D01*
X190900000Y-96694750D01*
X190891941Y-96695811D01*
X190764353Y-96712608D01*
X190764348Y-96712609D01*
X190756291Y-96713670D01*
X190748781Y-96716780D01*
X190748776Y-96716782D01*
X190629885Y-96766028D01*
X190629883Y-96766029D01*
X190622375Y-96769139D01*
X190615933Y-96774082D01*
X190615928Y-96774085D01*
X190513821Y-96852435D01*
X190513817Y-96852438D01*
X190507379Y-96857379D01*
X190502438Y-96863817D01*
X190502435Y-96863821D01*
X190424085Y-96965928D01*
X190424082Y-96965933D01*
X190419139Y-96972375D01*
X190416029Y-96979883D01*
X190416028Y-96979885D01*
X190366782Y-97098776D01*
X190366780Y-97098781D01*
X190363670Y-97106291D01*
X190362609Y-97114348D01*
X190362608Y-97114353D01*
X190352361Y-97192186D01*
X190330996Y-97247124D01*
X190286679Y-97285989D01*
X190229422Y-97300000D01*
X188120868Y-97300000D01*
X188073412Y-97290560D01*
X188033182Y-97263676D01*
X188014673Y-97235972D01*
X188013033Y-97236920D01*
X188008971Y-97229885D01*
X188005861Y-97222375D01*
X187917621Y-97107379D01*
X187911170Y-97102429D01*
X187809071Y-97024085D01*
X187809069Y-97024084D01*
X187802625Y-97019139D01*
X187756399Y-96999992D01*
X187676223Y-96966782D01*
X187676220Y-96966781D01*
X187668709Y-96963670D01*
X187660649Y-96962608D01*
X187660646Y-96962608D01*
X187533059Y-96945811D01*
X187525000Y-96944750D01*
X187516941Y-96945811D01*
X187389353Y-96962608D01*
X187389348Y-96962609D01*
X187381291Y-96963670D01*
X187373781Y-96966780D01*
X187373776Y-96966782D01*
X187254885Y-97016028D01*
X187254883Y-97016029D01*
X187247375Y-97019139D01*
X187240933Y-97024082D01*
X187240928Y-97024085D01*
X187138821Y-97102435D01*
X187138817Y-97102438D01*
X187132379Y-97107379D01*
X187127438Y-97113817D01*
X187127435Y-97113821D01*
X187049085Y-97215928D01*
X187049082Y-97215933D01*
X187044139Y-97222375D01*
X187041028Y-97229883D01*
X187036967Y-97236920D01*
X187035326Y-97235972D01*
X187016818Y-97263676D01*
X186976588Y-97290560D01*
X186929132Y-97300000D01*
X182922737Y-97300000D01*
X182864871Y-97285670D01*
X182820379Y-97245992D01*
X182799545Y-97190137D01*
X182807185Y-97131014D01*
X182839984Y-97084484D01*
X182843628Y-97082143D01*
X182937877Y-96973373D01*
X182997665Y-96842457D01*
X183018147Y-96700000D01*
X182997665Y-96557543D01*
X182937877Y-96426627D01*
X182876931Y-96356291D01*
X182849434Y-96324557D01*
X182849432Y-96324555D01*
X182843628Y-96317857D01*
X182722553Y-96240047D01*
X182662367Y-96222375D01*
X182592973Y-96201999D01*
X182592970Y-96201998D01*
X182584461Y-96199500D01*
X182440539Y-96199500D01*
X182432030Y-96201998D01*
X182432026Y-96201999D01*
X182328010Y-96232541D01*
X182302447Y-96240047D01*
X182294984Y-96244842D01*
X182294984Y-96244843D01*
X182188829Y-96313064D01*
X182188825Y-96313066D01*
X182181372Y-96317857D01*
X182175570Y-96324551D01*
X182175565Y-96324557D01*
X182092931Y-96419923D01*
X182092928Y-96419927D01*
X182087123Y-96426627D01*
X182083441Y-96434689D01*
X182083438Y-96434694D01*
X182031020Y-96549473D01*
X182027335Y-96557543D01*
X182026073Y-96566316D01*
X182026072Y-96566322D01*
X182014946Y-96643709D01*
X182006853Y-96700000D01*
X182008115Y-96708777D01*
X182026072Y-96833677D01*
X182026073Y-96833681D01*
X182027335Y-96842457D01*
X182031019Y-96850525D01*
X182031020Y-96850526D01*
X182082691Y-96963670D01*
X182087123Y-96973373D01*
X182092930Y-96980075D01*
X182092931Y-96980076D01*
X182157710Y-97054835D01*
X182181372Y-97082143D01*
X182185015Y-97084484D01*
X182217815Y-97131014D01*
X182225455Y-97190137D01*
X182204621Y-97245992D01*
X182160129Y-97285670D01*
X182102263Y-97300000D01*
X173424000Y-97300000D01*
X173362000Y-97283387D01*
X173316613Y-97238000D01*
X173300000Y-97176000D01*
X173300000Y-95150000D01*
X174144750Y-95150000D01*
X174145811Y-95158059D01*
X174157849Y-95249500D01*
X174163670Y-95293709D01*
X174166781Y-95301220D01*
X174166782Y-95301223D01*
X174204214Y-95391592D01*
X174219139Y-95427625D01*
X174224084Y-95434069D01*
X174224085Y-95434071D01*
X174240145Y-95455001D01*
X174307379Y-95542621D01*
X174422375Y-95630861D01*
X174556291Y-95686330D01*
X174700000Y-95705250D01*
X174843709Y-95686330D01*
X174977625Y-95630861D01*
X175092621Y-95542621D01*
X175180861Y-95427625D01*
X175236330Y-95293709D01*
X175255250Y-95150000D01*
X175236330Y-95006291D01*
X175180861Y-94872375D01*
X175092621Y-94757379D01*
X175044832Y-94720709D01*
X175037392Y-94715000D01*
X177394785Y-94715000D01*
X177395314Y-94720709D01*
X177410063Y-94879885D01*
X177413603Y-94918083D01*
X177415171Y-94923594D01*
X177415173Y-94923604D01*
X177467847Y-95108731D01*
X177467849Y-95108737D01*
X177469418Y-95114250D01*
X177486957Y-95149473D01*
X177557539Y-95291223D01*
X177560327Y-95296821D01*
X177563779Y-95301392D01*
X177679778Y-95455001D01*
X177679783Y-95455006D01*
X177683236Y-95459579D01*
X177687472Y-95463440D01*
X177687476Y-95463445D01*
X177698367Y-95473373D01*
X177833959Y-95596981D01*
X178007363Y-95704348D01*
X178197544Y-95778024D01*
X178398024Y-95815500D01*
X178596247Y-95815500D01*
X178601976Y-95815500D01*
X178802456Y-95778024D01*
X178992637Y-95704348D01*
X179166041Y-95596981D01*
X179316764Y-95459579D01*
X179439673Y-95296821D01*
X179530582Y-95114250D01*
X179586397Y-94918083D01*
X179605215Y-94715000D01*
X179586397Y-94511917D01*
X179530582Y-94315750D01*
X179439673Y-94133179D01*
X179380023Y-94054189D01*
X179320221Y-93974998D01*
X179320217Y-93974994D01*
X179316764Y-93970421D01*
X179312527Y-93966558D01*
X179312523Y-93966554D01*
X179176574Y-93842621D01*
X179166041Y-93833019D01*
X179161171Y-93830004D01*
X179161169Y-93830002D01*
X178997511Y-93728670D01*
X178997512Y-93728670D01*
X178992637Y-93725652D01*
X178987294Y-93723582D01*
X178807803Y-93654047D01*
X178807798Y-93654045D01*
X178802456Y-93651976D01*
X178760810Y-93644191D01*
X178607605Y-93615552D01*
X178607602Y-93615551D01*
X178601976Y-93614500D01*
X178398024Y-93614500D01*
X178392398Y-93615551D01*
X178392394Y-93615552D01*
X178203181Y-93650922D01*
X178203178Y-93650922D01*
X178197544Y-93651976D01*
X178192203Y-93654044D01*
X178192196Y-93654047D01*
X178012705Y-93723582D01*
X178012700Y-93723584D01*
X178007363Y-93725652D01*
X178002491Y-93728668D01*
X178002488Y-93728670D01*
X177838830Y-93830002D01*
X177838822Y-93830007D01*
X177833959Y-93833019D01*
X177829728Y-93836875D01*
X177829724Y-93836879D01*
X177687476Y-93966554D01*
X177687466Y-93966564D01*
X177683236Y-93970421D01*
X177679787Y-93974987D01*
X177679778Y-93974998D01*
X177563779Y-94128607D01*
X177563776Y-94128611D01*
X177560327Y-94133179D01*
X177557774Y-94138304D01*
X177557772Y-94138309D01*
X177477049Y-94300424D01*
X177469418Y-94315750D01*
X177467850Y-94321258D01*
X177467847Y-94321268D01*
X177415173Y-94506395D01*
X177415170Y-94506406D01*
X177413603Y-94511917D01*
X177413073Y-94517627D01*
X177413073Y-94517632D01*
X177398841Y-94671223D01*
X177394785Y-94715000D01*
X175037392Y-94715000D01*
X174984071Y-94674085D01*
X174984069Y-94674084D01*
X174977625Y-94669139D01*
X174941592Y-94654214D01*
X174851223Y-94616782D01*
X174851220Y-94616781D01*
X174843709Y-94613670D01*
X174835649Y-94612608D01*
X174835646Y-94612608D01*
X174708059Y-94595811D01*
X174700000Y-94594750D01*
X174691941Y-94595811D01*
X174564353Y-94612608D01*
X174564348Y-94612609D01*
X174556291Y-94613670D01*
X174548781Y-94616780D01*
X174548776Y-94616782D01*
X174429885Y-94666028D01*
X174429883Y-94666029D01*
X174422375Y-94669139D01*
X174415933Y-94674082D01*
X174415928Y-94674085D01*
X174313821Y-94752435D01*
X174313817Y-94752438D01*
X174307379Y-94757379D01*
X174302438Y-94763817D01*
X174302435Y-94763821D01*
X174224085Y-94865928D01*
X174224082Y-94865933D01*
X174219139Y-94872375D01*
X174216029Y-94879883D01*
X174216028Y-94879885D01*
X174166782Y-94998776D01*
X174166780Y-94998781D01*
X174163670Y-95006291D01*
X174162609Y-95014348D01*
X174162608Y-95014353D01*
X174155686Y-95066935D01*
X174144750Y-95150000D01*
X173300000Y-95150000D01*
X173300000Y-93500000D01*
X181944750Y-93500000D01*
X181945811Y-93508059D01*
X181960213Y-93617457D01*
X181963670Y-93643709D01*
X181966781Y-93651220D01*
X181966782Y-93651223D01*
X181996667Y-93723373D01*
X182019139Y-93777625D01*
X182024084Y-93784069D01*
X182024085Y-93784071D01*
X182064606Y-93836879D01*
X182107379Y-93892621D01*
X182222375Y-93980861D01*
X182356291Y-94036330D01*
X182500000Y-94055250D01*
X182643709Y-94036330D01*
X182777625Y-93980861D01*
X182892621Y-93892621D01*
X182980861Y-93777625D01*
X183036330Y-93643709D01*
X183036628Y-93641439D01*
X183064320Y-93591571D01*
X183114875Y-93558908D01*
X183174855Y-93553898D01*
X183230128Y-93577721D01*
X183267672Y-93624765D01*
X183315767Y-93730076D01*
X183324123Y-93748373D01*
X183329930Y-93755075D01*
X183329931Y-93755076D01*
X183412565Y-93850442D01*
X183412567Y-93850444D01*
X183418372Y-93857143D01*
X183539447Y-93934953D01*
X183677539Y-93975500D01*
X183812590Y-93975500D01*
X183821461Y-93975500D01*
X183959553Y-93934953D01*
X184080628Y-93857143D01*
X184174877Y-93748373D01*
X184234665Y-93617457D01*
X184255147Y-93475000D01*
X184251553Y-93450000D01*
X186294353Y-93450000D01*
X186297105Y-93469139D01*
X186313572Y-93583677D01*
X186313573Y-93583681D01*
X186314835Y-93592457D01*
X186318519Y-93600525D01*
X186318520Y-93600526D01*
X186351332Y-93672375D01*
X186374623Y-93723373D01*
X186380430Y-93730075D01*
X186380431Y-93730076D01*
X186463065Y-93825442D01*
X186463067Y-93825444D01*
X186468872Y-93832143D01*
X186589947Y-93909953D01*
X186728039Y-93950500D01*
X186863090Y-93950500D01*
X186871961Y-93950500D01*
X187010053Y-93909953D01*
X187131128Y-93832143D01*
X187225377Y-93723373D01*
X187285165Y-93592457D01*
X187305647Y-93450000D01*
X190394750Y-93450000D01*
X190395811Y-93458059D01*
X190408428Y-93553898D01*
X190413670Y-93593709D01*
X190416781Y-93601220D01*
X190416782Y-93601223D01*
X190438662Y-93654047D01*
X190469139Y-93727625D01*
X190474084Y-93734069D01*
X190474085Y-93734071D01*
X190512452Y-93784071D01*
X190557379Y-93842621D01*
X190672375Y-93930861D01*
X190806291Y-93986330D01*
X190950000Y-94005250D01*
X191093709Y-93986330D01*
X191227625Y-93930861D01*
X191342621Y-93842621D01*
X191430861Y-93727625D01*
X191486330Y-93593709D01*
X191505250Y-93450000D01*
X191486330Y-93306291D01*
X191430861Y-93172375D01*
X191342621Y-93057379D01*
X191336178Y-93052435D01*
X191234071Y-92974085D01*
X191234069Y-92974084D01*
X191227625Y-92969139D01*
X191180212Y-92949500D01*
X191101223Y-92916782D01*
X191101220Y-92916781D01*
X191093709Y-92913670D01*
X191085649Y-92912608D01*
X191085646Y-92912608D01*
X190958059Y-92895811D01*
X190950000Y-92894750D01*
X190941941Y-92895811D01*
X190814353Y-92912608D01*
X190814348Y-92912609D01*
X190806291Y-92913670D01*
X190798781Y-92916780D01*
X190798776Y-92916782D01*
X190679885Y-92966028D01*
X190679883Y-92966029D01*
X190672375Y-92969139D01*
X190665933Y-92974082D01*
X190665928Y-92974085D01*
X190563821Y-93052435D01*
X190563817Y-93052438D01*
X190557379Y-93057379D01*
X190552438Y-93063817D01*
X190552435Y-93063821D01*
X190474085Y-93165928D01*
X190474082Y-93165933D01*
X190469139Y-93172375D01*
X190466029Y-93179883D01*
X190466028Y-93179885D01*
X190416782Y-93298776D01*
X190416780Y-93298781D01*
X190413670Y-93306291D01*
X190412609Y-93314348D01*
X190412608Y-93314353D01*
X190399136Y-93416688D01*
X190394750Y-93450000D01*
X187305647Y-93450000D01*
X187285165Y-93307543D01*
X187225377Y-93176627D01*
X187153529Y-93093709D01*
X187136934Y-93074557D01*
X187136932Y-93074555D01*
X187131128Y-93067857D01*
X187010053Y-92990047D01*
X186928251Y-92966028D01*
X186880473Y-92951999D01*
X186880470Y-92951998D01*
X186871961Y-92949500D01*
X186728039Y-92949500D01*
X186719530Y-92951998D01*
X186719526Y-92951999D01*
X186598461Y-92987547D01*
X186589947Y-92990047D01*
X186582484Y-92994842D01*
X186582484Y-92994843D01*
X186476329Y-93063064D01*
X186476325Y-93063066D01*
X186468872Y-93067857D01*
X186463070Y-93074551D01*
X186463065Y-93074557D01*
X186380431Y-93169923D01*
X186380428Y-93169927D01*
X186374623Y-93176627D01*
X186370941Y-93184689D01*
X186370938Y-93184694D01*
X186318520Y-93299473D01*
X186314835Y-93307543D01*
X186313573Y-93316316D01*
X186313572Y-93316322D01*
X186299142Y-93416688D01*
X186294353Y-93450000D01*
X184251553Y-93450000D01*
X184234665Y-93332543D01*
X184174877Y-93201627D01*
X184143944Y-93165928D01*
X184086434Y-93099557D01*
X184086432Y-93099555D01*
X184080628Y-93092857D01*
X183959553Y-93015047D01*
X183865896Y-92987547D01*
X183829973Y-92976999D01*
X183829970Y-92976998D01*
X183821461Y-92974500D01*
X183677539Y-92974500D01*
X183669030Y-92976998D01*
X183669026Y-92976999D01*
X183547961Y-93012547D01*
X183539447Y-93015047D01*
X183531984Y-93019842D01*
X183531984Y-93019843D01*
X183425829Y-93088064D01*
X183425825Y-93088066D01*
X183418372Y-93092857D01*
X183412570Y-93099551D01*
X183412565Y-93099557D01*
X183329931Y-93194923D01*
X183329928Y-93194927D01*
X183324123Y-93201627D01*
X183320441Y-93209689D01*
X183320438Y-93209694D01*
X183268018Y-93324477D01*
X183268016Y-93324481D01*
X183264335Y-93332543D01*
X183263851Y-93335907D01*
X183234796Y-93385276D01*
X183183121Y-93416688D01*
X183122734Y-93419924D01*
X183067999Y-93394214D01*
X183031932Y-93345673D01*
X183023151Y-93324473D01*
X182980861Y-93222375D01*
X182892621Y-93107379D01*
X182837701Y-93065237D01*
X182784071Y-93024085D01*
X182784069Y-93024084D01*
X182777625Y-93019139D01*
X182741592Y-93004214D01*
X182651223Y-92966782D01*
X182651220Y-92966781D01*
X182643709Y-92963670D01*
X182635649Y-92962608D01*
X182635646Y-92962608D01*
X182508059Y-92945811D01*
X182500000Y-92944750D01*
X182491941Y-92945811D01*
X182364353Y-92962608D01*
X182364348Y-92962609D01*
X182356291Y-92963670D01*
X182348781Y-92966780D01*
X182348776Y-92966782D01*
X182229885Y-93016028D01*
X182229883Y-93016029D01*
X182222375Y-93019139D01*
X182215933Y-93024082D01*
X182215928Y-93024085D01*
X182113821Y-93102435D01*
X182113817Y-93102438D01*
X182107379Y-93107379D01*
X182102438Y-93113817D01*
X182102435Y-93113821D01*
X182024085Y-93215928D01*
X182024082Y-93215933D01*
X182019139Y-93222375D01*
X182016029Y-93229883D01*
X182016028Y-93229885D01*
X181966782Y-93348776D01*
X181966780Y-93348781D01*
X181963670Y-93356291D01*
X181962609Y-93364348D01*
X181962608Y-93364353D01*
X181958677Y-93394214D01*
X181944750Y-93500000D01*
X173300000Y-93500000D01*
X173300000Y-91306155D01*
X173749500Y-91306155D01*
X173749747Y-91308903D01*
X173749748Y-91308918D01*
X173764123Y-91468639D01*
X173764124Y-91468645D01*
X173764623Y-91474188D01*
X173766103Y-91479553D01*
X173766105Y-91479560D01*
X173823024Y-91685798D01*
X173824507Y-91691170D01*
X173826925Y-91696191D01*
X173919752Y-91888951D01*
X173919754Y-91888955D01*
X173922171Y-91893973D01*
X174054478Y-92076078D01*
X174058497Y-92079921D01*
X174058501Y-92079925D01*
X174208164Y-92223017D01*
X174217175Y-92231632D01*
X174405032Y-92355635D01*
X174612012Y-92444103D01*
X174831463Y-92494191D01*
X175056330Y-92504290D01*
X175279387Y-92474075D01*
X175422385Y-92427612D01*
X177482111Y-92427612D01*
X177482804Y-92438897D01*
X177523464Y-92572934D01*
X177528103Y-92584134D01*
X177619857Y-92755795D01*
X177626599Y-92765884D01*
X177750082Y-92916348D01*
X177758651Y-92924917D01*
X177909115Y-93048400D01*
X177919204Y-93055142D01*
X178090865Y-93146896D01*
X178102065Y-93151535D01*
X178236102Y-93192195D01*
X178247387Y-93192888D01*
X178250000Y-93181887D01*
X178750000Y-93181887D01*
X178752612Y-93192888D01*
X178763897Y-93192195D01*
X178897934Y-93151535D01*
X178909134Y-93146896D01*
X179080795Y-93055142D01*
X179090884Y-93048400D01*
X179241348Y-92924917D01*
X179249917Y-92916348D01*
X179373400Y-92765884D01*
X179380142Y-92755795D01*
X179471896Y-92584134D01*
X179476535Y-92572934D01*
X179517195Y-92438897D01*
X179517888Y-92427612D01*
X179506887Y-92425000D01*
X178766326Y-92425000D01*
X178753450Y-92428450D01*
X178750000Y-92441326D01*
X178750000Y-93181887D01*
X178250000Y-93181887D01*
X178250000Y-92441326D01*
X178246549Y-92428450D01*
X178233674Y-92425000D01*
X177493113Y-92425000D01*
X177482111Y-92427612D01*
X175422385Y-92427612D01*
X175493464Y-92404517D01*
X175691681Y-92297852D01*
X175867666Y-92157508D01*
X176015765Y-91987996D01*
X176054964Y-91922387D01*
X177482111Y-91922387D01*
X177493113Y-91925000D01*
X178233674Y-91925000D01*
X178246549Y-91921549D01*
X178250000Y-91908674D01*
X178750000Y-91908674D01*
X178753450Y-91921549D01*
X178766326Y-91925000D01*
X179506887Y-91925000D01*
X179517888Y-91922387D01*
X179517195Y-91911102D01*
X179476535Y-91777065D01*
X179471896Y-91765865D01*
X179380142Y-91594204D01*
X179373400Y-91584115D01*
X179249917Y-91433651D01*
X179241348Y-91425082D01*
X179090884Y-91301599D01*
X179088491Y-91300000D01*
X200094750Y-91300000D01*
X200095811Y-91308059D01*
X200112345Y-91433651D01*
X200113670Y-91443709D01*
X200116781Y-91451220D01*
X200116782Y-91451223D01*
X200128520Y-91479560D01*
X200169139Y-91577625D01*
X200174084Y-91584069D01*
X200174085Y-91584071D01*
X200252435Y-91686178D01*
X200257379Y-91692621D01*
X200372375Y-91780861D01*
X200506291Y-91836330D01*
X200650000Y-91855250D01*
X200793709Y-91836330D01*
X200927625Y-91780861D01*
X201042621Y-91692621D01*
X201130861Y-91577625D01*
X201186330Y-91443709D01*
X201205250Y-91300000D01*
X201186330Y-91156291D01*
X201130861Y-91022375D01*
X201042621Y-90907379D01*
X200927625Y-90819139D01*
X200891592Y-90804214D01*
X200801223Y-90766782D01*
X200801220Y-90766781D01*
X200793709Y-90763670D01*
X200785649Y-90762608D01*
X200785646Y-90762608D01*
X200658059Y-90745811D01*
X200650000Y-90744750D01*
X200641941Y-90745811D01*
X200514353Y-90762608D01*
X200514348Y-90762609D01*
X200506291Y-90763670D01*
X200498781Y-90766780D01*
X200498776Y-90766782D01*
X200379885Y-90816028D01*
X200379883Y-90816029D01*
X200372375Y-90819139D01*
X200365933Y-90824082D01*
X200365928Y-90824085D01*
X200263821Y-90902435D01*
X200263817Y-90902438D01*
X200257379Y-90907379D01*
X200252438Y-90913817D01*
X200252435Y-90913821D01*
X200174085Y-91015928D01*
X200174082Y-91015933D01*
X200169139Y-91022375D01*
X200166029Y-91029883D01*
X200166028Y-91029885D01*
X200116782Y-91148776D01*
X200116780Y-91148781D01*
X200113670Y-91156291D01*
X200112609Y-91164348D01*
X200112608Y-91164353D01*
X200096731Y-91284953D01*
X200094750Y-91300000D01*
X179088491Y-91300000D01*
X179080795Y-91294857D01*
X178909134Y-91203103D01*
X178897934Y-91198464D01*
X178763897Y-91157804D01*
X178752612Y-91157111D01*
X178750000Y-91168113D01*
X178750000Y-91908674D01*
X178250000Y-91908674D01*
X178250000Y-91168113D01*
X178247387Y-91157111D01*
X178236102Y-91157804D01*
X178102065Y-91198464D01*
X178090865Y-91203103D01*
X177919204Y-91294857D01*
X177909115Y-91301599D01*
X177758651Y-91425082D01*
X177750082Y-91433651D01*
X177626599Y-91584115D01*
X177619857Y-91594204D01*
X177528103Y-91765865D01*
X177523464Y-91777065D01*
X177482804Y-91911102D01*
X177482111Y-91922387D01*
X176054964Y-91922387D01*
X176131215Y-91794764D01*
X176210307Y-91584024D01*
X176250500Y-91362547D01*
X176250500Y-90693845D01*
X176235377Y-90525812D01*
X176175493Y-90308830D01*
X176077829Y-90106027D01*
X175945522Y-89923922D01*
X175941501Y-89920078D01*
X175941498Y-89920074D01*
X175786852Y-89772218D01*
X175786850Y-89772216D01*
X175782825Y-89768368D01*
X175594968Y-89644365D01*
X175589846Y-89642175D01*
X175589841Y-89642173D01*
X175573059Y-89635000D01*
X177394785Y-89635000D01*
X177413603Y-89838083D01*
X177415171Y-89843594D01*
X177415173Y-89843604D01*
X177467847Y-90028731D01*
X177467849Y-90028737D01*
X177469418Y-90034250D01*
X177560327Y-90216821D01*
X177563779Y-90221392D01*
X177679778Y-90375001D01*
X177679783Y-90375006D01*
X177683236Y-90379579D01*
X177687472Y-90383440D01*
X177687476Y-90383445D01*
X177771402Y-90459953D01*
X177833959Y-90516981D01*
X178007363Y-90624348D01*
X178197544Y-90698024D01*
X178398024Y-90735500D01*
X178596247Y-90735500D01*
X178601976Y-90735500D01*
X178802456Y-90698024D01*
X178992637Y-90624348D01*
X179166041Y-90516981D01*
X179239516Y-90450000D01*
X190344750Y-90450000D01*
X190345811Y-90458059D01*
X190359191Y-90559694D01*
X190363670Y-90593709D01*
X190366781Y-90601220D01*
X190366782Y-90601223D01*
X190381789Y-90637453D01*
X190419139Y-90727625D01*
X190424084Y-90734069D01*
X190424085Y-90734071D01*
X190493156Y-90824085D01*
X190507379Y-90842621D01*
X190622375Y-90930861D01*
X190756291Y-90986330D01*
X190900000Y-91005250D01*
X191043709Y-90986330D01*
X191177625Y-90930861D01*
X191292621Y-90842621D01*
X191380861Y-90727625D01*
X191436330Y-90593709D01*
X191455250Y-90450000D01*
X191436330Y-90306291D01*
X191380861Y-90172375D01*
X191292621Y-90057379D01*
X191286178Y-90052435D01*
X191184071Y-89974085D01*
X191184069Y-89974084D01*
X191177625Y-89969139D01*
X191141592Y-89954214D01*
X191051223Y-89916782D01*
X191051220Y-89916781D01*
X191043709Y-89913670D01*
X191035649Y-89912608D01*
X191035646Y-89912608D01*
X190908059Y-89895811D01*
X190900000Y-89894750D01*
X190891941Y-89895811D01*
X190764353Y-89912608D01*
X190764348Y-89912609D01*
X190756291Y-89913670D01*
X190748781Y-89916780D01*
X190748776Y-89916782D01*
X190629885Y-89966028D01*
X190629883Y-89966029D01*
X190622375Y-89969139D01*
X190615933Y-89974082D01*
X190615928Y-89974085D01*
X190513821Y-90052435D01*
X190513817Y-90052438D01*
X190507379Y-90057379D01*
X190502438Y-90063817D01*
X190502435Y-90063821D01*
X190424085Y-90165928D01*
X190424082Y-90165933D01*
X190419139Y-90172375D01*
X190416029Y-90179883D01*
X190416028Y-90179885D01*
X190366782Y-90298776D01*
X190366780Y-90298781D01*
X190363670Y-90306291D01*
X190362609Y-90314348D01*
X190362608Y-90314353D01*
X190353512Y-90383445D01*
X190344750Y-90450000D01*
X179239516Y-90450000D01*
X179316764Y-90379579D01*
X179439673Y-90216821D01*
X179530582Y-90034250D01*
X179586397Y-89838083D01*
X179605215Y-89635000D01*
X179586397Y-89431917D01*
X179530582Y-89235750D01*
X179439673Y-89053179D01*
X179366440Y-88956203D01*
X179361756Y-88950000D01*
X190294750Y-88950000D01*
X190295811Y-88958059D01*
X190308583Y-89055076D01*
X190313670Y-89093709D01*
X190316781Y-89101220D01*
X190316782Y-89101223D01*
X190348429Y-89177625D01*
X190369139Y-89227625D01*
X190374084Y-89234069D01*
X190374085Y-89234071D01*
X190425837Y-89301515D01*
X190457379Y-89342621D01*
X190572375Y-89430861D01*
X190706291Y-89486330D01*
X190850000Y-89505250D01*
X190993709Y-89486330D01*
X191127625Y-89430861D01*
X191242621Y-89342621D01*
X191330861Y-89227625D01*
X191386330Y-89093709D01*
X191405250Y-88950000D01*
X191386330Y-88806291D01*
X191330861Y-88672375D01*
X191242621Y-88557379D01*
X191212805Y-88534500D01*
X191134071Y-88474085D01*
X191134069Y-88474084D01*
X191127625Y-88469139D01*
X191060229Y-88441223D01*
X191001223Y-88416782D01*
X191001220Y-88416781D01*
X190993709Y-88413670D01*
X190985649Y-88412608D01*
X190985646Y-88412608D01*
X190858059Y-88395811D01*
X190850000Y-88394750D01*
X190841941Y-88395811D01*
X190714353Y-88412608D01*
X190714348Y-88412609D01*
X190706291Y-88413670D01*
X190698781Y-88416780D01*
X190698776Y-88416782D01*
X190579885Y-88466028D01*
X190579883Y-88466029D01*
X190572375Y-88469139D01*
X190565933Y-88474082D01*
X190565928Y-88474085D01*
X190463821Y-88552435D01*
X190463817Y-88552438D01*
X190457379Y-88557379D01*
X190452438Y-88563817D01*
X190452435Y-88563821D01*
X190374085Y-88665928D01*
X190374082Y-88665933D01*
X190369139Y-88672375D01*
X190366029Y-88679883D01*
X190366028Y-88679885D01*
X190316782Y-88798776D01*
X190316780Y-88798781D01*
X190313670Y-88806291D01*
X190312609Y-88814348D01*
X190312608Y-88814353D01*
X190296756Y-88934763D01*
X190294750Y-88950000D01*
X179361756Y-88950000D01*
X179320221Y-88894998D01*
X179320217Y-88894994D01*
X179316764Y-88890421D01*
X179312527Y-88886558D01*
X179312523Y-88886554D01*
X179170275Y-88756879D01*
X179170276Y-88756879D01*
X179166041Y-88753019D01*
X179161171Y-88750004D01*
X179161169Y-88750002D01*
X179006223Y-88654064D01*
X178992637Y-88645652D01*
X178958799Y-88632543D01*
X178807803Y-88574047D01*
X178807798Y-88574045D01*
X178802456Y-88571976D01*
X178796818Y-88570922D01*
X178607605Y-88535552D01*
X178607602Y-88535551D01*
X178601976Y-88534500D01*
X178398024Y-88534500D01*
X178392398Y-88535551D01*
X178392394Y-88535552D01*
X178203181Y-88570922D01*
X178203178Y-88570922D01*
X178197544Y-88571976D01*
X178192203Y-88574044D01*
X178192196Y-88574047D01*
X178012705Y-88643582D01*
X178012700Y-88643584D01*
X178007363Y-88645652D01*
X178002491Y-88648668D01*
X178002488Y-88648670D01*
X177838830Y-88750002D01*
X177838822Y-88750007D01*
X177833959Y-88753019D01*
X177829728Y-88756875D01*
X177829724Y-88756879D01*
X177687476Y-88886554D01*
X177687466Y-88886564D01*
X177683236Y-88890421D01*
X177679787Y-88894987D01*
X177679778Y-88894998D01*
X177563779Y-89048607D01*
X177563776Y-89048611D01*
X177560327Y-89053179D01*
X177557774Y-89058304D01*
X177557772Y-89058309D01*
X177472203Y-89230156D01*
X177469418Y-89235750D01*
X177467850Y-89241258D01*
X177467847Y-89241268D01*
X177415173Y-89426395D01*
X177415170Y-89426406D01*
X177413603Y-89431917D01*
X177413073Y-89437627D01*
X177413073Y-89437632D01*
X177398202Y-89598121D01*
X177394785Y-89635000D01*
X175573059Y-89635000D01*
X175393115Y-89558088D01*
X175393111Y-89558086D01*
X175387988Y-89555897D01*
X175382554Y-89554656D01*
X175382552Y-89554656D01*
X175173970Y-89507049D01*
X175173969Y-89507048D01*
X175168537Y-89505809D01*
X175162979Y-89505559D01*
X175162969Y-89505558D01*
X174949230Y-89495959D01*
X174949222Y-89495959D01*
X174943670Y-89495710D01*
X174938166Y-89496455D01*
X174938155Y-89496456D01*
X174726132Y-89525177D01*
X174726127Y-89525177D01*
X174720613Y-89525925D01*
X174715321Y-89527644D01*
X174715314Y-89527646D01*
X174511832Y-89593761D01*
X174511820Y-89593766D01*
X174506536Y-89595483D01*
X174501636Y-89598119D01*
X174501633Y-89598121D01*
X174313215Y-89699512D01*
X174313203Y-89699519D01*
X174308319Y-89702148D01*
X174303978Y-89705609D01*
X174303970Y-89705615D01*
X174136684Y-89839022D01*
X174136677Y-89839027D01*
X174132334Y-89842492D01*
X174128680Y-89846673D01*
X174128674Y-89846680D01*
X173987897Y-90007812D01*
X173984235Y-90012004D01*
X173981384Y-90016775D01*
X173981378Y-90016784D01*
X173871641Y-90200454D01*
X173871636Y-90200463D01*
X173868785Y-90205236D01*
X173866828Y-90210448D01*
X173866827Y-90210452D01*
X173791650Y-90410760D01*
X173791648Y-90410766D01*
X173789693Y-90415976D01*
X173788699Y-90421450D01*
X173788698Y-90421456D01*
X173751503Y-90626417D01*
X173749500Y-90637453D01*
X173749500Y-91306155D01*
X173300000Y-91306155D01*
X173300000Y-88071935D01*
X173305023Y-88037000D01*
X173319638Y-88004995D01*
X173325377Y-87998373D01*
X173338484Y-87969674D01*
X177399500Y-87969674D01*
X177400688Y-87975649D01*
X177400689Y-87975653D01*
X177411650Y-88030759D01*
X177411651Y-88030762D01*
X177414034Y-88042740D01*
X177469399Y-88125601D01*
X177552260Y-88180966D01*
X177625326Y-88195500D01*
X179368579Y-88195500D01*
X179374674Y-88195500D01*
X179447740Y-88180966D01*
X179530601Y-88125601D01*
X179585966Y-88042740D01*
X179600500Y-87969674D01*
X179600500Y-87100000D01*
X194544750Y-87100000D01*
X194545811Y-87108059D01*
X194562288Y-87233217D01*
X194563670Y-87243709D01*
X194566781Y-87251220D01*
X194566782Y-87251223D01*
X194583930Y-87292621D01*
X194619139Y-87377625D01*
X194624084Y-87384069D01*
X194624085Y-87384071D01*
X194677889Y-87454189D01*
X194707379Y-87492621D01*
X194822375Y-87580861D01*
X194956291Y-87636330D01*
X195100000Y-87655250D01*
X195243709Y-87636330D01*
X195377625Y-87580861D01*
X195492621Y-87492621D01*
X195580861Y-87377625D01*
X195636330Y-87243709D01*
X195655250Y-87100000D01*
X195636330Y-86956291D01*
X195580861Y-86822375D01*
X195492621Y-86707379D01*
X195486178Y-86702435D01*
X195486172Y-86702429D01*
X195483007Y-86700000D01*
X198994750Y-86700000D01*
X198995811Y-86708059D01*
X199002011Y-86755156D01*
X199013670Y-86843709D01*
X199016781Y-86851220D01*
X199016782Y-86851223D01*
X199040324Y-86908059D01*
X199069139Y-86977625D01*
X199157379Y-87092621D01*
X199272375Y-87180861D01*
X199406291Y-87236330D01*
X199550000Y-87255250D01*
X199693709Y-87236330D01*
X199827625Y-87180861D01*
X199942621Y-87092621D01*
X200030861Y-86977625D01*
X200086330Y-86843709D01*
X200105250Y-86700000D01*
X200086330Y-86556291D01*
X200030861Y-86422375D01*
X199942621Y-86307379D01*
X199898304Y-86273373D01*
X199834071Y-86224085D01*
X199834069Y-86224084D01*
X199827625Y-86219139D01*
X199749877Y-86186935D01*
X199701223Y-86166782D01*
X199701220Y-86166781D01*
X199693709Y-86163670D01*
X199685649Y-86162608D01*
X199685646Y-86162608D01*
X199558059Y-86145811D01*
X199550000Y-86144750D01*
X199541941Y-86145811D01*
X199414353Y-86162608D01*
X199414348Y-86162609D01*
X199406291Y-86163670D01*
X199398781Y-86166780D01*
X199398776Y-86166782D01*
X199279885Y-86216028D01*
X199279883Y-86216029D01*
X199272375Y-86219139D01*
X199265933Y-86224082D01*
X199265928Y-86224085D01*
X199163821Y-86302435D01*
X199163817Y-86302438D01*
X199157379Y-86307379D01*
X199152438Y-86313817D01*
X199152435Y-86313821D01*
X199074085Y-86415928D01*
X199074082Y-86415933D01*
X199069139Y-86422375D01*
X199066029Y-86429883D01*
X199066028Y-86429885D01*
X199016782Y-86548776D01*
X199016780Y-86548781D01*
X199013670Y-86556291D01*
X199012609Y-86564348D01*
X199012608Y-86564353D01*
X199001916Y-86645567D01*
X198994750Y-86700000D01*
X195483007Y-86700000D01*
X195480884Y-86698371D01*
X195445160Y-86654837D01*
X195432375Y-86599992D01*
X195445166Y-86545149D01*
X195480892Y-86501620D01*
X195492621Y-86492621D01*
X195580861Y-86377625D01*
X195636330Y-86243709D01*
X195655250Y-86100000D01*
X195636330Y-85956291D01*
X195580861Y-85822375D01*
X195492621Y-85707379D01*
X195480884Y-85698373D01*
X195384071Y-85624085D01*
X195384069Y-85624084D01*
X195377625Y-85619139D01*
X195332689Y-85600526D01*
X195251223Y-85566782D01*
X195251220Y-85566781D01*
X195243709Y-85563670D01*
X195235649Y-85562608D01*
X195235646Y-85562608D01*
X195108059Y-85545811D01*
X195100000Y-85544750D01*
X195091941Y-85545811D01*
X194964353Y-85562608D01*
X194964348Y-85562609D01*
X194956291Y-85563670D01*
X194948781Y-85566780D01*
X194948776Y-85566782D01*
X194829885Y-85616028D01*
X194829883Y-85616029D01*
X194822375Y-85619139D01*
X194815933Y-85624082D01*
X194815928Y-85624085D01*
X194713821Y-85702435D01*
X194713817Y-85702438D01*
X194707379Y-85707379D01*
X194702438Y-85713817D01*
X194702435Y-85713821D01*
X194624085Y-85815928D01*
X194624082Y-85815933D01*
X194619139Y-85822375D01*
X194616029Y-85829883D01*
X194616028Y-85829885D01*
X194566782Y-85948776D01*
X194566780Y-85948781D01*
X194563670Y-85956291D01*
X194562609Y-85964348D01*
X194562608Y-85964353D01*
X194548100Y-86074551D01*
X194544750Y-86100000D01*
X194545811Y-86108059D01*
X194560992Y-86223373D01*
X194563670Y-86243709D01*
X194566781Y-86251220D01*
X194566782Y-86251223D01*
X194590622Y-86308777D01*
X194619139Y-86377625D01*
X194624084Y-86384069D01*
X194624085Y-86384071D01*
X194673140Y-86448000D01*
X194707379Y-86492621D01*
X194713821Y-86497564D01*
X194713823Y-86497566D01*
X194719109Y-86501622D01*
X194754834Y-86545151D01*
X194767624Y-86599992D01*
X194754840Y-86654835D01*
X194719119Y-86698368D01*
X194713829Y-86702427D01*
X194713817Y-86702438D01*
X194707379Y-86707379D01*
X194702438Y-86713817D01*
X194702435Y-86713821D01*
X194624085Y-86815928D01*
X194624082Y-86815933D01*
X194619139Y-86822375D01*
X194616029Y-86829883D01*
X194616028Y-86829885D01*
X194566782Y-86948776D01*
X194566780Y-86948781D01*
X194563670Y-86956291D01*
X194562609Y-86964348D01*
X194562608Y-86964353D01*
X194550056Y-87059694D01*
X194544750Y-87100000D01*
X179600500Y-87100000D01*
X179600500Y-86220326D01*
X179585966Y-86147260D01*
X179530601Y-86064399D01*
X179447740Y-86009034D01*
X179435762Y-86006651D01*
X179435759Y-86006650D01*
X179380653Y-85995689D01*
X179380649Y-85995688D01*
X179374674Y-85994500D01*
X177625326Y-85994500D01*
X177619351Y-85995688D01*
X177619346Y-85995689D01*
X177564240Y-86006650D01*
X177564235Y-86006651D01*
X177552260Y-86009034D01*
X177542105Y-86015819D01*
X177542103Y-86015820D01*
X177479551Y-86057615D01*
X177479548Y-86057617D01*
X177469399Y-86064399D01*
X177462617Y-86074548D01*
X177462615Y-86074551D01*
X177420820Y-86137103D01*
X177420819Y-86137105D01*
X177414034Y-86147260D01*
X177411651Y-86159235D01*
X177411650Y-86159240D01*
X177400689Y-86214346D01*
X177400688Y-86214351D01*
X177399500Y-86220326D01*
X177399500Y-87969674D01*
X173338484Y-87969674D01*
X173385165Y-87867457D01*
X173405647Y-87725000D01*
X173385165Y-87582543D01*
X173325377Y-87451627D01*
X173319568Y-87444923D01*
X173314775Y-87437465D01*
X173315815Y-87436796D01*
X173300000Y-87406996D01*
X173300000Y-87400000D01*
X173294025Y-87400000D01*
X173292290Y-87398265D01*
X173282745Y-87394110D01*
X173254829Y-87370209D01*
X173236936Y-87349560D01*
X173231128Y-87342857D01*
X173223668Y-87338062D01*
X173223666Y-87338061D01*
X173170590Y-87303951D01*
X173110053Y-87265047D01*
X173023442Y-87239616D01*
X172980473Y-87226999D01*
X172980470Y-87226998D01*
X172971961Y-87224500D01*
X172828039Y-87224500D01*
X172819530Y-87226998D01*
X172819526Y-87226999D01*
X172698461Y-87262547D01*
X172689947Y-87265047D01*
X172682484Y-87269842D01*
X172682484Y-87269843D01*
X172576333Y-87338061D01*
X172576328Y-87338065D01*
X172568872Y-87342857D01*
X172563066Y-87349556D01*
X172563063Y-87349560D01*
X172556441Y-87357203D01*
X172514239Y-87388794D01*
X172462728Y-87400000D01*
X161412211Y-87400000D01*
X161400000Y-87400000D01*
X161391364Y-87408635D01*
X161391361Y-87408638D01*
X159807964Y-88992034D01*
X159759179Y-89022095D01*
X159702088Y-89027011D01*
X159648882Y-89005733D01*
X159610925Y-88962807D01*
X159595936Y-88934763D01*
X159469410Y-88780590D01*
X159439801Y-88756291D01*
X159319949Y-88657931D01*
X159319948Y-88657930D01*
X159315237Y-88654064D01*
X159309866Y-88651193D01*
X159309860Y-88651189D01*
X159144714Y-88562917D01*
X159144710Y-88562915D01*
X159139342Y-88560046D01*
X159114252Y-88552435D01*
X158954315Y-88503918D01*
X158954310Y-88503917D01*
X158948485Y-88502150D01*
X158942426Y-88501553D01*
X158942420Y-88501552D01*
X158756061Y-88483198D01*
X158750000Y-88482601D01*
X158743939Y-88483198D01*
X158557579Y-88501552D01*
X158557571Y-88501553D01*
X158551515Y-88502150D01*
X158545691Y-88503916D01*
X158545684Y-88503918D01*
X158366485Y-88558278D01*
X158366481Y-88558279D01*
X158360658Y-88560046D01*
X158355292Y-88562913D01*
X158355285Y-88562917D01*
X158190139Y-88651189D01*
X158190128Y-88651196D01*
X158184763Y-88654064D01*
X158180055Y-88657927D01*
X158180050Y-88657931D01*
X158035296Y-88776727D01*
X158035290Y-88776732D01*
X158030590Y-88780590D01*
X158026732Y-88785290D01*
X158026727Y-88785296D01*
X157907931Y-88930050D01*
X157907927Y-88930055D01*
X157904064Y-88934763D01*
X157901196Y-88940128D01*
X157901189Y-88940139D01*
X157812917Y-89105285D01*
X157812913Y-89105292D01*
X157810046Y-89110658D01*
X157808279Y-89116481D01*
X157808278Y-89116485D01*
X157753918Y-89295684D01*
X157753916Y-89295691D01*
X157752150Y-89301515D01*
X157751553Y-89307571D01*
X157751552Y-89307579D01*
X157743617Y-89388154D01*
X157723316Y-89444891D01*
X157678667Y-89485358D01*
X157620214Y-89500000D01*
X143633105Y-89500000D01*
X143576810Y-89486485D01*
X143532787Y-89448885D01*
X143510632Y-89395398D01*
X143515174Y-89337682D01*
X143542734Y-89292708D01*
X143542621Y-89292621D01*
X143542620Y-89292621D01*
X143630861Y-89177625D01*
X143686330Y-89043709D01*
X143705250Y-88900000D01*
X143686330Y-88756291D01*
X143630861Y-88622375D01*
X143542621Y-88507379D01*
X143536178Y-88502435D01*
X143434071Y-88424085D01*
X143434069Y-88424084D01*
X143427625Y-88419139D01*
X143380349Y-88399557D01*
X143301223Y-88366782D01*
X143301220Y-88366781D01*
X143293709Y-88363670D01*
X143285649Y-88362608D01*
X143285646Y-88362608D01*
X143158059Y-88345811D01*
X143150000Y-88344750D01*
X143141941Y-88345811D01*
X143014353Y-88362608D01*
X143014348Y-88362609D01*
X143006291Y-88363670D01*
X142998781Y-88366780D01*
X142998776Y-88366782D01*
X142879885Y-88416028D01*
X142879883Y-88416029D01*
X142872375Y-88419139D01*
X142865933Y-88424082D01*
X142865928Y-88424085D01*
X142763821Y-88502435D01*
X142763817Y-88502438D01*
X142757379Y-88507379D01*
X142752438Y-88513817D01*
X142752435Y-88513821D01*
X142674085Y-88615928D01*
X142674082Y-88615933D01*
X142669139Y-88622375D01*
X142666029Y-88629883D01*
X142666028Y-88629885D01*
X142616782Y-88748776D01*
X142616780Y-88748781D01*
X142613670Y-88756291D01*
X142612609Y-88764348D01*
X142612608Y-88764353D01*
X142601890Y-88845766D01*
X142594750Y-88900000D01*
X142595811Y-88908059D01*
X142611471Y-89027011D01*
X142613670Y-89043709D01*
X142616781Y-89051220D01*
X142616782Y-89051223D01*
X142634380Y-89093709D01*
X142669139Y-89177625D01*
X142674084Y-89184069D01*
X142674085Y-89184071D01*
X142752435Y-89286178D01*
X142756550Y-89291541D01*
X142756551Y-89291542D01*
X142757379Y-89292621D01*
X142757265Y-89292708D01*
X142784826Y-89337682D01*
X142789368Y-89395398D01*
X142767213Y-89448885D01*
X142723190Y-89486485D01*
X142666895Y-89500000D01*
X142200000Y-89500000D01*
X140650000Y-89500000D01*
X140650000Y-89516326D01*
X140650000Y-99625500D01*
X140633387Y-99687500D01*
X140588000Y-99732887D01*
X140526000Y-99749500D01*
X133712693Y-99749500D01*
X133653266Y-99734332D01*
X133608378Y-99692540D01*
X133589009Y-99634346D01*
X133598988Y-99579034D01*
X133598982Y-99579033D01*
X133598999Y-99578971D01*
X133599899Y-99573989D01*
X133601479Y-99570529D01*
X133601479Y-99570526D01*
X133605165Y-99562457D01*
X133625647Y-99420000D01*
X133605165Y-99277543D01*
X133545377Y-99146627D01*
X133451128Y-99037857D01*
X133330053Y-98960047D01*
X133274863Y-98943841D01*
X133200473Y-98921999D01*
X133200470Y-98921998D01*
X133191961Y-98919500D01*
X133063065Y-98919500D01*
X133011555Y-98908295D01*
X132969354Y-98876704D01*
X132949027Y-98839481D01*
X132948174Y-98839871D01*
X132888386Y-98708955D01*
X132794137Y-98600185D01*
X132673062Y-98522375D01*
X132617872Y-98506169D01*
X132543482Y-98484327D01*
X132543479Y-98484326D01*
X132534970Y-98481828D01*
X132391048Y-98481828D01*
X132382539Y-98484326D01*
X132382535Y-98484327D01*
X132261470Y-98519875D01*
X132252956Y-98522375D01*
X132245493Y-98527170D01*
X132245493Y-98527171D01*
X132139338Y-98595392D01*
X132139334Y-98595394D01*
X132131881Y-98600185D01*
X132126079Y-98606879D01*
X132126074Y-98606885D01*
X132043440Y-98702251D01*
X132043437Y-98702255D01*
X132037632Y-98708955D01*
X132033950Y-98717017D01*
X132033947Y-98717022D01*
X131981529Y-98831801D01*
X131977844Y-98839871D01*
X131976582Y-98848644D01*
X131976581Y-98848650D01*
X131972548Y-98876704D01*
X131957362Y-98982328D01*
X131958624Y-98991105D01*
X131976581Y-99116005D01*
X131976582Y-99116009D01*
X131977844Y-99124785D01*
X131981528Y-99132853D01*
X131981529Y-99132854D01*
X132017110Y-99210766D01*
X132037632Y-99255701D01*
X132043439Y-99262403D01*
X132043440Y-99262404D01*
X132126074Y-99357770D01*
X132126076Y-99357772D01*
X132131881Y-99364471D01*
X132252956Y-99442281D01*
X132391048Y-99482828D01*
X132399919Y-99482828D01*
X132519944Y-99482828D01*
X132571454Y-99494033D01*
X132613655Y-99525624D01*
X132633982Y-99562847D01*
X132634835Y-99562458D01*
X132640101Y-99573989D01*
X132641000Y-99578975D01*
X132641017Y-99579031D01*
X132641011Y-99579032D01*
X132650991Y-99634346D01*
X132631622Y-99692540D01*
X132586734Y-99734332D01*
X132527307Y-99749500D01*
X120509756Y-99749500D01*
X120490359Y-99747973D01*
X120442297Y-99740361D01*
X120405400Y-99728372D01*
X120370845Y-99710765D01*
X120339461Y-99687963D01*
X120312036Y-99660538D01*
X120289235Y-99629156D01*
X120271625Y-99594595D01*
X120259639Y-99557706D01*
X120252025Y-99509631D01*
X120250500Y-99490244D01*
X120250500Y-97450000D01*
X122364751Y-97450000D01*
X122365531Y-97456923D01*
X122382906Y-97611135D01*
X122382907Y-97611142D01*
X122383687Y-97618059D01*
X122385986Y-97624630D01*
X122385987Y-97624633D01*
X122392281Y-97642621D01*
X122439544Y-97777690D01*
X122529523Y-97920890D01*
X122649110Y-98040477D01*
X122792310Y-98130456D01*
X122951941Y-98186313D01*
X123120000Y-98205249D01*
X123288059Y-98186313D01*
X123447690Y-98130456D01*
X123590890Y-98040477D01*
X123700959Y-97930407D01*
X123754138Y-97898987D01*
X123815882Y-97897121D01*
X123870864Y-97925276D01*
X123983819Y-98025346D01*
X123996073Y-98033804D01*
X124133122Y-98105732D01*
X124134186Y-98106131D01*
X124137501Y-98106161D01*
X124140000Y-98095279D01*
X124640000Y-98095279D01*
X124642498Y-98106161D01*
X124645813Y-98106131D01*
X124646877Y-98105732D01*
X124783926Y-98033804D01*
X124796175Y-98025349D01*
X124909134Y-97925276D01*
X124964117Y-97897121D01*
X125025861Y-97898987D01*
X125079043Y-97930410D01*
X125189110Y-98040477D01*
X125332310Y-98130456D01*
X125491941Y-98186313D01*
X125660000Y-98205249D01*
X125828059Y-98186313D01*
X125987690Y-98130456D01*
X126130890Y-98040477D01*
X126207319Y-97964048D01*
X126262906Y-97931954D01*
X126327094Y-97931954D01*
X126382681Y-97964048D01*
X126459110Y-98040477D01*
X126602310Y-98130456D01*
X126761941Y-98186313D01*
X126930000Y-98205249D01*
X127098059Y-98186313D01*
X127257690Y-98130456D01*
X127339853Y-98078828D01*
X127400030Y-98059958D01*
X127461706Y-98073127D01*
X127508927Y-98114930D01*
X127512612Y-98120445D01*
X127512615Y-98120448D01*
X127519399Y-98130601D01*
X127602260Y-98185966D01*
X127675326Y-98200500D01*
X128718579Y-98200500D01*
X128724674Y-98200500D01*
X128797740Y-98185966D01*
X128880601Y-98130601D01*
X128935966Y-98047740D01*
X128950500Y-97974674D01*
X128950500Y-96925326D01*
X128935966Y-96852260D01*
X128880601Y-96769399D01*
X128797740Y-96714034D01*
X128785762Y-96711651D01*
X128785759Y-96711650D01*
X128730653Y-96700689D01*
X128730649Y-96700688D01*
X128724674Y-96699500D01*
X127675326Y-96699500D01*
X127669351Y-96700688D01*
X127669346Y-96700689D01*
X127614240Y-96711650D01*
X127614235Y-96711651D01*
X127602260Y-96714034D01*
X127592105Y-96720819D01*
X127592103Y-96720820D01*
X127529551Y-96762615D01*
X127529548Y-96762617D01*
X127519399Y-96769399D01*
X127512617Y-96779548D01*
X127512611Y-96779555D01*
X127508925Y-96785072D01*
X127461704Y-96826873D01*
X127400029Y-96840041D01*
X127339854Y-96821171D01*
X127263582Y-96773246D01*
X127263580Y-96773245D01*
X127257690Y-96769544D01*
X127251124Y-96767246D01*
X127251121Y-96767245D01*
X127104633Y-96715987D01*
X127104630Y-96715986D01*
X127098059Y-96713687D01*
X127091142Y-96712907D01*
X127091135Y-96712906D01*
X126936923Y-96695531D01*
X126930000Y-96694751D01*
X126923077Y-96695531D01*
X126768864Y-96712906D01*
X126768855Y-96712907D01*
X126761941Y-96713687D01*
X126755371Y-96715985D01*
X126755366Y-96715987D01*
X126608878Y-96767245D01*
X126608872Y-96767247D01*
X126602310Y-96769544D01*
X126596419Y-96773245D01*
X126596418Y-96773246D01*
X126465010Y-96855815D01*
X126465005Y-96855818D01*
X126459110Y-96859523D01*
X126454185Y-96864447D01*
X126454181Y-96864451D01*
X126382681Y-96935952D01*
X126327094Y-96968046D01*
X126262906Y-96968046D01*
X126207319Y-96935952D01*
X126135818Y-96864451D01*
X126135817Y-96864450D01*
X126130890Y-96859523D01*
X126116571Y-96850526D01*
X126069853Y-96821171D01*
X125987690Y-96769544D01*
X125981124Y-96767246D01*
X125981121Y-96767245D01*
X125834633Y-96715987D01*
X125834630Y-96715986D01*
X125828059Y-96713687D01*
X125821142Y-96712907D01*
X125821135Y-96712906D01*
X125666923Y-96695531D01*
X125660000Y-96694751D01*
X125653077Y-96695531D01*
X125498864Y-96712906D01*
X125498855Y-96712907D01*
X125491941Y-96713687D01*
X125485371Y-96715985D01*
X125485366Y-96715987D01*
X125338878Y-96767245D01*
X125338872Y-96767247D01*
X125332310Y-96769544D01*
X125326419Y-96773245D01*
X125326418Y-96773246D01*
X125195010Y-96855815D01*
X125195005Y-96855818D01*
X125189110Y-96859523D01*
X125184184Y-96864448D01*
X125184185Y-96864448D01*
X125079043Y-96969590D01*
X125025861Y-97001012D01*
X124964117Y-97002878D01*
X124909135Y-96974723D01*
X124796180Y-96874653D01*
X124783926Y-96866195D01*
X124646877Y-96794267D01*
X124645813Y-96793868D01*
X124642498Y-96793838D01*
X124640000Y-96804721D01*
X124640000Y-98095279D01*
X124140000Y-98095279D01*
X124140000Y-96804721D01*
X124137501Y-96793838D01*
X124134186Y-96793868D01*
X124133122Y-96794267D01*
X123996073Y-96866195D01*
X123983824Y-96874650D01*
X123870864Y-96974724D01*
X123815881Y-97002878D01*
X123754138Y-97001012D01*
X123700956Y-96969589D01*
X123595818Y-96864451D01*
X123595817Y-96864450D01*
X123590890Y-96859523D01*
X123576571Y-96850526D01*
X123529853Y-96821171D01*
X123447690Y-96769544D01*
X123441124Y-96767246D01*
X123441121Y-96767245D01*
X123294633Y-96715987D01*
X123294630Y-96715986D01*
X123288059Y-96713687D01*
X123281142Y-96712907D01*
X123281135Y-96712906D01*
X123126923Y-96695531D01*
X123120000Y-96694751D01*
X123113077Y-96695531D01*
X122958864Y-96712906D01*
X122958855Y-96712907D01*
X122951941Y-96713687D01*
X122945371Y-96715985D01*
X122945366Y-96715987D01*
X122798878Y-96767245D01*
X122798872Y-96767247D01*
X122792310Y-96769544D01*
X122786419Y-96773245D01*
X122786418Y-96773246D01*
X122655010Y-96855815D01*
X122655005Y-96855818D01*
X122649110Y-96859523D01*
X122644185Y-96864447D01*
X122644181Y-96864451D01*
X122534451Y-96974181D01*
X122534447Y-96974185D01*
X122529523Y-96979110D01*
X122525818Y-96985005D01*
X122525815Y-96985010D01*
X122464691Y-97082289D01*
X122439544Y-97122310D01*
X122437247Y-97128872D01*
X122437245Y-97128878D01*
X122385987Y-97275366D01*
X122385985Y-97275371D01*
X122383687Y-97281941D01*
X122382907Y-97288855D01*
X122382906Y-97288864D01*
X122365531Y-97443077D01*
X122364751Y-97450000D01*
X120250500Y-97450000D01*
X120250500Y-96879228D01*
X120250500Y-96874802D01*
X120214864Y-96626954D01*
X120144320Y-96386700D01*
X120040301Y-96158932D01*
X119904927Y-95948285D01*
X119740952Y-95759048D01*
X119551715Y-95595073D01*
X119539052Y-95586935D01*
X119344789Y-95462090D01*
X119344785Y-95462088D01*
X119341068Y-95459699D01*
X119337046Y-95457862D01*
X119337042Y-95457860D01*
X119227184Y-95407689D01*
X119113300Y-95355680D01*
X118873046Y-95285136D01*
X118868666Y-95284506D01*
X118868656Y-95284504D01*
X118629578Y-95250129D01*
X118629567Y-95250128D01*
X118625198Y-95249500D01*
X118374802Y-95249500D01*
X118370433Y-95250128D01*
X118370421Y-95250129D01*
X118131343Y-95284504D01*
X118131330Y-95284506D01*
X118126954Y-95285136D01*
X118122699Y-95286385D01*
X118122696Y-95286386D01*
X117890949Y-95354432D01*
X117890943Y-95354433D01*
X117886700Y-95355680D01*
X117882674Y-95357518D01*
X117882673Y-95357519D01*
X117662957Y-95457860D01*
X117662947Y-95457865D01*
X117658932Y-95459699D01*
X117655220Y-95462084D01*
X117655210Y-95462090D01*
X117452004Y-95592682D01*
X117451994Y-95592688D01*
X117448285Y-95595073D01*
X117444950Y-95597962D01*
X117444943Y-95597968D01*
X117262388Y-95756153D01*
X117262381Y-95756159D01*
X117259048Y-95759048D01*
X117256159Y-95762381D01*
X117256153Y-95762388D01*
X117097968Y-95944943D01*
X117097962Y-95944950D01*
X117095073Y-95948285D01*
X117092688Y-95951994D01*
X117092682Y-95952004D01*
X116962090Y-96155210D01*
X116962084Y-96155220D01*
X116959699Y-96158932D01*
X116957865Y-96162947D01*
X116957860Y-96162957D01*
X116857519Y-96382673D01*
X116855680Y-96386700D01*
X116854433Y-96390943D01*
X116854432Y-96390949D01*
X116802939Y-96566322D01*
X116785136Y-96626954D01*
X116784506Y-96631330D01*
X116784504Y-96631343D01*
X116750129Y-96870421D01*
X116750128Y-96870433D01*
X116749500Y-96874802D01*
X116749500Y-96879228D01*
X116749500Y-98990244D01*
X116747973Y-99009642D01*
X116740361Y-99057702D01*
X116728372Y-99094600D01*
X116710766Y-99129153D01*
X116687963Y-99160538D01*
X116660538Y-99187963D01*
X116629153Y-99210766D01*
X116594600Y-99228372D01*
X116557702Y-99240361D01*
X116522884Y-99245875D01*
X116509640Y-99247973D01*
X116490244Y-99249500D01*
X96509756Y-99249500D01*
X96490359Y-99247973D01*
X96442297Y-99240361D01*
X96405400Y-99228372D01*
X96370845Y-99210765D01*
X96339461Y-99187963D01*
X96312036Y-99160538D01*
X96289235Y-99129156D01*
X96271625Y-99094595D01*
X96259639Y-99057706D01*
X96252025Y-99009631D01*
X96250500Y-98990244D01*
X96250500Y-95200000D01*
X131244353Y-95200000D01*
X131245615Y-95208777D01*
X131263572Y-95333677D01*
X131263573Y-95333681D01*
X131264835Y-95342457D01*
X131268519Y-95350525D01*
X131268520Y-95350526D01*
X131316232Y-95455001D01*
X131324623Y-95473373D01*
X131330430Y-95480075D01*
X131330431Y-95480076D01*
X131413065Y-95575442D01*
X131413067Y-95575444D01*
X131418872Y-95582143D01*
X131539947Y-95659953D01*
X131678039Y-95700500D01*
X131813090Y-95700500D01*
X131821961Y-95700500D01*
X131960053Y-95659953D01*
X132081128Y-95582143D01*
X132175377Y-95473373D01*
X132235165Y-95342457D01*
X132241269Y-95300000D01*
X134644353Y-95300000D01*
X134645615Y-95308777D01*
X134663572Y-95433677D01*
X134663573Y-95433681D01*
X134664835Y-95442457D01*
X134724623Y-95573373D01*
X134730430Y-95580075D01*
X134730431Y-95580076D01*
X134813065Y-95675442D01*
X134813067Y-95675444D01*
X134818872Y-95682143D01*
X134939947Y-95759953D01*
X135078039Y-95800500D01*
X135213090Y-95800500D01*
X135221961Y-95800500D01*
X135360053Y-95759953D01*
X135481128Y-95682143D01*
X135575377Y-95573373D01*
X135635165Y-95442457D01*
X135655647Y-95300000D01*
X135650247Y-95262448D01*
X135658425Y-95197348D01*
X135698676Y-95145534D01*
X135759731Y-95121511D01*
X135824498Y-95132007D01*
X135831394Y-95135156D01*
X135838858Y-95139953D01*
X135976950Y-95180500D01*
X136112001Y-95180500D01*
X136120872Y-95180500D01*
X136258964Y-95139953D01*
X136380039Y-95062143D01*
X136474288Y-94953373D01*
X136534076Y-94822457D01*
X136554558Y-94680000D01*
X136534076Y-94537543D01*
X136474288Y-94406627D01*
X136400325Y-94321268D01*
X136385845Y-94304557D01*
X136385843Y-94304555D01*
X136380039Y-94297857D01*
X136258964Y-94220047D01*
X136203774Y-94203841D01*
X136129384Y-94181999D01*
X136129381Y-94181998D01*
X136120872Y-94179500D01*
X135976950Y-94179500D01*
X135968441Y-94181998D01*
X135968437Y-94181999D01*
X135847372Y-94217547D01*
X135838858Y-94220047D01*
X135831395Y-94224842D01*
X135831395Y-94224843D01*
X135725240Y-94293064D01*
X135725236Y-94293066D01*
X135717783Y-94297857D01*
X135711981Y-94304551D01*
X135711976Y-94304557D01*
X135629342Y-94399923D01*
X135629339Y-94399927D01*
X135623534Y-94406627D01*
X135619852Y-94414689D01*
X135619849Y-94414694D01*
X135575449Y-94511917D01*
X135563746Y-94537543D01*
X135562484Y-94546316D01*
X135562483Y-94546322D01*
X135552353Y-94616782D01*
X135543264Y-94680000D01*
X135544526Y-94688777D01*
X135544526Y-94688782D01*
X135548662Y-94717554D01*
X135540484Y-94782653D01*
X135500234Y-94834466D01*
X135439179Y-94858487D01*
X135374414Y-94847993D01*
X135367513Y-94844841D01*
X135360053Y-94840047D01*
X135351545Y-94837548D01*
X135351541Y-94837547D01*
X135230473Y-94801999D01*
X135230470Y-94801998D01*
X135221961Y-94799500D01*
X135078039Y-94799500D01*
X135069530Y-94801998D01*
X135069526Y-94801999D01*
X134958954Y-94834466D01*
X134939947Y-94840047D01*
X134932484Y-94844842D01*
X134932484Y-94844843D01*
X134826329Y-94913064D01*
X134826325Y-94913066D01*
X134818872Y-94917857D01*
X134813070Y-94924551D01*
X134813065Y-94924557D01*
X134730431Y-95019923D01*
X134730428Y-95019927D01*
X134724623Y-95026627D01*
X134720941Y-95034689D01*
X134720938Y-95034694D01*
X134670319Y-95145534D01*
X134664835Y-95157543D01*
X134663573Y-95166316D01*
X134663572Y-95166322D01*
X134651614Y-95249500D01*
X134644353Y-95300000D01*
X132241269Y-95300000D01*
X132255647Y-95200000D01*
X132235165Y-95057543D01*
X132175377Y-94926627D01*
X132128368Y-94872375D01*
X132086934Y-94824557D01*
X132086932Y-94824555D01*
X132081128Y-94817857D01*
X131960053Y-94740047D01*
X131874750Y-94715000D01*
X131830473Y-94701999D01*
X131830470Y-94701998D01*
X131821961Y-94699500D01*
X131678039Y-94699500D01*
X131669530Y-94701998D01*
X131669526Y-94701999D01*
X131548461Y-94737547D01*
X131539947Y-94740047D01*
X131532484Y-94744842D01*
X131532484Y-94744843D01*
X131426329Y-94813064D01*
X131426325Y-94813066D01*
X131418872Y-94817857D01*
X131413070Y-94824551D01*
X131413065Y-94824557D01*
X131330431Y-94919923D01*
X131330428Y-94919927D01*
X131324623Y-94926627D01*
X131320941Y-94934689D01*
X131320938Y-94934694D01*
X131268520Y-95049473D01*
X131264835Y-95057543D01*
X131263573Y-95066316D01*
X131263572Y-95066322D01*
X131251542Y-95150000D01*
X131244353Y-95200000D01*
X96250500Y-95200000D01*
X96250500Y-91406155D01*
X97749500Y-91406155D01*
X97749747Y-91408903D01*
X97749748Y-91408918D01*
X97764123Y-91568639D01*
X97764124Y-91568645D01*
X97764623Y-91574188D01*
X97766103Y-91579553D01*
X97766105Y-91579560D01*
X97822520Y-91783971D01*
X97824507Y-91791170D01*
X97826925Y-91796191D01*
X97919752Y-91988951D01*
X97919754Y-91988955D01*
X97922171Y-91993973D01*
X97925444Y-91998479D01*
X97925446Y-91998481D01*
X97981824Y-92076078D01*
X98054478Y-92176078D01*
X98058497Y-92179921D01*
X98058501Y-92179925D01*
X98181844Y-92297852D01*
X98217175Y-92331632D01*
X98405032Y-92455635D01*
X98612012Y-92544103D01*
X98831463Y-92594191D01*
X99056330Y-92604290D01*
X99279387Y-92574075D01*
X99493464Y-92504517D01*
X99691681Y-92397852D01*
X99867666Y-92257508D01*
X100015765Y-92087996D01*
X100131215Y-91894764D01*
X100210307Y-91684024D01*
X100250500Y-91462547D01*
X100250500Y-91306155D01*
X102749500Y-91306155D01*
X102749747Y-91308903D01*
X102749748Y-91308918D01*
X102764123Y-91468639D01*
X102764124Y-91468645D01*
X102764623Y-91474188D01*
X102766103Y-91479553D01*
X102766105Y-91479560D01*
X102823024Y-91685798D01*
X102824507Y-91691170D01*
X102826925Y-91696191D01*
X102919752Y-91888951D01*
X102919754Y-91888955D01*
X102922171Y-91893973D01*
X103054478Y-92076078D01*
X103058497Y-92079921D01*
X103058501Y-92079925D01*
X103208164Y-92223017D01*
X103217175Y-92231632D01*
X103405032Y-92355635D01*
X103612012Y-92444103D01*
X103831463Y-92494191D01*
X104056330Y-92504290D01*
X104279387Y-92474075D01*
X104493464Y-92404517D01*
X104691681Y-92297852D01*
X104774515Y-92231794D01*
X136520231Y-92231794D01*
X136521493Y-92240571D01*
X136539450Y-92365471D01*
X136539451Y-92365475D01*
X136540713Y-92374251D01*
X136544397Y-92382319D01*
X136544398Y-92382320D01*
X136595602Y-92494441D01*
X136600501Y-92505167D01*
X136606308Y-92511869D01*
X136606309Y-92511870D01*
X136688943Y-92607236D01*
X136688945Y-92607238D01*
X136694750Y-92613937D01*
X136815825Y-92691747D01*
X136953917Y-92732294D01*
X137088968Y-92732294D01*
X137097839Y-92732294D01*
X137235931Y-92691747D01*
X137357006Y-92613937D01*
X137451255Y-92505167D01*
X137511043Y-92374251D01*
X137531525Y-92231794D01*
X137511043Y-92089337D01*
X137451255Y-91958421D01*
X137420032Y-91922387D01*
X137362812Y-91856351D01*
X137362810Y-91856349D01*
X137357006Y-91849651D01*
X137235931Y-91771841D01*
X137180741Y-91755635D01*
X137106351Y-91733793D01*
X137106348Y-91733792D01*
X137097839Y-91731294D01*
X136953917Y-91731294D01*
X136945408Y-91733792D01*
X136945404Y-91733793D01*
X136824339Y-91769341D01*
X136815825Y-91771841D01*
X136808362Y-91776636D01*
X136808362Y-91776637D01*
X136702207Y-91844858D01*
X136702203Y-91844860D01*
X136694750Y-91849651D01*
X136688948Y-91856345D01*
X136688943Y-91856351D01*
X136606309Y-91951717D01*
X136606306Y-91951721D01*
X136600501Y-91958421D01*
X136596819Y-91966483D01*
X136596816Y-91966488D01*
X136546768Y-92076078D01*
X136540713Y-92089337D01*
X136539451Y-92098110D01*
X136539450Y-92098116D01*
X136522998Y-92212548D01*
X136520231Y-92231794D01*
X104774515Y-92231794D01*
X104867666Y-92157508D01*
X105015765Y-91987996D01*
X105131215Y-91794764D01*
X105210307Y-91584024D01*
X105250500Y-91362547D01*
X105250500Y-90825000D01*
X138119353Y-90825000D01*
X138122423Y-90846359D01*
X138138572Y-90958677D01*
X138138573Y-90958681D01*
X138139835Y-90967457D01*
X138199623Y-91098373D01*
X138205430Y-91105075D01*
X138205431Y-91105076D01*
X138288065Y-91200442D01*
X138288067Y-91200444D01*
X138293872Y-91207143D01*
X138414947Y-91284953D01*
X138553039Y-91325500D01*
X138688090Y-91325500D01*
X138696961Y-91325500D01*
X138835053Y-91284953D01*
X138956128Y-91207143D01*
X139050377Y-91098373D01*
X139110165Y-90967457D01*
X139130647Y-90825000D01*
X139110165Y-90682543D01*
X139050377Y-90551627D01*
X139020356Y-90516981D01*
X138961934Y-90449557D01*
X138961932Y-90449555D01*
X138956128Y-90442857D01*
X138835053Y-90365047D01*
X138769966Y-90345936D01*
X138705473Y-90326999D01*
X138705470Y-90326998D01*
X138696961Y-90324500D01*
X138553039Y-90324500D01*
X138544530Y-90326998D01*
X138544526Y-90326999D01*
X138423461Y-90362547D01*
X138414947Y-90365047D01*
X138407484Y-90369842D01*
X138407484Y-90369843D01*
X138301329Y-90438064D01*
X138301325Y-90438066D01*
X138293872Y-90442857D01*
X138288070Y-90449551D01*
X138288065Y-90449557D01*
X138205431Y-90544923D01*
X138205428Y-90544927D01*
X138199623Y-90551627D01*
X138195941Y-90559689D01*
X138195938Y-90559694D01*
X138160427Y-90637453D01*
X138139835Y-90682543D01*
X138138573Y-90691316D01*
X138138572Y-90691322D01*
X138128171Y-90763670D01*
X138119353Y-90825000D01*
X105250500Y-90825000D01*
X105250500Y-90693845D01*
X105235377Y-90525812D01*
X105175493Y-90308830D01*
X105077829Y-90106027D01*
X105000796Y-90000000D01*
X135319353Y-90000000D01*
X135320615Y-90008777D01*
X135338572Y-90133677D01*
X135338573Y-90133681D01*
X135339835Y-90142457D01*
X135343519Y-90150525D01*
X135343520Y-90150526D01*
X135374978Y-90219410D01*
X135399623Y-90273373D01*
X135405430Y-90280075D01*
X135405431Y-90280076D01*
X135488065Y-90375442D01*
X135488067Y-90375444D01*
X135493872Y-90382143D01*
X135614947Y-90459953D01*
X135753039Y-90500500D01*
X135888090Y-90500500D01*
X135896961Y-90500500D01*
X136035053Y-90459953D01*
X136156128Y-90382143D01*
X136250377Y-90273373D01*
X136310165Y-90142457D01*
X136330647Y-90000000D01*
X136310165Y-89857543D01*
X136250377Y-89726627D01*
X136211832Y-89682143D01*
X136161934Y-89624557D01*
X136161932Y-89624555D01*
X136156128Y-89617857D01*
X136035053Y-89540047D01*
X135954266Y-89516326D01*
X135905473Y-89501999D01*
X135905470Y-89501998D01*
X135896961Y-89499500D01*
X135753039Y-89499500D01*
X135744530Y-89501998D01*
X135744526Y-89501999D01*
X135657181Y-89527646D01*
X135614947Y-89540047D01*
X135607484Y-89544842D01*
X135607484Y-89544843D01*
X135501329Y-89613064D01*
X135501325Y-89613066D01*
X135493872Y-89617857D01*
X135488070Y-89624551D01*
X135488065Y-89624557D01*
X135405431Y-89719923D01*
X135405428Y-89719927D01*
X135399623Y-89726627D01*
X135395941Y-89734689D01*
X135395938Y-89734694D01*
X135344796Y-89846680D01*
X135339835Y-89857543D01*
X135338573Y-89866316D01*
X135338572Y-89866322D01*
X135330844Y-89920074D01*
X135319353Y-90000000D01*
X105000796Y-90000000D01*
X104945522Y-89923922D01*
X104941501Y-89920078D01*
X104941498Y-89920074D01*
X104786852Y-89772218D01*
X104786850Y-89772216D01*
X104782825Y-89768368D01*
X104594968Y-89644365D01*
X104589846Y-89642175D01*
X104589841Y-89642173D01*
X104393115Y-89558088D01*
X104393111Y-89558086D01*
X104387988Y-89555897D01*
X104382554Y-89554656D01*
X104382552Y-89554656D01*
X104173970Y-89507049D01*
X104173969Y-89507048D01*
X104168537Y-89505809D01*
X104162979Y-89505559D01*
X104162969Y-89505558D01*
X103949230Y-89495959D01*
X103949222Y-89495959D01*
X103943670Y-89495710D01*
X103938166Y-89496455D01*
X103938155Y-89496456D01*
X103726132Y-89525177D01*
X103726127Y-89525177D01*
X103720613Y-89525925D01*
X103715321Y-89527644D01*
X103715314Y-89527646D01*
X103511832Y-89593761D01*
X103511820Y-89593766D01*
X103506536Y-89595483D01*
X103501636Y-89598119D01*
X103501633Y-89598121D01*
X103313215Y-89699512D01*
X103313203Y-89699519D01*
X103308319Y-89702148D01*
X103303978Y-89705609D01*
X103303970Y-89705615D01*
X103136684Y-89839022D01*
X103136677Y-89839027D01*
X103132334Y-89842492D01*
X103128680Y-89846673D01*
X103128674Y-89846680D01*
X102987897Y-90007812D01*
X102984235Y-90012004D01*
X102981384Y-90016775D01*
X102981378Y-90016784D01*
X102871641Y-90200454D01*
X102871636Y-90200463D01*
X102868785Y-90205236D01*
X102866828Y-90210448D01*
X102866827Y-90210452D01*
X102791650Y-90410760D01*
X102791648Y-90410766D01*
X102789693Y-90415976D01*
X102788699Y-90421450D01*
X102788698Y-90421456D01*
X102751503Y-90626417D01*
X102749500Y-90637453D01*
X102749500Y-91306155D01*
X100250500Y-91306155D01*
X100250500Y-90793845D01*
X100235377Y-90625812D01*
X100175493Y-90408830D01*
X100077829Y-90206027D01*
X99945522Y-90023922D01*
X99941501Y-90020078D01*
X99941498Y-90020074D01*
X99786852Y-89872218D01*
X99786850Y-89872216D01*
X99782825Y-89868368D01*
X99594968Y-89744365D01*
X99589846Y-89742175D01*
X99589841Y-89742173D01*
X99393115Y-89658088D01*
X99393111Y-89658086D01*
X99387988Y-89655897D01*
X99382554Y-89654656D01*
X99382552Y-89654656D01*
X99173970Y-89607049D01*
X99173969Y-89607048D01*
X99168537Y-89605809D01*
X99162979Y-89605559D01*
X99162969Y-89605558D01*
X98949230Y-89595959D01*
X98949222Y-89595959D01*
X98943670Y-89595710D01*
X98938166Y-89596455D01*
X98938155Y-89596456D01*
X98726132Y-89625177D01*
X98726127Y-89625177D01*
X98720613Y-89625925D01*
X98715321Y-89627644D01*
X98715314Y-89627646D01*
X98511832Y-89693761D01*
X98511820Y-89693766D01*
X98506536Y-89695483D01*
X98501636Y-89698119D01*
X98501633Y-89698121D01*
X98313215Y-89799512D01*
X98313203Y-89799519D01*
X98308319Y-89802148D01*
X98303978Y-89805609D01*
X98303970Y-89805615D01*
X98136684Y-89939022D01*
X98136677Y-89939027D01*
X98132334Y-89942492D01*
X98128680Y-89946673D01*
X98128674Y-89946680D01*
X98026331Y-90063821D01*
X97984235Y-90112004D01*
X97981384Y-90116775D01*
X97981378Y-90116784D01*
X97871641Y-90300454D01*
X97871636Y-90300463D01*
X97868785Y-90305236D01*
X97866828Y-90310448D01*
X97866827Y-90310452D01*
X97791650Y-90510760D01*
X97791648Y-90510766D01*
X97789693Y-90515976D01*
X97788699Y-90521450D01*
X97788698Y-90521456D01*
X97750495Y-90731969D01*
X97749500Y-90737453D01*
X97749500Y-91406155D01*
X96250500Y-91406155D01*
X96250500Y-89300000D01*
X120369353Y-89300000D01*
X120370615Y-89308777D01*
X120388572Y-89433677D01*
X120388573Y-89433681D01*
X120389835Y-89442457D01*
X120393519Y-89450525D01*
X120393520Y-89450526D01*
X120441641Y-89555897D01*
X120449623Y-89573373D01*
X120455430Y-89580075D01*
X120455431Y-89580076D01*
X120538065Y-89675442D01*
X120538067Y-89675444D01*
X120543872Y-89682143D01*
X120664947Y-89759953D01*
X120803039Y-89800500D01*
X120938090Y-89800500D01*
X120946961Y-89800500D01*
X121085053Y-89759953D01*
X121206128Y-89682143D01*
X121300377Y-89573373D01*
X121360165Y-89442457D01*
X121380647Y-89300000D01*
X121360165Y-89157543D01*
X121300377Y-89026627D01*
X121239350Y-88956198D01*
X121212561Y-88904234D01*
X121212561Y-88845766D01*
X121239350Y-88793801D01*
X121255641Y-88775000D01*
X128819353Y-88775000D01*
X128820615Y-88783777D01*
X128838572Y-88908677D01*
X128838573Y-88908681D01*
X128839835Y-88917457D01*
X128843519Y-88925525D01*
X128843520Y-88925526D01*
X128893810Y-89035646D01*
X128899623Y-89048373D01*
X128905430Y-89055075D01*
X128905431Y-89055076D01*
X128988065Y-89150442D01*
X128988067Y-89150444D01*
X128993872Y-89157143D01*
X129114947Y-89234953D01*
X129253039Y-89275500D01*
X129388090Y-89275500D01*
X129396961Y-89275500D01*
X129535053Y-89234953D01*
X129656128Y-89157143D01*
X129750377Y-89048373D01*
X129810165Y-88917457D01*
X129830647Y-88775000D01*
X129810165Y-88632543D01*
X129750377Y-88501627D01*
X129712762Y-88458217D01*
X129661934Y-88399557D01*
X129661932Y-88399555D01*
X129656128Y-88392857D01*
X129535053Y-88315047D01*
X129479863Y-88298841D01*
X129405473Y-88276999D01*
X129405470Y-88276998D01*
X129396961Y-88274500D01*
X129253039Y-88274500D01*
X129244530Y-88276998D01*
X129244526Y-88276999D01*
X129123461Y-88312547D01*
X129114947Y-88315047D01*
X129107484Y-88319842D01*
X129107484Y-88319843D01*
X129001329Y-88388064D01*
X129001325Y-88388066D01*
X128993872Y-88392857D01*
X128988070Y-88399551D01*
X128988065Y-88399557D01*
X128905431Y-88494923D01*
X128905428Y-88494927D01*
X128899623Y-88501627D01*
X128895941Y-88509689D01*
X128895938Y-88509694D01*
X128843520Y-88624473D01*
X128839835Y-88632543D01*
X128838573Y-88641316D01*
X128838572Y-88641322D01*
X128825812Y-88730076D01*
X128819353Y-88775000D01*
X121255641Y-88775000D01*
X121300377Y-88723373D01*
X121360165Y-88592457D01*
X121380647Y-88450000D01*
X121360165Y-88307543D01*
X121300377Y-88176627D01*
X121253532Y-88122564D01*
X121211934Y-88074557D01*
X121211932Y-88074555D01*
X121206128Y-88067857D01*
X121085053Y-87990047D01*
X121015668Y-87969674D01*
X120955473Y-87951999D01*
X120955470Y-87951998D01*
X120946961Y-87949500D01*
X120803039Y-87949500D01*
X120794530Y-87951998D01*
X120794526Y-87951999D01*
X120673461Y-87987547D01*
X120664947Y-87990047D01*
X120657484Y-87994842D01*
X120657484Y-87994843D01*
X120551329Y-88063064D01*
X120551325Y-88063066D01*
X120543872Y-88067857D01*
X120538070Y-88074551D01*
X120538065Y-88074557D01*
X120455431Y-88169923D01*
X120455428Y-88169927D01*
X120449623Y-88176627D01*
X120445941Y-88184689D01*
X120445938Y-88184694D01*
X120402299Y-88280250D01*
X120389835Y-88307543D01*
X120388573Y-88316316D01*
X120388572Y-88316322D01*
X120376410Y-88400914D01*
X120369353Y-88450000D01*
X120370615Y-88458777D01*
X120388572Y-88583677D01*
X120388573Y-88583681D01*
X120389835Y-88592457D01*
X120393519Y-88600525D01*
X120393520Y-88600526D01*
X120426332Y-88672375D01*
X120449623Y-88723373D01*
X120455428Y-88730072D01*
X120455431Y-88730076D01*
X120510646Y-88793798D01*
X120537438Y-88845766D01*
X120537438Y-88904234D01*
X120510646Y-88956202D01*
X120455431Y-89019923D01*
X120455428Y-89019927D01*
X120449623Y-89026627D01*
X120445941Y-89034689D01*
X120445938Y-89034694D01*
X120393520Y-89149473D01*
X120389835Y-89157543D01*
X120388573Y-89166316D01*
X120388572Y-89166322D01*
X120372120Y-89280754D01*
X120369353Y-89300000D01*
X96250500Y-89300000D01*
X96250500Y-87325000D01*
X131630769Y-87325000D01*
X131632031Y-87333777D01*
X131649988Y-87458677D01*
X131649989Y-87458681D01*
X131651251Y-87467457D01*
X131654935Y-87475525D01*
X131654936Y-87475526D01*
X131706919Y-87589353D01*
X131711039Y-87598373D01*
X131716846Y-87605075D01*
X131716847Y-87605076D01*
X131799481Y-87700442D01*
X131799483Y-87700444D01*
X131805288Y-87707143D01*
X131926363Y-87784953D01*
X132064455Y-87825500D01*
X132199506Y-87825500D01*
X132208377Y-87825500D01*
X132346469Y-87784953D01*
X132439758Y-87725000D01*
X141794750Y-87725000D01*
X141795811Y-87733059D01*
X141802011Y-87780156D01*
X141813670Y-87868709D01*
X141869139Y-88002625D01*
X141874084Y-88009069D01*
X141874085Y-88009071D01*
X141919847Y-88068709D01*
X141957379Y-88117621D01*
X142072375Y-88205861D01*
X142206291Y-88261330D01*
X142350000Y-88280250D01*
X142493709Y-88261330D01*
X142627625Y-88205861D01*
X142742621Y-88117621D01*
X142830861Y-88002625D01*
X142863014Y-87925000D01*
X151519750Y-87925000D01*
X151520811Y-87933059D01*
X151533673Y-88030759D01*
X151538670Y-88068709D01*
X151541781Y-88076220D01*
X151541782Y-88076223D01*
X151558930Y-88117621D01*
X151594139Y-88202625D01*
X151682379Y-88317621D01*
X151797375Y-88405861D01*
X151931291Y-88461330D01*
X152075000Y-88480250D01*
X152218709Y-88461330D01*
X152352625Y-88405861D01*
X152467621Y-88317621D01*
X152555861Y-88202625D01*
X152611330Y-88068709D01*
X152630250Y-87925000D01*
X152611330Y-87781291D01*
X152555861Y-87647375D01*
X152467621Y-87532379D01*
X152461178Y-87527435D01*
X152359071Y-87449085D01*
X152359069Y-87449084D01*
X152352625Y-87444139D01*
X152266917Y-87408638D01*
X152226223Y-87391782D01*
X152226220Y-87391781D01*
X152218709Y-87388670D01*
X152210649Y-87387608D01*
X152210646Y-87387608D01*
X152083059Y-87370811D01*
X152075000Y-87369750D01*
X152066941Y-87370811D01*
X151939353Y-87387608D01*
X151939348Y-87387609D01*
X151931291Y-87388670D01*
X151923781Y-87391780D01*
X151923776Y-87391782D01*
X151804885Y-87441028D01*
X151804883Y-87441029D01*
X151797375Y-87444139D01*
X151790933Y-87449082D01*
X151790928Y-87449085D01*
X151688821Y-87527435D01*
X151688817Y-87527438D01*
X151682379Y-87532379D01*
X151677438Y-87538817D01*
X151677435Y-87538821D01*
X151599085Y-87640928D01*
X151599082Y-87640933D01*
X151594139Y-87647375D01*
X151591029Y-87654883D01*
X151591028Y-87654885D01*
X151541782Y-87773776D01*
X151541780Y-87773781D01*
X151538670Y-87781291D01*
X151537609Y-87789348D01*
X151537608Y-87789353D01*
X151527326Y-87867457D01*
X151519750Y-87925000D01*
X142863014Y-87925000D01*
X142886330Y-87868709D01*
X142905250Y-87725000D01*
X142887649Y-87591317D01*
X142893170Y-87535272D01*
X142922908Y-87487449D01*
X142970732Y-87457711D01*
X143026774Y-87452192D01*
X143050000Y-87455250D01*
X143193709Y-87436330D01*
X143327625Y-87380861D01*
X143442621Y-87292621D01*
X143530861Y-87177625D01*
X143586330Y-87043709D01*
X143605250Y-86900000D01*
X143586330Y-86756291D01*
X143530861Y-86622375D01*
X143442621Y-86507379D01*
X143435118Y-86501622D01*
X143334071Y-86424085D01*
X143334069Y-86424084D01*
X143327625Y-86419139D01*
X143252687Y-86388099D01*
X143201223Y-86366782D01*
X143201220Y-86366781D01*
X143193709Y-86363670D01*
X143185649Y-86362608D01*
X143185646Y-86362608D01*
X143058059Y-86345811D01*
X143050000Y-86344750D01*
X143041941Y-86345811D01*
X142914353Y-86362608D01*
X142914348Y-86362609D01*
X142906291Y-86363670D01*
X142898781Y-86366780D01*
X142898776Y-86366782D01*
X142779885Y-86416028D01*
X142779883Y-86416029D01*
X142772375Y-86419139D01*
X142765933Y-86424082D01*
X142765928Y-86424085D01*
X142663821Y-86502435D01*
X142663817Y-86502438D01*
X142657379Y-86507379D01*
X142652438Y-86513817D01*
X142652435Y-86513821D01*
X142574085Y-86615928D01*
X142574082Y-86615933D01*
X142569139Y-86622375D01*
X142566029Y-86629883D01*
X142566028Y-86629885D01*
X142516782Y-86748776D01*
X142516780Y-86748781D01*
X142513670Y-86756291D01*
X142512609Y-86764348D01*
X142512608Y-86764353D01*
X142499352Y-86865047D01*
X142494750Y-86900000D01*
X142495811Y-86908059D01*
X142495811Y-86908060D01*
X142512349Y-87033683D01*
X142506829Y-87089726D01*
X142477092Y-87137549D01*
X142429270Y-87167287D01*
X142373227Y-87172808D01*
X142350000Y-87169750D01*
X142341941Y-87170811D01*
X142214353Y-87187608D01*
X142214348Y-87187609D01*
X142206291Y-87188670D01*
X142198781Y-87191780D01*
X142198776Y-87191782D01*
X142079885Y-87241028D01*
X142079883Y-87241029D01*
X142072375Y-87244139D01*
X142065933Y-87249082D01*
X142065928Y-87249085D01*
X141963821Y-87327435D01*
X141963817Y-87327438D01*
X141957379Y-87332379D01*
X141952438Y-87338817D01*
X141952435Y-87338821D01*
X141874085Y-87440928D01*
X141874082Y-87440933D01*
X141869139Y-87447375D01*
X141866029Y-87454883D01*
X141866028Y-87454885D01*
X141816782Y-87573776D01*
X141816780Y-87573781D01*
X141813670Y-87581291D01*
X141812609Y-87589348D01*
X141812608Y-87589353D01*
X141803981Y-87654885D01*
X141794750Y-87725000D01*
X132439758Y-87725000D01*
X132467544Y-87707143D01*
X132561793Y-87598373D01*
X132621581Y-87467457D01*
X132642063Y-87325000D01*
X132643537Y-87325212D01*
X132652007Y-87286281D01*
X132683599Y-87244079D01*
X132729864Y-87218816D01*
X132760053Y-87209953D01*
X132881128Y-87132143D01*
X132975377Y-87023373D01*
X133035165Y-86892457D01*
X133036189Y-86885331D01*
X133064918Y-86835569D01*
X133114107Y-86803957D01*
X133171239Y-86798503D01*
X133178039Y-86800500D01*
X133313090Y-86800500D01*
X133321961Y-86800500D01*
X133460053Y-86759953D01*
X133581128Y-86682143D01*
X133675377Y-86573373D01*
X133735165Y-86442457D01*
X133755647Y-86300000D01*
X133735165Y-86157543D01*
X133675377Y-86026627D01*
X133608980Y-85950000D01*
X133586934Y-85924557D01*
X133586932Y-85924555D01*
X133581128Y-85917857D01*
X133460053Y-85840047D01*
X133399867Y-85822375D01*
X133330473Y-85801999D01*
X133330470Y-85801998D01*
X133321961Y-85799500D01*
X133178039Y-85799500D01*
X133169530Y-85801998D01*
X133169526Y-85801999D01*
X133050181Y-85837042D01*
X133039947Y-85840047D01*
X133032484Y-85844842D01*
X133032484Y-85844843D01*
X132926329Y-85913064D01*
X132926325Y-85913066D01*
X132918872Y-85917857D01*
X132913070Y-85924551D01*
X132913065Y-85924557D01*
X132830431Y-86019923D01*
X132830428Y-86019927D01*
X132824623Y-86026627D01*
X132820941Y-86034689D01*
X132820938Y-86034694D01*
X132768517Y-86149478D01*
X132768514Y-86149485D01*
X132764835Y-86157543D01*
X132763810Y-86164668D01*
X132735079Y-86214432D01*
X132685893Y-86246041D01*
X132628761Y-86251496D01*
X132621961Y-86249500D01*
X132478039Y-86249500D01*
X132469530Y-86251998D01*
X132469526Y-86251999D01*
X132353638Y-86286027D01*
X132339947Y-86290047D01*
X132332484Y-86294842D01*
X132332484Y-86294843D01*
X132226329Y-86363064D01*
X132226325Y-86363066D01*
X132218872Y-86367857D01*
X132213070Y-86374551D01*
X132213065Y-86374557D01*
X132130431Y-86469923D01*
X132130428Y-86469927D01*
X132124623Y-86476627D01*
X132120941Y-86484689D01*
X132120938Y-86484694D01*
X132077020Y-86580861D01*
X132064835Y-86607543D01*
X132063573Y-86616316D01*
X132063572Y-86616322D01*
X132044353Y-86750000D01*
X132042878Y-86749787D01*
X132034410Y-86788717D01*
X132002818Y-86830918D01*
X131956551Y-86856182D01*
X131926363Y-86865047D01*
X131918909Y-86869836D01*
X131918903Y-86869840D01*
X131812745Y-86938064D01*
X131812741Y-86938066D01*
X131805288Y-86942857D01*
X131799486Y-86949551D01*
X131799481Y-86949557D01*
X131716847Y-87044923D01*
X131716844Y-87044927D01*
X131711039Y-87051627D01*
X131707357Y-87059689D01*
X131707354Y-87059694D01*
X131654936Y-87174473D01*
X131651251Y-87182543D01*
X131649989Y-87191316D01*
X131649988Y-87191322D01*
X131641376Y-87251223D01*
X131630769Y-87325000D01*
X96250500Y-87325000D01*
X96250500Y-83009756D01*
X96252025Y-82990368D01*
X96259639Y-82942291D01*
X96271624Y-82905406D01*
X96289237Y-82870840D01*
X96312033Y-82839464D01*
X96339464Y-82812033D01*
X96370840Y-82789237D01*
X96405406Y-82771624D01*
X96442291Y-82759639D01*
X96490368Y-82752025D01*
X96509756Y-82750500D01*
X96544170Y-82750500D01*
X116455830Y-82750500D01*
X116490244Y-82750500D01*
X116509631Y-82752025D01*
X116557706Y-82759639D01*
X116594595Y-82771625D01*
X116629156Y-82789235D01*
X116660538Y-82812036D01*
X116687963Y-82839461D01*
X116710766Y-82870846D01*
X116728372Y-82905399D01*
X116740361Y-82942297D01*
X116747973Y-82990358D01*
X116749500Y-83009756D01*
X116749500Y-84955830D01*
X116749500Y-85000000D01*
X116749500Y-85125198D01*
X116750128Y-85129567D01*
X116750129Y-85129578D01*
X116784504Y-85368656D01*
X116784506Y-85368666D01*
X116785136Y-85373046D01*
X116796886Y-85413064D01*
X116841107Y-85563670D01*
X116855680Y-85613300D01*
X116905949Y-85723373D01*
X116957811Y-85836935D01*
X116959699Y-85841068D01*
X116962088Y-85844785D01*
X116962090Y-85844789D01*
X117078950Y-86026627D01*
X117095073Y-86051715D01*
X117259048Y-86240952D01*
X117448285Y-86404927D01*
X117658932Y-86540301D01*
X117886700Y-86644320D01*
X118126954Y-86714864D01*
X118374802Y-86750500D01*
X118620772Y-86750500D01*
X118625198Y-86750500D01*
X118873046Y-86714864D01*
X119113300Y-86644320D01*
X119341068Y-86540301D01*
X119551715Y-86404927D01*
X119740952Y-86240952D01*
X119904927Y-86051715D01*
X120040301Y-85841068D01*
X120059056Y-85800000D01*
X126869353Y-85800000D01*
X126870615Y-85808777D01*
X126888572Y-85933677D01*
X126888573Y-85933681D01*
X126889835Y-85942457D01*
X126893519Y-85950525D01*
X126893520Y-85950526D01*
X126945524Y-86064399D01*
X126949623Y-86073373D01*
X126955430Y-86080075D01*
X126955431Y-86080076D01*
X127038065Y-86175442D01*
X127038067Y-86175444D01*
X127043872Y-86182143D01*
X127164947Y-86259953D01*
X127303039Y-86300500D01*
X127438090Y-86300500D01*
X127446961Y-86300500D01*
X127585053Y-86259953D01*
X127706128Y-86182143D01*
X127800377Y-86073373D01*
X127860165Y-85942457D01*
X127880647Y-85800000D01*
X127860165Y-85657543D01*
X127800377Y-85526627D01*
X127772836Y-85494843D01*
X127711934Y-85424557D01*
X127711932Y-85424555D01*
X127706128Y-85417857D01*
X127585053Y-85340047D01*
X127512382Y-85318709D01*
X127455473Y-85301999D01*
X127455470Y-85301998D01*
X127446961Y-85299500D01*
X127303039Y-85299500D01*
X127294530Y-85301998D01*
X127294526Y-85301999D01*
X127193977Y-85331523D01*
X127164947Y-85340047D01*
X127157484Y-85344842D01*
X127157484Y-85344843D01*
X127051329Y-85413064D01*
X127051325Y-85413066D01*
X127043872Y-85417857D01*
X127038070Y-85424551D01*
X127038065Y-85424557D01*
X126955431Y-85519923D01*
X126955428Y-85519927D01*
X126949623Y-85526627D01*
X126945941Y-85534689D01*
X126945938Y-85534694D01*
X126893520Y-85649473D01*
X126889835Y-85657543D01*
X126888573Y-85666316D01*
X126888572Y-85666322D01*
X126874032Y-85767459D01*
X126869353Y-85800000D01*
X120059056Y-85800000D01*
X120144320Y-85613300D01*
X120214864Y-85373046D01*
X120250500Y-85125198D01*
X120250500Y-85075000D01*
X133706026Y-85075000D01*
X133707288Y-85083777D01*
X133725245Y-85208677D01*
X133725246Y-85208681D01*
X133726508Y-85217457D01*
X133730192Y-85225525D01*
X133730193Y-85225526D01*
X133782493Y-85340047D01*
X133786296Y-85348373D01*
X133792103Y-85355075D01*
X133792104Y-85355076D01*
X133874738Y-85450442D01*
X133874740Y-85450444D01*
X133880545Y-85457143D01*
X134001620Y-85534953D01*
X134139712Y-85575500D01*
X134147092Y-85575500D01*
X134199307Y-85596043D01*
X134237420Y-85638472D01*
X134252509Y-85693473D01*
X134241383Y-85749411D01*
X134214835Y-85807543D01*
X134213573Y-85816316D01*
X134213572Y-85816322D01*
X134197120Y-85930754D01*
X134194353Y-85950000D01*
X134195615Y-85958777D01*
X134213572Y-86083677D01*
X134213573Y-86083681D01*
X134214835Y-86092457D01*
X134218519Y-86100525D01*
X134218520Y-86100526D01*
X134270539Y-86214432D01*
X134274623Y-86223373D01*
X134280430Y-86230075D01*
X134280431Y-86230076D01*
X134363065Y-86325442D01*
X134363067Y-86325444D01*
X134368872Y-86332143D01*
X134489947Y-86409953D01*
X134628039Y-86450500D01*
X134763090Y-86450500D01*
X134771961Y-86450500D01*
X134910053Y-86409953D01*
X134944061Y-86388096D01*
X134987629Y-86370654D01*
X135034564Y-86370654D01*
X135078138Y-86388098D01*
X135182482Y-86455156D01*
X135182484Y-86455157D01*
X135189947Y-86459953D01*
X135328039Y-86500500D01*
X135463090Y-86500500D01*
X135471961Y-86500500D01*
X135610053Y-86459953D01*
X135731128Y-86382143D01*
X135825377Y-86273373D01*
X135885165Y-86142457D01*
X135905647Y-86000000D01*
X135885165Y-85857543D01*
X135825377Y-85726627D01*
X135773123Y-85666322D01*
X135736934Y-85624557D01*
X135736932Y-85624555D01*
X135731128Y-85617857D01*
X135610053Y-85540047D01*
X135541516Y-85519923D01*
X135480473Y-85501999D01*
X135480470Y-85501998D01*
X135471961Y-85499500D01*
X135328039Y-85499500D01*
X135319530Y-85501998D01*
X135319526Y-85501999D01*
X135204251Y-85535847D01*
X135189947Y-85540047D01*
X135182489Y-85544839D01*
X135182482Y-85544843D01*
X135155936Y-85561903D01*
X135088898Y-85581585D01*
X135021861Y-85561901D01*
X134917516Y-85494843D01*
X134917515Y-85494842D01*
X134910053Y-85490047D01*
X134878454Y-85480768D01*
X134780468Y-85451997D01*
X134780462Y-85451996D01*
X134771961Y-85449500D01*
X134764580Y-85449500D01*
X134712362Y-85428954D01*
X134674251Y-85386524D01*
X134659163Y-85331523D01*
X134670289Y-85275590D01*
X134696838Y-85217457D01*
X134717320Y-85075000D01*
X134696838Y-84932543D01*
X134637050Y-84801627D01*
X134616088Y-84777435D01*
X134548607Y-84699557D01*
X134548605Y-84699555D01*
X134542801Y-84692857D01*
X134437213Y-84625000D01*
X140644750Y-84625000D01*
X140645811Y-84633059D01*
X140662288Y-84758217D01*
X140663670Y-84768709D01*
X140666781Y-84776220D01*
X140666782Y-84776223D01*
X140674528Y-84794923D01*
X140719139Y-84902625D01*
X140724084Y-84909069D01*
X140724085Y-84909071D01*
X140789901Y-84994843D01*
X140807379Y-85017621D01*
X140922375Y-85105861D01*
X141056291Y-85161330D01*
X141200000Y-85180250D01*
X141343709Y-85161330D01*
X141477625Y-85105861D01*
X141592621Y-85017621D01*
X141680861Y-84902625D01*
X141736330Y-84768709D01*
X141755250Y-84625000D01*
X142844750Y-84625000D01*
X142845811Y-84633059D01*
X142862288Y-84758217D01*
X142863670Y-84768709D01*
X142866781Y-84776220D01*
X142866782Y-84776223D01*
X142874528Y-84794923D01*
X142919139Y-84902625D01*
X142924084Y-84909069D01*
X142924085Y-84909071D01*
X142989901Y-84994843D01*
X143007379Y-85017621D01*
X143122375Y-85105861D01*
X143256291Y-85161330D01*
X143400000Y-85180250D01*
X143543709Y-85161330D01*
X143677625Y-85105861D01*
X143792621Y-85017621D01*
X143880861Y-84902625D01*
X143936330Y-84768709D01*
X143955250Y-84625000D01*
X144669750Y-84625000D01*
X144670811Y-84633059D01*
X144687288Y-84758217D01*
X144688670Y-84768709D01*
X144691781Y-84776220D01*
X144691782Y-84776223D01*
X144699528Y-84794923D01*
X144744139Y-84902625D01*
X144749084Y-84909069D01*
X144749085Y-84909071D01*
X144814901Y-84994843D01*
X144832379Y-85017621D01*
X144947375Y-85105861D01*
X145081291Y-85161330D01*
X145225000Y-85180250D01*
X145264877Y-85175000D01*
X160344750Y-85175000D01*
X160345811Y-85183059D01*
X160362199Y-85307543D01*
X160363670Y-85318709D01*
X160366781Y-85326220D01*
X160366782Y-85326223D01*
X160371473Y-85337547D01*
X160419139Y-85452625D01*
X160424084Y-85459069D01*
X160424085Y-85459071D01*
X160500516Y-85558677D01*
X160507379Y-85567621D01*
X160622375Y-85655861D01*
X160756291Y-85711330D01*
X160900000Y-85730250D01*
X161043709Y-85711330D01*
X161177625Y-85655861D01*
X161292621Y-85567621D01*
X161380861Y-85452625D01*
X161381948Y-85450000D01*
X172394353Y-85450000D01*
X172395615Y-85458777D01*
X172413572Y-85583677D01*
X172413573Y-85583681D01*
X172414835Y-85592457D01*
X172418519Y-85600525D01*
X172418520Y-85600526D01*
X172470260Y-85713821D01*
X172474623Y-85723373D01*
X172480430Y-85730075D01*
X172480431Y-85730076D01*
X172563065Y-85825442D01*
X172563067Y-85825444D01*
X172568872Y-85832143D01*
X172689947Y-85909953D01*
X172828039Y-85950500D01*
X172963090Y-85950500D01*
X172971961Y-85950500D01*
X173110053Y-85909953D01*
X173231128Y-85832143D01*
X173325377Y-85723373D01*
X173385165Y-85592457D01*
X173405647Y-85450000D01*
X173385165Y-85307543D01*
X173325377Y-85176627D01*
X173276979Y-85120772D01*
X173236934Y-85074557D01*
X173236932Y-85074555D01*
X173231128Y-85067857D01*
X173110053Y-84990047D01*
X173016396Y-84962547D01*
X172980473Y-84951999D01*
X172980470Y-84951998D01*
X172971961Y-84949500D01*
X172828039Y-84949500D01*
X172819530Y-84951998D01*
X172819526Y-84951999D01*
X172698461Y-84987547D01*
X172689947Y-84990047D01*
X172682484Y-84994842D01*
X172682484Y-84994843D01*
X172576329Y-85063064D01*
X172576325Y-85063066D01*
X172568872Y-85067857D01*
X172563070Y-85074551D01*
X172563065Y-85074557D01*
X172480431Y-85169923D01*
X172480428Y-85169927D01*
X172474623Y-85176627D01*
X172470941Y-85184689D01*
X172470938Y-85184694D01*
X172418520Y-85299473D01*
X172414835Y-85307543D01*
X172413573Y-85316316D01*
X172413572Y-85316322D01*
X172399209Y-85416223D01*
X172394353Y-85450000D01*
X161381948Y-85450000D01*
X161436330Y-85318709D01*
X161455250Y-85175000D01*
X161436330Y-85031291D01*
X161380861Y-84897375D01*
X161292621Y-84782379D01*
X161286178Y-84777435D01*
X161184071Y-84699085D01*
X161184069Y-84699084D01*
X161177625Y-84694139D01*
X161072270Y-84650500D01*
X161051223Y-84641782D01*
X161051220Y-84641781D01*
X161043709Y-84638670D01*
X161035649Y-84637608D01*
X161035646Y-84637608D01*
X160908059Y-84620811D01*
X160900000Y-84619750D01*
X160891941Y-84620811D01*
X160764353Y-84637608D01*
X160764348Y-84637609D01*
X160756291Y-84638670D01*
X160748781Y-84641780D01*
X160748776Y-84641782D01*
X160629885Y-84691028D01*
X160629883Y-84691029D01*
X160622375Y-84694139D01*
X160615933Y-84699082D01*
X160615928Y-84699085D01*
X160513821Y-84777435D01*
X160513817Y-84777438D01*
X160507379Y-84782379D01*
X160502438Y-84788817D01*
X160502435Y-84788821D01*
X160424085Y-84890928D01*
X160424082Y-84890933D01*
X160419139Y-84897375D01*
X160416029Y-84904883D01*
X160416028Y-84904885D01*
X160366782Y-85023776D01*
X160366780Y-85023781D01*
X160363670Y-85031291D01*
X160362609Y-85039348D01*
X160362608Y-85039353D01*
X160350730Y-85129578D01*
X160344750Y-85175000D01*
X145264877Y-85175000D01*
X145368709Y-85161330D01*
X145502625Y-85105861D01*
X145617621Y-85017621D01*
X145705861Y-84902625D01*
X145761330Y-84768709D01*
X145780250Y-84625000D01*
X145761330Y-84481291D01*
X145705861Y-84347375D01*
X145617621Y-84232379D01*
X145591652Y-84212452D01*
X145509071Y-84149085D01*
X145509069Y-84149084D01*
X145502625Y-84144139D01*
X145435468Y-84116322D01*
X145376223Y-84091782D01*
X145376220Y-84091781D01*
X145368709Y-84088670D01*
X145360649Y-84087608D01*
X145360646Y-84087608D01*
X145233059Y-84070811D01*
X145225000Y-84069750D01*
X145216941Y-84070811D01*
X145089353Y-84087608D01*
X145089348Y-84087609D01*
X145081291Y-84088670D01*
X145073781Y-84091780D01*
X145073776Y-84091782D01*
X144954885Y-84141028D01*
X144954883Y-84141029D01*
X144947375Y-84144139D01*
X144940933Y-84149082D01*
X144940928Y-84149085D01*
X144838821Y-84227435D01*
X144838817Y-84227438D01*
X144832379Y-84232379D01*
X144827438Y-84238817D01*
X144827435Y-84238821D01*
X144749085Y-84340928D01*
X144749082Y-84340933D01*
X144744139Y-84347375D01*
X144741029Y-84354883D01*
X144741028Y-84354885D01*
X144691782Y-84473776D01*
X144691780Y-84473781D01*
X144688670Y-84481291D01*
X144687609Y-84489348D01*
X144687608Y-84489353D01*
X144671731Y-84609953D01*
X144669750Y-84625000D01*
X143955250Y-84625000D01*
X143936330Y-84481291D01*
X143880861Y-84347375D01*
X143792621Y-84232379D01*
X143766652Y-84212452D01*
X143684071Y-84149085D01*
X143684069Y-84149084D01*
X143677625Y-84144139D01*
X143610468Y-84116322D01*
X143551223Y-84091782D01*
X143551220Y-84091781D01*
X143543709Y-84088670D01*
X143535649Y-84087608D01*
X143535646Y-84087608D01*
X143408059Y-84070811D01*
X143400000Y-84069750D01*
X143391941Y-84070811D01*
X143264353Y-84087608D01*
X143264348Y-84087609D01*
X143256291Y-84088670D01*
X143248781Y-84091780D01*
X143248776Y-84091782D01*
X143129885Y-84141028D01*
X143129883Y-84141029D01*
X143122375Y-84144139D01*
X143115933Y-84149082D01*
X143115928Y-84149085D01*
X143013821Y-84227435D01*
X143013817Y-84227438D01*
X143007379Y-84232379D01*
X143002438Y-84238817D01*
X143002435Y-84238821D01*
X142924085Y-84340928D01*
X142924082Y-84340933D01*
X142919139Y-84347375D01*
X142916029Y-84354883D01*
X142916028Y-84354885D01*
X142866782Y-84473776D01*
X142866780Y-84473781D01*
X142863670Y-84481291D01*
X142862609Y-84489348D01*
X142862608Y-84489353D01*
X142846731Y-84609953D01*
X142844750Y-84625000D01*
X141755250Y-84625000D01*
X141736330Y-84481291D01*
X141680861Y-84347375D01*
X141592621Y-84232379D01*
X141566652Y-84212452D01*
X141484071Y-84149085D01*
X141484069Y-84149084D01*
X141477625Y-84144139D01*
X141410468Y-84116322D01*
X141351223Y-84091782D01*
X141351220Y-84091781D01*
X141343709Y-84088670D01*
X141335649Y-84087608D01*
X141335646Y-84087608D01*
X141208059Y-84070811D01*
X141200000Y-84069750D01*
X141191941Y-84070811D01*
X141064353Y-84087608D01*
X141064348Y-84087609D01*
X141056291Y-84088670D01*
X141048781Y-84091780D01*
X141048776Y-84091782D01*
X140929885Y-84141028D01*
X140929883Y-84141029D01*
X140922375Y-84144139D01*
X140915933Y-84149082D01*
X140915928Y-84149085D01*
X140813821Y-84227435D01*
X140813817Y-84227438D01*
X140807379Y-84232379D01*
X140802438Y-84238817D01*
X140802435Y-84238821D01*
X140724085Y-84340928D01*
X140724082Y-84340933D01*
X140719139Y-84347375D01*
X140716029Y-84354883D01*
X140716028Y-84354885D01*
X140666782Y-84473776D01*
X140666780Y-84473781D01*
X140663670Y-84481291D01*
X140662609Y-84489348D01*
X140662608Y-84489353D01*
X140646731Y-84609953D01*
X140644750Y-84625000D01*
X134437213Y-84625000D01*
X134421726Y-84615047D01*
X134349055Y-84593709D01*
X134292146Y-84576999D01*
X134292143Y-84576998D01*
X134283634Y-84574500D01*
X134139712Y-84574500D01*
X134131203Y-84576998D01*
X134131199Y-84576999D01*
X134010458Y-84612452D01*
X134001620Y-84615047D01*
X133994157Y-84619842D01*
X133994157Y-84619843D01*
X133888002Y-84688064D01*
X133887998Y-84688066D01*
X133880545Y-84692857D01*
X133874743Y-84699551D01*
X133874738Y-84699557D01*
X133792104Y-84794923D01*
X133792101Y-84794927D01*
X133786296Y-84801627D01*
X133782614Y-84809689D01*
X133782611Y-84809694D01*
X133730193Y-84924473D01*
X133726508Y-84932543D01*
X133725246Y-84941316D01*
X133725245Y-84941322D01*
X133711151Y-85039353D01*
X133706026Y-85075000D01*
X120250500Y-85075000D01*
X120250500Y-85000000D01*
X120250500Y-84955830D01*
X120250500Y-84563602D01*
X121830000Y-84563602D01*
X121831189Y-84575678D01*
X121839221Y-84616057D01*
X121848388Y-84638190D01*
X121879023Y-84684038D01*
X121895961Y-84700976D01*
X121941809Y-84731611D01*
X121963942Y-84740778D01*
X122004321Y-84748810D01*
X122016398Y-84750000D01*
X122263674Y-84750000D01*
X122276549Y-84746549D01*
X122280000Y-84733674D01*
X122780000Y-84733674D01*
X122783450Y-84746549D01*
X122796326Y-84750000D01*
X123043602Y-84750000D01*
X123055678Y-84748810D01*
X123096057Y-84740778D01*
X123118190Y-84731611D01*
X123164038Y-84700976D01*
X123189613Y-84675402D01*
X123191008Y-84676797D01*
X123225510Y-84646251D01*
X123287188Y-84633078D01*
X123347366Y-84651948D01*
X123472310Y-84730456D01*
X123631941Y-84786313D01*
X123800000Y-84805249D01*
X123968059Y-84786313D01*
X124127690Y-84730456D01*
X124270890Y-84640477D01*
X124390477Y-84520890D01*
X124480456Y-84377690D01*
X124536313Y-84218059D01*
X124543982Y-84150000D01*
X129794353Y-84150000D01*
X129795615Y-84158777D01*
X129813572Y-84283677D01*
X129813573Y-84283681D01*
X129814835Y-84292457D01*
X129818519Y-84300525D01*
X129818520Y-84300526D01*
X129869053Y-84411178D01*
X129874623Y-84423373D01*
X129880430Y-84430075D01*
X129880431Y-84430076D01*
X129963065Y-84525442D01*
X129963067Y-84525444D01*
X129968872Y-84532143D01*
X130089947Y-84609953D01*
X130228039Y-84650500D01*
X130363090Y-84650500D01*
X130371961Y-84650500D01*
X130510053Y-84609953D01*
X130631128Y-84532143D01*
X130725377Y-84423373D01*
X130785165Y-84292457D01*
X130791269Y-84250000D01*
X132644353Y-84250000D01*
X132645615Y-84258777D01*
X132663572Y-84383677D01*
X132663573Y-84383681D01*
X132664835Y-84392457D01*
X132668519Y-84400525D01*
X132668520Y-84400526D01*
X132718045Y-84508971D01*
X132724623Y-84523373D01*
X132730430Y-84530075D01*
X132730431Y-84530076D01*
X132813065Y-84625442D01*
X132813067Y-84625444D01*
X132818872Y-84632143D01*
X132939947Y-84709953D01*
X133078039Y-84750500D01*
X133213090Y-84750500D01*
X133221961Y-84750500D01*
X133360053Y-84709953D01*
X133481128Y-84632143D01*
X133575377Y-84523373D01*
X133635165Y-84392457D01*
X133655647Y-84250000D01*
X133635165Y-84107543D01*
X133575377Y-83976627D01*
X133530961Y-83925368D01*
X133486934Y-83874557D01*
X133486932Y-83874555D01*
X133481128Y-83867857D01*
X133360053Y-83790047D01*
X133284480Y-83767857D01*
X133230473Y-83751999D01*
X133230470Y-83751998D01*
X133223664Y-83750000D01*
X136244353Y-83750000D01*
X136245615Y-83758777D01*
X136263572Y-83883677D01*
X136263573Y-83883681D01*
X136264835Y-83892457D01*
X136268519Y-83900525D01*
X136268520Y-83900526D01*
X136317393Y-84007543D01*
X136324623Y-84023373D01*
X136330430Y-84030075D01*
X136330431Y-84030076D01*
X136413065Y-84125442D01*
X136413067Y-84125444D01*
X136418872Y-84132143D01*
X136539947Y-84209953D01*
X136678039Y-84250500D01*
X136813090Y-84250500D01*
X136821961Y-84250500D01*
X136960053Y-84209953D01*
X137081128Y-84132143D01*
X137173967Y-84025000D01*
X159019750Y-84025000D01*
X159020811Y-84033059D01*
X159036206Y-84150000D01*
X159038670Y-84168709D01*
X159041781Y-84176220D01*
X159041782Y-84176223D01*
X159065324Y-84233059D01*
X159094139Y-84302625D01*
X159099084Y-84309069D01*
X159099085Y-84309071D01*
X159112115Y-84326052D01*
X159182379Y-84417621D01*
X159297375Y-84505861D01*
X159431291Y-84561330D01*
X159575000Y-84580250D01*
X159718709Y-84561330D01*
X159852625Y-84505861D01*
X159967621Y-84417621D01*
X160055861Y-84302625D01*
X160111330Y-84168709D01*
X160130250Y-84025000D01*
X160129107Y-84016322D01*
X160126889Y-83999473D01*
X160120376Y-83950000D01*
X161894750Y-83950000D01*
X161895811Y-83958059D01*
X161911045Y-84073776D01*
X161913670Y-84093709D01*
X161916781Y-84101220D01*
X161916782Y-84101223D01*
X161946254Y-84172375D01*
X161969139Y-84227625D01*
X161974084Y-84234069D01*
X161974085Y-84234071D01*
X162025078Y-84300526D01*
X162057379Y-84342621D01*
X162172375Y-84430861D01*
X162306291Y-84486330D01*
X162450000Y-84505250D01*
X162593709Y-84486330D01*
X162727625Y-84430861D01*
X162842621Y-84342621D01*
X162930861Y-84227625D01*
X162986330Y-84093709D01*
X163005250Y-83950000D01*
X162986330Y-83806291D01*
X162930861Y-83672375D01*
X162925914Y-83665928D01*
X162925913Y-83665926D01*
X162914067Y-83650489D01*
X162891380Y-83601839D01*
X162891380Y-83548161D01*
X162914067Y-83499511D01*
X162916760Y-83496001D01*
X162930861Y-83477625D01*
X162986330Y-83343709D01*
X163005250Y-83200000D01*
X162986330Y-83056291D01*
X162930861Y-82922375D01*
X162842621Y-82807379D01*
X162808357Y-82781087D01*
X162734071Y-82724085D01*
X162734069Y-82724084D01*
X162727625Y-82719139D01*
X162691592Y-82704214D01*
X162601223Y-82666782D01*
X162601220Y-82666781D01*
X162593709Y-82663670D01*
X162585649Y-82662608D01*
X162585646Y-82662608D01*
X162458059Y-82645811D01*
X162450000Y-82644750D01*
X162441941Y-82645811D01*
X162314353Y-82662608D01*
X162314348Y-82662609D01*
X162306291Y-82663670D01*
X162298781Y-82666780D01*
X162298776Y-82666782D01*
X162179885Y-82716028D01*
X162179883Y-82716029D01*
X162172375Y-82719139D01*
X162165933Y-82724082D01*
X162165928Y-82724085D01*
X162063821Y-82802435D01*
X162063817Y-82802438D01*
X162057379Y-82807379D01*
X162052438Y-82813817D01*
X162052435Y-82813821D01*
X161974085Y-82915928D01*
X161974082Y-82915933D01*
X161969139Y-82922375D01*
X161966029Y-82929883D01*
X161966028Y-82929885D01*
X161916782Y-83048776D01*
X161916780Y-83048781D01*
X161913670Y-83056291D01*
X161912609Y-83064348D01*
X161912608Y-83064353D01*
X161902161Y-83143709D01*
X161894750Y-83200000D01*
X161895811Y-83208059D01*
X161909614Y-83312906D01*
X161913670Y-83343709D01*
X161916781Y-83351220D01*
X161916782Y-83351223D01*
X161947175Y-83424598D01*
X161969139Y-83477625D01*
X161974085Y-83484071D01*
X161974087Y-83484074D01*
X161985936Y-83499516D01*
X162008619Y-83548163D01*
X162008619Y-83601837D01*
X161985936Y-83650484D01*
X161974087Y-83665925D01*
X161974083Y-83665931D01*
X161969139Y-83672375D01*
X161966028Y-83679884D01*
X161966027Y-83679887D01*
X161916782Y-83798776D01*
X161916780Y-83798781D01*
X161913670Y-83806291D01*
X161912609Y-83814348D01*
X161912608Y-83814353D01*
X161902799Y-83888864D01*
X161894750Y-83950000D01*
X160120376Y-83950000D01*
X160111330Y-83881291D01*
X160055861Y-83747375D01*
X160050913Y-83740927D01*
X160050911Y-83740923D01*
X160010291Y-83687987D01*
X159987605Y-83639339D01*
X159987605Y-83585661D01*
X160010291Y-83537013D01*
X160050911Y-83484076D01*
X160050913Y-83484073D01*
X160055861Y-83477625D01*
X160111330Y-83343709D01*
X160130250Y-83200000D01*
X160111330Y-83056291D01*
X160055861Y-82922375D01*
X159967621Y-82807379D01*
X159933357Y-82781087D01*
X159859071Y-82724085D01*
X159859069Y-82724084D01*
X159852625Y-82719139D01*
X159816592Y-82704214D01*
X159726223Y-82666782D01*
X159726220Y-82666781D01*
X159718709Y-82663670D01*
X159710649Y-82662608D01*
X159710646Y-82662608D01*
X159583059Y-82645811D01*
X159575000Y-82644750D01*
X159566941Y-82645811D01*
X159439353Y-82662608D01*
X159439348Y-82662609D01*
X159431291Y-82663670D01*
X159423781Y-82666780D01*
X159423776Y-82666782D01*
X159304885Y-82716028D01*
X159304883Y-82716029D01*
X159297375Y-82719139D01*
X159290933Y-82724082D01*
X159290928Y-82724085D01*
X159188821Y-82802435D01*
X159188817Y-82802438D01*
X159182379Y-82807379D01*
X159177438Y-82813817D01*
X159177435Y-82813821D01*
X159099085Y-82915928D01*
X159099082Y-82915933D01*
X159094139Y-82922375D01*
X159091029Y-82929883D01*
X159091028Y-82929885D01*
X159041782Y-83048776D01*
X159041780Y-83048781D01*
X159038670Y-83056291D01*
X159037609Y-83064348D01*
X159037608Y-83064353D01*
X159027161Y-83143709D01*
X159019750Y-83200000D01*
X159020811Y-83208059D01*
X159034614Y-83312906D01*
X159038670Y-83343709D01*
X159041781Y-83351220D01*
X159041782Y-83351223D01*
X159058930Y-83392621D01*
X159094139Y-83477625D01*
X159099084Y-83484070D01*
X159099088Y-83484076D01*
X159139709Y-83537014D01*
X159162394Y-83585661D01*
X159162394Y-83639339D01*
X159139709Y-83687986D01*
X159099088Y-83740923D01*
X159099082Y-83740932D01*
X159094139Y-83747375D01*
X159091029Y-83754883D01*
X159091028Y-83754885D01*
X159041782Y-83873776D01*
X159041780Y-83873781D01*
X159038670Y-83881291D01*
X159037609Y-83889348D01*
X159037608Y-83889353D01*
X159020811Y-84016941D01*
X159019750Y-84025000D01*
X137173967Y-84025000D01*
X137175377Y-84023373D01*
X137235165Y-83892457D01*
X137255647Y-83750000D01*
X137235165Y-83607543D01*
X137175377Y-83476627D01*
X137160556Y-83459523D01*
X137086934Y-83374557D01*
X137086932Y-83374555D01*
X137081128Y-83367857D01*
X136960053Y-83290047D01*
X136878251Y-83266028D01*
X136830473Y-83251999D01*
X136830470Y-83251998D01*
X136821961Y-83249500D01*
X136678039Y-83249500D01*
X136669530Y-83251998D01*
X136669526Y-83251999D01*
X136548461Y-83287547D01*
X136539947Y-83290047D01*
X136532484Y-83294842D01*
X136532484Y-83294843D01*
X136426329Y-83363064D01*
X136426325Y-83363066D01*
X136418872Y-83367857D01*
X136413070Y-83374551D01*
X136413065Y-83374557D01*
X136330431Y-83469923D01*
X136330428Y-83469927D01*
X136324623Y-83476627D01*
X136320941Y-83484689D01*
X136320938Y-83484694D01*
X136268520Y-83599473D01*
X136264835Y-83607543D01*
X136263573Y-83616316D01*
X136263572Y-83616322D01*
X136252723Y-83691782D01*
X136244353Y-83750000D01*
X133223664Y-83750000D01*
X133221961Y-83749500D01*
X133078039Y-83749500D01*
X133069530Y-83751998D01*
X133069526Y-83751999D01*
X132948461Y-83787547D01*
X132939947Y-83790047D01*
X132932484Y-83794842D01*
X132932484Y-83794843D01*
X132826329Y-83863064D01*
X132826325Y-83863066D01*
X132818872Y-83867857D01*
X132813070Y-83874551D01*
X132813065Y-83874557D01*
X132730431Y-83969923D01*
X132730428Y-83969927D01*
X132724623Y-83976627D01*
X132720941Y-83984689D01*
X132720938Y-83984694D01*
X132668520Y-84099473D01*
X132664835Y-84107543D01*
X132663573Y-84116316D01*
X132663572Y-84116322D01*
X132649106Y-84216941D01*
X132644353Y-84250000D01*
X130791269Y-84250000D01*
X130805647Y-84150000D01*
X130785165Y-84007543D01*
X130725377Y-83876627D01*
X130658980Y-83800000D01*
X130636934Y-83774557D01*
X130636932Y-83774555D01*
X130631128Y-83767857D01*
X130510053Y-83690047D01*
X130449867Y-83672375D01*
X130380473Y-83651999D01*
X130380470Y-83651998D01*
X130371961Y-83649500D01*
X130228039Y-83649500D01*
X130219530Y-83651998D01*
X130219526Y-83651999D01*
X130098461Y-83687547D01*
X130089947Y-83690047D01*
X130082484Y-83694842D01*
X130082484Y-83694843D01*
X129976329Y-83763064D01*
X129976325Y-83763066D01*
X129968872Y-83767857D01*
X129963070Y-83774551D01*
X129963065Y-83774557D01*
X129880431Y-83869923D01*
X129880428Y-83869927D01*
X129874623Y-83876627D01*
X129870941Y-83884689D01*
X129870938Y-83884694D01*
X129818520Y-83999473D01*
X129814835Y-84007543D01*
X129813573Y-84016316D01*
X129813572Y-84016322D01*
X129801366Y-84101223D01*
X129794353Y-84150000D01*
X124543982Y-84150000D01*
X124555249Y-84050000D01*
X124536313Y-83881941D01*
X124480456Y-83722310D01*
X124390477Y-83579110D01*
X124270890Y-83459523D01*
X124127690Y-83369544D01*
X124121124Y-83367246D01*
X124121121Y-83367245D01*
X123974633Y-83315987D01*
X123974630Y-83315986D01*
X123968059Y-83313687D01*
X123961142Y-83312907D01*
X123961135Y-83312906D01*
X123806923Y-83295531D01*
X123800000Y-83294751D01*
X123793077Y-83295531D01*
X123638864Y-83312906D01*
X123638855Y-83312907D01*
X123631941Y-83313687D01*
X123625371Y-83315985D01*
X123625366Y-83315987D01*
X123478878Y-83367245D01*
X123478872Y-83367247D01*
X123472310Y-83369544D01*
X123466422Y-83373243D01*
X123466417Y-83373246D01*
X123347368Y-83448050D01*
X123287191Y-83466921D01*
X123225515Y-83453751D01*
X123191008Y-83423202D01*
X123189613Y-83424598D01*
X123164038Y-83399023D01*
X123118190Y-83368388D01*
X123096057Y-83359221D01*
X123055678Y-83351189D01*
X123043602Y-83350000D01*
X122796326Y-83350000D01*
X122783450Y-83353450D01*
X122780000Y-83366326D01*
X122780000Y-84733674D01*
X122280000Y-84733674D01*
X122280000Y-84316326D01*
X122276549Y-84303450D01*
X122263674Y-84300000D01*
X121846326Y-84300000D01*
X121833450Y-84303450D01*
X121830000Y-84316326D01*
X121830000Y-84563602D01*
X120250500Y-84563602D01*
X120250500Y-83783674D01*
X121830000Y-83783674D01*
X121833450Y-83796549D01*
X121846326Y-83800000D01*
X122263674Y-83800000D01*
X122276549Y-83796549D01*
X122280000Y-83783674D01*
X122280000Y-83366326D01*
X122276549Y-83353450D01*
X122263674Y-83350000D01*
X122016398Y-83350000D01*
X122004321Y-83351189D01*
X121963942Y-83359221D01*
X121941809Y-83368388D01*
X121895961Y-83399023D01*
X121879023Y-83415961D01*
X121848388Y-83461809D01*
X121839221Y-83483942D01*
X121831189Y-83524321D01*
X121830000Y-83536398D01*
X121830000Y-83783674D01*
X120250500Y-83783674D01*
X120250500Y-82509756D01*
X120252025Y-82490368D01*
X120259639Y-82442291D01*
X120271624Y-82405406D01*
X120289237Y-82370840D01*
X120312033Y-82339464D01*
X120339464Y-82312033D01*
X120370840Y-82289237D01*
X120405406Y-82271624D01*
X120442291Y-82259639D01*
X120490368Y-82252025D01*
X120509756Y-82250500D01*
X180047539Y-82250500D01*
X180112329Y-82268773D01*
G37*
%TD.AperFunction*%
%TD*%
M02*
