%TF.GenerationSoftware,KiCad,Pcbnew,(7.0.0)*%
%TF.CreationDate,2023-05-08T01:10:33+02:00*%
%TF.ProjectId,Stacja Lutownicza V0.1,53746163-6a61-4204-9c75-746f776e6963,rev?*%
%TF.SameCoordinates,Original*%
%TF.FileFunction,Legend,Top*%
%TF.FilePolarity,Positive*%
%FSLAX46Y46*%
G04 Gerber Fmt 4.6, Leading zero omitted, Abs format (unit mm)*
G04 Created by KiCad (PCBNEW (7.0.0)) date 2023-05-08 01:10:33*
%MOMM*%
%LPD*%
G01*
G04 APERTURE LIST*
%ADD10C,0.250000*%
%ADD11C,0.150000*%
%ADD12C,0.120000*%
G04 APERTURE END LIST*
D10*
G36*
X98441678Y-83924607D02*
G01*
X98441678Y-84862500D01*
X98225218Y-84862500D01*
X98225218Y-83924607D01*
X97917777Y-83924607D01*
X97917777Y-83748752D01*
X98749118Y-83748752D01*
X98749118Y-83924607D01*
X98441678Y-83924607D01*
G37*
G36*
X98941765Y-84862500D02*
G01*
X98941765Y-84667105D01*
X99227529Y-84667105D01*
X99227529Y-83965823D01*
X98978401Y-84100462D01*
X98909708Y-83924607D01*
X99266303Y-83748752D01*
X99442158Y-83748752D01*
X99442158Y-84667105D01*
X99688538Y-84667105D01*
X99688538Y-84862500D01*
X98941765Y-84862500D01*
G37*
G36*
X99883016Y-84862500D02*
G01*
X99883016Y-84705879D01*
X100148325Y-84445455D01*
X100157558Y-84436261D01*
X100166557Y-84427227D01*
X100175323Y-84418353D01*
X100188033Y-84405342D01*
X100200217Y-84392690D01*
X100211875Y-84380397D01*
X100223007Y-84368465D01*
X100233614Y-84356891D01*
X100243694Y-84345678D01*
X100253248Y-84334824D01*
X100262277Y-84324329D01*
X100268004Y-84317533D01*
X100276293Y-84307560D01*
X100284218Y-84297790D01*
X100294217Y-84285082D01*
X100303567Y-84272737D01*
X100312268Y-84260753D01*
X100320320Y-84249133D01*
X100327724Y-84237875D01*
X100334479Y-84226979D01*
X100337613Y-84221667D01*
X100344836Y-84208570D01*
X100351238Y-84195800D01*
X100356821Y-84183358D01*
X100361584Y-84171245D01*
X100365527Y-84159459D01*
X100369176Y-84145749D01*
X100369670Y-84143510D01*
X100372367Y-84130018D01*
X100374507Y-84116333D01*
X100376088Y-84102455D01*
X100377112Y-84088383D01*
X100377577Y-84074119D01*
X100377608Y-84069321D01*
X100377111Y-84056630D01*
X100375621Y-84044201D01*
X100373137Y-84032036D01*
X100369660Y-84020134D01*
X100367227Y-84013450D01*
X100362233Y-84002061D01*
X100355416Y-83989940D01*
X100347416Y-83978772D01*
X100338233Y-83968559D01*
X100337002Y-83967349D01*
X100326565Y-83958076D01*
X100316336Y-83950775D01*
X100305085Y-83944235D01*
X100292811Y-83938454D01*
X100287238Y-83936209D01*
X100273739Y-83931688D01*
X100261517Y-83928697D01*
X100248694Y-83926522D01*
X100235271Y-83925162D01*
X100221246Y-83924618D01*
X100218850Y-83924607D01*
X100206511Y-83924840D01*
X100190318Y-83925878D01*
X100174421Y-83927746D01*
X100158819Y-83930443D01*
X100143513Y-83933971D01*
X100128504Y-83938329D01*
X100113789Y-83943516D01*
X100099371Y-83949534D01*
X100095812Y-83951168D01*
X100081783Y-83958090D01*
X100067934Y-83965575D01*
X100054267Y-83973622D01*
X100040782Y-83982233D01*
X100027477Y-83991406D01*
X100017618Y-83998656D01*
X100007860Y-84006222D01*
X99998204Y-84014105D01*
X99988651Y-84022304D01*
X99877826Y-83879117D01*
X99887018Y-83870713D01*
X99896354Y-83862521D01*
X99905833Y-83854541D01*
X99915454Y-83846774D01*
X99925219Y-83839219D01*
X99935127Y-83831876D01*
X99945179Y-83824745D01*
X99955373Y-83817827D01*
X99965710Y-83811121D01*
X99976191Y-83804627D01*
X99986814Y-83798346D01*
X99997581Y-83792277D01*
X100008491Y-83786420D01*
X100019544Y-83780776D01*
X100030740Y-83775343D01*
X100042079Y-83770123D01*
X100053586Y-83765169D01*
X100065211Y-83760535D01*
X100076952Y-83756220D01*
X100088810Y-83752225D01*
X100100784Y-83748549D01*
X100112876Y-83745193D01*
X100125085Y-83742157D01*
X100137410Y-83739440D01*
X100149852Y-83737043D01*
X100162412Y-83734966D01*
X100175088Y-83733208D01*
X100187881Y-83731770D01*
X100200790Y-83730651D01*
X100213817Y-83729852D01*
X100226961Y-83729372D01*
X100240221Y-83729213D01*
X100255540Y-83729398D01*
X100270586Y-83729953D01*
X100285357Y-83730879D01*
X100299855Y-83732175D01*
X100314080Y-83733841D01*
X100328030Y-83735878D01*
X100341707Y-83738285D01*
X100355111Y-83741062D01*
X100368240Y-83744210D01*
X100381096Y-83747728D01*
X100389515Y-83750279D01*
X100401882Y-83754348D01*
X100413911Y-83758772D01*
X100425603Y-83763550D01*
X100436956Y-83768683D01*
X100447971Y-83774169D01*
X100462132Y-83782036D01*
X100475692Y-83790532D01*
X100488650Y-83799657D01*
X100501008Y-83809413D01*
X100504003Y-83811950D01*
X100515576Y-83822497D01*
X100526481Y-83833684D01*
X100536719Y-83845509D01*
X100546288Y-83857974D01*
X100555189Y-83871079D01*
X100563423Y-83884822D01*
X100570989Y-83899205D01*
X100576225Y-83910411D01*
X100577887Y-83914227D01*
X100582579Y-83925899D01*
X100586810Y-83937904D01*
X100590579Y-83950242D01*
X100593887Y-83962913D01*
X100596733Y-83975916D01*
X100599117Y-83989253D01*
X100601040Y-84002922D01*
X100602502Y-84016923D01*
X100603502Y-84031257D01*
X100604040Y-84045925D01*
X100604143Y-84055887D01*
X100603985Y-84068289D01*
X100603510Y-84080535D01*
X100602384Y-84096620D01*
X100600695Y-84112429D01*
X100598444Y-84127962D01*
X100595629Y-84143217D01*
X100592252Y-84158196D01*
X100588311Y-84172899D01*
X100586130Y-84180146D01*
X100581369Y-84194452D01*
X100576093Y-84208673D01*
X100570302Y-84222807D01*
X100563995Y-84236856D01*
X100557174Y-84250819D01*
X100549837Y-84264696D01*
X100541985Y-84278487D01*
X100533618Y-84292192D01*
X100524816Y-84305783D01*
X100517884Y-84315983D01*
X100510666Y-84326187D01*
X100503165Y-84336397D01*
X100495379Y-84346613D01*
X100487308Y-84356834D01*
X100478953Y-84367060D01*
X100470314Y-84377291D01*
X100461390Y-84387528D01*
X100452181Y-84397771D01*
X100449049Y-84401186D01*
X100439534Y-84411484D01*
X100429768Y-84421883D01*
X100419749Y-84432385D01*
X100409478Y-84442989D01*
X100398955Y-84453694D01*
X100388180Y-84464502D01*
X100377152Y-84475411D01*
X100365873Y-84486423D01*
X100354340Y-84497536D01*
X100342556Y-84508752D01*
X100334560Y-84516285D01*
X100171528Y-84667105D01*
X100644748Y-84667105D01*
X100644748Y-84862500D01*
X99883016Y-84862500D01*
G37*
G36*
X102570298Y-84525444D02*
G01*
X102570000Y-84542351D01*
X102569106Y-84558839D01*
X102567617Y-84574909D01*
X102565532Y-84590560D01*
X102562852Y-84605792D01*
X102559575Y-84620606D01*
X102555703Y-84635001D01*
X102551235Y-84648978D01*
X102546172Y-84662536D01*
X102540513Y-84675675D01*
X102536409Y-84684202D01*
X102529816Y-84696647D01*
X102522746Y-84708678D01*
X102515197Y-84720296D01*
X102507172Y-84731500D01*
X102498668Y-84742292D01*
X102489687Y-84752670D01*
X102480228Y-84762635D01*
X102470292Y-84772187D01*
X102459878Y-84781325D01*
X102448986Y-84790051D01*
X102441460Y-84795638D01*
X102429807Y-84803628D01*
X102417746Y-84811226D01*
X102405278Y-84818433D01*
X102392401Y-84825248D01*
X102379117Y-84831671D01*
X102365425Y-84837702D01*
X102351325Y-84843341D01*
X102336817Y-84848589D01*
X102321901Y-84853445D01*
X102306578Y-84857909D01*
X102296135Y-84860668D01*
X102280256Y-84864487D01*
X102264103Y-84867931D01*
X102247677Y-84870999D01*
X102230977Y-84873691D01*
X102214003Y-84876007D01*
X102196755Y-84877948D01*
X102179234Y-84879514D01*
X102161439Y-84880703D01*
X102143370Y-84881517D01*
X102125028Y-84881955D01*
X102112648Y-84882039D01*
X102096101Y-84881958D01*
X102079661Y-84881717D01*
X102063328Y-84881314D01*
X102047103Y-84880751D01*
X102030985Y-84880026D01*
X102014975Y-84879141D01*
X101999071Y-84878094D01*
X101983275Y-84876887D01*
X101967587Y-84875518D01*
X101952006Y-84873989D01*
X101941678Y-84872880D01*
X101926238Y-84871112D01*
X101910830Y-84869130D01*
X101895455Y-84866934D01*
X101880111Y-84864522D01*
X101864800Y-84861896D01*
X101849521Y-84859055D01*
X101834275Y-84856000D01*
X101819060Y-84852730D01*
X101803878Y-84849245D01*
X101788728Y-84845546D01*
X101778646Y-84842960D01*
X101778646Y-84628026D01*
X101791035Y-84631805D01*
X101803589Y-84635510D01*
X101816306Y-84639140D01*
X101829188Y-84642695D01*
X101842233Y-84646176D01*
X101855443Y-84649582D01*
X101860772Y-84650924D01*
X101874232Y-84654196D01*
X101887707Y-84657334D01*
X101901197Y-84660338D01*
X101914701Y-84663208D01*
X101928221Y-84665943D01*
X101941755Y-84668545D01*
X101947173Y-84669548D01*
X101960714Y-84671946D01*
X101974239Y-84674181D01*
X101987750Y-84676252D01*
X102001245Y-84678158D01*
X102014726Y-84679901D01*
X102028192Y-84681480D01*
X102033574Y-84682065D01*
X102046960Y-84683384D01*
X102060211Y-84684480D01*
X102073328Y-84685352D01*
X102086311Y-84686001D01*
X102099159Y-84686426D01*
X102111874Y-84686627D01*
X102116922Y-84686645D01*
X102131605Y-84686497D01*
X102145735Y-84686053D01*
X102159312Y-84685314D01*
X102172335Y-84684279D01*
X102184804Y-84682948D01*
X102199613Y-84680868D01*
X102213558Y-84678326D01*
X102218893Y-84677180D01*
X102231680Y-84674051D01*
X102243705Y-84670579D01*
X102257133Y-84665960D01*
X102269465Y-84660848D01*
X102280703Y-84655241D01*
X102287587Y-84651229D01*
X102298506Y-84643591D01*
X102308023Y-84635368D01*
X102317182Y-84625255D01*
X102324509Y-84614378D01*
X102326055Y-84611540D01*
X102331398Y-84599652D01*
X102335214Y-84587192D01*
X102337504Y-84574159D01*
X102338267Y-84560554D01*
X102337686Y-84548090D01*
X102335453Y-84533979D01*
X102331546Y-84520792D01*
X102325965Y-84508527D01*
X102318709Y-84497186D01*
X102314453Y-84491861D01*
X102305101Y-84481679D01*
X102294675Y-84471969D01*
X102285168Y-84464238D01*
X102274914Y-84456835D01*
X102263916Y-84449759D01*
X102252172Y-84443012D01*
X102239882Y-84436438D01*
X102227056Y-84430073D01*
X102213693Y-84423916D01*
X102199793Y-84417968D01*
X102188287Y-84413360D01*
X102176437Y-84408885D01*
X102164244Y-84404544D01*
X102151922Y-84400232D01*
X102139534Y-84395843D01*
X102127078Y-84391378D01*
X102114556Y-84386837D01*
X102101967Y-84382219D01*
X102089311Y-84377525D01*
X102076589Y-84372754D01*
X102063799Y-84367908D01*
X102051077Y-84362942D01*
X102038402Y-84357814D01*
X102025775Y-84352523D01*
X102013195Y-84347071D01*
X102000663Y-84341456D01*
X101988179Y-84335679D01*
X101975743Y-84329740D01*
X101963354Y-84323639D01*
X101951228Y-84317270D01*
X101939426Y-84310530D01*
X101927949Y-84303417D01*
X101916796Y-84295932D01*
X101905967Y-84288076D01*
X101895462Y-84279847D01*
X101885283Y-84271246D01*
X101875427Y-84262273D01*
X101866039Y-84252823D01*
X101857109Y-84242943D01*
X101848637Y-84232634D01*
X101840622Y-84221896D01*
X101833066Y-84210729D01*
X101825968Y-84199132D01*
X101819327Y-84187106D01*
X101813145Y-84174651D01*
X101807635Y-84161651D01*
X101802860Y-84147994D01*
X101798820Y-84133678D01*
X101795514Y-84118704D01*
X101792942Y-84103071D01*
X101791496Y-84090915D01*
X101790463Y-84078388D01*
X101789843Y-84065491D01*
X101789637Y-84052224D01*
X101789849Y-84039978D01*
X101790791Y-84023842D01*
X101792487Y-84007926D01*
X101794936Y-83992229D01*
X101798140Y-83976752D01*
X101802097Y-83961494D01*
X101806807Y-83946455D01*
X101812272Y-83931636D01*
X101813756Y-83927965D01*
X101820210Y-83913468D01*
X101827513Y-83899439D01*
X101835666Y-83885876D01*
X101844668Y-83872782D01*
X101854518Y-83860155D01*
X101865218Y-83847995D01*
X101873801Y-83839182D01*
X101882860Y-83830632D01*
X101889166Y-83825078D01*
X101899095Y-83816993D01*
X101909534Y-83809225D01*
X101920483Y-83801773D01*
X101931941Y-83794638D01*
X101943910Y-83787820D01*
X101956388Y-83781318D01*
X101969377Y-83775133D01*
X101982875Y-83769265D01*
X101996883Y-83763713D01*
X102011400Y-83758478D01*
X102021362Y-83755163D01*
X102036824Y-83750526D01*
X102052872Y-83746344D01*
X102069504Y-83742619D01*
X102086721Y-83739350D01*
X102104523Y-83736537D01*
X102116716Y-83734915D01*
X102129169Y-83733496D01*
X102141882Y-83732279D01*
X102154855Y-83731265D01*
X102168088Y-83730454D01*
X102181581Y-83729846D01*
X102195334Y-83729441D01*
X102209347Y-83729238D01*
X102216451Y-83729213D01*
X102229141Y-83729277D01*
X102242025Y-83729470D01*
X102255102Y-83729792D01*
X102268372Y-83730243D01*
X102281835Y-83730823D01*
X102286366Y-83731045D01*
X102300061Y-83731660D01*
X102313671Y-83732361D01*
X102327195Y-83733148D01*
X102340633Y-83734021D01*
X102353985Y-83734980D01*
X102358417Y-83735319D01*
X102371716Y-83736278D01*
X102384821Y-83737322D01*
X102397733Y-83738453D01*
X102410452Y-83739669D01*
X102422978Y-83740972D01*
X102427110Y-83741425D01*
X102439386Y-83742799D01*
X102453192Y-83744402D01*
X102466442Y-83746004D01*
X102479138Y-83747607D01*
X102487866Y-83748752D01*
X102487866Y-83944146D01*
X102475596Y-83940479D01*
X102462830Y-83936959D01*
X102449567Y-83933584D01*
X102435807Y-83930355D01*
X102427721Y-83928576D01*
X102415396Y-83926007D01*
X102402920Y-83923567D01*
X102390294Y-83921256D01*
X102377518Y-83919073D01*
X102364591Y-83917020D01*
X102360249Y-83916364D01*
X102347187Y-83914400D01*
X102334103Y-83912629D01*
X102320997Y-83911051D01*
X102307870Y-83909666D01*
X102294722Y-83908475D01*
X102290334Y-83908121D01*
X102277276Y-83907083D01*
X102264431Y-83906260D01*
X102251802Y-83905652D01*
X102239387Y-83905258D01*
X102225174Y-83905071D01*
X102223168Y-83905068D01*
X102209539Y-83905215D01*
X102196435Y-83905659D01*
X102183855Y-83906398D01*
X102168869Y-83907739D01*
X102154702Y-83909541D01*
X102141356Y-83911805D01*
X102128829Y-83914532D01*
X102114772Y-83918213D01*
X102101681Y-83922389D01*
X102089556Y-83927058D01*
X102078397Y-83932220D01*
X102066599Y-83938868D01*
X102065020Y-83939872D01*
X102054844Y-83947317D01*
X102044788Y-83956719D01*
X102036411Y-83967075D01*
X102029714Y-83978386D01*
X102028995Y-83979867D01*
X102024186Y-83992098D01*
X102020751Y-84004978D01*
X102018691Y-84018507D01*
X102018014Y-84030877D01*
X102018004Y-84032684D01*
X102018830Y-84045496D01*
X102021310Y-84057600D01*
X102026291Y-84070826D01*
X102033523Y-84083087D01*
X102041512Y-84092829D01*
X102050979Y-84102046D01*
X102061519Y-84110918D01*
X102073132Y-84119448D01*
X102083630Y-84126293D01*
X102094873Y-84132900D01*
X102104405Y-84138014D01*
X102116863Y-84144244D01*
X102129813Y-84150340D01*
X102143255Y-84156301D01*
X102157189Y-84162128D01*
X102168690Y-84166694D01*
X102180506Y-84171173D01*
X102192637Y-84175566D01*
X102205040Y-84179960D01*
X102217520Y-84184439D01*
X102230075Y-84189005D01*
X102242707Y-84193656D01*
X102255415Y-84198393D01*
X102268200Y-84203216D01*
X102281061Y-84208124D01*
X102293998Y-84213119D01*
X102307002Y-84218171D01*
X102319911Y-84223404D01*
X102332724Y-84228818D01*
X102345442Y-84234414D01*
X102358064Y-84240191D01*
X102370591Y-84246149D01*
X102383023Y-84252288D01*
X102395359Y-84258609D01*
X102407561Y-84265192D01*
X102419440Y-84272119D01*
X102430994Y-84279389D01*
X102442223Y-84287002D01*
X102453128Y-84294959D01*
X102463709Y-84303260D01*
X102473965Y-84311904D01*
X102483897Y-84320891D01*
X102493423Y-84330260D01*
X102502463Y-84340049D01*
X102511016Y-84350257D01*
X102519083Y-84360886D01*
X102526663Y-84371934D01*
X102533757Y-84383402D01*
X102540364Y-84395290D01*
X102546484Y-84407597D01*
X102552065Y-84420325D01*
X102556903Y-84433624D01*
X102560996Y-84447497D01*
X102564344Y-84461941D01*
X102566949Y-84476958D01*
X102568809Y-84492548D01*
X102569926Y-84508710D01*
X102570275Y-84521207D01*
X102570298Y-84525444D01*
G37*
G36*
X103165757Y-83963941D02*
G01*
X103183512Y-83964705D01*
X103200891Y-83965980D01*
X103217894Y-83967764D01*
X103234522Y-83970059D01*
X103250774Y-83972863D01*
X103266651Y-83976177D01*
X103282151Y-83980000D01*
X103297276Y-83984334D01*
X103312026Y-83989177D01*
X103321650Y-83992690D01*
X103335812Y-83998375D01*
X103349560Y-84004554D01*
X103362895Y-84011226D01*
X103375817Y-84018392D01*
X103388326Y-84026052D01*
X103400422Y-84034206D01*
X103412104Y-84042854D01*
X103423373Y-84051995D01*
X103434229Y-84061630D01*
X103444672Y-84071759D01*
X103451404Y-84078785D01*
X103461142Y-84089731D01*
X103470434Y-84101161D01*
X103479281Y-84113073D01*
X103487683Y-84125468D01*
X103495639Y-84138346D01*
X103503149Y-84151707D01*
X103510214Y-84165552D01*
X103516834Y-84179879D01*
X103523009Y-84194689D01*
X103528738Y-84209982D01*
X103532309Y-84220446D01*
X103537329Y-84236479D01*
X103541855Y-84252979D01*
X103545887Y-84269946D01*
X103549425Y-84287379D01*
X103552470Y-84305280D01*
X103554226Y-84317473D01*
X103555762Y-84329873D01*
X103557078Y-84342481D01*
X103558175Y-84355297D01*
X103559053Y-84368320D01*
X103559712Y-84381551D01*
X103560150Y-84394989D01*
X103560370Y-84408634D01*
X103560397Y-84415535D01*
X103560283Y-84428441D01*
X103559939Y-84441209D01*
X103559367Y-84453839D01*
X103558565Y-84466330D01*
X103557535Y-84478683D01*
X103556276Y-84490897D01*
X103553957Y-84508960D01*
X103551124Y-84526711D01*
X103547775Y-84544151D01*
X103543911Y-84561279D01*
X103539532Y-84578097D01*
X103534637Y-84594603D01*
X103531088Y-84605434D01*
X103525422Y-84621362D01*
X103519299Y-84636861D01*
X103512721Y-84651931D01*
X103505686Y-84666571D01*
X103498195Y-84680782D01*
X103490248Y-84694563D01*
X103481845Y-84707916D01*
X103472985Y-84720839D01*
X103463669Y-84733332D01*
X103453898Y-84745397D01*
X103447130Y-84753201D01*
X103436606Y-84764465D01*
X103425642Y-84775247D01*
X103414237Y-84785546D01*
X103402393Y-84795361D01*
X103390109Y-84804694D01*
X103377384Y-84813544D01*
X103364220Y-84821910D01*
X103350616Y-84829794D01*
X103336571Y-84837194D01*
X103322086Y-84844112D01*
X103312185Y-84848456D01*
X103297046Y-84854457D01*
X103281510Y-84859869D01*
X103265576Y-84864690D01*
X103249245Y-84868920D01*
X103232517Y-84872561D01*
X103215392Y-84875611D01*
X103197870Y-84878071D01*
X103179951Y-84879940D01*
X103161634Y-84881219D01*
X103149203Y-84881744D01*
X103136595Y-84882006D01*
X103130225Y-84882039D01*
X103112255Y-84881789D01*
X103094640Y-84881041D01*
X103077379Y-84879793D01*
X103060472Y-84878046D01*
X103043920Y-84875800D01*
X103027721Y-84873055D01*
X103011877Y-84869811D01*
X102996387Y-84866068D01*
X102981251Y-84861825D01*
X102966470Y-84857084D01*
X102956812Y-84853646D01*
X102942705Y-84848018D01*
X102929006Y-84841896D01*
X102915714Y-84835281D01*
X102902831Y-84828172D01*
X102890355Y-84820569D01*
X102878287Y-84812473D01*
X102866627Y-84803882D01*
X102855375Y-84794798D01*
X102844531Y-84785221D01*
X102834094Y-84775149D01*
X102827363Y-84768161D01*
X102817620Y-84757264D01*
X102808312Y-84745868D01*
X102799438Y-84733972D01*
X102790999Y-84721578D01*
X102782995Y-84708685D01*
X102775425Y-84695292D01*
X102768290Y-84681401D01*
X102761590Y-84667010D01*
X102755324Y-84652120D01*
X102749493Y-84636731D01*
X102745847Y-84626195D01*
X102740773Y-84609976D01*
X102736198Y-84593265D01*
X102732122Y-84576059D01*
X102728545Y-84558360D01*
X102726438Y-84546286D01*
X102724552Y-84533993D01*
X102722889Y-84521480D01*
X102721447Y-84508748D01*
X102720227Y-84495797D01*
X102719229Y-84482626D01*
X102718452Y-84469235D01*
X102717898Y-84455625D01*
X102717565Y-84441796D01*
X102717454Y-84427747D01*
X102717500Y-84422557D01*
X102935441Y-84422557D01*
X102935656Y-84439879D01*
X102936300Y-84456660D01*
X102937373Y-84472900D01*
X102938876Y-84488598D01*
X102940808Y-84503755D01*
X102943169Y-84518370D01*
X102945960Y-84532444D01*
X102949180Y-84545976D01*
X102952829Y-84558967D01*
X102956908Y-84571416D01*
X102961416Y-84583324D01*
X102966353Y-84594691D01*
X102974564Y-84610726D01*
X102983741Y-84625542D01*
X102990396Y-84634743D01*
X103001054Y-84647510D01*
X103012420Y-84659022D01*
X103024495Y-84669278D01*
X103037279Y-84678277D01*
X103050770Y-84686022D01*
X103064971Y-84692510D01*
X103079879Y-84697742D01*
X103095496Y-84701719D01*
X103111822Y-84704440D01*
X103128855Y-84705905D01*
X103140605Y-84706184D01*
X103153513Y-84705845D01*
X103165983Y-84704829D01*
X103180953Y-84702607D01*
X103195238Y-84699325D01*
X103208836Y-84694986D01*
X103221749Y-84689588D01*
X103231585Y-84684508D01*
X103243337Y-84677324D01*
X103254358Y-84669320D01*
X103264648Y-84660496D01*
X103274209Y-84650853D01*
X103283038Y-84640389D01*
X103291137Y-84629106D01*
X103294173Y-84624363D01*
X103301412Y-84611918D01*
X103308054Y-84598817D01*
X103314101Y-84585061D01*
X103318509Y-84573583D01*
X103322535Y-84561686D01*
X103326179Y-84549369D01*
X103329442Y-84536632D01*
X103330198Y-84533382D01*
X103333061Y-84520135D01*
X103335541Y-84506649D01*
X103337640Y-84492925D01*
X103339357Y-84478962D01*
X103340693Y-84464761D01*
X103341647Y-84450321D01*
X103342220Y-84435642D01*
X103342411Y-84420725D01*
X103342210Y-84403480D01*
X103341609Y-84386779D01*
X103340607Y-84370622D01*
X103339205Y-84355009D01*
X103337402Y-84339939D01*
X103335198Y-84325413D01*
X103332593Y-84311431D01*
X103329588Y-84297993D01*
X103326182Y-84285099D01*
X103322375Y-84272748D01*
X103318168Y-84260942D01*
X103311105Y-84244251D01*
X103303141Y-84228785D01*
X103294275Y-84214542D01*
X103291120Y-84210066D01*
X103281133Y-84197462D01*
X103270293Y-84186098D01*
X103258600Y-84175974D01*
X103246054Y-84167090D01*
X103232654Y-84159445D01*
X103218401Y-84153040D01*
X103203295Y-84147874D01*
X103187335Y-84143948D01*
X103170523Y-84141262D01*
X103152856Y-84139816D01*
X103140605Y-84139541D01*
X103127119Y-84139889D01*
X103114139Y-84140934D01*
X103101664Y-84142675D01*
X103089696Y-84145112D01*
X103075446Y-84149139D01*
X103061986Y-84154254D01*
X103049316Y-84160457D01*
X103046877Y-84161828D01*
X103035183Y-84169107D01*
X103024146Y-84177206D01*
X103013764Y-84186125D01*
X103004039Y-84195864D01*
X102994969Y-84206423D01*
X102986555Y-84217802D01*
X102983374Y-84222583D01*
X102975966Y-84234925D01*
X102969200Y-84247908D01*
X102963074Y-84261532D01*
X102957590Y-84275797D01*
X102953664Y-84287670D01*
X102950148Y-84299954D01*
X102947042Y-84312648D01*
X102944323Y-84325585D01*
X102941967Y-84338751D01*
X102939973Y-84352146D01*
X102938341Y-84365771D01*
X102937072Y-84379624D01*
X102936166Y-84393706D01*
X102935622Y-84408017D01*
X102935441Y-84422557D01*
X102717500Y-84422557D01*
X102717570Y-84414731D01*
X102717917Y-84401863D01*
X102718495Y-84389143D01*
X102719305Y-84376571D01*
X102720346Y-84364146D01*
X102721619Y-84351870D01*
X102723123Y-84339741D01*
X102725812Y-84321825D01*
X102729022Y-84304242D01*
X102732753Y-84286992D01*
X102737004Y-84270075D01*
X102741776Y-84253490D01*
X102747069Y-84237238D01*
X102752847Y-84221375D01*
X102759076Y-84205957D01*
X102765755Y-84190985D01*
X102772886Y-84176459D01*
X102780467Y-84162377D01*
X102788499Y-84148742D01*
X102796982Y-84135551D01*
X102805916Y-84122806D01*
X102815300Y-84110507D01*
X102825136Y-84098653D01*
X102831943Y-84090997D01*
X102842573Y-84079847D01*
X102853628Y-84069180D01*
X102865106Y-84058996D01*
X102877009Y-84049295D01*
X102889335Y-84040077D01*
X102902085Y-84031342D01*
X102915260Y-84023089D01*
X102928858Y-84015320D01*
X102942880Y-84008034D01*
X102957326Y-84001231D01*
X102967192Y-83996964D01*
X102982370Y-83991017D01*
X102997908Y-83985655D01*
X103013805Y-83980877D01*
X103030061Y-83976685D01*
X103046677Y-83973078D01*
X103063653Y-83970055D01*
X103080988Y-83967618D01*
X103098683Y-83965766D01*
X103116737Y-83964498D01*
X103128973Y-83963978D01*
X103141369Y-83963718D01*
X103147627Y-83963686D01*
X103165757Y-83963941D01*
G37*
G36*
X104017437Y-83807370D02*
G01*
X103771057Y-83807370D01*
X103771057Y-83651055D01*
X104232370Y-83651055D01*
X104232370Y-84706184D01*
X104483941Y-84706184D01*
X104483941Y-84862500D01*
X103741137Y-84862500D01*
X103741137Y-84706184D01*
X104017437Y-84706184D01*
X104017437Y-83807370D01*
G37*
G36*
X105427023Y-84862500D02*
G01*
X105245673Y-84862500D01*
X105240483Y-84733967D01*
X105231851Y-84744224D01*
X105223131Y-84754199D01*
X105214320Y-84763890D01*
X105205421Y-84773298D01*
X105196431Y-84782423D01*
X105187353Y-84791265D01*
X105183696Y-84794722D01*
X105174521Y-84803108D01*
X105165122Y-84811090D01*
X105155499Y-84818671D01*
X105143657Y-84827236D01*
X105131492Y-84835222D01*
X105121109Y-84841434D01*
X105108447Y-84848346D01*
X105095421Y-84854657D01*
X105082029Y-84860367D01*
X105070591Y-84864666D01*
X105058899Y-84868548D01*
X105049363Y-84871353D01*
X105037236Y-84874432D01*
X105024706Y-84876988D01*
X105011774Y-84879023D01*
X104998439Y-84880536D01*
X104984702Y-84881528D01*
X104970562Y-84881997D01*
X104964794Y-84882039D01*
X104950461Y-84881765D01*
X104936429Y-84880944D01*
X104922698Y-84879576D01*
X104909267Y-84877660D01*
X104896136Y-84875196D01*
X104883306Y-84872186D01*
X104870777Y-84868628D01*
X104858548Y-84864522D01*
X104846620Y-84859869D01*
X104834992Y-84854669D01*
X104827407Y-84850898D01*
X104816353Y-84844771D01*
X104805633Y-84838183D01*
X104795245Y-84831133D01*
X104785189Y-84823621D01*
X104775467Y-84815648D01*
X104766077Y-84807213D01*
X104757020Y-84798317D01*
X104748295Y-84788960D01*
X104739904Y-84779140D01*
X104731845Y-84768860D01*
X104726657Y-84761749D01*
X104719210Y-84750713D01*
X104712095Y-84739242D01*
X104705314Y-84727336D01*
X104698865Y-84714995D01*
X104692748Y-84702220D01*
X104686965Y-84689010D01*
X104681514Y-84675365D01*
X104676396Y-84661285D01*
X104671611Y-84646771D01*
X104667158Y-84631822D01*
X104664375Y-84621615D01*
X104660556Y-84605935D01*
X104657112Y-84589923D01*
X104654044Y-84573578D01*
X104651352Y-84556900D01*
X104649035Y-84539890D01*
X104647094Y-84522546D01*
X104645529Y-84504870D01*
X104644339Y-84486862D01*
X104643525Y-84468520D01*
X104643192Y-84456108D01*
X104643025Y-84443547D01*
X104643004Y-84437212D01*
X104643106Y-84425610D01*
X104862822Y-84425610D01*
X104862908Y-84439499D01*
X104863166Y-84453002D01*
X104863595Y-84466118D01*
X104864196Y-84478847D01*
X104864969Y-84491191D01*
X104866266Y-84507047D01*
X104867869Y-84522217D01*
X104869777Y-84536700D01*
X104871991Y-84550496D01*
X104872592Y-84553838D01*
X104875254Y-84566823D01*
X104878202Y-84579216D01*
X104881436Y-84591018D01*
X104885882Y-84604938D01*
X104890774Y-84617935D01*
X104896114Y-84630007D01*
X104901901Y-84641154D01*
X104909436Y-84653219D01*
X104917615Y-84663995D01*
X104926437Y-84673483D01*
X104935904Y-84681683D01*
X104946015Y-84688596D01*
X104949528Y-84690614D01*
X104962316Y-84696681D01*
X104973858Y-84700695D01*
X104985936Y-84703614D01*
X104998551Y-84705439D01*
X105011703Y-84706169D01*
X105013948Y-84706184D01*
X105027147Y-84705488D01*
X105040185Y-84703398D01*
X105053060Y-84699916D01*
X105065773Y-84695040D01*
X105078324Y-84688772D01*
X105090712Y-84681111D01*
X105102939Y-84672057D01*
X105115003Y-84661610D01*
X105124099Y-84652908D01*
X105133296Y-84643631D01*
X105142596Y-84633781D01*
X105151997Y-84623356D01*
X105161501Y-84612357D01*
X105171106Y-84600784D01*
X105180813Y-84588637D01*
X105190623Y-84575915D01*
X105200534Y-84562619D01*
X105210547Y-84548749D01*
X105217280Y-84539183D01*
X105217280Y-84142288D01*
X105204056Y-84137633D01*
X105191327Y-84133934D01*
X105177517Y-84130587D01*
X105164820Y-84127996D01*
X105155914Y-84126413D01*
X105142268Y-84124234D01*
X105128579Y-84122506D01*
X105114848Y-84121228D01*
X105101074Y-84120402D01*
X105087256Y-84120026D01*
X105082641Y-84120001D01*
X105070133Y-84120335D01*
X105057949Y-84121337D01*
X105043176Y-84123528D01*
X105028910Y-84126763D01*
X105015150Y-84131042D01*
X105001898Y-84136364D01*
X104991660Y-84141372D01*
X104979342Y-84148491D01*
X104967576Y-84156489D01*
X104956361Y-84165366D01*
X104945698Y-84175123D01*
X104935586Y-84185759D01*
X104926026Y-84197275D01*
X104922356Y-84202128D01*
X104915387Y-84212246D01*
X104908828Y-84222908D01*
X104902679Y-84234113D01*
X104896940Y-84245863D01*
X104891611Y-84258156D01*
X104886693Y-84270993D01*
X104882185Y-84284374D01*
X104878087Y-84298299D01*
X104874510Y-84312710D01*
X104871409Y-84327550D01*
X104868785Y-84342820D01*
X104866639Y-84358520D01*
X104864969Y-84374648D01*
X104864030Y-84387026D01*
X104863359Y-84399646D01*
X104862956Y-84412507D01*
X104862822Y-84425610D01*
X104643106Y-84425610D01*
X104643136Y-84422149D01*
X104643533Y-84407340D01*
X104644195Y-84392783D01*
X104645122Y-84378479D01*
X104646313Y-84364428D01*
X104647769Y-84350629D01*
X104649490Y-84337084D01*
X104651476Y-84323791D01*
X104653726Y-84310752D01*
X104656241Y-84297965D01*
X104659021Y-84285430D01*
X104662066Y-84273149D01*
X104665376Y-84261121D01*
X104668950Y-84249345D01*
X104674807Y-84232156D01*
X104676892Y-84226552D01*
X104683477Y-84210105D01*
X104690524Y-84194195D01*
X104698032Y-84178821D01*
X104706001Y-84163984D01*
X104714432Y-84149684D01*
X104723325Y-84135920D01*
X104732679Y-84122693D01*
X104742494Y-84110003D01*
X104752772Y-84097849D01*
X104763510Y-84086232D01*
X104770926Y-84078785D01*
X104782399Y-84068063D01*
X104794264Y-84057877D01*
X104806520Y-84048227D01*
X104819169Y-84039115D01*
X104832209Y-84030539D01*
X104845641Y-84022500D01*
X104859464Y-84014997D01*
X104873680Y-84008031D01*
X104888287Y-84001602D01*
X104903286Y-83995709D01*
X104913503Y-83992079D01*
X104929085Y-83987005D01*
X104944919Y-83982430D01*
X104961006Y-83978354D01*
X104977344Y-83974777D01*
X104993936Y-83971699D01*
X105010779Y-83969120D01*
X105027874Y-83967041D01*
X105045222Y-83965460D01*
X105062822Y-83964379D01*
X105080674Y-83963797D01*
X105092716Y-83963686D01*
X105104977Y-83963836D01*
X105117259Y-83964287D01*
X105129563Y-83965038D01*
X105141889Y-83966090D01*
X105154236Y-83967442D01*
X105158356Y-83967960D01*
X105170567Y-83969649D01*
X105184135Y-83971836D01*
X105196972Y-83974257D01*
X105209079Y-83976912D01*
X105217280Y-83978951D01*
X105217280Y-83651055D01*
X105427023Y-83651055D01*
X105427023Y-84862500D01*
G37*
G36*
X106053926Y-83963938D02*
G01*
X106070757Y-83964695D01*
X106087207Y-83965956D01*
X106103275Y-83967722D01*
X106118963Y-83969992D01*
X106134270Y-83972766D01*
X106149195Y-83976045D01*
X106163740Y-83979829D01*
X106177903Y-83984117D01*
X106191686Y-83988909D01*
X106200662Y-83992384D01*
X106213851Y-83997967D01*
X106226626Y-84003951D01*
X106238988Y-84010339D01*
X106250937Y-84017128D01*
X106262473Y-84024320D01*
X106273595Y-84031915D01*
X106284305Y-84039912D01*
X106294601Y-84048312D01*
X106304483Y-84057114D01*
X106313953Y-84066319D01*
X106320036Y-84072679D01*
X106328874Y-84082525D01*
X106337299Y-84092715D01*
X106345310Y-84103248D01*
X106352909Y-84114124D01*
X106360094Y-84125344D01*
X106366866Y-84136907D01*
X106373224Y-84148814D01*
X106379170Y-84161065D01*
X106384702Y-84173658D01*
X106389821Y-84186596D01*
X106393004Y-84195411D01*
X106397478Y-84208870D01*
X106401512Y-84222570D01*
X106405106Y-84236512D01*
X106408259Y-84250695D01*
X106410973Y-84265120D01*
X106413247Y-84279786D01*
X106415080Y-84294694D01*
X106416474Y-84309843D01*
X106417427Y-84325234D01*
X106417941Y-84340866D01*
X106418039Y-84351421D01*
X106417942Y-84364629D01*
X106417694Y-84378072D01*
X106417352Y-84391149D01*
X106416892Y-84405454D01*
X106416817Y-84407597D01*
X106416306Y-84420270D01*
X106415687Y-84432642D01*
X106414829Y-84446696D01*
X106413825Y-84460341D01*
X106412848Y-84471711D01*
X105839183Y-84471711D01*
X105839455Y-84485846D01*
X105840271Y-84499551D01*
X105841630Y-84512827D01*
X105843534Y-84525673D01*
X105845981Y-84538091D01*
X105848972Y-84550079D01*
X105853475Y-84564460D01*
X105856585Y-84572766D01*
X105862469Y-84586067D01*
X105869054Y-84598681D01*
X105876339Y-84610610D01*
X105884325Y-84621854D01*
X105893012Y-84632411D01*
X105902399Y-84642283D01*
X105906350Y-84646039D01*
X105916776Y-84654863D01*
X105927828Y-84663016D01*
X105939507Y-84670498D01*
X105951811Y-84677309D01*
X105964742Y-84683449D01*
X105978299Y-84688919D01*
X105983897Y-84690919D01*
X105998256Y-84695317D01*
X106013092Y-84698969D01*
X106025304Y-84701354D01*
X106037821Y-84703262D01*
X106050644Y-84704693D01*
X106063772Y-84705647D01*
X106077205Y-84706124D01*
X106084036Y-84706184D01*
X106100051Y-84706041D01*
X106116341Y-84705612D01*
X106128741Y-84705102D01*
X106141296Y-84704431D01*
X106154007Y-84703599D01*
X106166874Y-84702606D01*
X106179896Y-84701452D01*
X106193074Y-84700138D01*
X106206407Y-84698662D01*
X106219897Y-84697025D01*
X106233569Y-84695206D01*
X106247338Y-84693182D01*
X106261204Y-84690955D01*
X106275166Y-84688524D01*
X106289225Y-84685889D01*
X106303380Y-84683050D01*
X106317632Y-84680007D01*
X106331981Y-84676760D01*
X106346426Y-84673310D01*
X106360968Y-84669655D01*
X106370717Y-84667105D01*
X106370717Y-84842960D01*
X106357919Y-84846112D01*
X106344713Y-84849157D01*
X106331100Y-84852094D01*
X106317079Y-84854924D01*
X106302649Y-84857647D01*
X106297749Y-84858531D01*
X106285397Y-84860688D01*
X106272955Y-84862770D01*
X106260424Y-84864778D01*
X106247803Y-84866712D01*
X106235093Y-84868571D01*
X106222294Y-84870355D01*
X106217149Y-84871048D01*
X106204246Y-84872698D01*
X106191299Y-84874214D01*
X106178308Y-84875596D01*
X106165271Y-84876844D01*
X106152190Y-84877958D01*
X106139064Y-84878937D01*
X106133801Y-84879291D01*
X106120702Y-84880083D01*
X106107737Y-84880740D01*
X106094906Y-84881263D01*
X106082209Y-84881653D01*
X106069647Y-84881907D01*
X106057219Y-84882028D01*
X106052285Y-84882039D01*
X106039924Y-84881928D01*
X106021682Y-84881346D01*
X106003799Y-84880264D01*
X105986276Y-84878684D01*
X105969112Y-84876604D01*
X105952308Y-84874026D01*
X105935864Y-84870948D01*
X105919779Y-84867371D01*
X105904054Y-84863295D01*
X105888688Y-84858720D01*
X105873682Y-84853646D01*
X105859068Y-84848026D01*
X105844878Y-84841928D01*
X105831111Y-84835353D01*
X105817769Y-84828301D01*
X105804850Y-84820770D01*
X105792356Y-84812762D01*
X105780285Y-84804277D01*
X105768639Y-84795314D01*
X105757416Y-84785873D01*
X105746618Y-84775954D01*
X105739654Y-84769077D01*
X105729575Y-84758370D01*
X105719948Y-84747202D01*
X105710771Y-84735573D01*
X105702044Y-84723481D01*
X105693769Y-84710929D01*
X105685944Y-84697915D01*
X105678571Y-84684439D01*
X105671648Y-84670502D01*
X105665176Y-84656103D01*
X105659154Y-84641243D01*
X105655390Y-84631079D01*
X105650207Y-84615398D01*
X105645534Y-84599266D01*
X105641370Y-84582683D01*
X105637716Y-84565649D01*
X105634572Y-84548164D01*
X105631938Y-84530229D01*
X105630465Y-84518022D01*
X105629219Y-84505614D01*
X105628199Y-84493006D01*
X105627406Y-84480197D01*
X105626840Y-84467189D01*
X105626500Y-84453979D01*
X105626386Y-84440570D01*
X105626500Y-84427250D01*
X105626840Y-84414080D01*
X105627406Y-84401061D01*
X105628199Y-84388191D01*
X105629219Y-84375472D01*
X105630465Y-84362904D01*
X105631938Y-84350485D01*
X105633637Y-84338217D01*
X105635563Y-84326099D01*
X105637545Y-84315396D01*
X105842847Y-84315396D01*
X106205242Y-84315396D01*
X106205170Y-84303155D01*
X106204450Y-84288417D01*
X106203030Y-84274306D01*
X106200908Y-84260821D01*
X106198086Y-84247962D01*
X106194564Y-84235729D01*
X106192114Y-84228689D01*
X106186712Y-84215183D01*
X106180579Y-84202600D01*
X106173717Y-84190940D01*
X106166125Y-84180203D01*
X106157803Y-84170389D01*
X106154867Y-84167323D01*
X106145772Y-84158719D01*
X106136119Y-84150994D01*
X106125908Y-84144150D01*
X106115139Y-84138186D01*
X106103812Y-84133102D01*
X106099912Y-84131603D01*
X106088063Y-84127660D01*
X106075870Y-84124533D01*
X106063333Y-84122222D01*
X106050453Y-84120726D01*
X106037230Y-84120047D01*
X106032745Y-84120001D01*
X106018169Y-84120452D01*
X106004091Y-84121804D01*
X105990513Y-84124058D01*
X105977433Y-84127214D01*
X105964853Y-84131271D01*
X105952771Y-84136230D01*
X105941189Y-84142090D01*
X105930106Y-84148852D01*
X105919522Y-84156516D01*
X105909437Y-84165081D01*
X105902991Y-84171292D01*
X105893851Y-84181222D01*
X105885435Y-84191893D01*
X105877744Y-84203304D01*
X105870777Y-84215456D01*
X105864535Y-84228349D01*
X105859017Y-84241982D01*
X105854224Y-84256356D01*
X105850155Y-84271470D01*
X105846811Y-84287325D01*
X105844191Y-84303920D01*
X105842847Y-84315396D01*
X105637545Y-84315396D01*
X105638877Y-84308204D01*
X105642701Y-84290647D01*
X105647035Y-84273428D01*
X105651878Y-84256547D01*
X105655390Y-84245481D01*
X105661095Y-84229217D01*
X105667218Y-84213399D01*
X105673760Y-84198026D01*
X105680721Y-84183099D01*
X105688100Y-84168617D01*
X105695898Y-84154580D01*
X105704114Y-84140989D01*
X105712749Y-84127844D01*
X105721803Y-84115144D01*
X105731275Y-84102889D01*
X105737822Y-84094966D01*
X105748039Y-84083426D01*
X105758652Y-84072391D01*
X105769663Y-84061859D01*
X105781070Y-84051833D01*
X105792875Y-84042310D01*
X105805077Y-84033293D01*
X105817676Y-84024779D01*
X105830673Y-84016770D01*
X105844066Y-84009266D01*
X105857857Y-84002266D01*
X105867271Y-83997880D01*
X105881678Y-83991769D01*
X105896390Y-83986259D01*
X105911409Y-83981350D01*
X105926734Y-83977043D01*
X105942364Y-83973336D01*
X105958300Y-83970231D01*
X105974543Y-83967726D01*
X105991091Y-83965823D01*
X106007945Y-83964521D01*
X106025105Y-83963819D01*
X106036714Y-83963686D01*
X106053926Y-83963938D01*
G37*
G36*
X107180687Y-84315396D02*
G01*
X107181051Y-84301046D01*
X107180997Y-84287382D01*
X107180526Y-84274403D01*
X107179637Y-84262111D01*
X107178020Y-84248265D01*
X107175802Y-84235406D01*
X107173129Y-84223449D01*
X107169333Y-84210530D01*
X107164806Y-84198722D01*
X107158738Y-84186586D01*
X107155347Y-84181062D01*
X107147905Y-84170968D01*
X107138529Y-84161391D01*
X107128091Y-84153698D01*
X107120542Y-84149616D01*
X107108529Y-84144745D01*
X107095501Y-84141469D01*
X107083070Y-84139895D01*
X107073220Y-84139541D01*
X107058732Y-84140539D01*
X107044079Y-84143536D01*
X107032239Y-84147371D01*
X107020294Y-84152485D01*
X107008244Y-84158877D01*
X106996089Y-84166548D01*
X106983829Y-84175497D01*
X106977660Y-84180451D01*
X106968301Y-84188589D01*
X106958769Y-84197660D01*
X106949066Y-84207666D01*
X106939192Y-84218605D01*
X106929145Y-84230478D01*
X106918927Y-84243284D01*
X106908537Y-84257025D01*
X106897976Y-84271699D01*
X106890839Y-84282001D01*
X106883627Y-84292717D01*
X106876337Y-84303849D01*
X106868972Y-84315396D01*
X106868972Y-84862500D01*
X106654344Y-84862500D01*
X106654344Y-83983225D01*
X106844242Y-83983225D01*
X106851875Y-84120001D01*
X106858688Y-84109017D01*
X106865769Y-84098391D01*
X106873118Y-84088123D01*
X106880736Y-84078213D01*
X106888622Y-84068660D01*
X106896776Y-84059465D01*
X106900113Y-84055887D01*
X106908746Y-84047113D01*
X106917662Y-84038726D01*
X106928735Y-84029173D01*
X106940216Y-84020179D01*
X106952105Y-84011743D01*
X106960258Y-84006428D01*
X106970829Y-84000179D01*
X106981742Y-83994407D01*
X106992999Y-83989112D01*
X107004598Y-83984294D01*
X107016541Y-83979953D01*
X107028826Y-83976089D01*
X107033836Y-83974677D01*
X107046623Y-83971510D01*
X107059799Y-83968881D01*
X107073361Y-83966788D01*
X107087312Y-83965231D01*
X107101650Y-83964212D01*
X107116375Y-83963729D01*
X107122374Y-83963686D01*
X107134607Y-83963882D01*
X107150509Y-83964752D01*
X107165944Y-83966319D01*
X107180911Y-83968583D01*
X107195410Y-83971543D01*
X107209442Y-83975199D01*
X107223007Y-83979552D01*
X107236104Y-83984602D01*
X107239305Y-83985973D01*
X107251870Y-83991883D01*
X107263920Y-83998471D01*
X107275455Y-84005737D01*
X107286475Y-84013679D01*
X107296979Y-84022299D01*
X107306968Y-84031597D01*
X107316442Y-84041572D01*
X107325401Y-84052224D01*
X107333820Y-84063563D01*
X107341677Y-84075599D01*
X107348971Y-84088331D01*
X107355702Y-84101759D01*
X107361870Y-84115884D01*
X107367475Y-84130706D01*
X107372518Y-84146224D01*
X107375930Y-84158320D01*
X107376997Y-84162438D01*
X107379974Y-84174988D01*
X107382607Y-84187909D01*
X107384897Y-84201199D01*
X107386843Y-84214860D01*
X107388446Y-84228891D01*
X107389705Y-84243293D01*
X107390621Y-84258064D01*
X107391194Y-84273206D01*
X107391423Y-84288719D01*
X107391308Y-84304601D01*
X107391041Y-84315396D01*
X107180687Y-84315396D01*
G37*
G36*
X108093850Y-83749057D02*
G01*
X108093353Y-83761319D01*
X108091569Y-83774938D01*
X108088487Y-83788138D01*
X108084108Y-83800918D01*
X108083469Y-83802486D01*
X108077898Y-83814469D01*
X108071257Y-83825689D01*
X108063548Y-83836145D01*
X108054771Y-83845839D01*
X108045192Y-83854521D01*
X108034774Y-83862249D01*
X108023516Y-83869023D01*
X108011418Y-83874842D01*
X107998767Y-83879517D01*
X107985543Y-83882857D01*
X107971747Y-83884860D01*
X107959206Y-83885518D01*
X107957379Y-83885528D01*
X107944746Y-83885017D01*
X107932493Y-83883483D01*
X107918955Y-83880477D01*
X107905913Y-83876136D01*
X107902730Y-83874842D01*
X107890479Y-83869023D01*
X107879069Y-83862249D01*
X107868498Y-83854521D01*
X107858766Y-83845839D01*
X107850103Y-83836145D01*
X107842432Y-83825689D01*
X107835754Y-83814469D01*
X107830068Y-83802486D01*
X107825660Y-83789758D01*
X107822511Y-83776611D01*
X107820622Y-83763044D01*
X107820002Y-83750829D01*
X107819993Y-83749057D01*
X107820622Y-83735223D01*
X107822511Y-83721809D01*
X107825660Y-83708815D01*
X107830068Y-83696240D01*
X107835754Y-83684104D01*
X107842432Y-83672732D01*
X107850103Y-83662122D01*
X107858766Y-83652276D01*
X107868498Y-83643327D01*
X107879069Y-83635408D01*
X107890479Y-83628520D01*
X107902730Y-83622662D01*
X107915648Y-83617987D01*
X107929062Y-83614648D01*
X107941207Y-83612821D01*
X107953731Y-83612018D01*
X107957379Y-83611976D01*
X107969983Y-83612487D01*
X107982148Y-83614021D01*
X107995515Y-83617027D01*
X108008309Y-83621368D01*
X108011418Y-83622662D01*
X108023516Y-83628520D01*
X108034774Y-83635408D01*
X108045192Y-83643327D01*
X108054771Y-83652276D01*
X108063548Y-83662122D01*
X108071257Y-83672732D01*
X108077898Y-83684104D01*
X108083469Y-83696240D01*
X108088011Y-83708815D01*
X108091255Y-83721809D01*
X108093201Y-83735223D01*
X108093850Y-83749057D01*
G37*
G36*
X107861819Y-84139541D02*
G01*
X107615439Y-84139541D01*
X107615439Y-83983225D01*
X108076753Y-83983225D01*
X108076753Y-84706184D01*
X108328323Y-84706184D01*
X108328323Y-84862500D01*
X107585519Y-84862500D01*
X107585519Y-84706184D01*
X107861819Y-84706184D01*
X107861819Y-84139541D01*
G37*
G36*
X109061662Y-84862500D02*
G01*
X109061662Y-84285170D01*
X109061246Y-84267536D01*
X109059997Y-84251038D01*
X109057916Y-84235679D01*
X109055003Y-84221457D01*
X109051257Y-84208374D01*
X109046678Y-84196427D01*
X109038250Y-84180641D01*
X109027949Y-84167415D01*
X109015774Y-84156749D01*
X109001727Y-84148643D01*
X108985807Y-84143096D01*
X108968014Y-84140110D01*
X108955111Y-84139541D01*
X108941902Y-84140223D01*
X108928836Y-84142269D01*
X108915913Y-84145680D01*
X108903133Y-84150455D01*
X108890497Y-84156595D01*
X108878003Y-84164099D01*
X108865652Y-84172967D01*
X108853445Y-84183199D01*
X108844295Y-84191659D01*
X108835048Y-84200666D01*
X108825705Y-84210220D01*
X108816265Y-84220322D01*
X108806728Y-84230971D01*
X108797095Y-84242168D01*
X108787365Y-84253912D01*
X108777539Y-84266203D01*
X108767616Y-84279042D01*
X108757596Y-84292429D01*
X108750863Y-84301657D01*
X108750863Y-84862500D01*
X108541425Y-84862500D01*
X108541425Y-83983225D01*
X108722470Y-83983225D01*
X108727660Y-84112979D01*
X108736013Y-84102538D01*
X108744470Y-84092395D01*
X108753031Y-84082550D01*
X108761697Y-84073004D01*
X108770467Y-84063755D01*
X108779341Y-84054805D01*
X108782920Y-84051308D01*
X108792088Y-84042827D01*
X108801465Y-84034749D01*
X108811050Y-84027073D01*
X108822828Y-84018393D01*
X108834907Y-84010293D01*
X108845202Y-84003986D01*
X108857967Y-83996981D01*
X108871076Y-83990619D01*
X108884529Y-83984902D01*
X108896002Y-83980630D01*
X108907713Y-83976804D01*
X108917254Y-83974066D01*
X108929601Y-83971076D01*
X108942411Y-83968592D01*
X108955683Y-83966615D01*
X108969417Y-83965146D01*
X108983614Y-83964183D01*
X108998272Y-83963726D01*
X109004265Y-83963686D01*
X109016651Y-83963882D01*
X109032699Y-83964752D01*
X109048212Y-83966319D01*
X109063191Y-83968583D01*
X109077636Y-83971543D01*
X109091546Y-83975199D01*
X109104922Y-83979552D01*
X109117764Y-83984602D01*
X109120891Y-83985973D01*
X109133146Y-83991755D01*
X109144876Y-83998109D01*
X109156082Y-84005035D01*
X109166763Y-84012534D01*
X109176919Y-84020606D01*
X109186550Y-84029250D01*
X109195657Y-84038466D01*
X109204239Y-84048255D01*
X109212372Y-84058516D01*
X109219981Y-84069302D01*
X109227065Y-84080612D01*
X109233624Y-84092448D01*
X109239659Y-84104808D01*
X109245169Y-84117692D01*
X109250154Y-84131102D01*
X109254614Y-84145036D01*
X109258549Y-84159443D01*
X109261960Y-84174269D01*
X109264846Y-84189515D01*
X109267208Y-84205181D01*
X109269044Y-84221267D01*
X109270077Y-84233606D01*
X109270815Y-84246182D01*
X109271258Y-84258994D01*
X109271406Y-84272042D01*
X109271406Y-84862500D01*
X109061662Y-84862500D01*
G37*
G36*
X109867338Y-83963847D02*
G01*
X109881474Y-83964330D01*
X109895416Y-83965135D01*
X109909166Y-83966262D01*
X109922722Y-83967711D01*
X109927198Y-83968265D01*
X109940357Y-83970094D01*
X109953044Y-83972373D01*
X109965258Y-83975103D01*
X109978911Y-83978857D01*
X109991922Y-83983225D01*
X110294173Y-83983225D01*
X110294173Y-84139541D01*
X110156786Y-84139541D01*
X110165326Y-84150650D01*
X110172857Y-84161995D01*
X110179380Y-84173576D01*
X110184893Y-84185393D01*
X110189397Y-84197447D01*
X110190675Y-84201517D01*
X110194099Y-84213696D01*
X110196814Y-84225961D01*
X110198821Y-84238311D01*
X110200120Y-84250747D01*
X110200710Y-84263270D01*
X110200750Y-84267463D01*
X110200527Y-84281163D01*
X110199859Y-84294557D01*
X110198745Y-84307646D01*
X110197186Y-84320428D01*
X110195182Y-84332905D01*
X110192732Y-84345076D01*
X110189837Y-84356940D01*
X110185283Y-84372284D01*
X110179938Y-84387084D01*
X110175409Y-84397827D01*
X110168750Y-84411590D01*
X110161442Y-84424790D01*
X110153485Y-84437426D01*
X110144879Y-84449500D01*
X110135625Y-84461011D01*
X110125721Y-84471959D01*
X110115169Y-84482344D01*
X110103968Y-84492166D01*
X110092233Y-84501416D01*
X110079926Y-84510084D01*
X110067046Y-84518170D01*
X110053593Y-84525673D01*
X110039568Y-84532595D01*
X110024971Y-84538935D01*
X110009801Y-84544693D01*
X109998048Y-84548629D01*
X109994059Y-84549869D01*
X109981977Y-84553361D01*
X109969659Y-84556509D01*
X109957104Y-84559314D01*
X109944314Y-84561775D01*
X109931287Y-84563894D01*
X109918024Y-84565668D01*
X109904525Y-84567099D01*
X109890790Y-84568187D01*
X109876819Y-84568931D01*
X109862612Y-84569332D01*
X109853009Y-84569408D01*
X109838957Y-84569192D01*
X109825233Y-84568543D01*
X109811838Y-84567463D01*
X109798770Y-84565950D01*
X109786030Y-84564004D01*
X109773618Y-84561626D01*
X109768745Y-84560554D01*
X109754974Y-84557012D01*
X109742513Y-84553256D01*
X109729630Y-84548602D01*
X109717088Y-84542925D01*
X109710432Y-84539183D01*
X109701690Y-84549052D01*
X109693784Y-84559576D01*
X109686712Y-84570757D01*
X109685397Y-84573072D01*
X109679923Y-84585188D01*
X109676477Y-84598259D01*
X109675108Y-84610839D01*
X109675017Y-84615204D01*
X109676303Y-84627968D01*
X109679799Y-84639716D01*
X109681734Y-84644207D01*
X109688447Y-84655413D01*
X109696432Y-84664951D01*
X109701884Y-84670158D01*
X109711696Y-84677455D01*
X109722663Y-84683815D01*
X109733635Y-84688782D01*
X109745722Y-84692574D01*
X109758704Y-84695174D01*
X109771151Y-84696494D01*
X109775462Y-84696720D01*
X109982458Y-84704352D01*
X109995391Y-84704816D01*
X110008089Y-84705522D01*
X110020550Y-84706469D01*
X110032775Y-84707658D01*
X110048709Y-84709619D01*
X110064222Y-84712009D01*
X110079315Y-84714828D01*
X110093989Y-84718077D01*
X110108243Y-84721755D01*
X110122039Y-84725776D01*
X110135338Y-84730208D01*
X110148142Y-84735050D01*
X110160450Y-84740302D01*
X110172261Y-84745964D01*
X110183576Y-84752037D01*
X110194396Y-84758520D01*
X110204719Y-84765413D01*
X110214574Y-84772702D01*
X110226062Y-84782350D01*
X110236625Y-84792595D01*
X110246264Y-84803435D01*
X110254979Y-84814872D01*
X110262770Y-84826905D01*
X110267001Y-84834412D01*
X110273333Y-84847377D01*
X110278593Y-84860893D01*
X110282779Y-84874961D01*
X110285891Y-84889581D01*
X110287609Y-84901674D01*
X110288639Y-84914120D01*
X110288982Y-84926919D01*
X110288553Y-84941621D01*
X110287265Y-84956113D01*
X110285118Y-84970396D01*
X110282113Y-84984468D01*
X110278249Y-84998331D01*
X110273526Y-85011984D01*
X110267945Y-85025427D01*
X110261505Y-85038660D01*
X110254197Y-85051645D01*
X110246011Y-85064191D01*
X110236947Y-85076298D01*
X110227006Y-85087966D01*
X110216187Y-85099196D01*
X110204490Y-85109986D01*
X110191915Y-85120338D01*
X110181908Y-85127814D01*
X110178463Y-85130251D01*
X110167862Y-85137379D01*
X110156785Y-85144222D01*
X110145229Y-85150781D01*
X110133196Y-85157055D01*
X110120686Y-85163046D01*
X110107698Y-85168751D01*
X110094232Y-85174172D01*
X110080288Y-85179309D01*
X110065867Y-85184162D01*
X110050968Y-85188729D01*
X110040771Y-85191617D01*
X110025081Y-85195654D01*
X110008925Y-85199295D01*
X109992302Y-85202538D01*
X109975211Y-85205384D01*
X109957654Y-85207833D01*
X109939630Y-85209885D01*
X109927355Y-85211032D01*
X109914872Y-85212003D01*
X109902182Y-85212797D01*
X109889284Y-85213415D01*
X109876179Y-85213856D01*
X109862866Y-85214121D01*
X109849345Y-85214209D01*
X109836257Y-85214146D01*
X109823399Y-85213956D01*
X109810773Y-85213640D01*
X109798379Y-85213198D01*
X109780221Y-85212297D01*
X109762583Y-85211112D01*
X109745466Y-85209642D01*
X109728870Y-85207888D01*
X109712794Y-85205850D01*
X109697239Y-85203527D01*
X109682204Y-85200920D01*
X109667690Y-85198028D01*
X109653732Y-85194879D01*
X109640252Y-85191499D01*
X109627249Y-85187888D01*
X109614724Y-85184046D01*
X109602677Y-85179974D01*
X109591107Y-85175671D01*
X109576424Y-85169574D01*
X109562590Y-85163067D01*
X109549605Y-85156150D01*
X109543431Y-85152538D01*
X109531691Y-85145039D01*
X109520743Y-85137196D01*
X109510587Y-85129010D01*
X109501223Y-85120481D01*
X109492651Y-85111608D01*
X109483049Y-85100034D01*
X109474684Y-85087923D01*
X109471685Y-85082929D01*
X109465000Y-85070134D01*
X109459449Y-85056936D01*
X109455030Y-85043336D01*
X109451745Y-85029334D01*
X109449592Y-85014929D01*
X109448572Y-85000121D01*
X109448482Y-84994085D01*
X109448847Y-84981586D01*
X109448907Y-84980957D01*
X109663110Y-84980957D01*
X109664355Y-84995780D01*
X109668089Y-85009335D01*
X109674313Y-85021623D01*
X109683026Y-85032644D01*
X109694229Y-85042398D01*
X109704984Y-85049289D01*
X109714096Y-85053925D01*
X109727563Y-85059435D01*
X109742317Y-85064210D01*
X109754229Y-85067309D01*
X109766864Y-85069995D01*
X109780225Y-85072268D01*
X109794310Y-85074127D01*
X109809119Y-85075574D01*
X109824653Y-85076607D01*
X109840911Y-85077227D01*
X109857894Y-85077433D01*
X109872410Y-85077261D01*
X109886344Y-85076746D01*
X109899697Y-85075888D01*
X109912467Y-85074685D01*
X109924655Y-85073140D01*
X109939072Y-85070725D01*
X109952580Y-85067773D01*
X109957728Y-85066442D01*
X109970140Y-85062844D01*
X109981806Y-85058917D01*
X109994822Y-85053772D01*
X110006765Y-85048155D01*
X110017634Y-85042066D01*
X110024284Y-85037744D01*
X110034922Y-85029838D01*
X110044128Y-85021348D01*
X110052896Y-85010930D01*
X110059794Y-84999748D01*
X110061226Y-84996833D01*
X110066168Y-84984964D01*
X110069698Y-84972867D01*
X110071816Y-84960540D01*
X110072522Y-84947984D01*
X110071479Y-84934550D01*
X110068348Y-84922487D01*
X110062494Y-84910802D01*
X110061837Y-84909822D01*
X110053444Y-84899730D01*
X110043999Y-84891621D01*
X110032824Y-84884525D01*
X110031612Y-84883871D01*
X110020237Y-84878418D01*
X110007751Y-84873738D01*
X109995720Y-84870227D01*
X109986121Y-84867995D01*
X109972783Y-84865476D01*
X109960518Y-84863648D01*
X109947697Y-84862170D01*
X109934321Y-84861043D01*
X109928419Y-84860668D01*
X109743710Y-84857309D01*
X109733315Y-84864568D01*
X109722472Y-84872649D01*
X109712735Y-84880501D01*
X109703105Y-84889061D01*
X109693838Y-84898542D01*
X109685884Y-84907904D01*
X109678649Y-84918064D01*
X109678070Y-84918981D01*
X109672245Y-84930015D01*
X109667776Y-84942065D01*
X109666163Y-84948595D01*
X109664186Y-84961300D01*
X109663256Y-84973565D01*
X109663110Y-84980957D01*
X109448907Y-84980957D01*
X109450159Y-84967766D01*
X109452425Y-84954443D01*
X109455645Y-84941615D01*
X109456114Y-84940047D01*
X109460541Y-84927663D01*
X109465884Y-84915546D01*
X109472143Y-84903696D01*
X109479317Y-84892114D01*
X109486495Y-84882155D01*
X109494402Y-84872312D01*
X109503041Y-84862587D01*
X109512409Y-84852978D01*
X109518091Y-84847540D01*
X109528651Y-84838056D01*
X109538354Y-84829927D01*
X109548658Y-84821799D01*
X109559563Y-84813670D01*
X109571069Y-84805541D01*
X109573046Y-84804187D01*
X109560371Y-84796123D01*
X109548681Y-84787389D01*
X109537974Y-84777984D01*
X109528252Y-84767908D01*
X109519513Y-84757161D01*
X109511758Y-84745744D01*
X109508932Y-84740989D01*
X109502599Y-84728753D01*
X109497340Y-84716278D01*
X109493154Y-84703565D01*
X109490041Y-84690614D01*
X109488002Y-84677424D01*
X109487036Y-84663995D01*
X109486950Y-84658557D01*
X109487315Y-84645657D01*
X109488411Y-84633137D01*
X109490237Y-84620996D01*
X109493219Y-84607587D01*
X109494583Y-84602686D01*
X109498819Y-84589863D01*
X109503589Y-84577346D01*
X109508894Y-84565134D01*
X109514733Y-84553227D01*
X109521220Y-84541435D01*
X109528166Y-84529871D01*
X109535570Y-84518537D01*
X109543431Y-84507431D01*
X109551770Y-84496498D01*
X109560299Y-84485679D01*
X109569019Y-84474974D01*
X109577930Y-84464384D01*
X109568269Y-84454038D01*
X109559129Y-84443036D01*
X109550511Y-84431379D01*
X109542415Y-84419065D01*
X109534841Y-84406096D01*
X109529157Y-84395248D01*
X109525113Y-84386837D01*
X109520247Y-84375035D01*
X109516030Y-84362527D01*
X109512462Y-84349313D01*
X109509542Y-84335393D01*
X109507272Y-84320767D01*
X109505650Y-84305435D01*
X109504677Y-84289397D01*
X109504373Y-84276905D01*
X109504352Y-84272653D01*
X109504378Y-84271127D01*
X109698220Y-84271127D01*
X109698577Y-84284769D01*
X109699648Y-84297874D01*
X109701432Y-84310443D01*
X109703930Y-84322475D01*
X109708371Y-84337683D01*
X109714081Y-84351937D01*
X109721061Y-84365236D01*
X109729309Y-84377582D01*
X109738825Y-84388974D01*
X109749554Y-84399206D01*
X109761284Y-84408074D01*
X109774016Y-84415578D01*
X109787750Y-84421717D01*
X109802486Y-84426493D01*
X109818223Y-84429903D01*
X109830684Y-84431566D01*
X109843708Y-84432462D01*
X109852704Y-84432632D01*
X109866889Y-84432149D01*
X109880367Y-84430700D01*
X109893136Y-84428285D01*
X109905197Y-84424904D01*
X109918372Y-84419739D01*
X109920176Y-84418893D01*
X109932264Y-84412444D01*
X109943417Y-84405119D01*
X109953635Y-84396917D01*
X109962918Y-84387838D01*
X109967803Y-84382257D01*
X109975632Y-84371889D01*
X109982554Y-84360819D01*
X109988571Y-84349048D01*
X109993682Y-84336576D01*
X109996196Y-84329134D01*
X109999884Y-84315660D01*
X110002666Y-84301953D01*
X110004542Y-84288011D01*
X110005513Y-84273836D01*
X110005661Y-84265631D01*
X110005301Y-84251334D01*
X110004222Y-84237639D01*
X110002425Y-84224544D01*
X109999908Y-84212050D01*
X109996672Y-84200158D01*
X109991238Y-84185236D01*
X109984526Y-84171383D01*
X109976536Y-84158598D01*
X109967267Y-84146882D01*
X109964750Y-84144120D01*
X109954093Y-84133888D01*
X109942425Y-84125020D01*
X109929745Y-84117516D01*
X109916054Y-84111376D01*
X109901352Y-84106601D01*
X109885638Y-84103190D01*
X109873189Y-84101528D01*
X109860172Y-84100632D01*
X109851177Y-84100462D01*
X109836991Y-84100945D01*
X109823514Y-84102394D01*
X109810745Y-84104809D01*
X109798684Y-84108190D01*
X109785509Y-84113355D01*
X109783705Y-84114200D01*
X109771617Y-84120679D01*
X109760464Y-84128092D01*
X109750246Y-84136440D01*
X109740963Y-84145723D01*
X109736078Y-84151448D01*
X109728249Y-84161993D01*
X109721326Y-84173328D01*
X109715310Y-84185452D01*
X109710198Y-84198364D01*
X109707684Y-84206097D01*
X109703997Y-84219853D01*
X109701557Y-84231852D01*
X109699782Y-84244045D01*
X109698673Y-84256432D01*
X109698229Y-84269011D01*
X109698220Y-84271127D01*
X109504378Y-84271127D01*
X109504583Y-84258942D01*
X109505275Y-84245516D01*
X109506429Y-84232374D01*
X109508045Y-84219516D01*
X109510121Y-84206943D01*
X109512660Y-84194654D01*
X109515660Y-84182650D01*
X109519121Y-84170930D01*
X109524455Y-84155746D01*
X109530608Y-84141067D01*
X109537482Y-84126928D01*
X109544977Y-84113361D01*
X109553091Y-84100366D01*
X109561826Y-84087944D01*
X109571180Y-84076095D01*
X109581155Y-84064818D01*
X109591750Y-84054113D01*
X109602965Y-84043981D01*
X109614839Y-84034430D01*
X109627256Y-84025472D01*
X109640217Y-84017104D01*
X109653722Y-84009329D01*
X109667771Y-84002145D01*
X109682363Y-83995552D01*
X109697500Y-83989551D01*
X109709209Y-83985438D01*
X109713180Y-83984141D01*
X109725303Y-83980486D01*
X109737630Y-83977190D01*
X109750162Y-83974253D01*
X109762897Y-83971676D01*
X109775836Y-83969459D01*
X109788979Y-83967601D01*
X109802326Y-83966103D01*
X109815876Y-83964964D01*
X109829631Y-83964185D01*
X109843590Y-83963766D01*
X109853009Y-83963686D01*
X109867338Y-83963847D01*
G37*
G36*
X111434176Y-83924607D02*
G01*
X111434176Y-83748752D01*
X112143396Y-83748752D01*
X112143396Y-83924607D01*
X111896100Y-83924607D01*
X111896100Y-84686645D01*
X112143396Y-84686645D01*
X112143396Y-84862500D01*
X111434176Y-84862500D01*
X111434176Y-84686645D01*
X111681472Y-84686645D01*
X111681472Y-83924607D01*
X111434176Y-83924607D01*
G37*
G36*
X112947260Y-84315396D02*
G01*
X112947624Y-84301046D01*
X112947571Y-84287382D01*
X112947099Y-84274403D01*
X112946211Y-84262111D01*
X112944594Y-84248265D01*
X112942376Y-84235406D01*
X112939703Y-84223449D01*
X112935907Y-84210530D01*
X112931380Y-84198722D01*
X112925312Y-84186586D01*
X112921920Y-84181062D01*
X112914479Y-84170968D01*
X112905103Y-84161391D01*
X112894665Y-84153698D01*
X112887116Y-84149616D01*
X112875102Y-84144745D01*
X112862075Y-84141469D01*
X112849643Y-84139895D01*
X112839794Y-84139541D01*
X112825305Y-84140539D01*
X112810653Y-84143536D01*
X112798813Y-84147371D01*
X112786868Y-84152485D01*
X112774818Y-84158877D01*
X112762663Y-84166548D01*
X112750403Y-84175497D01*
X112744234Y-84180451D01*
X112734874Y-84188589D01*
X112725343Y-84197660D01*
X112715640Y-84207666D01*
X112705765Y-84218605D01*
X112695719Y-84230478D01*
X112685501Y-84243284D01*
X112675111Y-84257025D01*
X112664549Y-84271699D01*
X112657413Y-84282001D01*
X112650200Y-84292717D01*
X112642911Y-84303849D01*
X112635546Y-84315396D01*
X112635546Y-84862500D01*
X112420917Y-84862500D01*
X112420917Y-83983225D01*
X112610816Y-83983225D01*
X112618449Y-84120001D01*
X112625261Y-84109017D01*
X112632342Y-84098391D01*
X112639692Y-84088123D01*
X112647309Y-84078213D01*
X112655195Y-84068660D01*
X112663350Y-84059465D01*
X112666687Y-84055887D01*
X112675319Y-84047113D01*
X112684236Y-84038726D01*
X112695309Y-84029173D01*
X112706790Y-84020179D01*
X112718679Y-84011743D01*
X112726831Y-84006428D01*
X112737402Y-84000179D01*
X112748316Y-83994407D01*
X112759572Y-83989112D01*
X112771172Y-83984294D01*
X112783114Y-83979953D01*
X112795399Y-83976089D01*
X112800409Y-83974677D01*
X112813197Y-83971510D01*
X112826372Y-83968881D01*
X112839935Y-83966788D01*
X112853885Y-83965231D01*
X112868223Y-83964212D01*
X112882949Y-83963729D01*
X112888948Y-83963686D01*
X112901181Y-83963882D01*
X112917083Y-83964752D01*
X112932517Y-83966319D01*
X112947484Y-83968583D01*
X112961984Y-83971543D01*
X112976016Y-83975199D01*
X112989581Y-83979552D01*
X113002678Y-83984602D01*
X113005879Y-83985973D01*
X113018444Y-83991883D01*
X113030494Y-83998471D01*
X113042029Y-84005737D01*
X113053048Y-84013679D01*
X113063553Y-84022299D01*
X113073542Y-84031597D01*
X113083016Y-84041572D01*
X113091974Y-84052224D01*
X113100394Y-84063563D01*
X113108251Y-84075599D01*
X113115545Y-84088331D01*
X113122276Y-84101759D01*
X113128444Y-84115884D01*
X113134049Y-84130706D01*
X113139091Y-84146224D01*
X113142504Y-84158320D01*
X113143571Y-84162438D01*
X113146547Y-84174988D01*
X113149181Y-84187909D01*
X113151470Y-84201199D01*
X113153417Y-84214860D01*
X113155020Y-84228891D01*
X113156279Y-84243293D01*
X113157195Y-84258064D01*
X113157767Y-84273206D01*
X113157996Y-84288719D01*
X113157882Y-84304601D01*
X113157615Y-84315396D01*
X112947260Y-84315396D01*
G37*
G36*
X113737809Y-83963941D02*
G01*
X113755564Y-83964705D01*
X113772943Y-83965980D01*
X113789946Y-83967764D01*
X113806574Y-83970059D01*
X113822826Y-83972863D01*
X113838702Y-83976177D01*
X113854203Y-83980000D01*
X113869328Y-83984334D01*
X113884077Y-83989177D01*
X113893702Y-83992690D01*
X113907863Y-83998375D01*
X113921612Y-84004554D01*
X113934947Y-84011226D01*
X113947869Y-84018392D01*
X113960378Y-84026052D01*
X113972473Y-84034206D01*
X113984156Y-84042854D01*
X113995425Y-84051995D01*
X114006281Y-84061630D01*
X114016723Y-84071759D01*
X114023456Y-84078785D01*
X114033193Y-84089731D01*
X114042486Y-84101161D01*
X114051333Y-84113073D01*
X114059734Y-84125468D01*
X114067690Y-84138346D01*
X114075201Y-84151707D01*
X114082266Y-84165552D01*
X114088886Y-84179879D01*
X114095060Y-84194689D01*
X114100789Y-84209982D01*
X114104361Y-84220446D01*
X114109381Y-84236479D01*
X114113906Y-84252979D01*
X114117939Y-84269946D01*
X114121477Y-84287379D01*
X114124522Y-84305280D01*
X114126277Y-84317473D01*
X114127813Y-84329873D01*
X114129130Y-84342481D01*
X114130227Y-84355297D01*
X114131105Y-84368320D01*
X114131763Y-84381551D01*
X114132202Y-84394989D01*
X114132421Y-84408634D01*
X114132449Y-84415535D01*
X114132334Y-84428441D01*
X114131991Y-84441209D01*
X114131419Y-84453839D01*
X114130617Y-84466330D01*
X114129587Y-84478683D01*
X114128327Y-84490897D01*
X114126009Y-84508960D01*
X114123175Y-84526711D01*
X114119827Y-84544151D01*
X114115963Y-84561279D01*
X114111583Y-84578097D01*
X114106689Y-84594603D01*
X114103140Y-84605434D01*
X114097473Y-84621362D01*
X114091351Y-84636861D01*
X114084772Y-84651931D01*
X114077738Y-84666571D01*
X114070247Y-84680782D01*
X114062299Y-84694563D01*
X114053896Y-84707916D01*
X114045037Y-84720839D01*
X114035721Y-84733332D01*
X114025949Y-84745397D01*
X114019181Y-84753201D01*
X114008657Y-84764465D01*
X113997693Y-84775247D01*
X113986289Y-84785546D01*
X113974445Y-84795361D01*
X113962160Y-84804694D01*
X113949436Y-84813544D01*
X113936272Y-84821910D01*
X113922667Y-84829794D01*
X113908623Y-84837194D01*
X113894138Y-84844112D01*
X113884237Y-84848456D01*
X113869098Y-84854457D01*
X113853561Y-84859869D01*
X113837628Y-84864690D01*
X113821297Y-84868920D01*
X113804569Y-84872561D01*
X113787444Y-84875611D01*
X113769922Y-84878071D01*
X113752003Y-84879940D01*
X113733686Y-84881219D01*
X113721255Y-84881744D01*
X113708646Y-84882006D01*
X113702276Y-84882039D01*
X113684307Y-84881789D01*
X113666692Y-84881041D01*
X113649431Y-84879793D01*
X113632524Y-84878046D01*
X113615971Y-84875800D01*
X113599773Y-84873055D01*
X113583929Y-84869811D01*
X113568439Y-84866068D01*
X113553303Y-84861825D01*
X113538521Y-84857084D01*
X113528864Y-84853646D01*
X113514757Y-84848018D01*
X113501057Y-84841896D01*
X113487766Y-84835281D01*
X113474882Y-84828172D01*
X113462407Y-84820569D01*
X113450339Y-84812473D01*
X113438679Y-84803882D01*
X113427427Y-84794798D01*
X113416582Y-84785221D01*
X113406146Y-84775149D01*
X113399415Y-84768161D01*
X113389672Y-84757264D01*
X113380363Y-84745868D01*
X113371490Y-84733972D01*
X113363051Y-84721578D01*
X113355046Y-84708685D01*
X113347476Y-84695292D01*
X113340342Y-84681401D01*
X113333641Y-84667010D01*
X113327376Y-84652120D01*
X113321545Y-84636731D01*
X113317899Y-84626195D01*
X113312825Y-84609976D01*
X113308250Y-84593265D01*
X113304174Y-84576059D01*
X113300597Y-84558360D01*
X113298490Y-84546286D01*
X113296604Y-84533993D01*
X113294940Y-84521480D01*
X113293499Y-84508748D01*
X113292279Y-84495797D01*
X113291280Y-84482626D01*
X113290504Y-84469235D01*
X113289949Y-84455625D01*
X113289617Y-84441796D01*
X113289506Y-84427747D01*
X113289552Y-84422557D01*
X113507493Y-84422557D01*
X113507707Y-84439879D01*
X113508351Y-84456660D01*
X113509425Y-84472900D01*
X113510927Y-84488598D01*
X113512859Y-84503755D01*
X113515221Y-84518370D01*
X113518011Y-84532444D01*
X113521231Y-84545976D01*
X113524881Y-84558967D01*
X113528959Y-84571416D01*
X113533467Y-84583324D01*
X113538405Y-84594691D01*
X113546616Y-84610726D01*
X113555792Y-84625542D01*
X113562447Y-84634743D01*
X113573105Y-84647510D01*
X113584472Y-84659022D01*
X113596547Y-84669278D01*
X113609330Y-84678277D01*
X113622822Y-84686022D01*
X113637022Y-84692510D01*
X113651931Y-84697742D01*
X113667548Y-84701719D01*
X113683873Y-84704440D01*
X113700907Y-84705905D01*
X113712657Y-84706184D01*
X113725565Y-84705845D01*
X113738035Y-84704829D01*
X113753005Y-84702607D01*
X113767289Y-84699325D01*
X113780888Y-84694986D01*
X113793800Y-84689588D01*
X113803637Y-84684508D01*
X113815388Y-84677324D01*
X113826410Y-84669320D01*
X113836700Y-84660496D01*
X113846260Y-84650853D01*
X113855090Y-84640389D01*
X113863189Y-84629106D01*
X113866224Y-84624363D01*
X113873463Y-84611918D01*
X113880106Y-84598817D01*
X113886152Y-84585061D01*
X113890560Y-84573583D01*
X113894586Y-84561686D01*
X113898231Y-84549369D01*
X113901494Y-84536632D01*
X113902250Y-84533382D01*
X113905112Y-84520135D01*
X113907593Y-84506649D01*
X113909692Y-84492925D01*
X113911409Y-84478962D01*
X113912745Y-84464761D01*
X113913699Y-84450321D01*
X113914271Y-84435642D01*
X113914462Y-84420725D01*
X113914262Y-84403480D01*
X113913661Y-84386779D01*
X113912659Y-84370622D01*
X113911256Y-84355009D01*
X113909453Y-84339939D01*
X113907249Y-84325413D01*
X113904645Y-84311431D01*
X113901639Y-84297993D01*
X113898233Y-84285099D01*
X113894427Y-84272748D01*
X113890219Y-84260942D01*
X113883157Y-84244251D01*
X113875192Y-84228785D01*
X113866327Y-84214542D01*
X113863171Y-84210066D01*
X113853185Y-84197462D01*
X113842345Y-84186098D01*
X113830652Y-84175974D01*
X113818106Y-84167090D01*
X113804706Y-84159445D01*
X113790453Y-84153040D01*
X113775347Y-84147874D01*
X113759387Y-84143948D01*
X113742574Y-84141262D01*
X113724908Y-84139816D01*
X113712657Y-84139541D01*
X113699171Y-84139889D01*
X113686191Y-84140934D01*
X113673716Y-84142675D01*
X113661747Y-84145112D01*
X113647497Y-84149139D01*
X113634037Y-84154254D01*
X113621367Y-84160457D01*
X113618928Y-84161828D01*
X113607235Y-84169107D01*
X113596198Y-84177206D01*
X113585816Y-84186125D01*
X113576090Y-84195864D01*
X113567021Y-84206423D01*
X113558607Y-84217802D01*
X113555425Y-84222583D01*
X113548018Y-84234925D01*
X113541251Y-84247908D01*
X113535126Y-84261532D01*
X113529641Y-84275797D01*
X113525715Y-84287670D01*
X113522200Y-84299954D01*
X113519094Y-84312648D01*
X113516375Y-84325585D01*
X113514018Y-84338751D01*
X113512024Y-84352146D01*
X113510393Y-84365771D01*
X113509124Y-84379624D01*
X113508218Y-84393706D01*
X113507674Y-84408017D01*
X113507493Y-84422557D01*
X113289552Y-84422557D01*
X113289621Y-84414731D01*
X113289969Y-84401863D01*
X113290547Y-84389143D01*
X113291357Y-84376571D01*
X113292398Y-84364146D01*
X113293670Y-84351870D01*
X113295174Y-84339741D01*
X113297864Y-84321825D01*
X113301074Y-84304242D01*
X113304805Y-84286992D01*
X113309056Y-84270075D01*
X113313828Y-84253490D01*
X113319120Y-84237238D01*
X113324898Y-84221375D01*
X113331127Y-84205957D01*
X113337807Y-84190985D01*
X113344937Y-84176459D01*
X113352519Y-84162377D01*
X113360551Y-84148742D01*
X113369034Y-84135551D01*
X113377967Y-84122806D01*
X113387352Y-84110507D01*
X113397187Y-84098653D01*
X113403995Y-84090997D01*
X113414625Y-84079847D01*
X113425680Y-84069180D01*
X113437158Y-84058996D01*
X113449060Y-84049295D01*
X113461387Y-84040077D01*
X113474137Y-84031342D01*
X113487311Y-84023089D01*
X113500909Y-84015320D01*
X113514932Y-84008034D01*
X113529378Y-84001231D01*
X113539244Y-83996964D01*
X113554422Y-83991017D01*
X113569959Y-83985655D01*
X113585856Y-83980877D01*
X113602113Y-83976685D01*
X113618729Y-83973078D01*
X113635705Y-83970055D01*
X113653040Y-83967618D01*
X113670735Y-83965766D01*
X113688789Y-83964498D01*
X113701025Y-83963978D01*
X113713421Y-83963718D01*
X113719678Y-83963686D01*
X113737809Y-83963941D01*
G37*
G36*
X114828236Y-84862500D02*
G01*
X114828236Y-84285170D01*
X114827820Y-84267536D01*
X114826571Y-84251038D01*
X114824490Y-84235679D01*
X114821576Y-84221457D01*
X114817830Y-84208374D01*
X114813252Y-84196427D01*
X114804824Y-84180641D01*
X114794522Y-84167415D01*
X114782348Y-84156749D01*
X114768301Y-84148643D01*
X114752381Y-84143096D01*
X114734587Y-84140110D01*
X114721685Y-84139541D01*
X114708476Y-84140223D01*
X114695410Y-84142269D01*
X114682487Y-84145680D01*
X114669707Y-84150455D01*
X114657070Y-84156595D01*
X114644577Y-84164099D01*
X114632226Y-84172967D01*
X114620019Y-84183199D01*
X114610869Y-84191659D01*
X114601622Y-84200666D01*
X114592278Y-84210220D01*
X114582838Y-84220322D01*
X114573302Y-84230971D01*
X114563669Y-84242168D01*
X114553939Y-84253912D01*
X114544113Y-84266203D01*
X114534190Y-84279042D01*
X114524170Y-84292429D01*
X114517437Y-84301657D01*
X114517437Y-84862500D01*
X114307998Y-84862500D01*
X114307998Y-83983225D01*
X114489043Y-83983225D01*
X114494234Y-84112979D01*
X114502586Y-84102538D01*
X114511043Y-84092395D01*
X114519605Y-84082550D01*
X114528270Y-84073004D01*
X114537040Y-84063755D01*
X114545915Y-84054805D01*
X114549494Y-84051308D01*
X114558662Y-84042827D01*
X114568038Y-84034749D01*
X114577624Y-84027073D01*
X114589402Y-84018393D01*
X114601480Y-84010293D01*
X114611775Y-84003986D01*
X114624541Y-83996981D01*
X114637650Y-83990619D01*
X114651102Y-83984902D01*
X114662575Y-83980630D01*
X114674286Y-83976804D01*
X114683827Y-83974066D01*
X114696175Y-83971076D01*
X114708985Y-83968592D01*
X114722257Y-83966615D01*
X114735991Y-83965146D01*
X114750187Y-83964183D01*
X114764846Y-83963726D01*
X114770839Y-83963686D01*
X114783225Y-83963882D01*
X114799272Y-83964752D01*
X114814786Y-83966319D01*
X114829765Y-83968583D01*
X114844209Y-83971543D01*
X114858120Y-83975199D01*
X114871496Y-83979552D01*
X114884338Y-83984602D01*
X114887465Y-83985973D01*
X114899720Y-83991755D01*
X114911450Y-83998109D01*
X114922656Y-84005035D01*
X114933336Y-84012534D01*
X114943493Y-84020606D01*
X114953124Y-84029250D01*
X114962231Y-84038466D01*
X114970812Y-84048255D01*
X114978946Y-84058516D01*
X114986555Y-84069302D01*
X114993639Y-84080612D01*
X115000198Y-84092448D01*
X115006232Y-84104808D01*
X115011742Y-84117692D01*
X115016727Y-84131102D01*
X115021188Y-84145036D01*
X115025123Y-84159443D01*
X115028534Y-84174269D01*
X115031420Y-84189515D01*
X115033781Y-84205181D01*
X115035618Y-84221267D01*
X115036651Y-84233606D01*
X115037389Y-84246182D01*
X115037832Y-84258994D01*
X115037979Y-84272042D01*
X115037979Y-84862500D01*
X114828236Y-84862500D01*
G37*
X144131547Y-87938095D02*
X144072023Y-88116666D01*
X144072023Y-88116666D02*
X144072023Y-88414285D01*
X144072023Y-88414285D02*
X144131547Y-88533333D01*
X144131547Y-88533333D02*
X144191071Y-88592857D01*
X144191071Y-88592857D02*
X144310119Y-88652380D01*
X144310119Y-88652380D02*
X144429166Y-88652380D01*
X144429166Y-88652380D02*
X144548214Y-88592857D01*
X144548214Y-88592857D02*
X144607738Y-88533333D01*
X144607738Y-88533333D02*
X144667261Y-88414285D01*
X144667261Y-88414285D02*
X144726785Y-88176190D01*
X144726785Y-88176190D02*
X144786309Y-88057142D01*
X144786309Y-88057142D02*
X144845833Y-87997619D01*
X144845833Y-87997619D02*
X144964880Y-87938095D01*
X144964880Y-87938095D02*
X145083928Y-87938095D01*
X145083928Y-87938095D02*
X145202976Y-87997619D01*
X145202976Y-87997619D02*
X145262500Y-88057142D01*
X145262500Y-88057142D02*
X145322023Y-88176190D01*
X145322023Y-88176190D02*
X145322023Y-88473809D01*
X145322023Y-88473809D02*
X145262500Y-88652380D01*
X144726785Y-89188095D02*
X144726785Y-89604761D01*
X144072023Y-89783333D02*
X144072023Y-89188095D01*
X144072023Y-89188095D02*
X145322023Y-89188095D01*
X145322023Y-89188095D02*
X145322023Y-89783333D01*
X144072023Y-90914285D02*
X144072023Y-90319047D01*
X144072023Y-90319047D02*
X145322023Y-90319047D01*
X144726785Y-91330952D02*
X144726785Y-91747618D01*
X144072023Y-91926190D02*
X144072023Y-91330952D01*
X144072023Y-91330952D02*
X145322023Y-91330952D01*
X145322023Y-91330952D02*
X145322023Y-91926190D01*
X144191071Y-93176189D02*
X144131547Y-93116665D01*
X144131547Y-93116665D02*
X144072023Y-92938094D01*
X144072023Y-92938094D02*
X144072023Y-92819046D01*
X144072023Y-92819046D02*
X144131547Y-92640475D01*
X144131547Y-92640475D02*
X144250595Y-92521427D01*
X144250595Y-92521427D02*
X144369642Y-92461904D01*
X144369642Y-92461904D02*
X144607738Y-92402380D01*
X144607738Y-92402380D02*
X144786309Y-92402380D01*
X144786309Y-92402380D02*
X145024404Y-92461904D01*
X145024404Y-92461904D02*
X145143452Y-92521427D01*
X145143452Y-92521427D02*
X145262500Y-92640475D01*
X145262500Y-92640475D02*
X145322023Y-92819046D01*
X145322023Y-92819046D02*
X145322023Y-92938094D01*
X145322023Y-92938094D02*
X145262500Y-93116665D01*
X145262500Y-93116665D02*
X145202976Y-93176189D01*
X145322023Y-93533332D02*
X145322023Y-94247618D01*
X144072023Y-93890475D02*
X145322023Y-93890475D01*
X137526785Y-89139285D02*
X137467261Y-89317857D01*
X137467261Y-89317857D02*
X137407738Y-89377380D01*
X137407738Y-89377380D02*
X137288690Y-89436904D01*
X137288690Y-89436904D02*
X137110119Y-89436904D01*
X137110119Y-89436904D02*
X136991071Y-89377380D01*
X136991071Y-89377380D02*
X136931547Y-89317857D01*
X136931547Y-89317857D02*
X136872023Y-89198809D01*
X136872023Y-89198809D02*
X136872023Y-88722619D01*
X136872023Y-88722619D02*
X138122023Y-88722619D01*
X138122023Y-88722619D02*
X138122023Y-89139285D01*
X138122023Y-89139285D02*
X138062500Y-89258333D01*
X138062500Y-89258333D02*
X138002976Y-89317857D01*
X138002976Y-89317857D02*
X137883928Y-89377380D01*
X137883928Y-89377380D02*
X137764880Y-89377380D01*
X137764880Y-89377380D02*
X137645833Y-89317857D01*
X137645833Y-89317857D02*
X137586309Y-89258333D01*
X137586309Y-89258333D02*
X137526785Y-89139285D01*
X137526785Y-89139285D02*
X137526785Y-88722619D01*
X137229166Y-89913095D02*
X137229166Y-90508333D01*
X136872023Y-89794047D02*
X138122023Y-90210714D01*
X138122023Y-90210714D02*
X136872023Y-90627380D01*
X136991071Y-91758333D02*
X136931547Y-91698809D01*
X136931547Y-91698809D02*
X136872023Y-91520238D01*
X136872023Y-91520238D02*
X136872023Y-91401190D01*
X136872023Y-91401190D02*
X136931547Y-91222619D01*
X136931547Y-91222619D02*
X137050595Y-91103571D01*
X137050595Y-91103571D02*
X137169642Y-91044048D01*
X137169642Y-91044048D02*
X137407738Y-90984524D01*
X137407738Y-90984524D02*
X137586309Y-90984524D01*
X137586309Y-90984524D02*
X137824404Y-91044048D01*
X137824404Y-91044048D02*
X137943452Y-91103571D01*
X137943452Y-91103571D02*
X138062500Y-91222619D01*
X138062500Y-91222619D02*
X138122023Y-91401190D01*
X138122023Y-91401190D02*
X138122023Y-91520238D01*
X138122023Y-91520238D02*
X138062500Y-91698809D01*
X138062500Y-91698809D02*
X138002976Y-91758333D01*
X136872023Y-92294048D02*
X138122023Y-92294048D01*
X136872023Y-93008333D02*
X137586309Y-92472619D01*
X138122023Y-93008333D02*
X137407738Y-92294048D01*
X151272023Y-89172619D02*
X152522023Y-89172619D01*
X152522023Y-89172619D02*
X151272023Y-89886904D01*
X151272023Y-89886904D02*
X152522023Y-89886904D01*
X151926785Y-90482143D02*
X151926785Y-90898809D01*
X151272023Y-91077381D02*
X151272023Y-90482143D01*
X151272023Y-90482143D02*
X152522023Y-90482143D01*
X152522023Y-90482143D02*
X152522023Y-91077381D01*
X152522023Y-91494047D02*
X151272023Y-92327380D01*
X152522023Y-92327380D02*
X151272023Y-91494047D01*
X152522023Y-92624999D02*
X152522023Y-93339285D01*
X151272023Y-92982142D02*
X152522023Y-92982142D01*
D11*
%TO.C,C8*%
X149833333Y-96752142D02*
X149785714Y-96799761D01*
X149785714Y-96799761D02*
X149642857Y-96847380D01*
X149642857Y-96847380D02*
X149547619Y-96847380D01*
X149547619Y-96847380D02*
X149404762Y-96799761D01*
X149404762Y-96799761D02*
X149309524Y-96704523D01*
X149309524Y-96704523D02*
X149261905Y-96609285D01*
X149261905Y-96609285D02*
X149214286Y-96418809D01*
X149214286Y-96418809D02*
X149214286Y-96275952D01*
X149214286Y-96275952D02*
X149261905Y-96085476D01*
X149261905Y-96085476D02*
X149309524Y-95990238D01*
X149309524Y-95990238D02*
X149404762Y-95895000D01*
X149404762Y-95895000D02*
X149547619Y-95847380D01*
X149547619Y-95847380D02*
X149642857Y-95847380D01*
X149642857Y-95847380D02*
X149785714Y-95895000D01*
X149785714Y-95895000D02*
X149833333Y-95942619D01*
X150404762Y-96275952D02*
X150309524Y-96228333D01*
X150309524Y-96228333D02*
X150261905Y-96180714D01*
X150261905Y-96180714D02*
X150214286Y-96085476D01*
X150214286Y-96085476D02*
X150214286Y-96037857D01*
X150214286Y-96037857D02*
X150261905Y-95942619D01*
X150261905Y-95942619D02*
X150309524Y-95895000D01*
X150309524Y-95895000D02*
X150404762Y-95847380D01*
X150404762Y-95847380D02*
X150595238Y-95847380D01*
X150595238Y-95847380D02*
X150690476Y-95895000D01*
X150690476Y-95895000D02*
X150738095Y-95942619D01*
X150738095Y-95942619D02*
X150785714Y-96037857D01*
X150785714Y-96037857D02*
X150785714Y-96085476D01*
X150785714Y-96085476D02*
X150738095Y-96180714D01*
X150738095Y-96180714D02*
X150690476Y-96228333D01*
X150690476Y-96228333D02*
X150595238Y-96275952D01*
X150595238Y-96275952D02*
X150404762Y-96275952D01*
X150404762Y-96275952D02*
X150309524Y-96323571D01*
X150309524Y-96323571D02*
X150261905Y-96371190D01*
X150261905Y-96371190D02*
X150214286Y-96466428D01*
X150214286Y-96466428D02*
X150214286Y-96656904D01*
X150214286Y-96656904D02*
X150261905Y-96752142D01*
X150261905Y-96752142D02*
X150309524Y-96799761D01*
X150309524Y-96799761D02*
X150404762Y-96847380D01*
X150404762Y-96847380D02*
X150595238Y-96847380D01*
X150595238Y-96847380D02*
X150690476Y-96799761D01*
X150690476Y-96799761D02*
X150738095Y-96752142D01*
X150738095Y-96752142D02*
X150785714Y-96656904D01*
X150785714Y-96656904D02*
X150785714Y-96466428D01*
X150785714Y-96466428D02*
X150738095Y-96371190D01*
X150738095Y-96371190D02*
X150690476Y-96323571D01*
X150690476Y-96323571D02*
X150595238Y-96275952D01*
%TO.C,SW3*%
X139930238Y-89541667D02*
X139882619Y-89684524D01*
X139882619Y-89684524D02*
X139882619Y-89922619D01*
X139882619Y-89922619D02*
X139930238Y-90017857D01*
X139930238Y-90017857D02*
X139977857Y-90065476D01*
X139977857Y-90065476D02*
X140073095Y-90113095D01*
X140073095Y-90113095D02*
X140168333Y-90113095D01*
X140168333Y-90113095D02*
X140263571Y-90065476D01*
X140263571Y-90065476D02*
X140311190Y-90017857D01*
X140311190Y-90017857D02*
X140358809Y-89922619D01*
X140358809Y-89922619D02*
X140406428Y-89732143D01*
X140406428Y-89732143D02*
X140454047Y-89636905D01*
X140454047Y-89636905D02*
X140501666Y-89589286D01*
X140501666Y-89589286D02*
X140596904Y-89541667D01*
X140596904Y-89541667D02*
X140692142Y-89541667D01*
X140692142Y-89541667D02*
X140787380Y-89589286D01*
X140787380Y-89589286D02*
X140835000Y-89636905D01*
X140835000Y-89636905D02*
X140882619Y-89732143D01*
X140882619Y-89732143D02*
X140882619Y-89970238D01*
X140882619Y-89970238D02*
X140835000Y-90113095D01*
X140882619Y-90446429D02*
X139882619Y-90684524D01*
X139882619Y-90684524D02*
X140596904Y-90875000D01*
X140596904Y-90875000D02*
X139882619Y-91065476D01*
X139882619Y-91065476D02*
X140882619Y-91303572D01*
X140882619Y-91589286D02*
X140882619Y-92208333D01*
X140882619Y-92208333D02*
X140501666Y-91875000D01*
X140501666Y-91875000D02*
X140501666Y-92017857D01*
X140501666Y-92017857D02*
X140454047Y-92113095D01*
X140454047Y-92113095D02*
X140406428Y-92160714D01*
X140406428Y-92160714D02*
X140311190Y-92208333D01*
X140311190Y-92208333D02*
X140073095Y-92208333D01*
X140073095Y-92208333D02*
X139977857Y-92160714D01*
X139977857Y-92160714D02*
X139930238Y-92113095D01*
X139930238Y-92113095D02*
X139882619Y-92017857D01*
X139882619Y-92017857D02*
X139882619Y-91732143D01*
X139882619Y-91732143D02*
X139930238Y-91636905D01*
X139930238Y-91636905D02*
X139977857Y-91589286D01*
%TO.C,OLED1*%
X181392619Y-85546428D02*
X181392619Y-85736904D01*
X181392619Y-85736904D02*
X181345000Y-85832142D01*
X181345000Y-85832142D02*
X181249761Y-85927380D01*
X181249761Y-85927380D02*
X181059285Y-85974999D01*
X181059285Y-85974999D02*
X180725952Y-85974999D01*
X180725952Y-85974999D02*
X180535476Y-85927380D01*
X180535476Y-85927380D02*
X180440238Y-85832142D01*
X180440238Y-85832142D02*
X180392619Y-85736904D01*
X180392619Y-85736904D02*
X180392619Y-85546428D01*
X180392619Y-85546428D02*
X180440238Y-85451190D01*
X180440238Y-85451190D02*
X180535476Y-85355952D01*
X180535476Y-85355952D02*
X180725952Y-85308333D01*
X180725952Y-85308333D02*
X181059285Y-85308333D01*
X181059285Y-85308333D02*
X181249761Y-85355952D01*
X181249761Y-85355952D02*
X181345000Y-85451190D01*
X181345000Y-85451190D02*
X181392619Y-85546428D01*
X180392619Y-86879761D02*
X180392619Y-86403571D01*
X180392619Y-86403571D02*
X181392619Y-86403571D01*
X180916428Y-87213095D02*
X180916428Y-87546428D01*
X180392619Y-87689285D02*
X180392619Y-87213095D01*
X180392619Y-87213095D02*
X181392619Y-87213095D01*
X181392619Y-87213095D02*
X181392619Y-87689285D01*
X180392619Y-88117857D02*
X181392619Y-88117857D01*
X181392619Y-88117857D02*
X181392619Y-88355952D01*
X181392619Y-88355952D02*
X181345000Y-88498809D01*
X181345000Y-88498809D02*
X181249761Y-88594047D01*
X181249761Y-88594047D02*
X181154523Y-88641666D01*
X181154523Y-88641666D02*
X180964047Y-88689285D01*
X180964047Y-88689285D02*
X180821190Y-88689285D01*
X180821190Y-88689285D02*
X180630714Y-88641666D01*
X180630714Y-88641666D02*
X180535476Y-88594047D01*
X180535476Y-88594047D02*
X180440238Y-88498809D01*
X180440238Y-88498809D02*
X180392619Y-88355952D01*
X180392619Y-88355952D02*
X180392619Y-88117857D01*
X180392619Y-89641666D02*
X180392619Y-89070238D01*
X180392619Y-89355952D02*
X181392619Y-89355952D01*
X181392619Y-89355952D02*
X181249761Y-89260714D01*
X181249761Y-89260714D02*
X181154523Y-89165476D01*
X181154523Y-89165476D02*
X181106904Y-89070238D01*
%TO.C,C7*%
X150742142Y-86291666D02*
X150789761Y-86339285D01*
X150789761Y-86339285D02*
X150837380Y-86482142D01*
X150837380Y-86482142D02*
X150837380Y-86577380D01*
X150837380Y-86577380D02*
X150789761Y-86720237D01*
X150789761Y-86720237D02*
X150694523Y-86815475D01*
X150694523Y-86815475D02*
X150599285Y-86863094D01*
X150599285Y-86863094D02*
X150408809Y-86910713D01*
X150408809Y-86910713D02*
X150265952Y-86910713D01*
X150265952Y-86910713D02*
X150075476Y-86863094D01*
X150075476Y-86863094D02*
X149980238Y-86815475D01*
X149980238Y-86815475D02*
X149885000Y-86720237D01*
X149885000Y-86720237D02*
X149837380Y-86577380D01*
X149837380Y-86577380D02*
X149837380Y-86482142D01*
X149837380Y-86482142D02*
X149885000Y-86339285D01*
X149885000Y-86339285D02*
X149932619Y-86291666D01*
X149837380Y-85958332D02*
X149837380Y-85291666D01*
X149837380Y-85291666D02*
X150837380Y-85720237D01*
%TO.C,C9*%
X157083333Y-96752142D02*
X157035714Y-96799761D01*
X157035714Y-96799761D02*
X156892857Y-96847380D01*
X156892857Y-96847380D02*
X156797619Y-96847380D01*
X156797619Y-96847380D02*
X156654762Y-96799761D01*
X156654762Y-96799761D02*
X156559524Y-96704523D01*
X156559524Y-96704523D02*
X156511905Y-96609285D01*
X156511905Y-96609285D02*
X156464286Y-96418809D01*
X156464286Y-96418809D02*
X156464286Y-96275952D01*
X156464286Y-96275952D02*
X156511905Y-96085476D01*
X156511905Y-96085476D02*
X156559524Y-95990238D01*
X156559524Y-95990238D02*
X156654762Y-95895000D01*
X156654762Y-95895000D02*
X156797619Y-95847380D01*
X156797619Y-95847380D02*
X156892857Y-95847380D01*
X156892857Y-95847380D02*
X157035714Y-95895000D01*
X157035714Y-95895000D02*
X157083333Y-95942619D01*
X157559524Y-96847380D02*
X157750000Y-96847380D01*
X157750000Y-96847380D02*
X157845238Y-96799761D01*
X157845238Y-96799761D02*
X157892857Y-96752142D01*
X157892857Y-96752142D02*
X157988095Y-96609285D01*
X157988095Y-96609285D02*
X158035714Y-96418809D01*
X158035714Y-96418809D02*
X158035714Y-96037857D01*
X158035714Y-96037857D02*
X157988095Y-95942619D01*
X157988095Y-95942619D02*
X157940476Y-95895000D01*
X157940476Y-95895000D02*
X157845238Y-95847380D01*
X157845238Y-95847380D02*
X157654762Y-95847380D01*
X157654762Y-95847380D02*
X157559524Y-95895000D01*
X157559524Y-95895000D02*
X157511905Y-95942619D01*
X157511905Y-95942619D02*
X157464286Y-96037857D01*
X157464286Y-96037857D02*
X157464286Y-96275952D01*
X157464286Y-96275952D02*
X157511905Y-96371190D01*
X157511905Y-96371190D02*
X157559524Y-96418809D01*
X157559524Y-96418809D02*
X157654762Y-96466428D01*
X157654762Y-96466428D02*
X157845238Y-96466428D01*
X157845238Y-96466428D02*
X157940476Y-96418809D01*
X157940476Y-96418809D02*
X157988095Y-96371190D01*
X157988095Y-96371190D02*
X158035714Y-96275952D01*
%TO.C,C29*%
X159857142Y-96752142D02*
X159809523Y-96799761D01*
X159809523Y-96799761D02*
X159666666Y-96847380D01*
X159666666Y-96847380D02*
X159571428Y-96847380D01*
X159571428Y-96847380D02*
X159428571Y-96799761D01*
X159428571Y-96799761D02*
X159333333Y-96704523D01*
X159333333Y-96704523D02*
X159285714Y-96609285D01*
X159285714Y-96609285D02*
X159238095Y-96418809D01*
X159238095Y-96418809D02*
X159238095Y-96275952D01*
X159238095Y-96275952D02*
X159285714Y-96085476D01*
X159285714Y-96085476D02*
X159333333Y-95990238D01*
X159333333Y-95990238D02*
X159428571Y-95895000D01*
X159428571Y-95895000D02*
X159571428Y-95847380D01*
X159571428Y-95847380D02*
X159666666Y-95847380D01*
X159666666Y-95847380D02*
X159809523Y-95895000D01*
X159809523Y-95895000D02*
X159857142Y-95942619D01*
X160238095Y-95942619D02*
X160285714Y-95895000D01*
X160285714Y-95895000D02*
X160380952Y-95847380D01*
X160380952Y-95847380D02*
X160619047Y-95847380D01*
X160619047Y-95847380D02*
X160714285Y-95895000D01*
X160714285Y-95895000D02*
X160761904Y-95942619D01*
X160761904Y-95942619D02*
X160809523Y-96037857D01*
X160809523Y-96037857D02*
X160809523Y-96133095D01*
X160809523Y-96133095D02*
X160761904Y-96275952D01*
X160761904Y-96275952D02*
X160190476Y-96847380D01*
X160190476Y-96847380D02*
X160809523Y-96847380D01*
X161285714Y-96847380D02*
X161476190Y-96847380D01*
X161476190Y-96847380D02*
X161571428Y-96799761D01*
X161571428Y-96799761D02*
X161619047Y-96752142D01*
X161619047Y-96752142D02*
X161714285Y-96609285D01*
X161714285Y-96609285D02*
X161761904Y-96418809D01*
X161761904Y-96418809D02*
X161761904Y-96037857D01*
X161761904Y-96037857D02*
X161714285Y-95942619D01*
X161714285Y-95942619D02*
X161666666Y-95895000D01*
X161666666Y-95895000D02*
X161571428Y-95847380D01*
X161571428Y-95847380D02*
X161380952Y-95847380D01*
X161380952Y-95847380D02*
X161285714Y-95895000D01*
X161285714Y-95895000D02*
X161238095Y-95942619D01*
X161238095Y-95942619D02*
X161190476Y-96037857D01*
X161190476Y-96037857D02*
X161190476Y-96275952D01*
X161190476Y-96275952D02*
X161238095Y-96371190D01*
X161238095Y-96371190D02*
X161285714Y-96418809D01*
X161285714Y-96418809D02*
X161380952Y-96466428D01*
X161380952Y-96466428D02*
X161571428Y-96466428D01*
X161571428Y-96466428D02*
X161666666Y-96418809D01*
X161666666Y-96418809D02*
X161714285Y-96371190D01*
X161714285Y-96371190D02*
X161761904Y-96275952D01*
%TO.C,C18*%
X174372142Y-94867857D02*
X174419761Y-94915476D01*
X174419761Y-94915476D02*
X174467380Y-95058333D01*
X174467380Y-95058333D02*
X174467380Y-95153571D01*
X174467380Y-95153571D02*
X174419761Y-95296428D01*
X174419761Y-95296428D02*
X174324523Y-95391666D01*
X174324523Y-95391666D02*
X174229285Y-95439285D01*
X174229285Y-95439285D02*
X174038809Y-95486904D01*
X174038809Y-95486904D02*
X173895952Y-95486904D01*
X173895952Y-95486904D02*
X173705476Y-95439285D01*
X173705476Y-95439285D02*
X173610238Y-95391666D01*
X173610238Y-95391666D02*
X173515000Y-95296428D01*
X173515000Y-95296428D02*
X173467380Y-95153571D01*
X173467380Y-95153571D02*
X173467380Y-95058333D01*
X173467380Y-95058333D02*
X173515000Y-94915476D01*
X173515000Y-94915476D02*
X173562619Y-94867857D01*
X174467380Y-93915476D02*
X174467380Y-94486904D01*
X174467380Y-94201190D02*
X173467380Y-94201190D01*
X173467380Y-94201190D02*
X173610238Y-94296428D01*
X173610238Y-94296428D02*
X173705476Y-94391666D01*
X173705476Y-94391666D02*
X173753095Y-94486904D01*
X173895952Y-93344047D02*
X173848333Y-93439285D01*
X173848333Y-93439285D02*
X173800714Y-93486904D01*
X173800714Y-93486904D02*
X173705476Y-93534523D01*
X173705476Y-93534523D02*
X173657857Y-93534523D01*
X173657857Y-93534523D02*
X173562619Y-93486904D01*
X173562619Y-93486904D02*
X173515000Y-93439285D01*
X173515000Y-93439285D02*
X173467380Y-93344047D01*
X173467380Y-93344047D02*
X173467380Y-93153571D01*
X173467380Y-93153571D02*
X173515000Y-93058333D01*
X173515000Y-93058333D02*
X173562619Y-93010714D01*
X173562619Y-93010714D02*
X173657857Y-92963095D01*
X173657857Y-92963095D02*
X173705476Y-92963095D01*
X173705476Y-92963095D02*
X173800714Y-93010714D01*
X173800714Y-93010714D02*
X173848333Y-93058333D01*
X173848333Y-93058333D02*
X173895952Y-93153571D01*
X173895952Y-93153571D02*
X173895952Y-93344047D01*
X173895952Y-93344047D02*
X173943571Y-93439285D01*
X173943571Y-93439285D02*
X173991190Y-93486904D01*
X173991190Y-93486904D02*
X174086428Y-93534523D01*
X174086428Y-93534523D02*
X174276904Y-93534523D01*
X174276904Y-93534523D02*
X174372142Y-93486904D01*
X174372142Y-93486904D02*
X174419761Y-93439285D01*
X174419761Y-93439285D02*
X174467380Y-93344047D01*
X174467380Y-93344047D02*
X174467380Y-93153571D01*
X174467380Y-93153571D02*
X174419761Y-93058333D01*
X174419761Y-93058333D02*
X174372142Y-93010714D01*
X174372142Y-93010714D02*
X174276904Y-92963095D01*
X174276904Y-92963095D02*
X174086428Y-92963095D01*
X174086428Y-92963095D02*
X173991190Y-93010714D01*
X173991190Y-93010714D02*
X173943571Y-93058333D01*
X173943571Y-93058333D02*
X173895952Y-93153571D01*
%TO.C,R24*%
X183242380Y-94442857D02*
X182766190Y-94776190D01*
X183242380Y-95014285D02*
X182242380Y-95014285D01*
X182242380Y-95014285D02*
X182242380Y-94633333D01*
X182242380Y-94633333D02*
X182290000Y-94538095D01*
X182290000Y-94538095D02*
X182337619Y-94490476D01*
X182337619Y-94490476D02*
X182432857Y-94442857D01*
X182432857Y-94442857D02*
X182575714Y-94442857D01*
X182575714Y-94442857D02*
X182670952Y-94490476D01*
X182670952Y-94490476D02*
X182718571Y-94538095D01*
X182718571Y-94538095D02*
X182766190Y-94633333D01*
X182766190Y-94633333D02*
X182766190Y-95014285D01*
X182337619Y-94061904D02*
X182290000Y-94014285D01*
X182290000Y-94014285D02*
X182242380Y-93919047D01*
X182242380Y-93919047D02*
X182242380Y-93680952D01*
X182242380Y-93680952D02*
X182290000Y-93585714D01*
X182290000Y-93585714D02*
X182337619Y-93538095D01*
X182337619Y-93538095D02*
X182432857Y-93490476D01*
X182432857Y-93490476D02*
X182528095Y-93490476D01*
X182528095Y-93490476D02*
X182670952Y-93538095D01*
X182670952Y-93538095D02*
X183242380Y-94109523D01*
X183242380Y-94109523D02*
X183242380Y-93490476D01*
X182575714Y-92633333D02*
X183242380Y-92633333D01*
X182194761Y-92871428D02*
X182909047Y-93109523D01*
X182909047Y-93109523D02*
X182909047Y-92490476D01*
%TO.C,SW1*%
X147180238Y-89616667D02*
X147132619Y-89759524D01*
X147132619Y-89759524D02*
X147132619Y-89997619D01*
X147132619Y-89997619D02*
X147180238Y-90092857D01*
X147180238Y-90092857D02*
X147227857Y-90140476D01*
X147227857Y-90140476D02*
X147323095Y-90188095D01*
X147323095Y-90188095D02*
X147418333Y-90188095D01*
X147418333Y-90188095D02*
X147513571Y-90140476D01*
X147513571Y-90140476D02*
X147561190Y-90092857D01*
X147561190Y-90092857D02*
X147608809Y-89997619D01*
X147608809Y-89997619D02*
X147656428Y-89807143D01*
X147656428Y-89807143D02*
X147704047Y-89711905D01*
X147704047Y-89711905D02*
X147751666Y-89664286D01*
X147751666Y-89664286D02*
X147846904Y-89616667D01*
X147846904Y-89616667D02*
X147942142Y-89616667D01*
X147942142Y-89616667D02*
X148037380Y-89664286D01*
X148037380Y-89664286D02*
X148085000Y-89711905D01*
X148085000Y-89711905D02*
X148132619Y-89807143D01*
X148132619Y-89807143D02*
X148132619Y-90045238D01*
X148132619Y-90045238D02*
X148085000Y-90188095D01*
X148132619Y-90521429D02*
X147132619Y-90759524D01*
X147132619Y-90759524D02*
X147846904Y-90950000D01*
X147846904Y-90950000D02*
X147132619Y-91140476D01*
X147132619Y-91140476D02*
X148132619Y-91378572D01*
X147132619Y-92283333D02*
X147132619Y-91711905D01*
X147132619Y-91997619D02*
X148132619Y-91997619D01*
X148132619Y-91997619D02*
X147989761Y-91902381D01*
X147989761Y-91902381D02*
X147894523Y-91807143D01*
X147894523Y-91807143D02*
X147846904Y-91711905D01*
%TO.C,SW4*%
X158180238Y-85291667D02*
X158132619Y-85434524D01*
X158132619Y-85434524D02*
X158132619Y-85672619D01*
X158132619Y-85672619D02*
X158180238Y-85767857D01*
X158180238Y-85767857D02*
X158227857Y-85815476D01*
X158227857Y-85815476D02*
X158323095Y-85863095D01*
X158323095Y-85863095D02*
X158418333Y-85863095D01*
X158418333Y-85863095D02*
X158513571Y-85815476D01*
X158513571Y-85815476D02*
X158561190Y-85767857D01*
X158561190Y-85767857D02*
X158608809Y-85672619D01*
X158608809Y-85672619D02*
X158656428Y-85482143D01*
X158656428Y-85482143D02*
X158704047Y-85386905D01*
X158704047Y-85386905D02*
X158751666Y-85339286D01*
X158751666Y-85339286D02*
X158846904Y-85291667D01*
X158846904Y-85291667D02*
X158942142Y-85291667D01*
X158942142Y-85291667D02*
X159037380Y-85339286D01*
X159037380Y-85339286D02*
X159085000Y-85386905D01*
X159085000Y-85386905D02*
X159132619Y-85482143D01*
X159132619Y-85482143D02*
X159132619Y-85720238D01*
X159132619Y-85720238D02*
X159085000Y-85863095D01*
X159132619Y-86196429D02*
X158132619Y-86434524D01*
X158132619Y-86434524D02*
X158846904Y-86625000D01*
X158846904Y-86625000D02*
X158132619Y-86815476D01*
X158132619Y-86815476D02*
X159132619Y-87053572D01*
X158799285Y-87863095D02*
X158132619Y-87863095D01*
X159180238Y-87625000D02*
X158465952Y-87386905D01*
X158465952Y-87386905D02*
X158465952Y-88005952D01*
%TO.C,C24*%
X208507142Y-83397142D02*
X208459523Y-83444761D01*
X208459523Y-83444761D02*
X208316666Y-83492380D01*
X208316666Y-83492380D02*
X208221428Y-83492380D01*
X208221428Y-83492380D02*
X208078571Y-83444761D01*
X208078571Y-83444761D02*
X207983333Y-83349523D01*
X207983333Y-83349523D02*
X207935714Y-83254285D01*
X207935714Y-83254285D02*
X207888095Y-83063809D01*
X207888095Y-83063809D02*
X207888095Y-82920952D01*
X207888095Y-82920952D02*
X207935714Y-82730476D01*
X207935714Y-82730476D02*
X207983333Y-82635238D01*
X207983333Y-82635238D02*
X208078571Y-82540000D01*
X208078571Y-82540000D02*
X208221428Y-82492380D01*
X208221428Y-82492380D02*
X208316666Y-82492380D01*
X208316666Y-82492380D02*
X208459523Y-82540000D01*
X208459523Y-82540000D02*
X208507142Y-82587619D01*
X208888095Y-82587619D02*
X208935714Y-82540000D01*
X208935714Y-82540000D02*
X209030952Y-82492380D01*
X209030952Y-82492380D02*
X209269047Y-82492380D01*
X209269047Y-82492380D02*
X209364285Y-82540000D01*
X209364285Y-82540000D02*
X209411904Y-82587619D01*
X209411904Y-82587619D02*
X209459523Y-82682857D01*
X209459523Y-82682857D02*
X209459523Y-82778095D01*
X209459523Y-82778095D02*
X209411904Y-82920952D01*
X209411904Y-82920952D02*
X208840476Y-83492380D01*
X208840476Y-83492380D02*
X209459523Y-83492380D01*
X210316666Y-82825714D02*
X210316666Y-83492380D01*
X210078571Y-82444761D02*
X209840476Y-83159047D01*
X209840476Y-83159047D02*
X210459523Y-83159047D01*
%TO.C,SW2*%
X154430238Y-89591667D02*
X154382619Y-89734524D01*
X154382619Y-89734524D02*
X154382619Y-89972619D01*
X154382619Y-89972619D02*
X154430238Y-90067857D01*
X154430238Y-90067857D02*
X154477857Y-90115476D01*
X154477857Y-90115476D02*
X154573095Y-90163095D01*
X154573095Y-90163095D02*
X154668333Y-90163095D01*
X154668333Y-90163095D02*
X154763571Y-90115476D01*
X154763571Y-90115476D02*
X154811190Y-90067857D01*
X154811190Y-90067857D02*
X154858809Y-89972619D01*
X154858809Y-89972619D02*
X154906428Y-89782143D01*
X154906428Y-89782143D02*
X154954047Y-89686905D01*
X154954047Y-89686905D02*
X155001666Y-89639286D01*
X155001666Y-89639286D02*
X155096904Y-89591667D01*
X155096904Y-89591667D02*
X155192142Y-89591667D01*
X155192142Y-89591667D02*
X155287380Y-89639286D01*
X155287380Y-89639286D02*
X155335000Y-89686905D01*
X155335000Y-89686905D02*
X155382619Y-89782143D01*
X155382619Y-89782143D02*
X155382619Y-90020238D01*
X155382619Y-90020238D02*
X155335000Y-90163095D01*
X155382619Y-90496429D02*
X154382619Y-90734524D01*
X154382619Y-90734524D02*
X155096904Y-90925000D01*
X155096904Y-90925000D02*
X154382619Y-91115476D01*
X154382619Y-91115476D02*
X155382619Y-91353572D01*
X155287380Y-91686905D02*
X155335000Y-91734524D01*
X155335000Y-91734524D02*
X155382619Y-91829762D01*
X155382619Y-91829762D02*
X155382619Y-92067857D01*
X155382619Y-92067857D02*
X155335000Y-92163095D01*
X155335000Y-92163095D02*
X155287380Y-92210714D01*
X155287380Y-92210714D02*
X155192142Y-92258333D01*
X155192142Y-92258333D02*
X155096904Y-92258333D01*
X155096904Y-92258333D02*
X154954047Y-92210714D01*
X154954047Y-92210714D02*
X154382619Y-91639286D01*
X154382619Y-91639286D02*
X154382619Y-92258333D01*
%TO.C,C10*%
X142132142Y-96777142D02*
X142084523Y-96824761D01*
X142084523Y-96824761D02*
X141941666Y-96872380D01*
X141941666Y-96872380D02*
X141846428Y-96872380D01*
X141846428Y-96872380D02*
X141703571Y-96824761D01*
X141703571Y-96824761D02*
X141608333Y-96729523D01*
X141608333Y-96729523D02*
X141560714Y-96634285D01*
X141560714Y-96634285D02*
X141513095Y-96443809D01*
X141513095Y-96443809D02*
X141513095Y-96300952D01*
X141513095Y-96300952D02*
X141560714Y-96110476D01*
X141560714Y-96110476D02*
X141608333Y-96015238D01*
X141608333Y-96015238D02*
X141703571Y-95920000D01*
X141703571Y-95920000D02*
X141846428Y-95872380D01*
X141846428Y-95872380D02*
X141941666Y-95872380D01*
X141941666Y-95872380D02*
X142084523Y-95920000D01*
X142084523Y-95920000D02*
X142132142Y-95967619D01*
X143084523Y-96872380D02*
X142513095Y-96872380D01*
X142798809Y-96872380D02*
X142798809Y-95872380D01*
X142798809Y-95872380D02*
X142703571Y-96015238D01*
X142703571Y-96015238D02*
X142608333Y-96110476D01*
X142608333Y-96110476D02*
X142513095Y-96158095D01*
X143703571Y-95872380D02*
X143798809Y-95872380D01*
X143798809Y-95872380D02*
X143894047Y-95920000D01*
X143894047Y-95920000D02*
X143941666Y-95967619D01*
X143941666Y-95967619D02*
X143989285Y-96062857D01*
X143989285Y-96062857D02*
X144036904Y-96253333D01*
X144036904Y-96253333D02*
X144036904Y-96491428D01*
X144036904Y-96491428D02*
X143989285Y-96681904D01*
X143989285Y-96681904D02*
X143941666Y-96777142D01*
X143941666Y-96777142D02*
X143894047Y-96824761D01*
X143894047Y-96824761D02*
X143798809Y-96872380D01*
X143798809Y-96872380D02*
X143703571Y-96872380D01*
X143703571Y-96872380D02*
X143608333Y-96824761D01*
X143608333Y-96824761D02*
X143560714Y-96777142D01*
X143560714Y-96777142D02*
X143513095Y-96681904D01*
X143513095Y-96681904D02*
X143465476Y-96491428D01*
X143465476Y-96491428D02*
X143465476Y-96253333D01*
X143465476Y-96253333D02*
X143513095Y-96062857D01*
X143513095Y-96062857D02*
X143560714Y-95967619D01*
X143560714Y-95967619D02*
X143608333Y-95920000D01*
X143608333Y-95920000D02*
X143703571Y-95872380D01*
%TO.C,Q6*%
X211862619Y-96195238D02*
X211815000Y-96290476D01*
X211815000Y-96290476D02*
X211719761Y-96385714D01*
X211719761Y-96385714D02*
X211576904Y-96528571D01*
X211576904Y-96528571D02*
X211529285Y-96623809D01*
X211529285Y-96623809D02*
X211529285Y-96719047D01*
X211767380Y-96671428D02*
X211719761Y-96766666D01*
X211719761Y-96766666D02*
X211624523Y-96861904D01*
X211624523Y-96861904D02*
X211434047Y-96909523D01*
X211434047Y-96909523D02*
X211100714Y-96909523D01*
X211100714Y-96909523D02*
X210910238Y-96861904D01*
X210910238Y-96861904D02*
X210815000Y-96766666D01*
X210815000Y-96766666D02*
X210767380Y-96671428D01*
X210767380Y-96671428D02*
X210767380Y-96480952D01*
X210767380Y-96480952D02*
X210815000Y-96385714D01*
X210815000Y-96385714D02*
X210910238Y-96290476D01*
X210910238Y-96290476D02*
X211100714Y-96242857D01*
X211100714Y-96242857D02*
X211434047Y-96242857D01*
X211434047Y-96242857D02*
X211624523Y-96290476D01*
X211624523Y-96290476D02*
X211719761Y-96385714D01*
X211719761Y-96385714D02*
X211767380Y-96480952D01*
X211767380Y-96480952D02*
X211767380Y-96671428D01*
X210767380Y-95385714D02*
X210767380Y-95576190D01*
X210767380Y-95576190D02*
X210815000Y-95671428D01*
X210815000Y-95671428D02*
X210862619Y-95719047D01*
X210862619Y-95719047D02*
X211005476Y-95814285D01*
X211005476Y-95814285D02*
X211195952Y-95861904D01*
X211195952Y-95861904D02*
X211576904Y-95861904D01*
X211576904Y-95861904D02*
X211672142Y-95814285D01*
X211672142Y-95814285D02*
X211719761Y-95766666D01*
X211719761Y-95766666D02*
X211767380Y-95671428D01*
X211767380Y-95671428D02*
X211767380Y-95480952D01*
X211767380Y-95480952D02*
X211719761Y-95385714D01*
X211719761Y-95385714D02*
X211672142Y-95338095D01*
X211672142Y-95338095D02*
X211576904Y-95290476D01*
X211576904Y-95290476D02*
X211338809Y-95290476D01*
X211338809Y-95290476D02*
X211243571Y-95338095D01*
X211243571Y-95338095D02*
X211195952Y-95385714D01*
X211195952Y-95385714D02*
X211148333Y-95480952D01*
X211148333Y-95480952D02*
X211148333Y-95671428D01*
X211148333Y-95671428D02*
X211195952Y-95766666D01*
X211195952Y-95766666D02*
X211243571Y-95814285D01*
X211243571Y-95814285D02*
X211338809Y-95861904D01*
%TO.C,R18*%
X211632142Y-91492380D02*
X211298809Y-91016190D01*
X211060714Y-91492380D02*
X211060714Y-90492380D01*
X211060714Y-90492380D02*
X211441666Y-90492380D01*
X211441666Y-90492380D02*
X211536904Y-90540000D01*
X211536904Y-90540000D02*
X211584523Y-90587619D01*
X211584523Y-90587619D02*
X211632142Y-90682857D01*
X211632142Y-90682857D02*
X211632142Y-90825714D01*
X211632142Y-90825714D02*
X211584523Y-90920952D01*
X211584523Y-90920952D02*
X211536904Y-90968571D01*
X211536904Y-90968571D02*
X211441666Y-91016190D01*
X211441666Y-91016190D02*
X211060714Y-91016190D01*
X212584523Y-91492380D02*
X212013095Y-91492380D01*
X212298809Y-91492380D02*
X212298809Y-90492380D01*
X212298809Y-90492380D02*
X212203571Y-90635238D01*
X212203571Y-90635238D02*
X212108333Y-90730476D01*
X212108333Y-90730476D02*
X212013095Y-90778095D01*
X213155952Y-90920952D02*
X213060714Y-90873333D01*
X213060714Y-90873333D02*
X213013095Y-90825714D01*
X213013095Y-90825714D02*
X212965476Y-90730476D01*
X212965476Y-90730476D02*
X212965476Y-90682857D01*
X212965476Y-90682857D02*
X213013095Y-90587619D01*
X213013095Y-90587619D02*
X213060714Y-90540000D01*
X213060714Y-90540000D02*
X213155952Y-90492380D01*
X213155952Y-90492380D02*
X213346428Y-90492380D01*
X213346428Y-90492380D02*
X213441666Y-90540000D01*
X213441666Y-90540000D02*
X213489285Y-90587619D01*
X213489285Y-90587619D02*
X213536904Y-90682857D01*
X213536904Y-90682857D02*
X213536904Y-90730476D01*
X213536904Y-90730476D02*
X213489285Y-90825714D01*
X213489285Y-90825714D02*
X213441666Y-90873333D01*
X213441666Y-90873333D02*
X213346428Y-90920952D01*
X213346428Y-90920952D02*
X213155952Y-90920952D01*
X213155952Y-90920952D02*
X213060714Y-90968571D01*
X213060714Y-90968571D02*
X213013095Y-91016190D01*
X213013095Y-91016190D02*
X212965476Y-91111428D01*
X212965476Y-91111428D02*
X212965476Y-91301904D01*
X212965476Y-91301904D02*
X213013095Y-91397142D01*
X213013095Y-91397142D02*
X213060714Y-91444761D01*
X213060714Y-91444761D02*
X213155952Y-91492380D01*
X213155952Y-91492380D02*
X213346428Y-91492380D01*
X213346428Y-91492380D02*
X213441666Y-91444761D01*
X213441666Y-91444761D02*
X213489285Y-91397142D01*
X213489285Y-91397142D02*
X213536904Y-91301904D01*
X213536904Y-91301904D02*
X213536904Y-91111428D01*
X213536904Y-91111428D02*
X213489285Y-91016190D01*
X213489285Y-91016190D02*
X213441666Y-90968571D01*
X213441666Y-90968571D02*
X213346428Y-90920952D01*
%TO.C,C1*%
X206133333Y-99122142D02*
X206085714Y-99169761D01*
X206085714Y-99169761D02*
X205942857Y-99217380D01*
X205942857Y-99217380D02*
X205847619Y-99217380D01*
X205847619Y-99217380D02*
X205704762Y-99169761D01*
X205704762Y-99169761D02*
X205609524Y-99074523D01*
X205609524Y-99074523D02*
X205561905Y-98979285D01*
X205561905Y-98979285D02*
X205514286Y-98788809D01*
X205514286Y-98788809D02*
X205514286Y-98645952D01*
X205514286Y-98645952D02*
X205561905Y-98455476D01*
X205561905Y-98455476D02*
X205609524Y-98360238D01*
X205609524Y-98360238D02*
X205704762Y-98265000D01*
X205704762Y-98265000D02*
X205847619Y-98217380D01*
X205847619Y-98217380D02*
X205942857Y-98217380D01*
X205942857Y-98217380D02*
X206085714Y-98265000D01*
X206085714Y-98265000D02*
X206133333Y-98312619D01*
X207085714Y-99217380D02*
X206514286Y-99217380D01*
X206800000Y-99217380D02*
X206800000Y-98217380D01*
X206800000Y-98217380D02*
X206704762Y-98360238D01*
X206704762Y-98360238D02*
X206609524Y-98455476D01*
X206609524Y-98455476D02*
X206514286Y-98503095D01*
%TO.C,C22*%
X203092142Y-93942857D02*
X203139761Y-93990476D01*
X203139761Y-93990476D02*
X203187380Y-94133333D01*
X203187380Y-94133333D02*
X203187380Y-94228571D01*
X203187380Y-94228571D02*
X203139761Y-94371428D01*
X203139761Y-94371428D02*
X203044523Y-94466666D01*
X203044523Y-94466666D02*
X202949285Y-94514285D01*
X202949285Y-94514285D02*
X202758809Y-94561904D01*
X202758809Y-94561904D02*
X202615952Y-94561904D01*
X202615952Y-94561904D02*
X202425476Y-94514285D01*
X202425476Y-94514285D02*
X202330238Y-94466666D01*
X202330238Y-94466666D02*
X202235000Y-94371428D01*
X202235000Y-94371428D02*
X202187380Y-94228571D01*
X202187380Y-94228571D02*
X202187380Y-94133333D01*
X202187380Y-94133333D02*
X202235000Y-93990476D01*
X202235000Y-93990476D02*
X202282619Y-93942857D01*
X202282619Y-93561904D02*
X202235000Y-93514285D01*
X202235000Y-93514285D02*
X202187380Y-93419047D01*
X202187380Y-93419047D02*
X202187380Y-93180952D01*
X202187380Y-93180952D02*
X202235000Y-93085714D01*
X202235000Y-93085714D02*
X202282619Y-93038095D01*
X202282619Y-93038095D02*
X202377857Y-92990476D01*
X202377857Y-92990476D02*
X202473095Y-92990476D01*
X202473095Y-92990476D02*
X202615952Y-93038095D01*
X202615952Y-93038095D02*
X203187380Y-93609523D01*
X203187380Y-93609523D02*
X203187380Y-92990476D01*
X202282619Y-92609523D02*
X202235000Y-92561904D01*
X202235000Y-92561904D02*
X202187380Y-92466666D01*
X202187380Y-92466666D02*
X202187380Y-92228571D01*
X202187380Y-92228571D02*
X202235000Y-92133333D01*
X202235000Y-92133333D02*
X202282619Y-92085714D01*
X202282619Y-92085714D02*
X202377857Y-92038095D01*
X202377857Y-92038095D02*
X202473095Y-92038095D01*
X202473095Y-92038095D02*
X202615952Y-92085714D01*
X202615952Y-92085714D02*
X203187380Y-92657142D01*
X203187380Y-92657142D02*
X203187380Y-92038095D01*
%TO.C,R23*%
X208592380Y-86542857D02*
X208116190Y-86876190D01*
X208592380Y-87114285D02*
X207592380Y-87114285D01*
X207592380Y-87114285D02*
X207592380Y-86733333D01*
X207592380Y-86733333D02*
X207640000Y-86638095D01*
X207640000Y-86638095D02*
X207687619Y-86590476D01*
X207687619Y-86590476D02*
X207782857Y-86542857D01*
X207782857Y-86542857D02*
X207925714Y-86542857D01*
X207925714Y-86542857D02*
X208020952Y-86590476D01*
X208020952Y-86590476D02*
X208068571Y-86638095D01*
X208068571Y-86638095D02*
X208116190Y-86733333D01*
X208116190Y-86733333D02*
X208116190Y-87114285D01*
X207687619Y-86161904D02*
X207640000Y-86114285D01*
X207640000Y-86114285D02*
X207592380Y-86019047D01*
X207592380Y-86019047D02*
X207592380Y-85780952D01*
X207592380Y-85780952D02*
X207640000Y-85685714D01*
X207640000Y-85685714D02*
X207687619Y-85638095D01*
X207687619Y-85638095D02*
X207782857Y-85590476D01*
X207782857Y-85590476D02*
X207878095Y-85590476D01*
X207878095Y-85590476D02*
X208020952Y-85638095D01*
X208020952Y-85638095D02*
X208592380Y-86209523D01*
X208592380Y-86209523D02*
X208592380Y-85590476D01*
X207592380Y-85257142D02*
X207592380Y-84638095D01*
X207592380Y-84638095D02*
X207973333Y-84971428D01*
X207973333Y-84971428D02*
X207973333Y-84828571D01*
X207973333Y-84828571D02*
X208020952Y-84733333D01*
X208020952Y-84733333D02*
X208068571Y-84685714D01*
X208068571Y-84685714D02*
X208163809Y-84638095D01*
X208163809Y-84638095D02*
X208401904Y-84638095D01*
X208401904Y-84638095D02*
X208497142Y-84685714D01*
X208497142Y-84685714D02*
X208544761Y-84733333D01*
X208544761Y-84733333D02*
X208592380Y-84828571D01*
X208592380Y-84828571D02*
X208592380Y-85114285D01*
X208592380Y-85114285D02*
X208544761Y-85209523D01*
X208544761Y-85209523D02*
X208497142Y-85257142D01*
%TO.C,Q7*%
X211987619Y-92945238D02*
X211940000Y-93040476D01*
X211940000Y-93040476D02*
X211844761Y-93135714D01*
X211844761Y-93135714D02*
X211701904Y-93278571D01*
X211701904Y-93278571D02*
X211654285Y-93373809D01*
X211654285Y-93373809D02*
X211654285Y-93469047D01*
X211892380Y-93421428D02*
X211844761Y-93516666D01*
X211844761Y-93516666D02*
X211749523Y-93611904D01*
X211749523Y-93611904D02*
X211559047Y-93659523D01*
X211559047Y-93659523D02*
X211225714Y-93659523D01*
X211225714Y-93659523D02*
X211035238Y-93611904D01*
X211035238Y-93611904D02*
X210940000Y-93516666D01*
X210940000Y-93516666D02*
X210892380Y-93421428D01*
X210892380Y-93421428D02*
X210892380Y-93230952D01*
X210892380Y-93230952D02*
X210940000Y-93135714D01*
X210940000Y-93135714D02*
X211035238Y-93040476D01*
X211035238Y-93040476D02*
X211225714Y-92992857D01*
X211225714Y-92992857D02*
X211559047Y-92992857D01*
X211559047Y-92992857D02*
X211749523Y-93040476D01*
X211749523Y-93040476D02*
X211844761Y-93135714D01*
X211844761Y-93135714D02*
X211892380Y-93230952D01*
X211892380Y-93230952D02*
X211892380Y-93421428D01*
X210892380Y-92659523D02*
X210892380Y-91992857D01*
X210892380Y-91992857D02*
X211892380Y-92421428D01*
%TO.C,R3*%
X205267380Y-90966666D02*
X204791190Y-91299999D01*
X205267380Y-91538094D02*
X204267380Y-91538094D01*
X204267380Y-91538094D02*
X204267380Y-91157142D01*
X204267380Y-91157142D02*
X204315000Y-91061904D01*
X204315000Y-91061904D02*
X204362619Y-91014285D01*
X204362619Y-91014285D02*
X204457857Y-90966666D01*
X204457857Y-90966666D02*
X204600714Y-90966666D01*
X204600714Y-90966666D02*
X204695952Y-91014285D01*
X204695952Y-91014285D02*
X204743571Y-91061904D01*
X204743571Y-91061904D02*
X204791190Y-91157142D01*
X204791190Y-91157142D02*
X204791190Y-91538094D01*
X204267380Y-90633332D02*
X204267380Y-90014285D01*
X204267380Y-90014285D02*
X204648333Y-90347618D01*
X204648333Y-90347618D02*
X204648333Y-90204761D01*
X204648333Y-90204761D02*
X204695952Y-90109523D01*
X204695952Y-90109523D02*
X204743571Y-90061904D01*
X204743571Y-90061904D02*
X204838809Y-90014285D01*
X204838809Y-90014285D02*
X205076904Y-90014285D01*
X205076904Y-90014285D02*
X205172142Y-90061904D01*
X205172142Y-90061904D02*
X205219761Y-90109523D01*
X205219761Y-90109523D02*
X205267380Y-90204761D01*
X205267380Y-90204761D02*
X205267380Y-90490475D01*
X205267380Y-90490475D02*
X205219761Y-90585713D01*
X205219761Y-90585713D02*
X205172142Y-90633332D01*
%TO.C,F1*%
X214941666Y-91218571D02*
X214608333Y-91218571D01*
X214608333Y-91742380D02*
X214608333Y-90742380D01*
X214608333Y-90742380D02*
X215084523Y-90742380D01*
X215989285Y-91742380D02*
X215417857Y-91742380D01*
X215703571Y-91742380D02*
X215703571Y-90742380D01*
X215703571Y-90742380D02*
X215608333Y-90885238D01*
X215608333Y-90885238D02*
X215513095Y-90980476D01*
X215513095Y-90980476D02*
X215417857Y-91028095D01*
%TO.C,C23*%
X211632142Y-83272142D02*
X211584523Y-83319761D01*
X211584523Y-83319761D02*
X211441666Y-83367380D01*
X211441666Y-83367380D02*
X211346428Y-83367380D01*
X211346428Y-83367380D02*
X211203571Y-83319761D01*
X211203571Y-83319761D02*
X211108333Y-83224523D01*
X211108333Y-83224523D02*
X211060714Y-83129285D01*
X211060714Y-83129285D02*
X211013095Y-82938809D01*
X211013095Y-82938809D02*
X211013095Y-82795952D01*
X211013095Y-82795952D02*
X211060714Y-82605476D01*
X211060714Y-82605476D02*
X211108333Y-82510238D01*
X211108333Y-82510238D02*
X211203571Y-82415000D01*
X211203571Y-82415000D02*
X211346428Y-82367380D01*
X211346428Y-82367380D02*
X211441666Y-82367380D01*
X211441666Y-82367380D02*
X211584523Y-82415000D01*
X211584523Y-82415000D02*
X211632142Y-82462619D01*
X212013095Y-82462619D02*
X212060714Y-82415000D01*
X212060714Y-82415000D02*
X212155952Y-82367380D01*
X212155952Y-82367380D02*
X212394047Y-82367380D01*
X212394047Y-82367380D02*
X212489285Y-82415000D01*
X212489285Y-82415000D02*
X212536904Y-82462619D01*
X212536904Y-82462619D02*
X212584523Y-82557857D01*
X212584523Y-82557857D02*
X212584523Y-82653095D01*
X212584523Y-82653095D02*
X212536904Y-82795952D01*
X212536904Y-82795952D02*
X211965476Y-83367380D01*
X211965476Y-83367380D02*
X212584523Y-83367380D01*
X212917857Y-82367380D02*
X213536904Y-82367380D01*
X213536904Y-82367380D02*
X213203571Y-82748333D01*
X213203571Y-82748333D02*
X213346428Y-82748333D01*
X213346428Y-82748333D02*
X213441666Y-82795952D01*
X213441666Y-82795952D02*
X213489285Y-82843571D01*
X213489285Y-82843571D02*
X213536904Y-82938809D01*
X213536904Y-82938809D02*
X213536904Y-83176904D01*
X213536904Y-83176904D02*
X213489285Y-83272142D01*
X213489285Y-83272142D02*
X213441666Y-83319761D01*
X213441666Y-83319761D02*
X213346428Y-83367380D01*
X213346428Y-83367380D02*
X213060714Y-83367380D01*
X213060714Y-83367380D02*
X212965476Y-83319761D01*
X212965476Y-83319761D02*
X212917857Y-83272142D01*
%TO.C,FB1*%
X217141666Y-84718571D02*
X216808333Y-84718571D01*
X216808333Y-85242380D02*
X216808333Y-84242380D01*
X216808333Y-84242380D02*
X217284523Y-84242380D01*
X217998809Y-84718571D02*
X218141666Y-84766190D01*
X218141666Y-84766190D02*
X218189285Y-84813809D01*
X218189285Y-84813809D02*
X218236904Y-84909047D01*
X218236904Y-84909047D02*
X218236904Y-85051904D01*
X218236904Y-85051904D02*
X218189285Y-85147142D01*
X218189285Y-85147142D02*
X218141666Y-85194761D01*
X218141666Y-85194761D02*
X218046428Y-85242380D01*
X218046428Y-85242380D02*
X217665476Y-85242380D01*
X217665476Y-85242380D02*
X217665476Y-84242380D01*
X217665476Y-84242380D02*
X217998809Y-84242380D01*
X217998809Y-84242380D02*
X218094047Y-84290000D01*
X218094047Y-84290000D02*
X218141666Y-84337619D01*
X218141666Y-84337619D02*
X218189285Y-84432857D01*
X218189285Y-84432857D02*
X218189285Y-84528095D01*
X218189285Y-84528095D02*
X218141666Y-84623333D01*
X218141666Y-84623333D02*
X218094047Y-84670952D01*
X218094047Y-84670952D02*
X217998809Y-84718571D01*
X217998809Y-84718571D02*
X217665476Y-84718571D01*
X219189285Y-85242380D02*
X218617857Y-85242380D01*
X218903571Y-85242380D02*
X218903571Y-84242380D01*
X218903571Y-84242380D02*
X218808333Y-84385238D01*
X218808333Y-84385238D02*
X218713095Y-84480476D01*
X218713095Y-84480476D02*
X218617857Y-84528095D01*
%TO.C,R4*%
X206183333Y-89992380D02*
X205850000Y-89516190D01*
X205611905Y-89992380D02*
X205611905Y-88992380D01*
X205611905Y-88992380D02*
X205992857Y-88992380D01*
X205992857Y-88992380D02*
X206088095Y-89040000D01*
X206088095Y-89040000D02*
X206135714Y-89087619D01*
X206135714Y-89087619D02*
X206183333Y-89182857D01*
X206183333Y-89182857D02*
X206183333Y-89325714D01*
X206183333Y-89325714D02*
X206135714Y-89420952D01*
X206135714Y-89420952D02*
X206088095Y-89468571D01*
X206088095Y-89468571D02*
X205992857Y-89516190D01*
X205992857Y-89516190D02*
X205611905Y-89516190D01*
X207040476Y-89325714D02*
X207040476Y-89992380D01*
X206802381Y-88944761D02*
X206564286Y-89659047D01*
X206564286Y-89659047D02*
X207183333Y-89659047D01*
%TO.C,C21*%
X213497142Y-89467857D02*
X213544761Y-89515476D01*
X213544761Y-89515476D02*
X213592380Y-89658333D01*
X213592380Y-89658333D02*
X213592380Y-89753571D01*
X213592380Y-89753571D02*
X213544761Y-89896428D01*
X213544761Y-89896428D02*
X213449523Y-89991666D01*
X213449523Y-89991666D02*
X213354285Y-90039285D01*
X213354285Y-90039285D02*
X213163809Y-90086904D01*
X213163809Y-90086904D02*
X213020952Y-90086904D01*
X213020952Y-90086904D02*
X212830476Y-90039285D01*
X212830476Y-90039285D02*
X212735238Y-89991666D01*
X212735238Y-89991666D02*
X212640000Y-89896428D01*
X212640000Y-89896428D02*
X212592380Y-89753571D01*
X212592380Y-89753571D02*
X212592380Y-89658333D01*
X212592380Y-89658333D02*
X212640000Y-89515476D01*
X212640000Y-89515476D02*
X212687619Y-89467857D01*
X212687619Y-89086904D02*
X212640000Y-89039285D01*
X212640000Y-89039285D02*
X212592380Y-88944047D01*
X212592380Y-88944047D02*
X212592380Y-88705952D01*
X212592380Y-88705952D02*
X212640000Y-88610714D01*
X212640000Y-88610714D02*
X212687619Y-88563095D01*
X212687619Y-88563095D02*
X212782857Y-88515476D01*
X212782857Y-88515476D02*
X212878095Y-88515476D01*
X212878095Y-88515476D02*
X213020952Y-88563095D01*
X213020952Y-88563095D02*
X213592380Y-89134523D01*
X213592380Y-89134523D02*
X213592380Y-88515476D01*
X213592380Y-87563095D02*
X213592380Y-88134523D01*
X213592380Y-87848809D02*
X212592380Y-87848809D01*
X212592380Y-87848809D02*
X212735238Y-87944047D01*
X212735238Y-87944047D02*
X212830476Y-88039285D01*
X212830476Y-88039285D02*
X212878095Y-88134523D01*
%TO.C,G\u002A\u002A\u002A*%
G36*
X110768573Y-94813331D02*
G01*
X110879220Y-94825723D01*
X110972714Y-94845516D01*
X110988379Y-94850338D01*
X111043679Y-94868588D01*
X111043679Y-95028676D01*
X111041383Y-95115182D01*
X111034383Y-95168588D01*
X111022510Y-95189468D01*
X111005594Y-95178397D01*
X111001489Y-95172234D01*
X110977365Y-95155772D01*
X110929013Y-95136824D01*
X110865808Y-95117924D01*
X110797128Y-95101611D01*
X110732349Y-95090420D01*
X110685737Y-95086823D01*
X110566992Y-95102567D01*
X110458203Y-95147199D01*
X110364902Y-95216814D01*
X110292622Y-95307512D01*
X110254106Y-95391254D01*
X110235777Y-95476920D01*
X110228469Y-95581359D01*
X110231665Y-95692627D01*
X110244846Y-95798780D01*
X110267495Y-95887875D01*
X110276659Y-95910836D01*
X110339187Y-96015877D01*
X110418632Y-96092692D01*
X110513290Y-96140071D01*
X110621456Y-96156806D01*
X110623177Y-96156818D01*
X110703879Y-96157191D01*
X110703879Y-95870732D01*
X110703669Y-95765350D01*
X110702566Y-95688079D01*
X110699864Y-95633053D01*
X110694856Y-95594404D01*
X110686835Y-95566265D01*
X110675095Y-95542768D01*
X110661916Y-95522438D01*
X110619953Y-95460602D01*
X110798680Y-95460602D01*
X110902851Y-95463319D01*
X110979662Y-95472690D01*
X111035390Y-95490551D01*
X111076312Y-95518734D01*
X111102112Y-95549235D01*
X111110932Y-95566788D01*
X111117620Y-95593845D01*
X111122447Y-95634734D01*
X111125687Y-95693781D01*
X111127610Y-95775316D01*
X111128488Y-95883665D01*
X111128628Y-95971163D01*
X111128628Y-96355234D01*
X111039431Y-96377589D01*
X110972995Y-96389205D01*
X110883580Y-96397903D01*
X110780107Y-96403534D01*
X110671497Y-96405948D01*
X110566672Y-96404995D01*
X110474552Y-96400526D01*
X110404058Y-96392393D01*
X110385694Y-96388539D01*
X110229767Y-96333021D01*
X110091476Y-96250936D01*
X109974234Y-96145024D01*
X109881451Y-96018022D01*
X109850643Y-95959149D01*
X109824737Y-95899254D01*
X109807952Y-95845456D01*
X109797764Y-95785861D01*
X109791645Y-95708574D01*
X109789912Y-95673222D01*
X109787815Y-95571895D01*
X109792445Y-95492681D01*
X109804686Y-95424223D01*
X109811151Y-95399937D01*
X109871511Y-95247653D01*
X109958445Y-95115416D01*
X110070051Y-95004732D01*
X110204428Y-94917105D01*
X110359676Y-94854041D01*
X110533893Y-94817044D01*
X110549941Y-94815101D01*
X110654303Y-94809428D01*
X110768573Y-94813331D01*
G37*
G36*
X108123925Y-95736689D02*
G01*
X108427563Y-95736689D01*
X108443138Y-95742269D01*
X108485174Y-95746608D01*
X108546157Y-95749085D01*
X108581951Y-95749431D01*
X108658445Y-95748226D01*
X108705319Y-95744196D01*
X108726858Y-95736722D01*
X108728864Y-95728194D01*
X108720851Y-95704932D01*
X108704353Y-95656025D01*
X108681587Y-95588076D01*
X108654770Y-95507691D01*
X108647580Y-95486087D01*
X108574111Y-95265217D01*
X108501007Y-95494582D01*
X108474718Y-95577847D01*
X108452575Y-95649473D01*
X108436454Y-95703277D01*
X108428229Y-95733079D01*
X108427563Y-95736689D01*
X108123925Y-95736689D01*
X108138394Y-95693846D01*
X108186612Y-95549919D01*
X108231199Y-95414309D01*
X108270981Y-95290773D01*
X108304788Y-95183065D01*
X108331446Y-95094938D01*
X108349784Y-95030149D01*
X108358628Y-94992452D01*
X108359264Y-94986460D01*
X108342982Y-94924392D01*
X108317561Y-94890666D01*
X108275859Y-94848963D01*
X108527645Y-94848963D01*
X108626587Y-94849345D01*
X108697639Y-94850977D01*
X108746887Y-94854584D01*
X108780415Y-94860896D01*
X108804310Y-94870638D01*
X108824536Y-94884443D01*
X108865684Y-94926273D01*
X108895605Y-94970131D01*
X108906029Y-94995074D01*
X108925983Y-95047189D01*
X108954020Y-95122434D01*
X108988689Y-95216762D01*
X109028543Y-95326131D01*
X109072132Y-95446495D01*
X109118007Y-95573810D01*
X109164720Y-95704031D01*
X109210822Y-95833115D01*
X109254864Y-95957016D01*
X109295396Y-96071691D01*
X109330971Y-96173095D01*
X109360139Y-96257183D01*
X109381451Y-96319912D01*
X109393458Y-96357236D01*
X109395595Y-96365811D01*
X109379680Y-96370364D01*
X109336062Y-96373515D01*
X109270997Y-96375027D01*
X109190743Y-96374662D01*
X109171649Y-96374306D01*
X108947647Y-96369565D01*
X108887646Y-96186923D01*
X108827645Y-96004281D01*
X108580133Y-96004281D01*
X108332622Y-96004281D01*
X108272641Y-96186923D01*
X108212660Y-96369565D01*
X108065092Y-96374474D01*
X107995453Y-96375057D01*
X107944686Y-96372017D01*
X107919256Y-96365843D01*
X107917525Y-96363262D01*
X107922801Y-96344155D01*
X107937862Y-96296369D01*
X107961556Y-96223393D01*
X107992731Y-96128720D01*
X108030235Y-96015841D01*
X108072916Y-95888247D01*
X108119622Y-95749429D01*
X108123925Y-95736689D01*
G37*
G36*
X111986066Y-94849296D02*
G01*
X112043745Y-94851284D01*
X112082459Y-94856416D01*
X112109716Y-94866178D01*
X112133024Y-94882058D01*
X112152006Y-94898497D01*
X112207491Y-94948032D01*
X112212963Y-95204317D01*
X112218434Y-95460602D01*
X112438080Y-95460602D01*
X112657725Y-95460602D01*
X112657725Y-95154783D01*
X112657725Y-94848963D01*
X112870100Y-94848963D01*
X113082475Y-94848963D01*
X113082475Y-95613512D01*
X113082475Y-96378060D01*
X112870100Y-96378060D01*
X112657725Y-96378060D01*
X112657725Y-96063746D01*
X112657725Y-95749431D01*
X112436856Y-95749431D01*
X112215986Y-95749431D01*
X112215986Y-96063746D01*
X112215986Y-96378060D01*
X112003612Y-96378060D01*
X111791237Y-96378060D01*
X111791237Y-95675348D01*
X111791237Y-94972635D01*
X111749274Y-94910799D01*
X111707311Y-94848963D01*
X111901916Y-94848963D01*
X111986066Y-94849296D01*
G37*
G36*
X108342712Y-90188871D02*
G01*
X108342889Y-90489294D01*
X108343294Y-90778213D01*
X108343916Y-91053754D01*
X108344742Y-91314047D01*
X108345758Y-91557218D01*
X108346954Y-91781396D01*
X108348315Y-91984709D01*
X108349831Y-92165283D01*
X108351487Y-92321248D01*
X108353271Y-92450731D01*
X108355172Y-92551860D01*
X108357176Y-92622762D01*
X108359271Y-92661566D01*
X108359281Y-92661676D01*
X108377670Y-92807800D01*
X108403868Y-92933068D01*
X108441358Y-93050323D01*
X108493623Y-93172414D01*
X108503196Y-93192442D01*
X108603410Y-93361491D01*
X108731121Y-93510861D01*
X108886527Y-93640743D01*
X109069828Y-93751329D01*
X109094080Y-93763495D01*
X109149081Y-93792177D01*
X109189680Y-93816484D01*
X109208321Y-93831823D01*
X109208762Y-93833212D01*
X109197199Y-93844399D01*
X109196020Y-93844242D01*
X109170904Y-93839785D01*
X109140802Y-93834504D01*
X108915067Y-93781182D01*
X108712082Y-93704473D01*
X108532725Y-93605097D01*
X108377875Y-93483770D01*
X108248410Y-93341212D01*
X108145208Y-93178140D01*
X108069147Y-92995274D01*
X108054270Y-92945809D01*
X108044639Y-92909364D01*
X108035927Y-92871283D01*
X108028095Y-92829803D01*
X108021099Y-92783162D01*
X108014901Y-92729595D01*
X108009458Y-92667339D01*
X108004729Y-92594632D01*
X108000673Y-92509708D01*
X107997250Y-92410805D01*
X107994418Y-92296160D01*
X107992137Y-92164008D01*
X107990364Y-92012587D01*
X107989060Y-91840133D01*
X107988183Y-91644883D01*
X107987692Y-91425072D01*
X107987546Y-91178939D01*
X107987704Y-90904718D01*
X107988124Y-90600647D01*
X107988767Y-90264963D01*
X107989030Y-90142743D01*
X107993980Y-87891572D01*
X108168127Y-87886730D01*
X108342274Y-87881888D01*
X108342712Y-90188871D01*
G37*
G36*
X108856387Y-90324797D02*
G01*
X108857167Y-90661188D01*
X108857906Y-90965339D01*
X108858629Y-91238992D01*
X108859364Y-91483886D01*
X108860139Y-91701762D01*
X108860981Y-91894361D01*
X108861918Y-92063423D01*
X108862978Y-92210687D01*
X108864187Y-92337896D01*
X108865573Y-92446789D01*
X108867164Y-92539107D01*
X108868987Y-92616590D01*
X108871070Y-92680979D01*
X108873439Y-92734014D01*
X108876124Y-92777436D01*
X108879150Y-92812985D01*
X108882546Y-92842401D01*
X108886339Y-92867426D01*
X108890556Y-92889799D01*
X108895225Y-92911261D01*
X108897370Y-92920602D01*
X108957942Y-93132808D01*
X109036609Y-93319082D01*
X109136055Y-93483773D01*
X109258967Y-93631236D01*
X109408029Y-93765823D01*
X109429114Y-93782327D01*
X109462987Y-93811260D01*
X109479904Y-93831419D01*
X109480084Y-93835516D01*
X109461413Y-93833886D01*
X109420118Y-93822174D01*
X109365124Y-93802913D01*
X109364924Y-93802837D01*
X109216840Y-93740579D01*
X109092106Y-93672530D01*
X108980105Y-93592007D01*
X108870218Y-93492328D01*
X108867955Y-93490080D01*
X108758510Y-93368811D01*
X108672134Y-93243495D01*
X108606235Y-93108078D01*
X108558222Y-92956504D01*
X108525501Y-92782719D01*
X108511408Y-92657258D01*
X108508695Y-92608272D01*
X108506276Y-92526083D01*
X108504155Y-92411464D01*
X108502337Y-92265189D01*
X108500824Y-92088034D01*
X108499622Y-91880772D01*
X108498733Y-91644178D01*
X108498163Y-91379027D01*
X108497914Y-91086093D01*
X108497990Y-90766150D01*
X108498397Y-90419973D01*
X108498849Y-90176722D01*
X108503679Y-87891572D01*
X108677226Y-87886737D01*
X108850773Y-87881902D01*
X108856387Y-90324797D01*
G37*
G36*
X109361821Y-90214356D02*
G01*
X109361968Y-90531666D01*
X109362359Y-90835574D01*
X109362984Y-91124325D01*
X109363830Y-91396166D01*
X109364885Y-91649341D01*
X109366139Y-91882098D01*
X109367579Y-92092682D01*
X109369194Y-92279339D01*
X109370973Y-92440314D01*
X109372903Y-92573854D01*
X109374973Y-92678205D01*
X109377171Y-92751612D01*
X109378853Y-92784682D01*
X109402570Y-93027851D01*
X109437239Y-93240276D01*
X109483299Y-93423527D01*
X109541187Y-93579173D01*
X109611342Y-93708784D01*
X109653266Y-93766979D01*
X109681661Y-93805827D01*
X109696713Y-93832842D01*
X109697256Y-93839444D01*
X109680666Y-93834218D01*
X109642744Y-93813786D01*
X109590317Y-93781959D01*
X109563873Y-93764975D01*
X109417870Y-93652667D01*
X109295636Y-93521140D01*
X109196301Y-93368706D01*
X109118993Y-93193683D01*
X109062842Y-92994384D01*
X109026978Y-92769124D01*
X109021680Y-92715416D01*
X109018705Y-92662946D01*
X109016078Y-92576717D01*
X109013802Y-92456947D01*
X109011876Y-92303855D01*
X109010303Y-92117660D01*
X109009082Y-91898580D01*
X109008216Y-91646835D01*
X109007706Y-91362644D01*
X109007552Y-91046224D01*
X109007756Y-90697794D01*
X109008319Y-90317574D01*
X109008548Y-90202207D01*
X109013378Y-87891572D01*
X109187525Y-87886730D01*
X109361672Y-87881888D01*
X109361821Y-90214356D01*
G37*
G36*
X111897424Y-87886730D02*
G01*
X112071572Y-87891572D01*
X112076401Y-90202207D01*
X112077083Y-90548500D01*
X112077586Y-90862607D01*
X112077869Y-91146321D01*
X112077890Y-91401435D01*
X112077609Y-91629744D01*
X112076986Y-91833039D01*
X112075978Y-92013116D01*
X112074546Y-92171767D01*
X112072649Y-92310786D01*
X112070244Y-92431966D01*
X112067293Y-92537101D01*
X112063754Y-92627984D01*
X112059586Y-92706408D01*
X112054748Y-92774167D01*
X112049199Y-92833054D01*
X112042899Y-92884863D01*
X112035806Y-92931387D01*
X112027880Y-92974419D01*
X112019080Y-93015754D01*
X112011570Y-93048027D01*
X111953560Y-93229183D01*
X111870727Y-93397390D01*
X111766412Y-93547558D01*
X111643955Y-93674599D01*
X111555413Y-93742904D01*
X111473484Y-93796549D01*
X111417785Y-93829063D01*
X111388418Y-93840392D01*
X111383478Y-93836863D01*
X111393446Y-93818101D01*
X111418250Y-93784874D01*
X111426986Y-93774269D01*
X111491750Y-93679240D01*
X111551446Y-93556217D01*
X111603790Y-93411073D01*
X111646500Y-93249679D01*
X111663126Y-93166957D01*
X111671230Y-93119277D01*
X111678580Y-93069082D01*
X111685212Y-93014598D01*
X111691162Y-92954050D01*
X111696467Y-92885661D01*
X111701162Y-92807658D01*
X111705283Y-92718265D01*
X111708867Y-92615706D01*
X111711949Y-92498208D01*
X111714567Y-92363993D01*
X111716754Y-92211288D01*
X111718549Y-92038318D01*
X111719986Y-91843306D01*
X111721102Y-91624479D01*
X111721934Y-91380060D01*
X111722516Y-91108275D01*
X111722886Y-90807349D01*
X111723078Y-90475506D01*
X111723128Y-90214356D01*
X111723277Y-87881888D01*
X111897424Y-87886730D01*
G37*
G36*
X112407774Y-87886737D02*
G01*
X112581271Y-87891572D01*
X112586100Y-90176722D01*
X112586727Y-90539842D01*
X112587021Y-90877240D01*
X112586987Y-91188143D01*
X112586629Y-91471775D01*
X112585951Y-91727363D01*
X112584956Y-91954131D01*
X112583648Y-92151306D01*
X112582032Y-92318112D01*
X112580111Y-92453776D01*
X112577889Y-92557523D01*
X112575370Y-92628579D01*
X112573541Y-92657258D01*
X112548343Y-92849667D01*
X112508304Y-93017913D01*
X112451516Y-93169253D01*
X112423961Y-93226144D01*
X112361086Y-93325711D01*
X112275458Y-93430234D01*
X112175555Y-93531272D01*
X112069851Y-93620387D01*
X111966823Y-93689139D01*
X111949501Y-93698552D01*
X111877645Y-93734180D01*
X111803253Y-93767900D01*
X111732588Y-93797273D01*
X111671914Y-93819861D01*
X111627494Y-93833226D01*
X111605593Y-93834929D01*
X111604347Y-93832910D01*
X111616852Y-93816418D01*
X111649431Y-93786743D01*
X111689183Y-93754861D01*
X111832656Y-93627395D01*
X111953238Y-93480363D01*
X112052439Y-93311237D01*
X112131767Y-93117491D01*
X112187274Y-92920602D01*
X112192171Y-92899033D01*
X112196603Y-92877364D01*
X112200595Y-92853854D01*
X112204177Y-92826765D01*
X112207375Y-92794354D01*
X112210218Y-92754882D01*
X112212733Y-92706609D01*
X112214948Y-92647793D01*
X112216890Y-92576696D01*
X112218587Y-92491577D01*
X112220067Y-92390695D01*
X112221357Y-92272310D01*
X112222486Y-92134681D01*
X112223480Y-91976069D01*
X112224368Y-91794733D01*
X112225177Y-91588933D01*
X112225935Y-91356929D01*
X112226670Y-91096980D01*
X112227408Y-90807346D01*
X112228179Y-90486286D01*
X112228558Y-90324797D01*
X112234278Y-87881903D01*
X112407774Y-87886737D01*
G37*
G36*
X113078412Y-90350870D02*
G01*
X113073685Y-92818662D01*
X113034445Y-92945809D01*
X112978327Y-93099760D01*
X112909395Y-93232271D01*
X112820812Y-93354710D01*
X112726525Y-93457777D01*
X112654659Y-93527827D01*
X112594218Y-93579645D01*
X112534670Y-93620931D01*
X112465479Y-93659385D01*
X112419866Y-93681941D01*
X112347638Y-93713687D01*
X112265131Y-93745073D01*
X112178117Y-93774495D01*
X112092368Y-93800354D01*
X112013657Y-93821046D01*
X111947755Y-93834971D01*
X111900435Y-93840527D01*
X111877468Y-93836113D01*
X111876187Y-93832787D01*
X111890325Y-93819643D01*
X111927704Y-93796696D01*
X111980770Y-93768509D01*
X111990869Y-93763495D01*
X112177748Y-93654543D01*
X112338049Y-93524427D01*
X112471873Y-93373022D01*
X112579319Y-93200204D01*
X112660487Y-93005848D01*
X112694906Y-92885901D01*
X112732147Y-92733712D01*
X112738117Y-90308395D01*
X112744086Y-87883077D01*
X112913612Y-87883077D01*
X113083139Y-87883077D01*
X113078412Y-90350870D01*
G37*
G36*
X109573621Y-86385247D02*
G01*
X109615793Y-86409338D01*
X109666557Y-86443228D01*
X109722265Y-86484707D01*
X109779268Y-86531567D01*
X109833918Y-86581597D01*
X109865505Y-86613757D01*
X109968925Y-86745104D01*
X110057012Y-86899041D01*
X110124054Y-87065572D01*
X110124692Y-87067559D01*
X110135591Y-87101700D01*
X110145531Y-87134075D01*
X110154557Y-87166317D01*
X110162712Y-87200059D01*
X110170041Y-87236931D01*
X110176588Y-87278568D01*
X110182397Y-87326601D01*
X110187513Y-87382663D01*
X110191979Y-87448386D01*
X110195840Y-87525402D01*
X110199140Y-87615344D01*
X110201923Y-87719845D01*
X110204234Y-87840536D01*
X110206116Y-87979050D01*
X110207614Y-88137019D01*
X110208772Y-88316076D01*
X110209634Y-88517854D01*
X110210245Y-88743984D01*
X110210648Y-88996099D01*
X110210888Y-89275831D01*
X110211009Y-89584813D01*
X110211056Y-89924677D01*
X110211070Y-90257425D01*
X110211170Y-92997057D01*
X110033294Y-92997057D01*
X109855417Y-92997057D01*
X109850027Y-90138495D01*
X109849317Y-89771269D01*
X109848620Y-89436422D01*
X109847920Y-89132350D01*
X109847196Y-88857454D01*
X109846431Y-88610129D01*
X109845604Y-88388776D01*
X109844698Y-88191792D01*
X109843693Y-88017576D01*
X109842572Y-87864525D01*
X109841314Y-87731038D01*
X109839902Y-87615512D01*
X109838316Y-87516347D01*
X109836537Y-87431940D01*
X109834548Y-87360690D01*
X109832328Y-87300995D01*
X109829860Y-87251252D01*
X109827124Y-87209861D01*
X109824102Y-87175220D01*
X109820775Y-87145725D01*
X109817124Y-87119777D01*
X109814408Y-87103113D01*
X109774997Y-86912388D01*
X109726175Y-86743661D01*
X109669141Y-86600154D01*
X109605097Y-86485089D01*
X109563823Y-86431062D01*
X109535142Y-86393863D01*
X109529647Y-86375300D01*
X109543690Y-86373165D01*
X109573621Y-86385247D01*
G37*
G36*
X109815394Y-86386996D02*
G01*
X109862647Y-86403405D01*
X110062523Y-86492227D01*
X110234087Y-86599129D01*
X110378616Y-86725476D01*
X110497384Y-86872634D01*
X110591667Y-87041970D01*
X110662738Y-87234850D01*
X110673078Y-87271851D01*
X110711554Y-87415853D01*
X110716602Y-90206455D01*
X110721651Y-92997057D01*
X110542865Y-92997057D01*
X110364080Y-92997057D01*
X110363980Y-90274415D01*
X110363968Y-89907396D01*
X110363931Y-89572710D01*
X110363819Y-89268708D01*
X110363585Y-88993744D01*
X110363182Y-88746169D01*
X110362561Y-88524336D01*
X110361675Y-88326598D01*
X110360476Y-88151306D01*
X110358917Y-87996814D01*
X110356949Y-87861473D01*
X110354525Y-87743636D01*
X110351597Y-87641656D01*
X110348118Y-87553884D01*
X110344039Y-87478674D01*
X110339313Y-87414377D01*
X110333892Y-87359347D01*
X110327728Y-87311935D01*
X110320774Y-87270493D01*
X110312981Y-87233375D01*
X110304303Y-87198933D01*
X110294691Y-87165519D01*
X110284098Y-87131486D01*
X110272475Y-87095185D01*
X110271768Y-87092973D01*
X110207250Y-86931748D01*
X110120387Y-86775724D01*
X110016509Y-86632432D01*
X109900948Y-86509399D01*
X109801876Y-86429371D01*
X109761029Y-86397278D01*
X109750324Y-86379238D01*
X109768774Y-86375670D01*
X109815394Y-86386996D01*
G37*
G36*
X110095839Y-86378458D02*
G01*
X110159744Y-86388559D01*
X110240005Y-86406448D01*
X110320953Y-86428565D01*
X110333699Y-86432503D01*
X110535639Y-86510741D01*
X110711082Y-86610077D01*
X110860704Y-86731206D01*
X110985180Y-86874821D01*
X111085185Y-87041618D01*
X111161393Y-87232289D01*
X111182736Y-87305418D01*
X111221248Y-87449833D01*
X111226301Y-90223445D01*
X111231354Y-92997057D01*
X111052958Y-92997057D01*
X110874563Y-92997057D01*
X110869512Y-90214950D01*
X110864461Y-87432843D01*
X110827455Y-87294993D01*
X110763405Y-87101440D01*
X110680327Y-86932038D01*
X110575247Y-86783122D01*
X110445193Y-86651029D01*
X110287191Y-86532095D01*
X110135209Y-86442098D01*
X109998796Y-86368812D01*
X110095839Y-86378458D01*
G37*
D12*
%TO.C,C8*%
X150140580Y-95560000D02*
X149859420Y-95560000D01*
X150140580Y-94540000D02*
X149859420Y-94540000D01*
%TO.C,SW3*%
X142400000Y-87800000D02*
X141200000Y-87800000D01*
X139600000Y-87800000D02*
X138400000Y-87800000D01*
X138400000Y-87800000D02*
X138400000Y-94200000D01*
X142400000Y-94200000D02*
X142400000Y-87800000D01*
X141200000Y-94200000D02*
X142400000Y-94200000D01*
X138400000Y-94200000D02*
X139600000Y-94200000D01*
%TO.C,OLED1*%
X177000000Y-84905000D02*
X177000000Y-85205000D01*
X177000000Y-84905000D02*
X177300000Y-84905000D01*
X177000000Y-96905000D02*
X177000000Y-96605000D01*
X177000000Y-96905000D02*
X177300000Y-96905000D01*
X177170000Y-85765000D02*
X178500000Y-85765000D01*
X177170000Y-87095000D02*
X177170000Y-85765000D01*
X177170000Y-88365000D02*
X177170000Y-96045000D01*
X177170000Y-88365000D02*
X179830000Y-88365000D01*
X177170000Y-96045000D02*
X179830000Y-96045000D01*
X179830000Y-88365000D02*
X179830000Y-96045000D01*
X215000000Y-84905000D02*
X214700000Y-84905000D01*
X215000000Y-84905000D02*
X215000000Y-85205000D01*
X215000000Y-85205000D02*
X215000000Y-84905000D01*
X215000000Y-96905000D02*
X214700000Y-96905000D01*
X215000000Y-96905000D02*
X215000000Y-96605000D01*
%TO.C,C7*%
X151390000Y-86265580D02*
X151390000Y-85984420D01*
X152410000Y-86265580D02*
X152410000Y-85984420D01*
%TO.C,C9*%
X157390580Y-95560000D02*
X157109420Y-95560000D01*
X157390580Y-94540000D02*
X157109420Y-94540000D01*
%TO.C,C29*%
X160640580Y-95560000D02*
X160359420Y-95560000D01*
X160640580Y-94540000D02*
X160359420Y-94540000D01*
%TO.C,C18*%
X176835000Y-93938748D02*
X176835000Y-94461252D01*
X175365000Y-93938748D02*
X175365000Y-94461252D01*
%TO.C,R24*%
X181772500Y-94062258D02*
X181772500Y-93587742D01*
X180727500Y-94062258D02*
X180727500Y-93587742D01*
%TO.C,SW1*%
X145650000Y-94200000D02*
X146850000Y-94200000D01*
X148450000Y-94200000D02*
X149650000Y-94200000D01*
X149650000Y-94200000D02*
X149650000Y-87800000D01*
X145650000Y-87800000D02*
X145650000Y-94200000D01*
X146850000Y-87800000D02*
X145650000Y-87800000D01*
X149650000Y-87800000D02*
X148450000Y-87800000D01*
%TO.C,SW4*%
X158750000Y-88500000D02*
X159350000Y-88500000D01*
X158750000Y-90800000D02*
X158750000Y-91300000D01*
X158750000Y-93500000D02*
X159250000Y-93500000D01*
X171750000Y-88500000D02*
X171250000Y-88500000D01*
X171750000Y-88500000D02*
X171750000Y-89000000D01*
X171750000Y-93500000D02*
X171250000Y-93500000D01*
X171750000Y-93500000D02*
X171750000Y-93000000D01*
%TO.C,C24*%
X210510000Y-85259420D02*
X210510000Y-85540580D01*
X209490000Y-85259420D02*
X209490000Y-85540580D01*
%TO.C,SW2*%
X156900000Y-87800000D02*
X155700000Y-87800000D01*
X154100000Y-87800000D02*
X152900000Y-87800000D01*
X152900000Y-87800000D02*
X152900000Y-94200000D01*
X156900000Y-94200000D02*
X156900000Y-87800000D01*
X155700000Y-94200000D02*
X156900000Y-94200000D01*
X152900000Y-94200000D02*
X154100000Y-94200000D01*
%TO.C,C10*%
X142915580Y-95585000D02*
X142634420Y-95585000D01*
X142915580Y-94565000D02*
X142634420Y-94565000D01*
%TO.C,Q6*%
X210560000Y-96100000D02*
X210560000Y-96750000D01*
X210560000Y-96100000D02*
X210560000Y-94425000D01*
X207440000Y-96100000D02*
X207440000Y-96750000D01*
X207440000Y-96100000D02*
X207440000Y-95450000D01*
%TO.C,R18*%
X211027500Y-89062258D02*
X211027500Y-88587742D01*
X212072500Y-89062258D02*
X212072500Y-88587742D01*
%TO.C,C1*%
X205565000Y-96611252D02*
X205565000Y-96088748D01*
X207035000Y-96611252D02*
X207035000Y-96088748D01*
%TO.C,C22*%
X203740000Y-93440580D02*
X203740000Y-93159420D01*
X204760000Y-93440580D02*
X204760000Y-93159420D01*
%TO.C,R23*%
X208572500Y-88587742D02*
X208572500Y-89062258D01*
X207527500Y-88587742D02*
X207527500Y-89062258D01*
%TO.C,Q7*%
X210560000Y-92262500D02*
X210560000Y-92912500D01*
X210560000Y-92262500D02*
X210560000Y-90587500D01*
X207440000Y-92262500D02*
X207440000Y-92912500D01*
X207440000Y-92262500D02*
X207440000Y-91612500D01*
%TO.C,R3*%
X207072500Y-92187742D02*
X207072500Y-92662258D01*
X206027500Y-92187742D02*
X206027500Y-92662258D01*
%TO.C,F1*%
X216110000Y-87497936D02*
X216110000Y-88702064D01*
X214290000Y-87497936D02*
X214290000Y-88702064D01*
%TO.C,C23*%
X212535000Y-85338748D02*
X212535000Y-85861252D01*
X211065000Y-85338748D02*
X211065000Y-85861252D01*
%TO.C,FB1*%
X214150378Y-84190000D02*
X214949622Y-84190000D01*
X214150378Y-85310000D02*
X214949622Y-85310000D01*
%TO.C,R4*%
X205937258Y-88622500D02*
X205462742Y-88622500D01*
X205937258Y-87577500D02*
X205462742Y-87577500D01*
%TO.C,C21*%
X209040000Y-88965580D02*
X209040000Y-88684420D01*
X210060000Y-88965580D02*
X210060000Y-88684420D01*
%TD*%
M02*
