%TF.GenerationSoftware,KiCad,Pcbnew,(7.0.0)*%
%TF.CreationDate,2023-05-08T01:10:33+02:00*%
%TF.ProjectId,Stacja Lutownicza V0.1,53746163-6a61-4204-9c75-746f776e6963,rev?*%
%TF.SameCoordinates,Original*%
%TF.FileFunction,Soldermask,Top*%
%TF.FilePolarity,Negative*%
%FSLAX46Y46*%
G04 Gerber Fmt 4.6, Leading zero omitted, Abs format (unit mm)*
G04 Created by KiCad (PCBNEW (7.0.0)) date 2023-05-08 01:10:33*
%MOMM*%
%LPD*%
G01*
G04 APERTURE LIST*
G04 Aperture macros list*
%AMRoundRect*
0 Rectangle with rounded corners*
0 $1 Rounding radius*
0 $2 $3 $4 $5 $6 $7 $8 $9 X,Y pos of 4 corners*
0 Add a 4 corners polygon primitive as box body*
4,1,4,$2,$3,$4,$5,$6,$7,$8,$9,$2,$3,0*
0 Add four circle primitives for the rounded corners*
1,1,$1+$1,$2,$3*
1,1,$1+$1,$4,$5*
1,1,$1+$1,$6,$7*
1,1,$1+$1,$8,$9*
0 Add four rect primitives between the rounded corners*
20,1,$1+$1,$2,$3,$4,$5,0*
20,1,$1+$1,$4,$5,$6,$7,0*
20,1,$1+$1,$6,$7,$8,$9,0*
20,1,$1+$1,$8,$9,$2,$3,0*%
G04 Aperture macros list end*
%ADD10RoundRect,0.275000X0.225000X0.250000X-0.225000X0.250000X-0.225000X-0.250000X0.225000X-0.250000X0*%
%ADD11RoundRect,0.050000X-0.500000X0.625000X-0.500000X-0.625000X0.500000X-0.625000X0.500000X0.625000X0*%
%ADD12RoundRect,0.050000X-0.850000X-0.850000X0.850000X-0.850000X0.850000X0.850000X-0.850000X0.850000X0*%
%ADD13O,1.800000X1.800000*%
%ADD14RoundRect,0.050000X-0.500000X0.500000X-0.500000X-0.500000X0.500000X-0.500000X0.500000X0.500000X0*%
%ADD15O,1.100000X1.100000*%
%ADD16RoundRect,0.275000X0.250000X-0.225000X0.250000X0.225000X-0.250000X0.225000X-0.250000X-0.225000X0*%
%ADD17RoundRect,0.300000X-0.475000X0.250000X-0.475000X-0.250000X0.475000X-0.250000X0.475000X0.250000X0*%
%ADD18RoundRect,0.250000X0.275000X-0.200000X0.275000X0.200000X-0.275000X0.200000X-0.275000X-0.200000X0*%
%ADD19C,1.624000*%
%ADD20RoundRect,0.275000X-0.250000X0.225000X-0.250000X-0.225000X0.250000X-0.225000X0.250000X0.225000X0*%
%ADD21C,0.750000*%
%ADD22O,2.200000X1.100000*%
%ADD23O,1.700000X1.100000*%
%ADD24O,2.100000X2.600000*%
%ADD25RoundRect,0.200000X-0.150000X0.587500X-0.150000X-0.587500X0.150000X-0.587500X0.150000X0.587500X0*%
%ADD26RoundRect,0.300000X0.475000X-0.250000X0.475000X0.250000X-0.475000X0.250000X-0.475000X-0.250000X0*%
%ADD27RoundRect,0.050000X0.500000X-0.500000X0.500000X0.500000X-0.500000X0.500000X-0.500000X-0.500000X0*%
%ADD28RoundRect,0.250000X-0.275000X0.200000X-0.275000X-0.200000X0.275000X-0.200000X0.275000X0.200000X0*%
%ADD29RoundRect,0.300001X-0.624999X0.462499X-0.624999X-0.462499X0.624999X-0.462499X0.624999X0.462499X0*%
%ADD30RoundRect,0.268750X-0.218750X-0.381250X0.218750X-0.381250X0.218750X0.381250X-0.218750X0.381250X0*%
%ADD31RoundRect,0.250000X0.200000X0.275000X-0.200000X0.275000X-0.200000X-0.275000X0.200000X-0.275000X0*%
G04 APERTURE END LIST*
D10*
%TO.C,C8*%
X150775000Y-95050000D03*
X149225000Y-95050000D03*
%TD*%
D11*
%TO.C,SW3*%
X140400000Y-87125000D03*
X140400000Y-94875000D03*
%TD*%
D12*
%TO.C,OLED1*%
X178500000Y-87095000D03*
D13*
X178499999Y-89634999D03*
X178499999Y-92174999D03*
X178499999Y-94714999D03*
%TD*%
D14*
%TO.C,BZ1*%
X122530000Y-84050000D03*
D15*
X123799999Y-84049999D03*
%TD*%
D16*
%TO.C,C7*%
X151900000Y-86900000D03*
X151900000Y-85350000D03*
%TD*%
D10*
%TO.C,C9*%
X158025000Y-95050000D03*
X156475000Y-95050000D03*
%TD*%
%TO.C,C29*%
X161275000Y-95050000D03*
X159725000Y-95050000D03*
%TD*%
D17*
%TO.C,C18*%
X176100000Y-93250000D03*
X176100000Y-95150000D03*
%TD*%
D18*
%TO.C,R24*%
X181250000Y-93000000D03*
X181250000Y-94650000D03*
%TD*%
D11*
%TO.C,SW1*%
X147650000Y-94875000D03*
X147650000Y-87125000D03*
%TD*%
D19*
%TO.C,SW4*%
X158750000Y-89500000D03*
X158750000Y-92500000D03*
%TD*%
D20*
%TO.C,C24*%
X210000000Y-84625000D03*
X210000000Y-86175000D03*
%TD*%
D11*
%TO.C,SW2*%
X154900000Y-87125000D03*
X154900000Y-94875000D03*
%TD*%
D10*
%TO.C,C10*%
X143550000Y-95075000D03*
X142000000Y-95075000D03*
%TD*%
D21*
%TO.C,J3*%
X219470000Y-88110000D03*
X219470000Y-93890000D03*
D22*
X218969999Y-86679999D03*
D23*
X223149999Y-86679999D03*
D22*
X218969999Y-95319999D03*
D23*
X223149999Y-95319999D03*
%TD*%
D24*
%TO.C,E1*%
X103999999Y-90999999D03*
X98999999Y-91099999D03*
%TD*%
D25*
%TO.C,Q6*%
X209000000Y-97037500D03*
X208050000Y-95162500D03*
X209950000Y-95162500D03*
%TD*%
D18*
%TO.C,R18*%
X211550000Y-88000000D03*
X211550000Y-89650000D03*
%TD*%
D26*
%TO.C,C1*%
X206300000Y-95400000D03*
X206300000Y-97300000D03*
%TD*%
D16*
%TO.C,C22*%
X204250000Y-92525000D03*
X204250000Y-94075000D03*
%TD*%
D27*
%TO.C,J1*%
X128200000Y-97450000D03*
D15*
X126929999Y-97449999D03*
X125659999Y-97449999D03*
X124389999Y-97449999D03*
X123119999Y-97449999D03*
%TD*%
D24*
%TO.C,-P1*%
X160999999Y-91099999D03*
X165999999Y-90999999D03*
%TD*%
D28*
%TO.C,R23*%
X208050000Y-89650000D03*
X208050000Y-88000000D03*
%TD*%
D25*
%TO.C,Q7*%
X209000000Y-93200000D03*
X208050000Y-91325000D03*
X209950000Y-91325000D03*
%TD*%
D28*
%TO.C,R3*%
X206550000Y-93250000D03*
X206550000Y-91600000D03*
%TD*%
D29*
%TO.C,F1*%
X215200000Y-89587500D03*
X215200000Y-86612500D03*
%TD*%
D17*
%TO.C,C23*%
X211800000Y-86550000D03*
X211800000Y-84650000D03*
%TD*%
D30*
%TO.C,FB1*%
X215612500Y-84750000D03*
X213487500Y-84750000D03*
%TD*%
D31*
%TO.C,R4*%
X204875000Y-88100000D03*
X206525000Y-88100000D03*
%TD*%
D24*
%TO.C,+P1*%
X174999999Y-90999999D03*
X169999999Y-91099999D03*
%TD*%
D16*
%TO.C,C21*%
X209550000Y-88050000D03*
X209550000Y-89600000D03*
%TD*%
G36*
X127651156Y-97263518D02*
G01*
X127652000Y-97265150D01*
X127652000Y-97634848D01*
X127651156Y-97636480D01*
X127649336Y-97636735D01*
X127648077Y-97635397D01*
X127633180Y-97583181D01*
X127593396Y-97547070D01*
X127540549Y-97537385D01*
X127490548Y-97557044D01*
X127462254Y-97595014D01*
X127460581Y-97595818D01*
X127458968Y-97594901D01*
X127458802Y-97593053D01*
X127459310Y-97591826D01*
X127477982Y-97450000D01*
X127459310Y-97308173D01*
X127458801Y-97306944D01*
X127458967Y-97305096D01*
X127460580Y-97304179D01*
X127462253Y-97304983D01*
X127490548Y-97342954D01*
X127540549Y-97362612D01*
X127593397Y-97352927D01*
X127633180Y-97316816D01*
X127648077Y-97264601D01*
X127649336Y-97263263D01*
X127651156Y-97263518D01*
G37*
G36*
X126398966Y-97314597D02*
G01*
X126399613Y-97316346D01*
X126382017Y-97449999D01*
X126399613Y-97583652D01*
X126398966Y-97585401D01*
X126397158Y-97585856D01*
X126395760Y-97584622D01*
X126394825Y-97582156D01*
X126394710Y-97581688D01*
X126392320Y-97562007D01*
X126369835Y-97510387D01*
X126322997Y-97479702D01*
X126267003Y-97479702D01*
X126220164Y-97510387D01*
X126197679Y-97562007D01*
X126195289Y-97581688D01*
X126195174Y-97582156D01*
X126194240Y-97584618D01*
X126192842Y-97585853D01*
X126191034Y-97585397D01*
X126190387Y-97583648D01*
X126207982Y-97449999D01*
X126190387Y-97316350D01*
X126191034Y-97314601D01*
X126192842Y-97314146D01*
X126194240Y-97315380D01*
X126195174Y-97317843D01*
X126195289Y-97318311D01*
X126197679Y-97337992D01*
X126220164Y-97389611D01*
X126267003Y-97420297D01*
X126322997Y-97420297D01*
X126369835Y-97389611D01*
X126392320Y-97337992D01*
X126394710Y-97318311D01*
X126394825Y-97317843D01*
X126395760Y-97315376D01*
X126397158Y-97314142D01*
X126398966Y-97314597D01*
G37*
G36*
X125128966Y-97314597D02*
G01*
X125129613Y-97316346D01*
X125112017Y-97449999D01*
X125129613Y-97583652D01*
X125128966Y-97585401D01*
X125127158Y-97585856D01*
X125125760Y-97584622D01*
X125124825Y-97582156D01*
X125124710Y-97581688D01*
X125122320Y-97562007D01*
X125099835Y-97510387D01*
X125052997Y-97479702D01*
X124997003Y-97479702D01*
X124950164Y-97510387D01*
X124927679Y-97562007D01*
X124925289Y-97581688D01*
X124925174Y-97582156D01*
X124924240Y-97584618D01*
X124922842Y-97585853D01*
X124921034Y-97585397D01*
X124920387Y-97583648D01*
X124937982Y-97449999D01*
X124920387Y-97316350D01*
X124921034Y-97314601D01*
X124922842Y-97314146D01*
X124924240Y-97315380D01*
X124925174Y-97317843D01*
X124925289Y-97318311D01*
X124927679Y-97337992D01*
X124950164Y-97389611D01*
X124997003Y-97420297D01*
X125052997Y-97420297D01*
X125099835Y-97389611D01*
X125122320Y-97337992D01*
X125124710Y-97318311D01*
X125124825Y-97317843D01*
X125125760Y-97315376D01*
X125127158Y-97314142D01*
X125128966Y-97314597D01*
G37*
G36*
X123858966Y-97314597D02*
G01*
X123859613Y-97316346D01*
X123842017Y-97449999D01*
X123859613Y-97583652D01*
X123858966Y-97585401D01*
X123857158Y-97585856D01*
X123855760Y-97584622D01*
X123854825Y-97582156D01*
X123854710Y-97581688D01*
X123852320Y-97562007D01*
X123829835Y-97510387D01*
X123782997Y-97479702D01*
X123727003Y-97479702D01*
X123680164Y-97510387D01*
X123657679Y-97562007D01*
X123655289Y-97581688D01*
X123655174Y-97582156D01*
X123654240Y-97584618D01*
X123652842Y-97585853D01*
X123651034Y-97585397D01*
X123650387Y-97583648D01*
X123667982Y-97449999D01*
X123650387Y-97316350D01*
X123651034Y-97314601D01*
X123652842Y-97314146D01*
X123654240Y-97315380D01*
X123655174Y-97317843D01*
X123655289Y-97318311D01*
X123657679Y-97337992D01*
X123680164Y-97389611D01*
X123727003Y-97420297D01*
X123782997Y-97420297D01*
X123829835Y-97389611D01*
X123852320Y-97337992D01*
X123854710Y-97318311D01*
X123854825Y-97317843D01*
X123855760Y-97315376D01*
X123857158Y-97314142D01*
X123858966Y-97314597D01*
G37*
G36*
X123081923Y-83864606D02*
G01*
X123096818Y-83916817D01*
X123136601Y-83952928D01*
X123189448Y-83962613D01*
X123239450Y-83942955D01*
X123267746Y-83904982D01*
X123269418Y-83904178D01*
X123271031Y-83905094D01*
X123271198Y-83906941D01*
X123270689Y-83908169D01*
X123252017Y-84049999D01*
X123270689Y-84191828D01*
X123271198Y-84193057D01*
X123271031Y-84194905D01*
X123269418Y-84195821D01*
X123267746Y-84195017D01*
X123239450Y-84157044D01*
X123189448Y-84137386D01*
X123136601Y-84147070D01*
X123096818Y-84183183D01*
X123081923Y-84235394D01*
X123080664Y-84236732D01*
X123078844Y-84236477D01*
X123078000Y-84234845D01*
X123078000Y-83865155D01*
X123078844Y-83863523D01*
X123080664Y-83863268D01*
X123081923Y-83864606D01*
G37*
M02*
