%TF.GenerationSoftware,KiCad,Pcbnew,(7.0.0)*%
%TF.CreationDate,2023-05-08T01:10:32+02:00*%
%TF.ProjectId,Stacja Lutownicza V0.1,53746163-6a61-4204-9c75-746f776e6963,rev?*%
%TF.SameCoordinates,Original*%
%TF.FileFunction,Copper,L1,Top*%
%TF.FilePolarity,Positive*%
%FSLAX46Y46*%
G04 Gerber Fmt 4.6, Leading zero omitted, Abs format (unit mm)*
G04 Created by KiCad (PCBNEW (7.0.0)) date 2023-05-08 01:10:32*
%MOMM*%
%LPD*%
G01*
G04 APERTURE LIST*
G04 Aperture macros list*
%AMRoundRect*
0 Rectangle with rounded corners*
0 $1 Rounding radius*
0 $2 $3 $4 $5 $6 $7 $8 $9 X,Y pos of 4 corners*
0 Add a 4 corners polygon primitive as box body*
4,1,4,$2,$3,$4,$5,$6,$7,$8,$9,$2,$3,0*
0 Add four circle primitives for the rounded corners*
1,1,$1+$1,$2,$3*
1,1,$1+$1,$4,$5*
1,1,$1+$1,$6,$7*
1,1,$1+$1,$8,$9*
0 Add four rect primitives between the rounded corners*
20,1,$1+$1,$2,$3,$4,$5,0*
20,1,$1+$1,$4,$5,$6,$7,0*
20,1,$1+$1,$6,$7,$8,$9,0*
20,1,$1+$1,$8,$9,$2,$3,0*%
G04 Aperture macros list end*
%TA.AperFunction,SMDPad,CuDef*%
%ADD10RoundRect,0.225000X0.225000X0.250000X-0.225000X0.250000X-0.225000X-0.250000X0.225000X-0.250000X0*%
%TD*%
%TA.AperFunction,SMDPad,CuDef*%
%ADD11R,1.000000X1.250000*%
%TD*%
%TA.AperFunction,ComponentPad*%
%ADD12R,1.700000X1.700000*%
%TD*%
%TA.AperFunction,ComponentPad*%
%ADD13O,1.700000X1.700000*%
%TD*%
%TA.AperFunction,ComponentPad*%
%ADD14R,1.000000X1.000000*%
%TD*%
%TA.AperFunction,ComponentPad*%
%ADD15O,1.000000X1.000000*%
%TD*%
%TA.AperFunction,SMDPad,CuDef*%
%ADD16RoundRect,0.225000X0.250000X-0.225000X0.250000X0.225000X-0.250000X0.225000X-0.250000X-0.225000X0*%
%TD*%
%TA.AperFunction,SMDPad,CuDef*%
%ADD17RoundRect,0.250000X-0.475000X0.250000X-0.475000X-0.250000X0.475000X-0.250000X0.475000X0.250000X0*%
%TD*%
%TA.AperFunction,SMDPad,CuDef*%
%ADD18RoundRect,0.200000X0.275000X-0.200000X0.275000X0.200000X-0.275000X0.200000X-0.275000X-0.200000X0*%
%TD*%
%TA.AperFunction,ComponentPad*%
%ADD19C,1.524000*%
%TD*%
%TA.AperFunction,SMDPad,CuDef*%
%ADD20RoundRect,0.225000X-0.250000X0.225000X-0.250000X-0.225000X0.250000X-0.225000X0.250000X0.225000X0*%
%TD*%
%TA.AperFunction,ComponentPad*%
%ADD21O,2.100000X1.000000*%
%TD*%
%TA.AperFunction,ComponentPad*%
%ADD22O,1.600000X1.000000*%
%TD*%
%TA.AperFunction,ComponentPad*%
%ADD23O,2.000000X2.500000*%
%TD*%
%TA.AperFunction,SMDPad,CuDef*%
%ADD24RoundRect,0.150000X-0.150000X0.587500X-0.150000X-0.587500X0.150000X-0.587500X0.150000X0.587500X0*%
%TD*%
%TA.AperFunction,SMDPad,CuDef*%
%ADD25RoundRect,0.250000X0.475000X-0.250000X0.475000X0.250000X-0.475000X0.250000X-0.475000X-0.250000X0*%
%TD*%
%TA.AperFunction,SMDPad,CuDef*%
%ADD26RoundRect,0.200000X-0.275000X0.200000X-0.275000X-0.200000X0.275000X-0.200000X0.275000X0.200000X0*%
%TD*%
%TA.AperFunction,SMDPad,CuDef*%
%ADD27RoundRect,0.250001X-0.624999X0.462499X-0.624999X-0.462499X0.624999X-0.462499X0.624999X0.462499X0*%
%TD*%
%TA.AperFunction,SMDPad,CuDef*%
%ADD28RoundRect,0.218750X-0.218750X-0.381250X0.218750X-0.381250X0.218750X0.381250X-0.218750X0.381250X0*%
%TD*%
%TA.AperFunction,SMDPad,CuDef*%
%ADD29RoundRect,0.200000X0.200000X0.275000X-0.200000X0.275000X-0.200000X-0.275000X0.200000X-0.275000X0*%
%TD*%
%TA.AperFunction,ViaPad*%
%ADD30C,0.500000*%
%TD*%
%TA.AperFunction,ViaPad*%
%ADD31C,0.600000*%
%TD*%
%TA.AperFunction,Conductor*%
%ADD32C,0.250000*%
%TD*%
%TA.AperFunction,Conductor*%
%ADD33C,0.200000*%
%TD*%
%TA.AperFunction,Conductor*%
%ADD34C,0.300000*%
%TD*%
%TA.AperFunction,Conductor*%
%ADD35C,0.600000*%
%TD*%
%TA.AperFunction,Conductor*%
%ADD36C,0.500000*%
%TD*%
%TA.AperFunction,Conductor*%
%ADD37C,0.800000*%
%TD*%
G04 APERTURE END LIST*
D10*
%TO.P,C8,1*%
%TO.N,GND*%
X150775000Y-95050000D03*
%TO.P,C8,2*%
%TO.N,SW_ON{slash}OFF*%
X149225000Y-95050000D03*
%TD*%
D11*
%TO.P,SW3,1,1*%
%TO.N,GND*%
X140399999Y-87124999D03*
%TO.P,SW3,2,2*%
%TO.N,SW_BACK*%
X140399999Y-94874999D03*
%TD*%
D12*
%TO.P,OLED1,1,SDA*%
%TO.N,SDA*%
X178499999Y-87094999D03*
D13*
%TO.P,OLED1,2,SCL*%
%TO.N,SCL*%
X178499999Y-89634999D03*
%TO.P,OLED1,3,VCC*%
%TO.N,+3V3*%
X178499999Y-92174999D03*
%TO.P,OLED1,4,GND*%
%TO.N,GND*%
X178499999Y-94714999D03*
%TD*%
D14*
%TO.P,BZ1,1,-*%
%TO.N,+3V3*%
X122529999Y-84049999D03*
D15*
%TO.P,BZ1,2,+*%
%TO.N,Net-(BZ1-+)*%
X123799999Y-84049999D03*
%TD*%
D16*
%TO.P,C7,1*%
%TO.N,GND*%
X151900000Y-86900000D03*
%TO.P,C7,2*%
%TO.N,+3V3*%
X151900000Y-85350000D03*
%TD*%
D10*
%TO.P,C9,1*%
%TO.N,GND*%
X158025000Y-95050000D03*
%TO.P,C9,2*%
%TO.N,SW_NEXT*%
X156475000Y-95050000D03*
%TD*%
%TO.P,C29,1*%
%TO.N,GND*%
X161275000Y-95050000D03*
%TO.P,C29,2*%
%TO.N,TILT_SW*%
X159725000Y-95050000D03*
%TD*%
D17*
%TO.P,C18,1*%
%TO.N,+3V3*%
X176100000Y-93250000D03*
%TO.P,C18,2*%
%TO.N,GND*%
X176100000Y-95150000D03*
%TD*%
D18*
%TO.P,R24,2*%
%TO.N,SDA*%
X181250000Y-93000000D03*
%TO.P,R24,1*%
%TO.N,+3V3*%
X181250000Y-94650000D03*
%TD*%
D11*
%TO.P,SW1,2,2*%
%TO.N,SW_ON{slash}OFF*%
X147649999Y-94874999D03*
%TO.P,SW1,1,1*%
%TO.N,GND*%
X147649999Y-87124999D03*
%TD*%
D19*
%TO.P,SW4,1,1*%
%TO.N,GND*%
X158750000Y-89500000D03*
%TO.P,SW4,2,2*%
%TO.N,TILT_SW*%
X158750000Y-92500000D03*
%TD*%
D20*
%TO.P,C24,1*%
%TO.N,VBUS*%
X210000000Y-84625000D03*
%TO.P,C24,2*%
%TO.N,GND*%
X210000000Y-86175000D03*
%TD*%
D11*
%TO.P,SW2,1,1*%
%TO.N,GND*%
X154899999Y-87124999D03*
%TO.P,SW2,2,2*%
%TO.N,SW_NEXT*%
X154899999Y-94874999D03*
%TD*%
D10*
%TO.P,C10,1*%
%TO.N,GND*%
X143550000Y-95075000D03*
%TO.P,C10,2*%
%TO.N,SW_BACK*%
X142000000Y-95075000D03*
%TD*%
D21*
%TO.P,J3,S1,SHIELD*%
%TO.N,GND*%
X218969999Y-86679999D03*
D22*
X223149999Y-86679999D03*
D21*
X218969999Y-95319999D03*
D22*
X223149999Y-95319999D03*
%TD*%
D23*
%TO.P,E1,1*%
%TO.N,GND*%
X103999999Y-90999999D03*
X98999999Y-91099999D03*
%TD*%
D24*
%TO.P,Q6,3,D*%
%TO.N,VDC*%
X209000000Y-97037500D03*
%TO.P,Q6,2,S*%
%TO.N,Net-(Q6-S)*%
X208050000Y-95162500D03*
%TO.P,Q6,1,G*%
%TO.N,Net-(Q6-G)*%
X209950000Y-95162500D03*
%TD*%
D18*
%TO.P,R18,2*%
%TO.N,Net-(C21-Pad2)*%
X211550000Y-88000000D03*
%TO.P,R18,1*%
%TO.N,Net-(Q6-G)*%
X211550000Y-89650000D03*
%TD*%
D25*
%TO.P,C1,2*%
%TO.N,GND*%
X206300000Y-95400000D03*
%TO.P,C1,1*%
%TO.N,VDC*%
X206300000Y-97300000D03*
%TD*%
D16*
%TO.P,C22,2*%
%TO.N,Net-(C21-Pad2)*%
X204250000Y-92525000D03*
%TO.P,C22,1*%
%TO.N,VDC*%
X204250000Y-94075000D03*
%TD*%
D14*
%TO.P,J1,1,Pin_1*%
%TO.N,SWDIO*%
X128199999Y-97449999D03*
D15*
%TO.P,J1,2,Pin_2*%
%TO.N,SWCLK*%
X126929999Y-97449999D03*
%TO.P,J1,3,Pin_3*%
%TO.N,NRST*%
X125659999Y-97449999D03*
%TO.P,J1,4,Pin_4*%
%TO.N,+3V3*%
X124389999Y-97449999D03*
%TO.P,J1,5,Pin_5*%
%TO.N,GND*%
X123119999Y-97449999D03*
%TD*%
D23*
%TO.P,-P1,1*%
%TO.N,T12_V-*%
X160999999Y-91099999D03*
X165999999Y-90999999D03*
%TD*%
D26*
%TO.P,R23,2*%
%TO.N,VBUS*%
X208050000Y-89650000D03*
%TO.P,R23,1*%
%TO.N,Net-(C21-Pad2)*%
X208050000Y-88000000D03*
%TD*%
D24*
%TO.P,Q7,3,D*%
%TO.N,VBUS*%
X209000000Y-93200000D03*
%TO.P,Q7,2,S*%
%TO.N,Net-(Q6-S)*%
X208050000Y-91325000D03*
%TO.P,Q7,1,G*%
%TO.N,Net-(Q6-G)*%
X209950000Y-91325000D03*
%TD*%
D26*
%TO.P,R3,2*%
%TO.N,SW_SELECT*%
X206550000Y-93250000D03*
%TO.P,R3,1*%
%TO.N,Net-(Q2-G)*%
X206550000Y-91600000D03*
%TD*%
D27*
%TO.P,F1,2*%
%TO.N,Net-(F1-Pad2)*%
X215200000Y-89587500D03*
%TO.P,F1,1*%
%TO.N,Net-(F1-Pad1)*%
X215200000Y-86612500D03*
%TD*%
D17*
%TO.P,C23,2*%
%TO.N,GND*%
X211800000Y-86550000D03*
%TO.P,C23,1*%
%TO.N,VBUS*%
X211800000Y-84650000D03*
%TD*%
D28*
%TO.P,FB1,2*%
%TO.N,Net-(F1-Pad1)*%
X215612500Y-84750000D03*
%TO.P,FB1,1*%
%TO.N,VBUS*%
X213487500Y-84750000D03*
%TD*%
D29*
%TO.P,R4,2*%
%TO.N,GND*%
X204875000Y-88100000D03*
%TO.P,R4,1*%
%TO.N,Net-(Q2-G)*%
X206525000Y-88100000D03*
%TD*%
D23*
%TO.P,+P1,1*%
%TO.N,T12_V+*%
X174999999Y-90999999D03*
X169999999Y-91099999D03*
%TD*%
D16*
%TO.P,C21,2*%
%TO.N,Net-(C21-Pad2)*%
X209550000Y-88050000D03*
%TO.P,C21,1*%
%TO.N,VBUS*%
X209550000Y-89600000D03*
%TD*%
D30*
%TO.N,Buzzer*%
X129325000Y-88775000D03*
%TO.N,GND*%
X120875000Y-89300000D03*
X120875000Y-88450000D03*
D31*
X141200000Y-84625000D03*
X143400000Y-84625000D03*
X145225000Y-84625000D03*
X187525000Y-97500000D03*
D30*
%TO.N,VDC*%
X183749500Y-93475000D03*
D31*
%TO.N,GND*%
X142350000Y-87725000D03*
D30*
%TO.N,Buzzer*%
X135825000Y-90000000D03*
%TO.N,GND*%
X127375000Y-85800000D03*
X133150000Y-84250000D03*
X130300000Y-84150000D03*
X131750000Y-95200000D03*
%TO.N,+3V3*%
X131250000Y-94700000D03*
D31*
%TO.N,GND*%
X142700000Y-91950000D03*
X141950000Y-91300000D03*
D30*
X136750000Y-83750000D03*
%TO.N,+3V3*%
X136175000Y-84250000D03*
X139350000Y-92050000D03*
D31*
%TO.N,GND*%
X143150000Y-88900000D03*
X143050000Y-86900000D03*
X141950000Y-91950000D03*
X142700000Y-91275000D03*
D30*
%TO.N,USB_D-*%
X133120000Y-99420000D03*
%TO.N,USB_D+*%
X132463009Y-98982328D03*
%TO.N,NRST*%
X134211673Y-85075000D03*
%TO.N,TILT_SW*%
X138625000Y-90825000D03*
%TO.N,PD_SAFE*%
X137025878Y-92231794D03*
X172900000Y-87725000D03*
X172900000Y-85450000D03*
X191575000Y-85425000D03*
%TO.N,SW_ON{slash}OFF*%
X205100000Y-84450000D03*
%TO.N,FLIP*%
X136048911Y-94680000D03*
%TO.N,INT*%
X135150000Y-95300000D03*
%TO.N,FLIP*%
X182512500Y-96700000D03*
%TO.N,INT*%
X186800000Y-93450000D03*
%TO.N,SCL*%
X135400000Y-86000000D03*
%TO.N,SDA*%
X134700000Y-85950000D03*
%TO.N,SW_NEXT*%
X132136416Y-87325000D03*
%TO.N,SW_BACK*%
X133250000Y-86300000D03*
%TO.N,SW_SELECT*%
X132550000Y-86750000D03*
D31*
%TO.N,VDC*%
X142000000Y-93950000D03*
X142000000Y-92950000D03*
X142850000Y-93950000D03*
X142800000Y-92950000D03*
%TO.N,GND*%
X174700000Y-95150000D03*
%TO.N,+3V3*%
X174750000Y-93250000D03*
%TO.N,GND*%
X162450000Y-83950000D03*
X152075000Y-87925000D03*
%TO.N,+3V3*%
X151025000Y-85250000D03*
%TO.N,GND*%
X159575000Y-84025000D03*
X160900000Y-85175000D03*
X159575000Y-83200000D03*
X162450000Y-83200000D03*
%TO.N,Net-(Q2-G)*%
X206800000Y-86900000D03*
%TO.N,VDC*%
X204350000Y-96800000D03*
%TO.N,GND*%
X204350000Y-95975000D03*
X216850000Y-95050000D03*
X216900000Y-87000000D03*
%TO.N,VBUS*%
X208800000Y-88900000D03*
%TO.N,GND*%
X213700000Y-86900000D03*
X213700000Y-86100000D03*
X213000000Y-86900000D03*
X213000000Y-86100000D03*
X209000000Y-86600000D03*
X209000000Y-85900000D03*
%TO.N,VBUS*%
X209000000Y-85100000D03*
X209000000Y-84200000D03*
%TO.N,GND*%
X195000000Y-97500000D03*
D30*
%TO.N,USB_D-*%
X214234615Y-98947387D03*
%TO.N,USB_D+*%
X214288972Y-98250000D03*
D31*
%TO.N,+3V3*%
X181250000Y-95500000D03*
%TO.N,SDA*%
X182500000Y-93500000D03*
%TO.N,CC2*%
X180300000Y-83000000D03*
%TO.N,CC1*%
X181009583Y-83789722D03*
%TO.N,GND*%
X204900000Y-89100000D03*
X216850000Y-94200000D03*
X183100000Y-83750000D03*
X190850000Y-88950000D03*
X195000000Y-96500000D03*
X195100000Y-86100000D03*
X203450000Y-89200000D03*
X204950000Y-90300000D03*
X195100000Y-87100000D03*
X195750000Y-97500000D03*
X205050000Y-95975000D03*
X190900000Y-84450000D03*
X186525000Y-84225000D03*
X199550000Y-86700000D03*
X190950000Y-93450000D03*
X216900000Y-87800000D03*
X210475000Y-97375000D03*
X190900000Y-97250000D03*
X214687500Y-93600000D03*
X195750000Y-96500000D03*
X200650000Y-91300000D03*
%TO.N,Net-(C21-Pad2)*%
X190900000Y-90450000D03*
%TO.N,Net-(F1-Pad2)*%
X216900000Y-88600000D03*
X216900000Y-93400000D03*
%TO.N,+3V3*%
X185050000Y-83750000D03*
X195100000Y-88000000D03*
X183547382Y-96897382D03*
X187350000Y-96500000D03*
X190750000Y-95700000D03*
X190750000Y-86700000D03*
X199550000Y-88200000D03*
X195100000Y-88800000D03*
D30*
%TO.N,CC1*%
X219750000Y-89750000D03*
%TO.N,Net-(J3-D+-PadA6)*%
X217250000Y-90650500D03*
X217250000Y-91849500D03*
%TO.N,CC2*%
X219750000Y-92750000D03*
D31*
%TO.N,VDC*%
X205050000Y-96800000D03*
X203475000Y-94075000D03*
%TO.N,VBUS*%
X210500000Y-88975000D03*
X211075000Y-92650000D03*
X208200000Y-84200000D03*
%TD*%
D32*
%TO.N,Buzzer*%
X132216135Y-85725000D02*
X129325000Y-88616135D01*
X133500000Y-85725000D02*
X132216135Y-85725000D01*
X129325000Y-88616135D02*
X129325000Y-88775000D01*
X134000000Y-88175000D02*
X134000000Y-86225000D01*
X134000000Y-86225000D02*
X133500000Y-85725000D01*
X135825000Y-90000000D02*
X134000000Y-88175000D01*
%TO.N,NRST*%
X125660000Y-91365000D02*
X125660000Y-97450000D01*
X131950000Y-85075000D02*
X125660000Y-91365000D01*
X134211673Y-85075000D02*
X131950000Y-85075000D01*
D33*
%TO.N,USB_D+*%
X214154184Y-98250000D02*
X214288972Y-98250000D01*
X213629184Y-98775000D02*
X214154184Y-98250000D01*
X211925000Y-98775000D02*
X213629184Y-98775000D01*
X211803350Y-98775000D02*
X211925000Y-98775000D01*
X211664175Y-98635824D02*
X211664175Y-98635825D01*
X211403350Y-98496649D02*
X211525000Y-98496649D01*
X211664100Y-98635825D02*
G75*
G03*
X211803350Y-98775000I139200J25D01*
G01*
X211264175Y-98635825D02*
X211264175Y-98635824D01*
X211125000Y-98774975D02*
G75*
G03*
X211264175Y-98635825I0J139175D01*
G01*
X211664151Y-98635824D02*
G75*
G03*
X211525000Y-98496649I-139151J24D01*
G01*
X132463009Y-98982328D02*
X132670337Y-98775000D01*
X132670337Y-98775000D02*
X211125000Y-98775000D01*
X211403350Y-98496675D02*
G75*
G03*
X211264175Y-98635824I-50J-139125D01*
G01*
D32*
%TO.N,SCL*%
X172186170Y-86900000D02*
X175765000Y-86900000D01*
X171825000Y-86900000D02*
X172186170Y-86900000D01*
X171600000Y-87325000D02*
X171600000Y-87125000D01*
X171150000Y-87125000D02*
X171150000Y-87325000D01*
X170700000Y-87325000D02*
X170700000Y-87125000D01*
X170250000Y-87125000D02*
X170250000Y-87325000D01*
X169800000Y-87325000D02*
X169800000Y-87125000D01*
X169350000Y-87125000D02*
X169350000Y-87325000D01*
X168900000Y-87325000D02*
X168900000Y-87125000D01*
X168450000Y-87125000D02*
X168450000Y-87325000D01*
X168000000Y-87325000D02*
X168000000Y-87125000D01*
X167550000Y-87125000D02*
X167550000Y-87325000D01*
X167100000Y-87325000D02*
X167100000Y-87125000D01*
X166650000Y-87125000D02*
X166650000Y-87325000D01*
X166200000Y-87325000D02*
X166200000Y-87125000D01*
X165750000Y-87125000D02*
X165750000Y-87325000D01*
X165300000Y-87325000D02*
X165300000Y-87125000D01*
X164850000Y-87125000D02*
X164850000Y-87325000D01*
X164400000Y-87325000D02*
X164400000Y-87125000D01*
X163950000Y-87125000D02*
X163950000Y-87325000D01*
X163500000Y-87325000D02*
X163500000Y-87125000D01*
X162600000Y-87325000D02*
X162600000Y-87125000D01*
X161700000Y-87325000D02*
X161700000Y-87125000D01*
X159650000Y-86900000D02*
X160125000Y-86900000D01*
X135400000Y-86000000D02*
X135400000Y-83900000D01*
X170925000Y-86900000D02*
G75*
G03*
X170700000Y-87125000I0J-225000D01*
G01*
X170475000Y-87550000D02*
G75*
G03*
X170700000Y-87325000I0J225000D01*
G01*
X170250000Y-87325000D02*
G75*
G03*
X170475000Y-87550000I225000J0D01*
G01*
X170250000Y-87125000D02*
G75*
G03*
X170025000Y-86900000I-225000J0D01*
G01*
X170025000Y-86900000D02*
G75*
G03*
X169800000Y-87125000I0J-225000D01*
G01*
X171150000Y-87325000D02*
G75*
G03*
X171375000Y-87550000I225000J0D01*
G01*
X169575000Y-87550000D02*
G75*
G03*
X169800000Y-87325000I0J225000D01*
G01*
X169350000Y-87325000D02*
G75*
G03*
X169575000Y-87550000I225000J0D01*
G01*
X160350000Y-87125000D02*
X160350000Y-87325000D01*
X160800000Y-87325000D02*
X160800000Y-87125000D01*
X169350000Y-87125000D02*
G75*
G03*
X169125000Y-86900000I-225000J0D01*
G01*
X168450000Y-87325000D02*
G75*
G03*
X168675000Y-87550000I225000J0D01*
G01*
X168225000Y-86900000D02*
G75*
G03*
X168000000Y-87125000I0J-225000D01*
G01*
X167775000Y-87550000D02*
G75*
G03*
X168000000Y-87325000I0J225000D01*
G01*
X167550000Y-87325000D02*
G75*
G03*
X167775000Y-87550000I225000J0D01*
G01*
X162150000Y-87125000D02*
X162150000Y-87325000D01*
X166875000Y-87550000D02*
G75*
G03*
X167100000Y-87325000I0J225000D01*
G01*
X166650000Y-87325000D02*
G75*
G03*
X166875000Y-87550000I225000J0D01*
G01*
X166650000Y-87125000D02*
G75*
G03*
X166425000Y-86900000I-225000J0D01*
G01*
X166425000Y-86900000D02*
G75*
G03*
X166200000Y-87125000I0J-225000D01*
G01*
X165975000Y-87550000D02*
G75*
G03*
X166200000Y-87325000I0J225000D01*
G01*
X167325000Y-86900000D02*
G75*
G03*
X167100000Y-87125000I0J-225000D01*
G01*
X165750000Y-87325000D02*
G75*
G03*
X165975000Y-87550000I225000J0D01*
G01*
X155900000Y-83150000D02*
X159650000Y-86900000D01*
X165750000Y-87125000D02*
G75*
G03*
X165525000Y-86900000I-225000J0D01*
G01*
X165525000Y-86900000D02*
G75*
G03*
X165300000Y-87125000I0J-225000D01*
G01*
X165075000Y-87550000D02*
G75*
G03*
X165300000Y-87325000I0J225000D01*
G01*
X164625000Y-86900000D02*
G75*
G03*
X164400000Y-87125000I0J-225000D01*
G01*
X164850000Y-87325000D02*
G75*
G03*
X165075000Y-87550000I225000J0D01*
G01*
X164175000Y-87550000D02*
G75*
G03*
X164400000Y-87325000I0J225000D01*
G01*
X163950000Y-87325000D02*
G75*
G03*
X164175000Y-87550000I225000J0D01*
G01*
X163950000Y-87125000D02*
G75*
G03*
X163725000Y-86900000I-225000J0D01*
G01*
X163725000Y-86900000D02*
G75*
G03*
X163500000Y-87125000I0J-225000D01*
G01*
X163275000Y-87550000D02*
G75*
G03*
X163500000Y-87325000I0J225000D01*
G01*
X167550000Y-87125000D02*
G75*
G03*
X167325000Y-86900000I-225000J0D01*
G01*
X163050000Y-87325000D02*
G75*
G03*
X163275000Y-87550000I225000J0D01*
G01*
X163050000Y-87125000D02*
G75*
G03*
X162825000Y-86900000I-225000J0D01*
G01*
X162825000Y-86900000D02*
G75*
G03*
X162600000Y-87125000I0J-225000D01*
G01*
X162375000Y-87550000D02*
G75*
G03*
X162600000Y-87325000I0J225000D01*
G01*
X168675000Y-87550000D02*
G75*
G03*
X168900000Y-87325000I0J225000D01*
G01*
X162150000Y-87125000D02*
G75*
G03*
X161925000Y-86900000I-225000J0D01*
G01*
X161475000Y-87550000D02*
G75*
G03*
X161700000Y-87325000I0J225000D01*
G01*
X169125000Y-86900000D02*
G75*
G03*
X168900000Y-87125000I0J-225000D01*
G01*
X135400000Y-83900000D02*
X136150000Y-83150000D01*
X171150000Y-87125000D02*
G75*
G03*
X170925000Y-86900000I-225000J0D01*
G01*
X171825000Y-86900000D02*
G75*
G03*
X171600000Y-87125000I0J-225000D01*
G01*
X161250000Y-87325000D02*
G75*
G03*
X161475000Y-87550000I225000J0D01*
G01*
X161925000Y-86900000D02*
G75*
G03*
X161700000Y-87125000I0J-225000D01*
G01*
X162150000Y-87325000D02*
G75*
G03*
X162375000Y-87550000I225000J0D01*
G01*
X161025000Y-86900000D02*
G75*
G03*
X160800000Y-87125000I0J-225000D01*
G01*
X171375000Y-87550000D02*
G75*
G03*
X171600000Y-87325000I0J225000D01*
G01*
X136150000Y-83150000D02*
X155900000Y-83150000D01*
X160350000Y-87325000D02*
G75*
G03*
X160575000Y-87550000I225000J0D01*
G01*
X160350000Y-87125000D02*
G75*
G03*
X160125000Y-86900000I-225000J0D01*
G01*
X168450000Y-87125000D02*
G75*
G03*
X168225000Y-86900000I-225000J0D01*
G01*
X160575000Y-87550000D02*
G75*
G03*
X160800000Y-87325000I0J225000D01*
G01*
X161250000Y-87125000D02*
G75*
G03*
X161025000Y-86900000I-225000J0D01*
G01*
X164850000Y-87125000D02*
G75*
G03*
X164625000Y-86900000I-225000J0D01*
G01*
X175765000Y-86900000D02*
X178500000Y-89635000D01*
X161250000Y-87125000D02*
X161250000Y-87325000D01*
X163050000Y-87125000D02*
X163050000Y-87325000D01*
D34*
%TO.N,GND*%
X158850000Y-95875000D02*
X159600000Y-95875000D01*
X158025000Y-95050000D02*
X158850000Y-95875000D01*
X159600000Y-95875000D02*
X160450000Y-95875000D01*
X151600000Y-95875000D02*
X159600000Y-95875000D01*
X160450000Y-95875000D02*
X161275000Y-95050000D01*
X150775000Y-95050000D02*
X151600000Y-95875000D01*
D35*
%TO.N,TILT_SW*%
X159725000Y-95050000D02*
X159725000Y-93475000D01*
X159725000Y-93475000D02*
X158750000Y-92500000D01*
D34*
%TO.N,SW_ON{slash}OFF*%
X193125000Y-84450000D02*
X205100000Y-84450000D01*
X192175000Y-85400000D02*
X193125000Y-84450000D01*
X192175000Y-86725000D02*
X192175000Y-85400000D01*
X183150000Y-89400000D02*
X184675000Y-87875000D01*
X184675000Y-87875000D02*
X191025000Y-87875000D01*
X181775000Y-96450000D02*
X183150000Y-95075000D01*
X183150000Y-95075000D02*
X183150000Y-89400000D01*
X149850000Y-96450000D02*
X181775000Y-96450000D01*
X191025000Y-87875000D02*
X192175000Y-86725000D01*
X149325000Y-95925000D02*
X149850000Y-96450000D01*
X149325000Y-95050000D02*
X149325000Y-95925000D01*
D32*
%TO.N,VDC*%
X202225000Y-92825000D02*
X203475000Y-94075000D01*
X184399500Y-92825000D02*
X202225000Y-92825000D01*
X183749500Y-93475000D02*
X184399500Y-92825000D01*
D34*
%TO.N,PD_SAFE*%
X171700000Y-88925000D02*
X172900000Y-87725000D01*
X159575000Y-87950000D02*
X160550000Y-88925000D01*
X157025000Y-87950000D02*
X159575000Y-87950000D01*
X155175000Y-89800000D02*
X157025000Y-87950000D01*
X137025878Y-92231794D02*
X137025878Y-90674122D01*
X137025878Y-90674122D02*
X137900000Y-89800000D01*
X137900000Y-89800000D02*
X155175000Y-89800000D01*
X160550000Y-88925000D02*
X171700000Y-88925000D01*
D32*
%TO.N,SDA*%
X159850000Y-86400000D02*
X177805000Y-86400000D01*
X156150000Y-82700000D02*
X159850000Y-86400000D01*
X135700000Y-82700000D02*
X156150000Y-82700000D01*
X134786673Y-83613327D02*
X135700000Y-82700000D01*
X134786673Y-85863327D02*
X134786673Y-83613327D01*
X177805000Y-86400000D02*
X178500000Y-87095000D01*
X134700000Y-85950000D02*
X134786673Y-85863327D01*
D34*
%TO.N,SW_SELECT*%
X132525000Y-86725000D02*
X132550000Y-86750000D01*
X131887887Y-86725000D02*
X132525000Y-86725000D01*
X137175000Y-98325000D02*
X131525000Y-92675000D01*
X191625872Y-98325000D02*
X137175000Y-98325000D01*
X131525000Y-87087887D02*
X131887887Y-86725000D01*
X192125436Y-97825436D02*
X191625872Y-98325000D01*
X131525000Y-92675000D02*
X131525000Y-87087887D01*
%TO.N,TILT_SW*%
X139075000Y-90375000D02*
X138625000Y-90825000D01*
X157000000Y-90375000D02*
X139075000Y-90375000D01*
X158750000Y-92125000D02*
X157000000Y-90375000D01*
X158750000Y-92500000D02*
X158750000Y-92125000D01*
%TO.N,SW_BACK*%
X133250000Y-90010000D02*
X133250000Y-86300000D01*
X138115000Y-94875000D02*
X133250000Y-90010000D01*
X140400000Y-94875000D02*
X138115000Y-94875000D01*
%TO.N,SW_NEXT*%
X132136416Y-89826416D02*
X132136416Y-87325000D01*
X138820000Y-96510000D02*
X132136416Y-89826416D01*
X144100000Y-96510000D02*
X138820000Y-96510000D01*
X147040000Y-93570000D02*
X144100000Y-96510000D01*
X153595000Y-93570000D02*
X147040000Y-93570000D01*
X154900000Y-94875000D02*
X153595000Y-93570000D01*
%TO.N,INT*%
X184870000Y-97730000D02*
X186800000Y-95800000D01*
X135150000Y-95580000D02*
X137300000Y-97730000D01*
X135150000Y-95300000D02*
X135150000Y-95580000D01*
X137300000Y-97730000D02*
X184870000Y-97730000D01*
X186800000Y-95800000D02*
X186800000Y-93450000D01*
%TO.N,FLIP*%
X182394364Y-96700000D02*
X182512500Y-96700000D01*
X181944364Y-97150000D02*
X182394364Y-96700000D01*
X137800000Y-97150000D02*
X181944364Y-97150000D01*
X136048911Y-95398911D02*
X137800000Y-97150000D01*
X136048911Y-94680000D02*
X136048911Y-95398911D01*
D33*
%TO.N,USB_D-*%
X213957021Y-99224981D02*
X214234615Y-98947387D01*
X133315019Y-99224981D02*
X213957021Y-99224981D01*
X133120000Y-99420000D02*
X133315019Y-99224981D01*
D36*
%TO.N,SW_NEXT*%
X155075000Y-95050000D02*
X154900000Y-94875000D01*
X156475000Y-95050000D02*
X155075000Y-95050000D01*
%TO.N,SW_ON{slash}OFF*%
X147825000Y-95050000D02*
X147650000Y-94875000D01*
X149225000Y-95050000D02*
X147825000Y-95050000D01*
%TO.N,SW_BACK*%
X140600000Y-95075000D02*
X140400000Y-94875000D01*
X142000000Y-95075000D02*
X140600000Y-95075000D01*
D32*
X140625000Y-95100000D02*
X140400000Y-94875000D01*
%TO.N,SW_NEXT*%
X156200000Y-94875000D02*
X156375000Y-95050000D01*
D34*
%TO.N,PD_SAFE*%
X172925000Y-85425000D02*
X172900000Y-85450000D01*
X191575000Y-85425000D02*
X172925000Y-85425000D01*
D36*
%TO.N,GND*%
X152075000Y-87075000D02*
X151900000Y-86900000D01*
X152075000Y-87925000D02*
X152075000Y-87075000D01*
%TO.N,+3V3*%
X151800000Y-85250000D02*
X151900000Y-85350000D01*
X151025000Y-85250000D02*
X151800000Y-85250000D01*
D34*
%TO.N,SW_SELECT*%
X192125436Y-97825436D02*
X192000000Y-97950871D01*
X195075871Y-94875000D02*
X192125436Y-97825436D01*
X206550000Y-93250000D02*
X204925000Y-94875000D01*
X204925000Y-94875000D02*
X195075871Y-94875000D01*
%TO.N,CC1*%
X181799305Y-83000000D02*
X181009583Y-83789722D01*
X220750000Y-86400000D02*
X217350000Y-83000000D01*
X217350000Y-83000000D02*
X181799305Y-83000000D01*
X220750000Y-88750000D02*
X220750000Y-86400000D01*
X219750000Y-89750000D02*
X220750000Y-88750000D01*
%TO.N,CC2*%
X221250000Y-86150000D02*
X217600000Y-82500000D01*
X221250000Y-91250000D02*
X221250000Y-86150000D01*
X219750000Y-92750000D02*
X221250000Y-91250000D01*
X217600000Y-82500000D02*
X180800000Y-82500000D01*
X180800000Y-82500000D02*
X180300000Y-83000000D01*
D36*
%TO.N,+3V3*%
X177425000Y-93250000D02*
X178500000Y-92175000D01*
X176100000Y-93250000D02*
X177425000Y-93250000D01*
X174750000Y-93250000D02*
X176100000Y-93250000D01*
%TO.N,Net-(C21-Pad2)*%
X203205761Y-92525000D02*
X201130761Y-90450000D01*
X204250000Y-92525000D02*
X203205761Y-92525000D01*
X208050000Y-87089339D02*
X208050000Y-88000000D01*
X205430761Y-86150000D02*
X207110661Y-86150000D01*
X207110661Y-86150000D02*
X208050000Y-87089339D01*
X201130761Y-90450000D02*
X205430761Y-86150000D01*
X190900000Y-90450000D02*
X201130761Y-90450000D01*
D35*
%TO.N,VDC*%
X203475000Y-94075000D02*
X204250000Y-94075000D01*
D34*
%TO.N,Net-(C21-Pad2)*%
X204250000Y-92525000D02*
X204125000Y-92400000D01*
X208050000Y-88000000D02*
X207900000Y-87850000D01*
D36*
%TO.N,Net-(Q2-G)*%
X206525000Y-87175000D02*
X206800000Y-86900000D01*
X206525000Y-88100000D02*
X206525000Y-87175000D01*
D35*
%TO.N,GND*%
X204900000Y-88125000D02*
X204875000Y-88100000D01*
X204900000Y-89100000D02*
X204900000Y-88125000D01*
%TO.N,Net-(Q2-G)*%
X206550000Y-88125000D02*
X206525000Y-88100000D01*
X206550000Y-91600000D02*
X206550000Y-88125000D01*
X206662500Y-91487500D02*
X206550000Y-91600000D01*
%TO.N,VDC*%
X205050000Y-96800000D02*
X204350000Y-96800000D01*
%TO.N,GND*%
X205050000Y-95975000D02*
X204350000Y-95975000D01*
X205050000Y-95975000D02*
X205625000Y-95400000D01*
X205625000Y-95400000D02*
X206300000Y-95400000D01*
%TO.N,VBUS*%
X209550000Y-89600000D02*
X209000000Y-90150000D01*
X209000000Y-90150000D02*
X209000000Y-93200000D01*
D36*
%TO.N,+3V3*%
X181250000Y-95500000D02*
X181250000Y-94650000D01*
D34*
%TO.N,SDA*%
X179979977Y-91729977D02*
X181250000Y-93000000D01*
X179650000Y-87095000D02*
X179979977Y-87424977D01*
X179979977Y-87424977D02*
X179979977Y-91729977D01*
X178500000Y-87095000D02*
X179650000Y-87095000D01*
D32*
X181750000Y-93500000D02*
X181250000Y-93000000D01*
X182500000Y-93500000D02*
X181750000Y-93500000D01*
D34*
%TO.N,Net-(C21-Pad2)*%
X208025000Y-88025000D02*
X208050000Y-88000000D01*
D37*
X208050000Y-88000000D02*
X211550000Y-88000000D01*
D34*
X204225000Y-92550000D02*
X204250000Y-92525000D01*
D37*
%TO.N,Net-(F1-Pad1)*%
X215200000Y-86612500D02*
X215600000Y-86212500D01*
X215600000Y-84762500D02*
X215612500Y-84750000D01*
X215600000Y-86212500D02*
X215600000Y-84762500D01*
D35*
%TO.N,Net-(F1-Pad2)*%
X215312500Y-89700000D02*
X215200000Y-89587500D01*
D34*
%TO.N,Net-(J3-D+-PadA6)*%
X217250000Y-91849500D02*
X217250000Y-90650500D01*
D35*
%TO.N,Net-(Q6-G)*%
X209950000Y-91325000D02*
X209950000Y-91250000D01*
X209950000Y-91250000D02*
X211550000Y-89650000D01*
X209950000Y-95162500D02*
X209950000Y-91325000D01*
%TO.N,Net-(Q6-S)*%
X208050000Y-95162500D02*
X208050000Y-91325000D01*
%TO.N,VDC*%
X205550000Y-97300000D02*
X205050000Y-96800000D01*
X206300000Y-97300000D02*
X205550000Y-97300000D01*
X206300000Y-97300000D02*
X208737500Y-97300000D01*
X208737500Y-97300000D02*
X209000000Y-97037500D01*
%TO.N,VBUS*%
X208100000Y-89600000D02*
X208050000Y-89650000D01*
%TD*%
%TA.AperFunction,Conductor*%
%TO.N,VBUS*%
G36*
X214450500Y-83713263D02*
G01*
X214486737Y-83749500D01*
X214500000Y-83799000D01*
X214500000Y-85301000D01*
X214486737Y-85350500D01*
X214450500Y-85386737D01*
X214401000Y-85400000D01*
X214143918Y-85400000D01*
X214095902Y-85387577D01*
X214059938Y-85353424D01*
X214045050Y-85306114D01*
X214054977Y-85257521D01*
X214061179Y-85244832D01*
X214065665Y-85230316D01*
X214074484Y-85169785D01*
X214075000Y-85162669D01*
X214075000Y-85013033D01*
X214072245Y-85002754D01*
X214061967Y-85000000D01*
X212913034Y-85000000D01*
X212902755Y-85002754D01*
X212900001Y-85013033D01*
X212900001Y-85162667D01*
X212900516Y-85169786D01*
X212909334Y-85230311D01*
X212913820Y-85244831D01*
X212917334Y-85252018D01*
X212927262Y-85300611D01*
X212912375Y-85347922D01*
X212876411Y-85382076D01*
X212828394Y-85394500D01*
X212585194Y-85394500D01*
X212530193Y-85377815D01*
X212493730Y-85333386D01*
X212488096Y-85276186D01*
X212515190Y-85225496D01*
X212597134Y-85143551D01*
X212606176Y-85131105D01*
X212656628Y-85032088D01*
X212661383Y-85017453D01*
X212674390Y-84935327D01*
X212675000Y-84927588D01*
X212675000Y-84913033D01*
X212672245Y-84902754D01*
X212661967Y-84900000D01*
X210938034Y-84900000D01*
X210927755Y-84902754D01*
X210925001Y-84913033D01*
X210925001Y-84927585D01*
X210925610Y-84935329D01*
X210938615Y-85017448D01*
X210943372Y-85032091D01*
X210993823Y-85131105D01*
X211002865Y-85143551D01*
X211084810Y-85225496D01*
X211111904Y-85276186D01*
X211106270Y-85333386D01*
X211069807Y-85377815D01*
X211014806Y-85394500D01*
X210669411Y-85394500D01*
X210665267Y-85395212D01*
X210665256Y-85395213D01*
X210645725Y-85398570D01*
X210628959Y-85400000D01*
X210406710Y-85400000D01*
X210356033Y-85386046D01*
X210319642Y-85348119D01*
X210307795Y-85296909D01*
X210323830Y-85246852D01*
X210363229Y-85212059D01*
X210463552Y-85163013D01*
X210476713Y-85153616D01*
X210553616Y-85076713D01*
X210563013Y-85063552D01*
X210611002Y-84965389D01*
X210615488Y-84950871D01*
X210624484Y-84889126D01*
X210624656Y-84886751D01*
X210622245Y-84877754D01*
X210611967Y-84875000D01*
X209388033Y-84875000D01*
X209377754Y-84877754D01*
X209375343Y-84886751D01*
X209375515Y-84889126D01*
X209384511Y-84950871D01*
X209388997Y-84965389D01*
X209436986Y-85063552D01*
X209446383Y-85076713D01*
X209523286Y-85153616D01*
X209536447Y-85163013D01*
X209636771Y-85212059D01*
X209676170Y-85246852D01*
X209692205Y-85296909D01*
X209680358Y-85348119D01*
X209643967Y-85386046D01*
X209593290Y-85400000D01*
X209371041Y-85400000D01*
X209354275Y-85398570D01*
X209334743Y-85395213D01*
X209334733Y-85395212D01*
X209330589Y-85394500D01*
X209075439Y-85394500D01*
X209074577Y-85394530D01*
X209074554Y-85394531D01*
X209063107Y-85394938D01*
X209059593Y-85395000D01*
X208940367Y-85395000D01*
X208936848Y-85394937D01*
X208925451Y-85394531D01*
X208925414Y-85394530D01*
X208924561Y-85394500D01*
X208835508Y-85394500D01*
X208797622Y-85386964D01*
X208765504Y-85365504D01*
X207886967Y-84486967D01*
X212900000Y-84486967D01*
X212902754Y-84497245D01*
X212913033Y-84500000D01*
X213224467Y-84500000D01*
X213234745Y-84497245D01*
X213237500Y-84486967D01*
X213737500Y-84486967D01*
X213740254Y-84497245D01*
X213750533Y-84500000D01*
X214061966Y-84500000D01*
X214072244Y-84497245D01*
X214074999Y-84486967D01*
X214074999Y-84337333D01*
X214074483Y-84330213D01*
X214065665Y-84269688D01*
X214061178Y-84255166D01*
X214014109Y-84158883D01*
X214004708Y-84145716D01*
X213929283Y-84070291D01*
X213916116Y-84060890D01*
X213819828Y-84013819D01*
X213805316Y-84009334D01*
X213747262Y-84000876D01*
X213740254Y-84002754D01*
X213737500Y-84013033D01*
X213737500Y-84486967D01*
X213237500Y-84486967D01*
X213237500Y-84013034D01*
X213234745Y-84002755D01*
X213227737Y-84000877D01*
X213169688Y-84009334D01*
X213155166Y-84013821D01*
X213058883Y-84060890D01*
X213045716Y-84070291D01*
X212970291Y-84145716D01*
X212960890Y-84158883D01*
X212913819Y-84255171D01*
X212909334Y-84269683D01*
X212900515Y-84330214D01*
X212900000Y-84337331D01*
X212900000Y-84486967D01*
X207886967Y-84486967D01*
X207828996Y-84428996D01*
X207807536Y-84396878D01*
X207805565Y-84386967D01*
X210925000Y-84386967D01*
X210927754Y-84397245D01*
X210938033Y-84400000D01*
X211536967Y-84400000D01*
X211547245Y-84397245D01*
X211550000Y-84386967D01*
X212050000Y-84386967D01*
X212052754Y-84397245D01*
X212063033Y-84400000D01*
X212661966Y-84400000D01*
X212672244Y-84397245D01*
X212674999Y-84386967D01*
X212674999Y-84372415D01*
X212674389Y-84364670D01*
X212661384Y-84282551D01*
X212656627Y-84267908D01*
X212606176Y-84168894D01*
X212597134Y-84156448D01*
X212518551Y-84077865D01*
X212506105Y-84068823D01*
X212407088Y-84018371D01*
X212392453Y-84013616D01*
X212310327Y-84000609D01*
X212302588Y-84000000D01*
X212063033Y-84000000D01*
X212052754Y-84002754D01*
X212050000Y-84013033D01*
X212050000Y-84386967D01*
X211550000Y-84386967D01*
X211550000Y-84013034D01*
X211547245Y-84002755D01*
X211536967Y-84000001D01*
X211297415Y-84000001D01*
X211289670Y-84000610D01*
X211207551Y-84013615D01*
X211192908Y-84018372D01*
X211093894Y-84068823D01*
X211081448Y-84077865D01*
X211002865Y-84156448D01*
X210993823Y-84168894D01*
X210943371Y-84267911D01*
X210938616Y-84282546D01*
X210925609Y-84364672D01*
X210925000Y-84372412D01*
X210925000Y-84386967D01*
X207805565Y-84386967D01*
X207800847Y-84363248D01*
X209375343Y-84363248D01*
X209377754Y-84372245D01*
X209388033Y-84375000D01*
X209736967Y-84375000D01*
X209747245Y-84372245D01*
X209750000Y-84361967D01*
X210250000Y-84361967D01*
X210252754Y-84372245D01*
X210263033Y-84375000D01*
X210611967Y-84375000D01*
X210622245Y-84372245D01*
X210624656Y-84363248D01*
X210624484Y-84360873D01*
X210615488Y-84299128D01*
X210611002Y-84284610D01*
X210563013Y-84186447D01*
X210553616Y-84173286D01*
X210476713Y-84096383D01*
X210463552Y-84086986D01*
X210365389Y-84038997D01*
X210350871Y-84034511D01*
X210289126Y-84025515D01*
X210282010Y-84025000D01*
X210263033Y-84025000D01*
X210252754Y-84027754D01*
X210250000Y-84038033D01*
X210250000Y-84361967D01*
X209750000Y-84361967D01*
X209750000Y-84038033D01*
X209747245Y-84027754D01*
X209736967Y-84025000D01*
X209717990Y-84025000D01*
X209710873Y-84025515D01*
X209649128Y-84034511D01*
X209634610Y-84038997D01*
X209536447Y-84086986D01*
X209523286Y-84096383D01*
X209446383Y-84173286D01*
X209436986Y-84186447D01*
X209388997Y-84284610D01*
X209384511Y-84299128D01*
X209375515Y-84360873D01*
X209375343Y-84363248D01*
X207800847Y-84363248D01*
X207800000Y-84358992D01*
X207800000Y-83799000D01*
X207813263Y-83749500D01*
X207849500Y-83713263D01*
X207899000Y-83700000D01*
X214401000Y-83700000D01*
X214450500Y-83713263D01*
G37*
%TD.AperFunction*%
%TD*%
%TA.AperFunction,Conductor*%
%TO.N,Net-(F1-Pad2)*%
G36*
X216826907Y-88300167D02*
G01*
X216828039Y-88300500D01*
X216968448Y-88300500D01*
X216971961Y-88300500D01*
X216973092Y-88300167D01*
X216975438Y-88300000D01*
X217058992Y-88300000D01*
X217096878Y-88307536D01*
X217128996Y-88328996D01*
X217271004Y-88471004D01*
X217292464Y-88503122D01*
X217300000Y-88541008D01*
X217300000Y-89858992D01*
X217292464Y-89896878D01*
X217271004Y-89928996D01*
X216606891Y-90593108D01*
X216606888Y-90593111D01*
X216600000Y-90600000D01*
X216600000Y-92300000D01*
X216607029Y-92306910D01*
X216607030Y-92306911D01*
X217270403Y-92959052D01*
X217292302Y-92991375D01*
X217300000Y-93029651D01*
X217300000Y-93601000D01*
X217286737Y-93650500D01*
X217250500Y-93686737D01*
X217201000Y-93700000D01*
X216925438Y-93700000D01*
X216923092Y-93699832D01*
X216921961Y-93699500D01*
X216778039Y-93699500D01*
X216776907Y-93699832D01*
X216774562Y-93700000D01*
X216741008Y-93700000D01*
X216703122Y-93692464D01*
X216671004Y-93671004D01*
X214328996Y-91328996D01*
X214307536Y-91296878D01*
X214300000Y-91258992D01*
X214300000Y-90520364D01*
X214312623Y-90471990D01*
X214347274Y-90435952D01*
X214395116Y-90421440D01*
X214435171Y-90430230D01*
X214435500Y-90429220D01*
X214457546Y-90436383D01*
X214539673Y-90449390D01*
X214547413Y-90450000D01*
X214936967Y-90450000D01*
X214947245Y-90447245D01*
X214950000Y-90436967D01*
X215450000Y-90436967D01*
X215452754Y-90447245D01*
X215463033Y-90450000D01*
X215852587Y-90450000D01*
X215860326Y-90449390D01*
X215942453Y-90436383D01*
X215957087Y-90431628D01*
X216056102Y-90381177D01*
X216068551Y-90372132D01*
X216147132Y-90293551D01*
X216156177Y-90281102D01*
X216206628Y-90182087D01*
X216211383Y-90167453D01*
X216224390Y-90085326D01*
X216225000Y-90077587D01*
X216225000Y-89850533D01*
X216222245Y-89840254D01*
X216211967Y-89837500D01*
X215463033Y-89837500D01*
X215452754Y-89840254D01*
X215450000Y-89850533D01*
X215450000Y-90436967D01*
X214950000Y-90436967D01*
X214950000Y-89324467D01*
X215450000Y-89324467D01*
X215452754Y-89334745D01*
X215463033Y-89337500D01*
X216211967Y-89337500D01*
X216222245Y-89334745D01*
X216225000Y-89324467D01*
X216225000Y-89097413D01*
X216224390Y-89089673D01*
X216211383Y-89007546D01*
X216206628Y-88992912D01*
X216156177Y-88893897D01*
X216147132Y-88881448D01*
X216068551Y-88802867D01*
X216056102Y-88793822D01*
X215957087Y-88743371D01*
X215942453Y-88738616D01*
X215860326Y-88725609D01*
X215852587Y-88725000D01*
X215463033Y-88725000D01*
X215452754Y-88727754D01*
X215450000Y-88738033D01*
X215450000Y-89324467D01*
X214950000Y-89324467D01*
X214950000Y-88738033D01*
X214947245Y-88727754D01*
X214936967Y-88725000D01*
X214547413Y-88725000D01*
X214539673Y-88725609D01*
X214457546Y-88738616D01*
X214435500Y-88745780D01*
X214435171Y-88744769D01*
X214395116Y-88753560D01*
X214347274Y-88739048D01*
X214312623Y-88703010D01*
X214300000Y-88654636D01*
X214300000Y-88399000D01*
X214313263Y-88349500D01*
X214349500Y-88313263D01*
X214399000Y-88300000D01*
X216824562Y-88300000D01*
X216826907Y-88300167D01*
G37*
%TD.AperFunction*%
%TD*%
%TA.AperFunction,Conductor*%
%TO.N,VBUS*%
G36*
X208010639Y-88600500D02*
G01*
X208969848Y-88600500D01*
X208998167Y-88606133D01*
X209022173Y-88622173D01*
X209200000Y-88800000D01*
X209207288Y-88800000D01*
X210092712Y-88800000D01*
X210100000Y-88800000D01*
X210277827Y-88622173D01*
X210301833Y-88606133D01*
X210330152Y-88600500D01*
X210826000Y-88600500D01*
X210863000Y-88610414D01*
X210890086Y-88637500D01*
X210900000Y-88674500D01*
X210900000Y-89269348D01*
X210894367Y-89297667D01*
X210878326Y-89321674D01*
X210247018Y-89952981D01*
X210206746Y-89973667D01*
X210161962Y-89967023D01*
X210129429Y-89935538D01*
X210121325Y-89890995D01*
X210124683Y-89865489D01*
X210125000Y-89860657D01*
X210125000Y-89859743D01*
X210122940Y-89852059D01*
X210115257Y-89850000D01*
X209809743Y-89850000D01*
X209802059Y-89852059D01*
X209800000Y-89859743D01*
X209800000Y-90140256D01*
X209802059Y-90147939D01*
X209809743Y-90149999D01*
X209835654Y-90149999D01*
X209840489Y-90149682D01*
X209865997Y-90146324D01*
X209910539Y-90154429D01*
X209942025Y-90186962D01*
X209948668Y-90231745D01*
X209927982Y-90272017D01*
X209834674Y-90365326D01*
X209810667Y-90381367D01*
X209782348Y-90387000D01*
X209766740Y-90387000D01*
X209764096Y-90387385D01*
X209764085Y-90387386D01*
X209704292Y-90396098D01*
X209704287Y-90396099D01*
X209698607Y-90396927D01*
X209697606Y-90397416D01*
X209680495Y-90400000D01*
X208319505Y-90400000D01*
X208302393Y-90397416D01*
X208301393Y-90396927D01*
X208295710Y-90396099D01*
X208295707Y-90396098D01*
X208235914Y-90387386D01*
X208235904Y-90387385D01*
X208233260Y-90387000D01*
X207866740Y-90387000D01*
X207864096Y-90387385D01*
X207864085Y-90387386D01*
X207804292Y-90396098D01*
X207804287Y-90396099D01*
X207798607Y-90396927D01*
X207797606Y-90397416D01*
X207780495Y-90400000D01*
X207374000Y-90400000D01*
X207337000Y-90390086D01*
X207309914Y-90363000D01*
X207300000Y-90326000D01*
X207300000Y-89910399D01*
X207476811Y-89910399D01*
X207477268Y-89914343D01*
X207480158Y-89924967D01*
X207520443Y-90016205D01*
X207528061Y-90027326D01*
X207597673Y-90096938D01*
X207608794Y-90104556D01*
X207700036Y-90144843D01*
X207710650Y-90147731D01*
X207728078Y-90149753D01*
X207732350Y-90150000D01*
X207790257Y-90150000D01*
X207797940Y-90147940D01*
X207800000Y-90140257D01*
X207800000Y-90140256D01*
X208300000Y-90140256D01*
X208302059Y-90147939D01*
X208309743Y-90149999D01*
X208367647Y-90149999D01*
X208371925Y-90149751D01*
X208389343Y-90147731D01*
X208399967Y-90144841D01*
X208491205Y-90104556D01*
X208502326Y-90096938D01*
X208571938Y-90027326D01*
X208579556Y-90016205D01*
X208619842Y-89924964D01*
X208622731Y-89914348D01*
X208623189Y-89910397D01*
X208621833Y-89902281D01*
X208613930Y-89900000D01*
X208309743Y-89900000D01*
X208302059Y-89902059D01*
X208300000Y-89909743D01*
X208300000Y-90140256D01*
X207800000Y-90140256D01*
X207800000Y-89909743D01*
X207797940Y-89902059D01*
X207790257Y-89900000D01*
X207486073Y-89900000D01*
X207478167Y-89902282D01*
X207476811Y-89910399D01*
X207300000Y-89910399D01*
X207300000Y-89860654D01*
X208975001Y-89860654D01*
X208975318Y-89865493D01*
X208980492Y-89904802D01*
X208983622Y-89915542D01*
X209026932Y-90008421D01*
X209034245Y-90018865D01*
X209106134Y-90090754D01*
X209116578Y-90098067D01*
X209209455Y-90141376D01*
X209220199Y-90144508D01*
X209259508Y-90149683D01*
X209264343Y-90150000D01*
X209290257Y-90150000D01*
X209297940Y-90147940D01*
X209300000Y-90140257D01*
X209300000Y-89859743D01*
X209297940Y-89852059D01*
X209290257Y-89850000D01*
X208984744Y-89850000D01*
X208977060Y-89852059D01*
X208975001Y-89859743D01*
X208975001Y-89860654D01*
X207300000Y-89860654D01*
X207300000Y-89389602D01*
X207476810Y-89389602D01*
X207478166Y-89397718D01*
X207486070Y-89400000D01*
X207790257Y-89400000D01*
X207797940Y-89397940D01*
X207800000Y-89390257D01*
X208300000Y-89390257D01*
X208302059Y-89397940D01*
X208309743Y-89400000D01*
X208613927Y-89400000D01*
X208621832Y-89397717D01*
X208623188Y-89389600D01*
X208622731Y-89385656D01*
X208619841Y-89375032D01*
X208604487Y-89340257D01*
X208975000Y-89340257D01*
X208977059Y-89347940D01*
X208984743Y-89350000D01*
X209290257Y-89350000D01*
X209297940Y-89347940D01*
X209300000Y-89340257D01*
X209800000Y-89340257D01*
X209802059Y-89347940D01*
X209809743Y-89350000D01*
X210115256Y-89350000D01*
X210122939Y-89347940D01*
X210124999Y-89340257D01*
X210124999Y-89339346D01*
X210124681Y-89334506D01*
X210119507Y-89295197D01*
X210116377Y-89284457D01*
X210073067Y-89191578D01*
X210065754Y-89181134D01*
X209993865Y-89109245D01*
X209983421Y-89101932D01*
X209890544Y-89058623D01*
X209879800Y-89055491D01*
X209840491Y-89050316D01*
X209835657Y-89050000D01*
X209809743Y-89050000D01*
X209802059Y-89052059D01*
X209800000Y-89059743D01*
X209800000Y-89340257D01*
X209300000Y-89340257D01*
X209300000Y-89059744D01*
X209297940Y-89052060D01*
X209290257Y-89050001D01*
X209264346Y-89050001D01*
X209259506Y-89050318D01*
X209220197Y-89055492D01*
X209209457Y-89058622D01*
X209116578Y-89101932D01*
X209106134Y-89109245D01*
X209034245Y-89181134D01*
X209026932Y-89191578D01*
X208983623Y-89284455D01*
X208980491Y-89295199D01*
X208975316Y-89334508D01*
X208975000Y-89339343D01*
X208975000Y-89340257D01*
X208604487Y-89340257D01*
X208579556Y-89283794D01*
X208571938Y-89272673D01*
X208502326Y-89203061D01*
X208491205Y-89195443D01*
X208399963Y-89155156D01*
X208389349Y-89152268D01*
X208371921Y-89150246D01*
X208367650Y-89150000D01*
X208309743Y-89150000D01*
X208302059Y-89152059D01*
X208300000Y-89159743D01*
X208300000Y-89390257D01*
X207800000Y-89390257D01*
X207800000Y-89159744D01*
X207797940Y-89152060D01*
X207790257Y-89150001D01*
X207732353Y-89150001D01*
X207728074Y-89150248D01*
X207710656Y-89152268D01*
X207700032Y-89155158D01*
X207608794Y-89195443D01*
X207597673Y-89203061D01*
X207528061Y-89272673D01*
X207520443Y-89283794D01*
X207480157Y-89375035D01*
X207477268Y-89385651D01*
X207476810Y-89389602D01*
X207300000Y-89389602D01*
X207300000Y-89130652D01*
X207305633Y-89102333D01*
X207321674Y-89078326D01*
X207350000Y-89050000D01*
X207777829Y-88622170D01*
X207801833Y-88606132D01*
X207830148Y-88600499D01*
X208010636Y-88600499D01*
X208010639Y-88600500D01*
G37*
%TD.AperFunction*%
%TD*%
%TA.AperFunction,Conductor*%
%TO.N,GND*%
G36*
X224505751Y-82251411D02*
G01*
X224521725Y-82253940D01*
X224565525Y-82260877D01*
X224587540Y-82268031D01*
X224636210Y-82292829D01*
X224654938Y-82306436D01*
X224693563Y-82345061D01*
X224707171Y-82363791D01*
X224731967Y-82412455D01*
X224739122Y-82434475D01*
X224748589Y-82494248D01*
X224749500Y-82505824D01*
X224749500Y-99494176D01*
X224748589Y-99505752D01*
X224739122Y-99565524D01*
X224731967Y-99587544D01*
X224707171Y-99636208D01*
X224693563Y-99654938D01*
X224654938Y-99693563D01*
X224636208Y-99707171D01*
X224587544Y-99731967D01*
X224565524Y-99739122D01*
X224505752Y-99748589D01*
X224494176Y-99749500D01*
X215024000Y-99749500D01*
X214987000Y-99739586D01*
X214959914Y-99712500D01*
X214950000Y-99675500D01*
X214950000Y-98157288D01*
X214950000Y-98150000D01*
X214400000Y-97600000D01*
X214392712Y-97600000D01*
X213180652Y-97600000D01*
X213152333Y-97594367D01*
X213128326Y-97578326D01*
X212571674Y-97021674D01*
X212555633Y-96997667D01*
X212550000Y-96969348D01*
X212550000Y-95575659D01*
X217763628Y-95575659D01*
X217837600Y-95716604D01*
X217842646Y-95723914D01*
X217949435Y-95844454D01*
X217956091Y-95850350D01*
X218088622Y-95941829D01*
X218096487Y-95945957D01*
X218247062Y-96003063D01*
X218255694Y-96005190D01*
X218375430Y-96019729D01*
X218379902Y-96020000D01*
X218710257Y-96020000D01*
X218717940Y-96017940D01*
X218720000Y-96010257D01*
X219220000Y-96010257D01*
X219222059Y-96017940D01*
X219229743Y-96020000D01*
X219560098Y-96020000D01*
X219564569Y-96019729D01*
X219684305Y-96005190D01*
X219692937Y-96003063D01*
X219843512Y-95945957D01*
X219851377Y-95941829D01*
X219983908Y-95850350D01*
X219990564Y-95844454D01*
X220097353Y-95723914D01*
X220102399Y-95716604D01*
X220176371Y-95575659D01*
X222193628Y-95575659D01*
X222267600Y-95716604D01*
X222272646Y-95723914D01*
X222379435Y-95844454D01*
X222386091Y-95850350D01*
X222518622Y-95941829D01*
X222526487Y-95945957D01*
X222677062Y-96003063D01*
X222685694Y-96005190D01*
X222805430Y-96019729D01*
X222809902Y-96020000D01*
X222890257Y-96020000D01*
X222897940Y-96017940D01*
X222900000Y-96010257D01*
X223400000Y-96010257D01*
X223402059Y-96017940D01*
X223409743Y-96020000D01*
X223490098Y-96020000D01*
X223494569Y-96019729D01*
X223614305Y-96005190D01*
X223622937Y-96003063D01*
X223773512Y-95945957D01*
X223781377Y-95941829D01*
X223913908Y-95850350D01*
X223920564Y-95844454D01*
X224027353Y-95723914D01*
X224032399Y-95716604D01*
X224106371Y-95575659D01*
X224106162Y-95572498D01*
X224098110Y-95570000D01*
X223409743Y-95570000D01*
X223402059Y-95572059D01*
X223400000Y-95579743D01*
X223400000Y-96010257D01*
X222900000Y-96010257D01*
X222900000Y-95579743D01*
X222897940Y-95572059D01*
X222890257Y-95570000D01*
X222201890Y-95570000D01*
X222193837Y-95572498D01*
X222193628Y-95575659D01*
X220176371Y-95575659D01*
X220176162Y-95572498D01*
X220168110Y-95570000D01*
X219229743Y-95570000D01*
X219222059Y-95572059D01*
X219220000Y-95579743D01*
X219220000Y-96010257D01*
X218720000Y-96010257D01*
X218720000Y-95579743D01*
X218717940Y-95572059D01*
X218710257Y-95570000D01*
X217771890Y-95570000D01*
X217763837Y-95572498D01*
X217763628Y-95575659D01*
X212550000Y-95575659D01*
X212550000Y-95064340D01*
X217763628Y-95064340D01*
X217763837Y-95067501D01*
X217771890Y-95070000D01*
X218710257Y-95070000D01*
X218717940Y-95067940D01*
X218720000Y-95060257D01*
X219220000Y-95060257D01*
X219222059Y-95067940D01*
X219229743Y-95070000D01*
X220168110Y-95070000D01*
X220176162Y-95067501D01*
X220176371Y-95064340D01*
X222193628Y-95064340D01*
X222193837Y-95067501D01*
X222201890Y-95070000D01*
X222890257Y-95070000D01*
X222897940Y-95067940D01*
X222900000Y-95060257D01*
X223400000Y-95060257D01*
X223402059Y-95067940D01*
X223409743Y-95070000D01*
X224098110Y-95070000D01*
X224106162Y-95067501D01*
X224106371Y-95064340D01*
X224032399Y-94923395D01*
X224027353Y-94916085D01*
X223920564Y-94795545D01*
X223913908Y-94789649D01*
X223781377Y-94698170D01*
X223773512Y-94694042D01*
X223622937Y-94636936D01*
X223614305Y-94634809D01*
X223494569Y-94620270D01*
X223490098Y-94620000D01*
X223409743Y-94620000D01*
X223402059Y-94622059D01*
X223400000Y-94629743D01*
X223400000Y-95060257D01*
X222900000Y-95060257D01*
X222900000Y-94629743D01*
X222897940Y-94622059D01*
X222890257Y-94620000D01*
X222809902Y-94620000D01*
X222805430Y-94620270D01*
X222685694Y-94634809D01*
X222677062Y-94636936D01*
X222526487Y-94694042D01*
X222518622Y-94698170D01*
X222386091Y-94789649D01*
X222379435Y-94795545D01*
X222272646Y-94916085D01*
X222267600Y-94923395D01*
X222193628Y-95064340D01*
X220176371Y-95064340D01*
X220102399Y-94923395D01*
X220097353Y-94916085D01*
X219990564Y-94795545D01*
X219983908Y-94789649D01*
X219851377Y-94698170D01*
X219843512Y-94694042D01*
X219692937Y-94636936D01*
X219684305Y-94634809D01*
X219564569Y-94620270D01*
X219560098Y-94620000D01*
X219229743Y-94620000D01*
X219222059Y-94622059D01*
X219220000Y-94629743D01*
X219220000Y-95060257D01*
X218720000Y-95060257D01*
X218720000Y-94629743D01*
X218717940Y-94622059D01*
X218710257Y-94620000D01*
X218379902Y-94620000D01*
X218375430Y-94620270D01*
X218255694Y-94634809D01*
X218247062Y-94636936D01*
X218096487Y-94694042D01*
X218088622Y-94698170D01*
X217956091Y-94789649D01*
X217949435Y-94795545D01*
X217842646Y-94916085D01*
X217837600Y-94923395D01*
X217763628Y-95064340D01*
X212550000Y-95064340D01*
X212550000Y-87457288D01*
X212550000Y-87450000D01*
X212433653Y-87333653D01*
X212412444Y-87289611D01*
X212423323Y-87241955D01*
X212461541Y-87211479D01*
X212482414Y-87204175D01*
X212492106Y-87199054D01*
X212592329Y-87125085D01*
X212600085Y-87117329D01*
X212674054Y-87017106D01*
X212679177Y-87007411D01*
X212720660Y-86888858D01*
X212722569Y-86880121D01*
X212724839Y-86855916D01*
X212725000Y-86852480D01*
X212725000Y-86809743D01*
X212722940Y-86802059D01*
X212715257Y-86800000D01*
X210884744Y-86800000D01*
X210877060Y-86802059D01*
X210875001Y-86809743D01*
X210875001Y-86852477D01*
X210875161Y-86855919D01*
X210877430Y-86880121D01*
X210879339Y-86888857D01*
X210920822Y-87007411D01*
X210925945Y-87017106D01*
X210973882Y-87082057D01*
X210988080Y-87119780D01*
X210980402Y-87159348D01*
X210953125Y-87189023D01*
X210914342Y-87200000D01*
X209130652Y-87200000D01*
X209102333Y-87194367D01*
X209078326Y-87178326D01*
X208621674Y-86721674D01*
X208605633Y-86697667D01*
X208600000Y-86669348D01*
X208600000Y-86433789D01*
X209325256Y-86433789D01*
X209325456Y-86436323D01*
X209339850Y-86527214D01*
X209343407Y-86538161D01*
X209399236Y-86647730D01*
X209406001Y-86657042D01*
X209492957Y-86743998D01*
X209502269Y-86750763D01*
X209611837Y-86806591D01*
X209622786Y-86810149D01*
X209713676Y-86824545D01*
X209719458Y-86825000D01*
X209740257Y-86825000D01*
X209747940Y-86822940D01*
X209750000Y-86815257D01*
X209750000Y-86815256D01*
X210250000Y-86815256D01*
X210252059Y-86822939D01*
X210259743Y-86824999D01*
X210280541Y-86824999D01*
X210286323Y-86824543D01*
X210377214Y-86810149D01*
X210388161Y-86806592D01*
X210497730Y-86750763D01*
X210507042Y-86743998D01*
X210593998Y-86657042D01*
X210600763Y-86647730D01*
X210656591Y-86538162D01*
X210660149Y-86527213D01*
X210674545Y-86436323D01*
X210674744Y-86433789D01*
X210672940Y-86427059D01*
X210665257Y-86425000D01*
X210259743Y-86425000D01*
X210252059Y-86427059D01*
X210250000Y-86434743D01*
X210250000Y-86815256D01*
X209750000Y-86815256D01*
X209750000Y-86434743D01*
X209747940Y-86427059D01*
X209740257Y-86425000D01*
X209334744Y-86425000D01*
X209327060Y-86427059D01*
X209325256Y-86433789D01*
X208600000Y-86433789D01*
X208600000Y-86290257D01*
X210875000Y-86290257D01*
X210877059Y-86297940D01*
X210884743Y-86300000D01*
X211540257Y-86300000D01*
X211547940Y-86297940D01*
X211550000Y-86290257D01*
X212050000Y-86290257D01*
X212052059Y-86297940D01*
X212059743Y-86300000D01*
X212715256Y-86300000D01*
X212722939Y-86297940D01*
X212724999Y-86290257D01*
X212724999Y-86247523D01*
X212724838Y-86244080D01*
X212722569Y-86219878D01*
X212720660Y-86211142D01*
X212679177Y-86092588D01*
X212674054Y-86082893D01*
X212600085Y-85982670D01*
X212592329Y-85974914D01*
X212492106Y-85900945D01*
X212482411Y-85895822D01*
X212363858Y-85854339D01*
X212355121Y-85852430D01*
X212330916Y-85850160D01*
X212327480Y-85850000D01*
X212059743Y-85850000D01*
X212052059Y-85852059D01*
X212050000Y-85859743D01*
X212050000Y-86290257D01*
X211550000Y-86290257D01*
X211550000Y-85859744D01*
X211547940Y-85852060D01*
X211540257Y-85850001D01*
X211272523Y-85850001D01*
X211269080Y-85850161D01*
X211244878Y-85852430D01*
X211236142Y-85854339D01*
X211117588Y-85895822D01*
X211107893Y-85900945D01*
X211007670Y-85974914D01*
X210999914Y-85982670D01*
X210925945Y-86082893D01*
X210920822Y-86092588D01*
X210879339Y-86211141D01*
X210877430Y-86219878D01*
X210875160Y-86244083D01*
X210875000Y-86247520D01*
X210875000Y-86290257D01*
X208600000Y-86290257D01*
X208600000Y-85830652D01*
X208605633Y-85802333D01*
X208621674Y-85778326D01*
X208778326Y-85621674D01*
X208802333Y-85605633D01*
X208830652Y-85600000D01*
X208924561Y-85600000D01*
X208926907Y-85600167D01*
X208928039Y-85600500D01*
X209068447Y-85600500D01*
X209071961Y-85600500D01*
X209073092Y-85600167D01*
X209075439Y-85600000D01*
X209330589Y-85600000D01*
X209377159Y-85616491D01*
X209402972Y-85658615D01*
X209396523Y-85707596D01*
X209343407Y-85811840D01*
X209339850Y-85822786D01*
X209325454Y-85913676D01*
X209325255Y-85916210D01*
X209327059Y-85922940D01*
X209334743Y-85925000D01*
X210665256Y-85925000D01*
X210672939Y-85922940D01*
X210674743Y-85916210D01*
X210674543Y-85913676D01*
X210660149Y-85822785D01*
X210656593Y-85811841D01*
X210603477Y-85707596D01*
X210597028Y-85658615D01*
X210622841Y-85616491D01*
X210669411Y-85600000D01*
X213719348Y-85600000D01*
X213747667Y-85605633D01*
X213771674Y-85621674D01*
X213978326Y-85828326D01*
X213994367Y-85852333D01*
X214000000Y-85880652D01*
X214000000Y-91400000D01*
X216500000Y-93900000D01*
X216507288Y-93900000D01*
X216685832Y-93900000D01*
X216697313Y-93901131D01*
X216697343Y-93900931D01*
X216699137Y-93901197D01*
X216700917Y-93901551D01*
X216741008Y-93905500D01*
X216773922Y-93905500D01*
X216774562Y-93905500D01*
X216787233Y-93905046D01*
X216789877Y-93905000D01*
X216910127Y-93905000D01*
X216912772Y-93905047D01*
X216925438Y-93905500D01*
X217198572Y-93905500D01*
X217201000Y-93905500D01*
X217237968Y-93900632D01*
X217247627Y-93900000D01*
X218825954Y-93900000D01*
X218860123Y-93908361D01*
X218886571Y-93931555D01*
X218899321Y-93964341D01*
X218903223Y-93993983D01*
X218909313Y-94040236D01*
X218967302Y-94180233D01*
X219059549Y-94300451D01*
X219179767Y-94392698D01*
X219319764Y-94450687D01*
X219432280Y-94465500D01*
X219505292Y-94465500D01*
X219507720Y-94465500D01*
X219620236Y-94450687D01*
X219760233Y-94392698D01*
X219880451Y-94300451D01*
X219972698Y-94180233D01*
X220030687Y-94040236D01*
X220050466Y-93890000D01*
X220030687Y-93739764D01*
X219972698Y-93599767D01*
X219973315Y-93599511D01*
X219964820Y-93556804D01*
X219985859Y-93514140D01*
X221850000Y-91650000D01*
X221850000Y-86935659D01*
X222193628Y-86935659D01*
X222267600Y-87076604D01*
X222272646Y-87083914D01*
X222379435Y-87204454D01*
X222386091Y-87210350D01*
X222518622Y-87301829D01*
X222526487Y-87305957D01*
X222677062Y-87363063D01*
X222685694Y-87365190D01*
X222805430Y-87379729D01*
X222809902Y-87380000D01*
X222890257Y-87380000D01*
X222897940Y-87377940D01*
X222900000Y-87370257D01*
X223400000Y-87370257D01*
X223402059Y-87377940D01*
X223409743Y-87380000D01*
X223490098Y-87380000D01*
X223494569Y-87379729D01*
X223614305Y-87365190D01*
X223622937Y-87363063D01*
X223773512Y-87305957D01*
X223781377Y-87301829D01*
X223913908Y-87210350D01*
X223920564Y-87204454D01*
X224027353Y-87083914D01*
X224032399Y-87076604D01*
X224106371Y-86935659D01*
X224106162Y-86932498D01*
X224098110Y-86930000D01*
X223409743Y-86930000D01*
X223402059Y-86932059D01*
X223400000Y-86939743D01*
X223400000Y-87370257D01*
X222900000Y-87370257D01*
X222900000Y-86939743D01*
X222897940Y-86932059D01*
X222890257Y-86930000D01*
X222201890Y-86930000D01*
X222193837Y-86932498D01*
X222193628Y-86935659D01*
X221850000Y-86935659D01*
X221850000Y-86424340D01*
X222193628Y-86424340D01*
X222193837Y-86427501D01*
X222201890Y-86430000D01*
X222890257Y-86430000D01*
X222897940Y-86427940D01*
X222900000Y-86420257D01*
X223400000Y-86420257D01*
X223402059Y-86427940D01*
X223409743Y-86430000D01*
X224098110Y-86430000D01*
X224106162Y-86427501D01*
X224106371Y-86424340D01*
X224032399Y-86283395D01*
X224027353Y-86276085D01*
X223920564Y-86155545D01*
X223913908Y-86149649D01*
X223781377Y-86058170D01*
X223773512Y-86054042D01*
X223622937Y-85996936D01*
X223614305Y-85994809D01*
X223494569Y-85980270D01*
X223490098Y-85980000D01*
X223409743Y-85980000D01*
X223402059Y-85982059D01*
X223400000Y-85989743D01*
X223400000Y-86420257D01*
X222900000Y-86420257D01*
X222900000Y-85989743D01*
X222897940Y-85982059D01*
X222890257Y-85980000D01*
X222809902Y-85980000D01*
X222805430Y-85980270D01*
X222685694Y-85994809D01*
X222677062Y-85996936D01*
X222526487Y-86054042D01*
X222518622Y-86058170D01*
X222386091Y-86149649D01*
X222379435Y-86155545D01*
X222272646Y-86276085D01*
X222267600Y-86283395D01*
X222193628Y-86424340D01*
X221850000Y-86424340D01*
X221850000Y-85900000D01*
X218326826Y-82376826D01*
X218306574Y-82338937D01*
X218310785Y-82296181D01*
X218338040Y-82262971D01*
X218379152Y-82250500D01*
X224455830Y-82250500D01*
X224494176Y-82250500D01*
X224505751Y-82251411D01*
G37*
%TD.AperFunction*%
%TD*%
%TA.AperFunction,Conductor*%
%TO.N,GND*%
G36*
X135389537Y-82264015D02*
G01*
X135433560Y-82301615D01*
X135455715Y-82355102D01*
X135451173Y-82412818D01*
X135420923Y-82462181D01*
X134564119Y-83318984D01*
X134544369Y-83335023D01*
X134544303Y-83335083D01*
X134535704Y-83340702D01*
X134529395Y-83348806D01*
X134529393Y-83348809D01*
X134516784Y-83365009D01*
X134513561Y-83368978D01*
X134510433Y-83372671D01*
X134506810Y-83376295D01*
X134503833Y-83380463D01*
X134503829Y-83380469D01*
X134495084Y-83392717D01*
X134492024Y-83396820D01*
X134467086Y-83428860D01*
X134467084Y-83428863D01*
X134460780Y-83436963D01*
X134458266Y-83444284D01*
X134453771Y-83450581D01*
X134450844Y-83460411D01*
X134450841Y-83460418D01*
X134439253Y-83499340D01*
X134437692Y-83504212D01*
X134424509Y-83542616D01*
X134424508Y-83542620D01*
X134421173Y-83552336D01*
X134421173Y-83560075D01*
X134418965Y-83567492D01*
X134419389Y-83577752D01*
X134419389Y-83577756D01*
X134421067Y-83618313D01*
X134421173Y-83623437D01*
X134421173Y-84462653D01*
X134401489Y-84529692D01*
X134348686Y-84575447D01*
X134283356Y-84584840D01*
X134282196Y-84584500D01*
X134141150Y-84584500D01*
X134132639Y-84586998D01*
X134132639Y-84586999D01*
X134014326Y-84621738D01*
X134014322Y-84621739D01*
X134005817Y-84624237D01*
X133998360Y-84629028D01*
X133998356Y-84629031D01*
X133903776Y-84689815D01*
X133871671Y-84704477D01*
X133836736Y-84709500D01*
X132000766Y-84709500D01*
X131975464Y-84706875D01*
X131975365Y-84706870D01*
X131965313Y-84704763D01*
X131955121Y-84706033D01*
X131955113Y-84706033D01*
X131934736Y-84708573D01*
X131929647Y-84709101D01*
X131924833Y-84709500D01*
X131919714Y-84709500D01*
X131914659Y-84710343D01*
X131914651Y-84710344D01*
X131899826Y-84712817D01*
X131894767Y-84713554D01*
X131854461Y-84718579D01*
X131854453Y-84718581D01*
X131844267Y-84719851D01*
X131837313Y-84723250D01*
X131829681Y-84724524D01*
X131820649Y-84729411D01*
X131820648Y-84729412D01*
X131784942Y-84748735D01*
X131780389Y-84751078D01*
X131743906Y-84768914D01*
X131743901Y-84768917D01*
X131734679Y-84773426D01*
X131729207Y-84778897D01*
X131722401Y-84782581D01*
X131715446Y-84790135D01*
X131715442Y-84790139D01*
X131687935Y-84820019D01*
X131684388Y-84823715D01*
X125437446Y-91070657D01*
X125417696Y-91086696D01*
X125417630Y-91086756D01*
X125409031Y-91092375D01*
X125402722Y-91100479D01*
X125402720Y-91100482D01*
X125390111Y-91116682D01*
X125386888Y-91120651D01*
X125383760Y-91124344D01*
X125380137Y-91127968D01*
X125377160Y-91132136D01*
X125377156Y-91132142D01*
X125368411Y-91144390D01*
X125365351Y-91148493D01*
X125340413Y-91180533D01*
X125340411Y-91180536D01*
X125334107Y-91188636D01*
X125331593Y-91195957D01*
X125327098Y-91202254D01*
X125324171Y-91212084D01*
X125324168Y-91212091D01*
X125312580Y-91251013D01*
X125311019Y-91255885D01*
X125297836Y-91294289D01*
X125297835Y-91294293D01*
X125294500Y-91304009D01*
X125294500Y-91311748D01*
X125292292Y-91319165D01*
X125292716Y-91329425D01*
X125292716Y-91329429D01*
X125294394Y-91369986D01*
X125294500Y-91375110D01*
X125294500Y-96736580D01*
X125279027Y-96796562D01*
X125236474Y-96841571D01*
X125208665Y-96859044D01*
X125201272Y-96863690D01*
X125201269Y-96863691D01*
X125195384Y-96867390D01*
X125190465Y-96872308D01*
X125190461Y-96872312D01*
X125112681Y-96950093D01*
X125057094Y-96982187D01*
X124992906Y-96982187D01*
X124937319Y-96950093D01*
X124859544Y-96872318D01*
X124854616Y-96867390D01*
X124848720Y-96863685D01*
X124848716Y-96863682D01*
X124746706Y-96799586D01*
X124713324Y-96778611D01*
X124593208Y-96736580D01*
X124562395Y-96725798D01*
X124562394Y-96725797D01*
X124555819Y-96723497D01*
X124548902Y-96722717D01*
X124548895Y-96722716D01*
X124396923Y-96705594D01*
X124390000Y-96704814D01*
X124383077Y-96705594D01*
X124231104Y-96722716D01*
X124231095Y-96722717D01*
X124224181Y-96723497D01*
X124217607Y-96725797D01*
X124217604Y-96725798D01*
X124073251Y-96776310D01*
X124073248Y-96776311D01*
X124066676Y-96778611D01*
X124060781Y-96782315D01*
X124060779Y-96782316D01*
X123931283Y-96863682D01*
X123931274Y-96863688D01*
X123925384Y-96867390D01*
X123920459Y-96872314D01*
X123920455Y-96872318D01*
X123849398Y-96943376D01*
X123793811Y-96975470D01*
X123729623Y-96975470D01*
X123674036Y-96943376D01*
X123595504Y-96864844D01*
X123584675Y-96856208D01*
X123453368Y-96773701D01*
X123440896Y-96767696D01*
X123384021Y-96747794D01*
X123372688Y-96746677D01*
X123370000Y-96757741D01*
X123370000Y-98142259D01*
X123372688Y-98153322D01*
X123384021Y-98152205D01*
X123440896Y-98132303D01*
X123453368Y-98126298D01*
X123584675Y-98043791D01*
X123595504Y-98035155D01*
X123674036Y-97956624D01*
X123729623Y-97924530D01*
X123793811Y-97924530D01*
X123849398Y-97956624D01*
X123925384Y-98032610D01*
X123931280Y-98036314D01*
X123931283Y-98036317D01*
X123968159Y-98059487D01*
X124066676Y-98121389D01*
X124224181Y-98176503D01*
X124390000Y-98195186D01*
X124555819Y-98176503D01*
X124713324Y-98121389D01*
X124854616Y-98032610D01*
X124937319Y-97949906D01*
X124992906Y-97917813D01*
X125057094Y-97917813D01*
X125112680Y-97949906D01*
X125195384Y-98032610D01*
X125201280Y-98036314D01*
X125201283Y-98036317D01*
X125238159Y-98059487D01*
X125336676Y-98121389D01*
X125494181Y-98176503D01*
X125660000Y-98195186D01*
X125825819Y-98176503D01*
X125983324Y-98121389D01*
X126124616Y-98032610D01*
X126207319Y-97949906D01*
X126262906Y-97917813D01*
X126327094Y-97917813D01*
X126382680Y-97949906D01*
X126465384Y-98032610D01*
X126471280Y-98036314D01*
X126471283Y-98036317D01*
X126508159Y-98059487D01*
X126606676Y-98121389D01*
X126764181Y-98176503D01*
X126930000Y-98195186D01*
X127095819Y-98176503D01*
X127253324Y-98121389D01*
X127342768Y-98065187D01*
X127402945Y-98046316D01*
X127464622Y-98059487D01*
X127511842Y-98101291D01*
X127526609Y-98123391D01*
X127606161Y-98176546D01*
X127676312Y-98190500D01*
X128717592Y-98190500D01*
X128723688Y-98190500D01*
X128793839Y-98176546D01*
X128873391Y-98123391D01*
X128926546Y-98043839D01*
X128940500Y-97973688D01*
X128940500Y-96926312D01*
X128926546Y-96856161D01*
X128873391Y-96776609D01*
X128855032Y-96764342D01*
X128803992Y-96730238D01*
X128803991Y-96730237D01*
X128793839Y-96723454D01*
X128781860Y-96721071D01*
X128729668Y-96710689D01*
X128729662Y-96710688D01*
X128723688Y-96709500D01*
X127676312Y-96709500D01*
X127670338Y-96710688D01*
X127670331Y-96710689D01*
X127618139Y-96721071D01*
X127618137Y-96721071D01*
X127606161Y-96723454D01*
X127596009Y-96730236D01*
X127596007Y-96730238D01*
X127536762Y-96769824D01*
X127536759Y-96769826D01*
X127526609Y-96776609D01*
X127519826Y-96786759D01*
X127519826Y-96786760D01*
X127511842Y-96798710D01*
X127464621Y-96840513D01*
X127402945Y-96853683D01*
X127342768Y-96834812D01*
X127295500Y-96805112D01*
X127253324Y-96778611D01*
X127133208Y-96736580D01*
X127102395Y-96725798D01*
X127102394Y-96725797D01*
X127095819Y-96723497D01*
X127088902Y-96722717D01*
X127088895Y-96722716D01*
X126936923Y-96705594D01*
X126930000Y-96704814D01*
X126923077Y-96705594D01*
X126771104Y-96722716D01*
X126771095Y-96722717D01*
X126764181Y-96723497D01*
X126757607Y-96725797D01*
X126757604Y-96725798D01*
X126613251Y-96776310D01*
X126613248Y-96776311D01*
X126606676Y-96778611D01*
X126600781Y-96782315D01*
X126600779Y-96782316D01*
X126471283Y-96863682D01*
X126471274Y-96863688D01*
X126465384Y-96867390D01*
X126460459Y-96872314D01*
X126460455Y-96872318D01*
X126382681Y-96950093D01*
X126327094Y-96982187D01*
X126262906Y-96982187D01*
X126207319Y-96950093D01*
X126129538Y-96872312D01*
X126129537Y-96872311D01*
X126124616Y-96867390D01*
X126083525Y-96841571D01*
X126040973Y-96796562D01*
X126025500Y-96736580D01*
X126025500Y-94700000D01*
X130754456Y-94700000D01*
X130756717Y-94715725D01*
X130773266Y-94830831D01*
X130773267Y-94830835D01*
X130774529Y-94839611D01*
X130833122Y-94967911D01*
X130925488Y-95074507D01*
X131044144Y-95150763D01*
X131179477Y-95190500D01*
X131311653Y-95190500D01*
X131320523Y-95190500D01*
X131455856Y-95150763D01*
X131574512Y-95074507D01*
X131666878Y-94967911D01*
X131725471Y-94839611D01*
X131745544Y-94700000D01*
X131725471Y-94560389D01*
X131666878Y-94432089D01*
X131574512Y-94325493D01*
X131543392Y-94305493D01*
X131463316Y-94254031D01*
X131463314Y-94254030D01*
X131455856Y-94249237D01*
X131447347Y-94246738D01*
X131447346Y-94246738D01*
X131368567Y-94223607D01*
X131320523Y-94209500D01*
X131179477Y-94209500D01*
X131170966Y-94211998D01*
X131170966Y-94211999D01*
X131052653Y-94246738D01*
X131052649Y-94246739D01*
X131044144Y-94249237D01*
X131036687Y-94254028D01*
X131036683Y-94254031D01*
X130932945Y-94320700D01*
X130932942Y-94320702D01*
X130925488Y-94325493D01*
X130919684Y-94332191D01*
X130919683Y-94332192D01*
X130838930Y-94425386D01*
X130833122Y-94432089D01*
X130829438Y-94440154D01*
X130829437Y-94440157D01*
X130778950Y-94550709D01*
X130774529Y-94560389D01*
X130773267Y-94569162D01*
X130773266Y-94569168D01*
X130757332Y-94680000D01*
X130754456Y-94700000D01*
X126025500Y-94700000D01*
X126025500Y-91567757D01*
X126034939Y-91520304D01*
X126061819Y-91480076D01*
X126708221Y-90833674D01*
X128653569Y-88888324D01*
X128704195Y-88857672D01*
X128763264Y-88853977D01*
X128817318Y-88878082D01*
X128854042Y-88924495D01*
X128904436Y-89034842D01*
X128904439Y-89034847D01*
X128908122Y-89042911D01*
X129000488Y-89149507D01*
X129119144Y-89225763D01*
X129254477Y-89265500D01*
X129386653Y-89265500D01*
X129395523Y-89265500D01*
X129530856Y-89225763D01*
X129649512Y-89149507D01*
X129741878Y-89042911D01*
X129800471Y-88914611D01*
X129820544Y-88775000D01*
X129819282Y-88766223D01*
X129819282Y-88766219D01*
X129812091Y-88716212D01*
X129817173Y-88659404D01*
X129847145Y-88610883D01*
X130922818Y-87535211D01*
X130972182Y-87504961D01*
X131029898Y-87500419D01*
X131083385Y-87522574D01*
X131120985Y-87566597D01*
X131134500Y-87622892D01*
X131134500Y-92613151D01*
X131134500Y-92736849D01*
X131137513Y-92746123D01*
X131137514Y-92746127D01*
X131141100Y-92757162D01*
X131145641Y-92776076D01*
X131148983Y-92797175D01*
X131153412Y-92805868D01*
X131153413Y-92805870D01*
X131158678Y-92816204D01*
X131166123Y-92834177D01*
X131169708Y-92845212D01*
X131169711Y-92845219D01*
X131172725Y-92854493D01*
X131178458Y-92862384D01*
X131178460Y-92862388D01*
X131185281Y-92871777D01*
X131195442Y-92888358D01*
X131200709Y-92898694D01*
X131205141Y-92907391D01*
X131212042Y-92914292D01*
X136136069Y-97838319D01*
X136166319Y-97887682D01*
X136170861Y-97945398D01*
X136148706Y-97998885D01*
X136104683Y-98036485D01*
X136048388Y-98050000D01*
X130818076Y-98050000D01*
X130759232Y-98034232D01*
X130750000Y-98025000D01*
X130738459Y-98036540D01*
X130738457Y-98036542D01*
X129061819Y-99713181D01*
X129021591Y-99740061D01*
X128974138Y-99749500D01*
X120509756Y-99749500D01*
X120490359Y-99747973D01*
X120442297Y-99740361D01*
X120405400Y-99728372D01*
X120370845Y-99710765D01*
X120339461Y-99687963D01*
X120312036Y-99660538D01*
X120289235Y-99629156D01*
X120271625Y-99594595D01*
X120259639Y-99557706D01*
X120252025Y-99509631D01*
X120250500Y-99490244D01*
X120250500Y-97702688D01*
X122416677Y-97702688D01*
X122417794Y-97714021D01*
X122437696Y-97770896D01*
X122443701Y-97783368D01*
X122526208Y-97914675D01*
X122534844Y-97925504D01*
X122644495Y-98035155D01*
X122655324Y-98043791D01*
X122786631Y-98126298D01*
X122799103Y-98132303D01*
X122855978Y-98152205D01*
X122867311Y-98153322D01*
X122870000Y-98142259D01*
X122870000Y-97716326D01*
X122866549Y-97703450D01*
X122853674Y-97700000D01*
X122427741Y-97700000D01*
X122416677Y-97702688D01*
X120250500Y-97702688D01*
X120250500Y-97197311D01*
X122416677Y-97197311D01*
X122427741Y-97200000D01*
X122853674Y-97200000D01*
X122866549Y-97196549D01*
X122870000Y-97183674D01*
X122870000Y-96757741D01*
X122867311Y-96746677D01*
X122855978Y-96747794D01*
X122799103Y-96767696D01*
X122786631Y-96773701D01*
X122655324Y-96856208D01*
X122644495Y-96864844D01*
X122534844Y-96974495D01*
X122526208Y-96985324D01*
X122443701Y-97116631D01*
X122437696Y-97129103D01*
X122417794Y-97185978D01*
X122416677Y-97197311D01*
X120250500Y-97197311D01*
X120250500Y-96879228D01*
X120250500Y-96874802D01*
X120214864Y-96626954D01*
X120144320Y-96386700D01*
X120040301Y-96158932D01*
X119904927Y-95948285D01*
X119740952Y-95759048D01*
X119551715Y-95595073D01*
X119538979Y-95586888D01*
X119344789Y-95462090D01*
X119344785Y-95462088D01*
X119341068Y-95459699D01*
X119337046Y-95457862D01*
X119337042Y-95457860D01*
X119166557Y-95380002D01*
X119113300Y-95355680D01*
X119104741Y-95353167D01*
X118877303Y-95286386D01*
X118873046Y-95285136D01*
X118868666Y-95284506D01*
X118868656Y-95284504D01*
X118629578Y-95250129D01*
X118629567Y-95250128D01*
X118625198Y-95249500D01*
X118374802Y-95249500D01*
X118370433Y-95250128D01*
X118370421Y-95250129D01*
X118131343Y-95284504D01*
X118131330Y-95284506D01*
X118126954Y-95285136D01*
X118122699Y-95286385D01*
X118122696Y-95286386D01*
X117890949Y-95354432D01*
X117890943Y-95354433D01*
X117886700Y-95355680D01*
X117882674Y-95357518D01*
X117882673Y-95357519D01*
X117662957Y-95457860D01*
X117662947Y-95457865D01*
X117658932Y-95459699D01*
X117655220Y-95462084D01*
X117655210Y-95462090D01*
X117452004Y-95592682D01*
X117451994Y-95592688D01*
X117448285Y-95595073D01*
X117444950Y-95597962D01*
X117444943Y-95597968D01*
X117262388Y-95756153D01*
X117262381Y-95756159D01*
X117259048Y-95759048D01*
X117256159Y-95762381D01*
X117256153Y-95762388D01*
X117097968Y-95944943D01*
X117097962Y-95944950D01*
X117095073Y-95948285D01*
X117092688Y-95951994D01*
X117092682Y-95952004D01*
X116962090Y-96155210D01*
X116962084Y-96155220D01*
X116959699Y-96158932D01*
X116957865Y-96162947D01*
X116957860Y-96162957D01*
X116868375Y-96358901D01*
X116855680Y-96386700D01*
X116854433Y-96390943D01*
X116854432Y-96390949D01*
X116787064Y-96620388D01*
X116785136Y-96626954D01*
X116784506Y-96631330D01*
X116784504Y-96631343D01*
X116750129Y-96870421D01*
X116750128Y-96870433D01*
X116749500Y-96874802D01*
X116749500Y-96879228D01*
X116749500Y-98990244D01*
X116747973Y-99009642D01*
X116740361Y-99057702D01*
X116728372Y-99094600D01*
X116710766Y-99129153D01*
X116687963Y-99160538D01*
X116660538Y-99187963D01*
X116629153Y-99210766D01*
X116594600Y-99228372D01*
X116557702Y-99240361D01*
X116522884Y-99245875D01*
X116509640Y-99247973D01*
X116490244Y-99249500D01*
X96509756Y-99249500D01*
X96490359Y-99247973D01*
X96442297Y-99240361D01*
X96405400Y-99228372D01*
X96370845Y-99210765D01*
X96339461Y-99187963D01*
X96312036Y-99160538D01*
X96289235Y-99129156D01*
X96271625Y-99094595D01*
X96259639Y-99057706D01*
X96252025Y-99009631D01*
X96250500Y-98990244D01*
X96250500Y-91403356D01*
X97750000Y-91403356D01*
X97750248Y-91408896D01*
X97764617Y-91568548D01*
X97766599Y-91579470D01*
X97823494Y-91785622D01*
X97827395Y-91796015D01*
X97920183Y-91988693D01*
X97925877Y-91998223D01*
X98051581Y-92171239D01*
X98058879Y-92179594D01*
X98213460Y-92327388D01*
X98222141Y-92334310D01*
X98400622Y-92452125D01*
X98410386Y-92457380D01*
X98607053Y-92541439D01*
X98617594Y-92544863D01*
X98736378Y-92571975D01*
X98747521Y-92571975D01*
X98750000Y-92561112D01*
X98750000Y-92559810D01*
X99250000Y-92559810D01*
X99253884Y-92573104D01*
X99267580Y-92575169D01*
X99273764Y-92574331D01*
X99284566Y-92571865D01*
X99487970Y-92505776D01*
X99498169Y-92501416D01*
X99686507Y-92400068D01*
X99695752Y-92393964D01*
X99862968Y-92260614D01*
X99870982Y-92252952D01*
X100011695Y-92091893D01*
X100018213Y-92082921D01*
X100127905Y-91899330D01*
X100132719Y-91889332D01*
X100207866Y-91689106D01*
X100210819Y-91678406D01*
X100249004Y-91467987D01*
X100250000Y-91456929D01*
X100250000Y-91366326D01*
X100246549Y-91353450D01*
X100233674Y-91350000D01*
X99266326Y-91350000D01*
X99253450Y-91353450D01*
X99250000Y-91366326D01*
X99250000Y-92559810D01*
X98750000Y-92559810D01*
X98750000Y-91366326D01*
X98746549Y-91353450D01*
X98733674Y-91350000D01*
X97766326Y-91350000D01*
X97753450Y-91353450D01*
X97750000Y-91366326D01*
X97750000Y-91403356D01*
X96250500Y-91403356D01*
X96250500Y-91303356D01*
X102750000Y-91303356D01*
X102750248Y-91308896D01*
X102764617Y-91468548D01*
X102766599Y-91479470D01*
X102823494Y-91685622D01*
X102827395Y-91696015D01*
X102920183Y-91888693D01*
X102925877Y-91898223D01*
X103051581Y-92071239D01*
X103058879Y-92079594D01*
X103213460Y-92227388D01*
X103222141Y-92234310D01*
X103400622Y-92352125D01*
X103410386Y-92357380D01*
X103607053Y-92441439D01*
X103617594Y-92444863D01*
X103736378Y-92471975D01*
X103747521Y-92471975D01*
X103750000Y-92461112D01*
X103750000Y-92459810D01*
X104250000Y-92459810D01*
X104253884Y-92473104D01*
X104267580Y-92475169D01*
X104273764Y-92474331D01*
X104284566Y-92471865D01*
X104487970Y-92405776D01*
X104498169Y-92401416D01*
X104686507Y-92300068D01*
X104695752Y-92293964D01*
X104862968Y-92160614D01*
X104870982Y-92152952D01*
X105011695Y-91991893D01*
X105018213Y-91982921D01*
X105127905Y-91799330D01*
X105132719Y-91789332D01*
X105207866Y-91589106D01*
X105210819Y-91578406D01*
X105249004Y-91367987D01*
X105250000Y-91356929D01*
X105250000Y-91266326D01*
X105246549Y-91253450D01*
X105233674Y-91250000D01*
X104266326Y-91250000D01*
X104253450Y-91253450D01*
X104250000Y-91266326D01*
X104250000Y-92459810D01*
X103750000Y-92459810D01*
X103750000Y-91266326D01*
X103746549Y-91253450D01*
X103733674Y-91250000D01*
X102766326Y-91250000D01*
X102753450Y-91253450D01*
X102750000Y-91266326D01*
X102750000Y-91303356D01*
X96250500Y-91303356D01*
X96250500Y-90833674D01*
X97750000Y-90833674D01*
X97753450Y-90846549D01*
X97766326Y-90850000D01*
X98733674Y-90850000D01*
X98746549Y-90846549D01*
X98750000Y-90833674D01*
X99250000Y-90833674D01*
X99253450Y-90846549D01*
X99266326Y-90850000D01*
X100233674Y-90850000D01*
X100246549Y-90846549D01*
X100250000Y-90833674D01*
X100250000Y-90796644D01*
X100249751Y-90791103D01*
X100244582Y-90733674D01*
X102750000Y-90733674D01*
X102753450Y-90746549D01*
X102766326Y-90750000D01*
X103733674Y-90750000D01*
X103746549Y-90746549D01*
X103750000Y-90733674D01*
X104250000Y-90733674D01*
X104253450Y-90746549D01*
X104266326Y-90750000D01*
X105233674Y-90750000D01*
X105246549Y-90746549D01*
X105250000Y-90733674D01*
X105250000Y-90696644D01*
X105249751Y-90691103D01*
X105235382Y-90531451D01*
X105233400Y-90520529D01*
X105176505Y-90314377D01*
X105172604Y-90303984D01*
X105079816Y-90111306D01*
X105074122Y-90101776D01*
X104948418Y-89928760D01*
X104941120Y-89920405D01*
X104786539Y-89772611D01*
X104777858Y-89765689D01*
X104599377Y-89647874D01*
X104589613Y-89642619D01*
X104392946Y-89558560D01*
X104382405Y-89555136D01*
X104263622Y-89528025D01*
X104252479Y-89528025D01*
X104250000Y-89538888D01*
X104250000Y-90733674D01*
X103750000Y-90733674D01*
X103750000Y-89540190D01*
X103746115Y-89526895D01*
X103732419Y-89524830D01*
X103726235Y-89525668D01*
X103715433Y-89528134D01*
X103512029Y-89594223D01*
X103501830Y-89598583D01*
X103313492Y-89699931D01*
X103304247Y-89706035D01*
X103137031Y-89839385D01*
X103129017Y-89847047D01*
X102988304Y-90008106D01*
X102981786Y-90017078D01*
X102872094Y-90200669D01*
X102867280Y-90210667D01*
X102792133Y-90410893D01*
X102789180Y-90421593D01*
X102750995Y-90632012D01*
X102750000Y-90643071D01*
X102750000Y-90733674D01*
X100244582Y-90733674D01*
X100235382Y-90631451D01*
X100233400Y-90620529D01*
X100176505Y-90414377D01*
X100172604Y-90403984D01*
X100079816Y-90211306D01*
X100074122Y-90201776D01*
X99948418Y-90028760D01*
X99941120Y-90020405D01*
X99786539Y-89872611D01*
X99777858Y-89865689D01*
X99599377Y-89747874D01*
X99589613Y-89742619D01*
X99392946Y-89658560D01*
X99382405Y-89655136D01*
X99263622Y-89628025D01*
X99252479Y-89628025D01*
X99250000Y-89638888D01*
X99250000Y-90833674D01*
X98750000Y-90833674D01*
X98750000Y-89640190D01*
X98746115Y-89626895D01*
X98732419Y-89624830D01*
X98726235Y-89625668D01*
X98715433Y-89628134D01*
X98512029Y-89694223D01*
X98501830Y-89698583D01*
X98313492Y-89799931D01*
X98304247Y-89806035D01*
X98137031Y-89939385D01*
X98129017Y-89947047D01*
X97988304Y-90108106D01*
X97981786Y-90117078D01*
X97872094Y-90300669D01*
X97867280Y-90310667D01*
X97792133Y-90510893D01*
X97789180Y-90521593D01*
X97750995Y-90732012D01*
X97750000Y-90743071D01*
X97750000Y-90833674D01*
X96250500Y-90833674D01*
X96250500Y-83009756D01*
X96252025Y-82990368D01*
X96259639Y-82942291D01*
X96271624Y-82905406D01*
X96289237Y-82870840D01*
X96312033Y-82839464D01*
X96339464Y-82812033D01*
X96370840Y-82789237D01*
X96405406Y-82771624D01*
X96442291Y-82759639D01*
X96490368Y-82752025D01*
X96509756Y-82750500D01*
X96544170Y-82750500D01*
X116455830Y-82750500D01*
X116490244Y-82750500D01*
X116509631Y-82752025D01*
X116557706Y-82759639D01*
X116594595Y-82771625D01*
X116629156Y-82789235D01*
X116660538Y-82812036D01*
X116687963Y-82839461D01*
X116710765Y-82870845D01*
X116712798Y-82874835D01*
X116728372Y-82905399D01*
X116740361Y-82942297D01*
X116747973Y-82990358D01*
X116749500Y-83009756D01*
X116749500Y-84955830D01*
X116749500Y-85000000D01*
X116749500Y-85125198D01*
X116750128Y-85129567D01*
X116750129Y-85129578D01*
X116784504Y-85368656D01*
X116784506Y-85368666D01*
X116785136Y-85373046D01*
X116804942Y-85440500D01*
X116841691Y-85565659D01*
X116855680Y-85613300D01*
X116898814Y-85707749D01*
X116957011Y-85835184D01*
X116959699Y-85841068D01*
X116962088Y-85844785D01*
X116962090Y-85844789D01*
X117089216Y-86042602D01*
X117095073Y-86051715D01*
X117259048Y-86240952D01*
X117448285Y-86404927D01*
X117658932Y-86540301D01*
X117886700Y-86644320D01*
X118126954Y-86714864D01*
X118374802Y-86750500D01*
X118620772Y-86750500D01*
X118625198Y-86750500D01*
X118873046Y-86714864D01*
X119113300Y-86644320D01*
X119341068Y-86540301D01*
X119551715Y-86404927D01*
X119740952Y-86240952D01*
X119904927Y-86051715D01*
X120040301Y-85841068D01*
X120144320Y-85613300D01*
X120214864Y-85373046D01*
X120250500Y-85125198D01*
X120250500Y-85000000D01*
X120250500Y-84955830D01*
X120250500Y-84573688D01*
X121789500Y-84573688D01*
X121790688Y-84579662D01*
X121790689Y-84579668D01*
X121800021Y-84626579D01*
X121803454Y-84643839D01*
X121810237Y-84653991D01*
X121810238Y-84653992D01*
X121849543Y-84712817D01*
X121856609Y-84723391D01*
X121936161Y-84776546D01*
X122006312Y-84790500D01*
X123047592Y-84790500D01*
X123053688Y-84790500D01*
X123123839Y-84776546D01*
X123203391Y-84723391D01*
X123218156Y-84701292D01*
X123265375Y-84659488D01*
X123327052Y-84646316D01*
X123387229Y-84665186D01*
X123476676Y-84721389D01*
X123634181Y-84776503D01*
X123641104Y-84777283D01*
X123772823Y-84792124D01*
X123800000Y-84795186D01*
X123965819Y-84776503D01*
X124123324Y-84721389D01*
X124264616Y-84632610D01*
X124382610Y-84514616D01*
X124471389Y-84373324D01*
X124526503Y-84215819D01*
X124545186Y-84050000D01*
X124526503Y-83884181D01*
X124471389Y-83726676D01*
X124406520Y-83623437D01*
X124386317Y-83591283D01*
X124386314Y-83591280D01*
X124382610Y-83585384D01*
X124264616Y-83467390D01*
X124258720Y-83463685D01*
X124258716Y-83463682D01*
X124165548Y-83405142D01*
X124123324Y-83378611D01*
X123998758Y-83335023D01*
X123972395Y-83325798D01*
X123972394Y-83325797D01*
X123965819Y-83323497D01*
X123958902Y-83322717D01*
X123958895Y-83322716D01*
X123806923Y-83305594D01*
X123800000Y-83304814D01*
X123793077Y-83305594D01*
X123641104Y-83322716D01*
X123641095Y-83322717D01*
X123634181Y-83323497D01*
X123627607Y-83325797D01*
X123627604Y-83325798D01*
X123483251Y-83376310D01*
X123483248Y-83376311D01*
X123476676Y-83378611D01*
X123470783Y-83382313D01*
X123470774Y-83382318D01*
X123387230Y-83434812D01*
X123327052Y-83453683D01*
X123265376Y-83440512D01*
X123218156Y-83398707D01*
X123203391Y-83376609D01*
X123191970Y-83368978D01*
X123133992Y-83330238D01*
X123133991Y-83330237D01*
X123123839Y-83323454D01*
X123111860Y-83321071D01*
X123059668Y-83310689D01*
X123059662Y-83310688D01*
X123053688Y-83309500D01*
X122006312Y-83309500D01*
X122000338Y-83310688D01*
X122000331Y-83310689D01*
X121948139Y-83321071D01*
X121948137Y-83321071D01*
X121936161Y-83323454D01*
X121926009Y-83330236D01*
X121926007Y-83330238D01*
X121866762Y-83369824D01*
X121866759Y-83369826D01*
X121856609Y-83376609D01*
X121849826Y-83386759D01*
X121849824Y-83386762D01*
X121810238Y-83446007D01*
X121810236Y-83446009D01*
X121803454Y-83456161D01*
X121801071Y-83468137D01*
X121801071Y-83468139D01*
X121790689Y-83520331D01*
X121790688Y-83520338D01*
X121789500Y-83526312D01*
X121789500Y-84573688D01*
X120250500Y-84573688D01*
X120250500Y-82509756D01*
X120252025Y-82490368D01*
X120259639Y-82442291D01*
X120271624Y-82405406D01*
X120289237Y-82370840D01*
X120312033Y-82339464D01*
X120339464Y-82312033D01*
X120370840Y-82289237D01*
X120405406Y-82271624D01*
X120442291Y-82259639D01*
X120490368Y-82252025D01*
X120509756Y-82250500D01*
X120544170Y-82250500D01*
X135333242Y-82250500D01*
X135389537Y-82264015D01*
G37*
%TD.AperFunction*%
%TA.AperFunction,Conductor*%
G36*
X205300793Y-95139139D02*
G01*
X205341324Y-95150000D01*
X206426000Y-95150000D01*
X206488000Y-95166613D01*
X206533387Y-95212000D01*
X206550000Y-95274000D01*
X206550000Y-96133674D01*
X206553450Y-96146549D01*
X206566326Y-96150000D01*
X206819518Y-96150000D01*
X206826114Y-96149646D01*
X206874667Y-96144426D01*
X206889641Y-96140888D01*
X207008777Y-96096452D01*
X207024194Y-96088035D01*
X207101689Y-96030022D01*
X207164947Y-96005782D01*
X207231504Y-96018404D01*
X207281495Y-96064121D01*
X207300000Y-96129288D01*
X207300000Y-96582579D01*
X207281495Y-96647746D01*
X207231505Y-96693463D01*
X207164948Y-96706085D01*
X207101690Y-96681846D01*
X207089627Y-96672816D01*
X207056138Y-96647746D01*
X207019592Y-96620388D01*
X207019590Y-96620387D01*
X207012489Y-96615071D01*
X207004178Y-96611971D01*
X207004176Y-96611970D01*
X206887603Y-96568491D01*
X206887597Y-96568489D01*
X206880335Y-96565781D01*
X206872622Y-96564951D01*
X206872619Y-96564951D01*
X206825224Y-96559855D01*
X206825209Y-96559854D01*
X206821915Y-96559500D01*
X206818591Y-96559500D01*
X205781397Y-96559500D01*
X205781378Y-96559500D01*
X205778086Y-96559501D01*
X205774808Y-96559853D01*
X205774796Y-96559854D01*
X205727374Y-96564952D01*
X205727371Y-96564952D01*
X205719665Y-96565781D01*
X205712402Y-96568489D01*
X205712397Y-96568491D01*
X205692724Y-96575829D01*
X205623033Y-96580813D01*
X205561710Y-96547328D01*
X205535621Y-96521239D01*
X205462986Y-96448603D01*
X205452292Y-96436409D01*
X205440433Y-96420954D01*
X205440432Y-96420953D01*
X205435489Y-96414511D01*
X205422638Y-96404649D01*
X205407506Y-96390915D01*
X205400097Y-96382982D01*
X205400096Y-96382981D01*
X205394310Y-96376786D01*
X205387070Y-96372383D01*
X205387066Y-96372380D01*
X205361565Y-96356873D01*
X205350509Y-96349302D01*
X205326519Y-96330894D01*
X205326514Y-96330891D01*
X205322582Y-96327874D01*
X205321136Y-96327275D01*
X205317395Y-96324438D01*
X205309502Y-96321325D01*
X205309498Y-96321323D01*
X205301181Y-96318043D01*
X205282249Y-96308639D01*
X205274606Y-96303991D01*
X205274597Y-96303987D01*
X205267360Y-96299586D01*
X205259203Y-96297300D01*
X205259193Y-96297296D01*
X205234098Y-96290265D01*
X205220109Y-96285428D01*
X205191099Y-96273412D01*
X205186452Y-96272800D01*
X205179174Y-96269930D01*
X205170740Y-96269062D01*
X205170733Y-96269061D01*
X205161826Y-96268145D01*
X205141066Y-96264200D01*
X205137884Y-96263308D01*
X205124290Y-96259500D01*
X205115808Y-96259500D01*
X205093553Y-96259500D01*
X205077368Y-96258439D01*
X205058059Y-96255897D01*
X205050000Y-96254836D01*
X205043925Y-96255635D01*
X205041903Y-96255532D01*
X205039811Y-96255603D01*
X205031373Y-96254736D01*
X205023016Y-96256176D01*
X205023012Y-96256177D01*
X205014200Y-96257697D01*
X204993131Y-96259500D01*
X204393553Y-96259500D01*
X204377368Y-96258439D01*
X204358059Y-96255897D01*
X204350000Y-96254836D01*
X204328268Y-96257697D01*
X204315512Y-96259376D01*
X204314270Y-96259500D01*
X204313026Y-96259500D01*
X204309724Y-96259953D01*
X204309712Y-96259955D01*
X204278272Y-96264276D01*
X204277580Y-96264369D01*
X204213799Y-96272767D01*
X204213798Y-96272767D01*
X204208901Y-96273412D01*
X204207455Y-96274010D01*
X204202804Y-96274650D01*
X204195027Y-96278027D01*
X204195026Y-96278028D01*
X204139866Y-96301986D01*
X204137924Y-96302810D01*
X204084919Y-96324766D01*
X204084913Y-96324768D01*
X204077418Y-96327874D01*
X204073699Y-96330727D01*
X204066524Y-96333844D01*
X204059948Y-96339193D01*
X204059946Y-96339195D01*
X204016193Y-96374790D01*
X204013450Y-96376956D01*
X203964511Y-96414511D01*
X203960783Y-96419368D01*
X203959268Y-96420736D01*
X203957842Y-96422262D01*
X203951269Y-96427611D01*
X203946380Y-96434536D01*
X203946378Y-96434539D01*
X203916050Y-96477503D01*
X203913124Y-96481478D01*
X203882818Y-96520973D01*
X203882813Y-96520980D01*
X203877874Y-96527418D01*
X203874766Y-96534919D01*
X203874189Y-96535919D01*
X203871415Y-96540255D01*
X203870473Y-96542072D01*
X203865586Y-96548997D01*
X203862747Y-96556982D01*
X203862745Y-96556988D01*
X203846402Y-96602971D01*
X203844125Y-96608893D01*
X203826524Y-96651386D01*
X203826522Y-96651391D01*
X203823412Y-96658901D01*
X203822350Y-96666962D01*
X203820248Y-96674810D01*
X203819972Y-96674736D01*
X203818668Y-96681007D01*
X203815829Y-96688998D01*
X203815250Y-96697459D01*
X203815250Y-96697460D01*
X203812177Y-96742377D01*
X203811405Y-96750096D01*
X203805896Y-96791941D01*
X203805896Y-96791947D01*
X203804836Y-96800000D01*
X203805896Y-96808054D01*
X203805896Y-96816183D01*
X203805816Y-96816182D01*
X203806162Y-96827216D01*
X203806268Y-96828770D01*
X203805690Y-96837232D01*
X203807414Y-96845533D01*
X203807415Y-96845534D01*
X203815802Y-96885897D01*
X203817334Y-96894937D01*
X203822351Y-96933047D01*
X203822352Y-96933053D01*
X203823412Y-96941099D01*
X203826517Y-96948595D01*
X203826520Y-96948607D01*
X203826695Y-96949028D01*
X203833533Y-96971229D01*
X203834190Y-96974393D01*
X203834194Y-96974404D01*
X203835919Y-96982704D01*
X203839821Y-96990234D01*
X203857040Y-97023466D01*
X203861503Y-97033060D01*
X203863748Y-97038481D01*
X203877874Y-97072582D01*
X203882821Y-97079029D01*
X203885413Y-97082407D01*
X203897134Y-97100844D01*
X203900372Y-97107094D01*
X203900376Y-97107099D01*
X203904276Y-97114626D01*
X203910062Y-97120822D01*
X203910064Y-97120824D01*
X203933027Y-97145411D01*
X203940776Y-97154558D01*
X203964511Y-97185489D01*
X203970958Y-97190436D01*
X203977357Y-97195347D01*
X203992492Y-97209084D01*
X203999898Y-97217014D01*
X203999904Y-97217018D01*
X204005690Y-97223214D01*
X204012935Y-97227620D01*
X204012938Y-97227622D01*
X204038444Y-97243133D01*
X204049494Y-97250699D01*
X204077418Y-97272126D01*
X204095892Y-97279778D01*
X204112868Y-97288391D01*
X204125387Y-97296004D01*
X204125390Y-97296005D01*
X204132640Y-97300414D01*
X204158278Y-97307597D01*
X204165890Y-97309730D01*
X204179884Y-97314568D01*
X204208901Y-97326588D01*
X204232511Y-97329696D01*
X204249766Y-97333230D01*
X204275710Y-97340500D01*
X204306447Y-97340500D01*
X204322632Y-97341561D01*
X204350000Y-97345164D01*
X204358059Y-97344103D01*
X204377368Y-97341561D01*
X204393553Y-97340500D01*
X204774756Y-97340500D01*
X204822209Y-97349939D01*
X204862437Y-97376819D01*
X205159757Y-97674139D01*
X205162700Y-97677183D01*
X205187231Y-97703450D01*
X205205690Y-97723214D01*
X205212937Y-97727621D01*
X205240062Y-97744117D01*
X205250556Y-97751259D01*
X205282605Y-97775562D01*
X205298815Y-97781954D01*
X205317747Y-97791357D01*
X205332640Y-97800414D01*
X205353378Y-97806224D01*
X205354711Y-97806598D01*
X205405893Y-97835376D01*
X205438096Y-97884475D01*
X205444101Y-97942885D01*
X205422560Y-97997508D01*
X205378304Y-98036098D01*
X205321256Y-98050000D01*
X192752483Y-98050000D01*
X192696188Y-98036485D01*
X192652165Y-97998885D01*
X192630010Y-97945398D01*
X192634552Y-97887682D01*
X192664802Y-97838319D01*
X194808603Y-95694518D01*
X205325000Y-95694518D01*
X205325353Y-95701114D01*
X205330573Y-95749667D01*
X205334111Y-95764641D01*
X205378547Y-95883777D01*
X205386962Y-95899189D01*
X205462498Y-96000092D01*
X205474907Y-96012501D01*
X205575810Y-96088037D01*
X205591222Y-96096452D01*
X205710358Y-96140888D01*
X205725332Y-96144426D01*
X205773885Y-96149646D01*
X205780482Y-96150000D01*
X206033674Y-96150000D01*
X206046549Y-96146549D01*
X206050000Y-96133674D01*
X206050000Y-95666326D01*
X206046549Y-95653450D01*
X206033674Y-95650000D01*
X205341326Y-95650000D01*
X205328450Y-95653450D01*
X205325000Y-95666326D01*
X205325000Y-95694518D01*
X194808603Y-95694518D01*
X195201302Y-95301819D01*
X195241530Y-95274939D01*
X195288983Y-95265500D01*
X204977090Y-95265500D01*
X204986849Y-95265500D01*
X205007161Y-95258899D01*
X205026084Y-95254357D01*
X205027541Y-95254126D01*
X205047175Y-95251017D01*
X205066207Y-95241318D01*
X205084180Y-95233874D01*
X205104493Y-95227275D01*
X205121767Y-95214724D01*
X205138361Y-95204556D01*
X205148691Y-95199292D01*
X205148691Y-95199291D01*
X205157391Y-95194859D01*
X205181017Y-95171232D01*
X205236604Y-95139138D01*
X205300793Y-95139139D01*
G37*
%TD.AperFunction*%
%TA.AperFunction,Conductor*%
G36*
X202069696Y-93199939D02*
G01*
X202109924Y-93226819D01*
X202894950Y-94011845D01*
X202923380Y-94056003D01*
X202929145Y-94095419D01*
X202930690Y-94095314D01*
X202931268Y-94103770D01*
X202930690Y-94112232D01*
X202932414Y-94120533D01*
X202932415Y-94120534D01*
X202940802Y-94160897D01*
X202942334Y-94169937D01*
X202947351Y-94208047D01*
X202947352Y-94208053D01*
X202948412Y-94216099D01*
X202951517Y-94223595D01*
X202951520Y-94223607D01*
X202951695Y-94224028D01*
X202958533Y-94246229D01*
X202959190Y-94249393D01*
X202959194Y-94249404D01*
X202960919Y-94257704D01*
X202964821Y-94265234D01*
X202982040Y-94298466D01*
X202986505Y-94308067D01*
X202988570Y-94313053D01*
X202997409Y-94372658D01*
X202977108Y-94429393D01*
X202932459Y-94469859D01*
X202874007Y-94484500D01*
X195137720Y-94484500D01*
X195014022Y-94484500D01*
X195004745Y-94487513D01*
X195004739Y-94487515D01*
X194993707Y-94491100D01*
X194974795Y-94495641D01*
X194963334Y-94497456D01*
X194963331Y-94497456D01*
X194953696Y-94498983D01*
X194945003Y-94503411D01*
X194944997Y-94503414D01*
X194934656Y-94508683D01*
X194916691Y-94516124D01*
X194905661Y-94519708D01*
X194905657Y-94519709D01*
X194896378Y-94522725D01*
X194888483Y-94528460D01*
X194888482Y-94528461D01*
X194879096Y-94535280D01*
X194862516Y-94545440D01*
X194852174Y-94550709D01*
X194852165Y-94550714D01*
X194843480Y-94555141D01*
X194836582Y-94562038D01*
X194836580Y-94562040D01*
X194821483Y-94577136D01*
X194821480Y-94577139D01*
X194821479Y-94577141D01*
X194821479Y-94577142D01*
X191871044Y-97527577D01*
X191871045Y-97527577D01*
X191702143Y-97696478D01*
X191702140Y-97696481D01*
X191585642Y-97812980D01*
X191500441Y-97898181D01*
X191460213Y-97925061D01*
X191412760Y-97934500D01*
X185517112Y-97934500D01*
X185460817Y-97920985D01*
X185416794Y-97883385D01*
X185394639Y-97829898D01*
X185399181Y-97772182D01*
X185429431Y-97722819D01*
X185702250Y-97450000D01*
X186609286Y-96542962D01*
X186668806Y-96509885D01*
X186736821Y-96513225D01*
X186792816Y-96551978D01*
X186819904Y-96614456D01*
X186822255Y-96632309D01*
X186823412Y-96641099D01*
X186826521Y-96648605D01*
X186826522Y-96648608D01*
X186872455Y-96759500D01*
X186877874Y-96772582D01*
X186882821Y-96779029D01*
X186956310Y-96874802D01*
X186964511Y-96885489D01*
X187077418Y-96972126D01*
X187208901Y-97026588D01*
X187350000Y-97045164D01*
X187491099Y-97026588D01*
X187622582Y-96972126D01*
X187735489Y-96885489D01*
X187822126Y-96772582D01*
X187876588Y-96641099D01*
X187895164Y-96500000D01*
X187876588Y-96358901D01*
X187822126Y-96227418D01*
X187735489Y-96114511D01*
X187622582Y-96027874D01*
X187615073Y-96024763D01*
X187615072Y-96024763D01*
X187498608Y-95976522D01*
X187498605Y-95976521D01*
X187491099Y-95973412D01*
X187483045Y-95972351D01*
X187483039Y-95972350D01*
X187358059Y-95955897D01*
X187350000Y-95954836D01*
X187330685Y-95957378D01*
X187262096Y-95946822D01*
X187209920Y-95901065D01*
X187190500Y-95834440D01*
X187190500Y-95700000D01*
X190204836Y-95700000D01*
X190205897Y-95708059D01*
X190222350Y-95833039D01*
X190222351Y-95833045D01*
X190223412Y-95841099D01*
X190226521Y-95848605D01*
X190226522Y-95848608D01*
X190274763Y-95965072D01*
X190277874Y-95972582D01*
X190282821Y-95979029D01*
X190330220Y-96040801D01*
X190364511Y-96085489D01*
X190477418Y-96172126D01*
X190608901Y-96226588D01*
X190750000Y-96245164D01*
X190891099Y-96226588D01*
X191022582Y-96172126D01*
X191135489Y-96085489D01*
X191222126Y-95972582D01*
X191276588Y-95841099D01*
X191295164Y-95700000D01*
X191276588Y-95558901D01*
X191222126Y-95427418D01*
X191135489Y-95314511D01*
X191022582Y-95227874D01*
X191015073Y-95224763D01*
X191015072Y-95224763D01*
X190898608Y-95176522D01*
X190898605Y-95176521D01*
X190891099Y-95173412D01*
X190883045Y-95172351D01*
X190883039Y-95172350D01*
X190758059Y-95155897D01*
X190750000Y-95154836D01*
X190741941Y-95155897D01*
X190616960Y-95172350D01*
X190616952Y-95172351D01*
X190608901Y-95173412D01*
X190601396Y-95176520D01*
X190601391Y-95176522D01*
X190484927Y-95224763D01*
X190484922Y-95224765D01*
X190477418Y-95227874D01*
X190470973Y-95232818D01*
X190470970Y-95232821D01*
X190370953Y-95309567D01*
X190370949Y-95309570D01*
X190364511Y-95314511D01*
X190359570Y-95320949D01*
X190359567Y-95320953D01*
X190282821Y-95420970D01*
X190282818Y-95420973D01*
X190277874Y-95427418D01*
X190274765Y-95434922D01*
X190274763Y-95434927D01*
X190226522Y-95551391D01*
X190226520Y-95551396D01*
X190223412Y-95558901D01*
X190222351Y-95566952D01*
X190222350Y-95566960D01*
X190206129Y-95690172D01*
X190204836Y-95700000D01*
X187190500Y-95700000D01*
X187190500Y-93793031D01*
X187195523Y-93758096D01*
X187210185Y-93725991D01*
X187211069Y-93724613D01*
X187216878Y-93717911D01*
X187275471Y-93589611D01*
X187295544Y-93450000D01*
X187278599Y-93332145D01*
X187282360Y-93279565D01*
X187307624Y-93233297D01*
X187349825Y-93201706D01*
X187401337Y-93190500D01*
X202022243Y-93190500D01*
X202069696Y-93199939D01*
G37*
%TD.AperFunction*%
%TA.AperFunction,Conductor*%
G36*
X175609696Y-87274939D02*
G01*
X175649924Y-87301819D01*
X177452410Y-89104305D01*
X177478920Y-89143649D01*
X177488714Y-89190070D01*
X177480514Y-89235900D01*
X177478783Y-89239378D01*
X177477218Y-89244876D01*
X177477216Y-89244883D01*
X177425045Y-89428241D01*
X177425042Y-89428252D01*
X177423475Y-89433763D01*
X177422945Y-89439473D01*
X177422945Y-89439478D01*
X177412775Y-89549237D01*
X177404828Y-89635000D01*
X177405357Y-89640709D01*
X177422172Y-89822182D01*
X177423475Y-89836237D01*
X177425043Y-89841748D01*
X177425045Y-89841758D01*
X177477212Y-90025103D01*
X177477214Y-90025109D01*
X177478783Y-90030622D01*
X177568866Y-90211534D01*
X177572318Y-90216105D01*
X177687200Y-90368235D01*
X177687205Y-90368240D01*
X177690658Y-90372813D01*
X177694894Y-90376674D01*
X177694898Y-90376679D01*
X177787139Y-90460767D01*
X177840011Y-90508966D01*
X177844878Y-90511979D01*
X177844880Y-90511981D01*
X177909428Y-90551947D01*
X178011840Y-90615358D01*
X178017186Y-90617429D01*
X178017188Y-90617430D01*
X178043453Y-90627605D01*
X178200292Y-90688365D01*
X178398950Y-90725500D01*
X178595321Y-90725500D01*
X178601050Y-90725500D01*
X178799708Y-90688365D01*
X178988160Y-90615358D01*
X179159989Y-90508966D01*
X179309342Y-90372813D01*
X179366522Y-90297093D01*
X179414345Y-90258853D01*
X179474635Y-90248159D01*
X179532692Y-90267617D01*
X179574359Y-90312485D01*
X179589477Y-90371820D01*
X179589477Y-91438180D01*
X179574359Y-91497515D01*
X179532692Y-91542383D01*
X179474635Y-91561841D01*
X179414345Y-91551147D01*
X179366523Y-91512907D01*
X179312799Y-91441764D01*
X179312795Y-91441760D01*
X179309342Y-91437187D01*
X179305105Y-91433324D01*
X179305101Y-91433320D01*
X179169883Y-91310054D01*
X179159989Y-91301034D01*
X179155123Y-91298021D01*
X179155119Y-91298018D01*
X178993033Y-91197659D01*
X178993031Y-91197658D01*
X178988160Y-91194642D01*
X178982818Y-91192572D01*
X178982811Y-91192569D01*
X178836180Y-91135764D01*
X178799708Y-91121635D01*
X178794082Y-91120583D01*
X178794074Y-91120581D01*
X178606680Y-91085552D01*
X178606675Y-91085551D01*
X178601050Y-91084500D01*
X178398950Y-91084500D01*
X178393325Y-91085551D01*
X178393319Y-91085552D01*
X178205925Y-91120581D01*
X178205914Y-91120583D01*
X178200292Y-91121635D01*
X178194945Y-91123706D01*
X178194943Y-91123707D01*
X178017188Y-91192569D01*
X178017177Y-91192574D01*
X178011840Y-91194642D01*
X178006973Y-91197655D01*
X178006966Y-91197659D01*
X177844880Y-91298018D01*
X177844870Y-91298024D01*
X177840011Y-91301034D01*
X177835780Y-91304890D01*
X177835776Y-91304894D01*
X177694898Y-91433320D01*
X177694888Y-91433330D01*
X177690658Y-91437187D01*
X177687209Y-91441753D01*
X177687200Y-91441764D01*
X177572318Y-91593894D01*
X177572315Y-91593898D01*
X177568866Y-91598466D01*
X177566313Y-91603591D01*
X177566311Y-91603596D01*
X177481341Y-91774240D01*
X177478783Y-91779378D01*
X177477215Y-91784886D01*
X177477212Y-91784896D01*
X177425045Y-91968241D01*
X177425042Y-91968252D01*
X177423475Y-91973763D01*
X177422945Y-91979473D01*
X177422945Y-91979478D01*
X177410434Y-92114503D01*
X177404828Y-92175000D01*
X177405357Y-92180709D01*
X177418948Y-92327388D01*
X177423475Y-92376237D01*
X177440068Y-92434554D01*
X177443761Y-92447535D01*
X177444513Y-92512639D01*
X177412176Y-92569150D01*
X177258144Y-92723183D01*
X177217919Y-92750061D01*
X177170466Y-92759500D01*
X177069745Y-92759500D01*
X177014241Y-92746384D01*
X176970478Y-92709811D01*
X176964896Y-92702354D01*
X176925403Y-92649597D01*
X176876717Y-92613151D01*
X176819592Y-92570388D01*
X176819590Y-92570387D01*
X176812489Y-92565071D01*
X176804178Y-92561971D01*
X176804176Y-92561970D01*
X176687603Y-92518491D01*
X176687597Y-92518489D01*
X176680335Y-92515781D01*
X176672622Y-92514951D01*
X176672619Y-92514951D01*
X176625224Y-92509855D01*
X176625209Y-92509854D01*
X176621915Y-92509500D01*
X176618591Y-92509500D01*
X175764615Y-92509500D01*
X175705855Y-92494694D01*
X175661128Y-92453811D01*
X175641114Y-92396615D01*
X175650594Y-92336765D01*
X175687299Y-92288556D01*
X175860728Y-92150251D01*
X176007642Y-91982095D01*
X176122169Y-91790408D01*
X176200629Y-91581353D01*
X176240500Y-91361647D01*
X176240500Y-90694290D01*
X176225498Y-90527605D01*
X176166094Y-90312358D01*
X176069210Y-90111177D01*
X175937961Y-89930528D01*
X175933940Y-89926684D01*
X175933937Y-89926680D01*
X175780592Y-89780068D01*
X175780590Y-89780067D01*
X175776565Y-89776218D01*
X175590210Y-89653206D01*
X175585088Y-89651017D01*
X175585083Y-89651014D01*
X175390008Y-89567635D01*
X175390001Y-89567632D01*
X175384885Y-89565446D01*
X175379461Y-89564208D01*
X175379455Y-89564206D01*
X175172619Y-89516997D01*
X175172615Y-89516996D01*
X175167189Y-89515758D01*
X175161623Y-89515508D01*
X174949681Y-89505989D01*
X174949672Y-89505989D01*
X174944120Y-89505740D01*
X174938616Y-89506485D01*
X174938605Y-89506486D01*
X174728366Y-89534966D01*
X174728361Y-89534966D01*
X174722847Y-89535714D01*
X174717555Y-89537433D01*
X174717548Y-89537435D01*
X174515778Y-89602994D01*
X174515775Y-89602994D01*
X174510482Y-89604715D01*
X174505582Y-89607351D01*
X174505579Y-89607353D01*
X174318746Y-89707891D01*
X174318734Y-89707898D01*
X174313850Y-89710527D01*
X174309509Y-89713988D01*
X174309501Y-89713994D01*
X174143622Y-89846279D01*
X174143615Y-89846284D01*
X174139272Y-89849749D01*
X174135618Y-89853930D01*
X174135612Y-89853937D01*
X173996597Y-90013053D01*
X173992358Y-90017905D01*
X173989507Y-90022676D01*
X173989501Y-90022685D01*
X173880687Y-90204811D01*
X173877831Y-90209592D01*
X173875876Y-90214800D01*
X173875874Y-90214805D01*
X173801328Y-90413431D01*
X173801326Y-90413437D01*
X173799371Y-90418647D01*
X173798377Y-90424119D01*
X173798375Y-90424130D01*
X173760495Y-90632867D01*
X173760494Y-90632873D01*
X173759500Y-90638353D01*
X173759500Y-91305710D01*
X173759747Y-91308458D01*
X173759748Y-91308473D01*
X173774002Y-91466845D01*
X173774502Y-91472395D01*
X173775984Y-91477767D01*
X173775985Y-91477769D01*
X173828520Y-91668128D01*
X173833906Y-91687642D01*
X173836317Y-91692650D01*
X173836320Y-91692656D01*
X173928369Y-91883796D01*
X173930790Y-91888823D01*
X173934063Y-91893329D01*
X173934065Y-91893331D01*
X173972129Y-91945722D01*
X174062039Y-92069472D01*
X174066058Y-92073315D01*
X174066062Y-92073319D01*
X174211615Y-92212481D01*
X174223435Y-92223782D01*
X174409790Y-92346794D01*
X174414915Y-92348984D01*
X174414916Y-92348985D01*
X174548068Y-92405897D01*
X174615115Y-92434554D01*
X174737834Y-92462564D01*
X174742128Y-92463544D01*
X174801888Y-92496426D01*
X174835216Y-92555939D01*
X174833721Y-92587883D01*
X174841170Y-92554385D01*
X174889146Y-92505649D01*
X174955661Y-92489759D01*
X175055880Y-92494260D01*
X175135421Y-92483485D01*
X175192829Y-92489254D01*
X175241412Y-92520378D01*
X175270651Y-92570118D01*
X175274215Y-92627706D01*
X175251334Y-92680672D01*
X175229523Y-92709809D01*
X175185760Y-92746384D01*
X175130255Y-92759500D01*
X175002888Y-92759500D01*
X174955435Y-92750061D01*
X174954872Y-92749828D01*
X174902645Y-92728194D01*
X174849131Y-92685616D01*
X174828944Y-92628543D01*
X174793289Y-92680215D01*
X174730720Y-92707374D01*
X174616960Y-92722350D01*
X174616952Y-92722351D01*
X174608901Y-92723412D01*
X174601396Y-92726520D01*
X174601391Y-92726522D01*
X174484927Y-92774763D01*
X174484922Y-92774765D01*
X174477418Y-92777874D01*
X174470973Y-92782818D01*
X174470970Y-92782821D01*
X174370953Y-92859567D01*
X174370949Y-92859570D01*
X174364511Y-92864511D01*
X174359570Y-92870949D01*
X174359567Y-92870953D01*
X174282821Y-92970970D01*
X174282818Y-92970973D01*
X174277874Y-92977418D01*
X174274765Y-92984922D01*
X174274763Y-92984927D01*
X174226522Y-93101391D01*
X174226520Y-93101396D01*
X174223412Y-93108901D01*
X174222351Y-93116952D01*
X174222350Y-93116960D01*
X174208330Y-93223460D01*
X174204836Y-93250000D01*
X174205897Y-93258059D01*
X174222350Y-93383039D01*
X174222351Y-93383045D01*
X174223412Y-93391099D01*
X174226521Y-93398605D01*
X174226522Y-93398608D01*
X174269733Y-93502929D01*
X174277874Y-93522582D01*
X174282821Y-93529029D01*
X174354582Y-93622550D01*
X174364511Y-93635489D01*
X174477418Y-93722126D01*
X174608901Y-93776588D01*
X174750000Y-93795164D01*
X174891099Y-93776588D01*
X174955435Y-93749938D01*
X175002888Y-93740500D01*
X175130255Y-93740500D01*
X175185759Y-93753616D01*
X175229520Y-93790188D01*
X175274597Y-93850403D01*
X175387511Y-93934929D01*
X175449526Y-93958059D01*
X175512393Y-93981507D01*
X175519665Y-93984219D01*
X175578085Y-93990500D01*
X176621914Y-93990499D01*
X176680335Y-93984219D01*
X176812489Y-93934929D01*
X176925403Y-93850403D01*
X176970479Y-93790188D01*
X177014241Y-93753616D01*
X177069745Y-93740500D01*
X177358937Y-93740500D01*
X177372125Y-93741917D01*
X177372137Y-93741763D01*
X177380980Y-93742395D01*
X177389648Y-93744281D01*
X177438095Y-93740816D01*
X177446942Y-93740500D01*
X177455650Y-93740500D01*
X177460082Y-93740500D01*
X177473089Y-93738629D01*
X177481887Y-93737683D01*
X177530336Y-93734219D01*
X177538646Y-93731118D01*
X177547317Y-93729233D01*
X177547350Y-93729387D01*
X177547364Y-93729383D01*
X177547320Y-93729232D01*
X177555830Y-93726732D01*
X177564611Y-93725471D01*
X177608815Y-93705282D01*
X177616950Y-93701913D01*
X177628344Y-93697663D01*
X177695686Y-93692193D01*
X177755902Y-93722843D01*
X177791109Y-93780513D01*
X177790854Y-93848080D01*
X177755212Y-93905482D01*
X177687848Y-93966892D01*
X177680149Y-93975337D01*
X177564206Y-94128872D01*
X177558199Y-94138575D01*
X177472444Y-94310794D01*
X177468315Y-94321450D01*
X177431409Y-94451161D01*
X177430888Y-94462420D01*
X177441857Y-94465000D01*
X178233674Y-94465000D01*
X178246549Y-94461549D01*
X178250000Y-94448674D01*
X178750000Y-94448674D01*
X178753450Y-94461549D01*
X178766326Y-94465000D01*
X179558143Y-94465000D01*
X179569111Y-94462420D01*
X179568590Y-94451161D01*
X179531684Y-94321450D01*
X179527555Y-94310794D01*
X179441800Y-94138575D01*
X179435793Y-94128872D01*
X179319850Y-93975337D01*
X179312152Y-93966893D01*
X179169972Y-93837280D01*
X179160868Y-93830404D01*
X178997284Y-93729117D01*
X178987071Y-93724031D01*
X178807666Y-93654530D01*
X178796682Y-93651405D01*
X178763429Y-93645189D01*
X178752401Y-93645571D01*
X178750000Y-93656339D01*
X178750000Y-94448674D01*
X178250000Y-94448674D01*
X178250000Y-93656339D01*
X178247598Y-93645571D01*
X178236570Y-93645189D01*
X178203317Y-93651405D01*
X178192333Y-93654530D01*
X178012928Y-93724031D01*
X178002718Y-93729115D01*
X177963578Y-93753350D01*
X177896632Y-93771911D01*
X177830210Y-93751554D01*
X177785160Y-93698668D01*
X177775624Y-93629855D01*
X177800664Y-93575278D01*
X177799497Y-93574528D01*
X177801794Y-93570953D01*
X177801908Y-93570774D01*
X177803818Y-93568404D01*
X177804595Y-93566712D01*
X177810119Y-93560338D01*
X177810236Y-93560439D01*
X177818548Y-93550122D01*
X178103537Y-93265133D01*
X178154536Y-93234365D01*
X178213998Y-93230927D01*
X178398950Y-93265500D01*
X178595321Y-93265500D01*
X178601050Y-93265500D01*
X178799708Y-93228365D01*
X178988160Y-93155358D01*
X179159989Y-93048966D01*
X179309342Y-92912813D01*
X179431134Y-92751534D01*
X179521217Y-92570622D01*
X179576525Y-92376237D01*
X179594340Y-92183978D01*
X179619725Y-92119558D01*
X179675698Y-92078792D01*
X179744804Y-92074396D01*
X179805491Y-92107741D01*
X180498181Y-92800431D01*
X180525061Y-92840659D01*
X180534500Y-92888112D01*
X180534500Y-93253066D01*
X180534769Y-93255939D01*
X180534770Y-93255951D01*
X180535666Y-93265500D01*
X180537290Y-93282819D01*
X180539782Y-93289941D01*
X180539783Y-93289945D01*
X180578078Y-93399384D01*
X180581148Y-93408157D01*
X180634081Y-93479879D01*
X180654356Y-93507351D01*
X180660001Y-93514999D01*
X180766843Y-93593852D01*
X180892181Y-93637710D01*
X180921934Y-93640500D01*
X181322243Y-93640500D01*
X181369696Y-93649939D01*
X181409924Y-93676819D01*
X181455654Y-93722549D01*
X181471702Y-93742310D01*
X181471755Y-93742368D01*
X181477375Y-93750969D01*
X181495401Y-93764999D01*
X181501691Y-93769895D01*
X181505669Y-93773126D01*
X181509340Y-93776235D01*
X181512968Y-93779863D01*
X181519575Y-93784580D01*
X181520517Y-93785702D01*
X181521057Y-93786159D01*
X181520978Y-93786251D01*
X181559371Y-93831958D01*
X181571319Y-93892669D01*
X181552443Y-93951594D01*
X181507444Y-93994063D01*
X181447526Y-94009500D01*
X180921934Y-94009500D01*
X180919061Y-94009769D01*
X180919048Y-94009770D01*
X180899698Y-94011585D01*
X180899697Y-94011585D01*
X180892181Y-94012290D01*
X180885060Y-94014781D01*
X180885054Y-94014783D01*
X180775615Y-94053078D01*
X180775612Y-94053079D01*
X180766843Y-94056148D01*
X180759367Y-94061665D01*
X180759366Y-94061666D01*
X180667475Y-94129484D01*
X180667471Y-94129487D01*
X180660001Y-94135001D01*
X180654487Y-94142471D01*
X180654484Y-94142475D01*
X180588111Y-94232408D01*
X180581148Y-94241843D01*
X180578079Y-94250612D01*
X180578078Y-94250615D01*
X180539783Y-94360054D01*
X180539781Y-94360060D01*
X180537290Y-94367181D01*
X180536585Y-94374697D01*
X180536585Y-94374698D01*
X180534770Y-94394048D01*
X180534769Y-94394061D01*
X180534500Y-94396934D01*
X180534500Y-94903066D01*
X180534769Y-94905939D01*
X180534770Y-94905951D01*
X180536585Y-94925301D01*
X180537290Y-94932819D01*
X180539782Y-94939941D01*
X180539783Y-94939945D01*
X180568857Y-95023031D01*
X180581148Y-95058157D01*
X180660001Y-95164999D01*
X180692026Y-95188635D01*
X180692028Y-95188636D01*
X180727660Y-95229781D01*
X180742240Y-95282221D01*
X180732957Y-95335853D01*
X180726524Y-95351385D01*
X180726522Y-95351392D01*
X180723412Y-95358901D01*
X180722351Y-95366952D01*
X180722350Y-95366960D01*
X180706717Y-95485714D01*
X180704836Y-95500000D01*
X180705897Y-95508058D01*
X180705897Y-95508059D01*
X180722350Y-95633039D01*
X180722351Y-95633045D01*
X180723412Y-95641099D01*
X180726521Y-95648605D01*
X180726522Y-95648608D01*
X180774763Y-95765072D01*
X180777874Y-95772582D01*
X180782819Y-95779027D01*
X180782823Y-95779033D01*
X180844962Y-95860014D01*
X180869989Y-95923346D01*
X180857798Y-95990344D01*
X180812066Y-96040801D01*
X180746586Y-96059500D01*
X178632146Y-96059500D01*
X178573482Y-96044746D01*
X178528779Y-96003993D01*
X178508675Y-95946941D01*
X178517954Y-95887167D01*
X178554407Y-95838894D01*
X178609361Y-95813611D01*
X178796681Y-95778594D01*
X178807666Y-95775469D01*
X178987071Y-95705968D01*
X178997284Y-95700882D01*
X179160868Y-95599595D01*
X179169972Y-95592719D01*
X179312152Y-95463106D01*
X179319850Y-95454662D01*
X179435793Y-95301127D01*
X179441800Y-95291424D01*
X179527555Y-95119205D01*
X179531684Y-95108549D01*
X179568590Y-94978838D01*
X179569111Y-94967579D01*
X179558143Y-94965000D01*
X177441857Y-94965000D01*
X177430888Y-94967579D01*
X177431409Y-94978838D01*
X177468315Y-95108549D01*
X177472444Y-95119205D01*
X177558199Y-95291424D01*
X177564206Y-95301127D01*
X177680149Y-95454662D01*
X177687847Y-95463106D01*
X177830027Y-95592719D01*
X177839131Y-95599595D01*
X178002715Y-95700882D01*
X178012928Y-95705968D01*
X178192333Y-95775469D01*
X178203318Y-95778594D01*
X178390639Y-95813611D01*
X178445593Y-95838894D01*
X178482046Y-95887167D01*
X178491325Y-95946941D01*
X178471221Y-96003993D01*
X178426518Y-96044746D01*
X178367854Y-96059500D01*
X176900911Y-96059500D01*
X176841484Y-96044332D01*
X176796596Y-96002540D01*
X176777227Y-95944347D01*
X176788116Y-95883989D01*
X176826600Y-95836233D01*
X176925092Y-95762501D01*
X176937501Y-95750092D01*
X177013037Y-95649189D01*
X177021452Y-95633777D01*
X177065888Y-95514641D01*
X177069426Y-95499667D01*
X177074646Y-95451114D01*
X177075000Y-95444518D01*
X177075000Y-95416326D01*
X177071549Y-95403450D01*
X177058674Y-95400000D01*
X175141326Y-95400000D01*
X175128450Y-95403450D01*
X175125000Y-95416326D01*
X175125000Y-95444518D01*
X175125353Y-95451114D01*
X175130573Y-95499667D01*
X175134111Y-95514641D01*
X175178547Y-95633777D01*
X175186962Y-95649189D01*
X175262498Y-95750092D01*
X175274907Y-95762501D01*
X175373400Y-95836233D01*
X175411884Y-95883989D01*
X175422773Y-95944347D01*
X175403404Y-96002540D01*
X175358516Y-96044332D01*
X175299089Y-96059500D01*
X150063112Y-96059500D01*
X150015659Y-96050061D01*
X149975431Y-96023181D01*
X149770702Y-95818452D01*
X149738608Y-95762864D01*
X149738609Y-95698676D01*
X149770704Y-95643088D01*
X149775394Y-95638397D01*
X149782876Y-95632876D01*
X149866204Y-95519970D01*
X149878191Y-95485711D01*
X149911198Y-95435483D01*
X149963952Y-95406676D01*
X150024054Y-95406062D01*
X150077385Y-95433785D01*
X150111413Y-95483331D01*
X150125714Y-95521671D01*
X150134130Y-95537084D01*
X150205355Y-95632230D01*
X150217769Y-95644644D01*
X150312915Y-95715869D01*
X150328323Y-95724283D01*
X150440728Y-95766208D01*
X150455705Y-95769747D01*
X150501253Y-95774644D01*
X150507887Y-95775000D01*
X150508674Y-95775000D01*
X150521549Y-95771549D01*
X150525000Y-95758674D01*
X150525000Y-95758673D01*
X151025000Y-95758673D01*
X151028450Y-95771548D01*
X151041326Y-95774999D01*
X151042125Y-95774999D01*
X151048726Y-95774645D01*
X151094294Y-95769747D01*
X151109274Y-95766207D01*
X151221676Y-95724283D01*
X151237084Y-95715869D01*
X151332230Y-95644644D01*
X151344644Y-95632230D01*
X151415869Y-95537084D01*
X151424283Y-95521676D01*
X151466208Y-95409271D01*
X151469747Y-95394294D01*
X151474644Y-95348746D01*
X151475000Y-95342113D01*
X151475000Y-95316326D01*
X151471549Y-95303450D01*
X151458674Y-95300000D01*
X151041326Y-95300000D01*
X151028450Y-95303450D01*
X151025000Y-95316326D01*
X151025000Y-95758673D01*
X150525000Y-95758673D01*
X150525000Y-94783674D01*
X151025000Y-94783674D01*
X151028450Y-94796549D01*
X151041326Y-94800000D01*
X151458673Y-94800000D01*
X151471548Y-94796549D01*
X151474999Y-94783674D01*
X151474999Y-94757875D01*
X151474645Y-94751273D01*
X151469747Y-94705705D01*
X151466207Y-94690725D01*
X151424283Y-94578323D01*
X151415869Y-94562915D01*
X151344644Y-94467769D01*
X151332230Y-94455355D01*
X151237084Y-94384130D01*
X151221676Y-94375716D01*
X151109271Y-94333791D01*
X151094294Y-94330252D01*
X151048746Y-94325355D01*
X151042113Y-94325000D01*
X151041326Y-94325000D01*
X151028450Y-94328450D01*
X151025000Y-94341326D01*
X151025000Y-94783674D01*
X150525000Y-94783674D01*
X150525000Y-94341327D01*
X150521549Y-94328451D01*
X150508674Y-94325001D01*
X150507875Y-94325001D01*
X150501273Y-94325354D01*
X150455705Y-94330252D01*
X150440725Y-94333792D01*
X150328323Y-94375716D01*
X150312915Y-94384130D01*
X150217769Y-94455355D01*
X150205355Y-94467769D01*
X150134130Y-94562915D01*
X150125714Y-94578326D01*
X150111413Y-94616669D01*
X150077385Y-94666214D01*
X150024054Y-94693937D01*
X149963952Y-94693323D01*
X149911199Y-94664517D01*
X149878191Y-94614288D01*
X149866204Y-94580030D01*
X149857242Y-94567887D01*
X149809659Y-94503414D01*
X149782876Y-94467124D01*
X149773886Y-94460489D01*
X149677449Y-94389315D01*
X149677445Y-94389313D01*
X149669970Y-94383796D01*
X149661200Y-94380727D01*
X149661196Y-94380725D01*
X149544645Y-94339942D01*
X149544641Y-94339941D01*
X149537519Y-94337449D01*
X149530001Y-94336744D01*
X149508956Y-94334770D01*
X149508944Y-94334769D01*
X149506071Y-94334500D01*
X149503177Y-94334500D01*
X148946832Y-94334500D01*
X148946810Y-94334500D01*
X148943930Y-94334501D01*
X148941056Y-94334770D01*
X148941043Y-94334771D01*
X148919997Y-94336744D01*
X148919993Y-94336744D01*
X148912481Y-94337449D01*
X148905356Y-94339942D01*
X148905352Y-94339943D01*
X148788803Y-94380725D01*
X148788796Y-94380728D01*
X148780030Y-94383796D01*
X148772556Y-94389311D01*
X148772550Y-94389315D01*
X148674601Y-94461605D01*
X148674598Y-94461607D01*
X148667124Y-94467124D01*
X148636118Y-94509135D01*
X148592231Y-94546195D01*
X148536350Y-94559500D01*
X148514500Y-94559500D01*
X148452500Y-94542887D01*
X148407113Y-94497500D01*
X148390500Y-94435500D01*
X148390500Y-94232408D01*
X148390500Y-94226312D01*
X148376546Y-94156161D01*
X148369760Y-94146006D01*
X148365087Y-94134722D01*
X148368113Y-94133468D01*
X148353947Y-94090588D01*
X148368438Y-94026049D01*
X148414047Y-93978142D01*
X148477797Y-93960500D01*
X153381888Y-93960500D01*
X153429341Y-93969939D01*
X153469569Y-93996819D01*
X154123181Y-94650431D01*
X154150061Y-94690659D01*
X154159500Y-94738112D01*
X154159500Y-95523688D01*
X154160688Y-95529662D01*
X154160689Y-95529668D01*
X154170729Y-95580142D01*
X154173454Y-95593839D01*
X154180237Y-95603991D01*
X154180238Y-95603992D01*
X154219823Y-95663236D01*
X154226609Y-95673391D01*
X154306161Y-95726546D01*
X154376312Y-95740500D01*
X155417592Y-95740500D01*
X155423688Y-95740500D01*
X155493839Y-95726546D01*
X155573391Y-95673391D01*
X155625362Y-95595610D01*
X155670012Y-95555142D01*
X155728465Y-95540500D01*
X155786350Y-95540500D01*
X155842231Y-95553805D01*
X155886118Y-95590864D01*
X155917124Y-95632876D01*
X155940326Y-95650000D01*
X156022550Y-95710684D01*
X156022552Y-95710685D01*
X156030030Y-95716204D01*
X156162481Y-95762551D01*
X156193929Y-95765500D01*
X156756070Y-95765499D01*
X156787519Y-95762551D01*
X156919970Y-95716204D01*
X157032876Y-95632876D01*
X157116204Y-95519970D01*
X157128191Y-95485711D01*
X157161198Y-95435483D01*
X157213952Y-95406676D01*
X157274054Y-95406062D01*
X157327385Y-95433785D01*
X157361413Y-95483331D01*
X157375714Y-95521671D01*
X157384130Y-95537084D01*
X157455355Y-95632230D01*
X157467769Y-95644644D01*
X157562915Y-95715869D01*
X157578323Y-95724283D01*
X157690728Y-95766208D01*
X157705705Y-95769747D01*
X157751253Y-95774644D01*
X157757887Y-95775000D01*
X157758674Y-95775000D01*
X157771549Y-95771549D01*
X157775000Y-95758674D01*
X157775000Y-95758673D01*
X158275000Y-95758673D01*
X158278450Y-95771548D01*
X158291326Y-95774999D01*
X158292125Y-95774999D01*
X158298726Y-95774645D01*
X158344294Y-95769747D01*
X158359274Y-95766207D01*
X158471676Y-95724283D01*
X158487084Y-95715869D01*
X158582230Y-95644644D01*
X158594644Y-95632230D01*
X158665869Y-95537084D01*
X158674283Y-95521676D01*
X158716208Y-95409271D01*
X158719747Y-95394294D01*
X158724644Y-95348746D01*
X158725000Y-95342113D01*
X158725000Y-95316326D01*
X158721549Y-95303450D01*
X158708674Y-95300000D01*
X158291326Y-95300000D01*
X158278450Y-95303450D01*
X158275000Y-95316326D01*
X158275000Y-95758673D01*
X157775000Y-95758673D01*
X157775000Y-94783674D01*
X158275000Y-94783674D01*
X158278450Y-94796549D01*
X158291326Y-94800000D01*
X158708673Y-94800000D01*
X158721548Y-94796549D01*
X158724999Y-94783674D01*
X158724999Y-94757875D01*
X158724645Y-94751273D01*
X158719747Y-94705705D01*
X158716207Y-94690725D01*
X158674283Y-94578323D01*
X158665869Y-94562915D01*
X158594644Y-94467769D01*
X158582230Y-94455355D01*
X158487084Y-94384130D01*
X158471676Y-94375716D01*
X158359271Y-94333791D01*
X158344294Y-94330252D01*
X158298746Y-94325355D01*
X158292113Y-94325000D01*
X158291326Y-94325000D01*
X158278450Y-94328450D01*
X158275000Y-94341326D01*
X158275000Y-94783674D01*
X157775000Y-94783674D01*
X157775000Y-94341327D01*
X157771549Y-94328451D01*
X157758674Y-94325001D01*
X157757875Y-94325001D01*
X157751273Y-94325354D01*
X157705705Y-94330252D01*
X157690725Y-94333792D01*
X157578323Y-94375716D01*
X157562915Y-94384130D01*
X157467769Y-94455355D01*
X157455355Y-94467769D01*
X157384130Y-94562915D01*
X157375714Y-94578326D01*
X157361413Y-94616669D01*
X157327385Y-94666214D01*
X157274054Y-94693937D01*
X157213952Y-94693323D01*
X157161199Y-94664517D01*
X157128191Y-94614288D01*
X157116204Y-94580030D01*
X157107242Y-94567887D01*
X157059659Y-94503414D01*
X157032876Y-94467124D01*
X157023886Y-94460489D01*
X156927449Y-94389315D01*
X156927445Y-94389313D01*
X156919970Y-94383796D01*
X156911200Y-94380727D01*
X156911196Y-94380725D01*
X156794645Y-94339942D01*
X156794641Y-94339941D01*
X156787519Y-94337449D01*
X156780001Y-94336744D01*
X156758956Y-94334770D01*
X156758944Y-94334769D01*
X156756071Y-94334500D01*
X156753177Y-94334500D01*
X156196832Y-94334500D01*
X156196810Y-94334500D01*
X156193930Y-94334501D01*
X156191056Y-94334770D01*
X156191043Y-94334771D01*
X156169997Y-94336744D01*
X156169993Y-94336744D01*
X156162481Y-94337449D01*
X156155356Y-94339942D01*
X156155352Y-94339943D01*
X156038803Y-94380725D01*
X156038796Y-94380728D01*
X156030030Y-94383796D01*
X156022556Y-94389311D01*
X156022550Y-94389315D01*
X155924601Y-94461605D01*
X155924598Y-94461607D01*
X155917124Y-94467124D01*
X155886118Y-94509135D01*
X155842231Y-94546195D01*
X155786350Y-94559500D01*
X155764500Y-94559500D01*
X155702500Y-94542887D01*
X155657113Y-94497500D01*
X155640500Y-94435500D01*
X155640500Y-94232408D01*
X155640500Y-94226312D01*
X155626546Y-94156161D01*
X155573391Y-94076609D01*
X155551027Y-94061666D01*
X155503992Y-94030238D01*
X155503991Y-94030237D01*
X155493839Y-94023454D01*
X155481860Y-94021071D01*
X155429668Y-94010689D01*
X155429662Y-94010688D01*
X155423688Y-94009500D01*
X155417592Y-94009500D01*
X154638112Y-94009500D01*
X154590659Y-94000061D01*
X154550431Y-93973181D01*
X153849392Y-93272142D01*
X153849392Y-93272141D01*
X153841698Y-93264447D01*
X153834293Y-93257042D01*
X153834290Y-93257040D01*
X153827391Y-93250141D01*
X153818696Y-93245710D01*
X153818693Y-93245708D01*
X153808358Y-93240442D01*
X153791777Y-93230281D01*
X153782388Y-93223460D01*
X153782384Y-93223458D01*
X153774493Y-93217725D01*
X153765219Y-93214711D01*
X153765212Y-93214708D01*
X153754177Y-93211123D01*
X153736204Y-93203678D01*
X153725870Y-93198413D01*
X153725868Y-93198412D01*
X153717175Y-93193983D01*
X153699284Y-93191149D01*
X153696076Y-93190641D01*
X153677162Y-93186100D01*
X153666127Y-93182514D01*
X153666123Y-93182513D01*
X153656849Y-93179500D01*
X153625735Y-93179500D01*
X147101849Y-93179500D01*
X146978151Y-93179500D01*
X146968874Y-93182513D01*
X146968868Y-93182515D01*
X146957836Y-93186100D01*
X146938924Y-93190641D01*
X146927463Y-93192456D01*
X146927460Y-93192456D01*
X146917825Y-93193983D01*
X146909132Y-93198411D01*
X146909126Y-93198414D01*
X146898785Y-93203683D01*
X146880820Y-93211124D01*
X146869790Y-93214708D01*
X146869786Y-93214709D01*
X146860507Y-93217725D01*
X146852612Y-93223460D01*
X146852611Y-93223461D01*
X146843225Y-93230280D01*
X146826645Y-93240440D01*
X146816303Y-93245709D01*
X146816294Y-93245714D01*
X146807609Y-93250141D01*
X146800711Y-93257038D01*
X146800709Y-93257040D01*
X146785610Y-93272138D01*
X146785608Y-93272140D01*
X146785607Y-93272142D01*
X146785608Y-93272142D01*
X144416880Y-95640869D01*
X144359006Y-95673552D01*
X144292568Y-95671654D01*
X144236655Y-95635720D01*
X144207329Y-95576075D01*
X144213018Y-95509854D01*
X144241206Y-95434278D01*
X144244747Y-95419294D01*
X144249644Y-95373746D01*
X144250000Y-95367113D01*
X144250000Y-95341326D01*
X144246549Y-95328450D01*
X144233674Y-95325000D01*
X143816326Y-95325000D01*
X143803450Y-95328450D01*
X143800000Y-95341326D01*
X143800000Y-95783673D01*
X143803450Y-95796548D01*
X143816326Y-95799999D01*
X143817125Y-95799999D01*
X143823726Y-95799645D01*
X143869294Y-95794747D01*
X143884281Y-95791205D01*
X143959854Y-95763018D01*
X144026075Y-95757329D01*
X144085720Y-95786655D01*
X144121654Y-95842568D01*
X144123552Y-95909006D01*
X144090869Y-95966880D01*
X143974566Y-96083183D01*
X143934341Y-96110061D01*
X143886888Y-96119500D01*
X139033112Y-96119500D01*
X138985659Y-96110061D01*
X138945431Y-96083181D01*
X138339431Y-95477181D01*
X138309181Y-95427818D01*
X138304639Y-95370102D01*
X138326794Y-95316615D01*
X138370817Y-95279015D01*
X138427112Y-95265500D01*
X139535500Y-95265500D01*
X139597500Y-95282113D01*
X139642887Y-95327500D01*
X139659500Y-95389500D01*
X139659500Y-95523688D01*
X139660688Y-95529662D01*
X139660689Y-95529668D01*
X139670729Y-95580142D01*
X139673454Y-95593839D01*
X139680237Y-95603991D01*
X139680238Y-95603992D01*
X139719823Y-95663236D01*
X139726609Y-95673391D01*
X139806161Y-95726546D01*
X139876312Y-95740500D01*
X140917592Y-95740500D01*
X140923688Y-95740500D01*
X140993839Y-95726546D01*
X141073391Y-95673391D01*
X141108658Y-95620609D01*
X141153308Y-95580142D01*
X141211761Y-95565500D01*
X141311350Y-95565500D01*
X141367231Y-95578805D01*
X141411118Y-95615864D01*
X141442124Y-95657876D01*
X141467402Y-95676532D01*
X141547550Y-95735684D01*
X141547552Y-95735685D01*
X141555030Y-95741204D01*
X141563802Y-95744273D01*
X141563803Y-95744274D01*
X141623240Y-95765072D01*
X141687481Y-95787551D01*
X141718929Y-95790500D01*
X142281070Y-95790499D01*
X142312519Y-95787551D01*
X142444970Y-95741204D01*
X142557876Y-95657876D01*
X142641204Y-95544970D01*
X142653191Y-95510711D01*
X142686198Y-95460483D01*
X142738952Y-95431676D01*
X142799054Y-95431062D01*
X142852385Y-95458785D01*
X142886413Y-95508331D01*
X142900714Y-95546671D01*
X142909130Y-95562084D01*
X142980355Y-95657230D01*
X142992769Y-95669644D01*
X143087915Y-95740869D01*
X143103323Y-95749283D01*
X143215728Y-95791208D01*
X143230705Y-95794747D01*
X143276253Y-95799644D01*
X143282887Y-95800000D01*
X143283674Y-95800000D01*
X143296549Y-95796549D01*
X143300000Y-95783674D01*
X143300000Y-94808674D01*
X143800000Y-94808674D01*
X143803450Y-94821549D01*
X143816326Y-94825000D01*
X144233673Y-94825000D01*
X144246548Y-94821549D01*
X144249999Y-94808674D01*
X144249999Y-94782875D01*
X144249645Y-94776273D01*
X144244747Y-94730705D01*
X144241207Y-94715725D01*
X144199283Y-94603323D01*
X144190869Y-94587915D01*
X144119644Y-94492769D01*
X144107230Y-94480355D01*
X144012084Y-94409130D01*
X143996676Y-94400716D01*
X143884271Y-94358791D01*
X143869294Y-94355252D01*
X143823746Y-94350355D01*
X143817113Y-94350000D01*
X143816326Y-94350000D01*
X143803450Y-94353450D01*
X143800000Y-94366326D01*
X143800000Y-94808674D01*
X143300000Y-94808674D01*
X143300000Y-94366327D01*
X143293006Y-94340227D01*
X143291163Y-94283937D01*
X143314410Y-94232637D01*
X143317019Y-94229237D01*
X143322126Y-94222582D01*
X143376588Y-94091099D01*
X143395164Y-93950000D01*
X143376588Y-93808901D01*
X143322126Y-93677418D01*
X143235489Y-93564511D01*
X143216730Y-93550117D01*
X143188938Y-93528791D01*
X143147903Y-93472824D01*
X143143365Y-93403574D01*
X143176746Y-93342732D01*
X143179042Y-93340435D01*
X143185489Y-93335489D01*
X143272126Y-93222582D01*
X143326588Y-93091099D01*
X143345164Y-92950000D01*
X143326588Y-92808901D01*
X143272126Y-92677418D01*
X143185489Y-92564511D01*
X143160240Y-92545137D01*
X143079029Y-92482821D01*
X143072582Y-92477874D01*
X143065073Y-92474763D01*
X143065072Y-92474763D01*
X142948608Y-92426522D01*
X142948605Y-92426521D01*
X142941099Y-92423412D01*
X142933045Y-92422351D01*
X142933039Y-92422350D01*
X142808059Y-92405897D01*
X142800000Y-92404836D01*
X142791941Y-92405897D01*
X142666960Y-92422350D01*
X142666952Y-92422351D01*
X142658901Y-92423412D01*
X142651396Y-92426520D01*
X142651391Y-92426522D01*
X142534927Y-92474763D01*
X142534922Y-92474765D01*
X142527418Y-92477874D01*
X142520975Y-92482817D01*
X142520966Y-92482823D01*
X142475486Y-92517722D01*
X142426838Y-92540407D01*
X142373162Y-92540407D01*
X142324514Y-92517722D01*
X142279033Y-92482823D01*
X142279027Y-92482819D01*
X142272582Y-92477874D01*
X142265073Y-92474763D01*
X142265072Y-92474763D01*
X142148608Y-92426522D01*
X142148605Y-92426521D01*
X142141099Y-92423412D01*
X142133045Y-92422351D01*
X142133039Y-92422350D01*
X142008059Y-92405897D01*
X142000000Y-92404836D01*
X141991941Y-92405897D01*
X141866960Y-92422350D01*
X141866952Y-92422351D01*
X141858901Y-92423412D01*
X141851396Y-92426520D01*
X141851391Y-92426522D01*
X141734927Y-92474763D01*
X141734922Y-92474765D01*
X141727418Y-92477874D01*
X141720973Y-92482818D01*
X141720970Y-92482821D01*
X141620953Y-92559567D01*
X141620949Y-92559570D01*
X141614511Y-92564511D01*
X141609570Y-92570949D01*
X141609567Y-92570953D01*
X141532821Y-92670970D01*
X141532818Y-92670973D01*
X141527874Y-92677418D01*
X141524765Y-92684922D01*
X141524763Y-92684927D01*
X141476522Y-92801391D01*
X141476520Y-92801396D01*
X141473412Y-92808901D01*
X141472351Y-92816952D01*
X141472350Y-92816960D01*
X141460334Y-92908235D01*
X141454836Y-92950000D01*
X141455897Y-92958059D01*
X141472350Y-93083039D01*
X141472351Y-93083045D01*
X141473412Y-93091099D01*
X141476521Y-93098605D01*
X141476522Y-93098608D01*
X141523128Y-93211124D01*
X141527874Y-93222582D01*
X141614511Y-93335489D01*
X141620953Y-93340432D01*
X141620955Y-93340434D01*
X141635539Y-93351625D01*
X141671264Y-93395157D01*
X141684051Y-93450000D01*
X141671264Y-93504843D01*
X141635539Y-93548375D01*
X141620955Y-93559565D01*
X141620949Y-93559570D01*
X141614511Y-93564511D01*
X141609570Y-93570949D01*
X141609567Y-93570953D01*
X141532821Y-93670970D01*
X141532818Y-93670973D01*
X141527874Y-93677418D01*
X141524765Y-93684922D01*
X141524763Y-93684927D01*
X141476522Y-93801391D01*
X141476520Y-93801396D01*
X141473412Y-93808901D01*
X141472351Y-93816952D01*
X141472350Y-93816960D01*
X141460697Y-93905482D01*
X141454836Y-93950000D01*
X141455897Y-93958059D01*
X141472350Y-94083039D01*
X141472351Y-94083045D01*
X141473412Y-94091099D01*
X141476521Y-94098605D01*
X141476522Y-94098608D01*
X141517098Y-94196567D01*
X141527874Y-94222582D01*
X141532817Y-94229024D01*
X141532823Y-94229034D01*
X141552005Y-94254031D01*
X141576668Y-94314099D01*
X141567591Y-94378395D01*
X141527264Y-94429288D01*
X141458071Y-94480355D01*
X141442124Y-94492124D01*
X141411118Y-94534135D01*
X141367231Y-94571195D01*
X141311350Y-94584500D01*
X141264500Y-94584500D01*
X141202500Y-94567887D01*
X141157113Y-94522500D01*
X141140500Y-94460500D01*
X141140500Y-94232408D01*
X141140500Y-94226312D01*
X141126546Y-94156161D01*
X141073391Y-94076609D01*
X141051027Y-94061666D01*
X141003992Y-94030238D01*
X141003991Y-94030237D01*
X140993839Y-94023454D01*
X140981860Y-94021071D01*
X140929668Y-94010689D01*
X140929662Y-94010688D01*
X140923688Y-94009500D01*
X139876312Y-94009500D01*
X139870338Y-94010688D01*
X139870331Y-94010689D01*
X139818139Y-94021071D01*
X139818137Y-94021071D01*
X139806161Y-94023454D01*
X139796009Y-94030236D01*
X139796007Y-94030238D01*
X139736762Y-94069824D01*
X139736759Y-94069826D01*
X139726609Y-94076609D01*
X139719826Y-94086759D01*
X139719824Y-94086762D01*
X139680238Y-94146007D01*
X139680236Y-94146009D01*
X139673454Y-94156161D01*
X139671071Y-94168137D01*
X139671071Y-94168139D01*
X139660689Y-94220331D01*
X139660688Y-94220338D01*
X139659500Y-94226312D01*
X139659500Y-94232408D01*
X139659500Y-94360500D01*
X139642887Y-94422500D01*
X139597500Y-94467887D01*
X139535500Y-94484500D01*
X138328112Y-94484500D01*
X138280659Y-94475061D01*
X138240431Y-94448181D01*
X136668065Y-92875815D01*
X136634968Y-92816219D01*
X136638374Y-92748135D01*
X136677253Y-92692140D01*
X136739855Y-92665157D01*
X136807259Y-92675340D01*
X136812557Y-92677759D01*
X136820022Y-92682557D01*
X136955355Y-92722294D01*
X137087531Y-92722294D01*
X137096401Y-92722294D01*
X137231734Y-92682557D01*
X137350390Y-92606301D01*
X137442756Y-92499705D01*
X137501349Y-92371405D01*
X137521422Y-92231794D01*
X137501349Y-92092183D01*
X137482085Y-92050000D01*
X138854456Y-92050000D01*
X138857244Y-92069394D01*
X138873266Y-92180831D01*
X138873267Y-92180835D01*
X138874529Y-92189611D01*
X138933122Y-92317911D01*
X139025488Y-92424507D01*
X139144144Y-92500763D01*
X139279477Y-92540500D01*
X139411653Y-92540500D01*
X139420523Y-92540500D01*
X139555856Y-92500763D01*
X139674512Y-92424507D01*
X139766878Y-92317911D01*
X139825471Y-92189611D01*
X139845544Y-92050000D01*
X139825471Y-91910389D01*
X139766878Y-91782089D01*
X139674512Y-91675493D01*
X139654167Y-91662418D01*
X139563316Y-91604031D01*
X139563314Y-91604030D01*
X139555856Y-91599237D01*
X139547347Y-91596738D01*
X139547346Y-91596738D01*
X139476271Y-91575869D01*
X139420523Y-91559500D01*
X139279477Y-91559500D01*
X139270966Y-91561998D01*
X139270966Y-91561999D01*
X139152653Y-91596738D01*
X139152649Y-91596739D01*
X139144144Y-91599237D01*
X139136687Y-91604028D01*
X139136683Y-91604031D01*
X139032945Y-91670700D01*
X139032942Y-91670702D01*
X139025488Y-91675493D01*
X139019684Y-91682191D01*
X139019683Y-91682192D01*
X138939923Y-91774240D01*
X138933122Y-91782089D01*
X138929438Y-91790154D01*
X138929437Y-91790157D01*
X138879580Y-91899330D01*
X138874529Y-91910389D01*
X138873267Y-91919162D01*
X138873266Y-91919168D01*
X138858042Y-92025061D01*
X138854456Y-92050000D01*
X137482085Y-92050000D01*
X137442756Y-91963883D01*
X137436948Y-91957180D01*
X137436063Y-91955803D01*
X137421401Y-91923698D01*
X137416378Y-91888763D01*
X137416378Y-90887234D01*
X137425817Y-90839781D01*
X137452697Y-90799553D01*
X138025431Y-90226819D01*
X138065659Y-90199939D01*
X138113112Y-90190500D01*
X138282740Y-90190500D01*
X138343715Y-90206527D01*
X138388927Y-90250467D01*
X138406689Y-90310959D01*
X138392410Y-90372367D01*
X138349779Y-90418815D01*
X138307948Y-90445697D01*
X138307940Y-90445703D01*
X138300488Y-90450493D01*
X138294684Y-90457191D01*
X138294683Y-90457192D01*
X138236681Y-90524130D01*
X138208122Y-90557089D01*
X138204438Y-90565154D01*
X138204437Y-90565157D01*
X138168465Y-90643926D01*
X138149529Y-90685389D01*
X138148267Y-90694162D01*
X138148266Y-90694168D01*
X138134330Y-90791103D01*
X138129456Y-90825000D01*
X138130718Y-90833777D01*
X138148266Y-90955831D01*
X138148267Y-90955835D01*
X138149529Y-90964611D01*
X138208122Y-91092911D01*
X138300488Y-91199507D01*
X138419144Y-91275763D01*
X138554477Y-91315500D01*
X138686653Y-91315500D01*
X138695523Y-91315500D01*
X138830856Y-91275763D01*
X138949512Y-91199507D01*
X139041878Y-91092911D01*
X139100471Y-90964611D01*
X139105148Y-90932076D01*
X139117000Y-90894223D01*
X139140201Y-90862047D01*
X139200432Y-90801817D01*
X139240661Y-90774939D01*
X139288113Y-90765500D01*
X156786888Y-90765500D01*
X156834341Y-90774939D01*
X156874569Y-90801819D01*
X157882458Y-91809708D01*
X157910829Y-91853710D01*
X157918512Y-91905499D01*
X157904135Y-91955842D01*
X157822200Y-92109130D01*
X157822196Y-92109137D01*
X157819329Y-92114503D01*
X157817562Y-92120326D01*
X157817561Y-92120330D01*
X157763773Y-92297645D01*
X157763771Y-92297652D01*
X157762005Y-92303476D01*
X157761408Y-92309532D01*
X157761407Y-92309540D01*
X157746093Y-92465033D01*
X157742649Y-92500000D01*
X157743246Y-92506060D01*
X157743246Y-92506061D01*
X157761407Y-92690459D01*
X157761408Y-92690465D01*
X157762005Y-92696524D01*
X157763772Y-92702349D01*
X157763773Y-92702354D01*
X157808413Y-92849512D01*
X157819329Y-92885497D01*
X157822198Y-92890865D01*
X157822200Y-92890869D01*
X157909543Y-93054277D01*
X157909547Y-93054283D01*
X157912418Y-93059654D01*
X157916284Y-93064365D01*
X157916285Y-93064366D01*
X158027546Y-93199939D01*
X158037695Y-93212305D01*
X158190346Y-93337582D01*
X158195718Y-93340453D01*
X158195722Y-93340456D01*
X158275390Y-93383039D01*
X158364503Y-93430671D01*
X158553476Y-93487995D01*
X158750000Y-93507351D01*
X158912820Y-93491314D01*
X158966746Y-93497965D01*
X159012653Y-93527036D01*
X159148181Y-93662564D01*
X159175061Y-93702792D01*
X159184500Y-93750245D01*
X159184500Y-94402778D01*
X159178287Y-94441537D01*
X159160271Y-94476408D01*
X159083796Y-94580030D01*
X159080728Y-94588796D01*
X159080725Y-94588803D01*
X159039942Y-94705354D01*
X159039940Y-94705360D01*
X159037449Y-94712481D01*
X159036744Y-94719997D01*
X159036744Y-94719998D01*
X159034770Y-94741043D01*
X159034769Y-94741056D01*
X159034500Y-94743929D01*
X159034500Y-94746821D01*
X159034500Y-94746822D01*
X159034500Y-95353167D01*
X159034500Y-95353188D01*
X159034501Y-95356070D01*
X159034770Y-95358944D01*
X159034771Y-95358956D01*
X159035536Y-95367113D01*
X159037449Y-95387519D01*
X159039942Y-95394645D01*
X159039943Y-95394647D01*
X159080725Y-95511196D01*
X159080726Y-95511197D01*
X159083796Y-95519970D01*
X159089313Y-95527445D01*
X159089315Y-95527449D01*
X159145807Y-95603992D01*
X159167124Y-95632876D01*
X159190326Y-95650000D01*
X159272550Y-95710684D01*
X159272552Y-95710685D01*
X159280030Y-95716204D01*
X159412481Y-95762551D01*
X159443929Y-95765500D01*
X160006070Y-95765499D01*
X160037519Y-95762551D01*
X160169970Y-95716204D01*
X160282876Y-95632876D01*
X160366204Y-95519970D01*
X160378191Y-95485711D01*
X160411198Y-95435483D01*
X160463952Y-95406676D01*
X160524054Y-95406062D01*
X160577385Y-95433785D01*
X160611413Y-95483331D01*
X160625714Y-95521671D01*
X160634130Y-95537084D01*
X160705355Y-95632230D01*
X160717769Y-95644644D01*
X160812915Y-95715869D01*
X160828323Y-95724283D01*
X160940728Y-95766208D01*
X160955705Y-95769747D01*
X161001253Y-95774644D01*
X161007887Y-95775000D01*
X161008674Y-95775000D01*
X161021549Y-95771549D01*
X161025000Y-95758674D01*
X161025000Y-95758673D01*
X161525000Y-95758673D01*
X161528450Y-95771548D01*
X161541326Y-95774999D01*
X161542125Y-95774999D01*
X161548726Y-95774645D01*
X161594294Y-95769747D01*
X161609274Y-95766207D01*
X161721676Y-95724283D01*
X161737084Y-95715869D01*
X161832230Y-95644644D01*
X161844644Y-95632230D01*
X161915869Y-95537084D01*
X161924283Y-95521676D01*
X161966208Y-95409271D01*
X161969747Y-95394294D01*
X161974644Y-95348746D01*
X161975000Y-95342113D01*
X161975000Y-95316326D01*
X161971549Y-95303450D01*
X161958674Y-95300000D01*
X161541326Y-95300000D01*
X161528450Y-95303450D01*
X161525000Y-95316326D01*
X161525000Y-95758673D01*
X161025000Y-95758673D01*
X161025000Y-94883674D01*
X175125000Y-94883674D01*
X175128450Y-94896549D01*
X175141326Y-94900000D01*
X175833674Y-94900000D01*
X175846549Y-94896549D01*
X175850000Y-94883674D01*
X176350000Y-94883674D01*
X176353450Y-94896549D01*
X176366326Y-94900000D01*
X177058674Y-94900000D01*
X177071549Y-94896549D01*
X177075000Y-94883674D01*
X177075000Y-94855482D01*
X177074646Y-94848885D01*
X177069426Y-94800332D01*
X177065888Y-94785358D01*
X177021452Y-94666222D01*
X177013037Y-94650810D01*
X176937501Y-94549907D01*
X176925092Y-94537498D01*
X176824189Y-94461962D01*
X176808777Y-94453547D01*
X176689641Y-94409111D01*
X176674667Y-94405573D01*
X176626114Y-94400353D01*
X176619518Y-94400000D01*
X176366326Y-94400000D01*
X176353450Y-94403450D01*
X176350000Y-94416326D01*
X176350000Y-94883674D01*
X175850000Y-94883674D01*
X175850000Y-94416326D01*
X175846549Y-94403450D01*
X175833674Y-94400000D01*
X175580482Y-94400000D01*
X175573885Y-94400353D01*
X175525332Y-94405573D01*
X175510358Y-94409111D01*
X175391222Y-94453547D01*
X175375810Y-94461962D01*
X175274907Y-94537498D01*
X175262498Y-94549907D01*
X175186962Y-94650810D01*
X175178547Y-94666222D01*
X175134111Y-94785358D01*
X175130573Y-94800332D01*
X175125353Y-94848885D01*
X175125000Y-94855482D01*
X175125000Y-94883674D01*
X161025000Y-94883674D01*
X161025000Y-94783674D01*
X161525000Y-94783674D01*
X161528450Y-94796549D01*
X161541326Y-94800000D01*
X161958673Y-94800000D01*
X161971548Y-94796549D01*
X161974999Y-94783674D01*
X161974999Y-94757875D01*
X161974645Y-94751273D01*
X161969747Y-94705705D01*
X161966207Y-94690725D01*
X161924283Y-94578323D01*
X161915869Y-94562915D01*
X161844644Y-94467769D01*
X161832230Y-94455355D01*
X161737084Y-94384130D01*
X161721676Y-94375716D01*
X161609271Y-94333791D01*
X161594294Y-94330252D01*
X161548746Y-94325355D01*
X161542113Y-94325000D01*
X161541326Y-94325000D01*
X161528450Y-94328450D01*
X161525000Y-94341326D01*
X161525000Y-94783674D01*
X161025000Y-94783674D01*
X161025000Y-94341327D01*
X161021549Y-94328451D01*
X161008674Y-94325001D01*
X161007875Y-94325001D01*
X161001273Y-94325354D01*
X160955705Y-94330252D01*
X160940725Y-94333792D01*
X160828323Y-94375716D01*
X160812915Y-94384130D01*
X160717769Y-94455355D01*
X160705355Y-94467769D01*
X160634130Y-94562915D01*
X160625714Y-94578326D01*
X160611413Y-94616669D01*
X160577385Y-94666214D01*
X160524054Y-94693937D01*
X160463952Y-94693323D01*
X160411199Y-94664517D01*
X160378191Y-94614288D01*
X160366204Y-94580030D01*
X160289728Y-94476408D01*
X160271713Y-94441537D01*
X160265500Y-94402778D01*
X160265500Y-93486344D01*
X160265572Y-93482110D01*
X160266669Y-93450000D01*
X160267721Y-93419206D01*
X160258194Y-93380117D01*
X160255829Y-93367674D01*
X160250350Y-93327804D01*
X160243404Y-93311813D01*
X160236668Y-93291779D01*
X160234550Y-93283088D01*
X160232543Y-93274850D01*
X160227285Y-93265500D01*
X160212827Y-93239787D01*
X160207183Y-93228424D01*
X160191156Y-93191524D01*
X160180154Y-93178000D01*
X160168260Y-93160525D01*
X160163878Y-93152731D01*
X160163877Y-93152730D01*
X160159722Y-93145340D01*
X160131287Y-93116904D01*
X160122790Y-93107491D01*
X160097389Y-93076269D01*
X160090463Y-93071380D01*
X160090461Y-93071378D01*
X160083146Y-93066215D01*
X160066974Y-93052592D01*
X159777036Y-92762653D01*
X159747965Y-92716746D01*
X159741314Y-92662820D01*
X159757351Y-92500000D01*
X159737995Y-92303476D01*
X159680671Y-92114503D01*
X159641502Y-92041223D01*
X159590456Y-91945722D01*
X159590453Y-91945718D01*
X159587582Y-91940346D01*
X159462305Y-91787695D01*
X159333847Y-91682273D01*
X159314366Y-91666285D01*
X159314365Y-91666284D01*
X159309654Y-91662418D01*
X159304283Y-91659547D01*
X159304277Y-91659543D01*
X159140869Y-91572200D01*
X159140865Y-91572198D01*
X159135497Y-91569329D01*
X159129669Y-91567561D01*
X158952354Y-91513773D01*
X158952349Y-91513772D01*
X158946524Y-91512005D01*
X158940465Y-91511408D01*
X158940459Y-91511407D01*
X158767114Y-91494334D01*
X158750000Y-91492649D01*
X158735438Y-91494082D01*
X158681514Y-91487429D01*
X158635610Y-91458360D01*
X158582960Y-91405710D01*
X159759500Y-91405710D01*
X159759747Y-91408458D01*
X159759748Y-91408473D01*
X159773341Y-91559500D01*
X159774502Y-91572395D01*
X159775984Y-91577767D01*
X159775985Y-91577769D01*
X159830523Y-91775386D01*
X159833906Y-91787642D01*
X159836317Y-91792650D01*
X159836320Y-91792656D01*
X159928372Y-91983803D01*
X159930790Y-91988823D01*
X159934063Y-91993329D01*
X159934065Y-91993331D01*
X159957118Y-92025061D01*
X160062039Y-92169472D01*
X160066058Y-92173315D01*
X160066062Y-92173319D01*
X160208539Y-92309540D01*
X160223435Y-92323782D01*
X160409790Y-92446794D01*
X160414915Y-92448984D01*
X160414916Y-92448985D01*
X160606149Y-92530722D01*
X160615115Y-92534554D01*
X160832811Y-92584242D01*
X161055880Y-92594260D01*
X161277153Y-92564286D01*
X161489518Y-92495285D01*
X161686150Y-92389473D01*
X161860728Y-92250251D01*
X162007642Y-92082095D01*
X162122169Y-91890408D01*
X162200629Y-91681353D01*
X162240500Y-91461647D01*
X162240500Y-90794290D01*
X162225498Y-90627605D01*
X162166094Y-90412358D01*
X162120521Y-90317726D01*
X162087020Y-90248159D01*
X162069210Y-90211177D01*
X161937961Y-90030528D01*
X161933940Y-90026684D01*
X161933937Y-90026680D01*
X161780592Y-89880068D01*
X161780590Y-89880067D01*
X161776565Y-89876218D01*
X161620418Y-89773146D01*
X161594861Y-89756276D01*
X161594860Y-89756275D01*
X161590210Y-89753206D01*
X161585088Y-89751017D01*
X161585083Y-89751014D01*
X161390008Y-89667635D01*
X161390001Y-89667632D01*
X161384885Y-89665446D01*
X161379461Y-89664208D01*
X161379455Y-89664206D01*
X161172619Y-89616997D01*
X161172615Y-89616996D01*
X161167189Y-89615758D01*
X161161623Y-89615508D01*
X160949681Y-89605989D01*
X160949672Y-89605989D01*
X160944120Y-89605740D01*
X160938616Y-89606485D01*
X160938605Y-89606486D01*
X160728366Y-89634966D01*
X160728361Y-89634966D01*
X160722847Y-89635714D01*
X160717555Y-89637433D01*
X160717548Y-89637435D01*
X160515778Y-89702994D01*
X160515775Y-89702994D01*
X160510482Y-89704715D01*
X160505582Y-89707351D01*
X160505579Y-89707353D01*
X160318746Y-89807891D01*
X160318734Y-89807898D01*
X160313850Y-89810527D01*
X160309509Y-89813988D01*
X160309501Y-89813994D01*
X160143622Y-89946279D01*
X160143615Y-89946284D01*
X160139272Y-89949749D01*
X160135618Y-89953930D01*
X160135612Y-89953937D01*
X160000919Y-90108106D01*
X159992358Y-90117905D01*
X159989507Y-90122676D01*
X159989501Y-90122685D01*
X159880687Y-90304811D01*
X159877831Y-90309592D01*
X159875876Y-90314800D01*
X159875874Y-90314805D01*
X159801328Y-90513431D01*
X159801326Y-90513437D01*
X159799371Y-90518647D01*
X159798377Y-90524119D01*
X159798375Y-90524130D01*
X159760495Y-90732867D01*
X159760494Y-90732873D01*
X159759500Y-90738353D01*
X159759500Y-91405710D01*
X158582960Y-91405710D01*
X157547550Y-90370300D01*
X158236945Y-90370300D01*
X158245414Y-90377789D01*
X158355481Y-90436620D01*
X158366679Y-90441258D01*
X158545778Y-90495588D01*
X158557677Y-90497955D01*
X158743938Y-90516300D01*
X158756062Y-90516300D01*
X158942322Y-90497955D01*
X158954221Y-90495588D01*
X159133317Y-90441259D01*
X159144525Y-90436616D01*
X159254580Y-90377791D01*
X159263053Y-90370299D01*
X159257123Y-90360676D01*
X158761542Y-89865095D01*
X158750000Y-89858431D01*
X158738456Y-89865096D01*
X158242875Y-90360676D01*
X158236945Y-90370300D01*
X157547550Y-90370300D01*
X157239292Y-90062042D01*
X157239292Y-90062041D01*
X157232391Y-90055141D01*
X157223695Y-90050710D01*
X157223694Y-90050709D01*
X157213358Y-90045442D01*
X157196777Y-90035281D01*
X157187388Y-90028460D01*
X157187384Y-90028458D01*
X157179493Y-90022725D01*
X157170219Y-90019711D01*
X157170212Y-90019708D01*
X157159177Y-90016123D01*
X157141204Y-90008678D01*
X157130870Y-90003413D01*
X157130868Y-90003412D01*
X157122175Y-89998983D01*
X157104284Y-89996149D01*
X157101076Y-89995641D01*
X157082162Y-89991100D01*
X157071127Y-89987514D01*
X157071123Y-89987513D01*
X157061849Y-89984500D01*
X157052092Y-89984500D01*
X155842112Y-89984500D01*
X155785817Y-89970985D01*
X155741794Y-89933385D01*
X155719639Y-89879898D01*
X155724181Y-89822182D01*
X155754431Y-89772819D01*
X156021188Y-89506062D01*
X157733700Y-89506062D01*
X157752044Y-89692322D01*
X157754411Y-89704221D01*
X157808741Y-89883320D01*
X157813380Y-89894520D01*
X157872208Y-90004581D01*
X157879699Y-90013053D01*
X157889323Y-90007122D01*
X158384904Y-89511542D01*
X158391568Y-89500000D01*
X159108431Y-89500000D01*
X159115095Y-89511542D01*
X159610676Y-90007123D01*
X159620299Y-90013053D01*
X159627791Y-90004580D01*
X159686616Y-89894525D01*
X159691259Y-89883317D01*
X159745588Y-89704221D01*
X159747955Y-89692322D01*
X159766300Y-89506062D01*
X159766300Y-89493938D01*
X159747955Y-89307677D01*
X159745588Y-89295778D01*
X159691258Y-89116679D01*
X159686620Y-89105481D01*
X159627789Y-88995414D01*
X159620300Y-88986945D01*
X159610676Y-88992875D01*
X159115096Y-89488456D01*
X159108431Y-89500000D01*
X158391568Y-89500000D01*
X158384904Y-89488457D01*
X157889322Y-88992875D01*
X157879699Y-88986945D01*
X157872208Y-88995416D01*
X157813380Y-89105479D01*
X157808741Y-89116679D01*
X157754411Y-89295778D01*
X157752044Y-89307677D01*
X157733700Y-89493938D01*
X157733700Y-89506062D01*
X156021188Y-89506062D01*
X157150431Y-88376819D01*
X157190659Y-88349939D01*
X157238112Y-88340500D01*
X158277423Y-88340500D01*
X158340125Y-88357521D01*
X158385613Y-88403911D01*
X158401399Y-88466935D01*
X158383150Y-88529291D01*
X158335875Y-88573859D01*
X158245416Y-88622208D01*
X158236945Y-88629699D01*
X158242875Y-88639322D01*
X158738457Y-89134904D01*
X158750000Y-89141568D01*
X158761542Y-89134904D01*
X159257122Y-88639323D01*
X159263053Y-88629699D01*
X159254583Y-88622209D01*
X159164124Y-88573859D01*
X159116850Y-88529290D01*
X159098601Y-88466935D01*
X159114387Y-88403911D01*
X159159875Y-88357521D01*
X159222577Y-88340500D01*
X159361888Y-88340500D01*
X159409341Y-88349939D01*
X159449569Y-88376818D01*
X160230141Y-89157391D01*
X160317609Y-89244859D01*
X160326304Y-89249289D01*
X160326308Y-89249292D01*
X160336634Y-89254553D01*
X160353226Y-89264720D01*
X160370506Y-89277275D01*
X160390823Y-89283876D01*
X160408795Y-89291321D01*
X160419124Y-89296584D01*
X160419125Y-89296584D01*
X160427825Y-89301017D01*
X160448916Y-89304357D01*
X160467830Y-89308897D01*
X160488151Y-89315500D01*
X160497911Y-89315500D01*
X165617690Y-89315500D01*
X165684133Y-89334803D01*
X165729889Y-89386703D01*
X165740712Y-89455041D01*
X165713234Y-89518541D01*
X165656008Y-89557431D01*
X165515778Y-89602993D01*
X165515765Y-89602998D01*
X165510482Y-89604715D01*
X165505582Y-89607351D01*
X165505579Y-89607353D01*
X165318746Y-89707891D01*
X165318734Y-89707898D01*
X165313850Y-89710527D01*
X165309509Y-89713988D01*
X165309501Y-89713994D01*
X165143622Y-89846279D01*
X165143615Y-89846284D01*
X165139272Y-89849749D01*
X165135618Y-89853930D01*
X165135612Y-89853937D01*
X164996597Y-90013053D01*
X164992358Y-90017905D01*
X164989507Y-90022676D01*
X164989501Y-90022685D01*
X164880687Y-90204811D01*
X164877831Y-90209592D01*
X164875876Y-90214800D01*
X164875874Y-90214805D01*
X164801328Y-90413431D01*
X164801326Y-90413437D01*
X164799371Y-90418647D01*
X164798377Y-90424119D01*
X164798375Y-90424130D01*
X164760495Y-90632867D01*
X164760494Y-90632873D01*
X164759500Y-90638353D01*
X164759500Y-91305710D01*
X164759747Y-91308458D01*
X164759748Y-91308473D01*
X164774002Y-91466845D01*
X164774502Y-91472395D01*
X164775984Y-91477767D01*
X164775985Y-91477769D01*
X164828520Y-91668128D01*
X164833906Y-91687642D01*
X164836317Y-91692650D01*
X164836320Y-91692656D01*
X164928369Y-91883796D01*
X164930790Y-91888823D01*
X164934063Y-91893329D01*
X164934065Y-91893331D01*
X164972129Y-91945722D01*
X165062039Y-92069472D01*
X165066058Y-92073315D01*
X165066062Y-92073319D01*
X165211615Y-92212481D01*
X165223435Y-92223782D01*
X165409790Y-92346794D01*
X165414915Y-92348984D01*
X165414916Y-92348985D01*
X165548068Y-92405897D01*
X165615115Y-92434554D01*
X165832811Y-92484242D01*
X166055880Y-92494260D01*
X166277153Y-92464286D01*
X166489518Y-92395285D01*
X166686150Y-92289473D01*
X166860728Y-92150251D01*
X167007642Y-91982095D01*
X167122169Y-91790408D01*
X167200629Y-91581353D01*
X167232504Y-91405710D01*
X168759500Y-91405710D01*
X168759747Y-91408458D01*
X168759748Y-91408473D01*
X168773341Y-91559500D01*
X168774502Y-91572395D01*
X168775984Y-91577767D01*
X168775985Y-91577769D01*
X168830523Y-91775386D01*
X168833906Y-91787642D01*
X168836317Y-91792650D01*
X168836320Y-91792656D01*
X168928372Y-91983803D01*
X168930790Y-91988823D01*
X168934063Y-91993329D01*
X168934065Y-91993331D01*
X168957118Y-92025061D01*
X169062039Y-92169472D01*
X169066058Y-92173315D01*
X169066062Y-92173319D01*
X169208539Y-92309540D01*
X169223435Y-92323782D01*
X169409790Y-92446794D01*
X169414915Y-92448984D01*
X169414916Y-92448985D01*
X169606149Y-92530722D01*
X169615115Y-92534554D01*
X169832811Y-92584242D01*
X170055880Y-92594260D01*
X170277153Y-92564286D01*
X170489518Y-92495285D01*
X170686150Y-92389473D01*
X170860728Y-92250251D01*
X171007642Y-92082095D01*
X171122169Y-91890408D01*
X171200629Y-91681353D01*
X171240500Y-91461647D01*
X171240500Y-90794290D01*
X171225498Y-90627605D01*
X171166094Y-90412358D01*
X171120521Y-90317726D01*
X171087020Y-90248159D01*
X171069210Y-90211177D01*
X170937961Y-90030528D01*
X170933940Y-90026684D01*
X170933937Y-90026680D01*
X170780592Y-89880068D01*
X170780590Y-89880067D01*
X170776565Y-89876218D01*
X170620418Y-89773146D01*
X170594861Y-89756276D01*
X170594860Y-89756275D01*
X170590210Y-89753206D01*
X170585088Y-89751017D01*
X170585083Y-89751014D01*
X170390008Y-89667635D01*
X170390001Y-89667632D01*
X170384885Y-89665446D01*
X170379461Y-89664208D01*
X170379455Y-89664206D01*
X170172619Y-89616997D01*
X170172615Y-89616996D01*
X170167189Y-89615758D01*
X170161623Y-89615508D01*
X169949681Y-89605989D01*
X169949672Y-89605989D01*
X169944120Y-89605740D01*
X169938616Y-89606485D01*
X169938605Y-89606486D01*
X169728366Y-89634966D01*
X169728361Y-89634966D01*
X169722847Y-89635714D01*
X169717555Y-89637433D01*
X169717548Y-89637435D01*
X169515778Y-89702994D01*
X169515775Y-89702994D01*
X169510482Y-89704715D01*
X169505582Y-89707351D01*
X169505579Y-89707353D01*
X169318746Y-89807891D01*
X169318734Y-89807898D01*
X169313850Y-89810527D01*
X169309509Y-89813988D01*
X169309501Y-89813994D01*
X169143622Y-89946279D01*
X169143615Y-89946284D01*
X169139272Y-89949749D01*
X169135618Y-89953930D01*
X169135612Y-89953937D01*
X169000919Y-90108106D01*
X168992358Y-90117905D01*
X168989507Y-90122676D01*
X168989501Y-90122685D01*
X168880687Y-90304811D01*
X168877831Y-90309592D01*
X168875876Y-90314800D01*
X168875874Y-90314805D01*
X168801328Y-90513431D01*
X168801326Y-90513437D01*
X168799371Y-90518647D01*
X168798377Y-90524119D01*
X168798375Y-90524130D01*
X168760495Y-90732867D01*
X168760494Y-90732873D01*
X168759500Y-90738353D01*
X168759500Y-91405710D01*
X167232504Y-91405710D01*
X167240500Y-91361647D01*
X167240500Y-90694290D01*
X167225498Y-90527605D01*
X167166094Y-90312358D01*
X167069210Y-90111177D01*
X166937961Y-89930528D01*
X166933940Y-89926684D01*
X166933937Y-89926680D01*
X166780592Y-89780068D01*
X166780590Y-89780067D01*
X166776565Y-89776218D01*
X166590210Y-89653206D01*
X166585088Y-89651017D01*
X166585083Y-89651014D01*
X166390008Y-89567635D01*
X166390001Y-89567632D01*
X166384885Y-89565446D01*
X166379461Y-89564208D01*
X166379455Y-89564206D01*
X166362738Y-89560391D01*
X166309447Y-89533488D01*
X166274903Y-89484802D01*
X166267111Y-89425616D01*
X166287877Y-89369648D01*
X166332390Y-89329870D01*
X166390331Y-89315500D01*
X171752090Y-89315500D01*
X171761849Y-89315500D01*
X171782161Y-89308899D01*
X171801084Y-89304357D01*
X171802541Y-89304126D01*
X171822175Y-89301017D01*
X171841207Y-89291318D01*
X171859180Y-89283874D01*
X171879493Y-89277275D01*
X171896767Y-89264724D01*
X171913361Y-89254556D01*
X171923691Y-89249292D01*
X171923691Y-89249291D01*
X171932391Y-89244859D01*
X172019859Y-89157391D01*
X172935725Y-88241524D01*
X172988468Y-88210230D01*
X173105856Y-88175763D01*
X173224512Y-88099507D01*
X173316878Y-87992911D01*
X173375471Y-87864611D01*
X173395544Y-87725000D01*
X173375471Y-87585389D01*
X173316878Y-87457089D01*
X173314244Y-87454049D01*
X173295419Y-87393926D01*
X173310508Y-87330073D01*
X173356067Y-87282858D01*
X173419340Y-87265500D01*
X175562243Y-87265500D01*
X175609696Y-87274939D01*
G37*
%TD.AperFunction*%
%TA.AperFunction,Conductor*%
G36*
X206063000Y-86657113D02*
G01*
X206108387Y-86702500D01*
X206125000Y-86764500D01*
X206125000Y-86846751D01*
X206119977Y-86881688D01*
X206108657Y-86906470D01*
X206108122Y-86907089D01*
X206104437Y-86915156D01*
X206099643Y-86922616D01*
X206099514Y-86922533D01*
X206099499Y-86922557D01*
X206099634Y-86922631D01*
X206095385Y-86930410D01*
X206090071Y-86937511D01*
X206086973Y-86945815D01*
X206086970Y-86945822D01*
X206073092Y-86983029D01*
X206069708Y-86991198D01*
X206053214Y-87027318D01*
X206053212Y-87027322D01*
X206049529Y-87035389D01*
X206048266Y-87044165D01*
X206045768Y-87052676D01*
X206045620Y-87052632D01*
X206045614Y-87052656D01*
X206045765Y-87052689D01*
X206043879Y-87061354D01*
X206040781Y-87069664D01*
X206040148Y-87078509D01*
X206040148Y-87078511D01*
X206037315Y-87118114D01*
X206036370Y-87126902D01*
X206035130Y-87135526D01*
X206035128Y-87135545D01*
X206034500Y-87139918D01*
X206034500Y-87144346D01*
X206034500Y-87153058D01*
X206034184Y-87161904D01*
X206031351Y-87201505D01*
X206031351Y-87201510D01*
X206030719Y-87210352D01*
X206032604Y-87219017D01*
X206033237Y-87227863D01*
X206033082Y-87227874D01*
X206034500Y-87241063D01*
X206034500Y-87436098D01*
X206025061Y-87483551D01*
X206008250Y-87508709D01*
X206010001Y-87510001D01*
X205943579Y-87600000D01*
X205931148Y-87616843D01*
X205928079Y-87625612D01*
X205928078Y-87625615D01*
X205889783Y-87735054D01*
X205889781Y-87735060D01*
X205887290Y-87742181D01*
X205886585Y-87749697D01*
X205886585Y-87749698D01*
X205884770Y-87769048D01*
X205884769Y-87769061D01*
X205884500Y-87771934D01*
X205884500Y-88428066D01*
X205884769Y-88430939D01*
X205884770Y-88430951D01*
X205886585Y-88450301D01*
X205887290Y-88457819D01*
X205889782Y-88464941D01*
X205889783Y-88464945D01*
X205910819Y-88525061D01*
X205931148Y-88583157D01*
X205936665Y-88590632D01*
X205936666Y-88590634D01*
X205985270Y-88656490D01*
X206003287Y-88691365D01*
X206009500Y-88730124D01*
X206009500Y-90986098D01*
X206000061Y-91033551D01*
X205973181Y-91073779D01*
X205967474Y-91079485D01*
X205960001Y-91085001D01*
X205954487Y-91092471D01*
X205954484Y-91092475D01*
X205889495Y-91180533D01*
X205881148Y-91191843D01*
X205878079Y-91200612D01*
X205878078Y-91200615D01*
X205839783Y-91310054D01*
X205839781Y-91310060D01*
X205837290Y-91317181D01*
X205836585Y-91324697D01*
X205836585Y-91324698D01*
X205834770Y-91344048D01*
X205834769Y-91344061D01*
X205834500Y-91346934D01*
X205834500Y-91853066D01*
X205834769Y-91855939D01*
X205834770Y-91855951D01*
X205836585Y-91875301D01*
X205837290Y-91882819D01*
X205839782Y-91889941D01*
X205839783Y-91889945D01*
X205875457Y-91991893D01*
X205881148Y-92008157D01*
X205960001Y-92114999D01*
X206039022Y-92173319D01*
X206066843Y-92193852D01*
X206066092Y-92194869D01*
X206107210Y-92233745D01*
X206125000Y-92297740D01*
X206125000Y-92552260D01*
X206107210Y-92616255D01*
X206066092Y-92655130D01*
X206066843Y-92656148D01*
X205967475Y-92729484D01*
X205967471Y-92729487D01*
X205960001Y-92735001D01*
X205954487Y-92742471D01*
X205954484Y-92742475D01*
X205886666Y-92834366D01*
X205881148Y-92841843D01*
X205878079Y-92850612D01*
X205878078Y-92850615D01*
X205839783Y-92960054D01*
X205839781Y-92960060D01*
X205837290Y-92967181D01*
X205836585Y-92974697D01*
X205836585Y-92974698D01*
X205834770Y-92994048D01*
X205834769Y-92994061D01*
X205834500Y-92996934D01*
X205834500Y-92999828D01*
X205834500Y-93361888D01*
X205825061Y-93409341D01*
X205798181Y-93449569D01*
X205177180Y-94070569D01*
X205127817Y-94100819D01*
X205070101Y-94105361D01*
X205016614Y-94083206D01*
X204979014Y-94039183D01*
X204965499Y-93982888D01*
X204965499Y-93796832D01*
X204965499Y-93793930D01*
X204962551Y-93762481D01*
X204924777Y-93654530D01*
X204919274Y-93638803D01*
X204919273Y-93638802D01*
X204916204Y-93630030D01*
X204910014Y-93621643D01*
X204841662Y-93529029D01*
X204832876Y-93517124D01*
X204809587Y-93499936D01*
X204727449Y-93439315D01*
X204727445Y-93439313D01*
X204719970Y-93433796D01*
X204694284Y-93424808D01*
X204672085Y-93417040D01*
X204621514Y-93383656D01*
X204592800Y-93330295D01*
X204592801Y-93269699D01*
X204621517Y-93216338D01*
X204672086Y-93182959D01*
X204719970Y-93166204D01*
X204832876Y-93082876D01*
X204916204Y-92969970D01*
X204962551Y-92837519D01*
X204965500Y-92806071D01*
X204965499Y-92243930D01*
X204962551Y-92212481D01*
X204925825Y-92107524D01*
X204919274Y-92088803D01*
X204919273Y-92088802D01*
X204916204Y-92080030D01*
X204887563Y-92041223D01*
X204855797Y-91998181D01*
X204832876Y-91967124D01*
X204767898Y-91919168D01*
X204727449Y-91889315D01*
X204727445Y-91889313D01*
X204719970Y-91883796D01*
X204711200Y-91880727D01*
X204711196Y-91880725D01*
X204594645Y-91839942D01*
X204594641Y-91839941D01*
X204587519Y-91837449D01*
X204580001Y-91836744D01*
X204558956Y-91834770D01*
X204558944Y-91834769D01*
X204556071Y-91834500D01*
X204553177Y-91834500D01*
X203946832Y-91834500D01*
X203946810Y-91834500D01*
X203943930Y-91834501D01*
X203941056Y-91834770D01*
X203941043Y-91834771D01*
X203919997Y-91836744D01*
X203919993Y-91836744D01*
X203912481Y-91837449D01*
X203905356Y-91839942D01*
X203905352Y-91839943D01*
X203788803Y-91880725D01*
X203788796Y-91880728D01*
X203780030Y-91883796D01*
X203772556Y-91889311D01*
X203772550Y-91889315D01*
X203674604Y-91961602D01*
X203674598Y-91961607D01*
X203667124Y-91967124D01*
X203661606Y-91974601D01*
X203661604Y-91974603D01*
X203654570Y-91984134D01*
X203610681Y-92021195D01*
X203554800Y-92034500D01*
X203460294Y-92034500D01*
X203412841Y-92025061D01*
X203372613Y-91998181D01*
X201912112Y-90537680D01*
X201880018Y-90482093D01*
X201880018Y-90417905D01*
X201912109Y-90362322D01*
X204013324Y-88261107D01*
X204062682Y-88230861D01*
X204120397Y-88226319D01*
X204173885Y-88248473D01*
X204211484Y-88292496D01*
X204225000Y-88348790D01*
X204225000Y-88426299D01*
X204225271Y-88432088D01*
X204227147Y-88452095D01*
X204230342Y-88466724D01*
X204269585Y-88578875D01*
X204278171Y-88595122D01*
X204347691Y-88689317D01*
X204360682Y-88702308D01*
X204454877Y-88771828D01*
X204471124Y-88780414D01*
X204583276Y-88819658D01*
X204597906Y-88822853D01*
X204611816Y-88824157D01*
X204621549Y-88821549D01*
X204625000Y-88808674D01*
X204625000Y-88808673D01*
X205125000Y-88808673D01*
X205128450Y-88821548D01*
X205138183Y-88824157D01*
X205152095Y-88822852D01*
X205166724Y-88819657D01*
X205278875Y-88780414D01*
X205295122Y-88771828D01*
X205389317Y-88702308D01*
X205402308Y-88689317D01*
X205471828Y-88595122D01*
X205480414Y-88578875D01*
X205519658Y-88466723D01*
X205522853Y-88452093D01*
X205524729Y-88432086D01*
X205525000Y-88426310D01*
X205525000Y-88366326D01*
X205521549Y-88353450D01*
X205508674Y-88350000D01*
X205141326Y-88350000D01*
X205128450Y-88353450D01*
X205125000Y-88366326D01*
X205125000Y-88808673D01*
X204625000Y-88808673D01*
X204625000Y-87974000D01*
X204641613Y-87912000D01*
X204687000Y-87866613D01*
X204749000Y-87850000D01*
X205508673Y-87850000D01*
X205521548Y-87846549D01*
X205524999Y-87833674D01*
X205524999Y-87773700D01*
X205524728Y-87767911D01*
X205522852Y-87747904D01*
X205519657Y-87733275D01*
X205480414Y-87621124D01*
X205471828Y-87604877D01*
X205402308Y-87510682D01*
X205389317Y-87497691D01*
X205295122Y-87428171D01*
X205278875Y-87419585D01*
X205166724Y-87380342D01*
X205164599Y-87379878D01*
X205162993Y-87379036D01*
X205159605Y-87377851D01*
X205159779Y-87377352D01*
X205106506Y-87349435D01*
X205072067Y-87293619D01*
X205070917Y-87228043D01*
X205103376Y-87171055D01*
X205597613Y-86676818D01*
X205637841Y-86649939D01*
X205685294Y-86640500D01*
X206001000Y-86640500D01*
X206063000Y-86657113D01*
G37*
%TD.AperFunction*%
%TA.AperFunction,Conductor*%
G36*
X180138458Y-82268773D02*
G01*
X180184153Y-82318205D01*
X180197286Y-82384229D01*
X180173986Y-82447385D01*
X180121121Y-82489061D01*
X180034927Y-82524763D01*
X180034922Y-82524765D01*
X180027418Y-82527874D01*
X180020973Y-82532818D01*
X180020970Y-82532821D01*
X179920953Y-82609567D01*
X179920949Y-82609570D01*
X179914511Y-82614511D01*
X179909570Y-82620949D01*
X179909567Y-82620953D01*
X179832821Y-82720970D01*
X179832818Y-82720973D01*
X179827874Y-82727418D01*
X179824765Y-82734922D01*
X179824763Y-82734927D01*
X179776522Y-82851391D01*
X179776520Y-82851396D01*
X179773412Y-82858901D01*
X179772351Y-82866952D01*
X179772350Y-82866960D01*
X179762432Y-82942300D01*
X179754836Y-83000000D01*
X179755897Y-83008059D01*
X179772350Y-83133039D01*
X179772351Y-83133045D01*
X179773412Y-83141099D01*
X179776521Y-83148605D01*
X179776522Y-83148608D01*
X179824763Y-83265072D01*
X179827874Y-83272582D01*
X179914511Y-83385489D01*
X180027418Y-83472126D01*
X180158901Y-83526588D01*
X180166959Y-83527648D01*
X180166960Y-83527649D01*
X180203108Y-83532408D01*
X180300000Y-83545164D01*
X180339867Y-83539915D01*
X180395908Y-83545434D01*
X180443731Y-83575172D01*
X180473470Y-83622995D01*
X180478990Y-83679038D01*
X180468398Y-83759500D01*
X180464419Y-83789722D01*
X180465480Y-83797781D01*
X180481933Y-83922761D01*
X180481934Y-83922767D01*
X180482995Y-83930821D01*
X180486104Y-83938327D01*
X180486105Y-83938330D01*
X180534346Y-84054794D01*
X180537457Y-84062304D01*
X180542404Y-84068751D01*
X180594806Y-84137043D01*
X180624094Y-84175211D01*
X180737001Y-84261848D01*
X180868484Y-84316310D01*
X181009583Y-84334886D01*
X181150682Y-84316310D01*
X181282165Y-84261848D01*
X181395072Y-84175211D01*
X181481709Y-84062304D01*
X181536171Y-83930821D01*
X181548178Y-83839613D01*
X181559905Y-83800954D01*
X181583433Y-83768120D01*
X181924735Y-83426819D01*
X181964964Y-83399939D01*
X182012417Y-83390500D01*
X184428297Y-83390500D01*
X184486750Y-83405142D01*
X184531399Y-83445609D01*
X184551700Y-83502345D01*
X184542858Y-83561952D01*
X184526523Y-83601388D01*
X184526521Y-83601394D01*
X184523412Y-83608901D01*
X184522351Y-83616952D01*
X184522350Y-83616960D01*
X184508683Y-83720779D01*
X184504836Y-83750000D01*
X184505897Y-83758059D01*
X184522350Y-83883039D01*
X184522351Y-83883045D01*
X184523412Y-83891099D01*
X184526521Y-83898605D01*
X184526522Y-83898608D01*
X184567169Y-83996738D01*
X184577874Y-84022582D01*
X184582821Y-84029029D01*
X184635533Y-84097725D01*
X184664511Y-84135489D01*
X184777418Y-84222126D01*
X184908901Y-84276588D01*
X185050000Y-84295164D01*
X185191099Y-84276588D01*
X185322582Y-84222126D01*
X185435489Y-84135489D01*
X185522126Y-84022582D01*
X185576588Y-83891099D01*
X185595164Y-83750000D01*
X185576588Y-83608901D01*
X185573191Y-83600701D01*
X185557142Y-83561952D01*
X185548300Y-83502345D01*
X185568601Y-83445609D01*
X185613250Y-83405142D01*
X185671703Y-83390500D01*
X206001000Y-83390500D01*
X206063000Y-83407113D01*
X206108387Y-83452500D01*
X206125000Y-83514500D01*
X206125000Y-85535500D01*
X206108387Y-85597500D01*
X206063000Y-85642887D01*
X206001000Y-85659500D01*
X205496824Y-85659500D01*
X205483635Y-85658082D01*
X205483624Y-85658237D01*
X205474778Y-85657604D01*
X205466113Y-85655719D01*
X205457271Y-85656351D01*
X205457266Y-85656351D01*
X205417665Y-85659184D01*
X205408819Y-85659500D01*
X205395679Y-85659500D01*
X205391306Y-85660128D01*
X205391287Y-85660130D01*
X205382663Y-85661370D01*
X205373875Y-85662315D01*
X205334272Y-85665148D01*
X205334270Y-85665148D01*
X205325425Y-85665781D01*
X205317115Y-85668879D01*
X205308450Y-85670765D01*
X205308417Y-85670614D01*
X205308393Y-85670620D01*
X205308437Y-85670768D01*
X205299926Y-85673267D01*
X205291150Y-85674529D01*
X205283085Y-85678211D01*
X205283085Y-85678212D01*
X205246958Y-85694710D01*
X205238786Y-85698094D01*
X205201582Y-85711971D01*
X205201574Y-85711975D01*
X205193272Y-85715072D01*
X205186174Y-85720384D01*
X205178393Y-85724634D01*
X205178319Y-85724499D01*
X205178293Y-85724514D01*
X205178376Y-85724643D01*
X205170911Y-85729439D01*
X205162850Y-85733122D01*
X205156155Y-85738923D01*
X205156152Y-85738925D01*
X205141467Y-85751649D01*
X205126127Y-85764941D01*
X205119255Y-85770479D01*
X205112272Y-85775706D01*
X205112257Y-85775718D01*
X205108732Y-85778358D01*
X205105619Y-85781470D01*
X205105606Y-85781482D01*
X205099435Y-85787653D01*
X205092969Y-85793672D01*
X205062957Y-85819678D01*
X205062951Y-85819684D01*
X205056254Y-85825488D01*
X205051459Y-85832948D01*
X205045655Y-85839647D01*
X205045538Y-85839545D01*
X205037210Y-85849878D01*
X200963908Y-89923181D01*
X200923680Y-89950061D01*
X200876227Y-89959500D01*
X191152888Y-89959500D01*
X191105435Y-89950061D01*
X191048608Y-89926522D01*
X191048605Y-89926521D01*
X191041099Y-89923412D01*
X191033045Y-89922351D01*
X191033039Y-89922350D01*
X190908059Y-89905897D01*
X190900000Y-89904836D01*
X190891941Y-89905897D01*
X190766960Y-89922350D01*
X190766952Y-89922351D01*
X190758901Y-89923412D01*
X190751396Y-89926520D01*
X190751391Y-89926522D01*
X190634927Y-89974763D01*
X190634922Y-89974765D01*
X190627418Y-89977874D01*
X190620973Y-89982818D01*
X190620970Y-89982821D01*
X190520953Y-90059567D01*
X190520949Y-90059570D01*
X190514511Y-90064511D01*
X190509570Y-90070949D01*
X190509567Y-90070953D01*
X190432821Y-90170970D01*
X190432818Y-90170973D01*
X190427874Y-90177418D01*
X190424765Y-90184922D01*
X190424763Y-90184927D01*
X190376522Y-90301391D01*
X190376520Y-90301396D01*
X190373412Y-90308901D01*
X190372351Y-90316952D01*
X190372350Y-90316960D01*
X190356129Y-90440172D01*
X190354836Y-90450000D01*
X190355897Y-90458059D01*
X190372350Y-90583039D01*
X190372351Y-90583045D01*
X190373412Y-90591099D01*
X190376521Y-90598605D01*
X190376522Y-90598608D01*
X190416155Y-90694290D01*
X190427874Y-90722582D01*
X190514511Y-90835489D01*
X190627418Y-90922126D01*
X190758901Y-90976588D01*
X190900000Y-90995164D01*
X191041099Y-90976588D01*
X191105435Y-90949938D01*
X191152888Y-90940500D01*
X200876227Y-90940500D01*
X200923680Y-90949939D01*
X200963908Y-90976819D01*
X201872283Y-91885194D01*
X202234909Y-92247819D01*
X202265159Y-92297182D01*
X202269701Y-92354898D01*
X202247546Y-92408385D01*
X202203523Y-92445985D01*
X202147228Y-92459500D01*
X184450265Y-92459500D01*
X184424952Y-92456874D01*
X184424863Y-92456870D01*
X184414813Y-92454763D01*
X184404621Y-92456033D01*
X184404613Y-92456033D01*
X184384236Y-92458573D01*
X184379147Y-92459101D01*
X184374333Y-92459500D01*
X184369214Y-92459500D01*
X184364159Y-92460343D01*
X184364151Y-92460344D01*
X184349326Y-92462817D01*
X184344267Y-92463554D01*
X184303961Y-92468579D01*
X184303953Y-92468581D01*
X184293767Y-92469851D01*
X184286813Y-92473250D01*
X184279181Y-92474524D01*
X184270157Y-92479407D01*
X184270149Y-92479410D01*
X184234438Y-92498736D01*
X184229886Y-92501079D01*
X184193408Y-92518912D01*
X184193401Y-92518916D01*
X184184180Y-92523425D01*
X184178707Y-92528897D01*
X184171901Y-92532581D01*
X184164946Y-92540135D01*
X184164942Y-92540139D01*
X184137435Y-92570019D01*
X184133888Y-92573715D01*
X183758209Y-92949395D01*
X183726044Y-92972592D01*
X183688201Y-92984448D01*
X183687840Y-92984500D01*
X183678977Y-92984500D01*
X183677365Y-92984973D01*
X183629584Y-92981565D01*
X183583307Y-92956304D01*
X183551708Y-92914099D01*
X183540500Y-92862582D01*
X183540500Y-89613112D01*
X183549939Y-89565659D01*
X183576819Y-89525431D01*
X184302250Y-88800000D01*
X194554836Y-88800000D01*
X194555897Y-88808059D01*
X194572350Y-88933039D01*
X194572351Y-88933045D01*
X194573412Y-88941099D01*
X194576521Y-88948605D01*
X194576522Y-88948608D01*
X194615584Y-89042911D01*
X194627874Y-89072582D01*
X194632821Y-89079029D01*
X194692950Y-89157391D01*
X194714511Y-89185489D01*
X194827418Y-89272126D01*
X194958901Y-89326588D01*
X195100000Y-89345164D01*
X195241099Y-89326588D01*
X195372582Y-89272126D01*
X195485489Y-89185489D01*
X195572126Y-89072582D01*
X195626588Y-88941099D01*
X195645164Y-88800000D01*
X195626588Y-88658901D01*
X195572126Y-88527418D01*
X195532277Y-88475486D01*
X195509592Y-88426839D01*
X195509592Y-88373161D01*
X195532277Y-88324513D01*
X195572126Y-88272582D01*
X195602190Y-88200000D01*
X199004836Y-88200000D01*
X199005897Y-88208059D01*
X199022350Y-88333039D01*
X199022351Y-88333045D01*
X199023412Y-88341099D01*
X199026521Y-88348605D01*
X199026522Y-88348608D01*
X199074763Y-88465072D01*
X199077874Y-88472582D01*
X199082821Y-88479029D01*
X199132733Y-88544076D01*
X199164511Y-88585489D01*
X199277418Y-88672126D01*
X199408901Y-88726588D01*
X199550000Y-88745164D01*
X199691099Y-88726588D01*
X199822582Y-88672126D01*
X199935489Y-88585489D01*
X200022126Y-88472582D01*
X200076588Y-88341099D01*
X200095164Y-88200000D01*
X200076588Y-88058901D01*
X200022126Y-87927418D01*
X199935489Y-87814511D01*
X199822582Y-87727874D01*
X199815073Y-87724763D01*
X199815072Y-87724763D01*
X199698608Y-87676522D01*
X199698605Y-87676521D01*
X199691099Y-87673412D01*
X199683045Y-87672351D01*
X199683039Y-87672350D01*
X199558059Y-87655897D01*
X199550000Y-87654836D01*
X199541941Y-87655897D01*
X199416960Y-87672350D01*
X199416952Y-87672351D01*
X199408901Y-87673412D01*
X199401396Y-87676520D01*
X199401391Y-87676522D01*
X199284927Y-87724763D01*
X199284922Y-87724765D01*
X199277418Y-87727874D01*
X199270973Y-87732818D01*
X199270970Y-87732821D01*
X199170953Y-87809567D01*
X199170949Y-87809570D01*
X199164511Y-87814511D01*
X199159570Y-87820949D01*
X199159567Y-87820953D01*
X199082821Y-87920970D01*
X199082818Y-87920973D01*
X199077874Y-87927418D01*
X199074765Y-87934922D01*
X199074763Y-87934927D01*
X199026522Y-88051391D01*
X199026520Y-88051396D01*
X199023412Y-88058901D01*
X199022351Y-88066952D01*
X199022350Y-88066960D01*
X199012590Y-88141099D01*
X199004836Y-88200000D01*
X195602190Y-88200000D01*
X195626588Y-88141099D01*
X195645164Y-88000000D01*
X195626588Y-87858901D01*
X195572126Y-87727418D01*
X195485489Y-87614511D01*
X195471088Y-87603461D01*
X195379029Y-87532821D01*
X195372582Y-87527874D01*
X195365073Y-87524763D01*
X195365072Y-87524763D01*
X195248608Y-87476522D01*
X195248605Y-87476521D01*
X195241099Y-87473412D01*
X195233045Y-87472351D01*
X195233039Y-87472350D01*
X195108059Y-87455897D01*
X195100000Y-87454836D01*
X195091941Y-87455897D01*
X194966960Y-87472350D01*
X194966952Y-87472351D01*
X194958901Y-87473412D01*
X194951396Y-87476520D01*
X194951391Y-87476522D01*
X194834927Y-87524763D01*
X194834922Y-87524765D01*
X194827418Y-87527874D01*
X194820973Y-87532818D01*
X194820970Y-87532821D01*
X194720953Y-87609567D01*
X194720949Y-87609570D01*
X194714511Y-87614511D01*
X194709570Y-87620949D01*
X194709567Y-87620953D01*
X194632821Y-87720970D01*
X194632818Y-87720973D01*
X194627874Y-87727418D01*
X194624765Y-87734922D01*
X194624763Y-87734927D01*
X194576522Y-87851391D01*
X194576520Y-87851396D01*
X194573412Y-87858901D01*
X194572351Y-87866952D01*
X194572350Y-87866960D01*
X194558958Y-87968688D01*
X194554836Y-88000000D01*
X194555897Y-88008059D01*
X194572350Y-88133039D01*
X194572351Y-88133045D01*
X194573412Y-88141099D01*
X194576521Y-88148605D01*
X194576522Y-88148608D01*
X194623691Y-88262484D01*
X194627874Y-88272582D01*
X194632819Y-88279027D01*
X194632823Y-88279033D01*
X194667722Y-88324514D01*
X194690407Y-88373162D01*
X194690407Y-88426838D01*
X194667722Y-88475486D01*
X194632823Y-88520966D01*
X194632817Y-88520975D01*
X194627874Y-88527418D01*
X194624765Y-88534922D01*
X194624763Y-88534927D01*
X194576522Y-88651391D01*
X194576520Y-88651396D01*
X194573412Y-88658901D01*
X194572351Y-88666952D01*
X194572350Y-88666960D01*
X194556972Y-88783777D01*
X194554836Y-88800000D01*
X184302250Y-88800000D01*
X184800431Y-88301819D01*
X184840659Y-88274939D01*
X184888112Y-88265500D01*
X191077090Y-88265500D01*
X191086849Y-88265500D01*
X191107161Y-88258899D01*
X191126084Y-88254357D01*
X191127541Y-88254126D01*
X191147175Y-88251017D01*
X191166207Y-88241318D01*
X191184180Y-88233874D01*
X191204493Y-88227275D01*
X191221767Y-88214724D01*
X191238361Y-88204556D01*
X191248691Y-88199292D01*
X191248691Y-88199291D01*
X191257391Y-88194859D01*
X191344859Y-88107391D01*
X192472858Y-86979392D01*
X192472860Y-86979388D01*
X192494859Y-86957391D01*
X192499289Y-86948695D01*
X192499292Y-86948692D01*
X192504556Y-86938361D01*
X192514724Y-86921768D01*
X192520517Y-86913794D01*
X192527275Y-86904493D01*
X192533874Y-86884180D01*
X192541318Y-86866207D01*
X192551017Y-86847175D01*
X192554356Y-86826084D01*
X192558899Y-86807161D01*
X192565500Y-86786849D01*
X192565500Y-86663150D01*
X192565500Y-85613112D01*
X192574939Y-85565659D01*
X192601819Y-85525431D01*
X193250431Y-84876819D01*
X193290659Y-84849939D01*
X193338112Y-84840500D01*
X204763964Y-84840500D01*
X204831000Y-84860183D01*
X204894144Y-84900763D01*
X205029477Y-84940500D01*
X205161653Y-84940500D01*
X205170523Y-84940500D01*
X205305856Y-84900763D01*
X205424512Y-84824507D01*
X205516878Y-84717911D01*
X205575471Y-84589611D01*
X205595544Y-84450000D01*
X205575471Y-84310389D01*
X205516878Y-84182089D01*
X205424512Y-84075493D01*
X205352213Y-84029029D01*
X205313316Y-84004031D01*
X205313314Y-84004030D01*
X205305856Y-83999237D01*
X205297347Y-83996738D01*
X205297346Y-83996738D01*
X205224626Y-83975386D01*
X205170523Y-83959500D01*
X205029477Y-83959500D01*
X205020966Y-83961998D01*
X205020966Y-83961999D01*
X204902656Y-83996737D01*
X204902651Y-83996738D01*
X204894144Y-83999237D01*
X204831000Y-84039816D01*
X204763964Y-84059500D01*
X193186849Y-84059500D01*
X193063151Y-84059500D01*
X193053874Y-84062513D01*
X193053868Y-84062515D01*
X193042836Y-84066100D01*
X193023924Y-84070641D01*
X193012463Y-84072456D01*
X193012460Y-84072456D01*
X193002825Y-84073983D01*
X192994132Y-84078411D01*
X192994126Y-84078414D01*
X192983785Y-84083683D01*
X192965820Y-84091124D01*
X192954790Y-84094708D01*
X192954786Y-84094709D01*
X192945507Y-84097725D01*
X192937612Y-84103460D01*
X192937611Y-84103461D01*
X192928225Y-84110280D01*
X192911645Y-84120440D01*
X192901307Y-84125707D01*
X192901299Y-84125712D01*
X192892609Y-84130141D01*
X192885709Y-84137040D01*
X192885706Y-84137043D01*
X192870608Y-84152142D01*
X192014454Y-85008295D01*
X191967329Y-85037794D01*
X191912051Y-85043737D01*
X191859734Y-85024929D01*
X191797490Y-84984927D01*
X191788316Y-84979031D01*
X191788314Y-84979030D01*
X191780856Y-84974237D01*
X191772347Y-84971738D01*
X191772346Y-84971738D01*
X191665957Y-84940500D01*
X191645523Y-84934500D01*
X191504477Y-84934500D01*
X191495966Y-84936998D01*
X191495966Y-84936999D01*
X191377656Y-84971737D01*
X191377651Y-84971738D01*
X191369144Y-84974237D01*
X191306000Y-85014816D01*
X191238964Y-85034500D01*
X173197136Y-85034500D01*
X173130097Y-85014816D01*
X173119950Y-85008295D01*
X173105856Y-84999237D01*
X173097347Y-84996738D01*
X173097346Y-84996738D01*
X173012202Y-84971738D01*
X172970523Y-84959500D01*
X172829477Y-84959500D01*
X172820966Y-84961998D01*
X172820966Y-84961999D01*
X172702653Y-84996738D01*
X172702649Y-84996739D01*
X172694144Y-84999237D01*
X172686687Y-85004028D01*
X172686683Y-85004031D01*
X172582945Y-85070700D01*
X172582942Y-85070702D01*
X172575488Y-85075493D01*
X172569684Y-85082191D01*
X172569683Y-85082192D01*
X172532418Y-85125198D01*
X172483122Y-85182089D01*
X172479438Y-85190154D01*
X172479437Y-85190157D01*
X172452108Y-85250000D01*
X172424529Y-85310389D01*
X172423267Y-85319162D01*
X172423266Y-85319168D01*
X172406980Y-85432439D01*
X172404456Y-85450000D01*
X172405718Y-85458777D01*
X172423266Y-85580831D01*
X172423267Y-85580835D01*
X172424529Y-85589611D01*
X172483122Y-85717911D01*
X172549143Y-85794103D01*
X172575488Y-85824507D01*
X172574531Y-85825335D01*
X172602854Y-85865511D01*
X172610495Y-85924635D01*
X172589662Y-85980491D01*
X172545170Y-86020170D01*
X172487303Y-86034500D01*
X160052758Y-86034500D01*
X160005305Y-86025061D01*
X159965077Y-85998181D01*
X156444346Y-82477451D01*
X156428217Y-82457590D01*
X156422624Y-82449029D01*
X156423416Y-82448511D01*
X156401124Y-82408897D01*
X156398303Y-82352070D01*
X156421159Y-82299966D01*
X156464879Y-82263554D01*
X156520258Y-82250500D01*
X180073668Y-82250500D01*
X180138458Y-82268773D01*
G37*
%TD.AperFunction*%
%TA.AperFunction,Conductor*%
G36*
X155744696Y-83524939D02*
G01*
X155784924Y-83551819D01*
X159355654Y-87122549D01*
X159371702Y-87142310D01*
X159371755Y-87142368D01*
X159377375Y-87150969D01*
X159398117Y-87167113D01*
X159401691Y-87169895D01*
X159405669Y-87173126D01*
X159409340Y-87176235D01*
X159412968Y-87179863D01*
X159421124Y-87185686D01*
X159429368Y-87191572D01*
X159433479Y-87194637D01*
X159473636Y-87225893D01*
X159480959Y-87228407D01*
X159487255Y-87232902D01*
X159528442Y-87245164D01*
X159536013Y-87247418D01*
X159540851Y-87248967D01*
X159589009Y-87265500D01*
X159596749Y-87265500D01*
X159604165Y-87267708D01*
X159654986Y-87265605D01*
X159660110Y-87265500D01*
X159860500Y-87265500D01*
X159922500Y-87282113D01*
X159967887Y-87327500D01*
X159981394Y-87377911D01*
X159983720Y-87377649D01*
X159984500Y-87384571D01*
X159984500Y-87391533D01*
X159986858Y-87401862D01*
X160011992Y-87511981D01*
X160010924Y-87571488D01*
X159982252Y-87623643D01*
X159932581Y-87656430D01*
X159873354Y-87662297D01*
X159818216Y-87639892D01*
X159814289Y-87637038D01*
X159807391Y-87630141D01*
X159798701Y-87625713D01*
X159798697Y-87625710D01*
X159788358Y-87620442D01*
X159771777Y-87610281D01*
X159762388Y-87603460D01*
X159762384Y-87603458D01*
X159754493Y-87597725D01*
X159745219Y-87594711D01*
X159745212Y-87594708D01*
X159734177Y-87591123D01*
X159716204Y-87583678D01*
X159705870Y-87578413D01*
X159705868Y-87578412D01*
X159697175Y-87573983D01*
X159679284Y-87571149D01*
X159676076Y-87570641D01*
X159657162Y-87566100D01*
X159646127Y-87562514D01*
X159646123Y-87562513D01*
X159636849Y-87559500D01*
X159605735Y-87559500D01*
X157086849Y-87559500D01*
X156963151Y-87559500D01*
X156953874Y-87562513D01*
X156953868Y-87562515D01*
X156942836Y-87566100D01*
X156923924Y-87570641D01*
X156912463Y-87572456D01*
X156912460Y-87572456D01*
X156902825Y-87573983D01*
X156894132Y-87578411D01*
X156894126Y-87578414D01*
X156883785Y-87583683D01*
X156865820Y-87591124D01*
X156854790Y-87594708D01*
X156854786Y-87594709D01*
X156845507Y-87597725D01*
X156837612Y-87603460D01*
X156837611Y-87603461D01*
X156828225Y-87610280D01*
X156811645Y-87620440D01*
X156801303Y-87625709D01*
X156801294Y-87625714D01*
X156792609Y-87630141D01*
X156785711Y-87637038D01*
X156785709Y-87637040D01*
X156770612Y-87652136D01*
X156770609Y-87652139D01*
X156770608Y-87652141D01*
X156770608Y-87652142D01*
X155049569Y-89373181D01*
X155009341Y-89400061D01*
X154961888Y-89409500D01*
X137961849Y-89409500D01*
X137838151Y-89409500D01*
X137828874Y-89412513D01*
X137828868Y-89412515D01*
X137817836Y-89416100D01*
X137798924Y-89420641D01*
X137787461Y-89422456D01*
X137787456Y-89422457D01*
X137777825Y-89423983D01*
X137769138Y-89428408D01*
X137769128Y-89428412D01*
X137758788Y-89433681D01*
X137740828Y-89441120D01*
X137729790Y-89444707D01*
X137729783Y-89444710D01*
X137720506Y-89447725D01*
X137712615Y-89453457D01*
X137712607Y-89453462D01*
X137703221Y-89460282D01*
X137686637Y-89470445D01*
X137676303Y-89475710D01*
X137676298Y-89475713D01*
X137667609Y-89480141D01*
X137660712Y-89487037D01*
X137660709Y-89487040D01*
X137645608Y-89502142D01*
X136793486Y-90354263D01*
X136793484Y-90354265D01*
X136793485Y-90354265D01*
X136706019Y-90441731D01*
X136701590Y-90450421D01*
X136701585Y-90450429D01*
X136696318Y-90460767D01*
X136686158Y-90477346D01*
X136673603Y-90494629D01*
X136670587Y-90503908D01*
X136670586Y-90503912D01*
X136667002Y-90514942D01*
X136659561Y-90532907D01*
X136654292Y-90543248D01*
X136654289Y-90543254D01*
X136649861Y-90551947D01*
X136648334Y-90561582D01*
X136648334Y-90561585D01*
X136646519Y-90573046D01*
X136641978Y-90591958D01*
X136638393Y-90602990D01*
X136638391Y-90602996D01*
X136635378Y-90612273D01*
X136635378Y-90622030D01*
X136635378Y-91888763D01*
X136630355Y-91923698D01*
X136615693Y-91955803D01*
X136614807Y-91957180D01*
X136609000Y-91963883D01*
X136605318Y-91971945D01*
X136605315Y-91971950D01*
X136554092Y-92084113D01*
X136550407Y-92092183D01*
X136549145Y-92100956D01*
X136549144Y-92100962D01*
X136537839Y-92179594D01*
X136530334Y-92231794D01*
X136531596Y-92240571D01*
X136549144Y-92362625D01*
X136549145Y-92362629D01*
X136550407Y-92371405D01*
X136578246Y-92432364D01*
X136589984Y-92458066D01*
X136600166Y-92525470D01*
X136573182Y-92588071D01*
X136517187Y-92626949D01*
X136449103Y-92630354D01*
X136389508Y-92597258D01*
X133676819Y-89884569D01*
X133649939Y-89844341D01*
X133640500Y-89796888D01*
X133640500Y-88631757D01*
X133654015Y-88575462D01*
X133691615Y-88531439D01*
X133745102Y-88509284D01*
X133802818Y-88513826D01*
X133852181Y-88544076D01*
X135303857Y-89995752D01*
X135327060Y-90027928D01*
X135338914Y-90065785D01*
X135348266Y-90130832D01*
X135348267Y-90130837D01*
X135349529Y-90139611D01*
X135408122Y-90267911D01*
X135500488Y-90374507D01*
X135619144Y-90450763D01*
X135754477Y-90490500D01*
X135886653Y-90490500D01*
X135895523Y-90490500D01*
X136030856Y-90450763D01*
X136149512Y-90374507D01*
X136241878Y-90267911D01*
X136300471Y-90139611D01*
X136320544Y-90000000D01*
X136300471Y-89860389D01*
X136241878Y-89732089D01*
X136149512Y-89625493D01*
X136114502Y-89602993D01*
X136038316Y-89554031D01*
X136038314Y-89554030D01*
X136030856Y-89549237D01*
X136022347Y-89546738D01*
X136022346Y-89546738D01*
X135904028Y-89511997D01*
X135904026Y-89511996D01*
X135895523Y-89509500D01*
X135886662Y-89509500D01*
X135886321Y-89509451D01*
X135848465Y-89497597D01*
X135816290Y-89474395D01*
X134401819Y-88059924D01*
X134374939Y-88019696D01*
X134365500Y-87972243D01*
X134365500Y-87768528D01*
X139650000Y-87768528D01*
X139651189Y-87780604D01*
X139662122Y-87835566D01*
X139671289Y-87857699D01*
X139712975Y-87920086D01*
X139729913Y-87937024D01*
X139792300Y-87978710D01*
X139814433Y-87987877D01*
X139869395Y-87998810D01*
X139881472Y-88000000D01*
X140133674Y-88000000D01*
X140146549Y-87996549D01*
X140150000Y-87983674D01*
X140650000Y-87983674D01*
X140653450Y-87996549D01*
X140666326Y-88000000D01*
X140918528Y-88000000D01*
X140930604Y-87998810D01*
X140985566Y-87987877D01*
X141007699Y-87978710D01*
X141070086Y-87937024D01*
X141087024Y-87920086D01*
X141128710Y-87857699D01*
X141137877Y-87835566D01*
X141148810Y-87780604D01*
X141150000Y-87768528D01*
X146900000Y-87768528D01*
X146901189Y-87780604D01*
X146912122Y-87835566D01*
X146921289Y-87857699D01*
X146962975Y-87920086D01*
X146979913Y-87937024D01*
X147042300Y-87978710D01*
X147064433Y-87987877D01*
X147119395Y-87998810D01*
X147131472Y-88000000D01*
X147383674Y-88000000D01*
X147396549Y-87996549D01*
X147400000Y-87983674D01*
X147900000Y-87983674D01*
X147903450Y-87996549D01*
X147916326Y-88000000D01*
X148168528Y-88000000D01*
X148180604Y-87998810D01*
X148235566Y-87987877D01*
X148257699Y-87978710D01*
X148320086Y-87937024D01*
X148337024Y-87920086D01*
X148378710Y-87857699D01*
X148387877Y-87835566D01*
X148398810Y-87780604D01*
X148400000Y-87768528D01*
X154150000Y-87768528D01*
X154151189Y-87780604D01*
X154162122Y-87835566D01*
X154171289Y-87857699D01*
X154212975Y-87920086D01*
X154229913Y-87937024D01*
X154292300Y-87978710D01*
X154314433Y-87987877D01*
X154369395Y-87998810D01*
X154381472Y-88000000D01*
X154633674Y-88000000D01*
X154646549Y-87996549D01*
X154650000Y-87983674D01*
X155150000Y-87983674D01*
X155153450Y-87996549D01*
X155166326Y-88000000D01*
X155418528Y-88000000D01*
X155430604Y-87998810D01*
X155485566Y-87987877D01*
X155507699Y-87978710D01*
X155570086Y-87937024D01*
X155587024Y-87920086D01*
X155628710Y-87857699D01*
X155637877Y-87835566D01*
X155648810Y-87780604D01*
X155650000Y-87768528D01*
X155650000Y-87391326D01*
X155646549Y-87378450D01*
X155633674Y-87375000D01*
X155166326Y-87375000D01*
X155153450Y-87378450D01*
X155150000Y-87391326D01*
X155150000Y-87983674D01*
X154650000Y-87983674D01*
X154650000Y-87391326D01*
X154646549Y-87378450D01*
X154633674Y-87375000D01*
X154166326Y-87375000D01*
X154153450Y-87378450D01*
X154150000Y-87391326D01*
X154150000Y-87768528D01*
X148400000Y-87768528D01*
X148400000Y-87391326D01*
X148396549Y-87378450D01*
X148383674Y-87375000D01*
X147916326Y-87375000D01*
X147903450Y-87378450D01*
X147900000Y-87391326D01*
X147900000Y-87983674D01*
X147400000Y-87983674D01*
X147400000Y-87391326D01*
X147396549Y-87378450D01*
X147383674Y-87375000D01*
X146916326Y-87375000D01*
X146903450Y-87378450D01*
X146900000Y-87391326D01*
X146900000Y-87768528D01*
X141150000Y-87768528D01*
X141150000Y-87391326D01*
X141146549Y-87378450D01*
X141133674Y-87375000D01*
X140666326Y-87375000D01*
X140653450Y-87378450D01*
X140650000Y-87391326D01*
X140650000Y-87983674D01*
X140150000Y-87983674D01*
X140150000Y-87391326D01*
X140146549Y-87378450D01*
X140133674Y-87375000D01*
X139666326Y-87375000D01*
X139653450Y-87378450D01*
X139650000Y-87391326D01*
X139650000Y-87768528D01*
X134365500Y-87768528D01*
X134365500Y-87167125D01*
X151175001Y-87167125D01*
X151175354Y-87173726D01*
X151180252Y-87219294D01*
X151183792Y-87234274D01*
X151225716Y-87346676D01*
X151234130Y-87362084D01*
X151305355Y-87457230D01*
X151317769Y-87469644D01*
X151412915Y-87540869D01*
X151428323Y-87549283D01*
X151540728Y-87591208D01*
X151555705Y-87594747D01*
X151601253Y-87599644D01*
X151607887Y-87600000D01*
X151633674Y-87600000D01*
X151646549Y-87596549D01*
X151650000Y-87583674D01*
X151650000Y-87583673D01*
X152150000Y-87583673D01*
X152153450Y-87596548D01*
X152166326Y-87599999D01*
X152192125Y-87599999D01*
X152198726Y-87599645D01*
X152244294Y-87594747D01*
X152259274Y-87591207D01*
X152371676Y-87549283D01*
X152387084Y-87540869D01*
X152482230Y-87469644D01*
X152494644Y-87457230D01*
X152565869Y-87362084D01*
X152574283Y-87346676D01*
X152616208Y-87234271D01*
X152619747Y-87219294D01*
X152624644Y-87173746D01*
X152625000Y-87167113D01*
X152625000Y-87166326D01*
X152621549Y-87153450D01*
X152608674Y-87150000D01*
X152166326Y-87150000D01*
X152153450Y-87153450D01*
X152150000Y-87166326D01*
X152150000Y-87583673D01*
X151650000Y-87583673D01*
X151650000Y-87166326D01*
X151646549Y-87153450D01*
X151633674Y-87150000D01*
X151191327Y-87150000D01*
X151178451Y-87153450D01*
X151175001Y-87166326D01*
X151175001Y-87167125D01*
X134365500Y-87167125D01*
X134365500Y-86858674D01*
X139650000Y-86858674D01*
X139653450Y-86871549D01*
X139666326Y-86875000D01*
X140133674Y-86875000D01*
X140146549Y-86871549D01*
X140150000Y-86858674D01*
X140650000Y-86858674D01*
X140653450Y-86871549D01*
X140666326Y-86875000D01*
X141133674Y-86875000D01*
X141146549Y-86871549D01*
X141150000Y-86858674D01*
X146900000Y-86858674D01*
X146903450Y-86871549D01*
X146916326Y-86875000D01*
X147383674Y-86875000D01*
X147396549Y-86871549D01*
X147400000Y-86858674D01*
X147900000Y-86858674D01*
X147903450Y-86871549D01*
X147916326Y-86875000D01*
X148383674Y-86875000D01*
X148396549Y-86871549D01*
X148400000Y-86858674D01*
X154150000Y-86858674D01*
X154153450Y-86871549D01*
X154166326Y-86875000D01*
X154633674Y-86875000D01*
X154646549Y-86871549D01*
X154650000Y-86858674D01*
X155150000Y-86858674D01*
X155153450Y-86871549D01*
X155166326Y-86875000D01*
X155633674Y-86875000D01*
X155646549Y-86871549D01*
X155650000Y-86858674D01*
X155650000Y-86481472D01*
X155648810Y-86469395D01*
X155637877Y-86414433D01*
X155628710Y-86392300D01*
X155587024Y-86329913D01*
X155570086Y-86312975D01*
X155507699Y-86271289D01*
X155485566Y-86262122D01*
X155430604Y-86251189D01*
X155418528Y-86250000D01*
X155166326Y-86250000D01*
X155153450Y-86253450D01*
X155150000Y-86266326D01*
X155150000Y-86858674D01*
X154650000Y-86858674D01*
X154650000Y-86266326D01*
X154646549Y-86253450D01*
X154633674Y-86250000D01*
X154381472Y-86250000D01*
X154369395Y-86251189D01*
X154314433Y-86262122D01*
X154292300Y-86271289D01*
X154229913Y-86312975D01*
X154212975Y-86329913D01*
X154171289Y-86392300D01*
X154162122Y-86414433D01*
X154151189Y-86469395D01*
X154150000Y-86481472D01*
X154150000Y-86858674D01*
X148400000Y-86858674D01*
X148400000Y-86481472D01*
X148398810Y-86469395D01*
X148387877Y-86414433D01*
X148378710Y-86392300D01*
X148337024Y-86329913D01*
X148320086Y-86312975D01*
X148257699Y-86271289D01*
X148235566Y-86262122D01*
X148180604Y-86251189D01*
X148168528Y-86250000D01*
X147916326Y-86250000D01*
X147903450Y-86253450D01*
X147900000Y-86266326D01*
X147900000Y-86858674D01*
X147400000Y-86858674D01*
X147400000Y-86266326D01*
X147396549Y-86253450D01*
X147383674Y-86250000D01*
X147131472Y-86250000D01*
X147119395Y-86251189D01*
X147064433Y-86262122D01*
X147042300Y-86271289D01*
X146979913Y-86312975D01*
X146962975Y-86329913D01*
X146921289Y-86392300D01*
X146912122Y-86414433D01*
X146901189Y-86469395D01*
X146900000Y-86481472D01*
X146900000Y-86858674D01*
X141150000Y-86858674D01*
X141150000Y-86481472D01*
X141148810Y-86469395D01*
X141137877Y-86414433D01*
X141128710Y-86392300D01*
X141087024Y-86329913D01*
X141070086Y-86312975D01*
X141007699Y-86271289D01*
X140985566Y-86262122D01*
X140930604Y-86251189D01*
X140918528Y-86250000D01*
X140666326Y-86250000D01*
X140653450Y-86253450D01*
X140650000Y-86266326D01*
X140650000Y-86858674D01*
X140150000Y-86858674D01*
X140150000Y-86266326D01*
X140146549Y-86253450D01*
X140133674Y-86250000D01*
X139881472Y-86250000D01*
X139869395Y-86251189D01*
X139814433Y-86262122D01*
X139792300Y-86271289D01*
X139729913Y-86312975D01*
X139712975Y-86329913D01*
X139671289Y-86392300D01*
X139662122Y-86414433D01*
X139651189Y-86469395D01*
X139650000Y-86481472D01*
X139650000Y-86858674D01*
X134365500Y-86858674D01*
X134365500Y-86528634D01*
X134378616Y-86473129D01*
X134415190Y-86429367D01*
X134467483Y-86406604D01*
X134524434Y-86409656D01*
X134629477Y-86440500D01*
X134761653Y-86440500D01*
X134770523Y-86440500D01*
X134905856Y-86400763D01*
X134944063Y-86376208D01*
X134987630Y-86358766D01*
X135034566Y-86358766D01*
X135078136Y-86376208D01*
X135194144Y-86450763D01*
X135329477Y-86490500D01*
X135461653Y-86490500D01*
X135470523Y-86490500D01*
X135605856Y-86450763D01*
X135724512Y-86374507D01*
X135816878Y-86267911D01*
X135875471Y-86139611D01*
X135895544Y-86000000D01*
X135875471Y-85860389D01*
X135816878Y-85732089D01*
X135811071Y-85725387D01*
X135811067Y-85725381D01*
X135795788Y-85707749D01*
X135773318Y-85669880D01*
X135765500Y-85626546D01*
X135765500Y-85250000D01*
X150479836Y-85250000D01*
X150480897Y-85258059D01*
X150497350Y-85383039D01*
X150497351Y-85383045D01*
X150498412Y-85391099D01*
X150501521Y-85398605D01*
X150501522Y-85398608D01*
X150540768Y-85493355D01*
X150552874Y-85522582D01*
X150557821Y-85529029D01*
X150619223Y-85609050D01*
X150639511Y-85635489D01*
X150752418Y-85722126D01*
X150883901Y-85776588D01*
X150891959Y-85777648D01*
X150891960Y-85777649D01*
X150907083Y-85779640D01*
X151025000Y-85795164D01*
X151142916Y-85779640D01*
X151207623Y-85788467D01*
X151258869Y-85828944D01*
X151317124Y-85907876D01*
X151339721Y-85924553D01*
X151422550Y-85985684D01*
X151422552Y-85985685D01*
X151430030Y-85991204D01*
X151464288Y-86003191D01*
X151514517Y-86036199D01*
X151543323Y-86088952D01*
X151543937Y-86149054D01*
X151516214Y-86202385D01*
X151466669Y-86236413D01*
X151428326Y-86250714D01*
X151412915Y-86259130D01*
X151317769Y-86330355D01*
X151305355Y-86342769D01*
X151234130Y-86437915D01*
X151225716Y-86453323D01*
X151183791Y-86565728D01*
X151180252Y-86580705D01*
X151175355Y-86626253D01*
X151175000Y-86632887D01*
X151175000Y-86633674D01*
X151178450Y-86646549D01*
X151191326Y-86650000D01*
X152608673Y-86650000D01*
X152621548Y-86646549D01*
X152624999Y-86633674D01*
X152624999Y-86632875D01*
X152624645Y-86626273D01*
X152619747Y-86580705D01*
X152616207Y-86565725D01*
X152574283Y-86453323D01*
X152565869Y-86437915D01*
X152494644Y-86342769D01*
X152482230Y-86330355D01*
X152387084Y-86259130D01*
X152371671Y-86250714D01*
X152333331Y-86236413D01*
X152283785Y-86202385D01*
X152256062Y-86149054D01*
X152256676Y-86088952D01*
X152285483Y-86036198D01*
X152335711Y-86003191D01*
X152369970Y-85991204D01*
X152482876Y-85907876D01*
X152566204Y-85794970D01*
X152612551Y-85662519D01*
X152615500Y-85631071D01*
X152615499Y-85068930D01*
X152612551Y-85037481D01*
X152566204Y-84905030D01*
X152559515Y-84895967D01*
X152488394Y-84799601D01*
X152482876Y-84792124D01*
X152462767Y-84777283D01*
X152377449Y-84714315D01*
X152377445Y-84714313D01*
X152369970Y-84708796D01*
X152361200Y-84705727D01*
X152361196Y-84705725D01*
X152244645Y-84664942D01*
X152244641Y-84664941D01*
X152237519Y-84662449D01*
X152230001Y-84661744D01*
X152208956Y-84659770D01*
X152208944Y-84659769D01*
X152206071Y-84659500D01*
X152203177Y-84659500D01*
X151596832Y-84659500D01*
X151596810Y-84659500D01*
X151593930Y-84659501D01*
X151591056Y-84659770D01*
X151591043Y-84659771D01*
X151569997Y-84661744D01*
X151569993Y-84661744D01*
X151562481Y-84662449D01*
X151555356Y-84664942D01*
X151555352Y-84664943D01*
X151438803Y-84705725D01*
X151438796Y-84705728D01*
X151430030Y-84708796D01*
X151394155Y-84735272D01*
X151359285Y-84753287D01*
X151320526Y-84759500D01*
X151277888Y-84759500D01*
X151230435Y-84750061D01*
X151173608Y-84726522D01*
X151173605Y-84726521D01*
X151166099Y-84723412D01*
X151158045Y-84722351D01*
X151158039Y-84722350D01*
X151033059Y-84705897D01*
X151025000Y-84704836D01*
X151016941Y-84705897D01*
X150891960Y-84722350D01*
X150891952Y-84722351D01*
X150883901Y-84723412D01*
X150876396Y-84726520D01*
X150876391Y-84726522D01*
X150759927Y-84774763D01*
X150759922Y-84774765D01*
X150752418Y-84777874D01*
X150745973Y-84782818D01*
X150745970Y-84782821D01*
X150645953Y-84859567D01*
X150645949Y-84859570D01*
X150639511Y-84864511D01*
X150634570Y-84870949D01*
X150634567Y-84870953D01*
X150557821Y-84970970D01*
X150557818Y-84970973D01*
X150552874Y-84977418D01*
X150549765Y-84984922D01*
X150549763Y-84984927D01*
X150501522Y-85101391D01*
X150501520Y-85101396D01*
X150498412Y-85108901D01*
X150497351Y-85116952D01*
X150497350Y-85116960D01*
X150487714Y-85190157D01*
X150479836Y-85250000D01*
X135765500Y-85250000D01*
X135765500Y-84796978D01*
X135782858Y-84733705D01*
X135830073Y-84688146D01*
X135893925Y-84673057D01*
X135956538Y-84692661D01*
X135969144Y-84700763D01*
X136104477Y-84740500D01*
X136236653Y-84740500D01*
X136245523Y-84740500D01*
X136380856Y-84700763D01*
X136499512Y-84624507D01*
X136591878Y-84517911D01*
X136650471Y-84389611D01*
X136670544Y-84250000D01*
X136650471Y-84110389D01*
X136591878Y-83982089D01*
X136499512Y-83875493D01*
X136492054Y-83870700D01*
X136388316Y-83804031D01*
X136388314Y-83804030D01*
X136380856Y-83799237D01*
X136372350Y-83796739D01*
X136372345Y-83796737D01*
X136300621Y-83775678D01*
X136246322Y-83742803D01*
X136215406Y-83687366D01*
X136215974Y-83623893D01*
X136247873Y-83569021D01*
X136265080Y-83551814D01*
X136305306Y-83524938D01*
X136352757Y-83515500D01*
X155697243Y-83515500D01*
X155744696Y-83524939D01*
G37*
%TD.AperFunction*%
%TD*%
M02*
