M48
; DRILL file {KiCad (7.0.0)} date Mon May  8 01:10:28 2023
; FORMAT={3:3/ absolute / metric / suppress leading zeros}
; #@! TF.CreationDate,2023-05-08T01:10:28+02:00
; #@! TF.GenerationSoftware,Kicad,Pcbnew,(7.0.0)
; #@! TF.FileFunction,MixedPlating,1,4
FMAT,2
METRIC,TZ
; #@! TA.AperFunction,Plated,PTH,ViaDrill
T1C0.300
; #@! TA.AperFunction,Plated,PTH,ComponentDrill
T2C0.600
; #@! TA.AperFunction,Plated,PTH,ComponentDrill
T3C0.650
; #@! TA.AperFunction,Plated,PTH,ComponentDrill
T4C0.762
; #@! TA.AperFunction,Plated,PTH,ComponentDrill
T5C1.000
; #@! TA.AperFunction,Plated,PTH,ComponentDrill
T6C1.300
; #@! TA.AperFunction,NonPlated,NPTH,ComponentDrill
T7C0.650
%
G90
G05
T1
X120875Y-88450
X120875Y-89300
X127375Y-85800
X129325Y-88775
X130300Y-84150
X131250Y-94700
X131750Y-95200
X132136Y-87325
X132463Y-98982
X132550Y-86750
X133120Y-99420
X133150Y-84250
X133250Y-86300
X134212Y-85075
X134700Y-85950
X135150Y-95300
X135400Y-86000
X135825Y-90000
X136049Y-94680
X136175Y-84250
X136750Y-83750
X137026Y-92232
X138625Y-90825
X139350Y-92050
X141200Y-84625
X141950Y-91300
X141950Y-91950
X142000Y-92950
X142000Y-93950
X142350Y-87725
X142700Y-91275
X142700Y-91950
X142800Y-92950
X142850Y-93950
X143050Y-86900
X143150Y-88900
X143400Y-84625
X145225Y-84625
X151025Y-85250
X152075Y-87925
X159575Y-83200
X159575Y-84025
X160900Y-85175
X162450Y-83200
X162450Y-83950
X172900Y-85450
X172900Y-87725
X174700Y-95150
X174750Y-93250
X180300Y-83000
X181010Y-83790
X181250Y-95500
X182500Y-93500
X182513Y-96700
X183100Y-83750
X183547Y-96897
X183749Y-93475
X185050Y-83750
X186525Y-84225
X186800Y-93450
X187350Y-96500
X187525Y-97500
X190750Y-86700
X190750Y-95700
X190850Y-88950
X190900Y-84450
X190900Y-90450
X190900Y-97250
X190950Y-93450
X191575Y-85425
X195000Y-96500
X195000Y-97500
X195100Y-86100
X195100Y-87100
X195100Y-88000
X195100Y-88800
X195750Y-96500
X195750Y-97500
X199550Y-86700
X199550Y-88200
X200650Y-91300
X203450Y-89200
X203475Y-94075
X204350Y-95975
X204350Y-96800
X204900Y-89100
X204950Y-90300
X205050Y-95975
X205050Y-96800
X205100Y-84450
X206800Y-86900
X208200Y-84200
X208800Y-88900
X209000Y-84200
X209000Y-85100
X209000Y-85900
X209000Y-86600
X210475Y-97375
X210500Y-88975
X211075Y-92650
X213000Y-86100
X213000Y-86900
X213700Y-86100
X213700Y-86900
X214235Y-98947
X214289Y-98250
X214688Y-93600
X216850Y-94200
X216850Y-95050
X216900Y-87000
X216900Y-87800
X216900Y-88600
X216900Y-93400
X217250Y-90651
X217250Y-91849
X219750Y-89750
X219750Y-92750
T3
X122530Y-84050
X123120Y-97450
X123800Y-84050
X124390Y-97450
X125660Y-97450
X126930Y-97450
X128200Y-97450
T4
X158750Y-89500
X158750Y-92500
T5
X178500Y-87095
X178500Y-89635
X178500Y-92175
X178500Y-94715
T7
X219470Y-88110
X219470Y-93890
T2
G00X219520Y-86680
M15
G01X218420Y-86680
M16
G05
G00X219520Y-95320
M15
G01X218420Y-95320
M16
G05
G00X223450Y-86680
M15
G01X222850Y-86680
M16
G05
G00X223450Y-95320
M15
G01X222850Y-95320
M16
G05
T6
G00X99000Y-91350
M15
G01X99000Y-90850
M16
G05
G00X104000Y-91250
M15
G01X104000Y-90750
M16
G05
G00X161000Y-91350
M15
G01X161000Y-90850
M16
G05
G00X166000Y-91250
M15
G01X166000Y-90750
M16
G05
G00X170000Y-91350
M15
G01X170000Y-90850
M16
G05
G00X175000Y-91250
M15
G01X175000Y-90750
M16
G05
T0
M30
