%TF.GenerationSoftware,KiCad,Pcbnew,(7.0.0)*%
%TF.CreationDate,2023-05-08T01:10:33+02:00*%
%TF.ProjectId,Stacja Lutownicza V0.1,53746163-6a61-4204-9c75-746f776e6963,rev?*%
%TF.SameCoordinates,Original*%
%TF.FileFunction,Paste,Top*%
%TF.FilePolarity,Positive*%
%FSLAX46Y46*%
G04 Gerber Fmt 4.6, Leading zero omitted, Abs format (unit mm)*
G04 Created by KiCad (PCBNEW (7.0.0)) date 2023-05-08 01:10:33*
%MOMM*%
%LPD*%
G01*
G04 APERTURE LIST*
G04 Aperture macros list*
%AMRoundRect*
0 Rectangle with rounded corners*
0 $1 Rounding radius*
0 $2 $3 $4 $5 $6 $7 $8 $9 X,Y pos of 4 corners*
0 Add a 4 corners polygon primitive as box body*
4,1,4,$2,$3,$4,$5,$6,$7,$8,$9,$2,$3,0*
0 Add four circle primitives for the rounded corners*
1,1,$1+$1,$2,$3*
1,1,$1+$1,$4,$5*
1,1,$1+$1,$6,$7*
1,1,$1+$1,$8,$9*
0 Add four rect primitives between the rounded corners*
20,1,$1+$1,$2,$3,$4,$5,0*
20,1,$1+$1,$4,$5,$6,$7,0*
20,1,$1+$1,$6,$7,$8,$9,0*
20,1,$1+$1,$8,$9,$2,$3,0*%
G04 Aperture macros list end*
%ADD10RoundRect,0.225000X0.225000X0.250000X-0.225000X0.250000X-0.225000X-0.250000X0.225000X-0.250000X0*%
%ADD11R,1.000000X1.250000*%
%ADD12RoundRect,0.225000X0.250000X-0.225000X0.250000X0.225000X-0.250000X0.225000X-0.250000X-0.225000X0*%
%ADD13RoundRect,0.250000X-0.475000X0.250000X-0.475000X-0.250000X0.475000X-0.250000X0.475000X0.250000X0*%
%ADD14RoundRect,0.200000X0.275000X-0.200000X0.275000X0.200000X-0.275000X0.200000X-0.275000X-0.200000X0*%
%ADD15RoundRect,0.225000X-0.250000X0.225000X-0.250000X-0.225000X0.250000X-0.225000X0.250000X0.225000X0*%
%ADD16RoundRect,0.150000X-0.150000X0.587500X-0.150000X-0.587500X0.150000X-0.587500X0.150000X0.587500X0*%
%ADD17RoundRect,0.250000X0.475000X-0.250000X0.475000X0.250000X-0.475000X0.250000X-0.475000X-0.250000X0*%
%ADD18RoundRect,0.200000X-0.275000X0.200000X-0.275000X-0.200000X0.275000X-0.200000X0.275000X0.200000X0*%
%ADD19RoundRect,0.250001X-0.624999X0.462499X-0.624999X-0.462499X0.624999X-0.462499X0.624999X0.462499X0*%
%ADD20RoundRect,0.218750X-0.218750X-0.381250X0.218750X-0.381250X0.218750X0.381250X-0.218750X0.381250X0*%
%ADD21RoundRect,0.200000X0.200000X0.275000X-0.200000X0.275000X-0.200000X-0.275000X0.200000X-0.275000X0*%
G04 APERTURE END LIST*
D10*
%TO.C,C8*%
X150775000Y-95050000D03*
X149225000Y-95050000D03*
%TD*%
D11*
%TO.C,SW3*%
X140399999Y-87124999D03*
X140399999Y-94874999D03*
%TD*%
D12*
%TO.C,C7*%
X151900000Y-86900000D03*
X151900000Y-85350000D03*
%TD*%
D10*
%TO.C,C9*%
X158025000Y-95050000D03*
X156475000Y-95050000D03*
%TD*%
%TO.C,C29*%
X161275000Y-95050000D03*
X159725000Y-95050000D03*
%TD*%
D13*
%TO.C,C18*%
X176100000Y-93250000D03*
X176100000Y-95150000D03*
%TD*%
D14*
%TO.C,R24*%
X181250000Y-93000000D03*
X181250000Y-94650000D03*
%TD*%
D11*
%TO.C,SW1*%
X147649999Y-94874999D03*
X147649999Y-87124999D03*
%TD*%
D15*
%TO.C,C24*%
X210000000Y-84625000D03*
X210000000Y-86175000D03*
%TD*%
D11*
%TO.C,SW2*%
X154899999Y-87124999D03*
X154899999Y-94874999D03*
%TD*%
D10*
%TO.C,C10*%
X143550000Y-95075000D03*
X142000000Y-95075000D03*
%TD*%
D16*
%TO.C,Q6*%
X209000000Y-97037500D03*
X208050000Y-95162500D03*
X209950000Y-95162500D03*
%TD*%
D14*
%TO.C,R18*%
X211550000Y-88000000D03*
X211550000Y-89650000D03*
%TD*%
D17*
%TO.C,C1*%
X206300000Y-95400000D03*
X206300000Y-97300000D03*
%TD*%
D12*
%TO.C,C22*%
X204250000Y-92525000D03*
X204250000Y-94075000D03*
%TD*%
D18*
%TO.C,R23*%
X208050000Y-89650000D03*
X208050000Y-88000000D03*
%TD*%
D16*
%TO.C,Q7*%
X209000000Y-93200000D03*
X208050000Y-91325000D03*
X209950000Y-91325000D03*
%TD*%
D18*
%TO.C,R3*%
X206550000Y-93250000D03*
X206550000Y-91600000D03*
%TD*%
D19*
%TO.C,F1*%
X215200000Y-89587500D03*
X215200000Y-86612500D03*
%TD*%
D13*
%TO.C,C23*%
X211800000Y-86550000D03*
X211800000Y-84650000D03*
%TD*%
D20*
%TO.C,FB1*%
X215612500Y-84750000D03*
X213487500Y-84750000D03*
%TD*%
D21*
%TO.C,R4*%
X204875000Y-88100000D03*
X206525000Y-88100000D03*
%TD*%
D12*
%TO.C,C21*%
X209550000Y-88050000D03*
X209550000Y-89600000D03*
%TD*%
M02*
