%TF.GenerationSoftware,KiCad,Pcbnew,(7.0.0)*%
%TF.CreationDate,2023-05-08T01:10:33+02:00*%
%TF.ProjectId,Stacja Lutownicza V0.1,53746163-6a61-4204-9c75-746f776e6963,rev?*%
%TF.SameCoordinates,Original*%
%TF.FileFunction,Soldermask,Bot*%
%TF.FilePolarity,Negative*%
%FSLAX46Y46*%
G04 Gerber Fmt 4.6, Leading zero omitted, Abs format (unit mm)*
G04 Created by KiCad (PCBNEW (7.0.0)) date 2023-05-08 01:10:33*
%MOMM*%
%LPD*%
G01*
G04 APERTURE LIST*
G04 Aperture macros list*
%AMRoundRect*
0 Rectangle with rounded corners*
0 $1 Rounding radius*
0 $2 $3 $4 $5 $6 $7 $8 $9 X,Y pos of 4 corners*
0 Add a 4 corners polygon primitive as box body*
4,1,4,$2,$3,$4,$5,$6,$7,$8,$9,$2,$3,0*
0 Add four circle primitives for the rounded corners*
1,1,$1+$1,$2,$3*
1,1,$1+$1,$4,$5*
1,1,$1+$1,$6,$7*
1,1,$1+$1,$8,$9*
0 Add four rect primitives between the rounded corners*
20,1,$1+$1,$2,$3,$4,$5,0*
20,1,$1+$1,$4,$5,$6,$7,0*
20,1,$1+$1,$6,$7,$8,$9,0*
20,1,$1+$1,$8,$9,$2,$3,0*%
%AMFreePoly0*
4,1,31,0.099134,0.423694,0.130954,0.410514,0.147175,0.399674,0.158014,0.383454,0.171194,0.351634,0.175000,0.332500,0.175000,-0.332500,0.171194,-0.351634,0.158014,-0.383454,0.147175,-0.399674,0.130954,-0.410514,0.099134,-0.423694,0.080000,-0.427500,-0.080000,-0.427500,-0.099134,-0.423694,-0.130954,-0.410514,-0.147175,-0.399674,-0.158014,-0.383454,-0.171194,-0.351634,-0.175000,-0.332500,
-0.175000,0.198860,-0.171193,0.217994,-0.158014,0.249814,-0.147175,0.266035,-0.013535,0.399675,0.002685,0.410514,0.034505,0.423695,0.053642,0.427150,0.053642,0.427500,0.080000,0.427500,0.099134,0.423694,0.099134,0.423694,$1*%
%AMFreePoly1*
4,1,30,-0.034506,0.423693,-0.002686,0.410514,0.013535,0.399675,0.147175,0.266034,0.158014,0.249812,0.171194,0.217990,0.175000,0.198858,0.175000,-0.332500,0.171194,-0.351634,0.158014,-0.383454,0.147175,-0.399674,0.130954,-0.410514,0.099134,-0.423694,0.080000,-0.427500,-0.080000,-0.427500,-0.099134,-0.423694,-0.130954,-0.410514,-0.147175,-0.399674,-0.158014,-0.383454,-0.171194,-0.351634,
-0.175000,-0.332500,-0.175000,0.332500,-0.171194,0.351634,-0.158014,0.383454,-0.147175,0.399674,-0.130954,0.410514,-0.099134,0.423694,-0.080000,0.427500,-0.053640,0.427500,-0.034506,0.423693,-0.034506,0.423693,$1*%
%AMFreePoly2*
4,1,30,0.351634,0.171194,0.383454,0.158014,0.399674,0.147175,0.410514,0.130954,0.423694,0.099134,0.427500,0.080000,0.427500,-0.080000,0.423694,-0.099134,0.410514,-0.130954,0.399674,-0.147175,0.383454,-0.158014,0.351634,-0.171194,0.332500,-0.175000,-0.198860,-0.175001,-0.217997,-0.171194,-0.249818,-0.158011,-0.266035,-0.147174,-0.399675,-0.013535,-0.410514,0.002686,-0.423693,0.034506,
-0.427500,0.053640,-0.427500,0.080000,-0.423694,0.099134,-0.410514,0.130954,-0.399674,0.147175,-0.383454,0.158014,-0.351634,0.171194,-0.332500,0.175000,0.332500,0.175000,0.351634,0.171194,0.351634,0.171194,$1*%
%AMFreePoly3*
4,1,31,0.351634,0.171194,0.383454,0.158014,0.399674,0.147175,0.410514,0.130954,0.423694,0.099134,0.427500,0.080000,0.427500,-0.080000,0.423694,-0.099134,0.410514,-0.130954,0.399674,-0.147175,0.383454,-0.158014,0.351634,-0.171194,0.332500,-0.175000,-0.332500,-0.175000,-0.351634,-0.171194,-0.383454,-0.158014,-0.399674,-0.147175,-0.410514,-0.130954,-0.423694,-0.099134,-0.427500,-0.080000,
-0.427500,-0.053640,-0.423694,-0.034507,-0.410514,-0.002686,-0.399675,0.013535,-0.266035,0.147175,-0.249815,0.158014,-0.217995,0.171195,-0.198858,0.174650,-0.198858,0.175000,0.332500,0.175000,0.351634,0.171194,0.351634,0.171194,$1*%
%AMFreePoly4*
4,1,30,0.099134,0.423694,0.130954,0.410514,0.147175,0.399674,0.158014,0.383454,0.171194,0.351634,0.175000,0.332500,0.175001,-0.198860,0.171194,-0.217997,0.158011,-0.249818,0.147174,-0.266035,0.013535,-0.399675,-0.002686,-0.410514,-0.034506,-0.423693,-0.053640,-0.427500,-0.080000,-0.427500,-0.099134,-0.423694,-0.130954,-0.410514,-0.147175,-0.399674,-0.158014,-0.383454,-0.171194,-0.351634,
-0.175000,-0.332500,-0.175000,0.332500,-0.171194,0.351634,-0.158014,0.383454,-0.147175,0.399674,-0.130954,0.410514,-0.099134,0.423694,-0.080000,0.427500,0.080000,0.427500,0.099134,0.423694,0.099134,0.423694,$1*%
%AMFreePoly5*
4,1,30,0.099134,0.423694,0.130954,0.410514,0.147175,0.399674,0.158014,0.383454,0.171194,0.351634,0.175000,0.332500,0.175000,-0.332500,0.171194,-0.351634,0.158014,-0.383454,0.147175,-0.399674,0.130954,-0.410514,0.099134,-0.423694,0.080002,-0.427500,0.053642,-0.427500,0.034503,-0.423694,0.002682,-0.410512,-0.013536,-0.399673,-0.147175,-0.266035,-0.158014,-0.249814,-0.171193,-0.217994,
-0.175000,-0.198860,-0.175000,0.332500,-0.171194,0.351634,-0.158014,0.383454,-0.147175,0.399674,-0.130954,0.410514,-0.099134,0.423694,-0.080000,0.427500,0.080000,0.427500,0.099134,0.423694,0.099134,0.423694,$1*%
%AMFreePoly6*
4,1,30,0.217994,0.171193,0.249814,0.158014,0.266035,0.147175,0.399675,0.013534,0.410514,-0.002688,0.423693,-0.034509,0.427500,-0.053642,0.427500,-0.080000,0.423694,-0.099134,0.410514,-0.130954,0.399674,-0.147175,0.383454,-0.158014,0.351634,-0.171194,0.332500,-0.175000,-0.332500,-0.175000,-0.351634,-0.171194,-0.383454,-0.158014,-0.399674,-0.147175,-0.410514,-0.130954,-0.423694,-0.099134,
-0.427500,-0.080000,-0.427500,0.080000,-0.423694,0.099134,-0.410514,0.130954,-0.399674,0.147175,-0.383454,0.158014,-0.351634,0.171194,-0.332500,0.175000,0.198860,0.175000,0.217994,0.171193,0.217994,0.171193,$1*%
%AMFreePoly7*
4,1,30,0.351634,0.171194,0.383454,0.158014,0.399674,0.147175,0.410514,0.130954,0.423694,0.099134,0.427500,0.080002,0.427500,0.053642,0.423694,0.034503,0.410512,0.002682,0.399673,-0.013536,0.266035,-0.147175,0.249814,-0.158014,0.217994,-0.171193,0.198860,-0.175000,-0.332500,-0.175000,-0.351634,-0.171194,-0.383454,-0.158014,-0.399674,-0.147175,-0.410514,-0.130954,-0.423694,-0.099134,
-0.427500,-0.080000,-0.427500,0.080000,-0.423694,0.099134,-0.410514,0.130954,-0.399674,0.147175,-0.383454,0.158014,-0.351634,0.171194,-0.332500,0.175000,0.332500,0.175000,0.351634,0.171194,0.351634,0.171194,$1*%
G04 Aperture macros list end*
%ADD10RoundRect,0.250000X0.200000X0.275000X-0.200000X0.275000X-0.200000X-0.275000X0.200000X-0.275000X0*%
%ADD11RoundRect,0.238000X0.812000X0.812000X-0.812000X0.812000X-0.812000X-0.812000X0.812000X-0.812000X0*%
%ADD12RoundRect,0.125000X0.075000X-0.350000X0.075000X0.350000X-0.075000X0.350000X-0.075000X-0.350000X0*%
%ADD13RoundRect,0.125000X0.350000X0.075000X-0.350000X0.075000X-0.350000X-0.075000X0.350000X-0.075000X0*%
%ADD14RoundRect,0.275000X0.225000X0.250000X-0.225000X0.250000X-0.225000X-0.250000X0.225000X-0.250000X0*%
%ADD15RoundRect,0.250000X0.275000X-0.200000X0.275000X0.200000X-0.275000X0.200000X-0.275000X-0.200000X0*%
%ADD16RoundRect,0.300000X-0.512652X-0.159099X-0.159099X-0.512652X0.512652X0.159099X0.159099X0.512652X0*%
%ADD17RoundRect,0.300000X-0.625000X0.400000X-0.625000X-0.400000X0.625000X-0.400000X0.625000X0.400000X0*%
%ADD18RoundRect,0.250000X-0.200000X-0.275000X0.200000X-0.275000X0.200000X0.275000X-0.200000X0.275000X0*%
%ADD19RoundRect,0.200000X-0.587500X-0.150000X0.587500X-0.150000X0.587500X0.150000X-0.587500X0.150000X0*%
%ADD20RoundRect,0.050000X-0.850000X-0.850000X0.850000X-0.850000X0.850000X0.850000X-0.850000X0.850000X0*%
%ADD21O,1.800000X1.800000*%
%ADD22RoundRect,0.300000X1.000000X0.650000X-1.000000X0.650000X-1.000000X-0.650000X1.000000X-0.650000X0*%
%ADD23RoundRect,0.200000X0.150000X-0.587500X0.150000X0.587500X-0.150000X0.587500X-0.150000X-0.587500X0*%
%ADD24RoundRect,0.050000X-0.400000X0.950000X-0.400000X-0.950000X0.400000X-0.950000X0.400000X0.950000X0*%
%ADD25RoundRect,0.250000X-0.275000X0.200000X-0.275000X-0.200000X0.275000X-0.200000X0.275000X0.200000X0*%
%ADD26RoundRect,0.275000X0.250000X-0.225000X0.250000X0.225000X-0.250000X0.225000X-0.250000X-0.225000X0*%
%ADD27RoundRect,0.050000X-0.500000X0.500000X-0.500000X-0.500000X0.500000X-0.500000X0.500000X0.500000X0*%
%ADD28O,1.100000X1.100000*%
%ADD29RoundRect,0.268750X0.218750X0.256250X-0.218750X0.256250X-0.218750X-0.256250X0.218750X-0.256250X0*%
%ADD30RoundRect,0.300000X0.475000X-0.250000X0.475000X0.250000X-0.475000X0.250000X-0.475000X-0.250000X0*%
%ADD31RoundRect,0.275000X0.225000X0.375000X-0.225000X0.375000X-0.225000X-0.375000X0.225000X-0.375000X0*%
%ADD32RoundRect,0.300000X0.159099X-0.512652X0.512652X-0.159099X-0.159099X0.512652X-0.512652X0.159099X0*%
%ADD33RoundRect,0.050000X1.075000X-2.750000X1.075000X2.750000X-1.075000X2.750000X-1.075000X-2.750000X0*%
%ADD34RoundRect,0.300000X0.250000X0.475000X-0.250000X0.475000X-0.250000X-0.475000X0.250000X-0.475000X0*%
%ADD35C,1.624000*%
%ADD36RoundRect,0.275000X-0.335876X-0.017678X-0.017678X-0.335876X0.335876X0.017678X0.017678X0.335876X0*%
%ADD37RoundRect,0.200000X-0.512500X-0.150000X0.512500X-0.150000X0.512500X0.150000X-0.512500X0.150000X0*%
%ADD38RoundRect,0.275000X-0.375000X0.225000X-0.375000X-0.225000X0.375000X-0.225000X0.375000X0.225000X0*%
%ADD39C,0.750000*%
%ADD40RoundRect,0.050000X-0.575000X0.150000X-0.575000X-0.150000X0.575000X-0.150000X0.575000X0.150000X0*%
%ADD41O,2.200000X1.100000*%
%ADD42O,1.700000X1.100000*%
%ADD43RoundRect,0.275000X0.017678X-0.335876X0.335876X-0.017678X-0.017678X0.335876X-0.335876X0.017678X0*%
%ADD44RoundRect,0.275000X-0.225000X-0.250000X0.225000X-0.250000X0.225000X0.250000X-0.225000X0.250000X0*%
%ADD45RoundRect,0.200000X-0.150000X0.512500X-0.150000X-0.512500X0.150000X-0.512500X0.150000X0.512500X0*%
%ADD46O,2.100000X2.600000*%
%ADD47FreePoly0,225.000000*%
%ADD48RoundRect,0.112500X-0.220971X0.309359X-0.309359X0.220971X0.220971X-0.309359X0.309359X-0.220971X0*%
%ADD49FreePoly1,225.000000*%
%ADD50FreePoly2,225.000000*%
%ADD51RoundRect,0.112500X0.220971X0.309359X-0.309359X-0.220971X-0.220971X-0.309359X0.309359X0.220971X0*%
%ADD52FreePoly3,225.000000*%
%ADD53FreePoly4,225.000000*%
%ADD54FreePoly5,225.000000*%
%ADD55FreePoly6,225.000000*%
%ADD56FreePoly7,225.000000*%
%ADD57RoundRect,0.050000X0.500000X-0.500000X0.500000X0.500000X-0.500000X0.500000X-0.500000X-0.500000X0*%
%ADD58RoundRect,0.300000X-1.000000X-0.650000X1.000000X-0.650000X1.000000X0.650000X-1.000000X0.650000X0*%
%ADD59RoundRect,0.300000X-0.850000X-0.350000X0.850000X-0.350000X0.850000X0.350000X-0.850000X0.350000X0*%
%ADD60RoundRect,0.299997X-2.950003X-2.650003X2.950003X-2.650003X2.950003X2.650003X-2.950003X2.650003X0*%
%ADD61RoundRect,0.200000X0.725000X0.150000X-0.725000X0.150000X-0.725000X-0.150000X0.725000X-0.150000X0*%
G04 APERTURE END LIST*
D10*
%TO.C,R28*%
X188450000Y-87450000D03*
X190100000Y-87450000D03*
%TD*%
D11*
%TO.C,U5*%
X184650000Y-90600000D03*
D12*
X185900000Y-88650000D03*
X185400000Y-88650000D03*
X184900000Y-88650000D03*
X184400000Y-88650000D03*
X183900000Y-88650000D03*
X183400000Y-88650000D03*
D13*
X182700000Y-89350000D03*
X182700000Y-89850000D03*
X182700000Y-90350000D03*
X182700000Y-90850000D03*
X182700000Y-91350000D03*
X182700000Y-91850000D03*
D12*
X183400000Y-92550000D03*
X183900000Y-92550000D03*
X184400000Y-92550000D03*
X184900000Y-92550000D03*
X185400000Y-92550000D03*
X185900000Y-92550000D03*
D13*
X186600000Y-91850000D03*
X186600000Y-91350000D03*
X186600000Y-90850000D03*
X186600000Y-90350000D03*
X186600000Y-89850000D03*
X186600000Y-89350000D03*
%TD*%
D14*
%TO.C,C15*%
X134525000Y-83250000D03*
X132975000Y-83250000D03*
%TD*%
D15*
%TO.C,R17*%
X147250000Y-87000000D03*
X147250000Y-85350000D03*
%TD*%
D16*
%TO.C,C25*%
X131706498Y-93380241D03*
X133050000Y-94723743D03*
%TD*%
D10*
%TO.C,R15*%
X150800000Y-89700000D03*
X149150000Y-89700000D03*
%TD*%
D17*
%TO.C,R7*%
X160900000Y-83750000D03*
X160900000Y-86850000D03*
%TD*%
D14*
%TO.C,C6*%
X158375000Y-83205000D03*
X156825000Y-83205000D03*
%TD*%
%TO.C,C12*%
X183497382Y-86800000D03*
X185047382Y-86800000D03*
%TD*%
D10*
%TO.C,R32*%
X190100000Y-94950000D03*
X188450000Y-94950000D03*
%TD*%
%TO.C,R6*%
X200500000Y-86700000D03*
X202150000Y-86700000D03*
%TD*%
D18*
%TO.C,R33*%
X190100000Y-93450000D03*
X188450000Y-93450000D03*
%TD*%
D10*
%TO.C,R20*%
X125775000Y-83250000D03*
X127425000Y-83250000D03*
%TD*%
%TO.C,R34*%
X188450000Y-96450000D03*
X190100000Y-96450000D03*
%TD*%
D15*
%TO.C,R25*%
X181250000Y-93000000D03*
X181250000Y-94650000D03*
%TD*%
%TO.C,R39*%
X215675000Y-91500000D03*
X215675000Y-93150000D03*
%TD*%
D19*
%TO.C,U3*%
X141825000Y-90500000D03*
X139950000Y-89550000D03*
X139950000Y-91450000D03*
%TD*%
D20*
%TO.C,OLED1*%
X178500000Y-87095000D03*
D21*
X178499999Y-89634999D03*
X178499999Y-92174999D03*
X178499999Y-94714999D03*
%TD*%
D22*
%TO.C,D3*%
X197550000Y-97400000D03*
X201550000Y-97400000D03*
%TD*%
D23*
%TO.C,Q1*%
X206600000Y-92187500D03*
X205650000Y-94062500D03*
X207550000Y-94062500D03*
%TD*%
D24*
%TO.C,Q4*%
X138800000Y-95150000D03*
X140700000Y-95150000D03*
X139750000Y-98150000D03*
%TD*%
D25*
%TO.C,R8*%
X143350000Y-95325000D03*
X143350000Y-96975000D03*
%TD*%
%TO.C,R10*%
X137150000Y-93975000D03*
X137150000Y-95625000D03*
%TD*%
D10*
%TO.C,R21*%
X198575000Y-88200000D03*
X196925000Y-88200000D03*
%TD*%
D26*
%TO.C,C30*%
X212100000Y-95700000D03*
X212100000Y-97250000D03*
%TD*%
D27*
%TO.C,BZ1*%
X122530000Y-84050000D03*
D28*
X123799999Y-84049999D03*
%TD*%
D29*
%TO.C,D9*%
X131000000Y-84850000D03*
X129425000Y-84850000D03*
%TD*%
D23*
%TO.C,Q5*%
X122755000Y-86906548D03*
X121805000Y-88781548D03*
X123705000Y-88781548D03*
%TD*%
D10*
%TO.C,R36*%
X188425000Y-91950000D03*
X190075000Y-91950000D03*
%TD*%
D26*
%TO.C,C20*%
X186550000Y-86750000D03*
X186550000Y-85200000D03*
%TD*%
D30*
%TO.C,C3*%
X203850000Y-90300000D03*
X203850000Y-92200000D03*
%TD*%
D31*
%TO.C,D5*%
X147525000Y-88900000D03*
X144225000Y-88900000D03*
%TD*%
D18*
%TO.C,R1*%
X207625000Y-95812500D03*
X205975000Y-95812500D03*
%TD*%
D15*
%TO.C,R40*%
X213712500Y-91525000D03*
X213712500Y-93175000D03*
%TD*%
D10*
%TO.C,R13*%
X158400000Y-88000000D03*
X156750000Y-88000000D03*
%TD*%
D18*
%TO.C,R11*%
X156750000Y-86400000D03*
X158400000Y-86400000D03*
%TD*%
D29*
%TO.C,D7*%
X198537500Y-86700000D03*
X196962500Y-86700000D03*
%TD*%
D15*
%TO.C,R19*%
X212100000Y-92675000D03*
X212100000Y-94325000D03*
%TD*%
D30*
%TO.C,C16*%
X144000000Y-93400000D03*
X144000000Y-91500000D03*
%TD*%
D10*
%TO.C,R16*%
X145725000Y-86900000D03*
X144075000Y-86900000D03*
%TD*%
D32*
%TO.C,C27*%
X136778249Y-85371751D03*
X138121751Y-84028249D03*
%TD*%
D15*
%TO.C,R37*%
X183547382Y-94400000D03*
X183547382Y-96050000D03*
%TD*%
D33*
%TO.C,L1*%
X193300000Y-92300000D03*
X197150000Y-92300000D03*
%TD*%
D10*
%TO.C,R12*%
X158475000Y-84800000D03*
X156825000Y-84800000D03*
%TD*%
D30*
%TO.C,C5*%
X193950000Y-86600000D03*
X193950000Y-88500000D03*
%TD*%
D18*
%TO.C,R35*%
X190075000Y-97950000D03*
X188425000Y-97950000D03*
%TD*%
D34*
%TO.C,C11*%
X183100000Y-85000000D03*
X185000000Y-85000000D03*
%TD*%
D10*
%TO.C,R14*%
X127000000Y-88775000D03*
X125350000Y-88775000D03*
%TD*%
D23*
%TO.C,D1*%
X206600000Y-84462500D03*
X205650000Y-86337500D03*
X207550000Y-86337500D03*
%TD*%
D18*
%TO.C,R31*%
X190100000Y-84450000D03*
X188450000Y-84450000D03*
%TD*%
D35*
%TO.C,SW4*%
X158750000Y-89500000D03*
X158750000Y-92500000D03*
%TD*%
D29*
%TO.C,D8*%
X184984882Y-97500000D03*
X186559882Y-97500000D03*
%TD*%
D25*
%TO.C,R9*%
X137150000Y-97050000D03*
X137150000Y-98700000D03*
%TD*%
D10*
%TO.C,R22*%
X188425000Y-90450000D03*
X190075000Y-90450000D03*
%TD*%
D25*
%TO.C,R2*%
X209050000Y-97375000D03*
X209050000Y-95725000D03*
%TD*%
D26*
%TO.C,C17*%
X145850000Y-93425000D03*
X145850000Y-91875000D03*
%TD*%
D36*
%TO.C,C14*%
X132980241Y-92053984D03*
X134076257Y-93150000D03*
%TD*%
D37*
%TO.C,U1*%
X201887500Y-92250000D03*
X201887500Y-91300000D03*
X201887500Y-90350000D03*
X199612500Y-90350000D03*
X199612500Y-91300000D03*
X199612500Y-92250000D03*
%TD*%
D38*
%TO.C,D4*%
X145400000Y-95350000D03*
X145400000Y-98650000D03*
%TD*%
D15*
%TO.C,R27*%
X186547382Y-94425000D03*
X186547382Y-96075000D03*
%TD*%
D10*
%TO.C,R30*%
X188450000Y-85950000D03*
X190100000Y-85950000D03*
%TD*%
D39*
%TO.C,J3*%
X219470000Y-88110000D03*
X219470000Y-93890000D03*
D40*
X218405000Y-87650000D03*
X218405000Y-88450000D03*
X218405000Y-89750000D03*
X218405000Y-90750000D03*
X218405000Y-91250000D03*
X218405000Y-92250000D03*
X218405000Y-93550000D03*
X218405000Y-94350000D03*
X218405000Y-94050000D03*
X218405000Y-93250000D03*
X218405000Y-92750000D03*
X218405000Y-91750000D03*
X218405000Y-90250000D03*
X218405000Y-89250000D03*
X218405000Y-88750000D03*
X218405000Y-87950000D03*
D41*
X218969999Y-86679999D03*
D42*
X223149999Y-86679999D03*
D41*
X218969999Y-95319999D03*
D42*
X223149999Y-95319999D03*
%TD*%
D18*
%TO.C,R5*%
X202130834Y-88200000D03*
X200480834Y-88200000D03*
%TD*%
D43*
%TO.C,C28*%
X138001992Y-86598008D03*
X139098008Y-85501992D03*
%TD*%
D14*
%TO.C,C31*%
X140650000Y-93050000D03*
X139100000Y-93050000D03*
%TD*%
D23*
%TO.C,Q2*%
X206600000Y-88312500D03*
X205650000Y-90187500D03*
X207550000Y-90187500D03*
%TD*%
D44*
%TO.C,C2*%
X207575000Y-97312500D03*
X206025000Y-97312500D03*
%TD*%
D14*
%TO.C,C4*%
X199475000Y-93800000D03*
X201025000Y-93800000D03*
%TD*%
D18*
%TO.C,R29*%
X190075000Y-88950000D03*
X188425000Y-88950000D03*
%TD*%
D10*
%TO.C,R38*%
X131025000Y-83300000D03*
X129375000Y-83300000D03*
%TD*%
D25*
%TO.C,R26*%
X185047382Y-96075000D03*
X185047382Y-94425000D03*
%TD*%
D29*
%TO.C,D6*%
X125812500Y-84800000D03*
X127387500Y-84800000D03*
%TD*%
D45*
%TO.C,U6*%
X213737500Y-97037500D03*
X214687500Y-97037500D03*
X215637500Y-97037500D03*
X215637500Y-94762500D03*
X214687500Y-94762500D03*
X213737500Y-94762500D03*
%TD*%
D46*
%TO.C,E1*%
X103999999Y-90999999D03*
X98999999Y-91099999D03*
%TD*%
D47*
%TO.C,U4*%
X134875108Y-86926894D03*
D48*
X134563981Y-87322874D03*
X134210428Y-87676427D03*
X133856875Y-88029981D03*
X133503321Y-88383534D03*
X133149768Y-88737087D03*
D49*
X132753788Y-89048214D03*
D50*
X132753788Y-89751786D03*
D51*
X133149768Y-90062913D03*
X133503321Y-90416466D03*
X133856875Y-90770019D03*
X134210428Y-91123573D03*
X134563981Y-91477126D03*
D52*
X134875108Y-91873106D03*
D53*
X135578680Y-91873106D03*
D48*
X135889807Y-91477126D03*
X136243360Y-91123573D03*
X136596913Y-90770019D03*
X136950467Y-90416466D03*
X137304020Y-90062913D03*
D54*
X137700000Y-89751786D03*
D55*
X137700000Y-89048214D03*
D51*
X137304020Y-88737087D03*
X136950467Y-88383534D03*
X136596913Y-88029981D03*
X136243360Y-87676427D03*
X135889807Y-87322874D03*
D56*
X135578680Y-86926894D03*
%TD*%
D57*
%TO.C,J1*%
X128200000Y-97450000D03*
D28*
X126929999Y-97449999D03*
X125659999Y-97449999D03*
X124389999Y-97449999D03*
X123119999Y-97449999D03*
%TD*%
D46*
%TO.C,-P1*%
X160999999Y-91099999D03*
X165999999Y-90999999D03*
%TD*%
D58*
%TO.C,D2*%
X172550000Y-97200000D03*
X176550000Y-97200000D03*
%TD*%
D59*
%TO.C,Q3*%
X148225000Y-98155000D03*
D60*
X154525000Y-95875000D03*
D59*
X148225000Y-93595000D03*
%TD*%
D61*
%TO.C,U2*%
X154650000Y-84195000D03*
X154650000Y-85465000D03*
X154650000Y-86735000D03*
X154650000Y-88005000D03*
X149500000Y-88005000D03*
X149500000Y-86735000D03*
X149500000Y-85465000D03*
X149500000Y-84195000D03*
%TD*%
D46*
%TO.C,+P1*%
X174999999Y-90999999D03*
X169999999Y-91099999D03*
%TD*%
G36*
X157468812Y-98823905D02*
G01*
X157468969Y-98825803D01*
X157467467Y-98826972D01*
X157467461Y-98826973D01*
X157467132Y-98827000D01*
X151582868Y-98827000D01*
X151581454Y-98826414D01*
X151581453Y-98826413D01*
X151580867Y-98824999D01*
X151581453Y-98823585D01*
X151582867Y-98822999D01*
X157467138Y-98822999D01*
X157468812Y-98823905D01*
G37*
G36*
X127651156Y-97263518D02*
G01*
X127652000Y-97265150D01*
X127652000Y-97634848D01*
X127651156Y-97636480D01*
X127649336Y-97636735D01*
X127648077Y-97635397D01*
X127633180Y-97583181D01*
X127593396Y-97547070D01*
X127540549Y-97537385D01*
X127490548Y-97557044D01*
X127462254Y-97595014D01*
X127460581Y-97595818D01*
X127458968Y-97594901D01*
X127458802Y-97593053D01*
X127459310Y-97591826D01*
X127477982Y-97450000D01*
X127459310Y-97308173D01*
X127458801Y-97306944D01*
X127458967Y-97305096D01*
X127460580Y-97304179D01*
X127462253Y-97304983D01*
X127490548Y-97342954D01*
X127540549Y-97362612D01*
X127593397Y-97352927D01*
X127633180Y-97316816D01*
X127648077Y-97264601D01*
X127649336Y-97263263D01*
X127651156Y-97263518D01*
G37*
G36*
X126398966Y-97314597D02*
G01*
X126399613Y-97316346D01*
X126382017Y-97449999D01*
X126399613Y-97583652D01*
X126398966Y-97585401D01*
X126397158Y-97585856D01*
X126395760Y-97584622D01*
X126394825Y-97582156D01*
X126394710Y-97581688D01*
X126392320Y-97562007D01*
X126369835Y-97510387D01*
X126322997Y-97479702D01*
X126267003Y-97479702D01*
X126220164Y-97510387D01*
X126197679Y-97562007D01*
X126195289Y-97581688D01*
X126195174Y-97582156D01*
X126194240Y-97584618D01*
X126192842Y-97585853D01*
X126191034Y-97585397D01*
X126190387Y-97583648D01*
X126207982Y-97449999D01*
X126190387Y-97316350D01*
X126191034Y-97314601D01*
X126192842Y-97314146D01*
X126194240Y-97315380D01*
X126195174Y-97317843D01*
X126195289Y-97318311D01*
X126197679Y-97337992D01*
X126220164Y-97389611D01*
X126267003Y-97420297D01*
X126322997Y-97420297D01*
X126369835Y-97389611D01*
X126392320Y-97337992D01*
X126394710Y-97318311D01*
X126394825Y-97317843D01*
X126395760Y-97315376D01*
X126397158Y-97314142D01*
X126398966Y-97314597D01*
G37*
G36*
X125128966Y-97314597D02*
G01*
X125129613Y-97316346D01*
X125112017Y-97449999D01*
X125129613Y-97583652D01*
X125128966Y-97585401D01*
X125127158Y-97585856D01*
X125125760Y-97584622D01*
X125124825Y-97582156D01*
X125124710Y-97581688D01*
X125122320Y-97562007D01*
X125099835Y-97510387D01*
X125052997Y-97479702D01*
X124997003Y-97479702D01*
X124950164Y-97510387D01*
X124927679Y-97562007D01*
X124925289Y-97581688D01*
X124925174Y-97582156D01*
X124924240Y-97584618D01*
X124922842Y-97585853D01*
X124921034Y-97585397D01*
X124920387Y-97583648D01*
X124937982Y-97449999D01*
X124920387Y-97316350D01*
X124921034Y-97314601D01*
X124922842Y-97314146D01*
X124924240Y-97315380D01*
X124925174Y-97317843D01*
X124925289Y-97318311D01*
X124927679Y-97337992D01*
X124950164Y-97389611D01*
X124997003Y-97420297D01*
X125052997Y-97420297D01*
X125099835Y-97389611D01*
X125122320Y-97337992D01*
X125124710Y-97318311D01*
X125124825Y-97317843D01*
X125125760Y-97315376D01*
X125127158Y-97314142D01*
X125128966Y-97314597D01*
G37*
G36*
X123858966Y-97314597D02*
G01*
X123859613Y-97316346D01*
X123842017Y-97449999D01*
X123859613Y-97583652D01*
X123858966Y-97585401D01*
X123857158Y-97585856D01*
X123855760Y-97584622D01*
X123854825Y-97582156D01*
X123854710Y-97581688D01*
X123852320Y-97562007D01*
X123829835Y-97510387D01*
X123782997Y-97479702D01*
X123727003Y-97479702D01*
X123680164Y-97510387D01*
X123657679Y-97562007D01*
X123655289Y-97581688D01*
X123655174Y-97582156D01*
X123654240Y-97584618D01*
X123652842Y-97585853D01*
X123651034Y-97585397D01*
X123650387Y-97583648D01*
X123667982Y-97449999D01*
X123650387Y-97316350D01*
X123651034Y-97314601D01*
X123652842Y-97314146D01*
X123654240Y-97315380D01*
X123655174Y-97317843D01*
X123655289Y-97318311D01*
X123657679Y-97337992D01*
X123680164Y-97389611D01*
X123727003Y-97420297D01*
X123782997Y-97420297D01*
X123829835Y-97389611D01*
X123852320Y-97337992D01*
X123854710Y-97318311D01*
X123854825Y-97317843D01*
X123855760Y-97315376D01*
X123857158Y-97314142D01*
X123858966Y-97314597D01*
G37*
G36*
X157776979Y-93232578D02*
G01*
X157776980Y-93232585D01*
X157777000Y-93232868D01*
X157777000Y-95882243D01*
X157776000Y-95883975D01*
X157774000Y-95883975D01*
X157773000Y-95882243D01*
X157772999Y-93232861D01*
X157773918Y-93231178D01*
X157775831Y-93231042D01*
X157776979Y-93232578D01*
G37*
G36*
X219031909Y-93563827D02*
G01*
X219049578Y-93620258D01*
X219095783Y-93656152D01*
X219154207Y-93659284D01*
X219204258Y-93628368D01*
X219223588Y-93606061D01*
X219224019Y-93605689D01*
X219234454Y-93598982D01*
X219236322Y-93598825D01*
X219237499Y-93600285D01*
X219236949Y-93602078D01*
X219168257Y-93670770D01*
X219115279Y-93774745D01*
X219097024Y-93889999D01*
X219115279Y-94005254D01*
X219168257Y-94109229D01*
X219236947Y-94177919D01*
X219237497Y-94179711D01*
X219236320Y-94181172D01*
X219234452Y-94181016D01*
X219224020Y-94174312D01*
X219223589Y-94173939D01*
X219204259Y-94151631D01*
X219154208Y-94120714D01*
X219095784Y-94123846D01*
X219049579Y-94159740D01*
X219031909Y-94216172D01*
X219030632Y-94217472D01*
X219028830Y-94217196D01*
X219028000Y-94215574D01*
X219028000Y-93900199D01*
X219024309Y-93881645D01*
X219013913Y-93866086D01*
X218998354Y-93855690D01*
X218979801Y-93852000D01*
X217830199Y-93852000D01*
X217811645Y-93855690D01*
X217799928Y-93863519D01*
X217798174Y-93863750D01*
X217796923Y-93862499D01*
X217797154Y-93860745D01*
X217801199Y-93854692D01*
X217817790Y-93799999D01*
X217801199Y-93745307D01*
X217797154Y-93739254D01*
X217796923Y-93737500D01*
X217798174Y-93736249D01*
X217799928Y-93736480D01*
X217811645Y-93744309D01*
X217830199Y-93748000D01*
X218979801Y-93748000D01*
X218998354Y-93744309D01*
X219013913Y-93733913D01*
X219024309Y-93718354D01*
X219028000Y-93699801D01*
X219028000Y-93564425D01*
X219028830Y-93562803D01*
X219030632Y-93562527D01*
X219031909Y-93563827D01*
G37*
G36*
X217799931Y-92936481D02*
G01*
X217811645Y-92944309D01*
X217830199Y-92948000D01*
X218979801Y-92948000D01*
X218998354Y-92944309D01*
X219010068Y-92936482D01*
X219011822Y-92936251D01*
X219013073Y-92937502D01*
X219012842Y-92939256D01*
X219008800Y-92945305D01*
X218992208Y-93000000D01*
X219008800Y-93054694D01*
X219012842Y-93060743D01*
X219013073Y-93062497D01*
X219011822Y-93063748D01*
X219010068Y-93063517D01*
X218998354Y-93055690D01*
X218979801Y-93052000D01*
X217830199Y-93052000D01*
X217811645Y-93055690D01*
X217799928Y-93063520D01*
X217798174Y-93063751D01*
X217796923Y-93062500D01*
X217797154Y-93060746D01*
X217801200Y-93054690D01*
X217817790Y-92999998D01*
X217801199Y-92945305D01*
X217797157Y-92939255D01*
X217796926Y-92937501D01*
X217798177Y-92936250D01*
X217799931Y-92936481D01*
G37*
G36*
X185729147Y-92124831D02*
G01*
X185728950Y-92126677D01*
X185711399Y-92152944D01*
X185702000Y-92200199D01*
X185702000Y-92899801D01*
X185711399Y-92947055D01*
X185728949Y-92973320D01*
X185729146Y-92975166D01*
X185727740Y-92976379D01*
X185725943Y-92975913D01*
X185696167Y-92948926D01*
X185649999Y-92937361D01*
X185603832Y-92948926D01*
X185574056Y-92975913D01*
X185572259Y-92976379D01*
X185570853Y-92975166D01*
X185571050Y-92973320D01*
X185588600Y-92947055D01*
X185598000Y-92899801D01*
X185598000Y-92200199D01*
X185588600Y-92152944D01*
X185571049Y-92126677D01*
X185570852Y-92124831D01*
X185572258Y-92123618D01*
X185574055Y-92124084D01*
X185603833Y-92151073D01*
X185650000Y-92162637D01*
X185696166Y-92151073D01*
X185725944Y-92124084D01*
X185727741Y-92123618D01*
X185729147Y-92124831D01*
G37*
G36*
X185229147Y-92124831D02*
G01*
X185228950Y-92126677D01*
X185211399Y-92152944D01*
X185202000Y-92200199D01*
X185202000Y-92899801D01*
X185211399Y-92947055D01*
X185228949Y-92973320D01*
X185229146Y-92975166D01*
X185227740Y-92976379D01*
X185225943Y-92975913D01*
X185196167Y-92948926D01*
X185149999Y-92937361D01*
X185103832Y-92948926D01*
X185074056Y-92975913D01*
X185072259Y-92976379D01*
X185070853Y-92975166D01*
X185071050Y-92973320D01*
X185088600Y-92947055D01*
X185098000Y-92899801D01*
X185098000Y-92200199D01*
X185088600Y-92152944D01*
X185071049Y-92126677D01*
X185070852Y-92124831D01*
X185072258Y-92123618D01*
X185074055Y-92124084D01*
X185103833Y-92151073D01*
X185150000Y-92162637D01*
X185196166Y-92151073D01*
X185225944Y-92124084D01*
X185227741Y-92123618D01*
X185229147Y-92124831D01*
G37*
G36*
X184729147Y-92124831D02*
G01*
X184728950Y-92126677D01*
X184711399Y-92152944D01*
X184702000Y-92200199D01*
X184702000Y-92899801D01*
X184711399Y-92947055D01*
X184728949Y-92973320D01*
X184729146Y-92975166D01*
X184727740Y-92976379D01*
X184725943Y-92975913D01*
X184696167Y-92948926D01*
X184649999Y-92937361D01*
X184603832Y-92948926D01*
X184574056Y-92975913D01*
X184572259Y-92976379D01*
X184570853Y-92975166D01*
X184571050Y-92973320D01*
X184588600Y-92947055D01*
X184598000Y-92899801D01*
X184598000Y-92200199D01*
X184588600Y-92152944D01*
X184571049Y-92126677D01*
X184570852Y-92124831D01*
X184572258Y-92123618D01*
X184574055Y-92124084D01*
X184603833Y-92151073D01*
X184650000Y-92162637D01*
X184696166Y-92151073D01*
X184725944Y-92124084D01*
X184727741Y-92123618D01*
X184729147Y-92124831D01*
G37*
G36*
X184229147Y-92124831D02*
G01*
X184228950Y-92126677D01*
X184211399Y-92152944D01*
X184202000Y-92200199D01*
X184202000Y-92899801D01*
X184211399Y-92947055D01*
X184228949Y-92973320D01*
X184229146Y-92975166D01*
X184227740Y-92976379D01*
X184225943Y-92975913D01*
X184196167Y-92948926D01*
X184149999Y-92937361D01*
X184103832Y-92948926D01*
X184074056Y-92975913D01*
X184072259Y-92976379D01*
X184070853Y-92975166D01*
X184071050Y-92973320D01*
X184088600Y-92947055D01*
X184098000Y-92899801D01*
X184098000Y-92200199D01*
X184088600Y-92152944D01*
X184071049Y-92126677D01*
X184070852Y-92124831D01*
X184072258Y-92123618D01*
X184074055Y-92124084D01*
X184103833Y-92151073D01*
X184150000Y-92162637D01*
X184196166Y-92151073D01*
X184225944Y-92124084D01*
X184227741Y-92123618D01*
X184229147Y-92124831D01*
G37*
G36*
X183729147Y-92124831D02*
G01*
X183728950Y-92126677D01*
X183711399Y-92152944D01*
X183702000Y-92200199D01*
X183702000Y-92899801D01*
X183711399Y-92947055D01*
X183728949Y-92973320D01*
X183729146Y-92975166D01*
X183727740Y-92976379D01*
X183725943Y-92975913D01*
X183696167Y-92948926D01*
X183649999Y-92937361D01*
X183603832Y-92948926D01*
X183574056Y-92975913D01*
X183572259Y-92976379D01*
X183570853Y-92975166D01*
X183571050Y-92973320D01*
X183588600Y-92947055D01*
X183598000Y-92899801D01*
X183598000Y-92200199D01*
X183588600Y-92152944D01*
X183571049Y-92126677D01*
X183570852Y-92124831D01*
X183572258Y-92123618D01*
X183574055Y-92124084D01*
X183603833Y-92151073D01*
X183650000Y-92162637D01*
X183696166Y-92151073D01*
X183725944Y-92124084D01*
X183727741Y-92123618D01*
X183729147Y-92124831D01*
G37*
G36*
X217799928Y-92436480D02*
G01*
X217811645Y-92444309D01*
X217830199Y-92448000D01*
X218979801Y-92448000D01*
X218998354Y-92444309D01*
X219010068Y-92436482D01*
X219011822Y-92436251D01*
X219013073Y-92437502D01*
X219012842Y-92439256D01*
X219008800Y-92445305D01*
X218992208Y-92500000D01*
X219008800Y-92554694D01*
X219012842Y-92560743D01*
X219013073Y-92562497D01*
X219011822Y-92563748D01*
X219010068Y-92563517D01*
X218998354Y-92555690D01*
X218979801Y-92552000D01*
X217830199Y-92552000D01*
X217811645Y-92555690D01*
X217799928Y-92563519D01*
X217798174Y-92563750D01*
X217796923Y-92562499D01*
X217797154Y-92560745D01*
X217801199Y-92554692D01*
X217817790Y-92500000D01*
X217801199Y-92445307D01*
X217797154Y-92439254D01*
X217796923Y-92437500D01*
X217798174Y-92436249D01*
X217799928Y-92436480D01*
G37*
G36*
X217799928Y-91936480D02*
G01*
X217811645Y-91944309D01*
X217830199Y-91948000D01*
X218979801Y-91948000D01*
X218998354Y-91944309D01*
X219010065Y-91936483D01*
X219011819Y-91936252D01*
X219013070Y-91937503D01*
X219012839Y-91939257D01*
X219008800Y-91945303D01*
X218992208Y-91999998D01*
X219008799Y-92054692D01*
X219012842Y-92060744D01*
X219013073Y-92062498D01*
X219011822Y-92063749D01*
X219010068Y-92063518D01*
X218998354Y-92055690D01*
X218979801Y-92052000D01*
X217830199Y-92052000D01*
X217811645Y-92055690D01*
X217799928Y-92063519D01*
X217798174Y-92063750D01*
X217796923Y-92062499D01*
X217797154Y-92060745D01*
X217801199Y-92054692D01*
X217817790Y-92000000D01*
X217801199Y-91945307D01*
X217797154Y-91939254D01*
X217796923Y-91937500D01*
X217798174Y-91936249D01*
X217799928Y-91936480D01*
G37*
G36*
X135503972Y-91335951D02*
G01*
X136032501Y-91864480D01*
X136067210Y-91887671D01*
X136068075Y-91889024D01*
X136067666Y-91890577D01*
X136066246Y-91891329D01*
X136017984Y-91894889D01*
X135975276Y-91924970D01*
X135954110Y-91972726D01*
X135959912Y-92019728D01*
X135959629Y-92020908D01*
X135960387Y-92023737D01*
X135960440Y-92024009D01*
X135960577Y-92025117D01*
X135959935Y-92026844D01*
X135958154Y-92027313D01*
X135956744Y-92026127D01*
X135946601Y-92001641D01*
X135935981Y-91985749D01*
X135466036Y-91515804D01*
X135450144Y-91505184D01*
X135418628Y-91492129D01*
X135409335Y-91489639D01*
X135407974Y-91488391D01*
X135408215Y-91486560D01*
X135409853Y-91485707D01*
X135417416Y-91485707D01*
X135468033Y-91471699D01*
X135504050Y-91433869D01*
X135515495Y-91382904D01*
X135500659Y-91337992D01*
X135500877Y-91336281D01*
X135502346Y-91335376D01*
X135503972Y-91335951D01*
G37*
G36*
X134952909Y-91336282D02*
G01*
X134953127Y-91337993D01*
X134938291Y-91382902D01*
X134949734Y-91433866D01*
X134985754Y-91471699D01*
X135036370Y-91485707D01*
X135043935Y-91485707D01*
X135045573Y-91486560D01*
X135045814Y-91488391D01*
X135044453Y-91489639D01*
X135035159Y-91492129D01*
X135003643Y-91505184D01*
X134987751Y-91515804D01*
X134517806Y-91985749D01*
X134507186Y-92001641D01*
X134497047Y-92026118D01*
X134495638Y-92027304D01*
X134493856Y-92026835D01*
X134493214Y-92025109D01*
X134493351Y-92023993D01*
X134493404Y-92023719D01*
X134494158Y-92020904D01*
X134493877Y-92019728D01*
X134499674Y-91972717D01*
X134478506Y-91924965D01*
X134435799Y-91894888D01*
X134387541Y-91891329D01*
X134386121Y-91890577D01*
X134385712Y-91889024D01*
X134386577Y-91887671D01*
X134421286Y-91864480D01*
X134949814Y-91335952D01*
X134951440Y-91335377D01*
X134952909Y-91336282D01*
G37*
G36*
X135308704Y-91541697D02*
G01*
X135308704Y-91543583D01*
X135305291Y-91549967D01*
X135292225Y-91581511D01*
X135288496Y-91600262D01*
X135288496Y-91787867D01*
X135288976Y-91789156D01*
X135288749Y-91793763D01*
X135292205Y-91807564D01*
X135296011Y-91816750D01*
X135305261Y-91839085D01*
X135307985Y-91843322D01*
X135308151Y-91845168D01*
X135306728Y-91846357D01*
X135304940Y-91845867D01*
X135273825Y-91816901D01*
X135226894Y-91804924D01*
X135179962Y-91816901D01*
X135148847Y-91845867D01*
X135147059Y-91846357D01*
X135145636Y-91845168D01*
X135145802Y-91843321D01*
X135148527Y-91839082D01*
X135157777Y-91816750D01*
X135161582Y-91807564D01*
X135165038Y-91793763D01*
X135164812Y-91789156D01*
X135165291Y-91787870D01*
X135165292Y-91600220D01*
X135162920Y-91585240D01*
X135161277Y-91582014D01*
X135161195Y-91580626D01*
X135148496Y-91549967D01*
X135145084Y-91543584D01*
X135145084Y-91541698D01*
X135146652Y-91540651D01*
X135148394Y-91541372D01*
X135150955Y-91544492D01*
X135198475Y-91576241D01*
X135255313Y-91576241D01*
X135302832Y-91544492D01*
X135305394Y-91541371D01*
X135307136Y-91540650D01*
X135308704Y-91541697D01*
G37*
G36*
X186176677Y-91521049D02*
G01*
X186202944Y-91538600D01*
X186250199Y-91548000D01*
X186949801Y-91548000D01*
X186997055Y-91538600D01*
X187023320Y-91521050D01*
X187025166Y-91520853D01*
X187026379Y-91522259D01*
X187025913Y-91524056D01*
X186998926Y-91553832D01*
X186987361Y-91600000D01*
X186998926Y-91646167D01*
X187025913Y-91675943D01*
X187026379Y-91677740D01*
X187025166Y-91679146D01*
X187023320Y-91678949D01*
X186997055Y-91661399D01*
X186949801Y-91652000D01*
X186250199Y-91652000D01*
X186202944Y-91661399D01*
X186176677Y-91678950D01*
X186174831Y-91679147D01*
X186173618Y-91677741D01*
X186174084Y-91675944D01*
X186201073Y-91646166D01*
X186212637Y-91599999D01*
X186201073Y-91553833D01*
X186174084Y-91524055D01*
X186173618Y-91522258D01*
X186174831Y-91520852D01*
X186176677Y-91521049D01*
G37*
G36*
X182276677Y-91521049D02*
G01*
X182302944Y-91538600D01*
X182350199Y-91548000D01*
X183049801Y-91548000D01*
X183097055Y-91538600D01*
X183123320Y-91521050D01*
X183125166Y-91520853D01*
X183126379Y-91522259D01*
X183125913Y-91524056D01*
X183098926Y-91553832D01*
X183087361Y-91600000D01*
X183098926Y-91646167D01*
X183125913Y-91675943D01*
X183126379Y-91677740D01*
X183125166Y-91679146D01*
X183123320Y-91678949D01*
X183097055Y-91661399D01*
X183049801Y-91652000D01*
X182350199Y-91652000D01*
X182302944Y-91661399D01*
X182276677Y-91678950D01*
X182274831Y-91679147D01*
X182273618Y-91677741D01*
X182274084Y-91675944D01*
X182301073Y-91646166D01*
X182312637Y-91599999D01*
X182301073Y-91553833D01*
X182274084Y-91524055D01*
X182273618Y-91522258D01*
X182274831Y-91520852D01*
X182276677Y-91521049D01*
G37*
G36*
X135834288Y-90948374D02*
G01*
X135856005Y-90980878D01*
X136386054Y-91510927D01*
X136418558Y-91532644D01*
X136419425Y-91534013D01*
X136418993Y-91535576D01*
X136417545Y-91536305D01*
X136370155Y-91538633D01*
X136329334Y-91563100D01*
X136304867Y-91603921D01*
X136302539Y-91651311D01*
X136301810Y-91652759D01*
X136300247Y-91653191D01*
X136298878Y-91652324D01*
X136277161Y-91619820D01*
X135747112Y-91089771D01*
X135714608Y-91068054D01*
X135713741Y-91066685D01*
X135714173Y-91065122D01*
X135715621Y-91064393D01*
X135763010Y-91062064D01*
X135803831Y-91037597D01*
X135828298Y-90996776D01*
X135830627Y-90949387D01*
X135831356Y-90947939D01*
X135832919Y-90947507D01*
X135834288Y-90948374D01*
G37*
G36*
X134622431Y-90947939D02*
G01*
X134623160Y-90949387D01*
X134625488Y-90996775D01*
X134649954Y-91037596D01*
X134690775Y-91062064D01*
X134738166Y-91064393D01*
X134739614Y-91065122D01*
X134740046Y-91066684D01*
X134739179Y-91068054D01*
X134706675Y-91089771D01*
X134176626Y-91619820D01*
X134154909Y-91652324D01*
X134153539Y-91653191D01*
X134151977Y-91652759D01*
X134151248Y-91651311D01*
X134148919Y-91603920D01*
X134124451Y-91563099D01*
X134083630Y-91538633D01*
X134036242Y-91536305D01*
X134034794Y-91535576D01*
X134034362Y-91534013D01*
X134035229Y-91532644D01*
X134067733Y-91510927D01*
X134597782Y-90980878D01*
X134619499Y-90948374D01*
X134620868Y-90947507D01*
X134622431Y-90947939D01*
G37*
G36*
X217799931Y-91436481D02*
G01*
X217811645Y-91444309D01*
X217830199Y-91448000D01*
X218979801Y-91448000D01*
X218998354Y-91444309D01*
X219010068Y-91436482D01*
X219011822Y-91436251D01*
X219013073Y-91437502D01*
X219012842Y-91439256D01*
X219008800Y-91445305D01*
X218992208Y-91500000D01*
X219008800Y-91554694D01*
X219012842Y-91560743D01*
X219013073Y-91562497D01*
X219011822Y-91563748D01*
X219010068Y-91563517D01*
X218998354Y-91555690D01*
X218979801Y-91552000D01*
X217830199Y-91552000D01*
X217811645Y-91555690D01*
X217799928Y-91563520D01*
X217798174Y-91563751D01*
X217796923Y-91562500D01*
X217797154Y-91560746D01*
X217801200Y-91554690D01*
X217817790Y-91499998D01*
X217801199Y-91445305D01*
X217797157Y-91439255D01*
X217796926Y-91437501D01*
X217798177Y-91436250D01*
X217799931Y-91436481D01*
G37*
G36*
X136187841Y-90594820D02*
G01*
X136209558Y-90627324D01*
X136739607Y-91157373D01*
X136772111Y-91179090D01*
X136772978Y-91180459D01*
X136772546Y-91182022D01*
X136771098Y-91182751D01*
X136723708Y-91185079D01*
X136682887Y-91209546D01*
X136658420Y-91250367D01*
X136656092Y-91297758D01*
X136655363Y-91299206D01*
X136653800Y-91299638D01*
X136652431Y-91298771D01*
X136630714Y-91266267D01*
X136100665Y-90736218D01*
X136068161Y-90714501D01*
X136067294Y-90713132D01*
X136067726Y-90711569D01*
X136069174Y-90710840D01*
X136116563Y-90708511D01*
X136157384Y-90684044D01*
X136181851Y-90643223D01*
X136184180Y-90595833D01*
X136184909Y-90594385D01*
X136186472Y-90593953D01*
X136187841Y-90594820D01*
G37*
G36*
X134268878Y-90594385D02*
G01*
X134269607Y-90595833D01*
X134271935Y-90643222D01*
X134296402Y-90684043D01*
X134337222Y-90708511D01*
X134384613Y-90710840D01*
X134386061Y-90711569D01*
X134386493Y-90713131D01*
X134385626Y-90714501D01*
X134353122Y-90736218D01*
X133823073Y-91266267D01*
X133801356Y-91298771D01*
X133799986Y-91299638D01*
X133798424Y-91299206D01*
X133797695Y-91297758D01*
X133795366Y-91250366D01*
X133770898Y-91209545D01*
X133730077Y-91185079D01*
X133682689Y-91182751D01*
X133681241Y-91182022D01*
X133680809Y-91180459D01*
X133681676Y-91179090D01*
X133714180Y-91157373D01*
X134244229Y-90627324D01*
X134265946Y-90594820D01*
X134267315Y-90593953D01*
X134268878Y-90594385D01*
G37*
G36*
X186176677Y-91021049D02*
G01*
X186202944Y-91038600D01*
X186250199Y-91048000D01*
X186949801Y-91048000D01*
X186997055Y-91038600D01*
X187023320Y-91021050D01*
X187025166Y-91020853D01*
X187026379Y-91022259D01*
X187025913Y-91024056D01*
X186998926Y-91053832D01*
X186987361Y-91099999D01*
X186998926Y-91146167D01*
X187025913Y-91175943D01*
X187026379Y-91177740D01*
X187025166Y-91179146D01*
X187023320Y-91178949D01*
X186997055Y-91161399D01*
X186949801Y-91152000D01*
X186250199Y-91152000D01*
X186202944Y-91161399D01*
X186176677Y-91178950D01*
X186174831Y-91179147D01*
X186173618Y-91177741D01*
X186174084Y-91175944D01*
X186201073Y-91146166D01*
X186212637Y-91099999D01*
X186201073Y-91053833D01*
X186174084Y-91024055D01*
X186173618Y-91022258D01*
X186174831Y-91020852D01*
X186176677Y-91021049D01*
G37*
G36*
X182276677Y-91021049D02*
G01*
X182302944Y-91038600D01*
X182350199Y-91048000D01*
X183049801Y-91048000D01*
X183097055Y-91038600D01*
X183123320Y-91021050D01*
X183125166Y-91020853D01*
X183126379Y-91022259D01*
X183125913Y-91024056D01*
X183098926Y-91053832D01*
X183087361Y-91099999D01*
X183098926Y-91146167D01*
X183125913Y-91175943D01*
X183126379Y-91177740D01*
X183125166Y-91179146D01*
X183123320Y-91178949D01*
X183097055Y-91161399D01*
X183049801Y-91152000D01*
X182350199Y-91152000D01*
X182302944Y-91161399D01*
X182276677Y-91178950D01*
X182274831Y-91179147D01*
X182273618Y-91177741D01*
X182274084Y-91175944D01*
X182301073Y-91146166D01*
X182312637Y-91099999D01*
X182301073Y-91053833D01*
X182274084Y-91024055D01*
X182273618Y-91022258D01*
X182274831Y-91020852D01*
X182276677Y-91021049D01*
G37*
G36*
X217799931Y-90936481D02*
G01*
X217811645Y-90944309D01*
X217830199Y-90948000D01*
X218979801Y-90948000D01*
X218998354Y-90944309D01*
X219010065Y-90936483D01*
X219011819Y-90936252D01*
X219013070Y-90937503D01*
X219012839Y-90939257D01*
X219008800Y-90945303D01*
X218992208Y-90999998D01*
X219008799Y-91054692D01*
X219012842Y-91060744D01*
X219013073Y-91062498D01*
X219011822Y-91063749D01*
X219010068Y-91063518D01*
X218998354Y-91055690D01*
X218979801Y-91052000D01*
X217830199Y-91052000D01*
X217811645Y-91055690D01*
X217799928Y-91063520D01*
X217798174Y-91063751D01*
X217796923Y-91062500D01*
X217797154Y-91060746D01*
X217801200Y-91054690D01*
X217817790Y-90999998D01*
X217801199Y-90945305D01*
X217797157Y-90939255D01*
X217796926Y-90937501D01*
X217798177Y-90936250D01*
X217799931Y-90936481D01*
G37*
G36*
X136541395Y-90241267D02*
G01*
X136563112Y-90273771D01*
X137093161Y-90803820D01*
X137125665Y-90825537D01*
X137126532Y-90826906D01*
X137126100Y-90828469D01*
X137124652Y-90829198D01*
X137077261Y-90831526D01*
X137036440Y-90855993D01*
X137011973Y-90896814D01*
X137009645Y-90944204D01*
X137008916Y-90945652D01*
X137007353Y-90946084D01*
X137005984Y-90945217D01*
X136984267Y-90912713D01*
X136454218Y-90382664D01*
X136421714Y-90360947D01*
X136420847Y-90359578D01*
X136421279Y-90358015D01*
X136422727Y-90357286D01*
X136470117Y-90354957D01*
X136510938Y-90330490D01*
X136535405Y-90289669D01*
X136537734Y-90242280D01*
X136538463Y-90240832D01*
X136540026Y-90240400D01*
X136541395Y-90241267D01*
G37*
G36*
X133915324Y-90240832D02*
G01*
X133916053Y-90242280D01*
X133918381Y-90289668D01*
X133942847Y-90330489D01*
X133983668Y-90354957D01*
X134031060Y-90357286D01*
X134032508Y-90358015D01*
X134032940Y-90359577D01*
X134032073Y-90360947D01*
X133999569Y-90382664D01*
X133469520Y-90912713D01*
X133447803Y-90945217D01*
X133446433Y-90946084D01*
X133444871Y-90945652D01*
X133444142Y-90944204D01*
X133441813Y-90896813D01*
X133417345Y-90855993D01*
X133376524Y-90831526D01*
X133329135Y-90829198D01*
X133327687Y-90828469D01*
X133327255Y-90826906D01*
X133328122Y-90825537D01*
X133360626Y-90803820D01*
X133890675Y-90273771D01*
X133912392Y-90241267D01*
X133913761Y-90240400D01*
X133915324Y-90240832D01*
G37*
G36*
X186176679Y-90521050D02*
G01*
X186202944Y-90538600D01*
X186250199Y-90548000D01*
X186949801Y-90548000D01*
X186997055Y-90538600D01*
X187023319Y-90521051D01*
X187025165Y-90520854D01*
X187026378Y-90522260D01*
X187025912Y-90524057D01*
X186998927Y-90553829D01*
X186987361Y-90599996D01*
X186998924Y-90646164D01*
X187025914Y-90675944D01*
X187026380Y-90677741D01*
X187025167Y-90679147D01*
X187023321Y-90678950D01*
X186997055Y-90661399D01*
X186949801Y-90652000D01*
X186250199Y-90652000D01*
X186202944Y-90661399D01*
X186176677Y-90678950D01*
X186174831Y-90679147D01*
X186173618Y-90677741D01*
X186174084Y-90675944D01*
X186201074Y-90646163D01*
X186212637Y-90599996D01*
X186201071Y-90553830D01*
X186174086Y-90524056D01*
X186173620Y-90522259D01*
X186174833Y-90520853D01*
X186176679Y-90521050D01*
G37*
G36*
X182276679Y-90521050D02*
G01*
X182302944Y-90538600D01*
X182350199Y-90548000D01*
X183049801Y-90548000D01*
X183097055Y-90538600D01*
X183123319Y-90521051D01*
X183125165Y-90520854D01*
X183126378Y-90522260D01*
X183125912Y-90524057D01*
X183098927Y-90553829D01*
X183087361Y-90599996D01*
X183098924Y-90646164D01*
X183125914Y-90675944D01*
X183126380Y-90677741D01*
X183125167Y-90679147D01*
X183123321Y-90678950D01*
X183097055Y-90661399D01*
X183049801Y-90652000D01*
X182350199Y-90652000D01*
X182302944Y-90661399D01*
X182276677Y-90678950D01*
X182274831Y-90679147D01*
X182273618Y-90677741D01*
X182274084Y-90675944D01*
X182301074Y-90646163D01*
X182312637Y-90599996D01*
X182301071Y-90553830D01*
X182274086Y-90524056D01*
X182273620Y-90522259D01*
X182274833Y-90520853D01*
X182276679Y-90521050D01*
G37*
G36*
X136894948Y-89887714D02*
G01*
X136916665Y-89920218D01*
X137446714Y-90450267D01*
X137479218Y-90471984D01*
X137480085Y-90473353D01*
X137479653Y-90474916D01*
X137478205Y-90475645D01*
X137430815Y-90477973D01*
X137389994Y-90502440D01*
X137365527Y-90543261D01*
X137363199Y-90590651D01*
X137362470Y-90592099D01*
X137360907Y-90592531D01*
X137359538Y-90591664D01*
X137337821Y-90559160D01*
X136807772Y-90029111D01*
X136775268Y-90007394D01*
X136774401Y-90006025D01*
X136774833Y-90004462D01*
X136776281Y-90003733D01*
X136823670Y-90001404D01*
X136864491Y-89976937D01*
X136888958Y-89936116D01*
X136891287Y-89888727D01*
X136892016Y-89887279D01*
X136893579Y-89886847D01*
X136894948Y-89887714D01*
G37*
G36*
X133561771Y-89887279D02*
G01*
X133562500Y-89888727D01*
X133564828Y-89936115D01*
X133589294Y-89976936D01*
X133630115Y-90001404D01*
X133677506Y-90003733D01*
X133678954Y-90004462D01*
X133679386Y-90006024D01*
X133678519Y-90007394D01*
X133646015Y-90029111D01*
X133115966Y-90559160D01*
X133094249Y-90591664D01*
X133092879Y-90592531D01*
X133091317Y-90592099D01*
X133090588Y-90590651D01*
X133088259Y-90543260D01*
X133063791Y-90502439D01*
X133022970Y-90477973D01*
X132975582Y-90475645D01*
X132974134Y-90474916D01*
X132973702Y-90473353D01*
X132974569Y-90471984D01*
X133007073Y-90450267D01*
X133537122Y-89920218D01*
X133558839Y-89887714D01*
X133560208Y-89886847D01*
X133561771Y-89887279D01*
G37*
G36*
X217799928Y-90436480D02*
G01*
X217811645Y-90444309D01*
X217830199Y-90448000D01*
X218979801Y-90448000D01*
X218998354Y-90444309D01*
X219010068Y-90436482D01*
X219011822Y-90436251D01*
X219013073Y-90437502D01*
X219012842Y-90439256D01*
X219008800Y-90445305D01*
X218992208Y-90499999D01*
X219008800Y-90554694D01*
X219012842Y-90560743D01*
X219013073Y-90562497D01*
X219011822Y-90563748D01*
X219010068Y-90563517D01*
X218998354Y-90555690D01*
X218979801Y-90552000D01*
X217830199Y-90552000D01*
X217811645Y-90555690D01*
X217799928Y-90563519D01*
X217798174Y-90563750D01*
X217796923Y-90562499D01*
X217797154Y-90560745D01*
X217801199Y-90554692D01*
X217817790Y-90499999D01*
X217801199Y-90445307D01*
X217797154Y-90439254D01*
X217796923Y-90437500D01*
X217798174Y-90436249D01*
X217799928Y-90436480D01*
G37*
G36*
X137316533Y-89582441D02*
G01*
X137319023Y-89591734D01*
X137332078Y-89623250D01*
X137342698Y-89639142D01*
X137812643Y-90109087D01*
X137828535Y-90119707D01*
X137853021Y-90129850D01*
X137854207Y-90131260D01*
X137853738Y-90133041D01*
X137852011Y-90133683D01*
X137850903Y-90133546D01*
X137850631Y-90133493D01*
X137847802Y-90132735D01*
X137846622Y-90133018D01*
X137799620Y-90127216D01*
X137751864Y-90148382D01*
X137721783Y-90191090D01*
X137718223Y-90239352D01*
X137717471Y-90240772D01*
X137715918Y-90241181D01*
X137714565Y-90240316D01*
X137691374Y-90205607D01*
X137162845Y-89677078D01*
X137162270Y-89675452D01*
X137163175Y-89673983D01*
X137164886Y-89673765D01*
X137209797Y-89688602D01*
X137260761Y-89677157D01*
X137298593Y-89641138D01*
X137312601Y-89590523D01*
X137312601Y-89582959D01*
X137313454Y-89581321D01*
X137315285Y-89581080D01*
X137316533Y-89582441D01*
G37*
G36*
X133140333Y-89581325D02*
G01*
X133141186Y-89582963D01*
X133141186Y-89590519D01*
X133155192Y-89641137D01*
X133193022Y-89677155D01*
X133243987Y-89688601D01*
X133288902Y-89673764D01*
X133290613Y-89673982D01*
X133291518Y-89675451D01*
X133290943Y-89677077D01*
X132762413Y-90205607D01*
X132739222Y-90240316D01*
X132737869Y-90241181D01*
X132736316Y-90240772D01*
X132735564Y-90239352D01*
X132732002Y-90191087D01*
X132701919Y-90148380D01*
X132654162Y-90127216D01*
X132607166Y-90133019D01*
X132605983Y-90132736D01*
X132603148Y-90133496D01*
X132602875Y-90133549D01*
X132601771Y-90133685D01*
X132600044Y-90133043D01*
X132599575Y-90131262D01*
X132600761Y-90129852D01*
X132625252Y-90119707D01*
X132641144Y-90109087D01*
X133111089Y-89639142D01*
X133121709Y-89623250D01*
X133134764Y-89591734D01*
X133137254Y-89582445D01*
X133138502Y-89581084D01*
X133140333Y-89581325D01*
G37*
G36*
X186176677Y-90021049D02*
G01*
X186202944Y-90038600D01*
X186250199Y-90048000D01*
X186949801Y-90048000D01*
X186997055Y-90038600D01*
X187023320Y-90021050D01*
X187025166Y-90020853D01*
X187026379Y-90022259D01*
X187025913Y-90024056D01*
X186998926Y-90053832D01*
X186987361Y-90100000D01*
X186998926Y-90146167D01*
X187025913Y-90175943D01*
X187026379Y-90177740D01*
X187025166Y-90179146D01*
X187023320Y-90178949D01*
X186997055Y-90161399D01*
X186949801Y-90152000D01*
X186250199Y-90152000D01*
X186202944Y-90161399D01*
X186176677Y-90178950D01*
X186174831Y-90179147D01*
X186173618Y-90177741D01*
X186174084Y-90175944D01*
X186201073Y-90146166D01*
X186212637Y-90099999D01*
X186201073Y-90053833D01*
X186174084Y-90024055D01*
X186173618Y-90022258D01*
X186174831Y-90020852D01*
X186176677Y-90021049D01*
G37*
G36*
X182276677Y-90021049D02*
G01*
X182302944Y-90038600D01*
X182350199Y-90048000D01*
X183049801Y-90048000D01*
X183097055Y-90038600D01*
X183123320Y-90021050D01*
X183125166Y-90020853D01*
X183126379Y-90022259D01*
X183125913Y-90024056D01*
X183098926Y-90053832D01*
X183087361Y-90100000D01*
X183098926Y-90146167D01*
X183125913Y-90175943D01*
X183126379Y-90177740D01*
X183125166Y-90179146D01*
X183123320Y-90178949D01*
X183097055Y-90161399D01*
X183049801Y-90152000D01*
X182350199Y-90152000D01*
X182302944Y-90161399D01*
X182276677Y-90178950D01*
X182274831Y-90179147D01*
X182273618Y-90177741D01*
X182274084Y-90175944D01*
X182301073Y-90146166D01*
X182312637Y-90099999D01*
X182301073Y-90053833D01*
X182274084Y-90024055D01*
X182273618Y-90022258D01*
X182274831Y-90020852D01*
X182276677Y-90021049D01*
G37*
G36*
X217799928Y-89936480D02*
G01*
X217811645Y-89944309D01*
X217830199Y-89948000D01*
X218979801Y-89948000D01*
X218998354Y-89944309D01*
X219010068Y-89936482D01*
X219011822Y-89936251D01*
X219013073Y-89937502D01*
X219012842Y-89939256D01*
X219008800Y-89945305D01*
X218992208Y-89999999D01*
X219008800Y-90054694D01*
X219012842Y-90060743D01*
X219013073Y-90062497D01*
X219011822Y-90063748D01*
X219010068Y-90063517D01*
X218998354Y-90055690D01*
X218979801Y-90052000D01*
X217830199Y-90052000D01*
X217811645Y-90055690D01*
X217799928Y-90063519D01*
X217798174Y-90063750D01*
X217796923Y-90062499D01*
X217797154Y-90060745D01*
X217801199Y-90054692D01*
X217817790Y-89999999D01*
X217801199Y-89945307D01*
X217797154Y-89939254D01*
X217796923Y-89937500D01*
X217798174Y-89936249D01*
X217799928Y-89936480D01*
G37*
G36*
X186176677Y-89521049D02*
G01*
X186202944Y-89538600D01*
X186250199Y-89548000D01*
X186949801Y-89548000D01*
X186997055Y-89538600D01*
X187023320Y-89521050D01*
X187025166Y-89520853D01*
X187026379Y-89522259D01*
X187025913Y-89524056D01*
X186998926Y-89553832D01*
X186987361Y-89600000D01*
X186998926Y-89646167D01*
X187025913Y-89675943D01*
X187026379Y-89677740D01*
X187025166Y-89679146D01*
X187023320Y-89678949D01*
X186997055Y-89661399D01*
X186949801Y-89652000D01*
X186250199Y-89652000D01*
X186202944Y-89661399D01*
X186176677Y-89678950D01*
X186174831Y-89679147D01*
X186173618Y-89677741D01*
X186174084Y-89675944D01*
X186201073Y-89646166D01*
X186212637Y-89599999D01*
X186201073Y-89553833D01*
X186174084Y-89524055D01*
X186173618Y-89522258D01*
X186174831Y-89520852D01*
X186176677Y-89521049D01*
G37*
G36*
X182276677Y-89521049D02*
G01*
X182302944Y-89538600D01*
X182350199Y-89548000D01*
X183049801Y-89548000D01*
X183097055Y-89538600D01*
X183123320Y-89521050D01*
X183125166Y-89520853D01*
X183126379Y-89522259D01*
X183125913Y-89524056D01*
X183098926Y-89553832D01*
X183087361Y-89600000D01*
X183098926Y-89646167D01*
X183125913Y-89675943D01*
X183126379Y-89677740D01*
X183125166Y-89679146D01*
X183123320Y-89678949D01*
X183097055Y-89661399D01*
X183049801Y-89652000D01*
X182350199Y-89652000D01*
X182302944Y-89661399D01*
X182276677Y-89678950D01*
X182274831Y-89679147D01*
X182273618Y-89677741D01*
X182274084Y-89675944D01*
X182301073Y-89646166D01*
X182312637Y-89599999D01*
X182301073Y-89553833D01*
X182274084Y-89524055D01*
X182273618Y-89522258D01*
X182274831Y-89520852D01*
X182276677Y-89521049D01*
G37*
G36*
X217799931Y-89436481D02*
G01*
X217811645Y-89444309D01*
X217830199Y-89448000D01*
X218979801Y-89448000D01*
X218998354Y-89444309D01*
X219010068Y-89436482D01*
X219011822Y-89436251D01*
X219013073Y-89437502D01*
X219012842Y-89439256D01*
X219008800Y-89445305D01*
X218992208Y-89499999D01*
X219008800Y-89554694D01*
X219012842Y-89560743D01*
X219013073Y-89562497D01*
X219011822Y-89563748D01*
X219010068Y-89563517D01*
X218998354Y-89555690D01*
X218979801Y-89552000D01*
X217830199Y-89552000D01*
X217811645Y-89555690D01*
X217799928Y-89563520D01*
X217798174Y-89563751D01*
X217796923Y-89562500D01*
X217797154Y-89560746D01*
X217801200Y-89554690D01*
X217817790Y-89499998D01*
X217801199Y-89445305D01*
X217797157Y-89439255D01*
X217796926Y-89437501D01*
X217798177Y-89436250D01*
X217799931Y-89436481D01*
G37*
G36*
X137367645Y-89316072D02*
G01*
X137376901Y-89321620D01*
X137407565Y-89334320D01*
X137408626Y-89334260D01*
X137419272Y-89337753D01*
X137426969Y-89337790D01*
X137428378Y-89338379D01*
X137428385Y-89338397D01*
X137615754Y-89338397D01*
X137634505Y-89334668D01*
X137666049Y-89321602D01*
X137672431Y-89318191D01*
X137674317Y-89318191D01*
X137675364Y-89319759D01*
X137674643Y-89321501D01*
X137671526Y-89324059D01*
X137639776Y-89371579D01*
X137639776Y-89428421D01*
X137671526Y-89475940D01*
X137674643Y-89478498D01*
X137675364Y-89480240D01*
X137674317Y-89481808D01*
X137672431Y-89481808D01*
X137666049Y-89478397D01*
X137634505Y-89465331D01*
X137615754Y-89461602D01*
X137428127Y-89461602D01*
X137426889Y-89462078D01*
X137421820Y-89461898D01*
X137408454Y-89465311D01*
X137399267Y-89469118D01*
X137399266Y-89469117D01*
X137376908Y-89478377D01*
X137367642Y-89483930D01*
X137365818Y-89484049D01*
X137364659Y-89482636D01*
X137365132Y-89480871D01*
X137369831Y-89475688D01*
X137369882Y-89475634D01*
X137396586Y-89448265D01*
X137409305Y-89399994D01*
X137396580Y-89351724D01*
X137369897Y-89324380D01*
X137369846Y-89324326D01*
X137365135Y-89319130D01*
X137364662Y-89317365D01*
X137365821Y-89315952D01*
X137367645Y-89316072D01*
G37*
G36*
X133086242Y-89319758D02*
G01*
X133085521Y-89321500D01*
X133082402Y-89324060D01*
X133050653Y-89371580D01*
X133050653Y-89428420D01*
X133082402Y-89475939D01*
X133085522Y-89478500D01*
X133086243Y-89480242D01*
X133085196Y-89481810D01*
X133083310Y-89481810D01*
X133076926Y-89478397D01*
X133045382Y-89465331D01*
X133026631Y-89461602D01*
X132839026Y-89461602D01*
X132837738Y-89462082D01*
X132833130Y-89461855D01*
X132819329Y-89465311D01*
X132810144Y-89469117D01*
X132787812Y-89478366D01*
X132783570Y-89481092D01*
X132781724Y-89481257D01*
X132780535Y-89479834D01*
X132781025Y-89478046D01*
X132809993Y-89446926D01*
X132821968Y-89399996D01*
X132809990Y-89353065D01*
X132781026Y-89321953D01*
X132780536Y-89320165D01*
X132781725Y-89318742D01*
X132783572Y-89318908D01*
X132787811Y-89321633D01*
X132819282Y-89334668D01*
X132838028Y-89338397D01*
X133026631Y-89338397D01*
X133045382Y-89334668D01*
X133076926Y-89321602D01*
X133083309Y-89318190D01*
X133085195Y-89318190D01*
X133086242Y-89319758D01*
G37*
G36*
X137717471Y-88559227D02*
G01*
X137718223Y-88560647D01*
X137721782Y-88608905D01*
X137751859Y-88651612D01*
X137799611Y-88672780D01*
X137846622Y-88666983D01*
X137847798Y-88667264D01*
X137850613Y-88666510D01*
X137850887Y-88666457D01*
X137852003Y-88666320D01*
X137853729Y-88666962D01*
X137854198Y-88668744D01*
X137853012Y-88670153D01*
X137828535Y-88680292D01*
X137812643Y-88690912D01*
X137342698Y-89160857D01*
X137332078Y-89176749D01*
X137319023Y-89208265D01*
X137316533Y-89217559D01*
X137315285Y-89218920D01*
X137313454Y-89218679D01*
X137312601Y-89217041D01*
X137312601Y-89209477D01*
X137298593Y-89158861D01*
X137260761Y-89122842D01*
X137209797Y-89111397D01*
X137164886Y-89126234D01*
X137163175Y-89126016D01*
X137162270Y-89124547D01*
X137162845Y-89122921D01*
X137691374Y-88594392D01*
X137714565Y-88559683D01*
X137715918Y-88558818D01*
X137717471Y-88559227D01*
G37*
G36*
X132739222Y-88559682D02*
G01*
X132762413Y-88594392D01*
X133290941Y-89122920D01*
X133291516Y-89124546D01*
X133290611Y-89126015D01*
X133288900Y-89126233D01*
X133243989Y-89111396D01*
X133193023Y-89122841D01*
X133155192Y-89158860D01*
X133141186Y-89209479D01*
X133141186Y-89217037D01*
X133140333Y-89218675D01*
X133138502Y-89218916D01*
X133137254Y-89217555D01*
X133134764Y-89208265D01*
X133121709Y-89176749D01*
X133111089Y-89160857D01*
X132641144Y-88690912D01*
X132625252Y-88680292D01*
X132600770Y-88670151D01*
X132599584Y-88668741D01*
X132600053Y-88666960D01*
X132601780Y-88666318D01*
X132602892Y-88666455D01*
X132603165Y-88666508D01*
X132605987Y-88667264D01*
X132607165Y-88666982D01*
X132654171Y-88672781D01*
X132701924Y-88651614D01*
X132732003Y-88608908D01*
X132735564Y-88560646D01*
X132736316Y-88559226D01*
X132737869Y-88558817D01*
X132739222Y-88559682D01*
G37*
G36*
X185729147Y-88224831D02*
G01*
X185728950Y-88226677D01*
X185711399Y-88252944D01*
X185702000Y-88300199D01*
X185702000Y-88999801D01*
X185711399Y-89047055D01*
X185728949Y-89073320D01*
X185729146Y-89075166D01*
X185727740Y-89076379D01*
X185725943Y-89075913D01*
X185696167Y-89048926D01*
X185650000Y-89037361D01*
X185603832Y-89048926D01*
X185574056Y-89075913D01*
X185572259Y-89076379D01*
X185570853Y-89075166D01*
X185571050Y-89073320D01*
X185588600Y-89047055D01*
X185598000Y-88999801D01*
X185598000Y-88300199D01*
X185588600Y-88252944D01*
X185571049Y-88226677D01*
X185570852Y-88224831D01*
X185572258Y-88223618D01*
X185574055Y-88224084D01*
X185603833Y-88251073D01*
X185650000Y-88262637D01*
X185696166Y-88251073D01*
X185725944Y-88224084D01*
X185727741Y-88223618D01*
X185729147Y-88224831D01*
G37*
G36*
X185229147Y-88224831D02*
G01*
X185228950Y-88226677D01*
X185211399Y-88252944D01*
X185202000Y-88300199D01*
X185202000Y-88999801D01*
X185211399Y-89047055D01*
X185228949Y-89073320D01*
X185229146Y-89075166D01*
X185227740Y-89076379D01*
X185225943Y-89075913D01*
X185196167Y-89048926D01*
X185150000Y-89037361D01*
X185103832Y-89048926D01*
X185074056Y-89075913D01*
X185072259Y-89076379D01*
X185070853Y-89075166D01*
X185071050Y-89073320D01*
X185088600Y-89047055D01*
X185098000Y-88999801D01*
X185098000Y-88300199D01*
X185088600Y-88252944D01*
X185071049Y-88226677D01*
X185070852Y-88224831D01*
X185072258Y-88223618D01*
X185074055Y-88224084D01*
X185103833Y-88251073D01*
X185150000Y-88262637D01*
X185196166Y-88251073D01*
X185225944Y-88224084D01*
X185227741Y-88223618D01*
X185229147Y-88224831D01*
G37*
G36*
X184729147Y-88224831D02*
G01*
X184728950Y-88226677D01*
X184711399Y-88252944D01*
X184702000Y-88300199D01*
X184702000Y-88999801D01*
X184711399Y-89047055D01*
X184728949Y-89073320D01*
X184729146Y-89075166D01*
X184727740Y-89076379D01*
X184725943Y-89075913D01*
X184696167Y-89048926D01*
X184650000Y-89037361D01*
X184603832Y-89048926D01*
X184574056Y-89075913D01*
X184572259Y-89076379D01*
X184570853Y-89075166D01*
X184571050Y-89073320D01*
X184588600Y-89047055D01*
X184598000Y-88999801D01*
X184598000Y-88300199D01*
X184588600Y-88252944D01*
X184571049Y-88226677D01*
X184570852Y-88224831D01*
X184572258Y-88223618D01*
X184574055Y-88224084D01*
X184603833Y-88251073D01*
X184650000Y-88262637D01*
X184696166Y-88251073D01*
X184725944Y-88224084D01*
X184727741Y-88223618D01*
X184729147Y-88224831D01*
G37*
G36*
X184229147Y-88224831D02*
G01*
X184228950Y-88226677D01*
X184211399Y-88252944D01*
X184202000Y-88300199D01*
X184202000Y-88999801D01*
X184211399Y-89047055D01*
X184228949Y-89073320D01*
X184229146Y-89075166D01*
X184227740Y-89076379D01*
X184225943Y-89075913D01*
X184196167Y-89048926D01*
X184150000Y-89037361D01*
X184103832Y-89048926D01*
X184074056Y-89075913D01*
X184072259Y-89076379D01*
X184070853Y-89075166D01*
X184071050Y-89073320D01*
X184088600Y-89047055D01*
X184098000Y-88999801D01*
X184098000Y-88300199D01*
X184088600Y-88252944D01*
X184071049Y-88226677D01*
X184070852Y-88224831D01*
X184072258Y-88223618D01*
X184074055Y-88224084D01*
X184103833Y-88251073D01*
X184150000Y-88262637D01*
X184196166Y-88251073D01*
X184225944Y-88224084D01*
X184227741Y-88223618D01*
X184229147Y-88224831D01*
G37*
G36*
X183729147Y-88224831D02*
G01*
X183728950Y-88226677D01*
X183711399Y-88252944D01*
X183702000Y-88300199D01*
X183702000Y-88999801D01*
X183711399Y-89047055D01*
X183728949Y-89073320D01*
X183729146Y-89075166D01*
X183727740Y-89076379D01*
X183725943Y-89075913D01*
X183696167Y-89048926D01*
X183650000Y-89037361D01*
X183603832Y-89048926D01*
X183574056Y-89075913D01*
X183572259Y-89076379D01*
X183570853Y-89075166D01*
X183571050Y-89073320D01*
X183588600Y-89047055D01*
X183598000Y-88999801D01*
X183598000Y-88300199D01*
X183588600Y-88252944D01*
X183571049Y-88226677D01*
X183570852Y-88224831D01*
X183572258Y-88223618D01*
X183574055Y-88224084D01*
X183603833Y-88251073D01*
X183650000Y-88262637D01*
X183696166Y-88251073D01*
X183725944Y-88224084D01*
X183727741Y-88223618D01*
X183729147Y-88224831D01*
G37*
G36*
X217799928Y-88936480D02*
G01*
X217811645Y-88944309D01*
X217830199Y-88948000D01*
X218979801Y-88948000D01*
X218998354Y-88944309D01*
X219010068Y-88936482D01*
X219011822Y-88936251D01*
X219013073Y-88937502D01*
X219012842Y-88939256D01*
X219008800Y-88945305D01*
X218992208Y-89000000D01*
X219008800Y-89054694D01*
X219012842Y-89060743D01*
X219013073Y-89062497D01*
X219011822Y-89063748D01*
X219010068Y-89063517D01*
X218998354Y-89055690D01*
X218979801Y-89052000D01*
X217830199Y-89052000D01*
X217811645Y-89055690D01*
X217799928Y-89063519D01*
X217798174Y-89063750D01*
X217796923Y-89062499D01*
X217797154Y-89060745D01*
X217801199Y-89054692D01*
X217817790Y-89000000D01*
X217801199Y-88945307D01*
X217797154Y-88939254D01*
X217796923Y-88937500D01*
X217798174Y-88936249D01*
X217799928Y-88936480D01*
G37*
G36*
X137362470Y-88207900D02*
G01*
X137363199Y-88209348D01*
X137365527Y-88256736D01*
X137389993Y-88297557D01*
X137430814Y-88322025D01*
X137478205Y-88324354D01*
X137479653Y-88325083D01*
X137480085Y-88326645D01*
X137479218Y-88328015D01*
X137446714Y-88349732D01*
X136916665Y-88879781D01*
X136894948Y-88912285D01*
X136893578Y-88913152D01*
X136892016Y-88912720D01*
X136891287Y-88911272D01*
X136888958Y-88863881D01*
X136864490Y-88823060D01*
X136823669Y-88798594D01*
X136776281Y-88796266D01*
X136774833Y-88795537D01*
X136774401Y-88793974D01*
X136775268Y-88792605D01*
X136807772Y-88770888D01*
X137337821Y-88240839D01*
X137359538Y-88208335D01*
X137360907Y-88207468D01*
X137362470Y-88207900D01*
G37*
G36*
X133094249Y-88208335D02*
G01*
X133115966Y-88240839D01*
X133646015Y-88770888D01*
X133678519Y-88792605D01*
X133679386Y-88793974D01*
X133678954Y-88795537D01*
X133677506Y-88796266D01*
X133630116Y-88798594D01*
X133589295Y-88823061D01*
X133564828Y-88863882D01*
X133562500Y-88911272D01*
X133561771Y-88912720D01*
X133560208Y-88913152D01*
X133558839Y-88912285D01*
X133537122Y-88879781D01*
X133007073Y-88349732D01*
X132974569Y-88328015D01*
X132973702Y-88326646D01*
X132974134Y-88325083D01*
X132975582Y-88324354D01*
X133022971Y-88322025D01*
X133063792Y-88297558D01*
X133088259Y-88256737D01*
X133090588Y-88209348D01*
X133091317Y-88207900D01*
X133092880Y-88207468D01*
X133094249Y-88208335D01*
G37*
G36*
X158687617Y-88506259D02*
G01*
X158688366Y-88507772D01*
X158687691Y-88509319D01*
X158653586Y-88539437D01*
X158637724Y-88588950D01*
X158649444Y-88639604D01*
X158685439Y-88677120D01*
X158727411Y-88688676D01*
X158728736Y-88689859D01*
X158728597Y-88691629D01*
X158727104Y-88692591D01*
X158569764Y-88710320D01*
X158451542Y-88751687D01*
X158449618Y-88751350D01*
X158448898Y-88749535D01*
X158450068Y-88747972D01*
X158498433Y-88726439D01*
X158498830Y-88726310D01*
X158524198Y-88720917D01*
X158574069Y-88693500D01*
X158600289Y-88643343D01*
X158594373Y-88587055D01*
X158558296Y-88543446D01*
X158503539Y-88526915D01*
X158502224Y-88525645D01*
X158502491Y-88523836D01*
X158504117Y-88523000D01*
X158599801Y-88523000D01*
X158685977Y-88505858D01*
X158687617Y-88506259D01*
G37*
G36*
X137008916Y-87854347D02*
G01*
X137009645Y-87855795D01*
X137011973Y-87903183D01*
X137036439Y-87944004D01*
X137077260Y-87968472D01*
X137124652Y-87970801D01*
X137126100Y-87971530D01*
X137126532Y-87973092D01*
X137125665Y-87974462D01*
X137093161Y-87996179D01*
X136563112Y-88526228D01*
X136541395Y-88558732D01*
X136540025Y-88559599D01*
X136538463Y-88559167D01*
X136537734Y-88557719D01*
X136535405Y-88510328D01*
X136510937Y-88469508D01*
X136470116Y-88445041D01*
X136422727Y-88442713D01*
X136421279Y-88441984D01*
X136420847Y-88440421D01*
X136421714Y-88439052D01*
X136454218Y-88417335D01*
X136984267Y-87887286D01*
X137005984Y-87854782D01*
X137007353Y-87853915D01*
X137008916Y-87854347D01*
G37*
G36*
X133447803Y-87854782D02*
G01*
X133469520Y-87887286D01*
X133999569Y-88417335D01*
X134032073Y-88439052D01*
X134032940Y-88440421D01*
X134032508Y-88441984D01*
X134031060Y-88442713D01*
X133983669Y-88445041D01*
X133942848Y-88469508D01*
X133918381Y-88510329D01*
X133916053Y-88557719D01*
X133915324Y-88559167D01*
X133913761Y-88559599D01*
X133912392Y-88558732D01*
X133890675Y-88526228D01*
X133360626Y-87996179D01*
X133328122Y-87974462D01*
X133327255Y-87973093D01*
X133327687Y-87971530D01*
X133329135Y-87970801D01*
X133376525Y-87968472D01*
X133417346Y-87944005D01*
X133441813Y-87903184D01*
X133444142Y-87855795D01*
X133444871Y-87854347D01*
X133446434Y-87853915D01*
X133447803Y-87854782D01*
G37*
G36*
X219031909Y-87783826D02*
G01*
X219049578Y-87840257D01*
X219095782Y-87876150D01*
X219154206Y-87879283D01*
X219204260Y-87848366D01*
X219223589Y-87826061D01*
X219224019Y-87825689D01*
X219234454Y-87818982D01*
X219236322Y-87818825D01*
X219237499Y-87820285D01*
X219236949Y-87822078D01*
X219168257Y-87890770D01*
X219115279Y-87994745D01*
X219097024Y-88110000D01*
X219115279Y-88225254D01*
X219168257Y-88329229D01*
X219236947Y-88397919D01*
X219237497Y-88399711D01*
X219236320Y-88401172D01*
X219234452Y-88401016D01*
X219224020Y-88394312D01*
X219223589Y-88393939D01*
X219204259Y-88371631D01*
X219154208Y-88340714D01*
X219095784Y-88343846D01*
X219049578Y-88379740D01*
X219031909Y-88436173D01*
X219030632Y-88437473D01*
X219028830Y-88437197D01*
X219028000Y-88435575D01*
X219028000Y-88300199D01*
X219024309Y-88281645D01*
X219013913Y-88266086D01*
X218998354Y-88255690D01*
X218979801Y-88252000D01*
X217830199Y-88252000D01*
X217811645Y-88255690D01*
X217799928Y-88263520D01*
X217798174Y-88263751D01*
X217796923Y-88262500D01*
X217797154Y-88260746D01*
X217801200Y-88254690D01*
X217817790Y-88199998D01*
X217801199Y-88145305D01*
X217797157Y-88139255D01*
X217796926Y-88137501D01*
X217798177Y-88136250D01*
X217799931Y-88136481D01*
X217811645Y-88144309D01*
X217830199Y-88148000D01*
X218979801Y-88148000D01*
X218998354Y-88144309D01*
X219013913Y-88133913D01*
X219024309Y-88118354D01*
X219028000Y-88099801D01*
X219028000Y-87784424D01*
X219028830Y-87782802D01*
X219030632Y-87782526D01*
X219031909Y-87783826D01*
G37*
G36*
X136655363Y-87500793D02*
G01*
X136656092Y-87502241D01*
X136658420Y-87549630D01*
X136682887Y-87590451D01*
X136723707Y-87614919D01*
X136771098Y-87617248D01*
X136772546Y-87617977D01*
X136772978Y-87619539D01*
X136772111Y-87620909D01*
X136739607Y-87642626D01*
X136209558Y-88172675D01*
X136187841Y-88205179D01*
X136186471Y-88206046D01*
X136184909Y-88205614D01*
X136184180Y-88204166D01*
X136181851Y-88156774D01*
X136157383Y-88115953D01*
X136116562Y-88091487D01*
X136069174Y-88089159D01*
X136067726Y-88088430D01*
X136067294Y-88086867D01*
X136068161Y-88085498D01*
X136100665Y-88063781D01*
X136630714Y-87533732D01*
X136652431Y-87501228D01*
X136653800Y-87500361D01*
X136655363Y-87500793D01*
G37*
G36*
X133801356Y-87501228D02*
G01*
X133823073Y-87533732D01*
X134353122Y-88063781D01*
X134385626Y-88085498D01*
X134386493Y-88086867D01*
X134386061Y-88088430D01*
X134384613Y-88089159D01*
X134337223Y-88091487D01*
X134296402Y-88115954D01*
X134271935Y-88156775D01*
X134269607Y-88204166D01*
X134268878Y-88205614D01*
X134267315Y-88206046D01*
X134265946Y-88205179D01*
X134244229Y-88172675D01*
X133714180Y-87642626D01*
X133681676Y-87620909D01*
X133680809Y-87619540D01*
X133681241Y-87617977D01*
X133682689Y-87617248D01*
X133730078Y-87614919D01*
X133770899Y-87590452D01*
X133795366Y-87549631D01*
X133797695Y-87502241D01*
X133798424Y-87500793D01*
X133799987Y-87500361D01*
X133801356Y-87501228D01*
G37*
G36*
X136301810Y-87147240D02*
G01*
X136302539Y-87148688D01*
X136304867Y-87196076D01*
X136329333Y-87236897D01*
X136370154Y-87261365D01*
X136417545Y-87263694D01*
X136418993Y-87264423D01*
X136419425Y-87265985D01*
X136418558Y-87267355D01*
X136386054Y-87289072D01*
X135856005Y-87819121D01*
X135834288Y-87851625D01*
X135832918Y-87852492D01*
X135831356Y-87852060D01*
X135830627Y-87850612D01*
X135828298Y-87803221D01*
X135803830Y-87762400D01*
X135763009Y-87737934D01*
X135715621Y-87735606D01*
X135714173Y-87734877D01*
X135713741Y-87733314D01*
X135714608Y-87731945D01*
X135747112Y-87710228D01*
X136277161Y-87180179D01*
X136298878Y-87147675D01*
X136300247Y-87146808D01*
X136301810Y-87147240D01*
G37*
G36*
X134154909Y-87147675D02*
G01*
X134176626Y-87180179D01*
X134706675Y-87710228D01*
X134739179Y-87731945D01*
X134740046Y-87733314D01*
X134739614Y-87734877D01*
X134738166Y-87735606D01*
X134690776Y-87737934D01*
X134649955Y-87762401D01*
X134625488Y-87803222D01*
X134623160Y-87850612D01*
X134622431Y-87852060D01*
X134620868Y-87852492D01*
X134619499Y-87851625D01*
X134597782Y-87819121D01*
X134067733Y-87289072D01*
X134035229Y-87267355D01*
X134034362Y-87265986D01*
X134034794Y-87264423D01*
X134036242Y-87263694D01*
X134083631Y-87261365D01*
X134124452Y-87236898D01*
X134148919Y-87196077D01*
X134151248Y-87148688D01*
X134151977Y-87147240D01*
X134153540Y-87146808D01*
X134154909Y-87147675D01*
G37*
G36*
X135959937Y-86773150D02*
G01*
X135960579Y-86774877D01*
X135960443Y-86775981D01*
X135960390Y-86776254D01*
X135959630Y-86779089D01*
X135959913Y-86780272D01*
X135954110Y-86827268D01*
X135975274Y-86875025D01*
X136017981Y-86905108D01*
X136066246Y-86908670D01*
X136067666Y-86909422D01*
X136068075Y-86910975D01*
X136067210Y-86912328D01*
X136032501Y-86935519D01*
X135503971Y-87464049D01*
X135502345Y-87464624D01*
X135500876Y-87463719D01*
X135500658Y-87462008D01*
X135515496Y-87417094D01*
X135504051Y-87366128D01*
X135468032Y-87328298D01*
X135417414Y-87314292D01*
X135409857Y-87314292D01*
X135408219Y-87313439D01*
X135407978Y-87311608D01*
X135409339Y-87310360D01*
X135418628Y-87307870D01*
X135450144Y-87294815D01*
X135466036Y-87284195D01*
X135935981Y-86814250D01*
X135946601Y-86798358D01*
X135956746Y-86773867D01*
X135958156Y-86772681D01*
X135959937Y-86773150D01*
G37*
G36*
X134497045Y-86773877D02*
G01*
X134507186Y-86798358D01*
X134517806Y-86814250D01*
X134987751Y-87284195D01*
X135003643Y-87294815D01*
X135035159Y-87307870D01*
X135044449Y-87310360D01*
X135045810Y-87311608D01*
X135045569Y-87313439D01*
X135043931Y-87314292D01*
X135036374Y-87314292D01*
X134985755Y-87328298D01*
X134949736Y-87366128D01*
X134938291Y-87417094D01*
X134953129Y-87462008D01*
X134952911Y-87463719D01*
X134951442Y-87464624D01*
X134949816Y-87464049D01*
X134421286Y-86935519D01*
X134386576Y-86912328D01*
X134385711Y-86910975D01*
X134386120Y-86909422D01*
X134387540Y-86908670D01*
X134435802Y-86905109D01*
X134478508Y-86875030D01*
X134499675Y-86827277D01*
X134493876Y-86780271D01*
X134494158Y-86779093D01*
X134493402Y-86776271D01*
X134493349Y-86775998D01*
X134493212Y-86774887D01*
X134493854Y-86773160D01*
X134495635Y-86772691D01*
X134497045Y-86773877D01*
G37*
G36*
X135308703Y-86952575D02*
G01*
X135308703Y-86954461D01*
X135305291Y-86960844D01*
X135292225Y-86992388D01*
X135288496Y-87011139D01*
X135288496Y-87198766D01*
X135288972Y-87200005D01*
X135288792Y-87205071D01*
X135292204Y-87218436D01*
X135297609Y-87231484D01*
X135305272Y-87249986D01*
X135310823Y-87259248D01*
X135310942Y-87261072D01*
X135309529Y-87262231D01*
X135307764Y-87261758D01*
X135302577Y-87257057D01*
X135302523Y-87257006D01*
X135275164Y-87230310D01*
X135226893Y-87217587D01*
X135178621Y-87230310D01*
X135151283Y-87256988D01*
X135151229Y-87257039D01*
X135146025Y-87261755D01*
X135144260Y-87262228D01*
X135142847Y-87261068D01*
X135142967Y-87259245D01*
X135148514Y-87249990D01*
X135157776Y-87227627D01*
X135161582Y-87218439D01*
X135164995Y-87205073D01*
X135164816Y-87200005D01*
X135165291Y-87198766D01*
X135165291Y-87011139D01*
X135161562Y-86992388D01*
X135148496Y-86960844D01*
X135145085Y-86954462D01*
X135145085Y-86952576D01*
X135146653Y-86951529D01*
X135148395Y-86952250D01*
X135150954Y-86955368D01*
X135198474Y-86987117D01*
X135255314Y-86987117D01*
X135302833Y-86955368D01*
X135305393Y-86952249D01*
X135307135Y-86951528D01*
X135308703Y-86952575D01*
G37*
G36*
X123081923Y-83864606D02*
G01*
X123096818Y-83916817D01*
X123136601Y-83952928D01*
X123189448Y-83962613D01*
X123239450Y-83942955D01*
X123267746Y-83904982D01*
X123269418Y-83904178D01*
X123271031Y-83905094D01*
X123271198Y-83906941D01*
X123270689Y-83908169D01*
X123252017Y-84049999D01*
X123270689Y-84191828D01*
X123271198Y-84193057D01*
X123271031Y-84194905D01*
X123269418Y-84195821D01*
X123267746Y-84195017D01*
X123239450Y-84157044D01*
X123189448Y-84137386D01*
X123136601Y-84147070D01*
X123096818Y-84183183D01*
X123081923Y-84235394D01*
X123080664Y-84236732D01*
X123078844Y-84236477D01*
X123078000Y-84234845D01*
X123078000Y-83865155D01*
X123078844Y-83863523D01*
X123080664Y-83863268D01*
X123081923Y-83864606D01*
G37*
M02*
