%TF.GenerationSoftware,KiCad,Pcbnew,(7.0.0)*%
%TF.CreationDate,2023-05-08T01:10:33+02:00*%
%TF.ProjectId,Stacja Lutownicza V0.1,53746163-6a61-4204-9c75-746f776e6963,rev?*%
%TF.SameCoordinates,Original*%
%TF.FileFunction,Copper,L3,Inr*%
%TF.FilePolarity,Positive*%
%FSLAX46Y46*%
G04 Gerber Fmt 4.6, Leading zero omitted, Abs format (unit mm)*
G04 Created by KiCad (PCBNEW (7.0.0)) date 2023-05-08 01:10:33*
%MOMM*%
%LPD*%
G01*
G04 APERTURE LIST*
%TA.AperFunction,ComponentPad*%
%ADD10R,1.700000X1.700000*%
%TD*%
%TA.AperFunction,ComponentPad*%
%ADD11O,1.700000X1.700000*%
%TD*%
%TA.AperFunction,ComponentPad*%
%ADD12R,1.000000X1.000000*%
%TD*%
%TA.AperFunction,ComponentPad*%
%ADD13O,1.000000X1.000000*%
%TD*%
%TA.AperFunction,ComponentPad*%
%ADD14C,1.524000*%
%TD*%
%TA.AperFunction,ComponentPad*%
%ADD15O,2.100000X1.000000*%
%TD*%
%TA.AperFunction,ComponentPad*%
%ADD16O,1.600000X1.000000*%
%TD*%
%TA.AperFunction,ComponentPad*%
%ADD17O,2.000000X2.500000*%
%TD*%
%TA.AperFunction,ViaPad*%
%ADD18C,0.500000*%
%TD*%
%TA.AperFunction,ViaPad*%
%ADD19C,0.600000*%
%TD*%
G04 APERTURE END LIST*
D10*
%TO.N,SDA*%
%TO.C,OLED1*%
X178499999Y-87094999D03*
D11*
%TO.N,SCL*%
X178499999Y-89634999D03*
%TO.N,+3V3*%
X178499999Y-92174999D03*
%TO.N,GND*%
X178499999Y-94714999D03*
%TD*%
D12*
%TO.N,+3V3*%
%TO.C,BZ1*%
X122529999Y-84049999D03*
D13*
%TO.N,Net-(BZ1-+)*%
X123799999Y-84049999D03*
%TD*%
D14*
%TO.N,GND*%
%TO.C,SW4*%
X158750000Y-89500000D03*
%TO.N,TILT_SW*%
X158750000Y-92500000D03*
%TD*%
D15*
%TO.N,GND*%
%TO.C,J3*%
X218969999Y-86679999D03*
D16*
X223149999Y-86679999D03*
D15*
X218969999Y-95319999D03*
D16*
X223149999Y-95319999D03*
%TD*%
D17*
%TO.N,GND*%
%TO.C,E1*%
X103999999Y-90999999D03*
X98999999Y-91099999D03*
%TD*%
D12*
%TO.N,SWDIO*%
%TO.C,J1*%
X128199999Y-97449999D03*
D13*
%TO.N,SWCLK*%
X126929999Y-97449999D03*
%TO.N,NRST*%
X125659999Y-97449999D03*
%TO.N,+3V3*%
X124389999Y-97449999D03*
%TO.N,GND*%
X123119999Y-97449999D03*
%TD*%
D17*
%TO.N,T12_V-*%
%TO.C,-P1*%
X160999999Y-91099999D03*
X165999999Y-90999999D03*
%TD*%
%TO.N,T12_V+*%
%TO.C,+P1*%
X174999999Y-90999999D03*
X169999999Y-91099999D03*
%TD*%
D18*
%TO.N,Buzzer*%
X129325000Y-88775000D03*
%TO.N,GND*%
X120875000Y-89300000D03*
X120875000Y-88450000D03*
D19*
X141200000Y-84625000D03*
X143400000Y-84625000D03*
X145225000Y-84625000D03*
X187525000Y-97500000D03*
D18*
%TO.N,VDC*%
X183749500Y-93475000D03*
D19*
%TO.N,GND*%
X142350000Y-87725000D03*
D18*
%TO.N,Buzzer*%
X135825000Y-90000000D03*
%TO.N,GND*%
X127375000Y-85800000D03*
X133150000Y-84250000D03*
X130300000Y-84150000D03*
X131750000Y-95200000D03*
%TO.N,+3V3*%
X131250000Y-94700000D03*
D19*
%TO.N,GND*%
X142700000Y-91950000D03*
X141950000Y-91300000D03*
D18*
X136750000Y-83750000D03*
%TO.N,+3V3*%
X136175000Y-84250000D03*
X139350000Y-92050000D03*
D19*
%TO.N,GND*%
X143150000Y-88900000D03*
X143050000Y-86900000D03*
X141950000Y-91950000D03*
X142700000Y-91275000D03*
D18*
%TO.N,USB_D-*%
X133120000Y-99420000D03*
%TO.N,USB_D+*%
X132463009Y-98982328D03*
%TO.N,NRST*%
X134211673Y-85075000D03*
%TO.N,TILT_SW*%
X138625000Y-90825000D03*
%TO.N,PD_SAFE*%
X137025878Y-92231794D03*
X172900000Y-87725000D03*
X172900000Y-85450000D03*
X191575000Y-85425000D03*
%TO.N,SW_ON{slash}OFF*%
X205100000Y-84450000D03*
%TO.N,FLIP*%
X136048911Y-94680000D03*
%TO.N,INT*%
X135150000Y-95300000D03*
%TO.N,FLIP*%
X182512500Y-96700000D03*
%TO.N,INT*%
X186800000Y-93450000D03*
%TO.N,SCL*%
X135400000Y-86000000D03*
%TO.N,SDA*%
X134700000Y-85950000D03*
%TO.N,SW_NEXT*%
X132136416Y-87325000D03*
%TO.N,SW_BACK*%
X133250000Y-86300000D03*
%TO.N,SW_SELECT*%
X132550000Y-86750000D03*
D19*
%TO.N,VDC*%
X142000000Y-93950000D03*
X142000000Y-92950000D03*
X142850000Y-93950000D03*
X142800000Y-92950000D03*
%TO.N,GND*%
X174700000Y-95150000D03*
%TO.N,+3V3*%
X174750000Y-93250000D03*
%TO.N,GND*%
X162450000Y-83950000D03*
X152075000Y-87925000D03*
%TO.N,+3V3*%
X151025000Y-85250000D03*
%TO.N,GND*%
X159575000Y-84025000D03*
X160900000Y-85175000D03*
X159575000Y-83200000D03*
X162450000Y-83200000D03*
%TO.N,Net-(Q2-G)*%
X206800000Y-86900000D03*
%TO.N,VDC*%
X204350000Y-96800000D03*
%TO.N,GND*%
X204350000Y-95975000D03*
X216850000Y-95050000D03*
X216900000Y-87000000D03*
%TO.N,VBUS*%
X208800000Y-88900000D03*
%TO.N,GND*%
X213700000Y-86900000D03*
X213700000Y-86100000D03*
X213000000Y-86900000D03*
X213000000Y-86100000D03*
X209000000Y-86600000D03*
X209000000Y-85900000D03*
%TO.N,VBUS*%
X209000000Y-85100000D03*
X209000000Y-84200000D03*
%TO.N,GND*%
X195000000Y-97500000D03*
D18*
%TO.N,USB_D-*%
X214234615Y-98947387D03*
%TO.N,USB_D+*%
X214288972Y-98250000D03*
D19*
%TO.N,+3V3*%
X181250000Y-95500000D03*
%TO.N,SDA*%
X182500000Y-93500000D03*
%TO.N,CC2*%
X180300000Y-83000000D03*
%TO.N,CC1*%
X181009583Y-83789722D03*
%TO.N,GND*%
X204900000Y-89100000D03*
X216850000Y-94200000D03*
X183100000Y-83750000D03*
X190850000Y-88950000D03*
X195000000Y-96500000D03*
X195100000Y-86100000D03*
X203450000Y-89200000D03*
X204950000Y-90300000D03*
X195100000Y-87100000D03*
X195750000Y-97500000D03*
X205050000Y-95975000D03*
X190900000Y-84450000D03*
X186525000Y-84225000D03*
X199550000Y-86700000D03*
X190950000Y-93450000D03*
X216900000Y-87800000D03*
X210475000Y-97375000D03*
X190900000Y-97250000D03*
X214687500Y-93600000D03*
X195750000Y-96500000D03*
X200650000Y-91300000D03*
%TO.N,Net-(C21-Pad2)*%
X190900000Y-90450000D03*
%TO.N,Net-(F1-Pad2)*%
X216900000Y-88600000D03*
X216900000Y-93400000D03*
%TO.N,+3V3*%
X185050000Y-83750000D03*
X195100000Y-88000000D03*
X183547382Y-96897382D03*
X187350000Y-96500000D03*
X190750000Y-95700000D03*
X190750000Y-86700000D03*
X199550000Y-88200000D03*
X195100000Y-88800000D03*
D18*
%TO.N,CC1*%
X219750000Y-89750000D03*
%TO.N,Net-(J3-D+-PadA6)*%
X217250000Y-90650500D03*
X217250000Y-91849500D03*
%TO.N,CC2*%
X219750000Y-92750000D03*
D19*
%TO.N,VDC*%
X205050000Y-96800000D03*
X203475000Y-94075000D03*
%TO.N,VBUS*%
X210500000Y-88975000D03*
X211075000Y-92650000D03*
X208200000Y-84200000D03*
%TD*%
%TA.AperFunction,Conductor*%
%TO.N,GND*%
G36*
X179674355Y-82264015D02*
G01*
X179718378Y-82301615D01*
X179740533Y-82355102D01*
X179735991Y-82412818D01*
X179705741Y-82462181D01*
X179675112Y-82492809D01*
X179675108Y-82492813D01*
X179670184Y-82497738D01*
X179666479Y-82503633D01*
X179666476Y-82503638D01*
X179577912Y-82644587D01*
X179577910Y-82644590D01*
X179574211Y-82650478D01*
X179571915Y-82657036D01*
X179571913Y-82657043D01*
X179516930Y-82814175D01*
X179516928Y-82814182D01*
X179514632Y-82820745D01*
X179513852Y-82827662D01*
X179513852Y-82827665D01*
X179498508Y-82963852D01*
X179494435Y-83000000D01*
X179495215Y-83006923D01*
X179512408Y-83159521D01*
X179514632Y-83179255D01*
X179516928Y-83185819D01*
X179516930Y-83185824D01*
X179554559Y-83293360D01*
X179574211Y-83349522D01*
X179577912Y-83355412D01*
X179665954Y-83495531D01*
X179670184Y-83502262D01*
X179797738Y-83629816D01*
X179950478Y-83725789D01*
X180120745Y-83785368D01*
X180122450Y-83785560D01*
X180165879Y-83805479D01*
X180199635Y-83843250D01*
X180215470Y-83891368D01*
X180218959Y-83922334D01*
X180224215Y-83968977D01*
X180226514Y-83975546D01*
X180226514Y-83975547D01*
X180280166Y-84128878D01*
X180283794Y-84139244D01*
X180287495Y-84145134D01*
X180373456Y-84281941D01*
X180379767Y-84291984D01*
X180507321Y-84419538D01*
X180660061Y-84515511D01*
X180830328Y-84575090D01*
X181009583Y-84595287D01*
X181188838Y-84575090D01*
X181359105Y-84515511D01*
X181511845Y-84419538D01*
X181639399Y-84291984D01*
X181735372Y-84139244D01*
X181794951Y-83968977D01*
X181815148Y-83789722D01*
X181810672Y-83750000D01*
X184244435Y-83750000D01*
X184245215Y-83756923D01*
X184263185Y-83916418D01*
X184264632Y-83929255D01*
X184266928Y-83935819D01*
X184266930Y-83935824D01*
X184321913Y-84092956D01*
X184324211Y-84099522D01*
X184338530Y-84122310D01*
X184391695Y-84206923D01*
X184420184Y-84252262D01*
X184547738Y-84379816D01*
X184700478Y-84475789D01*
X184870745Y-84535368D01*
X185050000Y-84555565D01*
X185229255Y-84535368D01*
X185399522Y-84475789D01*
X185440565Y-84450000D01*
X204344751Y-84450000D01*
X204345531Y-84456923D01*
X204362906Y-84611135D01*
X204362907Y-84611142D01*
X204363687Y-84618059D01*
X204365986Y-84624630D01*
X204365987Y-84624633D01*
X204416693Y-84769544D01*
X204419544Y-84777690D01*
X204509523Y-84920890D01*
X204629110Y-85040477D01*
X204772310Y-85130456D01*
X204931941Y-85186313D01*
X205100000Y-85205249D01*
X205268059Y-85186313D01*
X205427690Y-85130456D01*
X205570890Y-85040477D01*
X205690477Y-84920890D01*
X205780456Y-84777690D01*
X205836313Y-84618059D01*
X205855249Y-84450000D01*
X205836313Y-84281941D01*
X205807641Y-84200000D01*
X207394435Y-84200000D01*
X207395215Y-84206923D01*
X207407927Y-84319751D01*
X207414632Y-84379255D01*
X207416928Y-84385819D01*
X207416930Y-84385824D01*
X207471913Y-84542955D01*
X207474211Y-84549522D01*
X207477911Y-84555410D01*
X207477912Y-84555412D01*
X207565954Y-84695531D01*
X207570184Y-84702262D01*
X207697738Y-84829816D01*
X207850478Y-84925789D01*
X208020745Y-84985368D01*
X208085327Y-84992644D01*
X208137409Y-85010869D01*
X208176431Y-85049891D01*
X208194658Y-85101979D01*
X208213675Y-85270768D01*
X208214632Y-85279255D01*
X208216928Y-85285819D01*
X208216930Y-85285824D01*
X208271913Y-85442956D01*
X208274211Y-85449522D01*
X208277912Y-85455412D01*
X208364336Y-85592956D01*
X208370184Y-85602262D01*
X208497738Y-85729816D01*
X208650478Y-85825789D01*
X208820745Y-85885368D01*
X209000000Y-85905565D01*
X209179255Y-85885368D01*
X209349522Y-85825789D01*
X209502262Y-85729816D01*
X209629816Y-85602262D01*
X209725789Y-85449522D01*
X209785368Y-85279255D01*
X209805565Y-85100000D01*
X209785368Y-84920745D01*
X209725789Y-84750478D01*
X209722060Y-84744544D01*
X209704107Y-84715971D01*
X209685101Y-84649998D01*
X209704107Y-84584027D01*
X209725789Y-84549522D01*
X209785368Y-84379255D01*
X209805565Y-84200000D01*
X209785368Y-84020745D01*
X209725789Y-83850478D01*
X209629816Y-83697738D01*
X209502262Y-83570184D01*
X209349522Y-83474211D01*
X209342959Y-83471914D01*
X209342956Y-83471913D01*
X209185824Y-83416930D01*
X209185819Y-83416928D01*
X209179255Y-83414632D01*
X209172335Y-83413852D01*
X209172334Y-83413852D01*
X209006923Y-83395215D01*
X209000000Y-83394435D01*
X208993077Y-83395215D01*
X208827665Y-83413852D01*
X208827662Y-83413852D01*
X208820745Y-83414632D01*
X208814182Y-83416928D01*
X208814175Y-83416930D01*
X208657042Y-83471913D01*
X208657033Y-83471917D01*
X208650478Y-83474211D01*
X208650421Y-83474246D01*
X208600000Y-83485755D01*
X208549578Y-83474246D01*
X208549522Y-83474211D01*
X208542963Y-83471915D01*
X208542957Y-83471913D01*
X208385824Y-83416930D01*
X208385819Y-83416928D01*
X208379255Y-83414632D01*
X208372335Y-83413852D01*
X208372334Y-83413852D01*
X208206923Y-83395215D01*
X208200000Y-83394435D01*
X208193077Y-83395215D01*
X208027665Y-83413852D01*
X208027662Y-83413852D01*
X208020745Y-83414632D01*
X208014182Y-83416928D01*
X208014175Y-83416930D01*
X207857043Y-83471913D01*
X207857036Y-83471915D01*
X207850478Y-83474211D01*
X207844590Y-83477910D01*
X207844587Y-83477912D01*
X207703638Y-83566476D01*
X207703633Y-83566479D01*
X207697738Y-83570184D01*
X207692813Y-83575108D01*
X207692809Y-83575112D01*
X207575112Y-83692809D01*
X207575108Y-83692813D01*
X207570184Y-83697738D01*
X207566479Y-83703633D01*
X207566476Y-83703638D01*
X207477912Y-83844587D01*
X207477910Y-83844590D01*
X207474211Y-83850478D01*
X207471915Y-83857036D01*
X207471913Y-83857043D01*
X207416930Y-84014175D01*
X207416928Y-84014182D01*
X207414632Y-84020745D01*
X207394435Y-84200000D01*
X205807641Y-84200000D01*
X205780456Y-84122310D01*
X205690477Y-83979110D01*
X205570890Y-83859523D01*
X205427690Y-83769544D01*
X205421124Y-83767246D01*
X205421121Y-83767245D01*
X205274633Y-83715987D01*
X205274630Y-83715986D01*
X205268059Y-83713687D01*
X205261142Y-83712907D01*
X205261135Y-83712906D01*
X205106923Y-83695531D01*
X205100000Y-83694751D01*
X205093077Y-83695531D01*
X204938864Y-83712906D01*
X204938855Y-83712907D01*
X204931941Y-83713687D01*
X204925371Y-83715985D01*
X204925366Y-83715987D01*
X204778878Y-83767245D01*
X204778872Y-83767247D01*
X204772310Y-83769544D01*
X204766419Y-83773245D01*
X204766418Y-83773246D01*
X204635010Y-83855815D01*
X204635005Y-83855818D01*
X204629110Y-83859523D01*
X204624185Y-83864447D01*
X204624181Y-83864451D01*
X204514451Y-83974181D01*
X204514447Y-83974185D01*
X204509523Y-83979110D01*
X204505818Y-83985005D01*
X204505815Y-83985010D01*
X204430162Y-84105412D01*
X204419544Y-84122310D01*
X204417247Y-84128872D01*
X204417245Y-84128878D01*
X204365987Y-84275366D01*
X204365985Y-84275371D01*
X204363687Y-84281941D01*
X204362907Y-84288855D01*
X204362906Y-84288864D01*
X204346472Y-84434727D01*
X204344751Y-84450000D01*
X185440565Y-84450000D01*
X185552262Y-84379816D01*
X185679816Y-84252262D01*
X185775789Y-84099522D01*
X185835368Y-83929255D01*
X185855565Y-83750000D01*
X185835368Y-83570745D01*
X185775789Y-83400478D01*
X185679816Y-83247738D01*
X185552262Y-83120184D01*
X185525079Y-83103104D01*
X185405412Y-83027912D01*
X185399522Y-83024211D01*
X185392959Y-83021914D01*
X185392956Y-83021913D01*
X185235824Y-82966930D01*
X185235819Y-82966928D01*
X185229255Y-82964632D01*
X185222335Y-82963852D01*
X185222334Y-82963852D01*
X185056923Y-82945215D01*
X185050000Y-82944435D01*
X185043077Y-82945215D01*
X184877665Y-82963852D01*
X184877662Y-82963852D01*
X184870745Y-82964632D01*
X184864182Y-82966928D01*
X184864175Y-82966930D01*
X184707043Y-83021913D01*
X184707036Y-83021915D01*
X184700478Y-83024211D01*
X184694590Y-83027910D01*
X184694587Y-83027912D01*
X184553638Y-83116476D01*
X184553633Y-83116479D01*
X184547738Y-83120184D01*
X184542813Y-83125108D01*
X184542809Y-83125112D01*
X184425112Y-83242809D01*
X184425108Y-83242813D01*
X184420184Y-83247738D01*
X184416479Y-83253633D01*
X184416476Y-83253638D01*
X184327912Y-83394587D01*
X184327910Y-83394590D01*
X184324211Y-83400478D01*
X184321915Y-83407036D01*
X184321913Y-83407043D01*
X184266930Y-83564175D01*
X184266928Y-83564182D01*
X184264632Y-83570745D01*
X184263852Y-83577662D01*
X184263852Y-83577665D01*
X184255047Y-83655815D01*
X184244435Y-83750000D01*
X181810672Y-83750000D01*
X181794951Y-83610467D01*
X181735372Y-83440200D01*
X181639399Y-83287460D01*
X181511845Y-83159906D01*
X181458501Y-83126388D01*
X181364995Y-83067634D01*
X181359105Y-83063933D01*
X181352542Y-83061636D01*
X181352539Y-83061635D01*
X181195403Y-83006651D01*
X181195401Y-83006650D01*
X181188838Y-83004354D01*
X181187130Y-83004161D01*
X181143699Y-82984239D01*
X181109945Y-82946468D01*
X181094112Y-82898351D01*
X181089041Y-82853348D01*
X181085368Y-82820745D01*
X181025789Y-82650478D01*
X180929816Y-82497738D01*
X180894259Y-82462181D01*
X180864009Y-82412818D01*
X180859467Y-82355102D01*
X180881622Y-82301615D01*
X180925645Y-82264015D01*
X180981940Y-82250500D01*
X224455830Y-82250500D01*
X224490244Y-82250500D01*
X224509631Y-82252025D01*
X224557706Y-82259639D01*
X224594595Y-82271625D01*
X224629156Y-82289235D01*
X224660538Y-82312036D01*
X224687963Y-82339461D01*
X224710766Y-82370846D01*
X224728372Y-82405399D01*
X224740361Y-82442297D01*
X224747973Y-82490358D01*
X224749500Y-82509756D01*
X224749500Y-99490244D01*
X224747973Y-99509642D01*
X224740361Y-99557702D01*
X224728372Y-99594600D01*
X224710766Y-99629153D01*
X224687963Y-99660538D01*
X224660538Y-99687963D01*
X224629153Y-99710766D01*
X224594600Y-99728372D01*
X224557702Y-99740361D01*
X224522884Y-99745875D01*
X224509640Y-99747973D01*
X224490244Y-99749500D01*
X214793231Y-99749500D01*
X214736936Y-99735985D01*
X214692913Y-99698385D01*
X214670758Y-99644898D01*
X214675300Y-99587182D01*
X214705550Y-99537819D01*
X214753125Y-99490244D01*
X214825092Y-99418277D01*
X214915071Y-99275077D01*
X214970928Y-99115446D01*
X214989864Y-98947387D01*
X214970928Y-98779328D01*
X214944794Y-98704644D01*
X214938616Y-98649804D01*
X214956844Y-98597716D01*
X214969428Y-98577690D01*
X215025285Y-98418059D01*
X215044221Y-98250000D01*
X215025285Y-98081941D01*
X214969428Y-97922310D01*
X214879449Y-97779110D01*
X214759862Y-97659523D01*
X214738550Y-97646132D01*
X214696117Y-97619469D01*
X214616662Y-97569544D01*
X214610096Y-97567246D01*
X214610093Y-97567245D01*
X214463605Y-97515987D01*
X214463602Y-97515986D01*
X214457031Y-97513687D01*
X214450114Y-97512907D01*
X214450107Y-97512906D01*
X214295895Y-97495531D01*
X214288972Y-97494751D01*
X214282049Y-97495531D01*
X214127836Y-97512906D01*
X214127827Y-97512907D01*
X214120913Y-97513687D01*
X214114343Y-97515985D01*
X214114338Y-97515987D01*
X213967850Y-97567245D01*
X213967844Y-97567247D01*
X213961282Y-97569544D01*
X213955391Y-97573245D01*
X213955390Y-97573246D01*
X213823982Y-97655815D01*
X213823977Y-97655818D01*
X213818082Y-97659523D01*
X213813157Y-97664447D01*
X213813153Y-97664451D01*
X213703423Y-97774181D01*
X213703419Y-97774185D01*
X213698495Y-97779110D01*
X213694790Y-97785005D01*
X213694787Y-97785010D01*
X213612218Y-97916418D01*
X213608516Y-97922310D01*
X213606219Y-97928872D01*
X213606217Y-97928878D01*
X213554959Y-98075366D01*
X213554957Y-98075371D01*
X213552659Y-98081941D01*
X213551879Y-98088855D01*
X213551878Y-98088864D01*
X213536218Y-98227859D01*
X213533723Y-98250000D01*
X213534503Y-98256923D01*
X213551878Y-98411135D01*
X213551879Y-98411142D01*
X213552659Y-98418059D01*
X213554958Y-98424630D01*
X213554959Y-98424633D01*
X213578791Y-98492742D01*
X213584970Y-98547578D01*
X213566745Y-98599664D01*
X213557863Y-98613799D01*
X213557856Y-98613812D01*
X213554159Y-98619697D01*
X213551862Y-98626259D01*
X213551860Y-98626265D01*
X213500602Y-98772753D01*
X213500600Y-98772758D01*
X213498302Y-98779328D01*
X213497522Y-98786242D01*
X213497521Y-98786251D01*
X213480146Y-98940464D01*
X213479366Y-98947387D01*
X213480146Y-98954310D01*
X213497521Y-99108522D01*
X213497522Y-99108529D01*
X213498302Y-99115446D01*
X213500601Y-99122017D01*
X213500602Y-99122020D01*
X213548485Y-99258864D01*
X213554159Y-99275077D01*
X213644138Y-99418277D01*
X213649065Y-99423204D01*
X213649066Y-99423205D01*
X213763680Y-99537819D01*
X213793930Y-99587182D01*
X213798472Y-99644898D01*
X213776317Y-99698385D01*
X213732294Y-99735985D01*
X213675999Y-99749500D01*
X133974157Y-99749500D01*
X133920356Y-99737221D01*
X133877211Y-99702814D01*
X133853267Y-99653095D01*
X133853265Y-99597911D01*
X133854013Y-99594631D01*
X133856313Y-99588059D01*
X133875249Y-99420000D01*
X133856313Y-99251941D01*
X133800456Y-99092310D01*
X133710477Y-98949110D01*
X133590890Y-98829523D01*
X133577631Y-98821192D01*
X133522023Y-98786251D01*
X133447690Y-98739544D01*
X133441124Y-98737246D01*
X133441121Y-98737245D01*
X133294633Y-98685987D01*
X133294630Y-98685986D01*
X133288059Y-98683687D01*
X133281142Y-98682907D01*
X133281135Y-98682906D01*
X133211429Y-98675052D01*
X133159341Y-98656825D01*
X133120321Y-98617805D01*
X133053486Y-98511438D01*
X132933899Y-98391851D01*
X132790699Y-98301872D01*
X132784133Y-98299574D01*
X132784130Y-98299573D01*
X132637642Y-98248315D01*
X132637639Y-98248314D01*
X132631068Y-98246015D01*
X132624151Y-98245235D01*
X132624144Y-98245234D01*
X132469932Y-98227859D01*
X132463009Y-98227079D01*
X132456086Y-98227859D01*
X132301873Y-98245234D01*
X132301864Y-98245235D01*
X132294950Y-98246015D01*
X132288380Y-98248313D01*
X132288375Y-98248315D01*
X132141887Y-98299573D01*
X132141881Y-98299575D01*
X132135319Y-98301872D01*
X132129428Y-98305573D01*
X132129427Y-98305574D01*
X131998019Y-98388143D01*
X131998014Y-98388146D01*
X131992119Y-98391851D01*
X131987194Y-98396775D01*
X131987190Y-98396779D01*
X131877460Y-98506509D01*
X131877456Y-98506513D01*
X131872532Y-98511438D01*
X131868827Y-98517333D01*
X131868824Y-98517338D01*
X131808214Y-98613799D01*
X131782553Y-98654638D01*
X131780256Y-98661200D01*
X131780254Y-98661206D01*
X131728996Y-98807694D01*
X131728994Y-98807699D01*
X131726696Y-98814269D01*
X131725916Y-98821183D01*
X131725915Y-98821192D01*
X131708540Y-98975405D01*
X131707760Y-98982328D01*
X131708540Y-98989251D01*
X131725915Y-99143463D01*
X131725916Y-99143470D01*
X131726696Y-99150387D01*
X131728995Y-99156958D01*
X131728996Y-99156961D01*
X131770326Y-99275077D01*
X131782553Y-99310018D01*
X131872532Y-99453218D01*
X131877459Y-99458145D01*
X131877460Y-99458146D01*
X131957133Y-99537819D01*
X131987383Y-99587182D01*
X131991925Y-99644898D01*
X131969770Y-99698385D01*
X131925747Y-99735985D01*
X131869452Y-99749500D01*
X120509756Y-99749500D01*
X120490359Y-99747973D01*
X120442297Y-99740361D01*
X120405400Y-99728372D01*
X120370845Y-99710765D01*
X120339461Y-99687963D01*
X120312036Y-99660538D01*
X120289235Y-99629156D01*
X120271625Y-99594595D01*
X120259639Y-99557706D01*
X120252025Y-99509631D01*
X120250500Y-99490244D01*
X120250500Y-97702612D01*
X122154361Y-97702612D01*
X122155054Y-97713896D01*
X122189883Y-97828712D01*
X122194520Y-97839905D01*
X122281633Y-98002882D01*
X122288374Y-98012970D01*
X122405609Y-98155821D01*
X122414178Y-98164390D01*
X122557029Y-98281625D01*
X122567117Y-98288366D01*
X122730094Y-98375479D01*
X122741287Y-98380116D01*
X122856103Y-98414945D01*
X122867387Y-98415638D01*
X122870000Y-98404637D01*
X123370000Y-98404637D01*
X123372612Y-98415638D01*
X123383896Y-98414945D01*
X123498712Y-98380116D01*
X123509905Y-98375479D01*
X123672885Y-98288364D01*
X123685656Y-98279832D01*
X123730355Y-98261316D01*
X123778738Y-98261315D01*
X123823438Y-98279830D01*
X123826751Y-98282043D01*
X123831462Y-98285910D01*
X123836834Y-98288781D01*
X123836838Y-98288784D01*
X123881878Y-98312858D01*
X124005273Y-98378814D01*
X124193868Y-98436024D01*
X124390000Y-98455341D01*
X124586132Y-98436024D01*
X124774727Y-98378814D01*
X124948538Y-98285910D01*
X124953249Y-98282043D01*
X124956107Y-98280134D01*
X125000805Y-98261618D01*
X125049187Y-98261617D01*
X125093886Y-98280130D01*
X125096754Y-98282046D01*
X125101462Y-98285910D01*
X125275273Y-98378814D01*
X125463868Y-98436024D01*
X125660000Y-98455341D01*
X125856132Y-98436024D01*
X126044727Y-98378814D01*
X126218538Y-98285910D01*
X126223249Y-98282043D01*
X126226107Y-98280134D01*
X126270805Y-98261618D01*
X126319187Y-98261617D01*
X126363886Y-98280130D01*
X126366754Y-98282046D01*
X126371462Y-98285910D01*
X126545273Y-98378814D01*
X126733868Y-98436024D01*
X126930000Y-98455341D01*
X127126132Y-98436024D01*
X127314727Y-98378814D01*
X127320106Y-98375938D01*
X127325726Y-98373611D01*
X127326563Y-98375633D01*
X127384702Y-98363391D01*
X127442346Y-98385037D01*
X127442787Y-98384231D01*
X127448485Y-98387342D01*
X127449615Y-98387767D01*
X127457669Y-98393796D01*
X127592517Y-98444091D01*
X127652127Y-98450500D01*
X128747872Y-98450499D01*
X128807483Y-98444091D01*
X128942331Y-98393796D01*
X129057546Y-98307546D01*
X129143796Y-98192331D01*
X129194091Y-98057483D01*
X129200500Y-97997873D01*
X129200499Y-96902128D01*
X129194091Y-96842517D01*
X129143796Y-96707669D01*
X129057546Y-96592454D01*
X128982945Y-96536608D01*
X128949431Y-96511519D01*
X128949430Y-96511518D01*
X128942331Y-96506204D01*
X128829112Y-96463976D01*
X128814752Y-96458620D01*
X128814750Y-96458619D01*
X128807483Y-96455909D01*
X128799770Y-96455079D01*
X128799767Y-96455079D01*
X128751180Y-96449855D01*
X128751169Y-96449854D01*
X128747873Y-96449500D01*
X128744550Y-96449500D01*
X127655439Y-96449500D01*
X127655420Y-96449500D01*
X127652128Y-96449501D01*
X127648850Y-96449853D01*
X127648838Y-96449854D01*
X127600231Y-96455079D01*
X127600225Y-96455080D01*
X127592517Y-96455909D01*
X127585252Y-96458618D01*
X127585246Y-96458620D01*
X127465980Y-96503104D01*
X127465978Y-96503104D01*
X127457669Y-96506204D01*
X127450570Y-96511517D01*
X127450563Y-96511522D01*
X127449611Y-96512235D01*
X127448480Y-96512659D01*
X127442784Y-96515770D01*
X127442343Y-96514963D01*
X127384697Y-96536608D01*
X127326565Y-96524365D01*
X127325727Y-96526389D01*
X127320102Y-96524059D01*
X127314727Y-96521186D01*
X127273993Y-96508829D01*
X127131962Y-96465744D01*
X127131957Y-96465743D01*
X127126132Y-96463976D01*
X127120073Y-96463379D01*
X127120067Y-96463378D01*
X126936062Y-96445256D01*
X126930000Y-96444659D01*
X126923938Y-96445256D01*
X126739932Y-96463378D01*
X126739924Y-96463379D01*
X126733868Y-96463976D01*
X126728044Y-96465742D01*
X126728037Y-96465744D01*
X126551100Y-96519418D01*
X126551096Y-96519419D01*
X126545273Y-96521186D01*
X126539907Y-96524053D01*
X126539900Y-96524057D01*
X126376831Y-96611219D01*
X126376821Y-96611225D01*
X126371462Y-96614090D01*
X126366761Y-96617947D01*
X126363886Y-96619869D01*
X126319189Y-96638382D01*
X126270811Y-96638382D01*
X126226114Y-96619869D01*
X126223238Y-96617947D01*
X126218538Y-96614090D01*
X126213173Y-96611222D01*
X126213168Y-96611219D01*
X126050099Y-96524057D01*
X126050095Y-96524055D01*
X126044727Y-96521186D01*
X126038899Y-96519418D01*
X125861962Y-96465744D01*
X125861957Y-96465743D01*
X125856132Y-96463976D01*
X125850073Y-96463379D01*
X125850067Y-96463378D01*
X125666062Y-96445256D01*
X125660000Y-96444659D01*
X125653938Y-96445256D01*
X125469932Y-96463378D01*
X125469924Y-96463379D01*
X125463868Y-96463976D01*
X125458044Y-96465742D01*
X125458037Y-96465744D01*
X125281100Y-96519418D01*
X125281096Y-96519419D01*
X125275273Y-96521186D01*
X125269907Y-96524053D01*
X125269900Y-96524057D01*
X125106831Y-96611219D01*
X125106821Y-96611225D01*
X125101462Y-96614090D01*
X125096761Y-96617947D01*
X125093886Y-96619869D01*
X125049189Y-96638382D01*
X125000811Y-96638382D01*
X124956114Y-96619869D01*
X124953238Y-96617947D01*
X124948538Y-96614090D01*
X124943173Y-96611222D01*
X124943168Y-96611219D01*
X124780099Y-96524057D01*
X124780095Y-96524055D01*
X124774727Y-96521186D01*
X124768899Y-96519418D01*
X124591962Y-96465744D01*
X124591957Y-96465743D01*
X124586132Y-96463976D01*
X124580073Y-96463379D01*
X124580067Y-96463378D01*
X124396062Y-96445256D01*
X124390000Y-96444659D01*
X124383938Y-96445256D01*
X124199932Y-96463378D01*
X124199924Y-96463379D01*
X124193868Y-96463976D01*
X124188044Y-96465742D01*
X124188037Y-96465744D01*
X124011100Y-96519418D01*
X124011096Y-96519419D01*
X124005273Y-96521186D01*
X123999907Y-96524053D01*
X123999900Y-96524057D01*
X123836831Y-96611219D01*
X123836821Y-96611225D01*
X123831462Y-96614090D01*
X123826762Y-96617947D01*
X123823434Y-96620171D01*
X123778736Y-96638684D01*
X123730357Y-96638683D01*
X123685660Y-96620170D01*
X123672885Y-96611634D01*
X123509905Y-96524520D01*
X123498712Y-96519883D01*
X123383896Y-96485054D01*
X123372612Y-96484361D01*
X123370000Y-96495363D01*
X123370000Y-98404637D01*
X122870000Y-98404637D01*
X122870000Y-97716326D01*
X122866549Y-97703450D01*
X122853674Y-97700000D01*
X122165363Y-97700000D01*
X122154361Y-97702612D01*
X120250500Y-97702612D01*
X120250500Y-97197387D01*
X122154361Y-97197387D01*
X122165363Y-97200000D01*
X122853674Y-97200000D01*
X122866549Y-97196549D01*
X122870000Y-97183674D01*
X122870000Y-96495363D01*
X122867387Y-96484361D01*
X122856103Y-96485054D01*
X122741287Y-96519883D01*
X122730094Y-96524520D01*
X122567117Y-96611633D01*
X122557029Y-96618374D01*
X122414178Y-96735609D01*
X122405609Y-96744178D01*
X122288374Y-96887029D01*
X122281633Y-96897117D01*
X122194520Y-97060094D01*
X122189883Y-97071287D01*
X122155054Y-97186103D01*
X122154361Y-97197387D01*
X120250500Y-97197387D01*
X120250500Y-96879228D01*
X120250500Y-96874802D01*
X120214864Y-96626954D01*
X120144320Y-96386700D01*
X120040301Y-96158932D01*
X119904927Y-95948285D01*
X119740952Y-95759048D01*
X119551715Y-95595073D01*
X119543680Y-95589909D01*
X119344789Y-95462090D01*
X119344785Y-95462088D01*
X119341068Y-95459699D01*
X119337046Y-95457862D01*
X119337042Y-95457860D01*
X119159443Y-95376753D01*
X119113300Y-95355680D01*
X119095583Y-95350478D01*
X118877303Y-95286386D01*
X118873046Y-95285136D01*
X118868666Y-95284506D01*
X118868656Y-95284504D01*
X118629578Y-95250129D01*
X118629567Y-95250128D01*
X118625198Y-95249500D01*
X118374802Y-95249500D01*
X118370433Y-95250128D01*
X118370421Y-95250129D01*
X118131343Y-95284504D01*
X118131330Y-95284506D01*
X118126954Y-95285136D01*
X118122699Y-95286385D01*
X118122696Y-95286386D01*
X117890949Y-95354432D01*
X117890943Y-95354433D01*
X117886700Y-95355680D01*
X117882674Y-95357518D01*
X117882673Y-95357519D01*
X117662957Y-95457860D01*
X117662947Y-95457865D01*
X117658932Y-95459699D01*
X117655220Y-95462084D01*
X117655210Y-95462090D01*
X117452004Y-95592682D01*
X117451994Y-95592688D01*
X117448285Y-95595073D01*
X117444950Y-95597962D01*
X117444943Y-95597968D01*
X117262388Y-95756153D01*
X117262381Y-95756159D01*
X117259048Y-95759048D01*
X117256159Y-95762381D01*
X117256153Y-95762388D01*
X117097968Y-95944943D01*
X117097962Y-95944950D01*
X117095073Y-95948285D01*
X117092688Y-95951994D01*
X117092682Y-95952004D01*
X116962090Y-96155210D01*
X116962084Y-96155220D01*
X116959699Y-96158932D01*
X116957865Y-96162947D01*
X116957860Y-96162957D01*
X116881658Y-96329816D01*
X116855680Y-96386700D01*
X116854433Y-96390943D01*
X116854432Y-96390949D01*
X116786959Y-96620745D01*
X116785136Y-96626954D01*
X116784506Y-96631330D01*
X116784504Y-96631343D01*
X116750129Y-96870421D01*
X116750128Y-96870433D01*
X116749500Y-96874802D01*
X116749500Y-96879228D01*
X116749500Y-98990244D01*
X116747973Y-99009642D01*
X116740361Y-99057702D01*
X116728372Y-99094600D01*
X116710766Y-99129153D01*
X116687963Y-99160538D01*
X116660538Y-99187963D01*
X116629153Y-99210766D01*
X116594600Y-99228372D01*
X116557702Y-99240361D01*
X116526102Y-99245366D01*
X116509640Y-99247973D01*
X116490244Y-99249500D01*
X96509756Y-99249500D01*
X96490359Y-99247973D01*
X96442297Y-99240361D01*
X96405400Y-99228372D01*
X96370845Y-99210765D01*
X96339461Y-99187963D01*
X96312036Y-99160538D01*
X96289235Y-99129156D01*
X96271625Y-99094595D01*
X96259639Y-99057706D01*
X96252025Y-99009631D01*
X96250500Y-98990244D01*
X96250500Y-94700000D01*
X130494751Y-94700000D01*
X130495531Y-94706923D01*
X130512906Y-94861135D01*
X130512907Y-94861142D01*
X130513687Y-94868059D01*
X130515986Y-94874630D01*
X130515987Y-94874633D01*
X130562545Y-95007690D01*
X130569544Y-95027690D01*
X130630918Y-95125366D01*
X130650052Y-95155818D01*
X130659523Y-95170890D01*
X130779110Y-95290477D01*
X130922310Y-95380456D01*
X131081941Y-95436313D01*
X131250000Y-95455249D01*
X131418059Y-95436313D01*
X131577690Y-95380456D01*
X131705734Y-95300000D01*
X134394751Y-95300000D01*
X134395531Y-95306923D01*
X134412906Y-95461135D01*
X134412907Y-95461142D01*
X134413687Y-95468059D01*
X134415986Y-95474630D01*
X134415987Y-95474633D01*
X134467245Y-95621121D01*
X134467246Y-95621124D01*
X134469544Y-95627690D01*
X134559523Y-95770890D01*
X134679110Y-95890477D01*
X134822310Y-95980456D01*
X134981941Y-96036313D01*
X135150000Y-96055249D01*
X135318059Y-96036313D01*
X135477690Y-95980456D01*
X135620890Y-95890477D01*
X135740477Y-95770890D01*
X135830456Y-95627690D01*
X135870866Y-95512202D01*
X135900226Y-95465478D01*
X135946954Y-95436117D01*
X136001788Y-95429939D01*
X136048911Y-95435249D01*
X136216970Y-95416313D01*
X136376601Y-95360456D01*
X136519801Y-95270477D01*
X136639388Y-95150890D01*
X136729367Y-95007690D01*
X136743412Y-94967551D01*
X177172688Y-94967551D01*
X177173056Y-94978780D01*
X177225168Y-95173263D01*
X177228856Y-95183397D01*
X177324113Y-95387676D01*
X177329501Y-95397008D01*
X177458784Y-95581643D01*
X177465721Y-95589909D01*
X177625090Y-95749278D01*
X177633356Y-95756215D01*
X177817991Y-95885498D01*
X177827323Y-95890886D01*
X178031602Y-95986143D01*
X178041736Y-95989831D01*
X178236219Y-96041943D01*
X178247448Y-96042311D01*
X178250000Y-96031369D01*
X178750000Y-96031369D01*
X178752551Y-96042311D01*
X178763780Y-96041943D01*
X178958263Y-95989831D01*
X178968397Y-95986143D01*
X179172676Y-95890886D01*
X179182008Y-95885498D01*
X179366643Y-95756215D01*
X179374909Y-95749278D01*
X179534278Y-95589909D01*
X179541215Y-95581643D01*
X179598382Y-95500000D01*
X180444435Y-95500000D01*
X180445215Y-95506923D01*
X180454161Y-95586326D01*
X180464632Y-95679255D01*
X180466928Y-95685819D01*
X180466930Y-95685824D01*
X180502940Y-95788734D01*
X180524211Y-95849522D01*
X180527911Y-95855410D01*
X180527912Y-95855412D01*
X180604155Y-95976753D01*
X180620184Y-96002262D01*
X180747738Y-96129816D01*
X180900478Y-96225789D01*
X181070745Y-96285368D01*
X181250000Y-96305565D01*
X181429255Y-96285368D01*
X181599522Y-96225789D01*
X181675855Y-96177825D01*
X181739043Y-96158850D01*
X181803020Y-96174970D01*
X181849674Y-96221622D01*
X181865796Y-96285598D01*
X181846823Y-96348788D01*
X181835746Y-96366417D01*
X181835743Y-96366422D01*
X181832044Y-96372310D01*
X181829747Y-96378872D01*
X181829745Y-96378878D01*
X181778487Y-96525366D01*
X181778485Y-96525371D01*
X181776187Y-96531941D01*
X181775407Y-96538855D01*
X181775406Y-96538864D01*
X181760368Y-96672334D01*
X181757251Y-96700000D01*
X181758031Y-96706923D01*
X181775406Y-96861135D01*
X181775407Y-96861142D01*
X181776187Y-96868059D01*
X181778486Y-96874630D01*
X181778487Y-96874633D01*
X181824870Y-97007190D01*
X181832044Y-97027690D01*
X181835746Y-97033581D01*
X181908596Y-97149522D01*
X181922023Y-97170890D01*
X182041610Y-97290477D01*
X182184810Y-97380456D01*
X182344441Y-97436313D01*
X182351364Y-97437093D01*
X182465914Y-97450000D01*
X182512500Y-97455249D01*
X182680559Y-97436313D01*
X182688533Y-97433523D01*
X182725847Y-97420466D01*
X182809754Y-97391105D01*
X182878299Y-97387256D01*
X182938388Y-97420466D01*
X183045120Y-97527198D01*
X183197860Y-97623171D01*
X183368127Y-97682750D01*
X183547382Y-97702947D01*
X183726637Y-97682750D01*
X183896904Y-97623171D01*
X184049644Y-97527198D01*
X184177198Y-97399644D01*
X184273171Y-97246904D01*
X184332750Y-97076637D01*
X184352947Y-96897382D01*
X184332750Y-96718127D01*
X184273171Y-96547860D01*
X184243099Y-96500000D01*
X186544435Y-96500000D01*
X186545215Y-96506923D01*
X186558039Y-96620745D01*
X186564632Y-96679255D01*
X186566928Y-96685819D01*
X186566930Y-96685824D01*
X186621913Y-96842956D01*
X186624211Y-96849522D01*
X186720184Y-97002262D01*
X186847738Y-97129816D01*
X187000478Y-97225789D01*
X187170745Y-97285368D01*
X187350000Y-97305565D01*
X187529255Y-97285368D01*
X187699522Y-97225789D01*
X187852262Y-97129816D01*
X187979816Y-97002262D01*
X188075789Y-96849522D01*
X188093117Y-96800000D01*
X203544435Y-96800000D01*
X203564632Y-96979255D01*
X203566928Y-96985819D01*
X203566930Y-96985824D01*
X203621913Y-97142956D01*
X203624211Y-97149522D01*
X203627912Y-97155412D01*
X203681274Y-97240338D01*
X203720184Y-97302262D01*
X203847738Y-97429816D01*
X204000478Y-97525789D01*
X204170745Y-97585368D01*
X204350000Y-97605565D01*
X204529255Y-97585368D01*
X204535828Y-97583067D01*
X204535832Y-97583067D01*
X204659045Y-97539953D01*
X204700000Y-97532994D01*
X204740955Y-97539953D01*
X204864167Y-97583067D01*
X204864173Y-97583068D01*
X204870745Y-97585368D01*
X205050000Y-97605565D01*
X205229255Y-97585368D01*
X205399522Y-97525789D01*
X205552262Y-97429816D01*
X205679816Y-97302262D01*
X205775789Y-97149522D01*
X205835368Y-96979255D01*
X205855565Y-96800000D01*
X205835368Y-96620745D01*
X205775789Y-96450478D01*
X205679816Y-96297738D01*
X205552262Y-96170184D01*
X205540760Y-96162957D01*
X205409870Y-96080713D01*
X205399522Y-96074211D01*
X205392959Y-96071914D01*
X205392956Y-96071913D01*
X205235824Y-96016930D01*
X205235819Y-96016928D01*
X205229255Y-96014632D01*
X205222335Y-96013852D01*
X205222334Y-96013852D01*
X205056923Y-95995215D01*
X205050000Y-95994435D01*
X205043077Y-95995215D01*
X204877665Y-96013852D01*
X204877662Y-96013852D01*
X204870745Y-96014632D01*
X204864180Y-96016929D01*
X204864172Y-96016931D01*
X204740954Y-96060047D01*
X204700000Y-96067005D01*
X204659046Y-96060047D01*
X204535827Y-96016931D01*
X204535821Y-96016929D01*
X204529255Y-96014632D01*
X204522335Y-96013852D01*
X204522334Y-96013852D01*
X204356923Y-95995215D01*
X204350000Y-95994435D01*
X204343077Y-95995215D01*
X204177665Y-96013852D01*
X204177662Y-96013852D01*
X204170745Y-96014632D01*
X204164182Y-96016928D01*
X204164175Y-96016930D01*
X204007043Y-96071913D01*
X204007036Y-96071915D01*
X204000478Y-96074211D01*
X203994590Y-96077910D01*
X203994587Y-96077912D01*
X203853638Y-96166476D01*
X203853633Y-96166479D01*
X203847738Y-96170184D01*
X203842813Y-96175108D01*
X203842809Y-96175112D01*
X203725112Y-96292809D01*
X203725108Y-96292813D01*
X203720184Y-96297738D01*
X203716479Y-96303633D01*
X203716476Y-96303638D01*
X203627912Y-96444587D01*
X203627910Y-96444590D01*
X203624211Y-96450478D01*
X203621915Y-96457036D01*
X203621913Y-96457043D01*
X203566930Y-96614175D01*
X203566928Y-96614182D01*
X203564632Y-96620745D01*
X203563852Y-96627662D01*
X203563852Y-96627665D01*
X203545215Y-96793077D01*
X203544435Y-96800000D01*
X188093117Y-96800000D01*
X188135368Y-96679255D01*
X188155565Y-96500000D01*
X188135368Y-96320745D01*
X188075789Y-96150478D01*
X187979816Y-95997738D01*
X187852262Y-95870184D01*
X187828749Y-95855410D01*
X187705412Y-95777912D01*
X187699522Y-95774211D01*
X187692959Y-95771914D01*
X187692956Y-95771913D01*
X187535824Y-95716930D01*
X187535819Y-95716928D01*
X187529255Y-95714632D01*
X187522335Y-95713852D01*
X187522334Y-95713852D01*
X187399392Y-95700000D01*
X189944435Y-95700000D01*
X189945215Y-95706923D01*
X189961982Y-95855741D01*
X189964632Y-95879255D01*
X189966928Y-95885819D01*
X189966930Y-95885824D01*
X190021913Y-96042956D01*
X190024211Y-96049522D01*
X190027912Y-96055412D01*
X190103124Y-96175112D01*
X190120184Y-96202262D01*
X190247738Y-96329816D01*
X190400478Y-96425789D01*
X190570745Y-96485368D01*
X190750000Y-96505565D01*
X190929255Y-96485368D01*
X191099522Y-96425789D01*
X191252262Y-96329816D01*
X191379816Y-96202262D01*
X191475789Y-96049522D01*
X191535368Y-95879255D01*
X191555565Y-95700000D01*
X191541763Y-95577502D01*
X217449026Y-95577502D01*
X217449114Y-95577840D01*
X217515378Y-95756760D01*
X217520894Y-95768006D01*
X217621819Y-95929926D01*
X217629478Y-95939820D01*
X217760936Y-96078114D01*
X217770427Y-96086262D01*
X217927036Y-96195265D01*
X217937970Y-96201334D01*
X218113318Y-96276581D01*
X218125247Y-96280324D01*
X218312152Y-96318734D01*
X218324598Y-96320000D01*
X218703674Y-96320000D01*
X218716549Y-96316549D01*
X218720000Y-96303674D01*
X219220000Y-96303674D01*
X219223450Y-96316549D01*
X219236326Y-96320000D01*
X219567570Y-96320000D01*
X219573835Y-96319682D01*
X219716084Y-96305216D01*
X219728335Y-96302698D01*
X219910385Y-96245580D01*
X219921889Y-96240644D01*
X220088720Y-96148045D01*
X220098982Y-96140902D01*
X220243754Y-96016620D01*
X220252385Y-96007541D01*
X220369167Y-95856670D01*
X220375792Y-95846042D01*
X220459817Y-95674743D01*
X220464165Y-95663002D01*
X220484686Y-95583746D01*
X220484845Y-95577502D01*
X221879026Y-95577502D01*
X221879114Y-95577840D01*
X221945378Y-95756760D01*
X221950894Y-95768006D01*
X222051819Y-95929926D01*
X222059478Y-95939820D01*
X222190936Y-96078114D01*
X222200427Y-96086262D01*
X222357036Y-96195265D01*
X222367970Y-96201334D01*
X222543318Y-96276581D01*
X222555247Y-96280324D01*
X222742152Y-96318734D01*
X222754598Y-96320000D01*
X222883674Y-96320000D01*
X222896549Y-96316549D01*
X222900000Y-96303674D01*
X223400000Y-96303674D01*
X223403450Y-96316549D01*
X223416326Y-96320000D01*
X223497570Y-96320000D01*
X223503835Y-96319682D01*
X223646084Y-96305216D01*
X223658335Y-96302698D01*
X223840385Y-96245580D01*
X223851889Y-96240644D01*
X224018720Y-96148045D01*
X224028982Y-96140902D01*
X224173754Y-96016620D01*
X224182385Y-96007541D01*
X224299167Y-95856670D01*
X224305792Y-95846042D01*
X224389817Y-95674743D01*
X224394165Y-95663002D01*
X224414686Y-95583746D01*
X224414971Y-95572535D01*
X224404046Y-95570000D01*
X223416326Y-95570000D01*
X223403450Y-95573450D01*
X223400000Y-95586326D01*
X223400000Y-96303674D01*
X222900000Y-96303674D01*
X222900000Y-95586326D01*
X222896549Y-95573450D01*
X222883674Y-95570000D01*
X221890038Y-95570000D01*
X221879354Y-95572337D01*
X221879026Y-95577502D01*
X220484845Y-95577502D01*
X220484971Y-95572535D01*
X220474046Y-95570000D01*
X219236326Y-95570000D01*
X219223450Y-95573450D01*
X219220000Y-95586326D01*
X219220000Y-96303674D01*
X218720000Y-96303674D01*
X218720000Y-95586326D01*
X218716549Y-95573450D01*
X218703674Y-95570000D01*
X217460038Y-95570000D01*
X217449354Y-95572337D01*
X217449026Y-95577502D01*
X191541763Y-95577502D01*
X191535368Y-95520745D01*
X191475789Y-95350478D01*
X191379816Y-95197738D01*
X191252262Y-95070184D01*
X191247933Y-95067464D01*
X217455028Y-95067464D01*
X217465954Y-95070000D01*
X220479962Y-95070000D01*
X220490645Y-95067662D01*
X220490658Y-95067464D01*
X221885028Y-95067464D01*
X221895954Y-95070000D01*
X222883674Y-95070000D01*
X222896549Y-95066549D01*
X222900000Y-95053674D01*
X223400000Y-95053674D01*
X223403450Y-95066549D01*
X223416326Y-95070000D01*
X224409962Y-95070000D01*
X224420645Y-95067662D01*
X224420973Y-95062497D01*
X224420885Y-95062159D01*
X224354621Y-94883239D01*
X224349105Y-94871993D01*
X224248180Y-94710073D01*
X224240521Y-94700179D01*
X224109063Y-94561885D01*
X224099572Y-94553737D01*
X223942963Y-94444734D01*
X223932029Y-94438665D01*
X223756681Y-94363418D01*
X223744752Y-94359675D01*
X223557847Y-94321265D01*
X223545402Y-94320000D01*
X223416326Y-94320000D01*
X223403450Y-94323450D01*
X223400000Y-94336326D01*
X223400000Y-95053674D01*
X222900000Y-95053674D01*
X222900000Y-94336326D01*
X222896549Y-94323450D01*
X222883674Y-94320000D01*
X222802430Y-94320000D01*
X222796164Y-94320317D01*
X222653915Y-94334783D01*
X222641664Y-94337301D01*
X222459614Y-94394419D01*
X222448110Y-94399355D01*
X222281279Y-94491954D01*
X222271017Y-94499097D01*
X222126245Y-94623379D01*
X222117614Y-94632458D01*
X222000832Y-94783329D01*
X221994207Y-94793957D01*
X221910182Y-94965256D01*
X221905834Y-94976997D01*
X221885313Y-95056253D01*
X221885028Y-95067464D01*
X220490658Y-95067464D01*
X220490973Y-95062497D01*
X220490885Y-95062159D01*
X220424621Y-94883239D01*
X220419105Y-94871993D01*
X220318180Y-94710073D01*
X220310521Y-94700179D01*
X220179063Y-94561885D01*
X220169572Y-94553737D01*
X220012963Y-94444734D01*
X220002024Y-94438662D01*
X219977355Y-94428076D01*
X219932254Y-94394994D01*
X219906280Y-94345459D01*
X219904716Y-94289548D01*
X219927879Y-94238641D01*
X219972698Y-94180233D01*
X220030687Y-94040236D01*
X220050466Y-93890000D01*
X220030687Y-93739764D01*
X219974927Y-93605150D01*
X219966874Y-93539217D01*
X219994006Y-93478586D01*
X220048534Y-93440658D01*
X220077690Y-93430456D01*
X220220890Y-93340477D01*
X220340477Y-93220890D01*
X220430456Y-93077690D01*
X220486313Y-92918059D01*
X220505249Y-92750000D01*
X220504233Y-92740987D01*
X220492353Y-92635548D01*
X220486313Y-92581941D01*
X220430456Y-92422310D01*
X220340477Y-92279110D01*
X220220890Y-92159523D01*
X220202134Y-92147738D01*
X220182775Y-92135574D01*
X220077690Y-92069544D01*
X220071124Y-92067246D01*
X220071121Y-92067245D01*
X219924633Y-92015987D01*
X219924630Y-92015986D01*
X219918059Y-92013687D01*
X219911142Y-92012907D01*
X219911135Y-92012906D01*
X219756923Y-91995531D01*
X219750000Y-91994751D01*
X219743077Y-91995531D01*
X219588864Y-92012906D01*
X219588855Y-92012907D01*
X219581941Y-92013687D01*
X219575371Y-92015985D01*
X219575366Y-92015987D01*
X219428878Y-92067245D01*
X219428872Y-92067247D01*
X219422310Y-92069544D01*
X219416419Y-92073245D01*
X219416418Y-92073246D01*
X219285010Y-92155815D01*
X219285005Y-92155818D01*
X219279110Y-92159523D01*
X219274185Y-92164447D01*
X219274181Y-92164451D01*
X219164451Y-92274181D01*
X219164447Y-92274185D01*
X219159523Y-92279110D01*
X219155818Y-92285005D01*
X219155815Y-92285010D01*
X219073739Y-92415634D01*
X219069544Y-92422310D01*
X219067247Y-92428872D01*
X219067245Y-92428878D01*
X219015987Y-92575366D01*
X219015985Y-92575371D01*
X219013687Y-92581941D01*
X219012907Y-92588855D01*
X219012906Y-92588864D01*
X218995561Y-92742808D01*
X218994751Y-92750000D01*
X218995531Y-92756923D01*
X219012906Y-92911135D01*
X219012907Y-92911142D01*
X219013687Y-92918059D01*
X219015986Y-92924630D01*
X219015987Y-92924633D01*
X219067113Y-93070745D01*
X219069544Y-93077690D01*
X219135574Y-93182775D01*
X219152468Y-93209663D01*
X219159523Y-93220890D01*
X219164451Y-93225818D01*
X219168788Y-93231256D01*
X219167231Y-93232497D01*
X219195871Y-93284700D01*
X219191332Y-93353949D01*
X219150297Y-93409914D01*
X219065996Y-93474600D01*
X219065987Y-93474608D01*
X219059549Y-93479549D01*
X219054608Y-93485987D01*
X219054605Y-93485991D01*
X218972248Y-93593319D01*
X218972242Y-93593328D01*
X218967302Y-93599767D01*
X218964193Y-93607272D01*
X218964191Y-93607276D01*
X218912423Y-93732254D01*
X218912421Y-93732259D01*
X218909313Y-93739764D01*
X218908252Y-93747815D01*
X218908251Y-93747823D01*
X218891524Y-93874887D01*
X218889534Y-93890000D01*
X218890595Y-93898059D01*
X218908251Y-94032176D01*
X218908252Y-94032182D01*
X218909313Y-94040236D01*
X218912422Y-94047742D01*
X218912423Y-94047745D01*
X218954177Y-94148547D01*
X218963019Y-94208154D01*
X218942718Y-94264891D01*
X218898069Y-94305358D01*
X218839616Y-94320000D01*
X218372430Y-94320000D01*
X218366164Y-94320317D01*
X218223915Y-94334783D01*
X218211664Y-94337301D01*
X218029614Y-94394419D01*
X218018110Y-94399355D01*
X217851279Y-94491954D01*
X217841017Y-94499097D01*
X217696245Y-94623379D01*
X217687614Y-94632458D01*
X217570832Y-94783329D01*
X217564207Y-94793957D01*
X217480182Y-94965256D01*
X217475834Y-94976997D01*
X217455313Y-95056253D01*
X217455028Y-95067464D01*
X191247933Y-95067464D01*
X191239490Y-95062159D01*
X191136965Y-94997738D01*
X191099522Y-94974211D01*
X191092959Y-94971914D01*
X191092956Y-94971913D01*
X190935824Y-94916930D01*
X190935819Y-94916928D01*
X190929255Y-94914632D01*
X190922335Y-94913852D01*
X190922334Y-94913852D01*
X190756923Y-94895215D01*
X190750000Y-94894435D01*
X190743077Y-94895215D01*
X190577665Y-94913852D01*
X190577662Y-94913852D01*
X190570745Y-94914632D01*
X190564182Y-94916928D01*
X190564175Y-94916930D01*
X190407043Y-94971913D01*
X190407036Y-94971915D01*
X190400478Y-94974211D01*
X190394590Y-94977910D01*
X190394587Y-94977912D01*
X190253638Y-95066476D01*
X190253633Y-95066479D01*
X190247738Y-95070184D01*
X190242813Y-95075108D01*
X190242809Y-95075112D01*
X190125112Y-95192809D01*
X190125108Y-95192813D01*
X190120184Y-95197738D01*
X190116479Y-95203633D01*
X190116476Y-95203638D01*
X190027912Y-95344587D01*
X190027910Y-95344590D01*
X190024211Y-95350478D01*
X190021915Y-95357036D01*
X190021913Y-95357043D01*
X189966930Y-95514175D01*
X189966928Y-95514182D01*
X189964632Y-95520745D01*
X189963852Y-95527662D01*
X189963852Y-95527665D01*
X189948604Y-95663002D01*
X189944435Y-95700000D01*
X187399392Y-95700000D01*
X187356923Y-95695215D01*
X187350000Y-95694435D01*
X187343077Y-95695215D01*
X187177665Y-95713852D01*
X187177662Y-95713852D01*
X187170745Y-95714632D01*
X187164182Y-95716928D01*
X187164175Y-95716930D01*
X187007043Y-95771913D01*
X187007036Y-95771915D01*
X187000478Y-95774211D01*
X186994590Y-95777910D01*
X186994587Y-95777912D01*
X186853638Y-95866476D01*
X186853633Y-95866479D01*
X186847738Y-95870184D01*
X186842813Y-95875108D01*
X186842809Y-95875112D01*
X186725112Y-95992809D01*
X186725108Y-95992813D01*
X186720184Y-95997738D01*
X186716479Y-96003633D01*
X186716476Y-96003638D01*
X186627912Y-96144587D01*
X186627910Y-96144590D01*
X186624211Y-96150478D01*
X186621915Y-96157036D01*
X186621913Y-96157043D01*
X186566930Y-96314175D01*
X186566928Y-96314182D01*
X186564632Y-96320745D01*
X186563852Y-96327662D01*
X186563852Y-96327665D01*
X186552796Y-96425789D01*
X186544435Y-96500000D01*
X184243099Y-96500000D01*
X184177198Y-96395120D01*
X184049644Y-96267566D01*
X183896904Y-96171593D01*
X183890341Y-96169296D01*
X183890338Y-96169295D01*
X183733206Y-96114312D01*
X183733201Y-96114310D01*
X183726637Y-96112014D01*
X183719717Y-96111234D01*
X183719716Y-96111234D01*
X183554305Y-96092597D01*
X183547382Y-96091817D01*
X183540459Y-96092597D01*
X183375047Y-96111234D01*
X183375044Y-96111234D01*
X183368127Y-96112014D01*
X183361564Y-96114310D01*
X183361557Y-96114312D01*
X183204425Y-96169295D01*
X183204418Y-96169297D01*
X183197860Y-96171593D01*
X183191971Y-96175292D01*
X183191961Y-96175298D01*
X183187994Y-96177791D01*
X183135907Y-96196017D01*
X183081069Y-96189837D01*
X183034344Y-96160477D01*
X182988318Y-96114451D01*
X182988318Y-96114450D01*
X182983390Y-96109523D01*
X182840190Y-96019544D01*
X182833624Y-96017246D01*
X182833621Y-96017245D01*
X182687133Y-95965987D01*
X182687130Y-95965986D01*
X182680559Y-95963687D01*
X182673642Y-95962907D01*
X182673635Y-95962906D01*
X182519423Y-95945531D01*
X182512500Y-95944751D01*
X182505577Y-95945531D01*
X182351364Y-95962906D01*
X182351355Y-95962907D01*
X182344441Y-95963687D01*
X182337871Y-95965985D01*
X182337866Y-95965987D01*
X182191378Y-96017245D01*
X182191372Y-96017247D01*
X182184810Y-96019544D01*
X182178922Y-96023243D01*
X182178913Y-96023248D01*
X182122907Y-96058439D01*
X182059717Y-96077414D01*
X181995740Y-96061292D01*
X181949087Y-96014639D01*
X181932967Y-95950661D01*
X181951942Y-95887474D01*
X181975789Y-95849522D01*
X182035368Y-95679255D01*
X182055565Y-95500000D01*
X182035368Y-95320745D01*
X181975789Y-95150478D01*
X181879816Y-94997738D01*
X181752262Y-94870184D01*
X181599522Y-94774211D01*
X181592959Y-94771914D01*
X181592956Y-94771913D01*
X181435824Y-94716930D01*
X181435819Y-94716928D01*
X181429255Y-94714632D01*
X181422335Y-94713852D01*
X181422334Y-94713852D01*
X181256923Y-94695215D01*
X181250000Y-94694435D01*
X181243077Y-94695215D01*
X181077665Y-94713852D01*
X181077662Y-94713852D01*
X181070745Y-94714632D01*
X181064182Y-94716928D01*
X181064175Y-94716930D01*
X180907043Y-94771913D01*
X180907036Y-94771915D01*
X180900478Y-94774211D01*
X180894590Y-94777910D01*
X180894587Y-94777912D01*
X180753638Y-94866476D01*
X180753633Y-94866479D01*
X180747738Y-94870184D01*
X180742813Y-94875108D01*
X180742809Y-94875112D01*
X180625112Y-94992809D01*
X180625108Y-94992813D01*
X180620184Y-94997738D01*
X180616479Y-95003633D01*
X180616476Y-95003638D01*
X180527912Y-95144587D01*
X180527910Y-95144590D01*
X180524211Y-95150478D01*
X180521915Y-95157036D01*
X180521913Y-95157043D01*
X180466930Y-95314175D01*
X180466928Y-95314182D01*
X180464632Y-95320745D01*
X180463852Y-95327662D01*
X180463852Y-95327665D01*
X180451633Y-95436117D01*
X180444435Y-95500000D01*
X179598382Y-95500000D01*
X179670498Y-95397008D01*
X179675886Y-95387676D01*
X179771143Y-95183397D01*
X179774831Y-95173263D01*
X179826943Y-94978780D01*
X179827311Y-94967551D01*
X179816369Y-94965000D01*
X178766326Y-94965000D01*
X178753450Y-94968450D01*
X178750000Y-94981326D01*
X178750000Y-96031369D01*
X178250000Y-96031369D01*
X178250000Y-94981326D01*
X178246549Y-94968450D01*
X178233674Y-94965000D01*
X177183631Y-94965000D01*
X177172688Y-94967551D01*
X136743412Y-94967551D01*
X136785224Y-94848059D01*
X136804160Y-94680000D01*
X136785224Y-94511941D01*
X136729367Y-94352310D01*
X136639388Y-94209110D01*
X136519801Y-94089523D01*
X136376601Y-93999544D01*
X136370035Y-93997246D01*
X136370032Y-93997245D01*
X136235013Y-93950000D01*
X141194435Y-93950000D01*
X141195215Y-93956923D01*
X141210710Y-94094451D01*
X141214632Y-94129255D01*
X141216928Y-94135819D01*
X141216930Y-94135824D01*
X141271913Y-94292956D01*
X141274211Y-94299522D01*
X141277912Y-94305412D01*
X141361638Y-94438662D01*
X141370184Y-94452262D01*
X141497738Y-94579816D01*
X141650478Y-94675789D01*
X141820745Y-94735368D01*
X142000000Y-94755565D01*
X142179255Y-94735368D01*
X142349522Y-94675789D01*
X142359025Y-94669817D01*
X142425000Y-94650809D01*
X142490974Y-94669817D01*
X142500478Y-94675789D01*
X142670745Y-94735368D01*
X142850000Y-94755565D01*
X143029255Y-94735368D01*
X143199522Y-94675789D01*
X143352262Y-94579816D01*
X143479816Y-94452262D01*
X143575789Y-94299522D01*
X143635368Y-94129255D01*
X143655565Y-93950000D01*
X143635368Y-93770745D01*
X143575789Y-93600478D01*
X143572084Y-93594582D01*
X143503852Y-93485991D01*
X143497689Y-93476183D01*
X143478683Y-93410211D01*
X143497690Y-93344239D01*
X143525789Y-93299522D01*
X143585368Y-93129255D01*
X143605565Y-92950000D01*
X143585368Y-92770745D01*
X143525789Y-92600478D01*
X143462654Y-92500000D01*
X157482677Y-92500000D01*
X157483149Y-92505395D01*
X157501457Y-92714669D01*
X157501458Y-92714676D01*
X157501930Y-92720068D01*
X157503329Y-92725289D01*
X157503331Y-92725300D01*
X157557706Y-92928228D01*
X157557708Y-92928235D01*
X157559106Y-92933450D01*
X157578099Y-92974181D01*
X157647183Y-93122334D01*
X157652466Y-93133662D01*
X157655566Y-93138090D01*
X157655570Y-93138096D01*
X157738774Y-93256923D01*
X157779174Y-93314620D01*
X157935380Y-93470826D01*
X158025859Y-93534180D01*
X158111903Y-93594429D01*
X158111906Y-93594430D01*
X158116338Y-93597534D01*
X158316550Y-93690894D01*
X158321770Y-93692292D01*
X158321771Y-93692293D01*
X158524699Y-93746668D01*
X158524701Y-93746668D01*
X158529932Y-93748070D01*
X158750000Y-93767323D01*
X158970068Y-93748070D01*
X159183450Y-93690894D01*
X159383662Y-93597534D01*
X159564620Y-93470826D01*
X159720826Y-93314620D01*
X159847534Y-93133662D01*
X159940894Y-92933450D01*
X159998070Y-92720068D01*
X159998831Y-92711367D01*
X159999425Y-92709657D01*
X159999481Y-92709345D01*
X159999531Y-92709353D01*
X160018782Y-92653997D01*
X160063590Y-92612983D01*
X160122500Y-92598172D01*
X160181372Y-92613115D01*
X160395190Y-92728828D01*
X160630386Y-92809571D01*
X160875665Y-92850500D01*
X161119201Y-92850500D01*
X161124335Y-92850500D01*
X161369614Y-92809571D01*
X161604810Y-92728828D01*
X161823509Y-92610474D01*
X162019744Y-92457738D01*
X162188164Y-92274785D01*
X162324173Y-92066607D01*
X162424063Y-91838881D01*
X162485108Y-91597821D01*
X162500500Y-91412067D01*
X162500500Y-91312067D01*
X164499500Y-91312067D01*
X164499711Y-91314609D01*
X164499712Y-91314633D01*
X164514467Y-91492701D01*
X164514468Y-91492709D01*
X164514892Y-91497821D01*
X164516149Y-91502788D01*
X164516151Y-91502795D01*
X164573404Y-91728878D01*
X164575937Y-91738881D01*
X164577997Y-91743577D01*
X164673766Y-91961910D01*
X164673769Y-91961916D01*
X164675827Y-91966607D01*
X164678627Y-91970893D01*
X164678631Y-91970900D01*
X164745497Y-92073246D01*
X164811836Y-92174785D01*
X164815310Y-92178559D01*
X164815311Y-92178560D01*
X164976784Y-92353967D01*
X164976787Y-92353970D01*
X164980256Y-92357738D01*
X165103468Y-92453638D01*
X165169965Y-92505395D01*
X165176491Y-92510474D01*
X165395190Y-92628828D01*
X165630386Y-92709571D01*
X165875665Y-92750500D01*
X166119201Y-92750500D01*
X166124335Y-92750500D01*
X166369614Y-92709571D01*
X166604810Y-92628828D01*
X166823509Y-92510474D01*
X167019744Y-92357738D01*
X167188164Y-92174785D01*
X167324173Y-91966607D01*
X167424063Y-91738881D01*
X167485108Y-91497821D01*
X167492214Y-91412067D01*
X168499500Y-91412067D01*
X168499711Y-91414609D01*
X168499712Y-91414633D01*
X168514467Y-91592701D01*
X168514468Y-91592709D01*
X168514892Y-91597821D01*
X168516149Y-91602788D01*
X168516151Y-91602795D01*
X168574637Y-91833747D01*
X168575937Y-91838881D01*
X168587981Y-91866339D01*
X168673766Y-92061910D01*
X168673769Y-92061916D01*
X168675827Y-92066607D01*
X168678627Y-92070893D01*
X168678631Y-92070900D01*
X168788272Y-92238717D01*
X168811836Y-92274785D01*
X168815310Y-92278559D01*
X168815311Y-92278560D01*
X168976784Y-92453967D01*
X168976787Y-92453970D01*
X168980256Y-92457738D01*
X169176491Y-92610474D01*
X169395190Y-92728828D01*
X169630386Y-92809571D01*
X169875665Y-92850500D01*
X170119201Y-92850500D01*
X170124335Y-92850500D01*
X170369614Y-92809571D01*
X170604810Y-92728828D01*
X170823509Y-92610474D01*
X171019744Y-92457738D01*
X171188164Y-92274785D01*
X171324173Y-92066607D01*
X171424063Y-91838881D01*
X171485108Y-91597821D01*
X171500500Y-91412067D01*
X171500500Y-91312067D01*
X173499500Y-91312067D01*
X173499711Y-91314609D01*
X173499712Y-91314633D01*
X173514467Y-91492701D01*
X173514468Y-91492709D01*
X173514892Y-91497821D01*
X173516149Y-91502788D01*
X173516151Y-91502795D01*
X173573404Y-91728878D01*
X173575937Y-91738881D01*
X173577997Y-91743577D01*
X173673766Y-91961910D01*
X173673769Y-91961916D01*
X173675827Y-91966607D01*
X173678627Y-91970893D01*
X173678631Y-91970900D01*
X173745497Y-92073246D01*
X173811836Y-92174785D01*
X173815310Y-92178559D01*
X173815311Y-92178560D01*
X173976784Y-92353967D01*
X173976787Y-92353970D01*
X173980256Y-92357738D01*
X174156103Y-92494605D01*
X174167440Y-92503429D01*
X174207992Y-92559407D01*
X174212276Y-92628398D01*
X174178959Y-92688962D01*
X174125113Y-92742808D01*
X174125109Y-92742812D01*
X174120184Y-92747738D01*
X174116479Y-92753633D01*
X174116476Y-92753638D01*
X174027912Y-92894587D01*
X174027910Y-92894590D01*
X174024211Y-92900478D01*
X174021915Y-92907036D01*
X174021913Y-92907043D01*
X173966930Y-93064175D01*
X173966928Y-93064182D01*
X173964632Y-93070745D01*
X173963852Y-93077662D01*
X173963852Y-93077665D01*
X173946547Y-93231256D01*
X173944435Y-93250000D01*
X173945215Y-93256923D01*
X173955014Y-93343897D01*
X173964632Y-93429255D01*
X173966928Y-93435819D01*
X173966930Y-93435824D01*
X174021913Y-93592956D01*
X174024211Y-93599522D01*
X174051567Y-93643059D01*
X174114336Y-93742956D01*
X174120184Y-93752262D01*
X174247738Y-93879816D01*
X174400478Y-93975789D01*
X174570745Y-94035368D01*
X174750000Y-94055565D01*
X174929255Y-94035368D01*
X175099522Y-93975789D01*
X175252262Y-93879816D01*
X175379816Y-93752262D01*
X175475789Y-93599522D01*
X175535368Y-93429255D01*
X175555565Y-93250000D01*
X175535368Y-93070745D01*
X175475789Y-92900478D01*
X175459850Y-92875112D01*
X175441508Y-92845920D01*
X175423261Y-92793649D01*
X175429582Y-92738648D01*
X175459210Y-92691879D01*
X175506235Y-92662668D01*
X175604810Y-92628828D01*
X175823509Y-92510474D01*
X176019744Y-92357738D01*
X176187966Y-92175000D01*
X177144341Y-92175000D01*
X177144813Y-92180395D01*
X177164013Y-92399853D01*
X177164937Y-92410408D01*
X177166336Y-92415630D01*
X177166337Y-92415634D01*
X177224694Y-92633430D01*
X177224697Y-92633438D01*
X177226097Y-92638663D01*
X177228385Y-92643570D01*
X177228386Y-92643572D01*
X177323678Y-92847927D01*
X177323681Y-92847933D01*
X177325965Y-92852830D01*
X177329064Y-92857257D01*
X177329066Y-92857259D01*
X177458399Y-93041966D01*
X177458402Y-93041970D01*
X177461505Y-93046401D01*
X177628599Y-93213495D01*
X177633031Y-93216598D01*
X177633033Y-93216600D01*
X177814595Y-93343731D01*
X177853460Y-93388049D01*
X177867471Y-93445306D01*
X177853460Y-93502563D01*
X177814595Y-93546881D01*
X177633352Y-93673788D01*
X177625092Y-93680719D01*
X177465719Y-93840092D01*
X177458784Y-93848357D01*
X177329508Y-94032982D01*
X177324110Y-94042332D01*
X177228856Y-94246602D01*
X177225168Y-94256736D01*
X177173056Y-94451219D01*
X177172688Y-94462448D01*
X177183631Y-94465000D01*
X179816369Y-94465000D01*
X179827311Y-94462448D01*
X179826943Y-94451219D01*
X179774831Y-94256736D01*
X179771143Y-94246602D01*
X179675889Y-94042332D01*
X179670491Y-94032982D01*
X179541215Y-93848357D01*
X179534280Y-93840092D01*
X179374909Y-93680721D01*
X179366643Y-93673784D01*
X179185405Y-93546880D01*
X179146540Y-93502562D01*
X179145913Y-93500000D01*
X181694435Y-93500000D01*
X181695215Y-93506923D01*
X181709773Y-93636135D01*
X181714632Y-93679255D01*
X181716928Y-93685819D01*
X181716930Y-93685824D01*
X181759885Y-93808581D01*
X181774211Y-93849522D01*
X181777912Y-93855412D01*
X181841695Y-93956923D01*
X181870184Y-94002262D01*
X181997738Y-94129816D01*
X182150478Y-94225789D01*
X182320745Y-94285368D01*
X182500000Y-94305565D01*
X182679255Y-94285368D01*
X182849522Y-94225789D01*
X183002262Y-94129816D01*
X183084927Y-94047150D01*
X183140511Y-94015059D01*
X183204698Y-94015059D01*
X183260286Y-94047153D01*
X183278610Y-94065477D01*
X183421810Y-94155456D01*
X183581441Y-94211313D01*
X183749500Y-94230249D01*
X183917559Y-94211313D01*
X184077190Y-94155456D01*
X184220390Y-94065477D01*
X184339977Y-93945890D01*
X184429956Y-93802690D01*
X184485813Y-93643059D01*
X184504749Y-93475000D01*
X184501932Y-93450000D01*
X186044751Y-93450000D01*
X186045531Y-93456923D01*
X186062906Y-93611135D01*
X186062907Y-93611142D01*
X186063687Y-93618059D01*
X186065986Y-93624630D01*
X186065987Y-93624633D01*
X186117113Y-93770745D01*
X186119544Y-93777690D01*
X186209523Y-93920890D01*
X186329110Y-94040477D01*
X186472310Y-94130456D01*
X186631941Y-94186313D01*
X186800000Y-94205249D01*
X186968059Y-94186313D01*
X187127690Y-94130456D01*
X187215947Y-94075000D01*
X202669435Y-94075000D01*
X202670215Y-94081923D01*
X202687463Y-94235010D01*
X202689632Y-94254255D01*
X202691928Y-94260819D01*
X202691930Y-94260824D01*
X202746913Y-94417956D01*
X202749211Y-94424522D01*
X202752912Y-94430412D01*
X202836163Y-94562906D01*
X202845184Y-94577262D01*
X202972738Y-94704816D01*
X203125478Y-94800789D01*
X203295745Y-94860368D01*
X203475000Y-94880565D01*
X203654255Y-94860368D01*
X203824522Y-94800789D01*
X203977262Y-94704816D01*
X204104816Y-94577262D01*
X204200789Y-94424522D01*
X204260368Y-94254255D01*
X204280565Y-94075000D01*
X204260368Y-93895745D01*
X204200789Y-93725478D01*
X204104816Y-93572738D01*
X203977262Y-93445184D01*
X203940896Y-93422334D01*
X203830412Y-93352912D01*
X203824522Y-93349211D01*
X203817959Y-93346914D01*
X203817956Y-93346913D01*
X203660824Y-93291930D01*
X203660819Y-93291928D01*
X203654255Y-93289632D01*
X203647335Y-93288852D01*
X203647334Y-93288852D01*
X203481923Y-93270215D01*
X203475000Y-93269435D01*
X203468077Y-93270215D01*
X203302665Y-93288852D01*
X203302662Y-93288852D01*
X203295745Y-93289632D01*
X203289182Y-93291928D01*
X203289175Y-93291930D01*
X203132043Y-93346913D01*
X203132036Y-93346915D01*
X203125478Y-93349211D01*
X203119590Y-93352910D01*
X203119587Y-93352912D01*
X202978638Y-93441476D01*
X202978633Y-93441479D01*
X202972738Y-93445184D01*
X202967813Y-93450108D01*
X202967809Y-93450112D01*
X202850112Y-93567809D01*
X202850108Y-93567813D01*
X202845184Y-93572738D01*
X202841479Y-93578633D01*
X202841476Y-93578638D01*
X202752912Y-93719587D01*
X202752910Y-93719590D01*
X202749211Y-93725478D01*
X202746915Y-93732036D01*
X202746913Y-93732043D01*
X202691930Y-93889175D01*
X202691928Y-93889182D01*
X202689632Y-93895745D01*
X202688852Y-93902662D01*
X202688852Y-93902665D01*
X202677520Y-94003246D01*
X202669435Y-94075000D01*
X187215947Y-94075000D01*
X187270890Y-94040477D01*
X187390477Y-93920890D01*
X187480456Y-93777690D01*
X187536313Y-93618059D01*
X187555249Y-93450000D01*
X187536313Y-93281941D01*
X187480456Y-93122310D01*
X187390477Y-92979110D01*
X187270890Y-92859523D01*
X187127690Y-92769544D01*
X187121124Y-92767246D01*
X187121121Y-92767245D01*
X186974633Y-92715987D01*
X186974630Y-92715986D01*
X186968059Y-92713687D01*
X186961142Y-92712907D01*
X186961135Y-92712906D01*
X186806923Y-92695531D01*
X186800000Y-92694751D01*
X186793077Y-92695531D01*
X186638864Y-92712906D01*
X186638855Y-92712907D01*
X186631941Y-92713687D01*
X186625371Y-92715985D01*
X186625366Y-92715987D01*
X186478878Y-92767245D01*
X186478872Y-92767247D01*
X186472310Y-92769544D01*
X186466419Y-92773245D01*
X186466418Y-92773246D01*
X186335010Y-92855815D01*
X186335005Y-92855818D01*
X186329110Y-92859523D01*
X186324185Y-92864447D01*
X186324181Y-92864451D01*
X186214451Y-92974181D01*
X186214447Y-92974185D01*
X186209523Y-92979110D01*
X186205818Y-92985005D01*
X186205815Y-92985010D01*
X186143879Y-93083581D01*
X186119544Y-93122310D01*
X186117247Y-93128872D01*
X186117245Y-93128878D01*
X186065987Y-93275366D01*
X186065985Y-93275371D01*
X186063687Y-93281941D01*
X186062907Y-93288855D01*
X186062906Y-93288864D01*
X186049234Y-93410211D01*
X186044751Y-93450000D01*
X184501932Y-93450000D01*
X184501389Y-93445184D01*
X184486593Y-93313864D01*
X184485813Y-93306941D01*
X184429956Y-93147310D01*
X184339977Y-93004110D01*
X184220390Y-92884523D01*
X184077190Y-92794544D01*
X184070624Y-92792246D01*
X184070621Y-92792245D01*
X183924133Y-92740987D01*
X183924130Y-92740986D01*
X183917559Y-92738687D01*
X183910642Y-92737907D01*
X183910635Y-92737906D01*
X183756423Y-92720531D01*
X183749500Y-92719751D01*
X183742577Y-92720531D01*
X183588364Y-92737906D01*
X183588355Y-92737907D01*
X183581441Y-92738687D01*
X183574871Y-92740985D01*
X183574866Y-92740987D01*
X183428378Y-92792245D01*
X183428372Y-92792247D01*
X183421810Y-92794544D01*
X183415919Y-92798245D01*
X183415918Y-92798246D01*
X183284510Y-92880815D01*
X183284505Y-92880818D01*
X183278610Y-92884523D01*
X183273684Y-92889448D01*
X183273680Y-92889452D01*
X183235285Y-92927847D01*
X183179698Y-92959940D01*
X183115511Y-92959940D01*
X183059924Y-92927846D01*
X183007190Y-92875112D01*
X183007189Y-92875111D01*
X183002262Y-92870184D01*
X182947578Y-92835824D01*
X182878223Y-92792245D01*
X182849522Y-92774211D01*
X182842959Y-92771914D01*
X182842956Y-92771913D01*
X182685824Y-92716930D01*
X182685819Y-92716928D01*
X182679255Y-92714632D01*
X182672335Y-92713852D01*
X182672334Y-92713852D01*
X182506923Y-92695215D01*
X182500000Y-92694435D01*
X182493077Y-92695215D01*
X182327665Y-92713852D01*
X182327662Y-92713852D01*
X182320745Y-92714632D01*
X182314182Y-92716928D01*
X182314175Y-92716930D01*
X182157043Y-92771913D01*
X182157036Y-92771915D01*
X182150478Y-92774211D01*
X182144590Y-92777910D01*
X182144587Y-92777912D01*
X182003638Y-92866476D01*
X182003633Y-92866479D01*
X181997738Y-92870184D01*
X181992813Y-92875108D01*
X181992809Y-92875112D01*
X181875112Y-92992809D01*
X181875108Y-92992813D01*
X181870184Y-92997738D01*
X181866479Y-93003633D01*
X181866476Y-93003638D01*
X181777912Y-93144587D01*
X181777910Y-93144590D01*
X181774211Y-93150478D01*
X181771915Y-93157036D01*
X181771913Y-93157043D01*
X181716930Y-93314175D01*
X181716928Y-93314182D01*
X181714632Y-93320745D01*
X181713852Y-93327662D01*
X181713852Y-93327665D01*
X181698154Y-93466996D01*
X181694435Y-93500000D01*
X179145913Y-93500000D01*
X179132529Y-93445305D01*
X179146540Y-93388048D01*
X179185406Y-93343730D01*
X179226980Y-93314620D01*
X179371401Y-93213495D01*
X179538495Y-93046401D01*
X179674035Y-92852830D01*
X179768616Y-92650000D01*
X210269435Y-92650000D01*
X210270215Y-92656923D01*
X210287171Y-92807418D01*
X210289632Y-92829255D01*
X210291928Y-92835819D01*
X210291930Y-92835824D01*
X210344133Y-92985010D01*
X210349211Y-92999522D01*
X210445184Y-93152262D01*
X210572738Y-93279816D01*
X210725478Y-93375789D01*
X210895745Y-93435368D01*
X211075000Y-93455565D01*
X211254255Y-93435368D01*
X211355331Y-93400000D01*
X216094435Y-93400000D01*
X216095215Y-93406923D01*
X216109156Y-93530659D01*
X216114632Y-93579255D01*
X216116928Y-93585819D01*
X216116930Y-93585824D01*
X216171913Y-93742956D01*
X216174211Y-93749522D01*
X216177912Y-93755412D01*
X216232919Y-93842956D01*
X216270184Y-93902262D01*
X216397738Y-94029816D01*
X216550478Y-94125789D01*
X216720745Y-94185368D01*
X216900000Y-94205565D01*
X217079255Y-94185368D01*
X217249522Y-94125789D01*
X217402262Y-94029816D01*
X217529816Y-93902262D01*
X217625789Y-93749522D01*
X217685368Y-93579255D01*
X217705565Y-93400000D01*
X217685368Y-93220745D01*
X217625789Y-93050478D01*
X217529816Y-92897738D01*
X217409321Y-92777243D01*
X217377848Y-92723890D01*
X217376111Y-92661969D01*
X217404543Y-92606935D01*
X217456048Y-92572520D01*
X217577690Y-92529956D01*
X217720890Y-92439977D01*
X217840477Y-92320390D01*
X217930456Y-92177190D01*
X217986313Y-92017559D01*
X218005249Y-91849500D01*
X217986313Y-91681441D01*
X217930456Y-91521810D01*
X217840477Y-91378610D01*
X217799548Y-91337681D01*
X217767454Y-91282094D01*
X217767454Y-91217906D01*
X217799548Y-91162319D01*
X217815746Y-91146121D01*
X217840477Y-91121390D01*
X217930456Y-90978190D01*
X217986313Y-90818559D01*
X218005249Y-90650500D01*
X217986313Y-90482441D01*
X217930456Y-90322810D01*
X217840477Y-90179610D01*
X217720890Y-90060023D01*
X217577690Y-89970044D01*
X217571124Y-89967746D01*
X217571121Y-89967745D01*
X217424633Y-89916487D01*
X217424630Y-89916486D01*
X217418059Y-89914187D01*
X217411142Y-89913407D01*
X217411135Y-89913406D01*
X217256923Y-89896031D01*
X217250000Y-89895251D01*
X217243077Y-89896031D01*
X217088864Y-89913406D01*
X217088855Y-89913407D01*
X217081941Y-89914187D01*
X217075371Y-89916485D01*
X217075366Y-89916487D01*
X216928878Y-89967745D01*
X216928872Y-89967747D01*
X216922310Y-89970044D01*
X216916419Y-89973745D01*
X216916418Y-89973746D01*
X216785010Y-90056315D01*
X216785005Y-90056318D01*
X216779110Y-90060023D01*
X216774185Y-90064947D01*
X216774181Y-90064951D01*
X216664451Y-90174681D01*
X216664447Y-90174685D01*
X216659523Y-90179610D01*
X216655818Y-90185505D01*
X216655815Y-90185510D01*
X216575815Y-90312830D01*
X216569544Y-90322810D01*
X216567247Y-90329372D01*
X216567245Y-90329378D01*
X216515987Y-90475866D01*
X216515985Y-90475871D01*
X216513687Y-90482441D01*
X216512907Y-90489355D01*
X216512906Y-90489364D01*
X216497804Y-90623407D01*
X216494751Y-90650500D01*
X216495531Y-90657423D01*
X216512906Y-90811635D01*
X216512907Y-90811642D01*
X216513687Y-90818559D01*
X216515986Y-90825130D01*
X216515987Y-90825133D01*
X216563968Y-90962257D01*
X216569544Y-90978190D01*
X216659523Y-91121390D01*
X216664451Y-91126318D01*
X216700452Y-91162319D01*
X216732546Y-91217906D01*
X216732546Y-91282094D01*
X216700452Y-91337681D01*
X216664451Y-91373681D01*
X216664447Y-91373685D01*
X216659523Y-91378610D01*
X216655818Y-91384505D01*
X216655815Y-91384510D01*
X216581544Y-91502712D01*
X216569544Y-91521810D01*
X216567247Y-91528372D01*
X216567245Y-91528378D01*
X216515987Y-91674866D01*
X216515985Y-91674871D01*
X216513687Y-91681441D01*
X216512907Y-91688355D01*
X216512906Y-91688364D01*
X216496526Y-91833747D01*
X216494751Y-91849500D01*
X216495531Y-91856423D01*
X216512906Y-92010635D01*
X216512907Y-92010642D01*
X216513687Y-92017559D01*
X216515986Y-92024130D01*
X216515987Y-92024133D01*
X216567198Y-92170487D01*
X216569544Y-92177190D01*
X216659523Y-92320390D01*
X216664451Y-92325318D01*
X216753819Y-92414686D01*
X216785292Y-92468039D01*
X216787029Y-92529960D01*
X216758598Y-92584994D01*
X216707093Y-92619409D01*
X216557043Y-92671913D01*
X216557036Y-92671915D01*
X216550478Y-92674211D01*
X216544590Y-92677910D01*
X216544587Y-92677912D01*
X216403638Y-92766476D01*
X216403633Y-92766479D01*
X216397738Y-92770184D01*
X216392813Y-92775108D01*
X216392809Y-92775112D01*
X216275112Y-92892809D01*
X216275108Y-92892813D01*
X216270184Y-92897738D01*
X216266479Y-92903633D01*
X216266476Y-92903638D01*
X216177912Y-93044587D01*
X216177910Y-93044590D01*
X216174211Y-93050478D01*
X216171915Y-93057036D01*
X216171913Y-93057043D01*
X216116930Y-93214175D01*
X216116928Y-93214182D01*
X216114632Y-93220745D01*
X216113852Y-93227662D01*
X216113852Y-93227665D01*
X216100775Y-93343730D01*
X216094435Y-93400000D01*
X211355331Y-93400000D01*
X211424522Y-93375789D01*
X211577262Y-93279816D01*
X211704816Y-93152262D01*
X211800789Y-92999522D01*
X211860368Y-92829255D01*
X211880565Y-92650000D01*
X211860368Y-92470745D01*
X211800789Y-92300478D01*
X211704816Y-92147738D01*
X211577262Y-92020184D01*
X211424522Y-91924211D01*
X211417959Y-91921914D01*
X211417956Y-91921913D01*
X211260824Y-91866930D01*
X211260819Y-91866928D01*
X211254255Y-91864632D01*
X211247335Y-91863852D01*
X211247334Y-91863852D01*
X211081923Y-91845215D01*
X211075000Y-91844435D01*
X211068077Y-91845215D01*
X210902665Y-91863852D01*
X210902662Y-91863852D01*
X210895745Y-91864632D01*
X210889182Y-91866928D01*
X210889175Y-91866930D01*
X210732043Y-91921913D01*
X210732036Y-91921915D01*
X210725478Y-91924211D01*
X210719590Y-91927910D01*
X210719587Y-91927912D01*
X210578638Y-92016476D01*
X210578633Y-92016479D01*
X210572738Y-92020184D01*
X210567813Y-92025108D01*
X210567809Y-92025112D01*
X210450112Y-92142809D01*
X210450108Y-92142813D01*
X210445184Y-92147738D01*
X210441479Y-92153633D01*
X210441476Y-92153638D01*
X210352912Y-92294587D01*
X210352910Y-92294590D01*
X210349211Y-92300478D01*
X210346915Y-92307036D01*
X210346913Y-92307043D01*
X210291930Y-92464175D01*
X210291928Y-92464182D01*
X210289632Y-92470745D01*
X210288852Y-92477662D01*
X210288852Y-92477665D01*
X210274291Y-92606903D01*
X210269435Y-92650000D01*
X179768616Y-92650000D01*
X179773903Y-92638663D01*
X179835063Y-92410408D01*
X179855659Y-92175000D01*
X179835063Y-91939592D01*
X179773903Y-91711337D01*
X179674035Y-91497171D01*
X179538495Y-91303599D01*
X179371401Y-91136505D01*
X179366968Y-91133401D01*
X179366961Y-91133395D01*
X179185842Y-91006575D01*
X179146976Y-90962257D01*
X179132965Y-90905000D01*
X179146976Y-90847743D01*
X179185842Y-90803425D01*
X179366961Y-90676604D01*
X179366961Y-90676603D01*
X179371401Y-90673495D01*
X179538495Y-90506401D01*
X179577987Y-90450000D01*
X190094435Y-90450000D01*
X190095215Y-90456923D01*
X190100505Y-90503878D01*
X190114632Y-90629255D01*
X190116928Y-90635819D01*
X190116930Y-90635824D01*
X190171913Y-90792956D01*
X190174211Y-90799522D01*
X190270184Y-90952262D01*
X190397738Y-91079816D01*
X190550478Y-91175789D01*
X190720745Y-91235368D01*
X190900000Y-91255565D01*
X191079255Y-91235368D01*
X191249522Y-91175789D01*
X191402262Y-91079816D01*
X191529816Y-90952262D01*
X191625789Y-90799522D01*
X191685368Y-90629255D01*
X191705565Y-90450000D01*
X191685368Y-90270745D01*
X191625789Y-90100478D01*
X191529816Y-89947738D01*
X191402262Y-89820184D01*
X191337967Y-89779785D01*
X191255412Y-89727912D01*
X191249522Y-89724211D01*
X191242959Y-89721914D01*
X191242956Y-89721913D01*
X191085824Y-89666930D01*
X191085819Y-89666928D01*
X191079255Y-89664632D01*
X191072335Y-89663852D01*
X191072334Y-89663852D01*
X190906923Y-89645215D01*
X190900000Y-89644435D01*
X190893077Y-89645215D01*
X190727665Y-89663852D01*
X190727662Y-89663852D01*
X190720745Y-89664632D01*
X190714182Y-89666928D01*
X190714175Y-89666930D01*
X190557043Y-89721913D01*
X190557036Y-89721915D01*
X190550478Y-89724211D01*
X190544590Y-89727910D01*
X190544587Y-89727912D01*
X190403638Y-89816476D01*
X190403633Y-89816479D01*
X190397738Y-89820184D01*
X190392813Y-89825108D01*
X190392809Y-89825112D01*
X190275112Y-89942809D01*
X190275108Y-89942813D01*
X190270184Y-89947738D01*
X190266479Y-89953633D01*
X190266476Y-89953638D01*
X190177912Y-90094587D01*
X190177910Y-90094590D01*
X190174211Y-90100478D01*
X190171915Y-90107036D01*
X190171913Y-90107043D01*
X190116930Y-90264175D01*
X190116928Y-90264182D01*
X190114632Y-90270745D01*
X190113852Y-90277662D01*
X190113852Y-90277665D01*
X190104960Y-90356585D01*
X190094435Y-90450000D01*
X179577987Y-90450000D01*
X179674035Y-90312830D01*
X179773903Y-90098663D01*
X179835063Y-89870408D01*
X179855659Y-89635000D01*
X179835063Y-89399592D01*
X179773903Y-89171337D01*
X179674035Y-88957171D01*
X179563983Y-88800000D01*
X194294435Y-88800000D01*
X194295215Y-88806923D01*
X194313372Y-88968077D01*
X194314632Y-88979255D01*
X194316928Y-88985819D01*
X194316930Y-88985824D01*
X194371427Y-89141567D01*
X194374211Y-89149522D01*
X194377912Y-89155412D01*
X194462524Y-89290072D01*
X194470184Y-89302262D01*
X194597738Y-89429816D01*
X194750478Y-89525789D01*
X194920745Y-89585368D01*
X195100000Y-89605565D01*
X195279255Y-89585368D01*
X195449522Y-89525789D01*
X195602262Y-89429816D01*
X195729816Y-89302262D01*
X195825789Y-89149522D01*
X195885368Y-88979255D01*
X195905565Y-88800000D01*
X195885368Y-88620745D01*
X195825789Y-88450478D01*
X195825754Y-88450423D01*
X195814244Y-88400000D01*
X195825754Y-88349576D01*
X195825789Y-88349522D01*
X195878109Y-88200000D01*
X198744435Y-88200000D01*
X198745215Y-88206923D01*
X198760541Y-88342951D01*
X198764632Y-88379255D01*
X198766928Y-88385819D01*
X198766930Y-88385824D01*
X198816552Y-88527634D01*
X198824211Y-88549522D01*
X198827912Y-88555412D01*
X198899200Y-88668867D01*
X198920184Y-88702262D01*
X199047738Y-88829816D01*
X199200478Y-88925789D01*
X199370745Y-88985368D01*
X199550000Y-89005565D01*
X199729255Y-88985368D01*
X199899522Y-88925789D01*
X199940565Y-88900000D01*
X207994435Y-88900000D01*
X207995215Y-88906923D01*
X208004053Y-88985368D01*
X208014632Y-89079255D01*
X208016928Y-89085819D01*
X208016930Y-89085824D01*
X208070875Y-89239989D01*
X208074211Y-89249522D01*
X208083208Y-89263840D01*
X208162524Y-89390072D01*
X208170184Y-89402262D01*
X208297738Y-89529816D01*
X208450478Y-89625789D01*
X208620745Y-89685368D01*
X208800000Y-89705565D01*
X208979255Y-89685368D01*
X209149522Y-89625789D01*
X209302262Y-89529816D01*
X209429816Y-89402262D01*
X209525789Y-89249522D01*
X209526068Y-89248722D01*
X209560815Y-89206139D01*
X209613792Y-89182788D01*
X209671596Y-89186033D01*
X209721626Y-89215168D01*
X209752976Y-89263840D01*
X209771909Y-89317948D01*
X209771913Y-89317956D01*
X209774211Y-89324522D01*
X209777912Y-89330412D01*
X209854155Y-89451753D01*
X209870184Y-89477262D01*
X209997738Y-89604816D01*
X210150478Y-89700789D01*
X210320745Y-89760368D01*
X210500000Y-89780565D01*
X210679255Y-89760368D01*
X210708885Y-89750000D01*
X218994751Y-89750000D01*
X218995531Y-89756923D01*
X219012906Y-89911135D01*
X219012907Y-89911142D01*
X219013687Y-89918059D01*
X219015986Y-89924630D01*
X219015987Y-89924633D01*
X219062064Y-90056315D01*
X219069544Y-90077690D01*
X219159523Y-90220890D01*
X219279110Y-90340477D01*
X219422310Y-90430456D01*
X219581941Y-90486313D01*
X219665970Y-90495781D01*
X219679540Y-90497310D01*
X219750000Y-90505249D01*
X219918059Y-90486313D01*
X220077690Y-90430456D01*
X220220890Y-90340477D01*
X220340477Y-90220890D01*
X220430456Y-90077690D01*
X220486313Y-89918059D01*
X220505249Y-89750000D01*
X220486313Y-89581941D01*
X220430456Y-89422310D01*
X220340477Y-89279110D01*
X220220890Y-89159523D01*
X220214347Y-89155412D01*
X220181708Y-89134903D01*
X220077690Y-89069544D01*
X220071124Y-89067246D01*
X220071121Y-89067245D01*
X219924633Y-89015987D01*
X219924630Y-89015986D01*
X219918059Y-89013687D01*
X219911142Y-89012907D01*
X219911135Y-89012906D01*
X219756923Y-88995531D01*
X219750000Y-88994751D01*
X219743077Y-88995531D01*
X219588864Y-89012906D01*
X219588855Y-89012907D01*
X219581941Y-89013687D01*
X219575371Y-89015985D01*
X219575366Y-89015987D01*
X219428878Y-89067245D01*
X219428872Y-89067247D01*
X219422310Y-89069544D01*
X219416419Y-89073245D01*
X219416418Y-89073246D01*
X219285010Y-89155815D01*
X219285005Y-89155818D01*
X219279110Y-89159523D01*
X219274185Y-89164447D01*
X219274181Y-89164451D01*
X219164451Y-89274181D01*
X219164447Y-89274185D01*
X219159523Y-89279110D01*
X219155818Y-89285005D01*
X219155815Y-89285010D01*
X219074482Y-89414451D01*
X219069544Y-89422310D01*
X219067247Y-89428872D01*
X219067245Y-89428878D01*
X219015987Y-89575366D01*
X219015985Y-89575371D01*
X219013687Y-89581941D01*
X219012907Y-89588855D01*
X219012906Y-89588864D01*
X218998742Y-89714581D01*
X218994751Y-89750000D01*
X210708885Y-89750000D01*
X210849522Y-89700789D01*
X211002262Y-89604816D01*
X211129816Y-89477262D01*
X211225789Y-89324522D01*
X211285368Y-89154255D01*
X211305565Y-88975000D01*
X211285368Y-88795745D01*
X211225789Y-88625478D01*
X211209780Y-88600000D01*
X216094435Y-88600000D01*
X216095215Y-88606923D01*
X216113372Y-88768077D01*
X216114632Y-88779255D01*
X216116928Y-88785819D01*
X216116930Y-88785824D01*
X216171913Y-88942956D01*
X216174211Y-88949522D01*
X216270184Y-89102262D01*
X216397738Y-89229816D01*
X216550478Y-89325789D01*
X216720745Y-89385368D01*
X216900000Y-89405565D01*
X217079255Y-89385368D01*
X217249522Y-89325789D01*
X217402262Y-89229816D01*
X217529816Y-89102262D01*
X217625789Y-88949522D01*
X217685368Y-88779255D01*
X217705565Y-88600000D01*
X217685368Y-88420745D01*
X217625789Y-88250478D01*
X217529816Y-88097738D01*
X217402262Y-87970184D01*
X217249522Y-87874211D01*
X217242959Y-87871914D01*
X217242956Y-87871913D01*
X217085824Y-87816930D01*
X217085819Y-87816928D01*
X217079255Y-87814632D01*
X217072335Y-87813852D01*
X217072334Y-87813852D01*
X216906923Y-87795215D01*
X216900000Y-87794435D01*
X216893077Y-87795215D01*
X216727665Y-87813852D01*
X216727662Y-87813852D01*
X216720745Y-87814632D01*
X216714182Y-87816928D01*
X216714175Y-87816930D01*
X216557043Y-87871913D01*
X216557036Y-87871915D01*
X216550478Y-87874211D01*
X216544590Y-87877910D01*
X216544587Y-87877912D01*
X216403638Y-87966476D01*
X216403633Y-87966479D01*
X216397738Y-87970184D01*
X216392813Y-87975108D01*
X216392809Y-87975112D01*
X216275112Y-88092809D01*
X216275108Y-88092813D01*
X216270184Y-88097738D01*
X216266479Y-88103633D01*
X216266476Y-88103638D01*
X216177912Y-88244587D01*
X216177910Y-88244590D01*
X216174211Y-88250478D01*
X216171915Y-88257036D01*
X216171913Y-88257043D01*
X216116930Y-88414175D01*
X216116928Y-88414182D01*
X216114632Y-88420745D01*
X216113852Y-88427662D01*
X216113852Y-88427665D01*
X216100862Y-88542956D01*
X216094435Y-88600000D01*
X211209780Y-88600000D01*
X211129816Y-88472738D01*
X211002262Y-88345184D01*
X210849522Y-88249211D01*
X210842959Y-88246914D01*
X210842956Y-88246913D01*
X210685824Y-88191930D01*
X210685819Y-88191928D01*
X210679255Y-88189632D01*
X210672335Y-88188852D01*
X210672334Y-88188852D01*
X210506923Y-88170215D01*
X210500000Y-88169435D01*
X210493077Y-88170215D01*
X210327665Y-88188852D01*
X210327662Y-88188852D01*
X210320745Y-88189632D01*
X210314182Y-88191928D01*
X210314175Y-88191930D01*
X210157043Y-88246913D01*
X210157036Y-88246915D01*
X210150478Y-88249211D01*
X210144590Y-88252910D01*
X210144587Y-88252912D01*
X210003638Y-88341476D01*
X210003633Y-88341479D01*
X209997738Y-88345184D01*
X209992813Y-88350108D01*
X209992809Y-88350112D01*
X209875112Y-88467809D01*
X209875108Y-88467813D01*
X209870184Y-88472738D01*
X209866479Y-88478633D01*
X209866476Y-88478638D01*
X209777913Y-88619584D01*
X209777908Y-88619593D01*
X209774211Y-88625478D01*
X209773929Y-88626282D01*
X209739175Y-88668867D01*
X209686199Y-88692212D01*
X209628397Y-88688964D01*
X209578371Y-88659829D01*
X209547022Y-88611158D01*
X209528087Y-88557045D01*
X209528086Y-88557043D01*
X209525789Y-88550478D01*
X209429816Y-88397738D01*
X209302262Y-88270184D01*
X209276228Y-88253826D01*
X209177722Y-88191930D01*
X209149522Y-88174211D01*
X209142959Y-88171914D01*
X209142956Y-88171913D01*
X208985824Y-88116930D01*
X208985819Y-88116928D01*
X208979255Y-88114632D01*
X208972335Y-88113852D01*
X208972334Y-88113852D01*
X208806923Y-88095215D01*
X208800000Y-88094435D01*
X208793077Y-88095215D01*
X208627665Y-88113852D01*
X208627662Y-88113852D01*
X208620745Y-88114632D01*
X208614182Y-88116928D01*
X208614175Y-88116930D01*
X208457043Y-88171913D01*
X208457036Y-88171915D01*
X208450478Y-88174211D01*
X208444590Y-88177910D01*
X208444587Y-88177912D01*
X208303638Y-88266476D01*
X208303633Y-88266479D01*
X208297738Y-88270184D01*
X208292813Y-88275108D01*
X208292809Y-88275112D01*
X208175112Y-88392809D01*
X208175108Y-88392813D01*
X208170184Y-88397738D01*
X208166479Y-88403633D01*
X208166476Y-88403638D01*
X208077912Y-88544587D01*
X208077910Y-88544590D01*
X208074211Y-88550478D01*
X208071915Y-88557036D01*
X208071913Y-88557043D01*
X208016930Y-88714175D01*
X208016928Y-88714182D01*
X208014632Y-88720745D01*
X208013852Y-88727662D01*
X208013852Y-88727665D01*
X208005702Y-88800000D01*
X207994435Y-88900000D01*
X199940565Y-88900000D01*
X200052262Y-88829816D01*
X200179816Y-88702262D01*
X200275789Y-88549522D01*
X200335368Y-88379255D01*
X200355565Y-88200000D01*
X200335368Y-88020745D01*
X200275789Y-87850478D01*
X200179816Y-87697738D01*
X200052262Y-87570184D01*
X200038177Y-87561334D01*
X199929518Y-87493059D01*
X199899522Y-87474211D01*
X199892959Y-87471914D01*
X199892956Y-87471913D01*
X199735824Y-87416930D01*
X199735819Y-87416928D01*
X199729255Y-87414632D01*
X199722335Y-87413852D01*
X199722334Y-87413852D01*
X199556923Y-87395215D01*
X199550000Y-87394435D01*
X199543077Y-87395215D01*
X199377665Y-87413852D01*
X199377662Y-87413852D01*
X199370745Y-87414632D01*
X199364182Y-87416928D01*
X199364175Y-87416930D01*
X199207043Y-87471913D01*
X199207036Y-87471915D01*
X199200478Y-87474211D01*
X199194590Y-87477910D01*
X199194587Y-87477912D01*
X199053638Y-87566476D01*
X199053633Y-87566479D01*
X199047738Y-87570184D01*
X199042813Y-87575108D01*
X199042809Y-87575112D01*
X198925112Y-87692809D01*
X198925108Y-87692813D01*
X198920184Y-87697738D01*
X198916479Y-87703633D01*
X198916476Y-87703638D01*
X198827912Y-87844587D01*
X198827910Y-87844590D01*
X198824211Y-87850478D01*
X198821915Y-87857036D01*
X198821913Y-87857043D01*
X198766930Y-88014175D01*
X198766928Y-88014182D01*
X198764632Y-88020745D01*
X198763852Y-88027662D01*
X198763852Y-88027665D01*
X198753667Y-88118059D01*
X198744435Y-88200000D01*
X195878109Y-88200000D01*
X195885368Y-88179255D01*
X195905565Y-88000000D01*
X195885368Y-87820745D01*
X195825789Y-87650478D01*
X195729816Y-87497738D01*
X195602262Y-87370184D01*
X195560886Y-87344186D01*
X195455412Y-87277912D01*
X195449522Y-87274211D01*
X195442959Y-87271914D01*
X195442956Y-87271913D01*
X195285824Y-87216930D01*
X195285819Y-87216928D01*
X195279255Y-87214632D01*
X195272335Y-87213852D01*
X195272334Y-87213852D01*
X195106923Y-87195215D01*
X195100000Y-87194435D01*
X195093077Y-87195215D01*
X194927665Y-87213852D01*
X194927662Y-87213852D01*
X194920745Y-87214632D01*
X194914182Y-87216928D01*
X194914175Y-87216930D01*
X194757043Y-87271913D01*
X194757036Y-87271915D01*
X194750478Y-87274211D01*
X194744590Y-87277910D01*
X194744587Y-87277912D01*
X194603638Y-87366476D01*
X194603633Y-87366479D01*
X194597738Y-87370184D01*
X194592813Y-87375108D01*
X194592809Y-87375112D01*
X194475112Y-87492809D01*
X194475108Y-87492813D01*
X194470184Y-87497738D01*
X194466479Y-87503633D01*
X194466476Y-87503638D01*
X194377912Y-87644587D01*
X194377910Y-87644590D01*
X194374211Y-87650478D01*
X194371915Y-87657036D01*
X194371913Y-87657043D01*
X194316930Y-87814175D01*
X194316928Y-87814182D01*
X194314632Y-87820745D01*
X194313852Y-87827662D01*
X194313852Y-87827665D01*
X194304514Y-87910548D01*
X194294435Y-88000000D01*
X194295215Y-88006923D01*
X194313525Y-88169435D01*
X194314632Y-88179255D01*
X194316928Y-88185819D01*
X194316930Y-88185824D01*
X194341851Y-88257043D01*
X194374211Y-88349522D01*
X194374245Y-88349576D01*
X194385755Y-88399994D01*
X194374248Y-88450417D01*
X194374211Y-88450478D01*
X194371914Y-88457039D01*
X194371911Y-88457048D01*
X194316930Y-88614175D01*
X194316928Y-88614182D01*
X194314632Y-88620745D01*
X194313852Y-88627662D01*
X194313852Y-88627665D01*
X194306112Y-88696361D01*
X194294435Y-88800000D01*
X179563983Y-88800000D01*
X179538495Y-88763599D01*
X179416569Y-88641673D01*
X179385273Y-88588927D01*
X179383084Y-88527634D01*
X179410537Y-88472789D01*
X179460916Y-88437810D01*
X179592331Y-88388796D01*
X179707546Y-88302546D01*
X179793796Y-88187331D01*
X179844091Y-88052483D01*
X179850500Y-87992873D01*
X179850499Y-86700000D01*
X189944435Y-86700000D01*
X189945215Y-86706923D01*
X189962463Y-86860010D01*
X189964632Y-86879255D01*
X189966928Y-86885819D01*
X189966930Y-86885824D01*
X190021913Y-87042956D01*
X190024211Y-87049522D01*
X190027912Y-87055412D01*
X190087575Y-87150366D01*
X190120184Y-87202262D01*
X190247738Y-87329816D01*
X190400478Y-87425789D01*
X190570745Y-87485368D01*
X190750000Y-87505565D01*
X190929255Y-87485368D01*
X191099522Y-87425789D01*
X191252262Y-87329816D01*
X191379816Y-87202262D01*
X191475789Y-87049522D01*
X191528109Y-86900000D01*
X205994435Y-86900000D01*
X205995215Y-86906923D01*
X206013301Y-87067448D01*
X206014632Y-87079255D01*
X206016928Y-87085819D01*
X206016930Y-87085824D01*
X206071913Y-87242956D01*
X206074211Y-87249522D01*
X206077912Y-87255412D01*
X206153124Y-87375112D01*
X206170184Y-87402262D01*
X206297738Y-87529816D01*
X206450478Y-87625789D01*
X206620745Y-87685368D01*
X206800000Y-87705565D01*
X206979255Y-87685368D01*
X207149522Y-87625789D01*
X207302262Y-87529816D01*
X207429816Y-87402262D01*
X207525789Y-87249522D01*
X207585368Y-87079255D01*
X207601340Y-86937502D01*
X217449026Y-86937502D01*
X217449114Y-86937840D01*
X217515378Y-87116760D01*
X217520894Y-87128006D01*
X217621819Y-87289926D01*
X217629478Y-87299820D01*
X217760936Y-87438114D01*
X217770427Y-87446262D01*
X217927036Y-87555265D01*
X217937970Y-87561334D01*
X218113318Y-87636581D01*
X218125247Y-87640324D01*
X218312152Y-87678734D01*
X218324598Y-87680000D01*
X218839616Y-87680000D01*
X218898069Y-87694642D01*
X218942718Y-87735109D01*
X218963019Y-87791846D01*
X218954177Y-87851453D01*
X218912423Y-87952254D01*
X218912421Y-87952259D01*
X218909313Y-87959764D01*
X218908252Y-87967815D01*
X218908251Y-87967823D01*
X218895841Y-88062093D01*
X218889534Y-88110000D01*
X218890595Y-88118059D01*
X218908251Y-88252176D01*
X218908252Y-88252182D01*
X218909313Y-88260236D01*
X218912422Y-88267742D01*
X218912423Y-88267745D01*
X218963848Y-88391895D01*
X218967302Y-88400233D01*
X218972245Y-88406674D01*
X218972248Y-88406680D01*
X219054605Y-88514008D01*
X219059549Y-88520451D01*
X219065991Y-88525394D01*
X219173319Y-88607751D01*
X219173322Y-88607753D01*
X219179767Y-88612698D01*
X219319764Y-88670687D01*
X219432280Y-88685500D01*
X219503667Y-88685500D01*
X219507720Y-88685500D01*
X219620236Y-88670687D01*
X219760233Y-88612698D01*
X219880451Y-88520451D01*
X219972698Y-88400233D01*
X220030687Y-88260236D01*
X220050466Y-88110000D01*
X220030687Y-87959764D01*
X219972698Y-87819767D01*
X219967750Y-87813319D01*
X219967748Y-87813315D01*
X219927161Y-87760421D01*
X219904658Y-87712582D01*
X219904128Y-87659717D01*
X219925667Y-87611437D01*
X219965360Y-87576516D01*
X220088716Y-87508047D01*
X220098982Y-87500902D01*
X220243754Y-87376620D01*
X220252385Y-87367541D01*
X220369167Y-87216670D01*
X220375792Y-87206042D01*
X220459817Y-87034743D01*
X220464165Y-87023002D01*
X220484686Y-86943746D01*
X220484845Y-86937502D01*
X221879026Y-86937502D01*
X221879114Y-86937840D01*
X221945378Y-87116760D01*
X221950894Y-87128006D01*
X222051819Y-87289926D01*
X222059478Y-87299820D01*
X222190936Y-87438114D01*
X222200427Y-87446262D01*
X222357036Y-87555265D01*
X222367970Y-87561334D01*
X222543318Y-87636581D01*
X222555247Y-87640324D01*
X222742152Y-87678734D01*
X222754598Y-87680000D01*
X222883674Y-87680000D01*
X222896549Y-87676549D01*
X222900000Y-87663674D01*
X223400000Y-87663674D01*
X223403450Y-87676549D01*
X223416326Y-87680000D01*
X223497570Y-87680000D01*
X223503835Y-87679682D01*
X223646084Y-87665216D01*
X223658335Y-87662698D01*
X223840385Y-87605580D01*
X223851889Y-87600644D01*
X224018720Y-87508045D01*
X224028982Y-87500902D01*
X224173754Y-87376620D01*
X224182385Y-87367541D01*
X224299167Y-87216670D01*
X224305792Y-87206042D01*
X224389817Y-87034743D01*
X224394165Y-87023002D01*
X224414686Y-86943746D01*
X224414971Y-86932535D01*
X224404046Y-86930000D01*
X223416326Y-86930000D01*
X223403450Y-86933450D01*
X223400000Y-86946326D01*
X223400000Y-87663674D01*
X222900000Y-87663674D01*
X222900000Y-86946326D01*
X222896549Y-86933450D01*
X222883674Y-86930000D01*
X221890038Y-86930000D01*
X221879354Y-86932337D01*
X221879026Y-86937502D01*
X220484845Y-86937502D01*
X220484971Y-86932535D01*
X220474046Y-86930000D01*
X217460038Y-86930000D01*
X217449354Y-86932337D01*
X217449026Y-86937502D01*
X207601340Y-86937502D01*
X207605565Y-86900000D01*
X207585368Y-86720745D01*
X207525789Y-86550478D01*
X207448494Y-86427464D01*
X217455028Y-86427464D01*
X217465954Y-86430000D01*
X218703674Y-86430000D01*
X218716549Y-86426549D01*
X218720000Y-86413674D01*
X219220000Y-86413674D01*
X219223450Y-86426549D01*
X219236326Y-86430000D01*
X220479962Y-86430000D01*
X220490645Y-86427662D01*
X220490658Y-86427464D01*
X221885028Y-86427464D01*
X221895954Y-86430000D01*
X222883674Y-86430000D01*
X222896549Y-86426549D01*
X222900000Y-86413674D01*
X223400000Y-86413674D01*
X223403450Y-86426549D01*
X223416326Y-86430000D01*
X224409962Y-86430000D01*
X224420645Y-86427662D01*
X224420973Y-86422497D01*
X224420885Y-86422159D01*
X224354621Y-86243239D01*
X224349105Y-86231993D01*
X224248180Y-86070073D01*
X224240521Y-86060179D01*
X224109063Y-85921885D01*
X224099572Y-85913737D01*
X223942963Y-85804734D01*
X223932029Y-85798665D01*
X223756681Y-85723418D01*
X223744752Y-85719675D01*
X223557847Y-85681265D01*
X223545402Y-85680000D01*
X223416326Y-85680000D01*
X223403450Y-85683450D01*
X223400000Y-85696326D01*
X223400000Y-86413674D01*
X222900000Y-86413674D01*
X222900000Y-85696326D01*
X222896549Y-85683450D01*
X222883674Y-85680000D01*
X222802430Y-85680000D01*
X222796164Y-85680317D01*
X222653915Y-85694783D01*
X222641664Y-85697301D01*
X222459614Y-85754419D01*
X222448110Y-85759355D01*
X222281279Y-85851954D01*
X222271017Y-85859097D01*
X222126245Y-85983379D01*
X222117614Y-85992458D01*
X222000832Y-86143329D01*
X221994207Y-86153957D01*
X221910182Y-86325256D01*
X221905834Y-86336997D01*
X221885313Y-86416253D01*
X221885028Y-86427464D01*
X220490658Y-86427464D01*
X220490973Y-86422497D01*
X220490885Y-86422159D01*
X220424621Y-86243239D01*
X220419105Y-86231993D01*
X220318180Y-86070073D01*
X220310521Y-86060179D01*
X220179063Y-85921885D01*
X220169572Y-85913737D01*
X220012963Y-85804734D01*
X220002029Y-85798665D01*
X219826681Y-85723418D01*
X219814752Y-85719675D01*
X219627847Y-85681265D01*
X219615402Y-85680000D01*
X219236326Y-85680000D01*
X219223450Y-85683450D01*
X219220000Y-85696326D01*
X219220000Y-86413674D01*
X218720000Y-86413674D01*
X218720000Y-85696326D01*
X218716549Y-85683450D01*
X218703674Y-85680000D01*
X218372430Y-85680000D01*
X218366164Y-85680317D01*
X218223915Y-85694783D01*
X218211664Y-85697301D01*
X218029614Y-85754419D01*
X218018110Y-85759355D01*
X217851279Y-85851954D01*
X217841017Y-85859097D01*
X217696245Y-85983379D01*
X217687614Y-85992458D01*
X217570832Y-86143329D01*
X217564207Y-86153957D01*
X217480182Y-86325256D01*
X217475834Y-86336997D01*
X217455313Y-86416253D01*
X217455028Y-86427464D01*
X207448494Y-86427464D01*
X207429816Y-86397738D01*
X207302262Y-86270184D01*
X207260345Y-86243846D01*
X207180728Y-86193819D01*
X207149522Y-86174211D01*
X207142959Y-86171914D01*
X207142956Y-86171913D01*
X206985824Y-86116930D01*
X206985819Y-86116928D01*
X206979255Y-86114632D01*
X206972335Y-86113852D01*
X206972334Y-86113852D01*
X206806923Y-86095215D01*
X206800000Y-86094435D01*
X206793077Y-86095215D01*
X206627665Y-86113852D01*
X206627662Y-86113852D01*
X206620745Y-86114632D01*
X206614182Y-86116928D01*
X206614175Y-86116930D01*
X206457043Y-86171913D01*
X206457036Y-86171915D01*
X206450478Y-86174211D01*
X206444590Y-86177910D01*
X206444587Y-86177912D01*
X206303638Y-86266476D01*
X206303633Y-86266479D01*
X206297738Y-86270184D01*
X206292813Y-86275108D01*
X206292809Y-86275112D01*
X206175112Y-86392809D01*
X206175108Y-86392813D01*
X206170184Y-86397738D01*
X206166479Y-86403633D01*
X206166476Y-86403638D01*
X206077912Y-86544587D01*
X206077910Y-86544590D01*
X206074211Y-86550478D01*
X206071915Y-86557036D01*
X206071913Y-86557043D01*
X206016930Y-86714175D01*
X206016928Y-86714182D01*
X206014632Y-86720745D01*
X206013852Y-86727662D01*
X206013852Y-86727665D01*
X205998941Y-86860010D01*
X205994435Y-86900000D01*
X191528109Y-86900000D01*
X191535368Y-86879255D01*
X191555565Y-86700000D01*
X191535368Y-86520745D01*
X191475789Y-86350478D01*
X191476651Y-86350176D01*
X191465911Y-86299881D01*
X191481334Y-86243377D01*
X191520971Y-86200256D01*
X191575976Y-86180138D01*
X191743059Y-86161313D01*
X191902690Y-86105456D01*
X192045890Y-86015477D01*
X192165477Y-85895890D01*
X192255456Y-85752690D01*
X192311313Y-85593059D01*
X192330249Y-85425000D01*
X192311313Y-85256941D01*
X192255456Y-85097310D01*
X192165477Y-84954110D01*
X192045890Y-84834523D01*
X192030554Y-84824887D01*
X191978742Y-84792331D01*
X191902690Y-84744544D01*
X191896124Y-84742246D01*
X191896121Y-84742245D01*
X191749633Y-84690987D01*
X191749630Y-84690986D01*
X191743059Y-84688687D01*
X191736142Y-84687907D01*
X191736135Y-84687906D01*
X191581923Y-84670531D01*
X191575000Y-84669751D01*
X191568077Y-84670531D01*
X191413864Y-84687906D01*
X191413855Y-84687907D01*
X191406941Y-84688687D01*
X191400371Y-84690985D01*
X191400366Y-84690987D01*
X191253878Y-84742245D01*
X191253872Y-84742247D01*
X191247310Y-84744544D01*
X191241419Y-84748245D01*
X191241418Y-84748246D01*
X191110010Y-84830815D01*
X191110005Y-84830818D01*
X191104110Y-84834523D01*
X191099185Y-84839447D01*
X191099181Y-84839451D01*
X190989451Y-84949181D01*
X190989447Y-84949185D01*
X190984523Y-84954110D01*
X190980818Y-84960005D01*
X190980815Y-84960010D01*
X190921290Y-85054744D01*
X190894544Y-85097310D01*
X190892247Y-85103872D01*
X190892245Y-85103878D01*
X190840987Y-85250366D01*
X190840985Y-85250371D01*
X190838687Y-85256941D01*
X190837907Y-85263855D01*
X190837906Y-85263864D01*
X190825605Y-85373046D01*
X190819751Y-85425000D01*
X190820531Y-85431923D01*
X190837906Y-85586135D01*
X190837907Y-85586142D01*
X190838687Y-85593059D01*
X190840986Y-85599630D01*
X190840987Y-85599633D01*
X190886932Y-85730937D01*
X190892139Y-85792658D01*
X190866842Y-85849197D01*
X190817354Y-85886447D01*
X190763883Y-85894002D01*
X190763883Y-85895215D01*
X190756923Y-85895215D01*
X190750000Y-85894435D01*
X190743077Y-85895215D01*
X190577665Y-85913852D01*
X190577662Y-85913852D01*
X190570745Y-85914632D01*
X190564182Y-85916928D01*
X190564175Y-85916930D01*
X190407043Y-85971913D01*
X190407036Y-85971915D01*
X190400478Y-85974211D01*
X190394590Y-85977910D01*
X190394587Y-85977912D01*
X190253638Y-86066476D01*
X190253633Y-86066479D01*
X190247738Y-86070184D01*
X190242813Y-86075108D01*
X190242809Y-86075112D01*
X190125112Y-86192809D01*
X190125108Y-86192813D01*
X190120184Y-86197738D01*
X190116479Y-86203633D01*
X190116476Y-86203638D01*
X190027912Y-86344587D01*
X190027910Y-86344590D01*
X190024211Y-86350478D01*
X190021915Y-86357036D01*
X190021913Y-86357043D01*
X189966930Y-86514175D01*
X189966928Y-86514182D01*
X189964632Y-86520745D01*
X189963852Y-86527662D01*
X189963852Y-86527665D01*
X189950568Y-86645567D01*
X189944435Y-86700000D01*
X179850499Y-86700000D01*
X179850499Y-86197128D01*
X179844091Y-86137517D01*
X179793796Y-86002669D01*
X179707546Y-85887454D01*
X179645582Y-85841068D01*
X179599431Y-85806519D01*
X179599430Y-85806518D01*
X179592331Y-85801204D01*
X179478053Y-85758581D01*
X179464752Y-85753620D01*
X179464750Y-85753619D01*
X179457483Y-85750909D01*
X179449770Y-85750079D01*
X179449767Y-85750079D01*
X179401180Y-85744855D01*
X179401169Y-85744854D01*
X179397873Y-85744500D01*
X179394550Y-85744500D01*
X177605439Y-85744500D01*
X177605420Y-85744500D01*
X177602128Y-85744501D01*
X177598850Y-85744853D01*
X177598838Y-85744854D01*
X177550231Y-85750079D01*
X177550225Y-85750080D01*
X177542517Y-85750909D01*
X177535252Y-85753618D01*
X177535246Y-85753620D01*
X177415980Y-85798104D01*
X177415978Y-85798104D01*
X177407669Y-85801204D01*
X177400572Y-85806516D01*
X177400568Y-85806519D01*
X177299550Y-85882141D01*
X177299546Y-85882144D01*
X177292454Y-85887454D01*
X177287144Y-85894546D01*
X177287141Y-85894550D01*
X177211519Y-85995568D01*
X177211516Y-85995572D01*
X177206204Y-86002669D01*
X177203104Y-86010978D01*
X177203104Y-86010980D01*
X177158620Y-86130247D01*
X177158619Y-86130250D01*
X177155909Y-86137517D01*
X177155079Y-86145227D01*
X177155079Y-86145232D01*
X177149855Y-86193819D01*
X177149854Y-86193831D01*
X177149500Y-86197127D01*
X177149500Y-86200448D01*
X177149500Y-86200449D01*
X177149500Y-87989560D01*
X177149500Y-87989578D01*
X177149501Y-87992872D01*
X177149853Y-87996150D01*
X177149854Y-87996161D01*
X177155079Y-88044768D01*
X177155080Y-88044773D01*
X177155909Y-88052483D01*
X177158619Y-88059749D01*
X177158620Y-88059753D01*
X177177361Y-88110000D01*
X177206204Y-88187331D01*
X177292454Y-88302546D01*
X177407669Y-88388796D01*
X177493329Y-88420745D01*
X177539082Y-88437810D01*
X177589462Y-88472789D01*
X177616915Y-88527633D01*
X177614726Y-88588926D01*
X177583431Y-88641672D01*
X177461505Y-88763599D01*
X177458402Y-88768029D01*
X177458399Y-88768034D01*
X177329073Y-88952731D01*
X177329068Y-88952738D01*
X177325965Y-88957171D01*
X177323677Y-88962077D01*
X177323675Y-88962081D01*
X177228386Y-89166427D01*
X177228383Y-89166432D01*
X177226097Y-89171337D01*
X177224698Y-89176557D01*
X177224694Y-89176569D01*
X177166337Y-89394365D01*
X177166335Y-89394371D01*
X177164937Y-89399592D01*
X177164465Y-89404977D01*
X177164465Y-89404982D01*
X177146982Y-89604816D01*
X177144341Y-89635000D01*
X177144813Y-89640395D01*
X177160679Y-89821747D01*
X177164937Y-89870408D01*
X177166336Y-89875630D01*
X177166337Y-89875634D01*
X177224694Y-90093430D01*
X177224697Y-90093438D01*
X177226097Y-90098663D01*
X177228385Y-90103570D01*
X177228386Y-90103572D01*
X177323678Y-90307927D01*
X177323681Y-90307933D01*
X177325965Y-90312830D01*
X177329064Y-90317257D01*
X177329066Y-90317259D01*
X177458399Y-90501966D01*
X177458402Y-90501970D01*
X177461505Y-90506401D01*
X177628599Y-90673495D01*
X177633032Y-90676599D01*
X177633038Y-90676604D01*
X177814158Y-90803425D01*
X177853024Y-90847743D01*
X177867035Y-90905000D01*
X177853024Y-90962257D01*
X177814159Y-91006575D01*
X177633041Y-91133395D01*
X177628599Y-91136505D01*
X177624775Y-91140328D01*
X177624769Y-91140334D01*
X177465334Y-91299769D01*
X177465328Y-91299775D01*
X177461505Y-91303599D01*
X177458402Y-91308029D01*
X177458399Y-91308034D01*
X177329073Y-91492731D01*
X177329068Y-91492738D01*
X177325965Y-91497171D01*
X177323677Y-91502077D01*
X177323675Y-91502081D01*
X177228386Y-91706427D01*
X177228383Y-91706432D01*
X177226097Y-91711337D01*
X177224698Y-91716557D01*
X177224694Y-91716569D01*
X177166337Y-91934365D01*
X177166335Y-91934371D01*
X177164937Y-91939592D01*
X177164465Y-91944977D01*
X177164465Y-91944982D01*
X177145695Y-92159523D01*
X177144341Y-92175000D01*
X176187966Y-92175000D01*
X176188164Y-92174785D01*
X176324173Y-91966607D01*
X176424063Y-91738881D01*
X176485108Y-91497821D01*
X176500500Y-91312067D01*
X176500500Y-90687933D01*
X176485108Y-90502179D01*
X176424063Y-90261119D01*
X176324173Y-90033393D01*
X176306879Y-90006923D01*
X176192558Y-89831941D01*
X176188164Y-89825215D01*
X176112551Y-89743077D01*
X176023215Y-89646032D01*
X176023211Y-89646029D01*
X176019744Y-89642262D01*
X175874828Y-89529469D01*
X175827559Y-89492678D01*
X175827557Y-89492676D01*
X175823509Y-89489526D01*
X175818997Y-89487084D01*
X175609316Y-89373610D01*
X175609310Y-89373607D01*
X175604810Y-89371172D01*
X175599969Y-89369510D01*
X175599962Y-89369507D01*
X175374465Y-89292094D01*
X175374461Y-89292093D01*
X175369614Y-89290429D01*
X175360768Y-89288952D01*
X175129398Y-89250344D01*
X175129387Y-89250343D01*
X175124335Y-89249500D01*
X174875665Y-89249500D01*
X174870613Y-89250343D01*
X174870601Y-89250344D01*
X174635443Y-89289585D01*
X174635441Y-89289585D01*
X174630386Y-89290429D01*
X174625541Y-89292092D01*
X174625534Y-89292094D01*
X174400037Y-89369507D01*
X174400026Y-89369511D01*
X174395190Y-89371172D01*
X174390693Y-89373605D01*
X174390683Y-89373610D01*
X174181002Y-89487084D01*
X174180995Y-89487088D01*
X174176491Y-89489526D01*
X174172448Y-89492672D01*
X174172440Y-89492678D01*
X173989586Y-89635000D01*
X173980256Y-89642262D01*
X173976793Y-89646023D01*
X173976784Y-89646032D01*
X173815311Y-89821439D01*
X173815305Y-89821446D01*
X173811836Y-89825215D01*
X173809031Y-89829506D01*
X173809028Y-89829512D01*
X173678631Y-90029099D01*
X173678624Y-90029111D01*
X173675827Y-90033393D01*
X173673772Y-90038077D01*
X173673766Y-90038089D01*
X173587603Y-90234523D01*
X173575937Y-90261119D01*
X173574679Y-90266084D01*
X173574678Y-90266089D01*
X173516151Y-90497204D01*
X173516149Y-90497213D01*
X173514892Y-90502179D01*
X173514468Y-90507288D01*
X173514467Y-90507298D01*
X173499712Y-90685366D01*
X173499711Y-90685383D01*
X173499500Y-90687933D01*
X173499500Y-91312067D01*
X171500500Y-91312067D01*
X171500500Y-90787933D01*
X171485108Y-90602179D01*
X171424063Y-90361119D01*
X171324173Y-90133393D01*
X171291629Y-90083581D01*
X171215950Y-89967745D01*
X171188164Y-89925215D01*
X171184688Y-89921439D01*
X171023215Y-89746032D01*
X171023211Y-89746029D01*
X171019744Y-89742262D01*
X170881934Y-89635000D01*
X170827559Y-89592678D01*
X170827557Y-89592676D01*
X170823509Y-89589526D01*
X170818997Y-89587084D01*
X170609316Y-89473610D01*
X170609310Y-89473607D01*
X170604810Y-89471172D01*
X170599969Y-89469510D01*
X170599962Y-89469507D01*
X170374465Y-89392094D01*
X170374461Y-89392093D01*
X170369614Y-89390429D01*
X170343953Y-89386147D01*
X170129398Y-89350344D01*
X170129387Y-89350343D01*
X170124335Y-89349500D01*
X169875665Y-89349500D01*
X169870613Y-89350343D01*
X169870601Y-89350344D01*
X169635443Y-89389585D01*
X169635441Y-89389585D01*
X169630386Y-89390429D01*
X169625541Y-89392092D01*
X169625534Y-89392094D01*
X169400037Y-89469507D01*
X169400026Y-89469511D01*
X169395190Y-89471172D01*
X169390693Y-89473605D01*
X169390683Y-89473610D01*
X169181002Y-89587084D01*
X169180995Y-89587088D01*
X169176491Y-89589526D01*
X169172448Y-89592672D01*
X169172440Y-89592678D01*
X168984304Y-89739111D01*
X168980256Y-89742262D01*
X168976793Y-89746023D01*
X168976784Y-89746032D01*
X168815311Y-89921439D01*
X168815305Y-89921446D01*
X168811836Y-89925215D01*
X168809031Y-89929506D01*
X168809028Y-89929512D01*
X168678631Y-90129099D01*
X168678624Y-90129111D01*
X168675827Y-90133393D01*
X168673772Y-90138077D01*
X168673766Y-90138089D01*
X168590600Y-90327690D01*
X168575937Y-90361119D01*
X168574679Y-90366084D01*
X168574678Y-90366089D01*
X168516151Y-90597204D01*
X168516149Y-90597213D01*
X168514892Y-90602179D01*
X168514468Y-90607288D01*
X168514467Y-90607298D01*
X168499712Y-90785366D01*
X168499711Y-90785383D01*
X168499500Y-90787933D01*
X168499500Y-91412067D01*
X167492214Y-91412067D01*
X167500500Y-91312067D01*
X167500500Y-90687933D01*
X167485108Y-90502179D01*
X167424063Y-90261119D01*
X167324173Y-90033393D01*
X167306879Y-90006923D01*
X167192558Y-89831941D01*
X167188164Y-89825215D01*
X167112551Y-89743077D01*
X167023215Y-89646032D01*
X167023211Y-89646029D01*
X167019744Y-89642262D01*
X166874828Y-89529469D01*
X166827559Y-89492678D01*
X166827557Y-89492676D01*
X166823509Y-89489526D01*
X166818997Y-89487084D01*
X166609316Y-89373610D01*
X166609310Y-89373607D01*
X166604810Y-89371172D01*
X166599969Y-89369510D01*
X166599962Y-89369507D01*
X166374465Y-89292094D01*
X166374461Y-89292093D01*
X166369614Y-89290429D01*
X166360768Y-89288952D01*
X166129398Y-89250344D01*
X166129387Y-89250343D01*
X166124335Y-89249500D01*
X165875665Y-89249500D01*
X165870613Y-89250343D01*
X165870601Y-89250344D01*
X165635443Y-89289585D01*
X165635441Y-89289585D01*
X165630386Y-89290429D01*
X165625541Y-89292092D01*
X165625534Y-89292094D01*
X165400037Y-89369507D01*
X165400026Y-89369511D01*
X165395190Y-89371172D01*
X165390693Y-89373605D01*
X165390683Y-89373610D01*
X165181002Y-89487084D01*
X165180995Y-89487088D01*
X165176491Y-89489526D01*
X165172448Y-89492672D01*
X165172440Y-89492678D01*
X164989586Y-89635000D01*
X164980256Y-89642262D01*
X164976793Y-89646023D01*
X164976784Y-89646032D01*
X164815311Y-89821439D01*
X164815305Y-89821446D01*
X164811836Y-89825215D01*
X164809031Y-89829506D01*
X164809028Y-89829512D01*
X164678631Y-90029099D01*
X164678624Y-90029111D01*
X164675827Y-90033393D01*
X164673772Y-90038077D01*
X164673766Y-90038089D01*
X164587603Y-90234523D01*
X164575937Y-90261119D01*
X164574679Y-90266084D01*
X164574678Y-90266089D01*
X164516151Y-90497204D01*
X164516149Y-90497213D01*
X164514892Y-90502179D01*
X164514468Y-90507288D01*
X164514467Y-90507298D01*
X164499712Y-90685366D01*
X164499711Y-90685383D01*
X164499500Y-90687933D01*
X164499500Y-91312067D01*
X162500500Y-91312067D01*
X162500500Y-90787933D01*
X162485108Y-90602179D01*
X162424063Y-90361119D01*
X162324173Y-90133393D01*
X162291629Y-90083581D01*
X162215950Y-89967745D01*
X162188164Y-89925215D01*
X162184688Y-89921439D01*
X162023215Y-89746032D01*
X162023211Y-89746029D01*
X162019744Y-89742262D01*
X161881934Y-89635000D01*
X161827559Y-89592678D01*
X161827557Y-89592676D01*
X161823509Y-89589526D01*
X161818997Y-89587084D01*
X161609316Y-89473610D01*
X161609310Y-89473607D01*
X161604810Y-89471172D01*
X161599969Y-89469510D01*
X161599962Y-89469507D01*
X161374465Y-89392094D01*
X161374461Y-89392093D01*
X161369614Y-89390429D01*
X161343953Y-89386147D01*
X161129398Y-89350344D01*
X161129387Y-89350343D01*
X161124335Y-89349500D01*
X160875665Y-89349500D01*
X160870613Y-89350343D01*
X160870601Y-89350344D01*
X160635443Y-89389585D01*
X160635441Y-89389585D01*
X160630386Y-89390429D01*
X160625541Y-89392092D01*
X160625534Y-89392094D01*
X160400037Y-89469507D01*
X160400026Y-89469511D01*
X160395190Y-89471172D01*
X160390693Y-89473605D01*
X160390683Y-89473610D01*
X160197603Y-89578100D01*
X160138728Y-89593045D01*
X160079819Y-89578235D01*
X160035012Y-89537224D01*
X160015058Y-89479852D01*
X159998047Y-89285417D01*
X159996173Y-89274786D01*
X159941822Y-89071949D01*
X159938134Y-89061815D01*
X159849388Y-88871500D01*
X159843990Y-88862150D01*
X159809529Y-88812935D01*
X159801418Y-88805502D01*
X159792139Y-88811413D01*
X158061416Y-90542136D01*
X158055503Y-90551418D01*
X158062936Y-90559530D01*
X158112151Y-90593991D01*
X158121499Y-90599388D01*
X158311819Y-90688135D01*
X158321943Y-90691821D01*
X158524786Y-90746173D01*
X158535418Y-90748047D01*
X158744605Y-90766349D01*
X158755395Y-90766349D01*
X158964581Y-90748047D01*
X158975213Y-90746173D01*
X159178056Y-90691821D01*
X159188176Y-90688137D01*
X159326991Y-90623407D01*
X159390061Y-90612249D01*
X159450286Y-90634051D01*
X159491597Y-90682997D01*
X159502972Y-90746025D01*
X159499500Y-90787933D01*
X159499500Y-90790503D01*
X159499500Y-91261842D01*
X159484214Y-91321485D01*
X159442125Y-91366423D01*
X159383610Y-91385577D01*
X159323097Y-91374224D01*
X159183450Y-91309106D01*
X159178235Y-91307708D01*
X159178228Y-91307706D01*
X158975300Y-91253331D01*
X158975289Y-91253329D01*
X158970068Y-91251930D01*
X158964676Y-91251458D01*
X158964669Y-91251457D01*
X158755395Y-91233149D01*
X158750000Y-91232677D01*
X158744605Y-91233149D01*
X158535330Y-91251457D01*
X158535321Y-91251458D01*
X158529932Y-91251930D01*
X158524711Y-91253328D01*
X158524699Y-91253331D01*
X158321777Y-91307705D01*
X158321772Y-91307706D01*
X158316550Y-91309106D01*
X158311654Y-91311388D01*
X158311643Y-91311393D01*
X158121249Y-91400176D01*
X158121245Y-91400178D01*
X158116339Y-91402466D01*
X158111906Y-91405569D01*
X158111899Y-91405574D01*
X157939815Y-91526068D01*
X157939810Y-91526071D01*
X157935380Y-91529174D01*
X157931556Y-91532997D01*
X157931550Y-91533003D01*
X157783003Y-91681550D01*
X157782997Y-91681556D01*
X157779174Y-91685380D01*
X157776071Y-91689810D01*
X157776068Y-91689815D01*
X157655574Y-91861899D01*
X157655569Y-91861906D01*
X157652466Y-91866339D01*
X157650178Y-91871245D01*
X157650176Y-91871249D01*
X157561393Y-92061643D01*
X157561388Y-92061654D01*
X157559106Y-92066550D01*
X157557706Y-92071772D01*
X157557705Y-92071777D01*
X157503331Y-92274699D01*
X157503328Y-92274711D01*
X157501930Y-92279932D01*
X157501458Y-92285321D01*
X157501457Y-92285330D01*
X157486099Y-92460888D01*
X157482677Y-92500000D01*
X143462654Y-92500000D01*
X143429816Y-92447738D01*
X143302262Y-92320184D01*
X143293198Y-92314489D01*
X143155412Y-92227912D01*
X143149522Y-92224211D01*
X143142959Y-92221914D01*
X143142956Y-92221913D01*
X142985824Y-92166930D01*
X142985819Y-92166928D01*
X142979255Y-92164632D01*
X142972335Y-92163852D01*
X142972334Y-92163852D01*
X142806923Y-92145215D01*
X142800000Y-92144435D01*
X142793077Y-92145215D01*
X142627665Y-92163852D01*
X142627662Y-92163852D01*
X142620745Y-92164632D01*
X142614182Y-92166928D01*
X142614175Y-92166930D01*
X142457048Y-92221911D01*
X142457039Y-92221914D01*
X142450478Y-92224211D01*
X142450417Y-92224248D01*
X142399994Y-92235755D01*
X142349576Y-92224245D01*
X142349522Y-92224211D01*
X142291038Y-92203746D01*
X142185824Y-92166930D01*
X142185819Y-92166928D01*
X142179255Y-92164632D01*
X142172335Y-92163852D01*
X142172334Y-92163852D01*
X142006923Y-92145215D01*
X142000000Y-92144435D01*
X141993077Y-92145215D01*
X141827665Y-92163852D01*
X141827662Y-92163852D01*
X141820745Y-92164632D01*
X141814182Y-92166928D01*
X141814175Y-92166930D01*
X141657043Y-92221913D01*
X141657036Y-92221915D01*
X141650478Y-92224211D01*
X141644590Y-92227910D01*
X141644587Y-92227912D01*
X141503638Y-92316476D01*
X141503633Y-92316479D01*
X141497738Y-92320184D01*
X141492813Y-92325108D01*
X141492809Y-92325112D01*
X141375112Y-92442809D01*
X141375108Y-92442813D01*
X141370184Y-92447738D01*
X141366479Y-92453633D01*
X141366476Y-92453638D01*
X141277912Y-92594587D01*
X141277910Y-92594590D01*
X141274211Y-92600478D01*
X141271915Y-92607036D01*
X141271913Y-92607043D01*
X141216930Y-92764175D01*
X141216928Y-92764182D01*
X141214632Y-92770745D01*
X141213852Y-92777662D01*
X141213852Y-92777665D01*
X141200678Y-92894587D01*
X141194435Y-92950000D01*
X141195215Y-92956923D01*
X141213185Y-93116418D01*
X141214632Y-93129255D01*
X141216928Y-93135819D01*
X141216930Y-93135824D01*
X141270750Y-93289632D01*
X141274211Y-93299522D01*
X141277910Y-93305409D01*
X141277914Y-93305417D01*
X141327309Y-93384029D01*
X141346315Y-93450000D01*
X141327309Y-93515971D01*
X141277914Y-93594582D01*
X141277908Y-93594593D01*
X141274211Y-93600478D01*
X141271915Y-93607036D01*
X141271913Y-93607043D01*
X141216930Y-93764175D01*
X141216928Y-93764182D01*
X141214632Y-93770745D01*
X141213852Y-93777662D01*
X141213852Y-93777665D01*
X141206496Y-93842956D01*
X141194435Y-93950000D01*
X136235013Y-93950000D01*
X136223544Y-93945987D01*
X136223541Y-93945986D01*
X136216970Y-93943687D01*
X136210053Y-93942907D01*
X136210046Y-93942906D01*
X136055834Y-93925531D01*
X136048911Y-93924751D01*
X136041988Y-93925531D01*
X135887775Y-93942906D01*
X135887766Y-93942907D01*
X135880852Y-93943687D01*
X135874282Y-93945985D01*
X135874277Y-93945987D01*
X135727789Y-93997245D01*
X135727783Y-93997247D01*
X135721221Y-93999544D01*
X135715330Y-94003245D01*
X135715329Y-94003246D01*
X135583921Y-94085815D01*
X135583916Y-94085818D01*
X135578021Y-94089523D01*
X135573096Y-94094447D01*
X135573092Y-94094451D01*
X135463362Y-94204181D01*
X135463358Y-94204185D01*
X135458434Y-94209110D01*
X135454729Y-94215005D01*
X135454726Y-94215010D01*
X135387962Y-94321265D01*
X135368455Y-94352310D01*
X135366157Y-94358875D01*
X135366154Y-94358883D01*
X135328044Y-94467795D01*
X135298684Y-94514521D01*
X135251958Y-94543881D01*
X135197120Y-94550060D01*
X135156923Y-94545531D01*
X135150000Y-94544751D01*
X135143077Y-94545531D01*
X134988864Y-94562906D01*
X134988855Y-94562907D01*
X134981941Y-94563687D01*
X134975371Y-94565985D01*
X134975366Y-94565987D01*
X134828878Y-94617245D01*
X134828872Y-94617247D01*
X134822310Y-94619544D01*
X134816419Y-94623245D01*
X134816418Y-94623246D01*
X134685010Y-94705815D01*
X134685005Y-94705818D01*
X134679110Y-94709523D01*
X134674185Y-94714447D01*
X134674181Y-94714451D01*
X134564451Y-94824181D01*
X134564447Y-94824185D01*
X134559523Y-94829110D01*
X134555818Y-94835005D01*
X134555815Y-94835010D01*
X134474137Y-94965000D01*
X134469544Y-94972310D01*
X134467247Y-94978872D01*
X134467245Y-94978878D01*
X134415987Y-95125366D01*
X134415985Y-95125371D01*
X134413687Y-95131941D01*
X134412907Y-95138855D01*
X134412906Y-95138864D01*
X134400441Y-95249500D01*
X134394751Y-95300000D01*
X131705734Y-95300000D01*
X131720890Y-95290477D01*
X131840477Y-95170890D01*
X131930456Y-95027690D01*
X131986313Y-94868059D01*
X132005249Y-94700000D01*
X131986313Y-94531941D01*
X131930456Y-94372310D01*
X131840477Y-94229110D01*
X131720890Y-94109523D01*
X131577690Y-94019544D01*
X131571124Y-94017246D01*
X131571121Y-94017245D01*
X131424633Y-93965987D01*
X131424630Y-93965986D01*
X131418059Y-93963687D01*
X131411142Y-93962907D01*
X131411135Y-93962906D01*
X131256923Y-93945531D01*
X131250000Y-93944751D01*
X131243077Y-93945531D01*
X131088864Y-93962906D01*
X131088855Y-93962907D01*
X131081941Y-93963687D01*
X131075371Y-93965985D01*
X131075366Y-93965987D01*
X130928878Y-94017245D01*
X130928872Y-94017247D01*
X130922310Y-94019544D01*
X130916419Y-94023245D01*
X130916418Y-94023246D01*
X130785010Y-94105815D01*
X130785005Y-94105818D01*
X130779110Y-94109523D01*
X130774185Y-94114447D01*
X130774181Y-94114451D01*
X130664451Y-94224181D01*
X130664447Y-94224185D01*
X130659523Y-94229110D01*
X130655818Y-94235005D01*
X130655815Y-94235010D01*
X130585813Y-94346418D01*
X130569544Y-94372310D01*
X130567247Y-94378872D01*
X130567245Y-94378878D01*
X130515987Y-94525366D01*
X130515985Y-94525371D01*
X130513687Y-94531941D01*
X130512907Y-94538855D01*
X130512906Y-94538864D01*
X130497479Y-94675789D01*
X130494751Y-94700000D01*
X96250500Y-94700000D01*
X96250500Y-91409473D01*
X97500000Y-91409473D01*
X97500212Y-91414609D01*
X97514962Y-91592618D01*
X97516646Y-91602712D01*
X97575153Y-91833747D01*
X97578472Y-91843414D01*
X97674207Y-92061671D01*
X97679072Y-92070661D01*
X97809424Y-92270179D01*
X97815707Y-92278252D01*
X97977127Y-92453600D01*
X97984637Y-92460513D01*
X98172718Y-92606903D01*
X98181276Y-92612495D01*
X98390885Y-92725929D01*
X98400239Y-92730032D01*
X98625658Y-92807418D01*
X98635567Y-92809927D01*
X98736679Y-92826800D01*
X98747636Y-92826233D01*
X98750000Y-92815516D01*
X99250000Y-92815516D01*
X99252363Y-92826233D01*
X99263320Y-92826800D01*
X99364432Y-92809927D01*
X99374341Y-92807418D01*
X99599760Y-92730032D01*
X99609114Y-92725929D01*
X99818723Y-92612495D01*
X99827281Y-92606903D01*
X100015362Y-92460513D01*
X100022872Y-92453600D01*
X100184292Y-92278252D01*
X100190575Y-92270179D01*
X100320927Y-92070661D01*
X100325792Y-92061671D01*
X100421527Y-91843414D01*
X100424846Y-91833747D01*
X100483353Y-91602712D01*
X100485037Y-91592618D01*
X100499787Y-91414609D01*
X100500000Y-91409473D01*
X100500000Y-91366326D01*
X100496549Y-91353450D01*
X100483674Y-91350000D01*
X99266326Y-91350000D01*
X99253450Y-91353450D01*
X99250000Y-91366326D01*
X99250000Y-92815516D01*
X98750000Y-92815516D01*
X98750000Y-91366326D01*
X98746549Y-91353450D01*
X98733674Y-91350000D01*
X97516326Y-91350000D01*
X97503450Y-91353450D01*
X97500000Y-91366326D01*
X97500000Y-91409473D01*
X96250500Y-91409473D01*
X96250500Y-91309473D01*
X102500000Y-91309473D01*
X102500212Y-91314609D01*
X102514962Y-91492618D01*
X102516646Y-91502712D01*
X102575153Y-91733747D01*
X102578472Y-91743414D01*
X102674207Y-91961671D01*
X102679072Y-91970661D01*
X102809424Y-92170179D01*
X102815707Y-92178252D01*
X102977127Y-92353600D01*
X102984637Y-92360513D01*
X103172718Y-92506903D01*
X103181276Y-92512495D01*
X103390885Y-92625929D01*
X103400239Y-92630032D01*
X103625658Y-92707418D01*
X103635567Y-92709927D01*
X103736679Y-92726800D01*
X103747636Y-92726233D01*
X103750000Y-92715516D01*
X104250000Y-92715516D01*
X104252363Y-92726233D01*
X104263320Y-92726800D01*
X104364432Y-92709927D01*
X104374341Y-92707418D01*
X104599760Y-92630032D01*
X104609114Y-92625929D01*
X104818723Y-92512495D01*
X104827281Y-92506903D01*
X105015362Y-92360513D01*
X105022872Y-92353600D01*
X105135003Y-92231794D01*
X136270629Y-92231794D01*
X136271409Y-92238717D01*
X136288784Y-92392929D01*
X136288785Y-92392936D01*
X136289565Y-92399853D01*
X136291864Y-92406424D01*
X136291865Y-92406427D01*
X136335893Y-92532254D01*
X136345422Y-92559484D01*
X136435401Y-92702684D01*
X136554988Y-92822271D01*
X136698188Y-92912250D01*
X136857819Y-92968107D01*
X137025878Y-92987043D01*
X137193937Y-92968107D01*
X137353568Y-92912250D01*
X137496768Y-92822271D01*
X137616355Y-92702684D01*
X137706334Y-92559484D01*
X137762191Y-92399853D01*
X137781127Y-92231794D01*
X137762191Y-92063735D01*
X137706334Y-91904104D01*
X137616355Y-91760904D01*
X137496768Y-91641317D01*
X137353568Y-91551338D01*
X137347002Y-91549040D01*
X137346999Y-91549039D01*
X137200511Y-91497781D01*
X137200508Y-91497780D01*
X137193937Y-91495481D01*
X137187020Y-91494701D01*
X137187013Y-91494700D01*
X137032801Y-91477325D01*
X137025878Y-91476545D01*
X137018955Y-91477325D01*
X136864742Y-91494700D01*
X136864733Y-91494701D01*
X136857819Y-91495481D01*
X136851249Y-91497779D01*
X136851244Y-91497781D01*
X136704756Y-91549039D01*
X136704750Y-91549041D01*
X136698188Y-91551338D01*
X136692297Y-91555039D01*
X136692296Y-91555040D01*
X136560888Y-91637609D01*
X136560883Y-91637612D01*
X136554988Y-91641317D01*
X136550063Y-91646241D01*
X136550059Y-91646245D01*
X136440329Y-91755975D01*
X136440325Y-91755979D01*
X136435401Y-91760904D01*
X136431696Y-91766799D01*
X136431693Y-91766804D01*
X136379732Y-91849500D01*
X136345422Y-91904104D01*
X136343125Y-91910666D01*
X136343123Y-91910672D01*
X136291865Y-92057160D01*
X136291863Y-92057165D01*
X136289565Y-92063735D01*
X136288785Y-92070649D01*
X136288784Y-92070658D01*
X136271742Y-92221912D01*
X136270629Y-92231794D01*
X105135003Y-92231794D01*
X105184292Y-92178252D01*
X105190575Y-92170179D01*
X105320927Y-91970661D01*
X105325792Y-91961671D01*
X105421527Y-91743414D01*
X105424846Y-91733747D01*
X105483353Y-91502712D01*
X105485037Y-91492618D01*
X105499787Y-91314609D01*
X105500000Y-91309473D01*
X105500000Y-91266326D01*
X105496549Y-91253450D01*
X105483674Y-91250000D01*
X104266326Y-91250000D01*
X104253450Y-91253450D01*
X104250000Y-91266326D01*
X104250000Y-92715516D01*
X103750000Y-92715516D01*
X103750000Y-91266326D01*
X103746549Y-91253450D01*
X103733674Y-91250000D01*
X102516326Y-91250000D01*
X102503450Y-91253450D01*
X102500000Y-91266326D01*
X102500000Y-91309473D01*
X96250500Y-91309473D01*
X96250500Y-90833674D01*
X97500000Y-90833674D01*
X97503450Y-90846549D01*
X97516326Y-90850000D01*
X98733674Y-90850000D01*
X98746549Y-90846549D01*
X98750000Y-90833674D01*
X99250000Y-90833674D01*
X99253450Y-90846549D01*
X99266326Y-90850000D01*
X100483674Y-90850000D01*
X100496549Y-90846549D01*
X100500000Y-90833674D01*
X100500000Y-90825000D01*
X137869751Y-90825000D01*
X137870531Y-90831923D01*
X137887906Y-90986135D01*
X137887907Y-90986142D01*
X137888687Y-90993059D01*
X137890986Y-90999630D01*
X137890987Y-90999633D01*
X137939322Y-91137768D01*
X137944544Y-91152690D01*
X137995050Y-91233069D01*
X138026873Y-91283716D01*
X138034523Y-91295890D01*
X138154110Y-91415477D01*
X138297310Y-91505456D01*
X138456941Y-91561313D01*
X138561165Y-91573056D01*
X138613253Y-91591282D01*
X138652275Y-91630304D01*
X138670501Y-91682392D01*
X138664323Y-91737230D01*
X138615987Y-91875366D01*
X138615985Y-91875371D01*
X138613687Y-91881941D01*
X138612907Y-91888855D01*
X138612906Y-91888864D01*
X138597555Y-92025112D01*
X138594751Y-92050000D01*
X138595531Y-92056923D01*
X138612906Y-92211135D01*
X138612907Y-92211142D01*
X138613687Y-92218059D01*
X138615986Y-92224630D01*
X138615987Y-92224633D01*
X138663664Y-92360888D01*
X138669544Y-92377690D01*
X138759523Y-92520890D01*
X138879110Y-92640477D01*
X139022310Y-92730456D01*
X139181941Y-92786313D01*
X139350000Y-92805249D01*
X139518059Y-92786313D01*
X139677690Y-92730456D01*
X139820890Y-92640477D01*
X139940477Y-92520890D01*
X140030456Y-92377690D01*
X140086313Y-92218059D01*
X140105249Y-92050000D01*
X140101889Y-92020184D01*
X140087093Y-91888864D01*
X140086313Y-91881941D01*
X140030456Y-91722310D01*
X139940477Y-91579110D01*
X139820890Y-91459523D01*
X139677690Y-91369544D01*
X139671124Y-91367246D01*
X139671121Y-91367245D01*
X139524633Y-91315987D01*
X139524630Y-91315986D01*
X139518059Y-91313687D01*
X139511140Y-91312907D01*
X139511134Y-91312906D01*
X139413834Y-91301943D01*
X139361745Y-91283716D01*
X139322724Y-91244694D01*
X139304498Y-91192606D01*
X139310677Y-91137768D01*
X139312205Y-91133403D01*
X139361313Y-90993059D01*
X139380249Y-90825000D01*
X139376072Y-90787933D01*
X139363545Y-90676753D01*
X139361313Y-90656941D01*
X139305456Y-90497310D01*
X139215477Y-90354110D01*
X139095890Y-90234523D01*
X138952690Y-90144544D01*
X138946124Y-90142246D01*
X138946121Y-90142245D01*
X138799633Y-90090987D01*
X138799630Y-90090986D01*
X138793059Y-90088687D01*
X138786142Y-90087907D01*
X138786135Y-90087906D01*
X138631923Y-90070531D01*
X138625000Y-90069751D01*
X138618077Y-90070531D01*
X138463864Y-90087906D01*
X138463855Y-90087907D01*
X138456941Y-90088687D01*
X138450371Y-90090985D01*
X138450366Y-90090987D01*
X138303878Y-90142245D01*
X138303872Y-90142247D01*
X138297310Y-90144544D01*
X138291419Y-90148245D01*
X138291418Y-90148246D01*
X138160010Y-90230815D01*
X138160005Y-90230818D01*
X138154110Y-90234523D01*
X138149185Y-90239447D01*
X138149181Y-90239451D01*
X138039451Y-90349181D01*
X138039447Y-90349185D01*
X138034523Y-90354110D01*
X138030818Y-90360005D01*
X138030815Y-90360010D01*
X137951454Y-90486313D01*
X137944544Y-90497310D01*
X137942247Y-90503872D01*
X137942245Y-90503878D01*
X137890987Y-90650366D01*
X137890985Y-90650371D01*
X137888687Y-90656941D01*
X137887907Y-90663855D01*
X137887906Y-90663864D01*
X137872622Y-90799522D01*
X137869751Y-90825000D01*
X100500000Y-90825000D01*
X100500000Y-90790527D01*
X100499787Y-90785390D01*
X100495502Y-90733674D01*
X102500000Y-90733674D01*
X102503450Y-90746549D01*
X102516326Y-90750000D01*
X103733674Y-90750000D01*
X103746549Y-90746549D01*
X103750000Y-90733674D01*
X104250000Y-90733674D01*
X104253450Y-90746549D01*
X104266326Y-90750000D01*
X105483674Y-90750000D01*
X105496549Y-90746549D01*
X105500000Y-90733674D01*
X105500000Y-90690527D01*
X105499787Y-90685390D01*
X105485037Y-90507381D01*
X105483353Y-90497287D01*
X105424846Y-90266252D01*
X105421527Y-90256585D01*
X105325792Y-90038328D01*
X105320927Y-90029338D01*
X105301759Y-90000000D01*
X135069751Y-90000000D01*
X135070531Y-90006923D01*
X135087906Y-90161135D01*
X135087907Y-90161142D01*
X135088687Y-90168059D01*
X135090986Y-90174630D01*
X135090987Y-90174633D01*
X135140774Y-90316918D01*
X135144544Y-90327690D01*
X135234523Y-90470890D01*
X135354110Y-90590477D01*
X135497310Y-90680456D01*
X135656941Y-90736313D01*
X135663864Y-90737093D01*
X135778414Y-90750000D01*
X135825000Y-90755249D01*
X135993059Y-90736313D01*
X136152690Y-90680456D01*
X136295890Y-90590477D01*
X136415477Y-90470890D01*
X136505456Y-90327690D01*
X136561313Y-90168059D01*
X136580249Y-90000000D01*
X136561313Y-89831941D01*
X136505456Y-89672310D01*
X136415477Y-89529110D01*
X136391762Y-89505395D01*
X157483651Y-89505395D01*
X157501952Y-89714581D01*
X157503826Y-89725213D01*
X157558178Y-89928056D01*
X157561864Y-89938180D01*
X157650609Y-90128496D01*
X157656008Y-90137848D01*
X157690470Y-90187065D01*
X157698579Y-90194496D01*
X157707862Y-90188582D01*
X158384903Y-89511541D01*
X158391567Y-89499999D01*
X158384903Y-89488456D01*
X157707859Y-88811413D01*
X157698581Y-88805502D01*
X157690468Y-88812936D01*
X157656006Y-88862154D01*
X157650612Y-88871498D01*
X157561865Y-89061815D01*
X157558177Y-89071949D01*
X157503826Y-89274786D01*
X157501952Y-89285418D01*
X157483651Y-89494605D01*
X157483651Y-89505395D01*
X136391762Y-89505395D01*
X136295890Y-89409523D01*
X136152690Y-89319544D01*
X136146124Y-89317246D01*
X136146121Y-89317245D01*
X135999633Y-89265987D01*
X135999630Y-89265986D01*
X135993059Y-89263687D01*
X135986142Y-89262907D01*
X135986135Y-89262906D01*
X135831923Y-89245531D01*
X135825000Y-89244751D01*
X135818077Y-89245531D01*
X135663864Y-89262906D01*
X135663855Y-89262907D01*
X135656941Y-89263687D01*
X135650371Y-89265985D01*
X135650366Y-89265987D01*
X135503878Y-89317245D01*
X135503872Y-89317247D01*
X135497310Y-89319544D01*
X135491419Y-89323245D01*
X135491418Y-89323246D01*
X135360010Y-89405815D01*
X135360005Y-89405818D01*
X135354110Y-89409523D01*
X135349185Y-89414447D01*
X135349181Y-89414451D01*
X135239451Y-89524181D01*
X135239447Y-89524185D01*
X135234523Y-89529110D01*
X135230818Y-89535005D01*
X135230815Y-89535010D01*
X135149368Y-89664632D01*
X135144544Y-89672310D01*
X135142247Y-89678872D01*
X135142245Y-89678878D01*
X135090987Y-89825366D01*
X135090985Y-89825371D01*
X135088687Y-89831941D01*
X135087907Y-89838855D01*
X135087906Y-89838864D01*
X135074975Y-89953638D01*
X135069751Y-90000000D01*
X105301759Y-90000000D01*
X105190575Y-89829820D01*
X105184292Y-89821747D01*
X105022872Y-89646399D01*
X105015362Y-89639486D01*
X104827281Y-89493096D01*
X104818723Y-89487504D01*
X104609114Y-89374070D01*
X104599760Y-89369967D01*
X104374341Y-89292581D01*
X104364432Y-89290072D01*
X104263320Y-89273199D01*
X104252363Y-89273766D01*
X104250000Y-89284484D01*
X104250000Y-90733674D01*
X103750000Y-90733674D01*
X103750000Y-89284484D01*
X103747636Y-89273766D01*
X103736679Y-89273199D01*
X103635567Y-89290072D01*
X103625658Y-89292581D01*
X103400239Y-89369967D01*
X103390885Y-89374070D01*
X103181276Y-89487504D01*
X103172718Y-89493096D01*
X102984637Y-89639486D01*
X102977127Y-89646399D01*
X102815707Y-89821747D01*
X102809424Y-89829820D01*
X102679072Y-90029338D01*
X102674207Y-90038328D01*
X102578472Y-90256585D01*
X102575153Y-90266252D01*
X102516646Y-90497287D01*
X102514962Y-90507381D01*
X102500212Y-90685390D01*
X102500000Y-90690527D01*
X102500000Y-90733674D01*
X100495502Y-90733674D01*
X100485037Y-90607381D01*
X100483353Y-90597287D01*
X100424846Y-90366252D01*
X100421527Y-90356585D01*
X100325792Y-90138328D01*
X100320927Y-90129338D01*
X100190575Y-89929820D01*
X100184292Y-89921747D01*
X100022872Y-89746399D01*
X100015362Y-89739486D01*
X99827281Y-89593096D01*
X99818723Y-89587504D01*
X99609114Y-89474070D01*
X99599760Y-89469967D01*
X99374341Y-89392581D01*
X99364432Y-89390072D01*
X99263320Y-89373199D01*
X99252363Y-89373766D01*
X99250000Y-89384484D01*
X99250000Y-90833674D01*
X98750000Y-90833674D01*
X98750000Y-89384484D01*
X98747636Y-89373766D01*
X98736679Y-89373199D01*
X98635567Y-89390072D01*
X98625658Y-89392581D01*
X98400239Y-89469967D01*
X98390885Y-89474070D01*
X98181276Y-89587504D01*
X98172718Y-89593096D01*
X97984637Y-89739486D01*
X97977127Y-89746399D01*
X97815707Y-89921747D01*
X97809424Y-89929820D01*
X97679072Y-90129338D01*
X97674207Y-90138328D01*
X97578472Y-90356585D01*
X97575153Y-90366252D01*
X97516646Y-90597287D01*
X97514962Y-90607381D01*
X97500212Y-90785390D01*
X97500000Y-90790527D01*
X97500000Y-90833674D01*
X96250500Y-90833674D01*
X96250500Y-88775000D01*
X128569751Y-88775000D01*
X128570531Y-88781923D01*
X128587906Y-88936135D01*
X128587907Y-88936142D01*
X128588687Y-88943059D01*
X128590986Y-88949630D01*
X128590987Y-88949633D01*
X128636343Y-89079255D01*
X128644544Y-89102690D01*
X128734523Y-89245890D01*
X128854110Y-89365477D01*
X128997310Y-89455456D01*
X129156941Y-89511313D01*
X129163864Y-89512093D01*
X129277411Y-89524887D01*
X129325000Y-89530249D01*
X129493059Y-89511313D01*
X129652690Y-89455456D01*
X129795890Y-89365477D01*
X129915477Y-89245890D01*
X130005456Y-89102690D01*
X130061313Y-88943059D01*
X130080249Y-88775000D01*
X130061313Y-88606941D01*
X130005901Y-88448581D01*
X158055502Y-88448581D01*
X158061413Y-88457859D01*
X158738457Y-89134903D01*
X158749999Y-89141567D01*
X158761542Y-89134903D01*
X159438582Y-88457862D01*
X159444496Y-88448579D01*
X159437065Y-88440470D01*
X159387848Y-88406008D01*
X159378496Y-88400609D01*
X159188180Y-88311864D01*
X159178056Y-88308178D01*
X158975213Y-88253826D01*
X158964581Y-88251952D01*
X158755395Y-88233651D01*
X158744605Y-88233651D01*
X158535418Y-88251952D01*
X158524786Y-88253826D01*
X158321949Y-88308177D01*
X158311815Y-88311865D01*
X158121498Y-88400612D01*
X158112154Y-88406006D01*
X158062936Y-88440468D01*
X158055502Y-88448581D01*
X130005901Y-88448581D01*
X130005456Y-88447310D01*
X129915477Y-88304110D01*
X129795890Y-88184523D01*
X129787130Y-88179019D01*
X129757775Y-88160574D01*
X129652690Y-88094544D01*
X129646124Y-88092246D01*
X129646121Y-88092245D01*
X129499633Y-88040987D01*
X129499630Y-88040986D01*
X129493059Y-88038687D01*
X129486142Y-88037907D01*
X129486135Y-88037906D01*
X129331923Y-88020531D01*
X129325000Y-88019751D01*
X129318077Y-88020531D01*
X129163864Y-88037906D01*
X129163855Y-88037907D01*
X129156941Y-88038687D01*
X129150371Y-88040985D01*
X129150366Y-88040987D01*
X129003878Y-88092245D01*
X129003872Y-88092247D01*
X128997310Y-88094544D01*
X128991419Y-88098245D01*
X128991418Y-88098246D01*
X128860010Y-88180815D01*
X128860005Y-88180818D01*
X128854110Y-88184523D01*
X128849185Y-88189447D01*
X128849181Y-88189451D01*
X128739451Y-88299181D01*
X128739447Y-88299185D01*
X128734523Y-88304110D01*
X128730818Y-88310005D01*
X128730815Y-88310010D01*
X128665364Y-88414175D01*
X128644544Y-88447310D01*
X128642247Y-88453872D01*
X128642245Y-88453878D01*
X128590987Y-88600366D01*
X128590985Y-88600371D01*
X128588687Y-88606941D01*
X128587907Y-88613855D01*
X128587906Y-88613864D01*
X128577391Y-88707190D01*
X128569751Y-88775000D01*
X96250500Y-88775000D01*
X96250500Y-87325000D01*
X131381167Y-87325000D01*
X131381947Y-87331923D01*
X131399322Y-87486135D01*
X131399323Y-87486142D01*
X131400103Y-87493059D01*
X131402402Y-87499630D01*
X131402403Y-87499633D01*
X131453124Y-87644587D01*
X131455960Y-87652690D01*
X131545939Y-87795890D01*
X131665526Y-87915477D01*
X131808726Y-88005456D01*
X131968357Y-88061313D01*
X132136416Y-88080249D01*
X132304475Y-88061313D01*
X132464106Y-88005456D01*
X132607306Y-87915477D01*
X132726893Y-87795890D01*
X132771436Y-87725000D01*
X172144751Y-87725000D01*
X172145531Y-87731923D01*
X172162906Y-87886135D01*
X172162907Y-87886142D01*
X172163687Y-87893059D01*
X172165986Y-87899630D01*
X172165987Y-87899633D01*
X172216771Y-88044767D01*
X172219544Y-88052690D01*
X172257975Y-88113852D01*
X172302380Y-88184523D01*
X172309523Y-88195890D01*
X172429110Y-88315477D01*
X172572310Y-88405456D01*
X172731941Y-88461313D01*
X172900000Y-88480249D01*
X173068059Y-88461313D01*
X173227690Y-88405456D01*
X173370890Y-88315477D01*
X173490477Y-88195890D01*
X173580456Y-88052690D01*
X173636313Y-87893059D01*
X173655249Y-87725000D01*
X173650783Y-87685368D01*
X173637093Y-87563864D01*
X173636313Y-87556941D01*
X173580456Y-87397310D01*
X173490477Y-87254110D01*
X173370890Y-87134523D01*
X173342620Y-87116760D01*
X173244986Y-87055412D01*
X173227690Y-87044544D01*
X173221124Y-87042246D01*
X173221121Y-87042245D01*
X173074633Y-86990987D01*
X173074630Y-86990986D01*
X173068059Y-86988687D01*
X173061142Y-86987907D01*
X173061135Y-86987906D01*
X172906923Y-86970531D01*
X172900000Y-86969751D01*
X172893077Y-86970531D01*
X172738864Y-86987906D01*
X172738855Y-86987907D01*
X172731941Y-86988687D01*
X172725371Y-86990985D01*
X172725366Y-86990987D01*
X172578878Y-87042245D01*
X172578872Y-87042247D01*
X172572310Y-87044544D01*
X172566419Y-87048245D01*
X172566418Y-87048246D01*
X172435010Y-87130815D01*
X172435005Y-87130818D01*
X172429110Y-87134523D01*
X172424185Y-87139447D01*
X172424181Y-87139451D01*
X172314451Y-87249181D01*
X172314447Y-87249185D01*
X172309523Y-87254110D01*
X172305818Y-87260005D01*
X172305815Y-87260010D01*
X172252924Y-87344186D01*
X172219544Y-87397310D01*
X172217247Y-87403872D01*
X172217245Y-87403878D01*
X172165987Y-87550366D01*
X172165985Y-87550371D01*
X172163687Y-87556941D01*
X172162907Y-87563855D01*
X172162906Y-87563864D01*
X172147823Y-87697738D01*
X172144751Y-87725000D01*
X132771436Y-87725000D01*
X132816872Y-87652690D01*
X132872729Y-87493059D01*
X132873509Y-87486135D01*
X132875057Y-87479353D01*
X132876314Y-87479640D01*
X132891481Y-87436293D01*
X132930504Y-87397269D01*
X133020890Y-87340477D01*
X133140477Y-87220890D01*
X133144900Y-87213852D01*
X133184790Y-87150366D01*
X133212372Y-87106469D01*
X133251393Y-87067448D01*
X133303478Y-87049223D01*
X133418059Y-87036313D01*
X133577690Y-86980456D01*
X133720890Y-86890477D01*
X133840477Y-86770890D01*
X133930456Y-86627690D01*
X133965299Y-86528113D01*
X133999713Y-86476610D01*
X134054747Y-86448178D01*
X134116667Y-86449915D01*
X134170021Y-86481388D01*
X134229110Y-86540477D01*
X134372310Y-86630456D01*
X134531941Y-86686313D01*
X134538864Y-86687093D01*
X134653414Y-86700000D01*
X134700000Y-86705249D01*
X134868059Y-86686313D01*
X134948873Y-86658034D01*
X135003711Y-86651856D01*
X135055799Y-86670081D01*
X135072310Y-86680456D01*
X135231941Y-86736313D01*
X135400000Y-86755249D01*
X135568059Y-86736313D01*
X135727690Y-86680456D01*
X135870890Y-86590477D01*
X135990477Y-86470890D01*
X136080456Y-86327690D01*
X136136313Y-86168059D01*
X136155249Y-86000000D01*
X136136313Y-85831941D01*
X136080456Y-85672310D01*
X135990477Y-85529110D01*
X135870890Y-85409523D01*
X135860015Y-85402690D01*
X135805851Y-85368656D01*
X135727690Y-85319544D01*
X135721124Y-85317246D01*
X135721121Y-85317245D01*
X135574633Y-85265987D01*
X135574630Y-85265986D01*
X135568059Y-85263687D01*
X135561142Y-85262907D01*
X135561135Y-85262906D01*
X135446588Y-85250000D01*
X150219435Y-85250000D01*
X150220215Y-85256923D01*
X150238372Y-85418077D01*
X150239632Y-85429255D01*
X150241928Y-85435819D01*
X150241930Y-85435824D01*
X150296913Y-85592956D01*
X150299211Y-85599522D01*
X150302912Y-85605412D01*
X150381784Y-85730937D01*
X150395184Y-85752262D01*
X150522738Y-85879816D01*
X150675478Y-85975789D01*
X150845745Y-86035368D01*
X151025000Y-86055565D01*
X151204255Y-86035368D01*
X151374522Y-85975789D01*
X151527262Y-85879816D01*
X151654816Y-85752262D01*
X151750789Y-85599522D01*
X151803109Y-85450000D01*
X172144751Y-85450000D01*
X172145531Y-85456923D01*
X172162906Y-85611135D01*
X172162907Y-85611142D01*
X172163687Y-85618059D01*
X172165986Y-85624630D01*
X172165987Y-85624633D01*
X172212857Y-85758581D01*
X172219544Y-85777690D01*
X172270696Y-85859097D01*
X172299403Y-85904785D01*
X172309523Y-85920890D01*
X172429110Y-86040477D01*
X172572310Y-86130456D01*
X172731941Y-86186313D01*
X172738864Y-86187093D01*
X172855686Y-86200256D01*
X172900000Y-86205249D01*
X173068059Y-86186313D01*
X173227690Y-86130456D01*
X173370890Y-86040477D01*
X173490477Y-85920890D01*
X173580456Y-85777690D01*
X173636313Y-85618059D01*
X173655249Y-85450000D01*
X173636313Y-85281941D01*
X173580456Y-85122310D01*
X173490477Y-84979110D01*
X173370890Y-84859523D01*
X173227690Y-84769544D01*
X173221124Y-84767246D01*
X173221121Y-84767245D01*
X173074633Y-84715987D01*
X173074630Y-84715986D01*
X173068059Y-84713687D01*
X173061142Y-84712907D01*
X173061135Y-84712906D01*
X172906923Y-84695531D01*
X172900000Y-84694751D01*
X172893077Y-84695531D01*
X172738864Y-84712906D01*
X172738855Y-84712907D01*
X172731941Y-84713687D01*
X172725371Y-84715985D01*
X172725366Y-84715987D01*
X172578878Y-84767245D01*
X172578872Y-84767247D01*
X172572310Y-84769544D01*
X172566419Y-84773245D01*
X172566418Y-84773246D01*
X172435010Y-84855815D01*
X172435005Y-84855818D01*
X172429110Y-84859523D01*
X172424185Y-84864447D01*
X172424181Y-84864451D01*
X172314451Y-84974181D01*
X172314447Y-84974185D01*
X172309523Y-84979110D01*
X172305818Y-84985005D01*
X172305815Y-84985010D01*
X172229212Y-85106923D01*
X172219544Y-85122310D01*
X172217247Y-85128872D01*
X172217245Y-85128878D01*
X172165987Y-85275366D01*
X172165985Y-85275371D01*
X172163687Y-85281941D01*
X172162907Y-85288855D01*
X172162906Y-85288864D01*
X172148756Y-85414451D01*
X172144751Y-85450000D01*
X151803109Y-85450000D01*
X151810368Y-85429255D01*
X151830565Y-85250000D01*
X151810368Y-85070745D01*
X151750789Y-84900478D01*
X151654816Y-84747738D01*
X151527262Y-84620184D01*
X151501680Y-84604110D01*
X151380412Y-84527912D01*
X151374522Y-84524211D01*
X151367959Y-84521914D01*
X151367956Y-84521913D01*
X151210824Y-84466930D01*
X151210819Y-84466928D01*
X151204255Y-84464632D01*
X151197335Y-84463852D01*
X151197334Y-84463852D01*
X151031923Y-84445215D01*
X151025000Y-84444435D01*
X151018077Y-84445215D01*
X150852665Y-84463852D01*
X150852662Y-84463852D01*
X150845745Y-84464632D01*
X150839182Y-84466928D01*
X150839175Y-84466930D01*
X150682043Y-84521913D01*
X150682036Y-84521915D01*
X150675478Y-84524211D01*
X150669590Y-84527910D01*
X150669587Y-84527912D01*
X150528638Y-84616476D01*
X150528633Y-84616479D01*
X150522738Y-84620184D01*
X150517813Y-84625108D01*
X150517809Y-84625112D01*
X150400112Y-84742809D01*
X150400108Y-84742813D01*
X150395184Y-84747738D01*
X150391479Y-84753633D01*
X150391476Y-84753638D01*
X150302912Y-84894587D01*
X150302910Y-84894590D01*
X150299211Y-84900478D01*
X150296915Y-84907036D01*
X150296913Y-84907043D01*
X150241930Y-85064175D01*
X150241928Y-85064182D01*
X150239632Y-85070745D01*
X150238852Y-85077662D01*
X150238852Y-85077665D01*
X150233321Y-85126753D01*
X150219435Y-85250000D01*
X135446588Y-85250000D01*
X135406923Y-85245531D01*
X135400000Y-85244751D01*
X135393077Y-85245531D01*
X135238864Y-85262906D01*
X135238855Y-85262907D01*
X135231941Y-85263687D01*
X135225368Y-85265986D01*
X135225363Y-85265988D01*
X135151123Y-85291965D01*
X135096286Y-85298143D01*
X135044201Y-85279919D01*
X135027690Y-85269544D01*
X135026125Y-85268996D01*
X134988247Y-85239931D01*
X134963745Y-85195597D01*
X134959016Y-85145164D01*
X134961765Y-85120772D01*
X134966922Y-85075000D01*
X134964161Y-85050500D01*
X134950636Y-84930456D01*
X134947986Y-84906941D01*
X134892129Y-84747310D01*
X134802150Y-84604110D01*
X134682563Y-84484523D01*
X134649665Y-84463852D01*
X134620005Y-84445215D01*
X134539363Y-84394544D01*
X134532797Y-84392246D01*
X134532794Y-84392245D01*
X134386306Y-84340987D01*
X134386303Y-84340986D01*
X134379732Y-84338687D01*
X134372815Y-84337907D01*
X134372808Y-84337906D01*
X134218596Y-84320531D01*
X134211673Y-84319751D01*
X134204750Y-84320531D01*
X134050537Y-84337906D01*
X134050528Y-84337907D01*
X134043614Y-84338687D01*
X134037044Y-84340985D01*
X134037039Y-84340987D01*
X133890551Y-84392245D01*
X133890545Y-84392247D01*
X133883983Y-84394544D01*
X133878092Y-84398245D01*
X133878091Y-84398246D01*
X133746683Y-84480815D01*
X133746678Y-84480818D01*
X133740783Y-84484523D01*
X133735858Y-84489447D01*
X133735854Y-84489451D01*
X133626124Y-84599181D01*
X133626120Y-84599185D01*
X133621196Y-84604110D01*
X133617491Y-84610005D01*
X133617488Y-84610010D01*
X133547818Y-84720890D01*
X133531217Y-84747310D01*
X133528920Y-84753872D01*
X133528918Y-84753878D01*
X133477660Y-84900366D01*
X133477658Y-84900371D01*
X133475360Y-84906941D01*
X133474580Y-84913855D01*
X133474579Y-84913864D01*
X133458706Y-85054744D01*
X133456424Y-85075000D01*
X133457204Y-85081922D01*
X133457204Y-85081923D01*
X133474579Y-85236135D01*
X133474580Y-85236142D01*
X133475360Y-85243059D01*
X133477659Y-85249630D01*
X133477660Y-85249633D01*
X133529330Y-85397298D01*
X133534536Y-85459023D01*
X133509235Y-85515565D01*
X133459741Y-85552813D01*
X133398404Y-85561472D01*
X133256923Y-85545531D01*
X133250000Y-85544751D01*
X133243077Y-85545531D01*
X133088864Y-85562906D01*
X133088855Y-85562907D01*
X133081941Y-85563687D01*
X133075371Y-85565985D01*
X133075366Y-85565987D01*
X132928878Y-85617245D01*
X132928872Y-85617247D01*
X132922310Y-85619544D01*
X132916419Y-85623245D01*
X132916418Y-85623246D01*
X132785010Y-85705815D01*
X132785005Y-85705818D01*
X132779110Y-85709523D01*
X132774185Y-85714447D01*
X132774181Y-85714451D01*
X132664451Y-85824181D01*
X132664447Y-85824185D01*
X132659523Y-85829110D01*
X132655819Y-85835004D01*
X132655810Y-85835016D01*
X132587627Y-85943529D01*
X132548606Y-85982551D01*
X132496518Y-86000777D01*
X132388864Y-86012906D01*
X132388855Y-86012907D01*
X132381941Y-86013687D01*
X132375371Y-86015985D01*
X132375366Y-86015987D01*
X132228878Y-86067245D01*
X132228872Y-86067247D01*
X132222310Y-86069544D01*
X132216419Y-86073245D01*
X132216418Y-86073246D01*
X132085010Y-86155815D01*
X132085005Y-86155818D01*
X132079110Y-86159523D01*
X132074185Y-86164447D01*
X132074181Y-86164451D01*
X131964451Y-86274181D01*
X131964447Y-86274185D01*
X131959523Y-86279110D01*
X131955818Y-86285005D01*
X131955815Y-86285010D01*
X131878965Y-86407317D01*
X131869544Y-86422310D01*
X131867247Y-86428872D01*
X131867245Y-86428878D01*
X131824696Y-86550478D01*
X131813687Y-86581941D01*
X131812907Y-86588856D01*
X131811358Y-86595647D01*
X131810103Y-86595360D01*
X131794928Y-86638715D01*
X131755912Y-86677728D01*
X131671422Y-86730817D01*
X131671414Y-86730822D01*
X131665526Y-86734523D01*
X131660604Y-86739444D01*
X131660600Y-86739448D01*
X131550867Y-86849181D01*
X131550863Y-86849185D01*
X131545939Y-86854110D01*
X131542234Y-86860005D01*
X131542231Y-86860010D01*
X131472786Y-86970531D01*
X131455960Y-86997310D01*
X131453663Y-87003872D01*
X131453661Y-87003878D01*
X131402403Y-87150366D01*
X131402401Y-87150371D01*
X131400103Y-87156941D01*
X131399323Y-87163855D01*
X131399322Y-87163864D01*
X131385119Y-87289926D01*
X131381167Y-87325000D01*
X96250500Y-87325000D01*
X96250500Y-83009756D01*
X96252025Y-82990368D01*
X96259639Y-82942291D01*
X96271624Y-82905406D01*
X96289237Y-82870840D01*
X96312033Y-82839464D01*
X96339464Y-82812033D01*
X96370840Y-82789237D01*
X96405406Y-82771624D01*
X96442291Y-82759639D01*
X96490368Y-82752025D01*
X96509756Y-82750500D01*
X96544170Y-82750500D01*
X116455830Y-82750500D01*
X116490244Y-82750500D01*
X116509631Y-82752025D01*
X116557706Y-82759639D01*
X116594595Y-82771625D01*
X116629156Y-82789235D01*
X116660538Y-82812036D01*
X116687963Y-82839461D01*
X116710765Y-82870845D01*
X116724780Y-82898351D01*
X116728372Y-82905399D01*
X116740361Y-82942297D01*
X116747973Y-82990358D01*
X116749500Y-83009756D01*
X116749500Y-84955830D01*
X116749500Y-85000000D01*
X116749500Y-85125198D01*
X116750128Y-85129567D01*
X116750129Y-85129578D01*
X116784504Y-85368656D01*
X116784506Y-85368666D01*
X116785136Y-85373046D01*
X116794758Y-85405815D01*
X116849706Y-85592956D01*
X116855680Y-85613300D01*
X116904260Y-85719675D01*
X116955530Y-85831941D01*
X116959699Y-85841068D01*
X116962088Y-85844785D01*
X116962090Y-85844789D01*
X117090233Y-86044184D01*
X117095073Y-86051715D01*
X117259048Y-86240952D01*
X117448285Y-86404927D01*
X117658932Y-86540301D01*
X117886700Y-86644320D01*
X118126954Y-86714864D01*
X118374802Y-86750500D01*
X118620772Y-86750500D01*
X118625198Y-86750500D01*
X118873046Y-86714864D01*
X119113300Y-86644320D01*
X119341068Y-86540301D01*
X119551715Y-86404927D01*
X119740952Y-86240952D01*
X119904927Y-86051715D01*
X120040301Y-85841068D01*
X120144320Y-85613300D01*
X120214864Y-85373046D01*
X120250500Y-85125198D01*
X120250500Y-85000000D01*
X120250500Y-84955830D01*
X120250500Y-84594578D01*
X121529500Y-84594578D01*
X121529501Y-84597872D01*
X121529853Y-84601150D01*
X121529854Y-84601161D01*
X121535079Y-84649768D01*
X121535080Y-84649773D01*
X121535909Y-84657483D01*
X121538619Y-84664749D01*
X121538620Y-84664753D01*
X121568381Y-84744544D01*
X121586204Y-84792331D01*
X121672454Y-84907546D01*
X121787669Y-84993796D01*
X121922517Y-85044091D01*
X121982127Y-85050500D01*
X123077872Y-85050499D01*
X123137483Y-85044091D01*
X123272331Y-84993796D01*
X123280377Y-84987772D01*
X123281501Y-84987350D01*
X123287216Y-84984230D01*
X123287657Y-84985038D01*
X123345305Y-84963391D01*
X123403433Y-84975638D01*
X123404273Y-84973611D01*
X123409896Y-84975940D01*
X123415273Y-84978814D01*
X123603868Y-85036024D01*
X123800000Y-85055341D01*
X123996132Y-85036024D01*
X124184727Y-84978814D01*
X124358538Y-84885910D01*
X124510883Y-84760883D01*
X124635910Y-84608538D01*
X124728814Y-84434727D01*
X124784851Y-84250000D01*
X135419751Y-84250000D01*
X135420531Y-84256923D01*
X135437906Y-84411135D01*
X135437907Y-84411142D01*
X135438687Y-84418059D01*
X135440986Y-84424630D01*
X135440987Y-84424633D01*
X135486748Y-84555412D01*
X135494544Y-84577690D01*
X135584523Y-84720890D01*
X135704110Y-84840477D01*
X135847310Y-84930456D01*
X136006941Y-84986313D01*
X136090970Y-84995781D01*
X136128414Y-85000000D01*
X136175000Y-85005249D01*
X136343059Y-84986313D01*
X136502690Y-84930456D01*
X136645890Y-84840477D01*
X136765477Y-84720890D01*
X136855456Y-84577690D01*
X136911313Y-84418059D01*
X136930249Y-84250000D01*
X136911313Y-84081941D01*
X136855456Y-83922310D01*
X136765477Y-83779110D01*
X136645890Y-83659523D01*
X136502690Y-83569544D01*
X136496124Y-83567246D01*
X136496121Y-83567245D01*
X136349633Y-83515987D01*
X136349630Y-83515986D01*
X136343059Y-83513687D01*
X136336142Y-83512907D01*
X136336135Y-83512906D01*
X136181923Y-83495531D01*
X136175000Y-83494751D01*
X136168077Y-83495531D01*
X136013864Y-83512906D01*
X136013855Y-83512907D01*
X136006941Y-83513687D01*
X136000371Y-83515985D01*
X136000366Y-83515987D01*
X135853878Y-83567245D01*
X135853872Y-83567247D01*
X135847310Y-83569544D01*
X135841419Y-83573245D01*
X135841418Y-83573246D01*
X135710010Y-83655815D01*
X135710005Y-83655818D01*
X135704110Y-83659523D01*
X135699185Y-83664447D01*
X135699181Y-83664451D01*
X135589451Y-83774181D01*
X135589447Y-83774185D01*
X135584523Y-83779110D01*
X135580818Y-83785005D01*
X135580815Y-83785010D01*
X135530899Y-83864451D01*
X135494544Y-83922310D01*
X135492247Y-83928872D01*
X135492245Y-83928878D01*
X135440987Y-84075366D01*
X135440985Y-84075371D01*
X135438687Y-84081941D01*
X135437907Y-84088855D01*
X135437906Y-84088864D01*
X135420870Y-84240067D01*
X135419751Y-84250000D01*
X124784851Y-84250000D01*
X124786024Y-84246132D01*
X124805341Y-84050000D01*
X124786024Y-83853868D01*
X124728814Y-83665273D01*
X124680622Y-83575112D01*
X124638784Y-83496838D01*
X124638781Y-83496834D01*
X124635910Y-83491462D01*
X124510883Y-83339117D01*
X124358538Y-83214090D01*
X124353167Y-83211219D01*
X124353161Y-83211215D01*
X124190099Y-83124057D01*
X124190095Y-83124055D01*
X124184727Y-83121186D01*
X124178899Y-83119418D01*
X124001962Y-83065744D01*
X124001957Y-83065743D01*
X123996132Y-83063976D01*
X123990073Y-83063379D01*
X123990067Y-83063378D01*
X123806062Y-83045256D01*
X123800000Y-83044659D01*
X123793938Y-83045256D01*
X123609932Y-83063378D01*
X123609924Y-83063379D01*
X123603868Y-83063976D01*
X123598044Y-83065742D01*
X123598037Y-83065744D01*
X123421100Y-83119418D01*
X123421096Y-83119419D01*
X123415273Y-83121186D01*
X123409901Y-83124057D01*
X123404275Y-83126388D01*
X123403441Y-83124375D01*
X123345274Y-83136606D01*
X123287656Y-83114963D01*
X123287216Y-83115770D01*
X123281512Y-83112655D01*
X123280382Y-83112231D01*
X123279431Y-83111519D01*
X123279430Y-83111518D01*
X123272331Y-83106204D01*
X123201965Y-83079959D01*
X123144752Y-83058620D01*
X123144750Y-83058619D01*
X123137483Y-83055909D01*
X123129770Y-83055079D01*
X123129767Y-83055079D01*
X123081180Y-83049855D01*
X123081169Y-83049854D01*
X123077873Y-83049500D01*
X123074550Y-83049500D01*
X121985439Y-83049500D01*
X121985420Y-83049500D01*
X121982128Y-83049501D01*
X121978850Y-83049853D01*
X121978838Y-83049854D01*
X121930231Y-83055079D01*
X121930225Y-83055080D01*
X121922517Y-83055909D01*
X121915252Y-83058618D01*
X121915246Y-83058620D01*
X121795980Y-83103104D01*
X121795978Y-83103104D01*
X121787669Y-83106204D01*
X121780572Y-83111516D01*
X121780568Y-83111519D01*
X121679550Y-83187141D01*
X121679546Y-83187144D01*
X121672454Y-83192454D01*
X121667144Y-83199546D01*
X121667141Y-83199550D01*
X121591519Y-83300568D01*
X121591516Y-83300572D01*
X121586204Y-83307669D01*
X121583104Y-83315978D01*
X121583104Y-83315980D01*
X121538620Y-83435247D01*
X121538619Y-83435250D01*
X121535909Y-83442517D01*
X121535079Y-83450227D01*
X121535079Y-83450232D01*
X121529855Y-83498819D01*
X121529854Y-83498831D01*
X121529500Y-83502127D01*
X121529500Y-83505448D01*
X121529500Y-83505449D01*
X121529500Y-84594560D01*
X121529500Y-84594578D01*
X120250500Y-84594578D01*
X120250500Y-82509756D01*
X120252025Y-82490368D01*
X120259639Y-82442291D01*
X120271624Y-82405406D01*
X120289237Y-82370840D01*
X120312033Y-82339464D01*
X120339464Y-82312033D01*
X120370840Y-82289237D01*
X120405406Y-82271624D01*
X120442291Y-82259639D01*
X120490368Y-82252025D01*
X120509756Y-82250500D01*
X120544170Y-82250500D01*
X179618060Y-82250500D01*
X179674355Y-82264015D01*
G37*
%TD.AperFunction*%
%TD*%
M02*
