%TF.GenerationSoftware,KiCad,Pcbnew,(7.0.0)*%
%TF.CreationDate,2023-05-08T01:10:33+02:00*%
%TF.ProjectId,Stacja Lutownicza V0.1,53746163-6a61-4204-9c75-746f776e6963,rev?*%
%TF.SameCoordinates,Original*%
%TF.FileFunction,Copper,L4,Bot*%
%TF.FilePolarity,Positive*%
%FSLAX46Y46*%
G04 Gerber Fmt 4.6, Leading zero omitted, Abs format (unit mm)*
G04 Created by KiCad (PCBNEW (7.0.0)) date 2023-05-08 01:10:33*
%MOMM*%
%LPD*%
G01*
G04 APERTURE LIST*
G04 Aperture macros list*
%AMRoundRect*
0 Rectangle with rounded corners*
0 $1 Rounding radius*
0 $2 $3 $4 $5 $6 $7 $8 $9 X,Y pos of 4 corners*
0 Add a 4 corners polygon primitive as box body*
4,1,4,$2,$3,$4,$5,$6,$7,$8,$9,$2,$3,0*
0 Add four circle primitives for the rounded corners*
1,1,$1+$1,$2,$3*
1,1,$1+$1,$4,$5*
1,1,$1+$1,$6,$7*
1,1,$1+$1,$8,$9*
0 Add four rect primitives between the rounded corners*
20,1,$1+$1,$2,$3,$4,$5,0*
20,1,$1+$1,$4,$5,$6,$7,0*
20,1,$1+$1,$6,$7,$8,$9,0*
20,1,$1+$1,$8,$9,$2,$3,0*%
%AMFreePoly0*
4,1,15,0.053642,0.377500,0.080000,0.377500,0.111820,0.364320,0.125000,0.332500,0.125000,-0.332500,0.111820,-0.364320,0.080000,-0.377500,-0.080000,-0.377500,-0.111820,-0.364320,-0.125000,-0.332500,-0.125000,0.198860,-0.111820,0.230680,0.021820,0.364320,0.053640,0.377501,0.053642,0.377500,0.053642,0.377500,$1*%
%AMFreePoly1*
4,1,14,-0.021820,0.364320,0.111820,0.230679,0.125000,0.198858,0.125000,-0.332500,0.111820,-0.364320,0.080000,-0.377500,-0.080000,-0.377500,-0.111820,-0.364320,-0.125000,-0.332500,-0.125000,0.332500,-0.111820,0.364320,-0.080000,0.377500,-0.053640,0.377500,-0.021820,0.364320,-0.021820,0.364320,$1*%
%AMFreePoly2*
4,1,14,0.364320,0.111820,0.377500,0.080000,0.377500,-0.080000,0.364320,-0.111820,0.332500,-0.125000,-0.198860,-0.125001,-0.230680,-0.111818,-0.364320,0.021820,-0.377500,0.053640,-0.377500,0.080000,-0.364320,0.111820,-0.332500,0.125000,0.332500,0.125000,0.364320,0.111820,0.364320,0.111820,$1*%
%AMFreePoly3*
4,1,15,-0.198858,0.125000,0.332500,0.125000,0.364320,0.111820,0.377500,0.080000,0.377500,-0.080000,0.364320,-0.111820,0.332500,-0.125000,-0.332500,-0.125000,-0.364320,-0.111820,-0.377500,-0.080000,-0.377500,-0.053640,-0.364321,-0.021819,-0.230680,0.111820,-0.198860,0.125001,-0.198858,0.125000,-0.198858,0.125000,$1*%
%AMFreePoly4*
4,1,14,0.111820,0.364320,0.125000,0.332500,0.125001,-0.198860,0.111818,-0.230680,-0.021820,-0.364320,-0.053640,-0.377500,-0.080000,-0.377500,-0.111820,-0.364320,-0.125000,-0.332500,-0.125000,0.332500,-0.111820,0.364320,-0.080000,0.377500,0.080000,0.377500,0.111820,0.364320,0.111820,0.364320,$1*%
%AMFreePoly5*
4,1,14,0.111820,0.364320,0.125000,0.332500,0.125000,-0.332500,0.111820,-0.364320,0.080000,-0.377500,0.053640,-0.377501,0.021819,-0.364318,-0.111820,-0.230680,-0.125000,-0.198860,-0.125000,0.332500,-0.111820,0.364320,-0.080000,0.377500,0.080000,0.377500,0.111820,0.364320,0.111820,0.364320,$1*%
%AMFreePoly6*
4,1,14,0.230680,0.111820,0.364320,-0.021821,0.377500,-0.053642,0.377500,-0.080000,0.364320,-0.111820,0.332500,-0.125000,-0.332500,-0.125000,-0.364320,-0.111820,-0.377500,-0.080000,-0.377500,0.080000,-0.364320,0.111820,-0.332500,0.125000,0.198860,0.125000,0.230680,0.111820,0.230680,0.111820,$1*%
%AMFreePoly7*
4,1,14,0.364320,0.111820,0.377500,0.080000,0.377501,0.053640,0.364318,0.021819,0.230680,-0.111820,0.198860,-0.125000,-0.332500,-0.125000,-0.364320,-0.111820,-0.377500,-0.080000,-0.377500,0.080000,-0.364320,0.111820,-0.332500,0.125000,0.332500,0.125000,0.364320,0.111820,0.364320,0.111820,$1*%
G04 Aperture macros list end*
%TA.AperFunction,SMDPad,CuDef*%
%ADD10RoundRect,0.200000X0.200000X0.275000X-0.200000X0.275000X-0.200000X-0.275000X0.200000X-0.275000X0*%
%TD*%
%TA.AperFunction,SMDPad,CuDef*%
%ADD11RoundRect,0.188000X0.812000X0.812000X-0.812000X0.812000X-0.812000X-0.812000X0.812000X-0.812000X0*%
%TD*%
%TA.AperFunction,SMDPad,CuDef*%
%ADD12RoundRect,0.075000X0.075000X-0.350000X0.075000X0.350000X-0.075000X0.350000X-0.075000X-0.350000X0*%
%TD*%
%TA.AperFunction,SMDPad,CuDef*%
%ADD13RoundRect,0.075000X0.350000X0.075000X-0.350000X0.075000X-0.350000X-0.075000X0.350000X-0.075000X0*%
%TD*%
%TA.AperFunction,SMDPad,CuDef*%
%ADD14RoundRect,0.225000X0.225000X0.250000X-0.225000X0.250000X-0.225000X-0.250000X0.225000X-0.250000X0*%
%TD*%
%TA.AperFunction,SMDPad,CuDef*%
%ADD15RoundRect,0.200000X0.275000X-0.200000X0.275000X0.200000X-0.275000X0.200000X-0.275000X-0.200000X0*%
%TD*%
%TA.AperFunction,SMDPad,CuDef*%
%ADD16RoundRect,0.250000X-0.512652X-0.159099X-0.159099X-0.512652X0.512652X0.159099X0.159099X0.512652X0*%
%TD*%
%TA.AperFunction,SMDPad,CuDef*%
%ADD17RoundRect,0.250000X-0.625000X0.400000X-0.625000X-0.400000X0.625000X-0.400000X0.625000X0.400000X0*%
%TD*%
%TA.AperFunction,SMDPad,CuDef*%
%ADD18RoundRect,0.200000X-0.200000X-0.275000X0.200000X-0.275000X0.200000X0.275000X-0.200000X0.275000X0*%
%TD*%
%TA.AperFunction,SMDPad,CuDef*%
%ADD19RoundRect,0.150000X-0.587500X-0.150000X0.587500X-0.150000X0.587500X0.150000X-0.587500X0.150000X0*%
%TD*%
%TA.AperFunction,ComponentPad*%
%ADD20R,1.700000X1.700000*%
%TD*%
%TA.AperFunction,ComponentPad*%
%ADD21O,1.700000X1.700000*%
%TD*%
%TA.AperFunction,SMDPad,CuDef*%
%ADD22RoundRect,0.250000X1.000000X0.650000X-1.000000X0.650000X-1.000000X-0.650000X1.000000X-0.650000X0*%
%TD*%
%TA.AperFunction,SMDPad,CuDef*%
%ADD23RoundRect,0.150000X0.150000X-0.587500X0.150000X0.587500X-0.150000X0.587500X-0.150000X-0.587500X0*%
%TD*%
%TA.AperFunction,SMDPad,CuDef*%
%ADD24R,0.800000X1.900000*%
%TD*%
%TA.AperFunction,SMDPad,CuDef*%
%ADD25RoundRect,0.200000X-0.275000X0.200000X-0.275000X-0.200000X0.275000X-0.200000X0.275000X0.200000X0*%
%TD*%
%TA.AperFunction,SMDPad,CuDef*%
%ADD26RoundRect,0.225000X0.250000X-0.225000X0.250000X0.225000X-0.250000X0.225000X-0.250000X-0.225000X0*%
%TD*%
%TA.AperFunction,ComponentPad*%
%ADD27R,1.000000X1.000000*%
%TD*%
%TA.AperFunction,ComponentPad*%
%ADD28O,1.000000X1.000000*%
%TD*%
%TA.AperFunction,SMDPad,CuDef*%
%ADD29RoundRect,0.218750X0.218750X0.256250X-0.218750X0.256250X-0.218750X-0.256250X0.218750X-0.256250X0*%
%TD*%
%TA.AperFunction,SMDPad,CuDef*%
%ADD30RoundRect,0.250000X0.475000X-0.250000X0.475000X0.250000X-0.475000X0.250000X-0.475000X-0.250000X0*%
%TD*%
%TA.AperFunction,SMDPad,CuDef*%
%ADD31RoundRect,0.225000X0.225000X0.375000X-0.225000X0.375000X-0.225000X-0.375000X0.225000X-0.375000X0*%
%TD*%
%TA.AperFunction,SMDPad,CuDef*%
%ADD32RoundRect,0.250000X0.159099X-0.512652X0.512652X-0.159099X-0.159099X0.512652X-0.512652X0.159099X0*%
%TD*%
%TA.AperFunction,SMDPad,CuDef*%
%ADD33R,2.150000X5.500000*%
%TD*%
%TA.AperFunction,SMDPad,CuDef*%
%ADD34RoundRect,0.250000X0.250000X0.475000X-0.250000X0.475000X-0.250000X-0.475000X0.250000X-0.475000X0*%
%TD*%
%TA.AperFunction,ComponentPad*%
%ADD35C,1.524000*%
%TD*%
%TA.AperFunction,SMDPad,CuDef*%
%ADD36RoundRect,0.225000X-0.335876X-0.017678X-0.017678X-0.335876X0.335876X0.017678X0.017678X0.335876X0*%
%TD*%
%TA.AperFunction,SMDPad,CuDef*%
%ADD37RoundRect,0.150000X-0.512500X-0.150000X0.512500X-0.150000X0.512500X0.150000X-0.512500X0.150000X0*%
%TD*%
%TA.AperFunction,SMDPad,CuDef*%
%ADD38RoundRect,0.225000X-0.375000X0.225000X-0.375000X-0.225000X0.375000X-0.225000X0.375000X0.225000X0*%
%TD*%
%TA.AperFunction,SMDPad,CuDef*%
%ADD39R,1.150000X0.300000*%
%TD*%
%TA.AperFunction,ComponentPad*%
%ADD40O,2.100000X1.000000*%
%TD*%
%TA.AperFunction,ComponentPad*%
%ADD41O,1.600000X1.000000*%
%TD*%
%TA.AperFunction,SMDPad,CuDef*%
%ADD42RoundRect,0.225000X0.017678X-0.335876X0.335876X-0.017678X-0.017678X0.335876X-0.335876X0.017678X0*%
%TD*%
%TA.AperFunction,SMDPad,CuDef*%
%ADD43RoundRect,0.225000X-0.225000X-0.250000X0.225000X-0.250000X0.225000X0.250000X-0.225000X0.250000X0*%
%TD*%
%TA.AperFunction,SMDPad,CuDef*%
%ADD44RoundRect,0.150000X-0.150000X0.512500X-0.150000X-0.512500X0.150000X-0.512500X0.150000X0.512500X0*%
%TD*%
%TA.AperFunction,ComponentPad*%
%ADD45O,2.000000X2.500000*%
%TD*%
%TA.AperFunction,SMDPad,CuDef*%
%ADD46FreePoly0,225.000000*%
%TD*%
%TA.AperFunction,SMDPad,CuDef*%
%ADD47RoundRect,0.062500X-0.220971X0.309359X-0.309359X0.220971X0.220971X-0.309359X0.309359X-0.220971X0*%
%TD*%
%TA.AperFunction,SMDPad,CuDef*%
%ADD48FreePoly1,225.000000*%
%TD*%
%TA.AperFunction,SMDPad,CuDef*%
%ADD49FreePoly2,225.000000*%
%TD*%
%TA.AperFunction,SMDPad,CuDef*%
%ADD50RoundRect,0.062500X0.220971X0.309359X-0.309359X-0.220971X-0.220971X-0.309359X0.309359X0.220971X0*%
%TD*%
%TA.AperFunction,SMDPad,CuDef*%
%ADD51FreePoly3,225.000000*%
%TD*%
%TA.AperFunction,SMDPad,CuDef*%
%ADD52FreePoly4,225.000000*%
%TD*%
%TA.AperFunction,SMDPad,CuDef*%
%ADD53FreePoly5,225.000000*%
%TD*%
%TA.AperFunction,SMDPad,CuDef*%
%ADD54FreePoly6,225.000000*%
%TD*%
%TA.AperFunction,SMDPad,CuDef*%
%ADD55FreePoly7,225.000000*%
%TD*%
%TA.AperFunction,SMDPad,CuDef*%
%ADD56RoundRect,0.250000X-1.000000X-0.650000X1.000000X-0.650000X1.000000X0.650000X-1.000000X0.650000X0*%
%TD*%
%TA.AperFunction,SMDPad,CuDef*%
%ADD57RoundRect,0.250000X-0.850000X-0.350000X0.850000X-0.350000X0.850000X0.350000X-0.850000X0.350000X0*%
%TD*%
%TA.AperFunction,SMDPad,CuDef*%
%ADD58RoundRect,0.250000X-1.275000X-1.125000X1.275000X-1.125000X1.275000X1.125000X-1.275000X1.125000X0*%
%TD*%
%TA.AperFunction,SMDPad,CuDef*%
%ADD59RoundRect,0.249997X-2.950003X-2.650003X2.950003X-2.650003X2.950003X2.650003X-2.950003X2.650003X0*%
%TD*%
%TA.AperFunction,SMDPad,CuDef*%
%ADD60RoundRect,0.150000X0.725000X0.150000X-0.725000X0.150000X-0.725000X-0.150000X0.725000X-0.150000X0*%
%TD*%
%TA.AperFunction,ViaPad*%
%ADD61C,0.500000*%
%TD*%
%TA.AperFunction,ViaPad*%
%ADD62C,0.600000*%
%TD*%
%TA.AperFunction,Conductor*%
%ADD63C,0.500000*%
%TD*%
%TA.AperFunction,Conductor*%
%ADD64C,0.250000*%
%TD*%
%TA.AperFunction,Conductor*%
%ADD65C,0.600000*%
%TD*%
%TA.AperFunction,Conductor*%
%ADD66C,0.950000*%
%TD*%
%TA.AperFunction,Conductor*%
%ADD67C,0.200000*%
%TD*%
%TA.AperFunction,Conductor*%
%ADD68C,0.300000*%
%TD*%
G04 APERTURE END LIST*
D10*
%TO.P,R28,2*%
%TO.N,Net-(U5-VBUS_MAX)*%
X188450000Y-87450000D03*
%TO.P,R28,1*%
%TO.N,+3V3*%
X190100000Y-87450000D03*
%TD*%
D11*
%TO.P,U5,*%
%TO.N,*%
X184650000Y-90600000D03*
D12*
%TO.P,U5,24,VCCD*%
%TO.N,Net-(U5-VCCD)*%
X185900000Y-88650000D03*
%TO.P,U5,23,VDDD*%
%TO.N,+3V3*%
X185400000Y-88650000D03*
%TO.P,U5,22,GND*%
%TO.N,GND*%
X184900000Y-88650000D03*
%TO.P,U5,21,DNU2*%
%TO.N,unconnected-(U5-DNU2-Pad21)*%
X184400000Y-88650000D03*
%TO.P,U5,20,DNU1*%
%TO.N,unconnected-(U5-DNU1-Pad20)*%
X183900000Y-88650000D03*
%TO.P,U5,19,GND*%
%TO.N,GND*%
X183400000Y-88650000D03*
D13*
%TO.P,U5,18,VBUS_IN*%
%TO.N,VBUS*%
X182700000Y-89350000D03*
%TO.P,U5,17,D+*%
%TO.N,unconnected-(U5-D+-Pad17)*%
X182700000Y-89850000D03*
%TO.P,U5,16,D-*%
%TO.N,unconnected-(U5-D--Pad16)*%
X182700000Y-90350000D03*
%TO.P,U5,15,CC1*%
%TO.N,CC1*%
X182700000Y-90850000D03*
%TO.P,U5,14,CC2*%
%TO.N,CC2*%
X182700000Y-91350000D03*
%TO.P,U5,13,HPI_SCL*%
%TO.N,SCL*%
X182700000Y-91850000D03*
D12*
%TO.P,U5,12,HPI_SDA*%
%TO.N,SDA*%
X183400000Y-92550000D03*
%TO.P,U5,11,VDC_OUT*%
%TO.N,VDC*%
X183900000Y-92550000D03*
%TO.P,U5,10,FLIP*%
%TO.N,FLIP*%
X184400000Y-92550000D03*
%TO.P,U5,9,FAULT*%
%TO.N,Net-(U5-FAULT)*%
X184900000Y-92550000D03*
%TO.P,U5,8,GPIO_1*%
%TO.N,unconnected-(U5-GPIO_1-Pad8)*%
X185400000Y-92550000D03*
%TO.P,U5,7,HPI_INT*%
%TO.N,INT*%
X185900000Y-92550000D03*
D13*
%TO.P,U5,6,ISNK_FINE*%
%TO.N,Net-(U5-ISNK_FINE)*%
X186600000Y-91850000D03*
%TO.P,U5,5,ISNK_COARSE*%
%TO.N,Net-(U5-ISNK_COARSE)*%
X186600000Y-91350000D03*
%TO.P,U5,4,SAFE_PWR_EN*%
%TO.N,Net-(U5-SAFE_PWR_EN)*%
X186600000Y-90850000D03*
%TO.P,U5,3,VBUS_FET_EN*%
%TO.N,Net-(U5-VBUS_FET_EN)*%
X186600000Y-90350000D03*
%TO.P,U5,2,VBUS_MAX*%
%TO.N,Net-(U5-VBUS_MAX)*%
X186600000Y-89850000D03*
%TO.P,U5,1,VBUS_MIN*%
%TO.N,Net-(U5-VBUS_MIN)*%
X186600000Y-89350000D03*
%TD*%
D14*
%TO.P,C15,1*%
%TO.N,NRST*%
X134525000Y-83250000D03*
%TO.P,C15,2*%
%TO.N,GND*%
X132975000Y-83250000D03*
%TD*%
D15*
%TO.P,R17,1*%
%TO.N,Net-(U2B--)*%
X147250000Y-87000000D03*
%TO.P,R17,2*%
%TO.N,T12_Thermocouple*%
X147250000Y-85350000D03*
%TD*%
D16*
%TO.P,C25,1*%
%TO.N,+3V3*%
X131706498Y-93380241D03*
%TO.P,C25,2*%
%TO.N,GND*%
X133050000Y-94723743D03*
%TD*%
D10*
%TO.P,R15,1*%
%TO.N,T12_V+*%
X150800000Y-89700000D03*
%TO.P,R15,2*%
%TO.N,Net-(D5-K)*%
X149150000Y-89700000D03*
%TD*%
D17*
%TO.P,R7,1*%
%TO.N,GND*%
X160900000Y-83750000D03*
%TO.P,R7,2*%
%TO.N,T12_V-*%
X160900000Y-86850000D03*
%TD*%
D14*
%TO.P,C6,1*%
%TO.N,GND*%
X158375000Y-83205000D03*
%TO.P,C6,2*%
%TO.N,T12_Current*%
X156825000Y-83205000D03*
%TD*%
%TO.P,C12,2*%
%TO.N,GND*%
X183497382Y-86800000D03*
%TO.P,C12,1*%
%TO.N,+3V3*%
X185047382Y-86800000D03*
%TD*%
D10*
%TO.P,R32,1*%
%TO.N,+3V3*%
X190100000Y-94950000D03*
%TO.P,R32,2*%
%TO.N,Net-(U5-ISNK_COARSE)*%
X188450000Y-94950000D03*
%TD*%
%TO.P,R6,2*%
%TO.N,GND*%
X200500000Y-86700000D03*
%TO.P,R6,1*%
%TO.N,Net-(U1-FB)*%
X202150000Y-86700000D03*
%TD*%
D18*
%TO.P,R33,2*%
%TO.N,GND*%
X190100000Y-93450000D03*
%TO.P,R33,1*%
%TO.N,Net-(U5-ISNK_COARSE)*%
X188450000Y-93450000D03*
%TD*%
D10*
%TO.P,R20,2*%
%TO.N,Net-(D6-A)*%
X125775000Y-83250000D03*
%TO.P,R20,1*%
%TO.N,U_LED*%
X127425000Y-83250000D03*
%TD*%
%TO.P,R34,2*%
%TO.N,Net-(U5-ISNK_FINE)*%
X188450000Y-96450000D03*
%TO.P,R34,1*%
%TO.N,+3V3*%
X190100000Y-96450000D03*
%TD*%
D15*
%TO.P,R25,2*%
%TO.N,SCL*%
X181250000Y-93000000D03*
%TO.P,R25,1*%
%TO.N,+3V3*%
X181250000Y-94650000D03*
%TD*%
%TO.P,R39,2*%
%TO.N,Net-(J3-D--PadA7)*%
X215675000Y-91500000D03*
%TO.P,R39,1*%
%TO.N,USB_CONN_D-*%
X215675000Y-93150000D03*
%TD*%
D19*
%TO.P,U3,3,GND*%
%TO.N,GND*%
X141825000Y-90500000D03*
%TO.P,U3,2,V_{OUT}*%
%TO.N,TEMP_AMBIENT*%
X139950000Y-89550000D03*
%TO.P,U3,1,V_{DD}*%
%TO.N,+3V3*%
X139950000Y-91450000D03*
%TD*%
D20*
%TO.P,OLED1,1,SDA*%
%TO.N,SDA*%
X178499999Y-87094999D03*
D21*
%TO.P,OLED1,2,SCL*%
%TO.N,SCL*%
X178499999Y-89634999D03*
%TO.P,OLED1,3,VCC*%
%TO.N,+3V3*%
X178499999Y-92174999D03*
%TO.P,OLED1,4,GND*%
%TO.N,GND*%
X178499999Y-94714999D03*
%TD*%
D22*
%TO.P,D3,2,A*%
%TO.N,GND*%
X197550000Y-97400000D03*
%TO.P,D3,1,K*%
%TO.N,Net-(D3-K)*%
X201550000Y-97400000D03*
%TD*%
D23*
%TO.P,Q1,3,D*%
%TO.N,VCCQ*%
X206600000Y-92187500D03*
%TO.P,Q1,2,S*%
%TO.N,VDC*%
X205650000Y-94062500D03*
%TO.P,Q1,1,G*%
%TO.N,Net-(Q1-G)*%
X207550000Y-94062500D03*
%TD*%
D24*
%TO.P,Q4,1,B*%
%TO.N,Net-(Q4-B)*%
X138799999Y-95149999D03*
%TO.P,Q4,2,E*%
%TO.N,GND*%
X140699999Y-95149999D03*
%TO.P,Q4,3,C*%
%TO.N,Net-(D4-A)*%
X139749999Y-98149999D03*
%TD*%
D25*
%TO.P,R8,1*%
%TO.N,VDC*%
X143350000Y-95325000D03*
%TO.P,R8,2*%
%TO.N,Net-(D4-A)*%
X143350000Y-96975000D03*
%TD*%
%TO.P,R10,1*%
%TO.N,T12_PWM*%
X137150000Y-93975000D03*
%TO.P,R10,2*%
%TO.N,Net-(Q4-B)*%
X137150000Y-95625000D03*
%TD*%
D10*
%TO.P,R21,1*%
%TO.N,+3V3*%
X198575000Y-88200000D03*
%TO.P,R21,2*%
%TO.N,Net-(D7-A)*%
X196925000Y-88200000D03*
%TD*%
D26*
%TO.P,C30,2*%
%TO.N,Net-(U6-VBUS)*%
X212100000Y-95700000D03*
%TO.P,C30,1*%
%TO.N,GND*%
X212100000Y-97250000D03*
%TD*%
D27*
%TO.P,BZ1,1,-*%
%TO.N,+3V3*%
X122529999Y-84049999D03*
D28*
%TO.P,BZ1,2,+*%
%TO.N,Net-(BZ1-+)*%
X123799999Y-84049999D03*
%TD*%
D29*
%TO.P,D9,1,K*%
%TO.N,GND*%
X131000000Y-84850000D03*
%TO.P,D9,2,A*%
%TO.N,Net-(D9-A)*%
X129425000Y-84850000D03*
%TD*%
D23*
%TO.P,Q5,3,C*%
%TO.N,Net-(BZ1-+)*%
X122755000Y-86906548D03*
%TO.P,Q5,2,E*%
%TO.N,GND*%
X121805000Y-88781548D03*
%TO.P,Q5,1,B*%
%TO.N,Net-(Q5-B)*%
X123705000Y-88781548D03*
%TD*%
D10*
%TO.P,R36,2*%
%TO.N,Net-(U5-SAFE_PWR_EN)*%
X188425000Y-91950000D03*
%TO.P,R36,1*%
%TO.N,PD_SAFE*%
X190075000Y-91950000D03*
%TD*%
D26*
%TO.P,C20,1*%
%TO.N,Net-(U5-VCCD)*%
X186550000Y-86750000D03*
%TO.P,C20,2*%
%TO.N,GND*%
X186550000Y-85200000D03*
%TD*%
D30*
%TO.P,C3,2*%
%TO.N,GND*%
X203850000Y-90300000D03*
%TO.P,C3,1*%
%TO.N,VCCQ*%
X203850000Y-92200000D03*
%TD*%
D31*
%TO.P,D5,1,K*%
%TO.N,Net-(D5-K)*%
X147525000Y-88900000D03*
%TO.P,D5,2,A*%
%TO.N,GND*%
X144225000Y-88900000D03*
%TD*%
D18*
%TO.P,R1,2*%
%TO.N,Net-(Q1-G)*%
X207625000Y-95812500D03*
%TO.P,R1,1*%
%TO.N,VDC*%
X205975000Y-95812500D03*
%TD*%
D15*
%TO.P,R40,2*%
%TO.N,Net-(J3-D+-PadA6)*%
X213712500Y-91525000D03*
%TO.P,R40,1*%
%TO.N,USB_CONN_D+*%
X213712500Y-93175000D03*
%TD*%
D10*
%TO.P,R13,1*%
%TO.N,T12_V-*%
X158400000Y-88000000D03*
%TO.P,R13,2*%
%TO.N,Net-(U2A-+)*%
X156750000Y-88000000D03*
%TD*%
D18*
%TO.P,R11,1*%
%TO.N,Net-(U2A--)*%
X156750000Y-86400000D03*
%TO.P,R11,2*%
%TO.N,GND*%
X158400000Y-86400000D03*
%TD*%
D29*
%TO.P,D7,1,K*%
%TO.N,GND*%
X198537500Y-86700000D03*
%TO.P,D7,2,A*%
%TO.N,Net-(D7-A)*%
X196962500Y-86700000D03*
%TD*%
D15*
%TO.P,R19,2*%
%TO.N,VBUS*%
X212100000Y-92675000D03*
%TO.P,R19,1*%
%TO.N,Net-(U6-VBUS)*%
X212100000Y-94325000D03*
%TD*%
D30*
%TO.P,C16,1*%
%TO.N,VDC*%
X144000000Y-93400000D03*
%TO.P,C16,2*%
%TO.N,GND*%
X144000000Y-91500000D03*
%TD*%
D10*
%TO.P,R16,1*%
%TO.N,Net-(U2B--)*%
X145725000Y-86900000D03*
%TO.P,R16,2*%
%TO.N,GND*%
X144075000Y-86900000D03*
%TD*%
D32*
%TO.P,C27,1*%
%TO.N,+3V3*%
X136778249Y-85371751D03*
%TO.P,C27,2*%
%TO.N,GND*%
X138121751Y-84028249D03*
%TD*%
D15*
%TO.P,R37,2*%
%TO.N,FLIP*%
X183547382Y-94400000D03*
%TO.P,R37,1*%
%TO.N,+3V3*%
X183547382Y-96050000D03*
%TD*%
D33*
%TO.P,L1,2*%
%TO.N,+3V3*%
X193299999Y-92299999D03*
%TO.P,L1,1*%
%TO.N,Net-(D3-K)*%
X197149999Y-92299999D03*
%TD*%
D10*
%TO.P,R12,1*%
%TO.N,Net-(U2A--)*%
X158475000Y-84800000D03*
%TO.P,R12,2*%
%TO.N,T12_Current*%
X156825000Y-84800000D03*
%TD*%
D30*
%TO.P,C5,2*%
%TO.N,GND*%
X193950000Y-86600000D03*
%TO.P,C5,1*%
%TO.N,+3V3*%
X193950000Y-88500000D03*
%TD*%
D18*
%TO.P,R35,2*%
%TO.N,GND*%
X190075000Y-97950000D03*
%TO.P,R35,1*%
%TO.N,Net-(U5-ISNK_FINE)*%
X188425000Y-97950000D03*
%TD*%
D34*
%TO.P,C11,2*%
%TO.N,GND*%
X183100000Y-85000000D03*
%TO.P,C11,1*%
%TO.N,+3V3*%
X185000000Y-85000000D03*
%TD*%
D10*
%TO.P,R14,1*%
%TO.N,Buzzer*%
X127000000Y-88775000D03*
%TO.P,R14,2*%
%TO.N,Net-(Q5-B)*%
X125350000Y-88775000D03*
%TD*%
D23*
%TO.P,D1,3*%
%TO.N,SW_ON{slash}OFF*%
X206600000Y-84462500D03*
%TO.P,D1,2*%
%TO.N,Net-(Q1-G)*%
X205650000Y-86337500D03*
%TO.P,D1,1*%
%TO.N,Net-(Q2-G)*%
X207550000Y-86337500D03*
%TD*%
D18*
%TO.P,R31,2*%
%TO.N,GND*%
X190100000Y-84450000D03*
%TO.P,R31,1*%
%TO.N,Net-(U5-VBUS_MIN)*%
X188450000Y-84450000D03*
%TD*%
D35*
%TO.P,SW4,1,1*%
%TO.N,GND*%
X158750000Y-89500000D03*
%TO.P,SW4,2,2*%
%TO.N,TILT_SW*%
X158750000Y-92500000D03*
%TD*%
D29*
%TO.P,D8,2,A*%
%TO.N,Net-(D8-A)*%
X184984882Y-97500000D03*
%TO.P,D8,1,K*%
%TO.N,GND*%
X186559882Y-97500000D03*
%TD*%
D25*
%TO.P,R9,1*%
%TO.N,Net-(Q4-B)*%
X137150000Y-97050000D03*
%TO.P,R9,2*%
%TO.N,GND*%
X137150000Y-98700000D03*
%TD*%
D10*
%TO.P,R22,2*%
%TO.N,Net-(U5-VBUS_FET_EN)*%
X188425000Y-90450000D03*
%TO.P,R22,1*%
%TO.N,Net-(C21-Pad2)*%
X190075000Y-90450000D03*
%TD*%
D25*
%TO.P,R2,2*%
%TO.N,GND*%
X209050000Y-97375000D03*
%TO.P,R2,1*%
%TO.N,Net-(Q1-G)*%
X209050000Y-95725000D03*
%TD*%
D26*
%TO.P,C17,1*%
%TO.N,VDC*%
X145850000Y-93425000D03*
%TO.P,C17,2*%
%TO.N,GND*%
X145850000Y-91875000D03*
%TD*%
D36*
%TO.P,C14,1*%
%TO.N,+3V3*%
X132980241Y-92053984D03*
%TO.P,C14,2*%
%TO.N,GND*%
X134076257Y-93150000D03*
%TD*%
D37*
%TO.P,U1,6,SW*%
%TO.N,Net-(D3-K)*%
X201887500Y-92250000D03*
%TO.P,U1,5,VIN*%
%TO.N,VCCQ*%
X201887500Y-91300000D03*
%TO.P,U1,4,EN*%
X201887500Y-90350000D03*
%TO.P,U1,3,FB*%
%TO.N,Net-(U1-FB)*%
X199612500Y-90350000D03*
%TO.P,U1,2,GND*%
%TO.N,GND*%
X199612500Y-91300000D03*
%TO.P,U1,1,BST*%
%TO.N,Net-(U1-BST)*%
X199612500Y-92250000D03*
%TD*%
D38*
%TO.P,D4,1,K*%
%TO.N,VDC*%
X145400000Y-95350000D03*
%TO.P,D4,2,A*%
%TO.N,Net-(D4-A)*%
X145400000Y-98650000D03*
%TD*%
D15*
%TO.P,R27,2*%
%TO.N,INT*%
X186547382Y-94425000D03*
%TO.P,R27,1*%
%TO.N,+3V3*%
X186547382Y-96075000D03*
%TD*%
D10*
%TO.P,R30,2*%
%TO.N,Net-(U5-VBUS_MIN)*%
X188450000Y-85950000D03*
%TO.P,R30,1*%
%TO.N,+3V3*%
X190100000Y-85950000D03*
%TD*%
D39*
%TO.P,J3,A1,GND*%
%TO.N,GND*%
X218404999Y-87649999D03*
%TO.P,J3,A4,VBUS*%
%TO.N,Net-(F1-Pad2)*%
X218404999Y-88449999D03*
%TO.P,J3,A5,CC1*%
%TO.N,CC1*%
X218404999Y-89749999D03*
%TO.P,J3,A6,D+*%
%TO.N,Net-(J3-D+-PadA6)*%
X218404999Y-90749999D03*
%TO.P,J3,A7,D-*%
%TO.N,Net-(J3-D--PadA7)*%
X218404999Y-91249999D03*
%TO.P,J3,A8,SBU1*%
%TO.N,unconnected-(J3-SBU1-PadA8)*%
X218404999Y-92249999D03*
%TO.P,J3,A9,VBUS*%
%TO.N,Net-(F1-Pad2)*%
X218404999Y-93549999D03*
%TO.P,J3,A12,GND*%
%TO.N,GND*%
X218404999Y-94349999D03*
%TO.P,J3,B1,GND*%
X218404999Y-94049999D03*
%TO.P,J3,B4,VBUS*%
%TO.N,Net-(F1-Pad2)*%
X218404999Y-93249999D03*
%TO.P,J3,B5,CC2*%
%TO.N,CC2*%
X218404999Y-92749999D03*
%TO.P,J3,B6,D+*%
%TO.N,Net-(J3-D+-PadA6)*%
X218404999Y-91749999D03*
%TO.P,J3,B7,D-*%
%TO.N,Net-(J3-D--PadA7)*%
X218404999Y-90249999D03*
%TO.P,J3,B8,SBU2*%
%TO.N,unconnected-(J3-SBU2-PadB8)*%
X218404999Y-89249999D03*
%TO.P,J3,B9,VBUS*%
%TO.N,Net-(F1-Pad2)*%
X218404999Y-88749999D03*
%TO.P,J3,B12,GND*%
%TO.N,GND*%
X218404999Y-87949999D03*
D40*
%TO.P,J3,S1,SHIELD*%
X218969999Y-86679999D03*
D41*
X223149999Y-86679999D03*
D40*
X218969999Y-95319999D03*
D41*
X223149999Y-95319999D03*
%TD*%
D18*
%TO.P,R5,2*%
%TO.N,Net-(U1-FB)*%
X202130834Y-88200000D03*
%TO.P,R5,1*%
%TO.N,+3V3*%
X200480834Y-88200000D03*
%TD*%
D42*
%TO.P,C28,1*%
%TO.N,+3V3*%
X138001992Y-86598008D03*
%TO.P,C28,2*%
%TO.N,GND*%
X139098008Y-85501992D03*
%TD*%
D14*
%TO.P,C31,1*%
%TO.N,GND*%
X140650000Y-93050000D03*
%TO.P,C31,2*%
%TO.N,+3V3*%
X139100000Y-93050000D03*
%TD*%
D23*
%TO.P,Q2,3,D*%
%TO.N,Net-(Q1-G)*%
X206600000Y-88312500D03*
%TO.P,Q2,2,S*%
%TO.N,GND*%
X205650000Y-90187500D03*
%TO.P,Q2,1,G*%
%TO.N,Net-(Q2-G)*%
X207550000Y-90187500D03*
%TD*%
D43*
%TO.P,C2,2*%
%TO.N,Net-(Q1-G)*%
X207575000Y-97312500D03*
%TO.P,C2,1*%
%TO.N,VDC*%
X206025000Y-97312500D03*
%TD*%
D14*
%TO.P,C4,2*%
%TO.N,Net-(U1-BST)*%
X199475000Y-93800000D03*
%TO.P,C4,1*%
%TO.N,Net-(D3-K)*%
X201025000Y-93800000D03*
%TD*%
D18*
%TO.P,R29,2*%
%TO.N,GND*%
X190075000Y-88950000D03*
%TO.P,R29,1*%
%TO.N,Net-(U5-VBUS_MAX)*%
X188425000Y-88950000D03*
%TD*%
D10*
%TO.P,R38,1*%
%TO.N,PS_LED*%
X131025000Y-83300000D03*
%TO.P,R38,2*%
%TO.N,Net-(D9-A)*%
X129375000Y-83300000D03*
%TD*%
D25*
%TO.P,R26,2*%
%TO.N,Net-(D8-A)*%
X185047382Y-96075000D03*
%TO.P,R26,1*%
%TO.N,Net-(U5-FAULT)*%
X185047382Y-94425000D03*
%TD*%
D29*
%TO.P,D6,2,A*%
%TO.N,Net-(D6-A)*%
X125812500Y-84800000D03*
%TO.P,D6,1,K*%
%TO.N,GND*%
X127387500Y-84800000D03*
%TD*%
D44*
%TO.P,U6,6,I/O1*%
%TO.N,USB_D+*%
X213737500Y-97037500D03*
%TO.P,U6,5,VBUS*%
%TO.N,Net-(U6-VBUS)*%
X214687500Y-97037500D03*
%TO.P,U6,4,I/O2*%
%TO.N,USB_D-*%
X215637500Y-97037500D03*
%TO.P,U6,3,I/O2*%
%TO.N,USB_CONN_D-*%
X215637500Y-94762500D03*
%TO.P,U6,2,GND*%
%TO.N,GND*%
X214687500Y-94762500D03*
%TO.P,U6,1,I/O1*%
%TO.N,USB_CONN_D+*%
X213737500Y-94762500D03*
%TD*%
D45*
%TO.P,E1,1*%
%TO.N,GND*%
X103999999Y-90999999D03*
X98999999Y-91099999D03*
%TD*%
D46*
%TO.P,U4,28,PB7*%
%TO.N,SDA*%
X134875108Y-86926894D03*
D47*
%TO.P,U4,27,PB6*%
%TO.N,PS_LED*%
X134563981Y-87322874D03*
%TO.P,U4,26,PB5*%
%TO.N,SW_BACK*%
X134210428Y-87676427D03*
%TO.P,U4,25,PB4*%
%TO.N,SW_SELECT*%
X133856875Y-88029981D03*
%TO.P,U4,24,PB3*%
%TO.N,SW_NEXT*%
X133503321Y-88383534D03*
%TO.P,U4,23,PA15*%
%TO.N,U_LED*%
X133149768Y-88737087D03*
D48*
%TO.P,U4,22,PA14*%
%TO.N,SWCLK*%
X132753788Y-89048214D03*
D49*
%TO.P,U4,21,PA13*%
%TO.N,SWDIO*%
X132753788Y-89751786D03*
D50*
%TO.P,U4,20,PA10/PA12*%
%TO.N,USB_D+*%
X133149768Y-90062913D03*
%TO.P,U4,19,PA9/PA11*%
%TO.N,USB_D-*%
X133503321Y-90416466D03*
%TO.P,U4,18,VDDIO2*%
%TO.N,+3V3*%
X133856875Y-90770019D03*
%TO.P,U4,17,VDD*%
X134210428Y-91123573D03*
%TO.P,U4,16,VSSA*%
%TO.N,GND*%
X134563981Y-91477126D03*
D51*
%TO.P,U4,15,PB1*%
%TO.N,INT*%
X134875108Y-91873106D03*
D52*
%TO.P,U4,14,PB0*%
%TO.N,PD_SAFE*%
X135578680Y-91873106D03*
D47*
%TO.P,U4,13,PA7*%
%TO.N,FLIP*%
X135889807Y-91477126D03*
%TO.P,U4,12,PA6*%
%TO.N,unconnected-(U4-PA6-Pad12)*%
X136243360Y-91123573D03*
%TO.P,U4,11,PA5*%
%TO.N,Buzzer*%
X136596913Y-90770019D03*
%TO.P,U4,10,PA4*%
%TO.N,T12_PWM*%
X136950467Y-90416466D03*
%TO.P,U4,9,PA3*%
%TO.N,TILT_SW*%
X137304020Y-90062913D03*
D53*
%TO.P,U4,8,PA2*%
%TO.N,TEMP_AMBIENT*%
X137700000Y-89751786D03*
D54*
%TO.P,U4,7,PA1*%
%TO.N,T12_Current*%
X137700000Y-89048214D03*
D50*
%TO.P,U4,6,PA0*%
%TO.N,T12_Thermocouple*%
X137304020Y-88737087D03*
%TO.P,U4,5,VDDA*%
%TO.N,+3V3*%
X136950467Y-88383534D03*
%TO.P,U4,4,NRST*%
%TO.N,NRST*%
X136596913Y-88029981D03*
%TO.P,U4,3,PF1*%
%TO.N,unconnected-(U4-PF1-Pad3)*%
X136243360Y-87676427D03*
%TO.P,U4,2,PF0*%
%TO.N,unconnected-(U4-PF0-Pad2)*%
X135889807Y-87322874D03*
D55*
%TO.P,U4,1,PB8*%
%TO.N,SCL*%
X135578680Y-86926894D03*
%TD*%
D27*
%TO.P,J1,1,Pin_1*%
%TO.N,SWDIO*%
X128199999Y-97449999D03*
D28*
%TO.P,J1,2,Pin_2*%
%TO.N,SWCLK*%
X126929999Y-97449999D03*
%TO.P,J1,3,Pin_3*%
%TO.N,NRST*%
X125659999Y-97449999D03*
%TO.P,J1,4,Pin_4*%
%TO.N,+3V3*%
X124389999Y-97449999D03*
%TO.P,J1,5,Pin_5*%
%TO.N,GND*%
X123119999Y-97449999D03*
%TD*%
D45*
%TO.P,-P1,1*%
%TO.N,T12_V-*%
X160999999Y-91099999D03*
X165999999Y-90999999D03*
%TD*%
D56*
%TO.P,D2,1,K*%
%TO.N,T12_V+*%
X172550000Y-97200000D03*
%TO.P,D2,2,A*%
%TO.N,GND*%
X176550000Y-97200000D03*
%TD*%
D57*
%TO.P,Q3,1,G*%
%TO.N,Net-(D4-A)*%
X148225000Y-98155000D03*
D58*
%TO.P,Q3,2,D*%
%TO.N,T12_V+*%
X152850000Y-94350000D03*
X152850000Y-97400000D03*
D59*
X154525000Y-95875000D03*
D58*
X156200000Y-94350000D03*
X156200000Y-97400000D03*
D57*
%TO.P,Q3,3,S*%
%TO.N,VDC*%
X148225000Y-93595000D03*
%TD*%
D60*
%TO.P,U2,1*%
%TO.N,T12_Current*%
X154650000Y-84195000D03*
%TO.P,U2,2,-*%
%TO.N,Net-(U2A--)*%
X154650000Y-85465000D03*
%TO.P,U2,3,+*%
%TO.N,Net-(U2A-+)*%
X154650000Y-86735000D03*
%TO.P,U2,4,V-*%
%TO.N,GND*%
X154650000Y-88005000D03*
%TO.P,U2,5,+*%
%TO.N,Net-(D5-K)*%
X149500000Y-88005000D03*
%TO.P,U2,6,-*%
%TO.N,Net-(U2B--)*%
X149500000Y-86735000D03*
%TO.P,U2,7*%
%TO.N,T12_Thermocouple*%
X149500000Y-85465000D03*
%TO.P,U2,8,V+*%
%TO.N,+3V3*%
X149500000Y-84195000D03*
%TD*%
D45*
%TO.P,+P1,1*%
%TO.N,T12_V+*%
X174999999Y-90999999D03*
X169999999Y-91099999D03*
%TD*%
D61*
%TO.N,Buzzer*%
X129325000Y-88775000D03*
%TO.N,GND*%
X120875000Y-89300000D03*
X120875000Y-88450000D03*
D62*
X141200000Y-84625000D03*
X143400000Y-84625000D03*
X145225000Y-84625000D03*
X187525000Y-97500000D03*
D61*
%TO.N,VDC*%
X183749500Y-93475000D03*
D62*
%TO.N,GND*%
X142350000Y-87725000D03*
D61*
%TO.N,Buzzer*%
X135825000Y-90000000D03*
%TO.N,GND*%
X127375000Y-85800000D03*
X133150000Y-84250000D03*
X130300000Y-84150000D03*
X131750000Y-95200000D03*
%TO.N,+3V3*%
X131250000Y-94700000D03*
D62*
%TO.N,GND*%
X142700000Y-91950000D03*
X141950000Y-91300000D03*
D61*
X136750000Y-83750000D03*
%TO.N,+3V3*%
X136175000Y-84250000D03*
X139350000Y-92050000D03*
D62*
%TO.N,GND*%
X143150000Y-88900000D03*
X143050000Y-86900000D03*
X141950000Y-91950000D03*
X142700000Y-91275000D03*
D61*
%TO.N,USB_D-*%
X133120000Y-99420000D03*
%TO.N,USB_D+*%
X132463009Y-98982328D03*
%TO.N,NRST*%
X134211673Y-85075000D03*
%TO.N,TILT_SW*%
X138625000Y-90825000D03*
%TO.N,PD_SAFE*%
X137025878Y-92231794D03*
X172900000Y-87725000D03*
X172900000Y-85450000D03*
X191575000Y-85425000D03*
%TO.N,SW_ON{slash}OFF*%
X205100000Y-84450000D03*
%TO.N,FLIP*%
X136048911Y-94680000D03*
%TO.N,INT*%
X135150000Y-95300000D03*
%TO.N,FLIP*%
X182512500Y-96700000D03*
%TO.N,INT*%
X186800000Y-93450000D03*
%TO.N,SCL*%
X135400000Y-86000000D03*
%TO.N,SDA*%
X134700000Y-85950000D03*
%TO.N,SW_NEXT*%
X132136416Y-87325000D03*
%TO.N,SW_BACK*%
X133250000Y-86300000D03*
%TO.N,SW_SELECT*%
X132550000Y-86750000D03*
D62*
%TO.N,VDC*%
X142000000Y-93950000D03*
X142000000Y-92950000D03*
X142850000Y-93950000D03*
X142800000Y-92950000D03*
%TO.N,GND*%
X174700000Y-95150000D03*
%TO.N,+3V3*%
X174750000Y-93250000D03*
%TO.N,GND*%
X162450000Y-83950000D03*
X152075000Y-87925000D03*
%TO.N,+3V3*%
X151025000Y-85250000D03*
%TO.N,GND*%
X159575000Y-84025000D03*
X160900000Y-85175000D03*
X159575000Y-83200000D03*
X162450000Y-83200000D03*
%TO.N,Net-(Q2-G)*%
X206800000Y-86900000D03*
%TO.N,VDC*%
X204350000Y-96800000D03*
%TO.N,GND*%
X204350000Y-95975000D03*
X216850000Y-95050000D03*
X216900000Y-87000000D03*
%TO.N,VBUS*%
X208800000Y-88900000D03*
%TO.N,GND*%
X213700000Y-86900000D03*
X213700000Y-86100000D03*
X213000000Y-86900000D03*
X213000000Y-86100000D03*
X209000000Y-86600000D03*
X209000000Y-85900000D03*
%TO.N,VBUS*%
X209000000Y-85100000D03*
X209000000Y-84200000D03*
%TO.N,GND*%
X195000000Y-97500000D03*
D61*
%TO.N,USB_D-*%
X214234615Y-98947387D03*
%TO.N,USB_D+*%
X214288972Y-98250000D03*
D62*
%TO.N,+3V3*%
X181250000Y-95500000D03*
%TO.N,SDA*%
X182500000Y-93500000D03*
%TO.N,CC2*%
X180300000Y-83000000D03*
%TO.N,CC1*%
X181009583Y-83789722D03*
%TO.N,GND*%
X204900000Y-89100000D03*
X216850000Y-94200000D03*
X183100000Y-83750000D03*
X190850000Y-88950000D03*
X195000000Y-96500000D03*
X195100000Y-86100000D03*
X203450000Y-89200000D03*
X204950000Y-90300000D03*
X195100000Y-87100000D03*
X195750000Y-97500000D03*
X205050000Y-95975000D03*
X190900000Y-84450000D03*
X186525000Y-84225000D03*
X199550000Y-86700000D03*
X190950000Y-93450000D03*
X216900000Y-87800000D03*
X210475000Y-97375000D03*
X190900000Y-97250000D03*
X214687500Y-93600000D03*
X195750000Y-96500000D03*
X200650000Y-91300000D03*
%TO.N,Net-(C21-Pad2)*%
X190900000Y-90450000D03*
%TO.N,Net-(F1-Pad2)*%
X216900000Y-88600000D03*
X216900000Y-93400000D03*
%TO.N,+3V3*%
X185050000Y-83750000D03*
X195100000Y-88000000D03*
X183547382Y-96897382D03*
X187350000Y-96500000D03*
X190750000Y-95700000D03*
X190750000Y-86700000D03*
X199550000Y-88200000D03*
X195100000Y-88800000D03*
D61*
%TO.N,CC1*%
X219750000Y-89750000D03*
%TO.N,Net-(J3-D+-PadA6)*%
X217250000Y-90650500D03*
X217250000Y-91849500D03*
%TO.N,CC2*%
X219750000Y-92750000D03*
D62*
%TO.N,VDC*%
X205050000Y-96800000D03*
X203475000Y-94075000D03*
%TO.N,VBUS*%
X210500000Y-88975000D03*
X211075000Y-92650000D03*
X208200000Y-84200000D03*
%TD*%
D63*
%TO.N,Net-(BZ1-+)*%
X123800000Y-84625000D02*
X123800000Y-84050000D01*
X122750000Y-85675000D02*
X123800000Y-84625000D01*
D64*
%TO.N,Buzzer*%
X129325000Y-88775000D02*
X127000000Y-88775000D01*
%TO.N,NRST*%
X136940219Y-87686675D02*
X136596913Y-88029981D01*
X136940219Y-86700446D02*
X136940219Y-87686675D01*
X135289773Y-85050000D02*
X136940219Y-86700446D01*
X134211673Y-85075000D02*
X134236673Y-85050000D01*
X134236673Y-85050000D02*
X135289773Y-85050000D01*
X134211673Y-85075000D02*
X134211673Y-83563327D01*
X134211673Y-83563327D02*
X134525000Y-83250000D01*
D63*
%TO.N,GND*%
X130300000Y-84150000D02*
X131000000Y-84850000D01*
%TO.N,Net-(Q5-B)*%
X123711548Y-88775000D02*
X123705000Y-88781548D01*
X125350000Y-88775000D02*
X123711548Y-88775000D01*
%TO.N,Net-(BZ1-+)*%
X122750000Y-86901548D02*
X122750000Y-85675000D01*
X122755000Y-86906548D02*
X122750000Y-86901548D01*
D65*
%TO.N,GND*%
X187525000Y-97500000D02*
X186559882Y-97500000D01*
D64*
%TO.N,VDC*%
X183900000Y-93324500D02*
X183749500Y-93475000D01*
X183900000Y-92550000D02*
X183900000Y-93324500D01*
%TO.N,Buzzer*%
X136595019Y-90770019D02*
X135825000Y-90000000D01*
X136596913Y-90770019D02*
X136595019Y-90770019D01*
%TO.N,PD_SAFE*%
X137025878Y-92231794D02*
X136987240Y-92270432D01*
X136987240Y-92270432D02*
X135976006Y-92270432D01*
X135976006Y-92270432D02*
X135578680Y-91873106D01*
%TO.N,FLIP*%
X137725000Y-92100000D02*
X137275000Y-91650000D01*
X137725000Y-92625000D02*
X137725000Y-92100000D01*
X136048911Y-94680000D02*
X136048911Y-93858627D01*
X137275000Y-91650000D02*
X136795271Y-91650000D01*
X136048911Y-93858627D02*
X136657538Y-93250000D01*
X136657538Y-93250000D02*
X137100000Y-93250000D01*
X137100000Y-93250000D02*
X137725000Y-92625000D01*
X136795271Y-91650000D02*
X136624839Y-91820432D01*
X136624839Y-91820432D02*
X136233113Y-91820432D01*
X136233113Y-91820432D02*
X135889807Y-91477126D01*
%TO.N,T12_PWM*%
X136950467Y-90416466D02*
X138175000Y-91640999D01*
X138175000Y-91640999D02*
X138175000Y-92950000D01*
X138175000Y-92950000D02*
X137150000Y-93975000D01*
D63*
%TO.N,GND*%
X133150000Y-83425000D02*
X132975000Y-83250000D01*
X133150000Y-84250000D02*
X133150000Y-83425000D01*
X127375000Y-84812500D02*
X127387500Y-84800000D01*
X127375000Y-85800000D02*
X127375000Y-84812500D01*
X132573743Y-95200000D02*
X133050000Y-94723743D01*
X131750000Y-95200000D02*
X132573743Y-95200000D01*
%TO.N,+3V3*%
X131250000Y-93836739D02*
X131706498Y-93380241D01*
X131250000Y-94700000D02*
X131250000Y-93836739D01*
X136400000Y-84475000D02*
X136400000Y-84993502D01*
X136400000Y-84993502D02*
X136778249Y-85371751D01*
X136175000Y-84250000D02*
X136400000Y-84475000D01*
%TO.N,GND*%
X137028249Y-84028249D02*
X136750000Y-83750000D01*
X138121751Y-84028249D02*
X137028249Y-84028249D01*
D66*
X138625000Y-85028984D02*
X139098008Y-85501992D01*
X138625000Y-84531498D02*
X138625000Y-85028984D01*
X138121751Y-84028249D02*
X138625000Y-84531498D01*
D63*
%TO.N,+3V3*%
X139350000Y-92050000D02*
X139950000Y-91450000D01*
X139350000Y-92050000D02*
X139350000Y-92050000D01*
X139350000Y-92050000D02*
X139350000Y-92050000D01*
%TO.N,GND*%
X140650000Y-93050000D02*
X141750000Y-91950000D01*
X141750000Y-91950000D02*
X141950000Y-91950000D01*
%TO.N,+3V3*%
X139100000Y-92300000D02*
X139350000Y-92050000D01*
X139100000Y-93050000D02*
X139100000Y-92300000D01*
%TO.N,GND*%
X140700000Y-93100000D02*
X140650000Y-93050000D01*
X140700000Y-95150000D02*
X140700000Y-93100000D01*
X140700000Y-96175000D02*
X140700000Y-95150000D01*
X140175000Y-96700000D02*
X140700000Y-96175000D01*
X138950000Y-96700000D02*
X140175000Y-96700000D01*
X137150000Y-98500000D02*
X138950000Y-96700000D01*
X137150000Y-98700000D02*
X137150000Y-98500000D01*
D64*
%TO.N,INT*%
X135150000Y-92147998D02*
X134875108Y-91873106D01*
X135150000Y-95300000D02*
X135150000Y-92147998D01*
D67*
%TO.N,USB_D-*%
X129755000Y-93883200D02*
X132268200Y-91370000D01*
X133120000Y-98631800D02*
X129755000Y-95266800D01*
X129755000Y-95266800D02*
X129755000Y-93883200D01*
X132268200Y-91370000D02*
X132549787Y-91370000D01*
X132549787Y-91370000D02*
X133503321Y-90416466D01*
X133120000Y-99420000D02*
X133120000Y-98631800D01*
%TO.N,USB_D+*%
X132290000Y-90970000D02*
X133149768Y-90110232D01*
X132031800Y-90970000D02*
X132290000Y-90970000D01*
X129305000Y-95453200D02*
X129305000Y-93696800D01*
X129305000Y-93696800D02*
X132031800Y-90970000D01*
X132642256Y-98790456D02*
X129305000Y-95453200D01*
X133149768Y-90110232D02*
X133149768Y-90062913D01*
X132463009Y-98982328D02*
X132642256Y-98803081D01*
X132642256Y-98803081D02*
X132642256Y-98790456D01*
D64*
%TO.N,TILT_SW*%
X138066107Y-90825000D02*
X138625000Y-90825000D01*
X137304020Y-90062913D02*
X138066107Y-90825000D01*
%TO.N,TEMP_AMBIENT*%
X138900000Y-89550000D02*
X139950000Y-89550000D01*
X138350000Y-90100000D02*
X138900000Y-89550000D01*
X137700000Y-89751786D02*
X138048214Y-90100000D01*
X138048214Y-90100000D02*
X138350000Y-90100000D01*
D68*
%TO.N,PD_SAFE*%
X172900000Y-85450000D02*
X172900000Y-87725000D01*
%TO.N,GND*%
X186525000Y-85175000D02*
X186550000Y-85200000D01*
X186525000Y-84225000D02*
X186525000Y-85175000D01*
D63*
%TO.N,+3V3*%
X150620000Y-84195000D02*
X149500000Y-84195000D01*
X151025000Y-84600000D02*
X150620000Y-84195000D01*
X151025000Y-85250000D02*
X151025000Y-84600000D01*
%TO.N,GND*%
X152155000Y-88005000D02*
X154650000Y-88005000D01*
X152075000Y-87925000D02*
X152155000Y-88005000D01*
D68*
%TO.N,PD_SAFE*%
X191575000Y-89825000D02*
X191575000Y-85425000D01*
X191575000Y-90725000D02*
X191575000Y-89825000D01*
X190350000Y-91950000D02*
X191575000Y-90725000D01*
X190075000Y-91950000D02*
X190350000Y-91950000D01*
D63*
%TO.N,+3V3*%
X183547382Y-96897382D02*
X183547382Y-96050000D01*
D68*
%TO.N,FLIP*%
X182512500Y-96700000D02*
X182512500Y-95434882D01*
X182512500Y-95434882D02*
X183547382Y-94400000D01*
%TO.N,SW_ON{slash}OFF*%
X206587500Y-84450000D02*
X206600000Y-84462500D01*
X205100000Y-84450000D02*
X206587500Y-84450000D01*
D64*
%TO.N,+3V3*%
X185400000Y-87152618D02*
X185047382Y-86800000D01*
X185400000Y-88650000D02*
X185400000Y-87152618D01*
%TO.N,GND*%
X183590685Y-86800000D02*
X183497382Y-86800000D01*
X184900000Y-88109315D02*
X183590685Y-86800000D01*
X184900000Y-88650000D02*
X184900000Y-88109315D01*
X183400000Y-86897382D02*
X183497382Y-86800000D01*
X183400000Y-88650000D02*
X183400000Y-86897382D01*
%TO.N,CC2*%
X180300000Y-89971752D02*
X180300000Y-83000000D01*
X182700000Y-91350000D02*
X181678248Y-91350000D01*
X181678248Y-91350000D02*
X180300000Y-89971752D01*
D68*
%TO.N,CC1*%
X181009583Y-90009583D02*
X181009583Y-83789722D01*
X181850000Y-90850000D02*
X181009583Y-90009583D01*
%TO.N,INT*%
X186547382Y-93702618D02*
X186800000Y-93450000D01*
X186547382Y-94425000D02*
X186547382Y-93702618D01*
D67*
%TO.N,USB_D-*%
X133467967Y-90416466D02*
X133503321Y-90416466D01*
D64*
%TO.N,SWDIO*%
X131050000Y-90300000D02*
X128200000Y-93150000D01*
X132200000Y-90300000D02*
X131050000Y-90300000D01*
X132748214Y-89751786D02*
X132200000Y-90300000D01*
X128200000Y-93150000D02*
X128200000Y-97450000D01*
X132753788Y-89751786D02*
X132748214Y-89751786D01*
%TO.N,SWCLK*%
X126930000Y-93720000D02*
X126930000Y-97450000D01*
X132400000Y-88700000D02*
X131950000Y-88700000D01*
X131950000Y-88700000D02*
X126930000Y-93720000D01*
X132748214Y-89048214D02*
X132400000Y-88700000D01*
X132753788Y-89048214D02*
X132748214Y-89048214D01*
D63*
%TO.N,Net-(D6-A)*%
X125775000Y-84762500D02*
X125812500Y-84800000D01*
X125775000Y-83250000D02*
X125775000Y-84762500D01*
D64*
%TO.N,U_LED*%
X132312681Y-87900000D02*
X133149768Y-88737087D01*
X130198949Y-86200000D02*
X131898949Y-87900000D01*
X128400000Y-85750000D02*
X128850000Y-86200000D01*
X128400000Y-84225000D02*
X128400000Y-85750000D01*
X127425000Y-83250000D02*
X128400000Y-84225000D01*
X128850000Y-86200000D02*
X130198949Y-86200000D01*
X131898949Y-87900000D02*
X132312681Y-87900000D01*
D63*
%TO.N,Net-(D9-A)*%
X129375000Y-84800000D02*
X129425000Y-84850000D01*
X129375000Y-83300000D02*
X129375000Y-84800000D01*
D64*
%TO.N,PS_LED*%
X131250000Y-83300000D02*
X131025000Y-83300000D01*
X133850000Y-85900000D02*
X131250000Y-83300000D01*
X134563981Y-87322874D02*
X133850000Y-86608893D01*
X133850000Y-86608893D02*
X133850000Y-85900000D01*
D63*
%TO.N,Net-(D4-A)*%
X139750000Y-98150000D02*
X141000000Y-96900000D01*
X141000000Y-96900000D02*
X143275000Y-96900000D01*
X143275000Y-96900000D02*
X143350000Y-96975000D01*
%TO.N,Net-(Q4-B)*%
X137150000Y-95625000D02*
X138325000Y-95625000D01*
X138325000Y-95625000D02*
X138800000Y-95150000D01*
X137150000Y-95625000D02*
X137150000Y-97050000D01*
D64*
%TO.N,SCL*%
X135599999Y-86000000D02*
X135400000Y-86000000D01*
X135601688Y-85998311D02*
X135599999Y-86000000D01*
X135900000Y-86600000D02*
X135900000Y-86296623D01*
X135900000Y-86296623D02*
X135601688Y-85998311D01*
X135578680Y-86921320D02*
X135900000Y-86600000D01*
X135578680Y-86926894D02*
X135578680Y-86921320D01*
%TO.N,SDA*%
X134500000Y-86150000D02*
X134700000Y-85950000D01*
X134500000Y-86550000D02*
X134500000Y-86150000D01*
X134875108Y-86925108D02*
X134500000Y-86550000D01*
X134875108Y-86926894D02*
X134875108Y-86925108D01*
%TO.N,SW_NEXT*%
X132444787Y-87325000D02*
X133503321Y-88383534D01*
X132136416Y-87325000D02*
X132444787Y-87325000D01*
%TO.N,SW_BACK*%
X133250000Y-86715999D02*
X134210428Y-87676427D01*
X133250000Y-86300000D02*
X133250000Y-86715999D01*
%TO.N,SW_SELECT*%
X133829981Y-88029981D02*
X133856875Y-88029981D01*
X132550000Y-86750000D02*
X133829981Y-88029981D01*
%TO.N,GND*%
X134076257Y-91964850D02*
X134076257Y-93150000D01*
X134563981Y-91477126D02*
X134076257Y-91964850D01*
%TO.N,+3V3*%
X133296016Y-92053984D02*
X132980241Y-92053984D01*
X134210428Y-91139572D02*
X133296016Y-92053984D01*
X134210428Y-91123573D02*
X134210428Y-91139572D01*
X133829981Y-90770019D02*
X132980241Y-91619759D01*
X133856875Y-90770019D02*
X133829981Y-90770019D01*
X132980241Y-91619759D02*
X132980241Y-92053984D01*
X138001992Y-87332009D02*
X138001992Y-86598008D01*
X136950467Y-88383534D02*
X138001992Y-87332009D01*
%TO.N,T12_Thermocouple*%
X146960000Y-85640000D02*
X147250000Y-85350000D01*
X140401107Y-85640000D02*
X146960000Y-85640000D01*
X137304020Y-88737087D02*
X140401107Y-85640000D01*
%TO.N,T12_Current*%
X154373249Y-84195000D02*
X154650000Y-84195000D01*
X140660000Y-86090000D02*
X152478249Y-86090000D01*
X152478249Y-86090000D02*
X154373249Y-84195000D01*
X137700000Y-89048214D02*
X137701786Y-89048214D01*
X137701786Y-89048214D02*
X140660000Y-86090000D01*
D66*
%TO.N,+3V3*%
X136778249Y-85374265D02*
X138001992Y-86598008D01*
%TO.N,GND*%
X133050000Y-94176257D02*
X134076257Y-93150000D01*
X133050000Y-94723743D02*
X133050000Y-94176257D01*
%TO.N,+3V3*%
X131706498Y-93327727D02*
X132980241Y-92053984D01*
X131706498Y-93380241D02*
X131706498Y-93327727D01*
D64*
%TO.N,T12_Thermocouple*%
X146995000Y-85500000D02*
X147250000Y-85245000D01*
D63*
%TO.N,Net-(U2B--)*%
X145925000Y-87000000D02*
X145725000Y-86800000D01*
X148050000Y-87000000D02*
X145925000Y-87000000D01*
X149430000Y-86665000D02*
X148385000Y-86665000D01*
X149500000Y-86735000D02*
X149430000Y-86665000D01*
X148385000Y-86665000D02*
X148050000Y-87000000D01*
%TO.N,Net-(D4-A)*%
X147880000Y-98500000D02*
X148225000Y-98155000D01*
X145550000Y-98500000D02*
X147880000Y-98500000D01*
X145400000Y-98650000D02*
X145550000Y-98500000D01*
X143350000Y-96975000D02*
X143725000Y-96975000D01*
X143725000Y-96975000D02*
X145400000Y-98650000D01*
%TO.N,Net-(D5-K)*%
X148325000Y-89700000D02*
X147525000Y-88900000D01*
X149150000Y-89700000D02*
X148325000Y-89700000D01*
X147550000Y-88900000D02*
X148450000Y-88000000D01*
X147525000Y-88900000D02*
X147550000Y-88900000D01*
X148450000Y-88000000D02*
X148455000Y-88005000D01*
X148455000Y-88005000D02*
X149500000Y-88005000D01*
%TO.N,T12_Thermocouple*%
X148265000Y-85465000D02*
X149500000Y-85465000D01*
X148045000Y-85245000D02*
X148265000Y-85465000D01*
X147250000Y-85245000D02*
X148045000Y-85245000D01*
%TO.N,T12_V-*%
X160800000Y-86750000D02*
X160900000Y-86850000D01*
X159650000Y-86750000D02*
X160800000Y-86750000D01*
X158400000Y-88000000D02*
X159650000Y-86750000D01*
%TO.N,GND*%
X158650000Y-86400000D02*
X158400000Y-86400000D01*
X159875000Y-85175000D02*
X158650000Y-86400000D01*
X160900000Y-85175000D02*
X159875000Y-85175000D01*
D66*
%TO.N,T12_V-*%
X161000000Y-86950000D02*
X160900000Y-86850000D01*
D63*
%TO.N,Net-(U2A--)*%
X156875000Y-86400000D02*
X158475000Y-84800000D01*
X156750000Y-86400000D02*
X156875000Y-86400000D01*
%TO.N,T12_Current*%
X156825000Y-83590000D02*
X156220000Y-84195000D01*
X156825000Y-83205000D02*
X156825000Y-83590000D01*
X154650000Y-84195000D02*
X156220000Y-84195000D01*
X156220000Y-84195000D02*
X156825000Y-84800000D01*
%TO.N,Net-(U2A--)*%
X155815000Y-85465000D02*
X156750000Y-86400000D01*
X154650000Y-85465000D02*
X155815000Y-85465000D01*
%TO.N,Net-(U2A-+)*%
X155485000Y-86735000D02*
X156750000Y-88000000D01*
X154650000Y-86735000D02*
X155485000Y-86735000D01*
D68*
%TO.N,Net-(U1-FB)*%
X202150000Y-88180834D02*
X202130834Y-88200000D01*
X202150000Y-86700000D02*
X202150000Y-88180834D01*
D63*
%TO.N,Net-(D7-A)*%
X196962500Y-86700000D02*
X196962500Y-88162500D01*
%TO.N,+3V3*%
X198575000Y-88200000D02*
X199550000Y-88200000D01*
%TO.N,GND*%
X198537500Y-86700000D02*
X199550000Y-86700000D01*
%TO.N,Net-(Q2-G)*%
X206987500Y-86900000D02*
X207550000Y-86337500D01*
X206800000Y-86900000D02*
X206987500Y-86900000D01*
D68*
%TO.N,Net-(Q1-G)*%
X206600000Y-90742893D02*
X206600000Y-88312500D01*
X207550000Y-91692893D02*
X206600000Y-90742893D01*
X207550000Y-94062500D02*
X207550000Y-91692893D01*
%TO.N,Net-(U6-VBUS)*%
X214687500Y-96387500D02*
X214687500Y-97037500D01*
X214200000Y-95900000D02*
X214687500Y-96387500D01*
X212300000Y-95900000D02*
X214200000Y-95900000D01*
X212100000Y-95700000D02*
X212300000Y-95900000D01*
X212100000Y-94325000D02*
X212100000Y-95700000D01*
%TO.N,VBUS*%
X182700000Y-83000000D02*
X207000000Y-83000000D01*
X181550000Y-88800000D02*
X181550000Y-84150000D01*
X207000000Y-83000000D02*
X208200000Y-84200000D01*
X182100000Y-89350000D02*
X181550000Y-88800000D01*
X181550000Y-84150000D02*
X182700000Y-83000000D01*
X182700000Y-89350000D02*
X182100000Y-89350000D01*
D65*
X210500000Y-92075000D02*
X211075000Y-92650000D01*
X210500000Y-88975000D02*
X210500000Y-92075000D01*
D63*
%TO.N,GND*%
X190200000Y-97950000D02*
X190900000Y-97250000D01*
X190075000Y-97950000D02*
X190200000Y-97950000D01*
D67*
%TO.N,USB_D-*%
X215437500Y-97237500D02*
X215637500Y-97037500D01*
X214234615Y-98947387D02*
X214369403Y-98947387D01*
X214369403Y-98947387D02*
X215437500Y-97879290D01*
X215437500Y-97879290D02*
X215437500Y-97237500D01*
%TO.N,USB_D+*%
X213937500Y-97237500D02*
X213737500Y-97037500D01*
X213937500Y-97798528D02*
X213937500Y-97237500D01*
X214288972Y-98250000D02*
X214288972Y-98150000D01*
X214288972Y-98150000D02*
X213937500Y-97798528D01*
D63*
%TO.N,+3V3*%
X181250000Y-95500000D02*
X181250000Y-94650000D01*
D68*
%TO.N,SCL*%
X180000000Y-91135000D02*
X180000000Y-91750000D01*
X178500000Y-89635000D02*
X180000000Y-91135000D01*
X180000000Y-91750000D02*
X181250000Y-93000000D01*
D64*
X182400000Y-91850000D02*
X181250000Y-93000000D01*
X182700000Y-91850000D02*
X182400000Y-91850000D01*
%TO.N,SDA*%
X183400000Y-92600000D02*
X182500000Y-93500000D01*
X183400000Y-92550000D02*
X183400000Y-92600000D01*
D68*
%TO.N,CC1*%
X181850000Y-90850000D02*
X182700000Y-90850000D01*
D63*
%TO.N,GND*%
X190075000Y-88950000D02*
X190850000Y-88950000D01*
X190100000Y-93450000D02*
X190950000Y-93450000D01*
X211975000Y-97375000D02*
X212100000Y-97250000D01*
X214687500Y-93600000D02*
X214687500Y-94762500D01*
X183147382Y-85450000D02*
X183347382Y-85650000D01*
X210475000Y-97375000D02*
X209050000Y-97375000D01*
D65*
X183100000Y-83750000D02*
X183100000Y-85000000D01*
D63*
X190100000Y-84450000D02*
X190900000Y-84450000D01*
X183347382Y-85200000D02*
X183347382Y-86650000D01*
X200500000Y-86700000D02*
X199550000Y-86700000D01*
D65*
X216850000Y-94200000D02*
X218405000Y-94200000D01*
X199612500Y-91300000D02*
X200650000Y-91300000D01*
X216900000Y-87800000D02*
X218405000Y-87800000D01*
D63*
X210475000Y-97375000D02*
X211975000Y-97375000D01*
D65*
%TO.N,Net-(Q1-G)*%
X207575000Y-95862500D02*
X207625000Y-95812500D01*
X207637500Y-95800000D02*
X207625000Y-95812500D01*
X205650000Y-86337500D02*
X205650000Y-87362500D01*
X207575000Y-97312500D02*
X207575000Y-95862500D01*
X205650000Y-87362500D02*
X206600000Y-88312500D01*
X209050000Y-95800000D02*
X207637500Y-95800000D01*
X207550000Y-94062500D02*
X207550000Y-95737500D01*
X207550000Y-95737500D02*
X207625000Y-95812500D01*
%TO.N,Net-(U1-BST)*%
X199475000Y-93800000D02*
X199475000Y-92387500D01*
X199475000Y-92387500D02*
X199612500Y-92250000D01*
D68*
%TO.N,Net-(U5-VCCD)*%
X185900000Y-88650000D02*
X185900000Y-87400000D01*
X185900000Y-87400000D02*
X186550000Y-86750000D01*
D63*
%TO.N,Net-(C21-Pad2)*%
X190075000Y-90450000D02*
X190900000Y-90450000D01*
D65*
%TO.N,Net-(Q2-G)*%
X207550000Y-90187500D02*
X207550000Y-86337500D01*
D63*
%TO.N,Net-(D7-A)*%
X196962500Y-88162500D02*
X196925000Y-88200000D01*
%TO.N,Net-(D8-A)*%
X184984882Y-96137500D02*
X185047382Y-96075000D01*
X184984882Y-97500000D02*
X184984882Y-96137500D01*
D65*
%TO.N,Net-(F1-Pad2)*%
X216900000Y-93400000D02*
X218405000Y-93400000D01*
X216900000Y-88600000D02*
X218405000Y-88600000D01*
D63*
%TO.N,+3V3*%
X190100000Y-86050000D02*
X190750000Y-86700000D01*
X190100000Y-95050000D02*
X190750000Y-95700000D01*
X190100000Y-96350000D02*
X190750000Y-95700000D01*
X190100000Y-94950000D02*
X190100000Y-95050000D01*
X190100000Y-87450000D02*
X190100000Y-87350000D01*
X200480834Y-88200000D02*
X199550000Y-88200000D01*
D65*
X185050000Y-83750000D02*
X185050000Y-84950000D01*
D63*
X190100000Y-85950000D02*
X190100000Y-86050000D01*
D66*
X193950000Y-91750000D02*
X193400000Y-92300000D01*
D63*
X185047382Y-85000000D02*
X185047382Y-86800000D01*
X190100000Y-96450000D02*
X190100000Y-96350000D01*
X186547382Y-96075000D02*
X186925000Y-96075000D01*
D65*
X185050000Y-85400000D02*
X185000000Y-85450000D01*
D63*
X186925000Y-96075000D02*
X187350000Y-96500000D01*
X190100000Y-87350000D02*
X190750000Y-86700000D01*
D68*
%TO.N,CC1*%
X218405000Y-89750000D02*
X219750000Y-89750000D01*
%TO.N,Net-(J3-D+-PadA6)*%
X217250000Y-90750000D02*
X214487500Y-90750000D01*
X217250000Y-91849500D02*
X217349500Y-91750000D01*
X214487500Y-90750000D02*
X213712500Y-91525000D01*
X217250000Y-90650500D02*
X217250000Y-90750000D01*
X217349500Y-91750000D02*
X218405000Y-91750000D01*
X217250000Y-90750000D02*
X218405000Y-90750000D01*
%TO.N,Net-(J3-D--PadA7)*%
X215925000Y-91250000D02*
X215675000Y-91500000D01*
X218405000Y-90250000D02*
X219330000Y-90250000D01*
X218405000Y-91250000D02*
X215925000Y-91250000D01*
X219330000Y-91250000D02*
X218405000Y-91250000D01*
X219330000Y-90250000D02*
X219550000Y-90470000D01*
X219550000Y-90470000D02*
X219550000Y-91030000D01*
X219550000Y-91030000D02*
X219330000Y-91250000D01*
%TO.N,CC2*%
X218405000Y-92750000D02*
X219750000Y-92750000D01*
%TO.N,Net-(U1-FB)*%
X199612500Y-89437500D02*
X199612500Y-90350000D01*
X201750000Y-89100000D02*
X199950000Y-89100000D01*
X202130834Y-88200000D02*
X202130834Y-88719166D01*
X202130834Y-88719166D02*
X201750000Y-89100000D01*
X199950000Y-89100000D02*
X199612500Y-89437500D01*
D63*
X199980834Y-90350000D02*
X199612500Y-90350000D01*
D68*
%TO.N,Net-(U5-VBUS_FET_EN)*%
X188325000Y-90350000D02*
X188425000Y-90450000D01*
X186600000Y-90350000D02*
X188325000Y-90350000D01*
%TO.N,Net-(U5-FAULT)*%
X184900000Y-94277618D02*
X185047382Y-94425000D01*
X184900000Y-92550000D02*
X184900000Y-94277618D01*
%TO.N,INT*%
X185900000Y-92550000D02*
X185900000Y-93777618D01*
X185900000Y-93777618D02*
X186547382Y-94425000D01*
D63*
%TO.N,Net-(U5-VBUS_MAX)*%
X188450000Y-87450000D02*
X188450000Y-88925000D01*
X188450000Y-88925000D02*
X188425000Y-88950000D01*
D68*
X187525000Y-89850000D02*
X186600000Y-89850000D01*
X187525000Y-89850000D02*
X188425000Y-88950000D01*
%TO.N,Net-(U5-VBUS_MIN)*%
X187625000Y-86775000D02*
X188450000Y-85950000D01*
X187125000Y-89350000D02*
X187625000Y-88850000D01*
X187625000Y-88850000D02*
X187625000Y-86775000D01*
X187125000Y-89350000D02*
X186600000Y-89350000D01*
D63*
X188450000Y-84450000D02*
X188450000Y-85950000D01*
D68*
%TO.N,Net-(U5-ISNK_COARSE)*%
X187192894Y-91350000D02*
X187675000Y-91832106D01*
X187675000Y-91832106D02*
X187675000Y-92562500D01*
X188450000Y-93450000D02*
X188450000Y-94950000D01*
X187192894Y-91350000D02*
X186600000Y-91350000D01*
X187675000Y-92562500D02*
X188450000Y-93337500D01*
X188450000Y-93337500D02*
X188450000Y-93450000D01*
%TO.N,Net-(U5-ISNK_FINE)*%
X186600000Y-91850000D02*
X186600000Y-92194606D01*
X187700000Y-93294606D02*
X187700000Y-95700000D01*
X187700000Y-95700000D02*
X188450000Y-96450000D01*
D63*
X188425000Y-97950000D02*
X188425000Y-96475000D01*
D68*
X186600000Y-92194606D02*
X187700000Y-93294606D01*
D63*
X188425000Y-96475000D02*
X188450000Y-96450000D01*
D68*
%TO.N,Net-(U5-SAFE_PWR_EN)*%
X188425000Y-91875000D02*
X188425000Y-91950000D01*
X187400000Y-90850000D02*
X186600000Y-90850000D01*
X187400000Y-90850000D02*
X188425000Y-91875000D01*
%TO.N,FLIP*%
X183819565Y-94400000D02*
X184400000Y-93819565D01*
X184400000Y-93819565D02*
X184400000Y-92550000D01*
X183547382Y-94400000D02*
X183819565Y-94400000D01*
D63*
%TO.N,USB_CONN_D-*%
X215675000Y-94725000D02*
X215637500Y-94762500D01*
X215675000Y-93150000D02*
X215675000Y-94725000D01*
%TO.N,USB_CONN_D+*%
X213712500Y-94737500D02*
X213737500Y-94762500D01*
X213712500Y-93175000D02*
X213712500Y-94737500D01*
D65*
%TO.N,VDC*%
X205975000Y-95812500D02*
X205975000Y-97262500D01*
X205650000Y-94062500D02*
X205975000Y-94387500D01*
X206025000Y-97312500D02*
X205562500Y-97312500D01*
X205975000Y-97262500D02*
X206025000Y-97312500D01*
X205975000Y-94387500D02*
X205975000Y-95812500D01*
X205562500Y-97312500D02*
X205050000Y-96800000D01*
%TO.N,VCCQ*%
X201887500Y-90350000D02*
X202000000Y-90350000D01*
D63*
%TO.N,VBUS*%
X211075000Y-92650000D02*
X212075000Y-92650000D01*
X212075000Y-92650000D02*
X212100000Y-92675000D01*
%TD*%
%TA.AperFunction,Conductor*%
%TO.N,Net-(D3-K)*%
G36*
X198513000Y-89309914D02*
G01*
X198540086Y-89337000D01*
X198550000Y-89374000D01*
X198550000Y-94600000D01*
X198650000Y-94700000D01*
X198657288Y-94700000D01*
X200142712Y-94700000D01*
X200150000Y-94700000D01*
X200350000Y-94500000D01*
X200350000Y-94187781D01*
X200366289Y-94141463D01*
X200407984Y-94115535D01*
X200456730Y-94121413D01*
X200491067Y-94156508D01*
X200526931Y-94233420D01*
X200534245Y-94243865D01*
X200606134Y-94315754D01*
X200616578Y-94323067D01*
X200709455Y-94366376D01*
X200716561Y-94368447D01*
X200722688Y-94367504D01*
X200725000Y-94359575D01*
X201325000Y-94359575D01*
X201327311Y-94367504D01*
X201333438Y-94368447D01*
X201340544Y-94366376D01*
X201433421Y-94323067D01*
X201443865Y-94315754D01*
X201515754Y-94243865D01*
X201523067Y-94233421D01*
X201566377Y-94140543D01*
X201569507Y-94129801D01*
X201572052Y-94110474D01*
X201570795Y-94102311D01*
X201562866Y-94100000D01*
X201334743Y-94100000D01*
X201327059Y-94102059D01*
X201325000Y-94109743D01*
X201325000Y-94359575D01*
X200725000Y-94359575D01*
X200725000Y-93490257D01*
X201325000Y-93490257D01*
X201327059Y-93497940D01*
X201334743Y-93500000D01*
X201562866Y-93500000D01*
X201570795Y-93497688D01*
X201572052Y-93489525D01*
X201569507Y-93470198D01*
X201566377Y-93459456D01*
X201523067Y-93366578D01*
X201515754Y-93356134D01*
X201443865Y-93284245D01*
X201433421Y-93276932D01*
X201340544Y-93233623D01*
X201333438Y-93231552D01*
X201327311Y-93232495D01*
X201325000Y-93240425D01*
X201325000Y-93490257D01*
X200725000Y-93490257D01*
X200725000Y-93240425D01*
X200722688Y-93232495D01*
X200716561Y-93231552D01*
X200709455Y-93233623D01*
X200616578Y-93276932D01*
X200606134Y-93284245D01*
X200534245Y-93356134D01*
X200526931Y-93366579D01*
X200491067Y-93443492D01*
X200456730Y-93478587D01*
X200407984Y-93484465D01*
X200366289Y-93458537D01*
X200350000Y-93412219D01*
X200350000Y-93130652D01*
X200355633Y-93102333D01*
X200371674Y-93078326D01*
X200371673Y-93078326D01*
X200750000Y-92700000D01*
X200750000Y-92551832D01*
X201177982Y-92551832D01*
X201180138Y-92558357D01*
X201190710Y-92574179D01*
X201200820Y-92584289D01*
X201271396Y-92631446D01*
X201284601Y-92636916D01*
X201346805Y-92649289D01*
X201354016Y-92650000D01*
X201577757Y-92650000D01*
X201585440Y-92647940D01*
X201587500Y-92640257D01*
X201587500Y-92559743D01*
X201585440Y-92552059D01*
X201577757Y-92550000D01*
X201184606Y-92550000D01*
X201177982Y-92551832D01*
X200750000Y-92551832D01*
X200750000Y-91904457D01*
X200765036Y-91859744D01*
X200800231Y-91835789D01*
X200799919Y-91835070D01*
X200799920Y-91835070D01*
X200864573Y-91806985D01*
X200865575Y-91806561D01*
X200867833Y-91805625D01*
X200896134Y-91800000D01*
X201137879Y-91800000D01*
X201178991Y-91812471D01*
X201206246Y-91845681D01*
X201210457Y-91888437D01*
X201193989Y-91919245D01*
X201194760Y-91919760D01*
X201180138Y-91941642D01*
X201177982Y-91948167D01*
X201184606Y-91950000D01*
X202113500Y-91950000D01*
X202150500Y-91959914D01*
X202177586Y-91987000D01*
X202187500Y-92024000D01*
X202187500Y-92640257D01*
X202189559Y-92647940D01*
X202197243Y-92650000D01*
X202420984Y-92650000D01*
X202428194Y-92649289D01*
X202490398Y-92636916D01*
X202503603Y-92631446D01*
X202574179Y-92584289D01*
X202584289Y-92574179D01*
X202614471Y-92529010D01*
X202651070Y-92500448D01*
X202697481Y-92499308D01*
X202735437Y-92526040D01*
X202750000Y-92570122D01*
X202750000Y-94700000D01*
X202755152Y-94705152D01*
X202755153Y-94705153D01*
X203798512Y-95748512D01*
X203818762Y-95786390D01*
X203815290Y-95821725D01*
X203816781Y-95822125D01*
X203815524Y-95826812D01*
X203813670Y-95831291D01*
X203794750Y-95975000D01*
X203813670Y-96118709D01*
X203815525Y-96123189D01*
X203815526Y-96123190D01*
X203844367Y-96192819D01*
X203850000Y-96221137D01*
X203850000Y-96553863D01*
X203844367Y-96582181D01*
X203818933Y-96643586D01*
X203813670Y-96656291D01*
X203794750Y-96800000D01*
X203813670Y-96943709D01*
X203815525Y-96948189D01*
X203815526Y-96948190D01*
X203844367Y-97017819D01*
X203850000Y-97046137D01*
X203850000Y-99226000D01*
X203840086Y-99263000D01*
X203813000Y-99290086D01*
X203776000Y-99300000D01*
X199624000Y-99300000D01*
X199587000Y-99290086D01*
X199559914Y-99263000D01*
X199550000Y-99226000D01*
X199550000Y-98080547D01*
X200200001Y-98080547D01*
X200200386Y-98085860D01*
X200209083Y-98145561D01*
X200212436Y-98156412D01*
X200258522Y-98250684D01*
X200265547Y-98260522D01*
X200339477Y-98334452D01*
X200349315Y-98341477D01*
X200443586Y-98387563D01*
X200454439Y-98390916D01*
X200514126Y-98399613D01*
X200519464Y-98400000D01*
X201240257Y-98400000D01*
X201247940Y-98397940D01*
X201250000Y-98390257D01*
X201250000Y-98390256D01*
X201850000Y-98390256D01*
X201852059Y-98397939D01*
X201859743Y-98399999D01*
X202580547Y-98399999D01*
X202585860Y-98399613D01*
X202645561Y-98390916D01*
X202656412Y-98387563D01*
X202750684Y-98341477D01*
X202760522Y-98334452D01*
X202834452Y-98260522D01*
X202841477Y-98250684D01*
X202887563Y-98156413D01*
X202890916Y-98145560D01*
X202899613Y-98085873D01*
X202900000Y-98080536D01*
X202900000Y-97709743D01*
X202897940Y-97702059D01*
X202890257Y-97700000D01*
X201859743Y-97700000D01*
X201852059Y-97702059D01*
X201850000Y-97709743D01*
X201850000Y-98390256D01*
X201250000Y-98390256D01*
X201250000Y-97709743D01*
X201247940Y-97702059D01*
X201240257Y-97700000D01*
X200209744Y-97700000D01*
X200202060Y-97702059D01*
X200200001Y-97709743D01*
X200200001Y-98080547D01*
X199550000Y-98080547D01*
X199550000Y-97090257D01*
X200200000Y-97090257D01*
X200202059Y-97097940D01*
X200209743Y-97100000D01*
X201240257Y-97100000D01*
X201247940Y-97097940D01*
X201250000Y-97090257D01*
X201850000Y-97090257D01*
X201852059Y-97097940D01*
X201859743Y-97100000D01*
X202890256Y-97100000D01*
X202897939Y-97097940D01*
X202899999Y-97090257D01*
X202899999Y-96719453D01*
X202899613Y-96714139D01*
X202890916Y-96654438D01*
X202887563Y-96643587D01*
X202841477Y-96549315D01*
X202834452Y-96539477D01*
X202760522Y-96465547D01*
X202750684Y-96458522D01*
X202656413Y-96412436D01*
X202645560Y-96409083D01*
X202585873Y-96400386D01*
X202580536Y-96400000D01*
X201859743Y-96400000D01*
X201852059Y-96402059D01*
X201850000Y-96409743D01*
X201850000Y-97090257D01*
X201250000Y-97090257D01*
X201250000Y-96409744D01*
X201247940Y-96402060D01*
X201240257Y-96400001D01*
X200519453Y-96400001D01*
X200514139Y-96400386D01*
X200454438Y-96409083D01*
X200443587Y-96412436D01*
X200349315Y-96458522D01*
X200339477Y-96465547D01*
X200265547Y-96539477D01*
X200258522Y-96549315D01*
X200212436Y-96643586D01*
X200209083Y-96654439D01*
X200200386Y-96714126D01*
X200200000Y-96719464D01*
X200200000Y-97090257D01*
X199550000Y-97090257D01*
X199550000Y-96507288D01*
X199550000Y-96500000D01*
X198750000Y-95700000D01*
X198742712Y-95700000D01*
X195728015Y-95700000D01*
X195689679Y-95689296D01*
X195662434Y-95660280D01*
X195655000Y-95625298D01*
X195654069Y-95625300D01*
X195652859Y-95056214D01*
X195975001Y-95056214D01*
X195975709Y-95063410D01*
X195979380Y-95081872D01*
X195984850Y-95095076D01*
X195998854Y-95116035D01*
X196008964Y-95126145D01*
X196029923Y-95140149D01*
X196043128Y-95145619D01*
X196061580Y-95149289D01*
X196068791Y-95150000D01*
X196840257Y-95150000D01*
X196847940Y-95147940D01*
X196850000Y-95140257D01*
X196850000Y-95140256D01*
X197450000Y-95140256D01*
X197452059Y-95147939D01*
X197459743Y-95149999D01*
X198231214Y-95149999D01*
X198238410Y-95149290D01*
X198256872Y-95145619D01*
X198270076Y-95140149D01*
X198291035Y-95126145D01*
X198301145Y-95116035D01*
X198315149Y-95095076D01*
X198320619Y-95081871D01*
X198324289Y-95063419D01*
X198325000Y-95056209D01*
X198325000Y-92609743D01*
X198322940Y-92602059D01*
X198315257Y-92600000D01*
X197459743Y-92600000D01*
X197452059Y-92602059D01*
X197450000Y-92609743D01*
X197450000Y-95140256D01*
X196850000Y-95140256D01*
X196850000Y-92609743D01*
X196847940Y-92602059D01*
X196840257Y-92600000D01*
X195984744Y-92600000D01*
X195977060Y-92602059D01*
X195975001Y-92609743D01*
X195975001Y-95056214D01*
X195652859Y-95056214D01*
X195650000Y-93711617D01*
X195650000Y-91990257D01*
X195975000Y-91990257D01*
X195977059Y-91997940D01*
X195984743Y-92000000D01*
X196840257Y-92000000D01*
X196847940Y-91997940D01*
X196850000Y-91990257D01*
X197450000Y-91990257D01*
X197452059Y-91997940D01*
X197459743Y-92000000D01*
X198315256Y-92000000D01*
X198322939Y-91997940D01*
X198324999Y-91990257D01*
X198324999Y-89543786D01*
X198324290Y-89536589D01*
X198320619Y-89518127D01*
X198315149Y-89504923D01*
X198301145Y-89483964D01*
X198291035Y-89473854D01*
X198270076Y-89459850D01*
X198256871Y-89454380D01*
X198238419Y-89450710D01*
X198231209Y-89450000D01*
X197459743Y-89450000D01*
X197452059Y-89452059D01*
X197450000Y-89459743D01*
X197450000Y-91990257D01*
X196850000Y-91990257D01*
X196850000Y-89459744D01*
X196847940Y-89452060D01*
X196840257Y-89450001D01*
X196068786Y-89450001D01*
X196061589Y-89450709D01*
X196043127Y-89454380D01*
X196029923Y-89459850D01*
X196008964Y-89473854D01*
X195998854Y-89483964D01*
X195984850Y-89504923D01*
X195979380Y-89518128D01*
X195975710Y-89536580D01*
X195975000Y-89543791D01*
X195975000Y-91990257D01*
X195650000Y-91990257D01*
X195650000Y-89374000D01*
X195659914Y-89337000D01*
X195687000Y-89309914D01*
X195724000Y-89300000D01*
X198476000Y-89300000D01*
X198513000Y-89309914D01*
G37*
%TD.AperFunction*%
%TD*%
%TA.AperFunction,Conductor*%
%TO.N,+3V3*%
G36*
X193659007Y-87710179D02*
G01*
X195308312Y-87718974D01*
X195345098Y-87728993D01*
X195372015Y-87755996D01*
X195381916Y-87792816D01*
X195398570Y-95625843D01*
X195388708Y-95662909D01*
X195361615Y-95690060D01*
X195324570Y-95700000D01*
X192224000Y-95700000D01*
X192187000Y-95690086D01*
X192159914Y-95663000D01*
X192150000Y-95626000D01*
X192150000Y-95224000D01*
X192159914Y-95187000D01*
X192187000Y-95159914D01*
X192224000Y-95150000D01*
X192990257Y-95150000D01*
X192997940Y-95147940D01*
X193000000Y-95140257D01*
X193000000Y-95140256D01*
X193600000Y-95140256D01*
X193602059Y-95147939D01*
X193609743Y-95149999D01*
X194381214Y-95149999D01*
X194388410Y-95149290D01*
X194406872Y-95145619D01*
X194420076Y-95140149D01*
X194441035Y-95126145D01*
X194451145Y-95116035D01*
X194465149Y-95095076D01*
X194470619Y-95081871D01*
X194474289Y-95063419D01*
X194475000Y-95056209D01*
X194475000Y-92609743D01*
X194472940Y-92602059D01*
X194465257Y-92600000D01*
X193609743Y-92600000D01*
X193602059Y-92602059D01*
X193600000Y-92609743D01*
X193600000Y-95140256D01*
X193000000Y-95140256D01*
X193000000Y-91990257D01*
X193600000Y-91990257D01*
X193602059Y-91997940D01*
X193609743Y-92000000D01*
X194465256Y-92000000D01*
X194472939Y-91997940D01*
X194474999Y-91990257D01*
X194474999Y-89543786D01*
X194474290Y-89536589D01*
X194470619Y-89518127D01*
X194465149Y-89504923D01*
X194451145Y-89483964D01*
X194441035Y-89473854D01*
X194420076Y-89459850D01*
X194406871Y-89454380D01*
X194388419Y-89450710D01*
X194381209Y-89450000D01*
X193609743Y-89450000D01*
X193602059Y-89452059D01*
X193600000Y-89459743D01*
X193600000Y-91990257D01*
X193000000Y-91990257D01*
X193000000Y-89459744D01*
X192997940Y-89452060D01*
X192990257Y-89450001D01*
X192224000Y-89450001D01*
X192187000Y-89440087D01*
X192159914Y-89413001D01*
X192150000Y-89376001D01*
X192150000Y-88810539D01*
X193128981Y-88810539D01*
X193134083Y-88845561D01*
X193137436Y-88856412D01*
X193183522Y-88950684D01*
X193190547Y-88960522D01*
X193264477Y-89034452D01*
X193274315Y-89041477D01*
X193368586Y-89087563D01*
X193379439Y-89090916D01*
X193439126Y-89099613D01*
X193444464Y-89100000D01*
X193640257Y-89100000D01*
X193647940Y-89097940D01*
X193650000Y-89090257D01*
X193650000Y-89090256D01*
X194250000Y-89090256D01*
X194252059Y-89097939D01*
X194259743Y-89099999D01*
X194455547Y-89099999D01*
X194460860Y-89099613D01*
X194520561Y-89090916D01*
X194531412Y-89087563D01*
X194625684Y-89041477D01*
X194635522Y-89034452D01*
X194709452Y-88960522D01*
X194716477Y-88950684D01*
X194762563Y-88856413D01*
X194765916Y-88845560D01*
X194771019Y-88810539D01*
X194769853Y-88802336D01*
X194761904Y-88800000D01*
X194259743Y-88800000D01*
X194252059Y-88802059D01*
X194250000Y-88809743D01*
X194250000Y-89090256D01*
X193650000Y-89090256D01*
X193650000Y-88809743D01*
X193647940Y-88802059D01*
X193640257Y-88800000D01*
X193138097Y-88800000D01*
X193130147Y-88802336D01*
X193128981Y-88810539D01*
X192150000Y-88810539D01*
X192150000Y-88189460D01*
X193128980Y-88189460D01*
X193130146Y-88197663D01*
X193138096Y-88200000D01*
X193640257Y-88200000D01*
X193647940Y-88197940D01*
X193650000Y-88190257D01*
X194250000Y-88190257D01*
X194252059Y-88197940D01*
X194259743Y-88200000D01*
X194761903Y-88200000D01*
X194769852Y-88197663D01*
X194771018Y-88189460D01*
X194765916Y-88154438D01*
X194762563Y-88143587D01*
X194716477Y-88049315D01*
X194709452Y-88039477D01*
X194635522Y-87965547D01*
X194625684Y-87958522D01*
X194531413Y-87912436D01*
X194520560Y-87909083D01*
X194460873Y-87900386D01*
X194455536Y-87900000D01*
X194259743Y-87900000D01*
X194252059Y-87902059D01*
X194250000Y-87909743D01*
X194250000Y-88190257D01*
X193650000Y-88190257D01*
X193650000Y-87909744D01*
X193647940Y-87902060D01*
X193640257Y-87900001D01*
X193444453Y-87900001D01*
X193439139Y-87900386D01*
X193379438Y-87909083D01*
X193368587Y-87912436D01*
X193274315Y-87958522D01*
X193264477Y-87965547D01*
X193190547Y-88039477D01*
X193183522Y-88049315D01*
X193137436Y-88143586D01*
X193134083Y-88154439D01*
X193128980Y-88189460D01*
X192150000Y-88189460D01*
X192150000Y-87776529D01*
X192159980Y-87739415D01*
X192187228Y-87712312D01*
X192224395Y-87702530D01*
X193659007Y-87710179D01*
G37*
%TD.AperFunction*%
%TD*%
%TA.AperFunction,Conductor*%
%TO.N,GND*%
G36*
X206012500Y-88709914D02*
G01*
X206039586Y-88737000D01*
X206049500Y-88774000D01*
X206049500Y-88928608D01*
X206049500Y-88928620D01*
X206049501Y-88931518D01*
X206049955Y-88934390D01*
X206049956Y-88934391D01*
X206063442Y-89019549D01*
X206063443Y-89019552D01*
X206064354Y-89025304D01*
X206066998Y-89030493D01*
X206066999Y-89030496D01*
X206083622Y-89063120D01*
X206121950Y-89138342D01*
X206126068Y-89142460D01*
X206126069Y-89142461D01*
X206128326Y-89144718D01*
X206144367Y-89168725D01*
X206150000Y-89197044D01*
X206150000Y-89429878D01*
X206135437Y-89473960D01*
X206097481Y-89500692D01*
X206051070Y-89499552D01*
X206014471Y-89470990D01*
X205984289Y-89425820D01*
X205974179Y-89415710D01*
X205958357Y-89405138D01*
X205951832Y-89402982D01*
X205950000Y-89409606D01*
X205950000Y-90413500D01*
X205940086Y-90450500D01*
X205913000Y-90477586D01*
X205876000Y-90487500D01*
X205259743Y-90487500D01*
X205252059Y-90489559D01*
X205250000Y-90497243D01*
X205250000Y-90795984D01*
X205250710Y-90803193D01*
X205261227Y-90856063D01*
X205257016Y-90898818D01*
X205229761Y-90932029D01*
X205188649Y-90944500D01*
X204604127Y-90944500D01*
X204563015Y-90932029D01*
X204535760Y-90898819D01*
X204531549Y-90856063D01*
X204551801Y-90818174D01*
X204609452Y-90760522D01*
X204616477Y-90750684D01*
X204662563Y-90656413D01*
X204665916Y-90645560D01*
X204671019Y-90610539D01*
X204669853Y-90602336D01*
X204661904Y-90600000D01*
X203624000Y-90600000D01*
X203587000Y-90590086D01*
X203559914Y-90563000D01*
X203550000Y-90526000D01*
X203550000Y-89990257D01*
X204150000Y-89990257D01*
X204152059Y-89997940D01*
X204159743Y-90000000D01*
X204661903Y-90000000D01*
X204669852Y-89997663D01*
X204671018Y-89989460D01*
X204665916Y-89954438D01*
X204662563Y-89943587D01*
X204630381Y-89877757D01*
X205250000Y-89877757D01*
X205252059Y-89885440D01*
X205259743Y-89887500D01*
X205340257Y-89887500D01*
X205347940Y-89885440D01*
X205350000Y-89877757D01*
X205350000Y-89409606D01*
X205348167Y-89402982D01*
X205341642Y-89405138D01*
X205325820Y-89415710D01*
X205315710Y-89425820D01*
X205268553Y-89496396D01*
X205263083Y-89509601D01*
X205250710Y-89571805D01*
X205250000Y-89579016D01*
X205250000Y-89877757D01*
X204630381Y-89877757D01*
X204616477Y-89849315D01*
X204609452Y-89839477D01*
X204535522Y-89765547D01*
X204525684Y-89758522D01*
X204431413Y-89712436D01*
X204420560Y-89709083D01*
X204360873Y-89700386D01*
X204355536Y-89700000D01*
X204159743Y-89700000D01*
X204152059Y-89702059D01*
X204150000Y-89709743D01*
X204150000Y-89990257D01*
X203550000Y-89990257D01*
X203550000Y-89709744D01*
X203547940Y-89702060D01*
X203540257Y-89700001D01*
X203344453Y-89700001D01*
X203339139Y-89700386D01*
X203279438Y-89709083D01*
X203268587Y-89712436D01*
X203256501Y-89718345D01*
X203207818Y-89724073D01*
X203166235Y-89698116D01*
X203150000Y-89651864D01*
X203150000Y-88774000D01*
X203159914Y-88737000D01*
X203187000Y-88709914D01*
X203224000Y-88700000D01*
X205975500Y-88700000D01*
X206012500Y-88709914D01*
G37*
%TD.AperFunction*%
%TD*%
%TA.AperFunction,Conductor*%
%TO.N,GND*%
G36*
X198547667Y-96005633D02*
G01*
X198571674Y-96021674D01*
X199228326Y-96678326D01*
X199244367Y-96702333D01*
X199250000Y-96730652D01*
X199250000Y-99226000D01*
X199240086Y-99263000D01*
X199213000Y-99290086D01*
X199176000Y-99300000D01*
X194374000Y-99300000D01*
X194337000Y-99290086D01*
X194309914Y-99263000D01*
X194300000Y-99226000D01*
X194300000Y-98080547D01*
X196200001Y-98080547D01*
X196200386Y-98085860D01*
X196209083Y-98145561D01*
X196212436Y-98156412D01*
X196258522Y-98250684D01*
X196265547Y-98260522D01*
X196339477Y-98334452D01*
X196349315Y-98341477D01*
X196443586Y-98387563D01*
X196454439Y-98390916D01*
X196514126Y-98399613D01*
X196519464Y-98400000D01*
X197240257Y-98400000D01*
X197247940Y-98397940D01*
X197250000Y-98390257D01*
X197250000Y-98390256D01*
X197850000Y-98390256D01*
X197852059Y-98397939D01*
X197859743Y-98399999D01*
X198580547Y-98399999D01*
X198585860Y-98399613D01*
X198645561Y-98390916D01*
X198656412Y-98387563D01*
X198750684Y-98341477D01*
X198760522Y-98334452D01*
X198834452Y-98260522D01*
X198841477Y-98250684D01*
X198887563Y-98156413D01*
X198890916Y-98145560D01*
X198899613Y-98085873D01*
X198900000Y-98080536D01*
X198900000Y-97709743D01*
X198897940Y-97702059D01*
X198890257Y-97700000D01*
X197859743Y-97700000D01*
X197852059Y-97702059D01*
X197850000Y-97709743D01*
X197850000Y-98390256D01*
X197250000Y-98390256D01*
X197250000Y-97709743D01*
X197247940Y-97702059D01*
X197240257Y-97700000D01*
X196209744Y-97700000D01*
X196202060Y-97702059D01*
X196200001Y-97709743D01*
X196200001Y-98080547D01*
X194300000Y-98080547D01*
X194300000Y-97090257D01*
X196200000Y-97090257D01*
X196202059Y-97097940D01*
X196209743Y-97100000D01*
X197240257Y-97100000D01*
X197247940Y-97097940D01*
X197250000Y-97090257D01*
X197850000Y-97090257D01*
X197852059Y-97097940D01*
X197859743Y-97100000D01*
X198890256Y-97100000D01*
X198897939Y-97097940D01*
X198899999Y-97090257D01*
X198899999Y-96719453D01*
X198899613Y-96714139D01*
X198890916Y-96654438D01*
X198887563Y-96643587D01*
X198841477Y-96549315D01*
X198834452Y-96539477D01*
X198760522Y-96465547D01*
X198750684Y-96458522D01*
X198656413Y-96412436D01*
X198645560Y-96409083D01*
X198585873Y-96400386D01*
X198580536Y-96400000D01*
X197859743Y-96400000D01*
X197852059Y-96402059D01*
X197850000Y-96409743D01*
X197850000Y-97090257D01*
X197250000Y-97090257D01*
X197250000Y-96409744D01*
X197247940Y-96402060D01*
X197240257Y-96400001D01*
X196519453Y-96400001D01*
X196514139Y-96400386D01*
X196454438Y-96409083D01*
X196443587Y-96412436D01*
X196349315Y-96458522D01*
X196339477Y-96465547D01*
X196265547Y-96539477D01*
X196258522Y-96549315D01*
X196212436Y-96643586D01*
X196209083Y-96654439D01*
X196200386Y-96714126D01*
X196200000Y-96719464D01*
X196200000Y-97090257D01*
X194300000Y-97090257D01*
X194300000Y-96074000D01*
X194309914Y-96037000D01*
X194337000Y-96009914D01*
X194374000Y-96000000D01*
X198519348Y-96000000D01*
X198547667Y-96005633D01*
G37*
%TD.AperFunction*%
%TD*%
%TA.AperFunction,Conductor*%
%TO.N,GND*%
G36*
X195413000Y-85809914D02*
G01*
X195440086Y-85837000D01*
X195450000Y-85874000D01*
X195450000Y-87326000D01*
X195440086Y-87363000D01*
X195413000Y-87390086D01*
X195376000Y-87400000D01*
X193024000Y-87400000D01*
X192987000Y-87390086D01*
X192959914Y-87363000D01*
X192950000Y-87326000D01*
X192950000Y-86910539D01*
X193128981Y-86910539D01*
X193134083Y-86945561D01*
X193137436Y-86956412D01*
X193183522Y-87050684D01*
X193190547Y-87060522D01*
X193264477Y-87134452D01*
X193274315Y-87141477D01*
X193368586Y-87187563D01*
X193379439Y-87190916D01*
X193439126Y-87199613D01*
X193444464Y-87200000D01*
X193640257Y-87200000D01*
X193647940Y-87197940D01*
X193650000Y-87190257D01*
X193650000Y-87190256D01*
X194250000Y-87190256D01*
X194252059Y-87197939D01*
X194259743Y-87199999D01*
X194455547Y-87199999D01*
X194460860Y-87199613D01*
X194520561Y-87190916D01*
X194531412Y-87187563D01*
X194625684Y-87141477D01*
X194635522Y-87134452D01*
X194709452Y-87060522D01*
X194716477Y-87050684D01*
X194762563Y-86956413D01*
X194765916Y-86945560D01*
X194771019Y-86910539D01*
X194769853Y-86902336D01*
X194761904Y-86900000D01*
X194259743Y-86900000D01*
X194252059Y-86902059D01*
X194250000Y-86909743D01*
X194250000Y-87190256D01*
X193650000Y-87190256D01*
X193650000Y-86909743D01*
X193647940Y-86902059D01*
X193640257Y-86900000D01*
X193138097Y-86900000D01*
X193130147Y-86902336D01*
X193128981Y-86910539D01*
X192950000Y-86910539D01*
X192950000Y-86289460D01*
X193128980Y-86289460D01*
X193130146Y-86297663D01*
X193138096Y-86300000D01*
X193640257Y-86300000D01*
X193647940Y-86297940D01*
X193650000Y-86290257D01*
X194250000Y-86290257D01*
X194252059Y-86297940D01*
X194259743Y-86300000D01*
X194761903Y-86300000D01*
X194769852Y-86297663D01*
X194771018Y-86289460D01*
X194765916Y-86254438D01*
X194762563Y-86243587D01*
X194716477Y-86149315D01*
X194709452Y-86139477D01*
X194635522Y-86065547D01*
X194625684Y-86058522D01*
X194531413Y-86012436D01*
X194520560Y-86009083D01*
X194460873Y-86000386D01*
X194455536Y-86000000D01*
X194259743Y-86000000D01*
X194252059Y-86002059D01*
X194250000Y-86009743D01*
X194250000Y-86290257D01*
X193650000Y-86290257D01*
X193650000Y-86009744D01*
X193647940Y-86002060D01*
X193640257Y-86000001D01*
X193444453Y-86000001D01*
X193439139Y-86000386D01*
X193379438Y-86009083D01*
X193368587Y-86012436D01*
X193274315Y-86058522D01*
X193264477Y-86065547D01*
X193190547Y-86139477D01*
X193183522Y-86149315D01*
X193137436Y-86243586D01*
X193134083Y-86254439D01*
X193128980Y-86289460D01*
X192950000Y-86289460D01*
X192950000Y-85874000D01*
X192959914Y-85837000D01*
X192987000Y-85809914D01*
X193024000Y-85800000D01*
X195376000Y-85800000D01*
X195413000Y-85809914D01*
G37*
%TD.AperFunction*%
%TD*%
%TA.AperFunction,Conductor*%
%TO.N,VCCQ*%
G36*
X202813000Y-89609914D02*
G01*
X202840086Y-89637000D01*
X202850000Y-89674000D01*
X202850000Y-91200000D01*
X206460062Y-91200000D01*
X206488381Y-91205633D01*
X206512388Y-91221674D01*
X206514388Y-91223674D01*
X206534640Y-91261563D01*
X206530429Y-91304319D01*
X206503174Y-91337529D01*
X206462062Y-91350000D01*
X206429016Y-91350000D01*
X206421805Y-91350710D01*
X206359601Y-91363083D01*
X206346396Y-91368553D01*
X206275820Y-91415710D01*
X206265710Y-91425820D01*
X206218553Y-91496396D01*
X206213083Y-91509601D01*
X206200710Y-91571805D01*
X206200000Y-91579016D01*
X206200000Y-91877757D01*
X206202059Y-91885440D01*
X206209743Y-91887500D01*
X206990257Y-91887500D01*
X206997940Y-91885441D01*
X207002428Y-91868694D01*
X207021580Y-91835520D01*
X207054754Y-91816367D01*
X207093059Y-91816366D01*
X207126233Y-91835519D01*
X207127826Y-91837112D01*
X207143867Y-91861119D01*
X207149500Y-91889438D01*
X207149500Y-93026000D01*
X207139586Y-93063000D01*
X207112500Y-93090086D01*
X207075500Y-93100000D01*
X206957537Y-93100000D01*
X206913455Y-93085437D01*
X206886723Y-93047481D01*
X206887863Y-93001070D01*
X206916424Y-92964471D01*
X206924181Y-92959287D01*
X206934289Y-92949179D01*
X206981446Y-92878603D01*
X206986916Y-92865398D01*
X206999289Y-92803194D01*
X207000000Y-92795984D01*
X207000000Y-92497243D01*
X206997940Y-92489559D01*
X206990257Y-92487500D01*
X206209743Y-92487500D01*
X206202059Y-92489559D01*
X206200000Y-92497243D01*
X206200000Y-92795984D01*
X206200710Y-92803194D01*
X206213083Y-92865398D01*
X206218553Y-92878603D01*
X206265710Y-92949179D01*
X206275818Y-92959287D01*
X206283576Y-92964471D01*
X206312137Y-93001070D01*
X206313277Y-93047481D01*
X206286545Y-93085437D01*
X206242463Y-93100000D01*
X205963965Y-93100000D01*
X205936184Y-93093331D01*
X205936033Y-93093798D01*
X205930492Y-93091997D01*
X205925304Y-93089354D01*
X205919553Y-93088443D01*
X205919550Y-93088442D01*
X205834391Y-93074954D01*
X205834380Y-93074953D01*
X205831519Y-93074500D01*
X205828610Y-93074500D01*
X205471391Y-93074500D01*
X205471378Y-93074500D01*
X205468482Y-93074501D01*
X205465609Y-93074955D01*
X205465608Y-93074956D01*
X205380449Y-93088442D01*
X205380443Y-93088443D01*
X205374696Y-93089354D01*
X205369509Y-93091996D01*
X205363966Y-93093798D01*
X205363814Y-93093331D01*
X205336035Y-93100000D01*
X203079500Y-93100000D01*
X203042500Y-93090086D01*
X203015414Y-93063000D01*
X203005500Y-93026000D01*
X203005500Y-92754127D01*
X203017971Y-92713015D01*
X203051181Y-92685760D01*
X203093937Y-92681549D01*
X203131826Y-92701801D01*
X203164477Y-92734452D01*
X203174315Y-92741477D01*
X203268586Y-92787563D01*
X203279439Y-92790916D01*
X203339126Y-92799613D01*
X203344464Y-92800000D01*
X203540257Y-92800000D01*
X203547940Y-92797940D01*
X203550000Y-92790257D01*
X203550000Y-92790256D01*
X204150000Y-92790256D01*
X204152059Y-92797939D01*
X204159743Y-92799999D01*
X204355547Y-92799999D01*
X204360860Y-92799613D01*
X204420561Y-92790916D01*
X204431412Y-92787563D01*
X204525684Y-92741477D01*
X204535522Y-92734452D01*
X204609452Y-92660522D01*
X204616477Y-92650684D01*
X204662563Y-92556413D01*
X204665916Y-92545560D01*
X204671019Y-92510539D01*
X204669853Y-92502336D01*
X204661904Y-92500000D01*
X204159743Y-92500000D01*
X204152059Y-92502059D01*
X204150000Y-92509743D01*
X204150000Y-92790256D01*
X203550000Y-92790256D01*
X203550000Y-91890257D01*
X204150000Y-91890257D01*
X204152059Y-91897940D01*
X204159743Y-91900000D01*
X204661903Y-91900000D01*
X204669852Y-91897663D01*
X204671018Y-91889460D01*
X204665916Y-91854438D01*
X204662563Y-91843587D01*
X204616477Y-91749315D01*
X204609452Y-91739477D01*
X204535522Y-91665547D01*
X204525684Y-91658522D01*
X204431413Y-91612436D01*
X204420560Y-91609083D01*
X204360873Y-91600386D01*
X204355536Y-91600000D01*
X204159743Y-91600000D01*
X204152059Y-91602059D01*
X204150000Y-91609743D01*
X204150000Y-91890257D01*
X203550000Y-91890257D01*
X203550000Y-91609744D01*
X203547940Y-91602060D01*
X203540257Y-91600001D01*
X203344453Y-91600001D01*
X203339139Y-91600386D01*
X203279438Y-91609083D01*
X203268587Y-91612436D01*
X203174315Y-91658522D01*
X203164477Y-91665547D01*
X203090547Y-91739477D01*
X203083522Y-91749316D01*
X203068558Y-91779926D01*
X203036397Y-91812985D01*
X202990904Y-91820577D01*
X202949751Y-91799751D01*
X202855153Y-91705153D01*
X202850000Y-91700000D01*
X202842712Y-91700000D01*
X202666967Y-91700000D01*
X202623373Y-91685796D01*
X202596514Y-91648636D01*
X202596702Y-91602787D01*
X202597017Y-91601832D01*
X202590394Y-91600000D01*
X201661500Y-91600000D01*
X201624500Y-91590086D01*
X201597414Y-91563000D01*
X201587500Y-91526000D01*
X201587500Y-90990257D01*
X202187500Y-90990257D01*
X202189559Y-90997940D01*
X202197243Y-91000000D01*
X202590394Y-91000000D01*
X202597017Y-90998167D01*
X202594861Y-90991642D01*
X202584289Y-90975820D01*
X202574179Y-90965710D01*
X202503603Y-90918553D01*
X202490398Y-90913083D01*
X202428194Y-90900710D01*
X202420984Y-90900000D01*
X202197243Y-90900000D01*
X202189559Y-90902059D01*
X202187500Y-90909743D01*
X202187500Y-90990257D01*
X201587500Y-90990257D01*
X201587500Y-90909743D01*
X201585440Y-90902059D01*
X201577757Y-90900000D01*
X201354016Y-90900000D01*
X201346805Y-90900710D01*
X201284601Y-90913083D01*
X201271396Y-90918553D01*
X201200818Y-90965711D01*
X201198197Y-90968333D01*
X201164208Y-90987697D01*
X201125097Y-90987027D01*
X201091792Y-90966512D01*
X201072954Y-90946341D01*
X201068326Y-90940878D01*
X201065290Y-90936921D01*
X201050000Y-90891876D01*
X201050000Y-90707537D01*
X201064563Y-90663455D01*
X201102519Y-90636723D01*
X201148930Y-90637863D01*
X201185529Y-90666424D01*
X201190712Y-90674181D01*
X201200820Y-90684289D01*
X201271396Y-90731446D01*
X201284601Y-90736916D01*
X201346805Y-90749289D01*
X201354016Y-90750000D01*
X201577757Y-90750000D01*
X201585440Y-90747940D01*
X201587500Y-90740257D01*
X202187500Y-90740257D01*
X202189559Y-90747940D01*
X202197243Y-90750000D01*
X202420984Y-90750000D01*
X202428194Y-90749289D01*
X202490398Y-90736916D01*
X202503603Y-90731446D01*
X202574179Y-90684289D01*
X202584289Y-90674179D01*
X202594861Y-90658357D01*
X202597017Y-90651832D01*
X202590394Y-90650000D01*
X202197243Y-90650000D01*
X202189559Y-90652059D01*
X202187500Y-90659743D01*
X202187500Y-90740257D01*
X201587500Y-90740257D01*
X201587500Y-90040257D01*
X202187500Y-90040257D01*
X202189559Y-90047940D01*
X202197243Y-90050000D01*
X202590394Y-90050000D01*
X202597017Y-90048167D01*
X202594861Y-90041642D01*
X202584289Y-90025820D01*
X202574179Y-90015710D01*
X202503603Y-89968553D01*
X202490398Y-89963083D01*
X202428194Y-89950710D01*
X202420984Y-89950000D01*
X202197243Y-89950000D01*
X202189559Y-89952059D01*
X202187500Y-89959743D01*
X202187500Y-90040257D01*
X201587500Y-90040257D01*
X201587500Y-89959743D01*
X201585440Y-89952059D01*
X201577757Y-89950000D01*
X201354016Y-89950000D01*
X201346805Y-89950710D01*
X201284601Y-89963083D01*
X201271396Y-89968553D01*
X201200820Y-90015710D01*
X201190712Y-90025818D01*
X201185529Y-90033576D01*
X201148930Y-90062137D01*
X201102519Y-90063277D01*
X201064563Y-90036545D01*
X201050000Y-89992463D01*
X201050000Y-89674000D01*
X201059914Y-89637000D01*
X201087000Y-89609914D01*
X201124000Y-89600000D01*
X202776000Y-89600000D01*
X202813000Y-89609914D01*
G37*
%TD.AperFunction*%
%TD*%
%TA.AperFunction,Conductor*%
%TO.N,GND*%
G36*
X224749500Y-99494176D02*
G01*
X224748589Y-99505752D01*
X224739122Y-99565524D01*
X224731967Y-99587544D01*
X224707171Y-99636208D01*
X224693563Y-99654938D01*
X224654938Y-99693563D01*
X224636208Y-99707171D01*
X224587544Y-99731967D01*
X224565524Y-99739122D01*
X224505752Y-99748589D01*
X224494176Y-99749500D01*
X216574000Y-99749500D01*
X216537000Y-99739586D01*
X216509914Y-99712500D01*
X216500000Y-99675500D01*
X216500000Y-95575659D01*
X217763628Y-95575659D01*
X217837600Y-95716604D01*
X217842646Y-95723914D01*
X217949435Y-95844454D01*
X217956091Y-95850350D01*
X218088622Y-95941829D01*
X218096487Y-95945957D01*
X218247062Y-96003063D01*
X218255694Y-96005190D01*
X218375430Y-96019729D01*
X218379902Y-96020000D01*
X218710257Y-96020000D01*
X218717940Y-96017940D01*
X218720000Y-96010257D01*
X219220000Y-96010257D01*
X219222059Y-96017940D01*
X219229743Y-96020000D01*
X219560098Y-96020000D01*
X219564569Y-96019729D01*
X219684305Y-96005190D01*
X219692937Y-96003063D01*
X219843512Y-95945957D01*
X219851377Y-95941829D01*
X219983908Y-95850350D01*
X219990564Y-95844454D01*
X220097353Y-95723914D01*
X220102399Y-95716604D01*
X220176371Y-95575659D01*
X222193628Y-95575659D01*
X222267600Y-95716604D01*
X222272646Y-95723914D01*
X222379435Y-95844454D01*
X222386091Y-95850350D01*
X222518622Y-95941829D01*
X222526487Y-95945957D01*
X222677062Y-96003063D01*
X222685694Y-96005190D01*
X222805430Y-96019729D01*
X222809902Y-96020000D01*
X222890257Y-96020000D01*
X222897940Y-96017940D01*
X222900000Y-96010257D01*
X223400000Y-96010257D01*
X223402059Y-96017940D01*
X223409743Y-96020000D01*
X223490098Y-96020000D01*
X223494569Y-96019729D01*
X223614305Y-96005190D01*
X223622937Y-96003063D01*
X223773512Y-95945957D01*
X223781377Y-95941829D01*
X223913908Y-95850350D01*
X223920564Y-95844454D01*
X224027353Y-95723914D01*
X224032399Y-95716604D01*
X224106371Y-95575659D01*
X224106162Y-95572498D01*
X224098110Y-95570000D01*
X223409743Y-95570000D01*
X223402059Y-95572059D01*
X223400000Y-95579743D01*
X223400000Y-96010257D01*
X222900000Y-96010257D01*
X222900000Y-95579743D01*
X222897940Y-95572059D01*
X222890257Y-95570000D01*
X222201890Y-95570000D01*
X222193837Y-95572498D01*
X222193628Y-95575659D01*
X220176371Y-95575659D01*
X220176162Y-95572498D01*
X220168110Y-95570000D01*
X219229743Y-95570000D01*
X219222059Y-95572059D01*
X219220000Y-95579743D01*
X219220000Y-96010257D01*
X218720000Y-96010257D01*
X218720000Y-95579743D01*
X218717940Y-95572059D01*
X218710257Y-95570000D01*
X217771890Y-95570000D01*
X217763837Y-95572498D01*
X217763628Y-95575659D01*
X216500000Y-95575659D01*
X216500000Y-94130652D01*
X216505633Y-94102333D01*
X216521674Y-94078326D01*
X216678326Y-93921674D01*
X216702333Y-93905633D01*
X216730652Y-93900000D01*
X216824561Y-93900000D01*
X216826907Y-93900167D01*
X216828039Y-93900500D01*
X216864201Y-93900500D01*
X216971961Y-93900500D01*
X217810252Y-93900500D01*
X218440799Y-93900500D01*
X218481000Y-93900500D01*
X218518000Y-93910414D01*
X218545086Y-93937500D01*
X218555000Y-93974500D01*
X218555000Y-94426000D01*
X218545086Y-94463000D01*
X218518000Y-94490086D01*
X218481000Y-94500000D01*
X217639743Y-94500000D01*
X217632059Y-94502059D01*
X217630000Y-94509743D01*
X217630000Y-94516058D01*
X217630710Y-94523268D01*
X217640182Y-94570889D01*
X217645652Y-94584094D01*
X217681758Y-94638131D01*
X217691868Y-94648241D01*
X217745905Y-94684347D01*
X217759110Y-94689817D01*
X217806731Y-94699289D01*
X217813942Y-94700000D01*
X217869660Y-94700000D01*
X217909838Y-94711857D01*
X217937141Y-94743629D01*
X217942818Y-94785134D01*
X217925050Y-94823071D01*
X217842646Y-94916085D01*
X217837600Y-94923395D01*
X217763628Y-95064340D01*
X217763837Y-95067501D01*
X217771890Y-95070000D01*
X220168110Y-95070000D01*
X220176162Y-95067501D01*
X220176371Y-95064340D01*
X222193628Y-95064340D01*
X222193837Y-95067501D01*
X222201890Y-95070000D01*
X222890257Y-95070000D01*
X222897940Y-95067940D01*
X222900000Y-95060257D01*
X223400000Y-95060257D01*
X223402059Y-95067940D01*
X223409743Y-95070000D01*
X224098110Y-95070000D01*
X224106162Y-95067501D01*
X224106371Y-95064340D01*
X224032399Y-94923395D01*
X224027353Y-94916085D01*
X223920564Y-94795545D01*
X223913908Y-94789649D01*
X223781377Y-94698170D01*
X223773512Y-94694042D01*
X223622937Y-94636936D01*
X223614305Y-94634809D01*
X223494569Y-94620270D01*
X223490098Y-94620000D01*
X223409743Y-94620000D01*
X223402059Y-94622059D01*
X223400000Y-94629743D01*
X223400000Y-95060257D01*
X222900000Y-95060257D01*
X222900000Y-94629743D01*
X222897940Y-94622059D01*
X222890257Y-94620000D01*
X222809902Y-94620000D01*
X222805430Y-94620270D01*
X222685694Y-94634809D01*
X222677062Y-94636936D01*
X222526487Y-94694042D01*
X222518622Y-94698170D01*
X222386091Y-94789649D01*
X222379435Y-94795545D01*
X222272646Y-94916085D01*
X222267600Y-94923395D01*
X222193628Y-95064340D01*
X220176371Y-95064340D01*
X220102399Y-94923395D01*
X220097353Y-94916085D01*
X219990564Y-94795545D01*
X219983908Y-94789649D01*
X219851377Y-94698170D01*
X219843512Y-94694042D01*
X219692937Y-94636936D01*
X219684305Y-94634809D01*
X219564569Y-94620270D01*
X219560098Y-94620000D01*
X219250218Y-94620000D01*
X219209106Y-94607529D01*
X219181851Y-94574319D01*
X219177640Y-94531564D01*
X219179289Y-94523270D01*
X219180000Y-94516058D01*
X219180000Y-94503544D01*
X219195292Y-94458496D01*
X219234847Y-94432066D01*
X219282318Y-94435177D01*
X219315283Y-94448831D01*
X219319764Y-94450687D01*
X219432280Y-94465500D01*
X219505292Y-94465500D01*
X219507720Y-94465500D01*
X219620236Y-94450687D01*
X219760233Y-94392698D01*
X219880451Y-94300451D01*
X219972698Y-94180233D01*
X220030687Y-94040236D01*
X220040678Y-93964341D01*
X220053429Y-93931555D01*
X220079877Y-93908361D01*
X220114046Y-93900000D01*
X220540257Y-93900000D01*
X220550000Y-93900000D01*
X220550000Y-88101051D01*
X224749500Y-88100070D01*
X224749500Y-99494176D01*
G37*
%TD.AperFunction*%
%TD*%
%TA.AperFunction,Conductor*%
%TO.N,GND*%
G36*
X224505751Y-82251411D02*
G01*
X224521725Y-82253940D01*
X224565525Y-82260877D01*
X224587540Y-82268031D01*
X224636210Y-82292829D01*
X224654938Y-82306436D01*
X224693563Y-82345061D01*
X224707171Y-82363791D01*
X224731967Y-82412455D01*
X224739122Y-82434475D01*
X224748589Y-82494248D01*
X224749500Y-82505824D01*
X224749500Y-88100070D01*
X220540258Y-88101053D01*
X220114214Y-88101151D01*
X220080038Y-88092795D01*
X220053583Y-88069600D01*
X220040830Y-88036810D01*
X220039341Y-88025500D01*
X220030687Y-87959764D01*
X219972698Y-87819767D01*
X219880451Y-87699549D01*
X219760233Y-87607302D01*
X219755754Y-87605447D01*
X219755753Y-87605446D01*
X219624713Y-87551167D01*
X219624709Y-87551166D01*
X219620236Y-87549313D01*
X219615432Y-87548680D01*
X219615430Y-87548680D01*
X219510126Y-87534816D01*
X219510114Y-87534815D01*
X219507720Y-87534500D01*
X219432280Y-87534500D01*
X219429886Y-87534815D01*
X219429873Y-87534816D01*
X219324569Y-87548680D01*
X219324565Y-87548680D01*
X219319764Y-87549313D01*
X219315290Y-87551165D01*
X219315283Y-87551168D01*
X219282318Y-87564823D01*
X219234847Y-87567934D01*
X219195292Y-87541504D01*
X219180000Y-87496456D01*
X219180000Y-87483942D01*
X219179289Y-87476729D01*
X219177640Y-87468436D01*
X219181851Y-87425681D01*
X219209106Y-87392471D01*
X219250218Y-87380000D01*
X219560098Y-87380000D01*
X219564569Y-87379729D01*
X219684305Y-87365190D01*
X219692937Y-87363063D01*
X219843512Y-87305957D01*
X219851377Y-87301829D01*
X219983908Y-87210350D01*
X219990564Y-87204454D01*
X220097353Y-87083914D01*
X220102399Y-87076604D01*
X220176371Y-86935659D01*
X222193628Y-86935659D01*
X222267600Y-87076604D01*
X222272646Y-87083914D01*
X222379435Y-87204454D01*
X222386091Y-87210350D01*
X222518622Y-87301829D01*
X222526487Y-87305957D01*
X222677062Y-87363063D01*
X222685694Y-87365190D01*
X222805430Y-87379729D01*
X222809902Y-87380000D01*
X222890257Y-87380000D01*
X222897940Y-87377940D01*
X222900000Y-87370257D01*
X223400000Y-87370257D01*
X223402059Y-87377940D01*
X223409743Y-87380000D01*
X223490098Y-87380000D01*
X223494569Y-87379729D01*
X223614305Y-87365190D01*
X223622937Y-87363063D01*
X223773512Y-87305957D01*
X223781377Y-87301829D01*
X223913908Y-87210350D01*
X223920564Y-87204454D01*
X224027353Y-87083914D01*
X224032399Y-87076604D01*
X224106371Y-86935659D01*
X224106162Y-86932498D01*
X224098110Y-86930000D01*
X223409743Y-86930000D01*
X223402059Y-86932059D01*
X223400000Y-86939743D01*
X223400000Y-87370257D01*
X222900000Y-87370257D01*
X222900000Y-86939743D01*
X222897940Y-86932059D01*
X222890257Y-86930000D01*
X222201890Y-86930000D01*
X222193837Y-86932498D01*
X222193628Y-86935659D01*
X220176371Y-86935659D01*
X220176162Y-86932498D01*
X220168110Y-86930000D01*
X217771890Y-86930000D01*
X217763837Y-86932498D01*
X217763628Y-86935659D01*
X217837600Y-87076604D01*
X217842646Y-87083914D01*
X217925050Y-87176929D01*
X217942818Y-87214866D01*
X217937141Y-87256371D01*
X217909838Y-87288143D01*
X217869660Y-87300000D01*
X217813942Y-87300000D01*
X217806731Y-87300710D01*
X217759110Y-87310182D01*
X217745905Y-87315652D01*
X217691868Y-87351758D01*
X217681758Y-87361868D01*
X217645652Y-87415905D01*
X217640182Y-87429110D01*
X217630710Y-87476731D01*
X217630000Y-87483942D01*
X217630000Y-87490257D01*
X217632059Y-87497940D01*
X217639743Y-87500000D01*
X218481000Y-87500000D01*
X218518000Y-87509914D01*
X218545086Y-87537000D01*
X218555000Y-87574000D01*
X218555000Y-88025500D01*
X218545086Y-88062500D01*
X218518000Y-88089586D01*
X218481000Y-88099500D01*
X218440799Y-88099500D01*
X216971961Y-88099500D01*
X216828039Y-88099500D01*
X216822965Y-88100989D01*
X216821710Y-88101170D01*
X216811199Y-88101923D01*
X216732610Y-88101941D01*
X216704282Y-88096311D01*
X216680267Y-88080267D01*
X216055153Y-87455153D01*
X216050000Y-87450000D01*
X216042712Y-87450000D01*
X212580652Y-87450000D01*
X212552333Y-87444367D01*
X212528326Y-87428326D01*
X212305153Y-87205153D01*
X212300000Y-87200000D01*
X212292712Y-87200000D01*
X209130652Y-87200000D01*
X209102333Y-87194367D01*
X209078326Y-87178326D01*
X208621674Y-86721674D01*
X208605633Y-86697667D01*
X208600000Y-86669348D01*
X208600000Y-86424340D01*
X217763628Y-86424340D01*
X217763837Y-86427501D01*
X217771890Y-86430000D01*
X218710257Y-86430000D01*
X218717940Y-86427940D01*
X218720000Y-86420257D01*
X219220000Y-86420257D01*
X219222059Y-86427940D01*
X219229743Y-86430000D01*
X220168110Y-86430000D01*
X220176162Y-86427501D01*
X220176371Y-86424340D01*
X222193628Y-86424340D01*
X222193837Y-86427501D01*
X222201890Y-86430000D01*
X222890257Y-86430000D01*
X222897940Y-86427940D01*
X222900000Y-86420257D01*
X223400000Y-86420257D01*
X223402059Y-86427940D01*
X223409743Y-86430000D01*
X224098110Y-86430000D01*
X224106162Y-86427501D01*
X224106371Y-86424340D01*
X224032399Y-86283395D01*
X224027353Y-86276085D01*
X223920564Y-86155545D01*
X223913908Y-86149649D01*
X223781377Y-86058170D01*
X223773512Y-86054042D01*
X223622937Y-85996936D01*
X223614305Y-85994809D01*
X223494569Y-85980270D01*
X223490098Y-85980000D01*
X223409743Y-85980000D01*
X223402059Y-85982059D01*
X223400000Y-85989743D01*
X223400000Y-86420257D01*
X222900000Y-86420257D01*
X222900000Y-85989743D01*
X222897940Y-85982059D01*
X222890257Y-85980000D01*
X222809902Y-85980000D01*
X222805430Y-85980270D01*
X222685694Y-85994809D01*
X222677062Y-85996936D01*
X222526487Y-86054042D01*
X222518622Y-86058170D01*
X222386091Y-86149649D01*
X222379435Y-86155545D01*
X222272646Y-86276085D01*
X222267600Y-86283395D01*
X222193628Y-86424340D01*
X220176371Y-86424340D01*
X220102399Y-86283395D01*
X220097353Y-86276085D01*
X219990564Y-86155545D01*
X219983908Y-86149649D01*
X219851377Y-86058170D01*
X219843512Y-86054042D01*
X219692937Y-85996936D01*
X219684305Y-85994809D01*
X219564569Y-85980270D01*
X219560098Y-85980000D01*
X219229743Y-85980000D01*
X219222059Y-85982059D01*
X219220000Y-85989743D01*
X219220000Y-86420257D01*
X218720000Y-86420257D01*
X218720000Y-85989743D01*
X218717940Y-85982059D01*
X218710257Y-85980000D01*
X218379902Y-85980000D01*
X218375430Y-85980270D01*
X218255694Y-85994809D01*
X218247062Y-85996936D01*
X218096487Y-86054042D01*
X218088622Y-86058170D01*
X217956091Y-86149649D01*
X217949435Y-86155545D01*
X217842646Y-86276085D01*
X217837600Y-86283395D01*
X217763628Y-86424340D01*
X208600000Y-86424340D01*
X208600000Y-85830652D01*
X208605633Y-85802333D01*
X208621674Y-85778326D01*
X208778326Y-85621674D01*
X208802333Y-85605633D01*
X208830652Y-85600000D01*
X208924561Y-85600000D01*
X208926907Y-85600167D01*
X208928039Y-85600500D01*
X209068447Y-85600500D01*
X209071961Y-85600500D01*
X209073092Y-85600167D01*
X209075439Y-85600000D01*
X210242712Y-85600000D01*
X210250000Y-85600000D01*
X211200000Y-84650000D01*
X211200000Y-82324500D01*
X211209914Y-82287500D01*
X211237000Y-82260414D01*
X211274000Y-82250500D01*
X224455830Y-82250500D01*
X224494176Y-82250500D01*
X224505751Y-82251411D01*
G37*
%TD.AperFunction*%
%TD*%
%TA.AperFunction,Conductor*%
%TO.N,GND*%
G36*
X163013000Y-82260414D02*
G01*
X163040086Y-82287500D01*
X163050000Y-82324500D01*
X163050000Y-85551000D01*
X163040086Y-85588000D01*
X163013000Y-85615086D01*
X162976000Y-85625000D01*
X159555652Y-85625000D01*
X159527333Y-85619367D01*
X159503326Y-85603326D01*
X159346674Y-85446674D01*
X159330633Y-85422667D01*
X159325000Y-85394348D01*
X159325000Y-84202477D01*
X159825001Y-84202477D01*
X159825161Y-84205919D01*
X159827430Y-84230121D01*
X159829339Y-84238857D01*
X159870822Y-84357411D01*
X159875945Y-84367106D01*
X159949914Y-84467329D01*
X159957670Y-84475085D01*
X160057893Y-84549054D01*
X160067588Y-84554177D01*
X160186141Y-84595660D01*
X160194878Y-84597569D01*
X160219083Y-84599839D01*
X160222520Y-84600000D01*
X160640257Y-84600000D01*
X160647940Y-84597940D01*
X160650000Y-84590257D01*
X160650000Y-84590256D01*
X161150000Y-84590256D01*
X161152059Y-84597939D01*
X161159743Y-84599999D01*
X161577477Y-84599999D01*
X161580919Y-84599838D01*
X161605121Y-84597569D01*
X161613857Y-84595660D01*
X161732411Y-84554177D01*
X161742106Y-84549054D01*
X161842329Y-84475085D01*
X161850085Y-84467329D01*
X161924054Y-84367106D01*
X161929177Y-84357411D01*
X161970660Y-84238858D01*
X161972569Y-84230121D01*
X161974839Y-84205916D01*
X161975000Y-84202480D01*
X161975000Y-84009743D01*
X161972940Y-84002059D01*
X161965257Y-84000000D01*
X161159743Y-84000000D01*
X161152059Y-84002059D01*
X161150000Y-84009743D01*
X161150000Y-84590256D01*
X160650000Y-84590256D01*
X160650000Y-84009743D01*
X160647940Y-84002059D01*
X160640257Y-84000000D01*
X159834744Y-84000000D01*
X159827060Y-84002059D01*
X159825001Y-84009743D01*
X159825001Y-84202477D01*
X159325000Y-84202477D01*
X159325000Y-84032288D01*
X159325000Y-84025000D01*
X159250000Y-83950000D01*
X159242712Y-83950000D01*
X158872882Y-83950000D01*
X158827069Y-83934114D01*
X158800927Y-83893275D01*
X158805679Y-83845020D01*
X158839286Y-83810066D01*
X158847732Y-83805762D01*
X158857042Y-83798998D01*
X158943998Y-83712042D01*
X158950763Y-83702730D01*
X159006591Y-83593162D01*
X159010149Y-83582213D01*
X159024545Y-83491323D01*
X159024629Y-83490257D01*
X159825000Y-83490257D01*
X159827059Y-83497940D01*
X159834743Y-83500000D01*
X160640257Y-83500000D01*
X160647940Y-83497940D01*
X160650000Y-83490257D01*
X161150000Y-83490257D01*
X161152059Y-83497940D01*
X161159743Y-83500000D01*
X161965256Y-83500000D01*
X161972939Y-83497940D01*
X161974999Y-83490257D01*
X161974999Y-83297523D01*
X161974838Y-83294080D01*
X161972569Y-83269878D01*
X161970660Y-83261142D01*
X161929177Y-83142588D01*
X161924054Y-83132893D01*
X161850085Y-83032670D01*
X161842329Y-83024914D01*
X161742106Y-82950945D01*
X161732411Y-82945822D01*
X161613858Y-82904339D01*
X161605121Y-82902430D01*
X161580916Y-82900160D01*
X161577480Y-82900000D01*
X161159743Y-82900000D01*
X161152059Y-82902059D01*
X161150000Y-82909743D01*
X161150000Y-83490257D01*
X160650000Y-83490257D01*
X160650000Y-82909744D01*
X160647940Y-82902060D01*
X160640257Y-82900001D01*
X160222523Y-82900001D01*
X160219080Y-82900161D01*
X160194878Y-82902430D01*
X160186142Y-82904339D01*
X160067588Y-82945822D01*
X160057893Y-82950945D01*
X159957670Y-83024914D01*
X159949914Y-83032670D01*
X159875945Y-83132893D01*
X159870822Y-83142588D01*
X159829339Y-83261141D01*
X159827430Y-83269878D01*
X159825160Y-83294083D01*
X159825000Y-83297520D01*
X159825000Y-83490257D01*
X159024629Y-83490257D01*
X159025000Y-83485542D01*
X159025000Y-83464743D01*
X159022940Y-83457059D01*
X159015257Y-83455000D01*
X158199000Y-83455000D01*
X158162000Y-83445086D01*
X158134914Y-83418000D01*
X158125000Y-83381000D01*
X158125000Y-82945257D01*
X158625000Y-82945257D01*
X158627059Y-82952940D01*
X158634743Y-82955000D01*
X159015256Y-82955000D01*
X159022939Y-82952940D01*
X159024999Y-82945257D01*
X159024999Y-82924459D01*
X159024543Y-82918676D01*
X159010149Y-82827785D01*
X159006592Y-82816838D01*
X158950763Y-82707269D01*
X158943998Y-82697957D01*
X158857042Y-82611001D01*
X158847730Y-82604236D01*
X158738162Y-82548408D01*
X158727213Y-82544850D01*
X158636323Y-82530454D01*
X158633789Y-82530255D01*
X158627059Y-82532059D01*
X158625000Y-82539743D01*
X158625000Y-82945257D01*
X158125000Y-82945257D01*
X158125000Y-82539744D01*
X158122940Y-82532060D01*
X158116210Y-82530256D01*
X158113676Y-82530456D01*
X158022785Y-82544850D01*
X158011844Y-82548405D01*
X157957595Y-82576047D01*
X157908614Y-82582495D01*
X157866491Y-82556682D01*
X157850000Y-82510112D01*
X157850000Y-82324500D01*
X157859914Y-82287500D01*
X157887000Y-82260414D01*
X157924000Y-82250500D01*
X162976000Y-82250500D01*
X163013000Y-82260414D01*
G37*
%TD.AperFunction*%
%TD*%
%TA.AperFunction,Conductor*%
%TO.N,T12_V-*%
G36*
X167163000Y-86209914D02*
G01*
X167190086Y-86237000D01*
X167200000Y-86274000D01*
X167200000Y-90153133D01*
X167184007Y-90199080D01*
X167142942Y-90225167D01*
X167094554Y-90220119D01*
X167059758Y-90186117D01*
X167026160Y-90118642D01*
X167022568Y-90112842D01*
X166892672Y-89940833D01*
X166888083Y-89935799D01*
X166728781Y-89790575D01*
X166723356Y-89786478D01*
X166540087Y-89673003D01*
X166533987Y-89669966D01*
X166332988Y-89592098D01*
X166326442Y-89590236D01*
X166260717Y-89577950D01*
X166252410Y-89578849D01*
X166250000Y-89586851D01*
X166250000Y-92413149D01*
X166252410Y-92421150D01*
X166260717Y-92422049D01*
X166326442Y-92409763D01*
X166332988Y-92407901D01*
X166533987Y-92330033D01*
X166540087Y-92326996D01*
X166723356Y-92213521D01*
X166728781Y-92209424D01*
X166888083Y-92064200D01*
X166892672Y-92059166D01*
X167022568Y-91887157D01*
X167026160Y-91881357D01*
X167059758Y-91813883D01*
X167094554Y-91779881D01*
X167142942Y-91774833D01*
X167184007Y-91800920D01*
X167200000Y-91846867D01*
X167200000Y-93476000D01*
X167190086Y-93513000D01*
X167163000Y-93540086D01*
X167126000Y-93550000D01*
X160074000Y-93550000D01*
X160037000Y-93540086D01*
X160009914Y-93513000D01*
X160000000Y-93476000D01*
X160000000Y-92229771D01*
X160012001Y-92189372D01*
X160044110Y-92162076D01*
X160085914Y-92156736D01*
X160123853Y-92175084D01*
X160271212Y-92309419D01*
X160276643Y-92313521D01*
X160459912Y-92426996D01*
X160466012Y-92430033D01*
X160667011Y-92507901D01*
X160673557Y-92509763D01*
X160739282Y-92522049D01*
X160747589Y-92521150D01*
X160750000Y-92513149D01*
X161250000Y-92513149D01*
X161252410Y-92521150D01*
X161260717Y-92522049D01*
X161326442Y-92509763D01*
X161332988Y-92507901D01*
X161533987Y-92430033D01*
X161540087Y-92426996D01*
X161723356Y-92313521D01*
X161728781Y-92309424D01*
X161888083Y-92164200D01*
X161892672Y-92159166D01*
X162022568Y-91987157D01*
X162026157Y-91981361D01*
X162122237Y-91788406D01*
X162124696Y-91782058D01*
X162183685Y-91574733D01*
X162184936Y-91568037D01*
X162199841Y-91407190D01*
X162200000Y-91403766D01*
X162200000Y-91359743D01*
X162197940Y-91352059D01*
X162190257Y-91350000D01*
X161259743Y-91350000D01*
X161252059Y-91352059D01*
X161250000Y-91359743D01*
X161250000Y-92513149D01*
X160750000Y-92513149D01*
X160750000Y-91303766D01*
X164800000Y-91303766D01*
X164800158Y-91307190D01*
X164815063Y-91468037D01*
X164816314Y-91474733D01*
X164875303Y-91682058D01*
X164877762Y-91688406D01*
X164973842Y-91881361D01*
X164977431Y-91887157D01*
X165107327Y-92059166D01*
X165111916Y-92064200D01*
X165271218Y-92209424D01*
X165276643Y-92213521D01*
X165459912Y-92326996D01*
X165466012Y-92330033D01*
X165667011Y-92407901D01*
X165673557Y-92409763D01*
X165739282Y-92422049D01*
X165747589Y-92421150D01*
X165750000Y-92413149D01*
X165750000Y-91259743D01*
X165747940Y-91252059D01*
X165740257Y-91250000D01*
X164809743Y-91250000D01*
X164802059Y-91252059D01*
X164800000Y-91259743D01*
X164800000Y-91303766D01*
X160750000Y-91303766D01*
X160750000Y-90840257D01*
X161250000Y-90840257D01*
X161252059Y-90847940D01*
X161259743Y-90850000D01*
X162190257Y-90850000D01*
X162197940Y-90847940D01*
X162200000Y-90840257D01*
X162200000Y-90796234D01*
X162199841Y-90792809D01*
X162194971Y-90740257D01*
X164800000Y-90740257D01*
X164802059Y-90747940D01*
X164809743Y-90750000D01*
X165740257Y-90750000D01*
X165747940Y-90747940D01*
X165750000Y-90740257D01*
X165750000Y-89586851D01*
X165747589Y-89578849D01*
X165739282Y-89577950D01*
X165673557Y-89590236D01*
X165667011Y-89592098D01*
X165466012Y-89669966D01*
X165459912Y-89673003D01*
X165276643Y-89786478D01*
X165271218Y-89790575D01*
X165111916Y-89935799D01*
X165107327Y-89940833D01*
X164977431Y-90112842D01*
X164973842Y-90118638D01*
X164877762Y-90311593D01*
X164875303Y-90317941D01*
X164816314Y-90525266D01*
X164815063Y-90531962D01*
X164800158Y-90692809D01*
X164800000Y-90696234D01*
X164800000Y-90740257D01*
X162194971Y-90740257D01*
X162184936Y-90631962D01*
X162183685Y-90625266D01*
X162124696Y-90417941D01*
X162122237Y-90411593D01*
X162026157Y-90218638D01*
X162022568Y-90212842D01*
X161892672Y-90040833D01*
X161888083Y-90035799D01*
X161728781Y-89890575D01*
X161723356Y-89886478D01*
X161540087Y-89773003D01*
X161533987Y-89769966D01*
X161332988Y-89692098D01*
X161326442Y-89690236D01*
X161260717Y-89677950D01*
X161252410Y-89678849D01*
X161250000Y-89686851D01*
X161250000Y-90840257D01*
X160750000Y-90840257D01*
X160750000Y-89686851D01*
X160747589Y-89678849D01*
X160739282Y-89677950D01*
X160673557Y-89690236D01*
X160667011Y-89692098D01*
X160466012Y-89769966D01*
X160459912Y-89773003D01*
X160276643Y-89886478D01*
X160271212Y-89890580D01*
X160123853Y-90024916D01*
X160085914Y-90043264D01*
X160044110Y-90037924D01*
X160012001Y-90010628D01*
X160000000Y-89970229D01*
X160000000Y-87734820D01*
X160014460Y-87690877D01*
X160052188Y-87664108D01*
X160098440Y-87664973D01*
X160186141Y-87695660D01*
X160194878Y-87697569D01*
X160219083Y-87699839D01*
X160222520Y-87700000D01*
X160640257Y-87700000D01*
X160647940Y-87697940D01*
X160650000Y-87690257D01*
X160650000Y-87690256D01*
X161150000Y-87690256D01*
X161152059Y-87697939D01*
X161159743Y-87699999D01*
X161577477Y-87699999D01*
X161580919Y-87699838D01*
X161605121Y-87697569D01*
X161613857Y-87695660D01*
X161732411Y-87654177D01*
X161742106Y-87649054D01*
X161842329Y-87575085D01*
X161850085Y-87567329D01*
X161924054Y-87467106D01*
X161929177Y-87457411D01*
X161970660Y-87338858D01*
X161972569Y-87330121D01*
X161974839Y-87305916D01*
X161975000Y-87302480D01*
X161975000Y-87109743D01*
X161972940Y-87102059D01*
X161965257Y-87100000D01*
X161159743Y-87100000D01*
X161152059Y-87102059D01*
X161150000Y-87109743D01*
X161150000Y-87690256D01*
X160650000Y-87690256D01*
X160650000Y-86674000D01*
X160659914Y-86637000D01*
X160687000Y-86609914D01*
X160724000Y-86600000D01*
X161965256Y-86600000D01*
X161972939Y-86597940D01*
X161974999Y-86590257D01*
X161974999Y-86397523D01*
X161974838Y-86394080D01*
X161972569Y-86369878D01*
X161970662Y-86361149D01*
X161948720Y-86298440D01*
X161947856Y-86252188D01*
X161974625Y-86214460D01*
X162018568Y-86200000D01*
X167126000Y-86200000D01*
X167163000Y-86209914D01*
G37*
%TD.AperFunction*%
%TD*%
%TA.AperFunction,Conductor*%
%TO.N,T12_V+*%
G36*
X176463000Y-88484914D02*
G01*
X176490086Y-88512000D01*
X176500000Y-88549000D01*
X176500000Y-91563000D01*
X176492188Y-91596094D01*
X176470400Y-91622200D01*
X176217184Y-91812110D01*
X176170891Y-91826886D01*
X176125415Y-91809762D01*
X176100365Y-91768123D01*
X176106543Y-91719924D01*
X176122235Y-91688410D01*
X176124696Y-91682058D01*
X176183685Y-91474733D01*
X176184936Y-91468037D01*
X176199841Y-91307190D01*
X176200000Y-91303766D01*
X176200000Y-91259743D01*
X176197940Y-91252059D01*
X176190257Y-91250000D01*
X175259743Y-91250000D01*
X175252059Y-91252059D01*
X175250000Y-91259743D01*
X175250000Y-92413149D01*
X175252931Y-92422879D01*
X175276174Y-92458591D01*
X175275089Y-92502435D01*
X175249377Y-92537965D01*
X174956099Y-92757924D01*
X174924871Y-92771542D01*
X174890852Y-92769727D01*
X174827039Y-92750990D01*
X174827032Y-92750989D01*
X174821961Y-92749500D01*
X174678039Y-92749500D01*
X174672966Y-92750989D01*
X174672962Y-92750990D01*
X174545021Y-92788556D01*
X174545013Y-92788559D01*
X174539947Y-92790047D01*
X174535498Y-92792905D01*
X174535496Y-92792907D01*
X174423324Y-92864995D01*
X174423320Y-92864998D01*
X174418872Y-92867857D01*
X174415409Y-92871852D01*
X174415406Y-92871856D01*
X174328086Y-92972629D01*
X174328082Y-92972634D01*
X174324623Y-92976627D01*
X174322427Y-92981435D01*
X174322426Y-92981437D01*
X174305916Y-93017590D01*
X174264835Y-93107543D01*
X174264082Y-93112778D01*
X174264081Y-93112783D01*
X174255987Y-93169080D01*
X174244353Y-93250000D01*
X174245010Y-93254573D01*
X174237294Y-93287263D01*
X174215506Y-93313369D01*
X173756892Y-93657330D01*
X173756889Y-93657332D01*
X173750000Y-93662500D01*
X173750000Y-93671117D01*
X173750000Y-96038937D01*
X173735540Y-96082880D01*
X173697811Y-96109650D01*
X173651559Y-96108784D01*
X173638855Y-96104338D01*
X173630121Y-96102430D01*
X173605916Y-96100160D01*
X173602480Y-96100000D01*
X172809743Y-96100000D01*
X172802059Y-96102059D01*
X172800000Y-96109743D01*
X172800000Y-98290256D01*
X172802059Y-98297939D01*
X172809743Y-98299999D01*
X173602477Y-98299999D01*
X173605919Y-98299838D01*
X173630121Y-98297569D01*
X173638854Y-98295661D01*
X173651559Y-98291216D01*
X173697811Y-98290350D01*
X173735540Y-98317120D01*
X173750000Y-98361063D01*
X173750000Y-99675500D01*
X173740086Y-99712500D01*
X173713000Y-99739586D01*
X173676000Y-99749500D01*
X150574000Y-99749500D01*
X150537000Y-99739586D01*
X150509914Y-99712500D01*
X150500000Y-99675500D01*
X150500000Y-98577483D01*
X151125000Y-98577483D01*
X151125160Y-98580919D01*
X151127430Y-98605126D01*
X151129338Y-98613858D01*
X151170821Y-98732409D01*
X151175949Y-98742112D01*
X151249913Y-98842330D01*
X151257669Y-98850086D01*
X151357887Y-98924050D01*
X151367590Y-98929178D01*
X151486141Y-98970661D01*
X151494873Y-98972569D01*
X151519080Y-98974839D01*
X151522517Y-98975000D01*
X152590257Y-98975000D01*
X152597940Y-98972940D01*
X152600000Y-98965257D01*
X153100000Y-98965257D01*
X153102059Y-98972940D01*
X153109743Y-98975000D01*
X154265257Y-98975000D01*
X154272940Y-98972940D01*
X154275000Y-98965257D01*
X154775000Y-98965257D01*
X154777059Y-98972940D01*
X154784743Y-98975000D01*
X155940257Y-98975000D01*
X155947940Y-98972940D01*
X155950000Y-98965257D01*
X156450000Y-98965257D01*
X156452059Y-98972940D01*
X156459743Y-98975000D01*
X157527483Y-98975000D01*
X157530919Y-98974839D01*
X157555126Y-98972569D01*
X157563858Y-98970661D01*
X157682409Y-98929178D01*
X157692112Y-98924050D01*
X157792330Y-98850086D01*
X157800086Y-98842330D01*
X157874050Y-98742112D01*
X157879178Y-98732409D01*
X157920661Y-98613858D01*
X157922569Y-98605126D01*
X157924839Y-98580919D01*
X157925000Y-98577483D01*
X157925000Y-97902477D01*
X171100001Y-97902477D01*
X171100161Y-97905919D01*
X171102430Y-97930121D01*
X171104339Y-97938857D01*
X171145822Y-98057411D01*
X171150945Y-98067106D01*
X171224914Y-98167329D01*
X171232670Y-98175085D01*
X171332893Y-98249054D01*
X171342588Y-98254177D01*
X171461141Y-98295660D01*
X171469878Y-98297569D01*
X171494083Y-98299839D01*
X171497520Y-98300000D01*
X172290257Y-98300000D01*
X172297940Y-98297940D01*
X172300000Y-98290257D01*
X172300000Y-97459743D01*
X172297940Y-97452059D01*
X172290257Y-97450000D01*
X171109744Y-97450000D01*
X171102060Y-97452059D01*
X171100001Y-97459743D01*
X171100001Y-97902477D01*
X157925000Y-97902477D01*
X157925000Y-97659743D01*
X157922940Y-97652059D01*
X157915257Y-97650000D01*
X156459743Y-97650000D01*
X156452059Y-97652059D01*
X156450000Y-97659743D01*
X156450000Y-98965257D01*
X155950000Y-98965257D01*
X155950000Y-97659743D01*
X155947940Y-97652059D01*
X155940257Y-97650000D01*
X154784743Y-97650000D01*
X154777059Y-97652059D01*
X154775000Y-97659743D01*
X154775000Y-98965257D01*
X154275000Y-98965257D01*
X154275000Y-97659743D01*
X154272940Y-97652059D01*
X154265257Y-97650000D01*
X153109743Y-97650000D01*
X153102059Y-97652059D01*
X153100000Y-97659743D01*
X153100000Y-98965257D01*
X152600000Y-98965257D01*
X152600000Y-97659743D01*
X152597940Y-97652059D01*
X152590257Y-97650000D01*
X151134743Y-97650000D01*
X151127059Y-97652059D01*
X151125000Y-97659743D01*
X151125000Y-98577483D01*
X150500000Y-98577483D01*
X150500000Y-97140257D01*
X151125000Y-97140257D01*
X151127059Y-97147940D01*
X151134743Y-97150000D01*
X152590257Y-97150000D01*
X152597940Y-97147940D01*
X152600000Y-97140257D01*
X153100000Y-97140257D01*
X153102059Y-97147940D01*
X153109743Y-97150000D01*
X154265257Y-97150000D01*
X154272940Y-97147940D01*
X154275000Y-97140257D01*
X154775000Y-97140257D01*
X154777059Y-97147940D01*
X154784743Y-97150000D01*
X155940257Y-97150000D01*
X155947940Y-97147940D01*
X155950000Y-97140257D01*
X156450000Y-97140257D01*
X156452059Y-97147940D01*
X156459743Y-97150000D01*
X157915257Y-97150000D01*
X157922940Y-97147940D01*
X157925000Y-97140257D01*
X157925000Y-96940257D01*
X171100000Y-96940257D01*
X171102059Y-96947940D01*
X171109743Y-96950000D01*
X172290257Y-96950000D01*
X172297940Y-96947940D01*
X172300000Y-96940257D01*
X172300000Y-96109744D01*
X172297940Y-96102060D01*
X172290257Y-96100001D01*
X171497523Y-96100001D01*
X171494080Y-96100161D01*
X171469878Y-96102430D01*
X171461142Y-96104339D01*
X171342588Y-96145822D01*
X171332893Y-96150945D01*
X171232670Y-96224914D01*
X171224914Y-96232670D01*
X171150945Y-96332893D01*
X171145822Y-96342588D01*
X171104339Y-96461141D01*
X171102430Y-96469878D01*
X171100160Y-96494083D01*
X171100000Y-96497520D01*
X171100000Y-96940257D01*
X157925000Y-96940257D01*
X157925000Y-96134743D01*
X157922940Y-96127059D01*
X157915257Y-96125000D01*
X156459743Y-96125000D01*
X156452059Y-96127059D01*
X156450000Y-96134743D01*
X156450000Y-97140257D01*
X155950000Y-97140257D01*
X155950000Y-96134743D01*
X155947940Y-96127059D01*
X155940257Y-96125000D01*
X154784743Y-96125000D01*
X154777059Y-96127059D01*
X154775000Y-96134743D01*
X154775000Y-97140257D01*
X154275000Y-97140257D01*
X154275000Y-96134743D01*
X154272940Y-96127059D01*
X154265257Y-96125000D01*
X153109743Y-96125000D01*
X153102059Y-96127059D01*
X153100000Y-96134743D01*
X153100000Y-97140257D01*
X152600000Y-97140257D01*
X152600000Y-96134743D01*
X152597940Y-96127059D01*
X152590257Y-96125000D01*
X151134743Y-96125000D01*
X151127059Y-96127059D01*
X151125000Y-96134743D01*
X151125000Y-97140257D01*
X150500000Y-97140257D01*
X150500000Y-95615257D01*
X151125000Y-95615257D01*
X151127059Y-95622940D01*
X151134743Y-95625000D01*
X152590257Y-95625000D01*
X152597940Y-95622940D01*
X152600000Y-95615257D01*
X153100000Y-95615257D01*
X153102059Y-95622940D01*
X153109743Y-95625000D01*
X154265257Y-95625000D01*
X154272940Y-95622940D01*
X154275000Y-95615257D01*
X154775000Y-95615257D01*
X154777059Y-95622940D01*
X154784743Y-95625000D01*
X155940257Y-95625000D01*
X155947940Y-95622940D01*
X155950000Y-95615257D01*
X156450000Y-95615257D01*
X156452059Y-95622940D01*
X156459743Y-95625000D01*
X157915257Y-95625000D01*
X157922940Y-95622940D01*
X157925000Y-95615257D01*
X157925000Y-94609743D01*
X157922940Y-94602059D01*
X157915257Y-94600000D01*
X156459743Y-94600000D01*
X156452059Y-94602059D01*
X156450000Y-94609743D01*
X156450000Y-95615257D01*
X155950000Y-95615257D01*
X155950000Y-94609743D01*
X155947940Y-94602059D01*
X155940257Y-94600000D01*
X154784743Y-94600000D01*
X154777059Y-94602059D01*
X154775000Y-94609743D01*
X154775000Y-95615257D01*
X154275000Y-95615257D01*
X154275000Y-94609743D01*
X154272940Y-94602059D01*
X154265257Y-94600000D01*
X153109743Y-94600000D01*
X153102059Y-94602059D01*
X153100000Y-94609743D01*
X153100000Y-95615257D01*
X152600000Y-95615257D01*
X152600000Y-94609743D01*
X152597940Y-94602059D01*
X152590257Y-94600000D01*
X151134743Y-94600000D01*
X151127059Y-94602059D01*
X151125000Y-94609743D01*
X151125000Y-95615257D01*
X150500000Y-95615257D01*
X150500000Y-94090257D01*
X151125000Y-94090257D01*
X151127059Y-94097940D01*
X151134743Y-94100000D01*
X152590257Y-94100000D01*
X152597940Y-94097940D01*
X152600000Y-94090257D01*
X153100000Y-94090257D01*
X153102059Y-94097940D01*
X153109743Y-94100000D01*
X154265257Y-94100000D01*
X154272940Y-94097940D01*
X154275000Y-94090257D01*
X154775000Y-94090257D01*
X154777059Y-94097940D01*
X154784743Y-94100000D01*
X155940257Y-94100000D01*
X155947940Y-94097940D01*
X155950000Y-94090257D01*
X155950000Y-92784743D01*
X155947940Y-92777059D01*
X155940257Y-92775000D01*
X154784743Y-92775000D01*
X154777059Y-92777059D01*
X154775000Y-92784743D01*
X154775000Y-94090257D01*
X154275000Y-94090257D01*
X154275000Y-92784743D01*
X154272940Y-92777059D01*
X154265257Y-92775000D01*
X153109743Y-92775000D01*
X153102059Y-92777059D01*
X153100000Y-92784743D01*
X153100000Y-94090257D01*
X152600000Y-94090257D01*
X152600000Y-92784743D01*
X152597940Y-92777059D01*
X152590257Y-92775000D01*
X151522517Y-92775000D01*
X151519080Y-92775160D01*
X151494873Y-92777430D01*
X151486141Y-92779338D01*
X151367590Y-92820821D01*
X151357887Y-92825949D01*
X151257669Y-92899913D01*
X151249913Y-92907669D01*
X151175949Y-93007887D01*
X151170821Y-93017590D01*
X151129338Y-93136141D01*
X151127430Y-93144873D01*
X151125160Y-93169080D01*
X151125000Y-93172517D01*
X151125000Y-94090257D01*
X150500000Y-94090257D01*
X150500000Y-90440472D01*
X150508361Y-90406303D01*
X150531555Y-90379855D01*
X150540063Y-90376545D01*
X150547334Y-90370336D01*
X150550000Y-90361337D01*
X150550000Y-90361336D01*
X151050000Y-90361336D01*
X151052359Y-90369302D01*
X151060598Y-90370387D01*
X151119393Y-90361076D01*
X151130340Y-90357519D01*
X151232852Y-90305286D01*
X151242164Y-90298521D01*
X151323521Y-90217164D01*
X151330286Y-90207852D01*
X151382518Y-90105341D01*
X151386076Y-90094392D01*
X151399544Y-90009353D01*
X151400000Y-90003572D01*
X151400000Y-89959743D01*
X151397940Y-89952059D01*
X151390257Y-89950000D01*
X151059743Y-89950000D01*
X151052059Y-89952059D01*
X151050000Y-89959743D01*
X151050000Y-90361336D01*
X150550000Y-90361336D01*
X150550000Y-89524000D01*
X150559914Y-89487000D01*
X150587000Y-89459914D01*
X150624000Y-89450000D01*
X151390256Y-89450000D01*
X151397939Y-89447940D01*
X151399999Y-89440257D01*
X151399999Y-89396429D01*
X151399543Y-89390645D01*
X151386075Y-89305600D01*
X151383237Y-89296863D01*
X151383239Y-89251130D01*
X151410121Y-89214132D01*
X151453616Y-89200000D01*
X157476000Y-89200000D01*
X157513000Y-89209914D01*
X157540086Y-89237000D01*
X157550000Y-89274000D01*
X157550000Y-92701000D01*
X157540086Y-92738000D01*
X157513000Y-92765086D01*
X157476000Y-92775000D01*
X156459743Y-92775000D01*
X156452059Y-92777059D01*
X156450000Y-92784743D01*
X156450000Y-94090257D01*
X156452059Y-94097940D01*
X156459743Y-94100000D01*
X157915257Y-94100000D01*
X157922940Y-94097940D01*
X157925000Y-94090257D01*
X157925000Y-93453652D01*
X157937471Y-93412540D01*
X157970681Y-93385285D01*
X158013437Y-93381074D01*
X158051326Y-93401326D01*
X159200000Y-94550000D01*
X159207288Y-94550000D01*
X168590257Y-94550000D01*
X168600000Y-94550000D01*
X168600000Y-91403766D01*
X168800000Y-91403766D01*
X168800158Y-91407190D01*
X168815063Y-91568037D01*
X168816314Y-91574733D01*
X168875303Y-91782058D01*
X168877762Y-91788406D01*
X168973842Y-91981361D01*
X168977431Y-91987157D01*
X169107327Y-92159166D01*
X169111916Y-92164200D01*
X169271218Y-92309424D01*
X169276643Y-92313521D01*
X169459912Y-92426996D01*
X169466012Y-92430033D01*
X169667011Y-92507901D01*
X169673557Y-92509763D01*
X169739282Y-92522049D01*
X169747589Y-92521150D01*
X169750000Y-92513149D01*
X170250000Y-92513149D01*
X170252410Y-92521150D01*
X170260717Y-92522049D01*
X170326442Y-92509763D01*
X170332988Y-92507901D01*
X170533987Y-92430033D01*
X170540087Y-92426996D01*
X170723356Y-92313521D01*
X170728781Y-92309424D01*
X170888083Y-92164200D01*
X170892672Y-92159166D01*
X171022568Y-91987157D01*
X171026157Y-91981361D01*
X171122237Y-91788406D01*
X171124696Y-91782058D01*
X171183685Y-91574733D01*
X171184936Y-91568037D01*
X171199841Y-91407190D01*
X171200000Y-91403766D01*
X171200000Y-91359743D01*
X171197940Y-91352059D01*
X171190257Y-91350000D01*
X170259743Y-91350000D01*
X170252059Y-91352059D01*
X170250000Y-91359743D01*
X170250000Y-92513149D01*
X169750000Y-92513149D01*
X169750000Y-91359743D01*
X169747940Y-91352059D01*
X169740257Y-91350000D01*
X168809743Y-91350000D01*
X168802059Y-91352059D01*
X168800000Y-91359743D01*
X168800000Y-91403766D01*
X168600000Y-91403766D01*
X168600000Y-91303766D01*
X173800000Y-91303766D01*
X173800158Y-91307190D01*
X173815063Y-91468037D01*
X173816314Y-91474733D01*
X173875303Y-91682058D01*
X173877762Y-91688406D01*
X173973842Y-91881361D01*
X173977431Y-91887157D01*
X174107327Y-92059166D01*
X174111916Y-92064200D01*
X174271218Y-92209424D01*
X174276643Y-92213521D01*
X174459912Y-92326996D01*
X174466012Y-92330033D01*
X174667011Y-92407901D01*
X174673557Y-92409763D01*
X174739282Y-92422049D01*
X174747589Y-92421150D01*
X174750000Y-92413149D01*
X174750000Y-91259743D01*
X174747940Y-91252059D01*
X174740257Y-91250000D01*
X173809743Y-91250000D01*
X173802059Y-91252059D01*
X173800000Y-91259743D01*
X173800000Y-91303766D01*
X168600000Y-91303766D01*
X168600000Y-90840257D01*
X168800000Y-90840257D01*
X168802059Y-90847940D01*
X168809743Y-90850000D01*
X169740257Y-90850000D01*
X169747940Y-90847940D01*
X169750000Y-90840257D01*
X170250000Y-90840257D01*
X170252059Y-90847940D01*
X170259743Y-90850000D01*
X171190257Y-90850000D01*
X171197940Y-90847940D01*
X171200000Y-90840257D01*
X171200000Y-90796234D01*
X171199841Y-90792809D01*
X171194971Y-90740257D01*
X173800000Y-90740257D01*
X173802059Y-90747940D01*
X173809743Y-90750000D01*
X174740257Y-90750000D01*
X174747940Y-90747940D01*
X174750000Y-90740257D01*
X175250000Y-90740257D01*
X175252059Y-90747940D01*
X175259743Y-90750000D01*
X176190257Y-90750000D01*
X176197940Y-90747940D01*
X176200000Y-90740257D01*
X176200000Y-90696234D01*
X176199841Y-90692809D01*
X176184936Y-90531962D01*
X176183685Y-90525266D01*
X176124696Y-90317941D01*
X176122237Y-90311593D01*
X176026157Y-90118638D01*
X176022568Y-90112842D01*
X175892672Y-89940833D01*
X175888083Y-89935799D01*
X175728781Y-89790575D01*
X175723356Y-89786478D01*
X175540087Y-89673003D01*
X175533987Y-89669966D01*
X175332988Y-89592098D01*
X175326442Y-89590236D01*
X175260717Y-89577950D01*
X175252410Y-89578849D01*
X175250000Y-89586851D01*
X175250000Y-90740257D01*
X174750000Y-90740257D01*
X174750000Y-89586851D01*
X174747589Y-89578849D01*
X174739282Y-89577950D01*
X174673557Y-89590236D01*
X174667011Y-89592098D01*
X174466012Y-89669966D01*
X174459912Y-89673003D01*
X174276643Y-89786478D01*
X174271218Y-89790575D01*
X174111916Y-89935799D01*
X174107327Y-89940833D01*
X173977431Y-90112842D01*
X173973842Y-90118638D01*
X173877762Y-90311593D01*
X173875303Y-90317941D01*
X173816314Y-90525266D01*
X173815063Y-90531962D01*
X173800158Y-90692809D01*
X173800000Y-90696234D01*
X173800000Y-90740257D01*
X171194971Y-90740257D01*
X171184936Y-90631962D01*
X171183685Y-90625266D01*
X171124696Y-90417941D01*
X171122237Y-90411593D01*
X171026157Y-90218638D01*
X171022568Y-90212842D01*
X170892672Y-90040833D01*
X170888083Y-90035799D01*
X170728781Y-89890575D01*
X170723356Y-89886478D01*
X170540087Y-89773003D01*
X170533987Y-89769966D01*
X170332988Y-89692098D01*
X170326442Y-89690236D01*
X170260717Y-89677950D01*
X170252410Y-89678849D01*
X170250000Y-89686851D01*
X170250000Y-90840257D01*
X169750000Y-90840257D01*
X169750000Y-89686851D01*
X169747589Y-89678849D01*
X169739282Y-89677950D01*
X169673557Y-89690236D01*
X169667011Y-89692098D01*
X169466012Y-89769966D01*
X169459912Y-89773003D01*
X169276643Y-89886478D01*
X169271218Y-89890575D01*
X169111916Y-90035799D01*
X169107327Y-90040833D01*
X168977431Y-90212842D01*
X168973842Y-90218638D01*
X168877762Y-90411593D01*
X168875303Y-90417941D01*
X168816314Y-90625266D01*
X168815063Y-90631962D01*
X168800158Y-90792809D01*
X168800000Y-90796234D01*
X168800000Y-90840257D01*
X168600000Y-90840257D01*
X168600000Y-88549000D01*
X168609914Y-88512000D01*
X168637000Y-88484914D01*
X168674000Y-88475000D01*
X176426000Y-88475000D01*
X176463000Y-88484914D01*
G37*
%TD.AperFunction*%
%TD*%
%TA.AperFunction,Conductor*%
%TO.N,GND*%
G36*
X180013000Y-93509914D02*
G01*
X180040086Y-93537000D01*
X180050000Y-93574000D01*
X180050000Y-99675500D01*
X180040086Y-99712500D01*
X180013000Y-99739586D01*
X179976000Y-99749500D01*
X174424000Y-99749500D01*
X174387000Y-99739586D01*
X174359914Y-99712500D01*
X174350000Y-99675500D01*
X174350000Y-97902477D01*
X175100001Y-97902477D01*
X175100161Y-97905919D01*
X175102430Y-97930121D01*
X175104339Y-97938857D01*
X175145822Y-98057411D01*
X175150945Y-98067106D01*
X175224914Y-98167329D01*
X175232670Y-98175085D01*
X175332893Y-98249054D01*
X175342588Y-98254177D01*
X175461141Y-98295660D01*
X175469878Y-98297569D01*
X175494083Y-98299839D01*
X175497520Y-98300000D01*
X176290257Y-98300000D01*
X176297940Y-98297940D01*
X176300000Y-98290257D01*
X176300000Y-98290256D01*
X176800000Y-98290256D01*
X176802059Y-98297939D01*
X176809743Y-98299999D01*
X177602477Y-98299999D01*
X177605919Y-98299838D01*
X177630121Y-98297569D01*
X177638857Y-98295660D01*
X177757411Y-98254177D01*
X177767106Y-98249054D01*
X177867329Y-98175085D01*
X177875085Y-98167329D01*
X177949054Y-98067106D01*
X177954177Y-98057411D01*
X177995660Y-97938858D01*
X177997569Y-97930121D01*
X177999839Y-97905916D01*
X178000000Y-97902480D01*
X178000000Y-97459743D01*
X177997940Y-97452059D01*
X177990257Y-97450000D01*
X176809743Y-97450000D01*
X176802059Y-97452059D01*
X176800000Y-97459743D01*
X176800000Y-98290256D01*
X176300000Y-98290256D01*
X176300000Y-97459743D01*
X176297940Y-97452059D01*
X176290257Y-97450000D01*
X175109744Y-97450000D01*
X175102060Y-97452059D01*
X175100001Y-97459743D01*
X175100001Y-97902477D01*
X174350000Y-97902477D01*
X174350000Y-96940257D01*
X175100000Y-96940257D01*
X175102059Y-96947940D01*
X175109743Y-96950000D01*
X176290257Y-96950000D01*
X176297940Y-96947940D01*
X176300000Y-96940257D01*
X176800000Y-96940257D01*
X176802059Y-96947940D01*
X176809743Y-96950000D01*
X177990256Y-96950000D01*
X177997939Y-96947940D01*
X177999999Y-96940257D01*
X177999999Y-96497523D01*
X177999838Y-96494080D01*
X177997569Y-96469878D01*
X177995660Y-96461142D01*
X177954177Y-96342588D01*
X177949054Y-96332893D01*
X177875085Y-96232670D01*
X177867329Y-96224914D01*
X177767106Y-96150945D01*
X177757411Y-96145822D01*
X177638858Y-96104339D01*
X177630121Y-96102430D01*
X177605916Y-96100160D01*
X177602480Y-96100000D01*
X176809743Y-96100000D01*
X176802059Y-96102059D01*
X176800000Y-96109743D01*
X176800000Y-96940257D01*
X176300000Y-96940257D01*
X176300000Y-96109744D01*
X176297940Y-96102060D01*
X176290257Y-96100001D01*
X175497523Y-96100001D01*
X175494080Y-96100161D01*
X175469878Y-96102430D01*
X175461142Y-96104339D01*
X175342588Y-96145822D01*
X175332893Y-96150945D01*
X175232670Y-96224914D01*
X175224914Y-96232670D01*
X175150945Y-96332893D01*
X175145822Y-96342588D01*
X175104339Y-96461141D01*
X175102430Y-96469878D01*
X175100160Y-96494083D01*
X175100000Y-96497520D01*
X175100000Y-96940257D01*
X174350000Y-96940257D01*
X174350000Y-94976095D01*
X177481954Y-94976095D01*
X177524176Y-95115282D01*
X177526947Y-95121972D01*
X177621018Y-95297965D01*
X177625036Y-95303980D01*
X177751638Y-95458244D01*
X177756755Y-95463361D01*
X177911019Y-95589963D01*
X177917034Y-95593981D01*
X178093027Y-95688052D01*
X178099717Y-95690823D01*
X178238904Y-95733045D01*
X178247400Y-95732906D01*
X178250000Y-95724815D01*
X178750000Y-95724815D01*
X178752599Y-95732906D01*
X178761095Y-95733045D01*
X178900282Y-95690823D01*
X178906972Y-95688052D01*
X179082965Y-95593981D01*
X179088980Y-95589963D01*
X179243244Y-95463361D01*
X179248361Y-95458244D01*
X179374963Y-95303980D01*
X179378981Y-95297965D01*
X179473052Y-95121972D01*
X179475823Y-95115282D01*
X179518045Y-94976095D01*
X179517906Y-94967599D01*
X179509815Y-94965000D01*
X178759743Y-94965000D01*
X178752059Y-94967059D01*
X178750000Y-94974743D01*
X178750000Y-95724815D01*
X178250000Y-95724815D01*
X178250000Y-94974743D01*
X178247940Y-94967059D01*
X178240257Y-94965000D01*
X177490185Y-94965000D01*
X177482093Y-94967599D01*
X177481954Y-94976095D01*
X174350000Y-94976095D01*
X174350000Y-94524000D01*
X174359914Y-94487000D01*
X174387000Y-94459914D01*
X174424000Y-94450000D01*
X177242712Y-94450000D01*
X177250000Y-94450000D01*
X177375759Y-94324240D01*
X177419025Y-94303124D01*
X177466127Y-94313095D01*
X177497125Y-94349934D01*
X177498898Y-94398047D01*
X177481954Y-94453903D01*
X177482093Y-94462400D01*
X177490185Y-94465000D01*
X178240257Y-94465000D01*
X178247940Y-94462940D01*
X178250000Y-94455257D01*
X178750000Y-94455257D01*
X178752059Y-94462940D01*
X178759743Y-94465000D01*
X179509815Y-94465000D01*
X179517906Y-94462400D01*
X179518045Y-94453904D01*
X179475823Y-94314717D01*
X179473052Y-94308027D01*
X179378981Y-94132034D01*
X179374963Y-94126019D01*
X179248361Y-93971755D01*
X179243244Y-93966638D01*
X179088980Y-93840036D01*
X179082965Y-93836018D01*
X178906972Y-93741947D01*
X178900282Y-93739176D01*
X178761095Y-93696954D01*
X178752599Y-93697093D01*
X178750000Y-93705185D01*
X178750000Y-94455257D01*
X178250000Y-94455257D01*
X178250000Y-93705185D01*
X178247400Y-93697093D01*
X178238903Y-93696954D01*
X178183047Y-93713898D01*
X178134934Y-93712125D01*
X178098095Y-93681127D01*
X178088124Y-93634025D01*
X178109240Y-93590759D01*
X178178326Y-93521673D01*
X178202334Y-93505633D01*
X178230652Y-93500000D01*
X179976000Y-93500000D01*
X180013000Y-93509914D01*
G37*
%TD.AperFunction*%
%TD*%
%TA.AperFunction,Conductor*%
%TO.N,VDC*%
G36*
X143263172Y-92664052D02*
G01*
X143290080Y-92700870D01*
X143290293Y-92746472D01*
X143263731Y-92783540D01*
X143207670Y-92824914D01*
X143199914Y-92832670D01*
X143125945Y-92932893D01*
X143120822Y-92942588D01*
X143079339Y-93061141D01*
X143077430Y-93069878D01*
X143075160Y-93094083D01*
X143075000Y-93097520D01*
X143075000Y-93140257D01*
X143077059Y-93147940D01*
X143084743Y-93150000D01*
X144915256Y-93150000D01*
X144922939Y-93147940D01*
X144924999Y-93140257D01*
X144924999Y-93097523D01*
X144924838Y-93094080D01*
X144922569Y-93069878D01*
X144920660Y-93061142D01*
X144879177Y-92942588D01*
X144874054Y-92932893D01*
X144800085Y-92832670D01*
X144792329Y-92824914D01*
X144736269Y-92783540D01*
X144709707Y-92746472D01*
X144709920Y-92700870D01*
X144736828Y-92664052D01*
X144780212Y-92650000D01*
X145435984Y-92650000D01*
X145475635Y-92661519D01*
X145502941Y-92692491D01*
X145509401Y-92733273D01*
X145493003Y-92771168D01*
X145466295Y-92789319D01*
X145467031Y-92790762D01*
X145352269Y-92849236D01*
X145342957Y-92856001D01*
X145256001Y-92942957D01*
X145249236Y-92952269D01*
X145193408Y-93061837D01*
X145189850Y-93072786D01*
X145175454Y-93163676D01*
X145175255Y-93166210D01*
X145177059Y-93172940D01*
X145184743Y-93175000D01*
X146515256Y-93175000D01*
X146522939Y-93172940D01*
X146524743Y-93166210D01*
X146524543Y-93163676D01*
X146510149Y-93072785D01*
X146506592Y-93061838D01*
X146450763Y-92952269D01*
X146443998Y-92942957D01*
X146357042Y-92856001D01*
X146347730Y-92849236D01*
X146232969Y-92790762D01*
X146233704Y-92789319D01*
X146206997Y-92771168D01*
X146190599Y-92733273D01*
X146197059Y-92692491D01*
X146224365Y-92661519D01*
X146264016Y-92650000D01*
X147285344Y-92650000D01*
X147327713Y-92663330D01*
X147354818Y-92698518D01*
X147356893Y-92742886D01*
X147333191Y-92780450D01*
X147298930Y-92794866D01*
X147299281Y-92796469D01*
X147286142Y-92799339D01*
X147167588Y-92840822D01*
X147157893Y-92845945D01*
X147057670Y-92919914D01*
X147049914Y-92927670D01*
X146975945Y-93027893D01*
X146970822Y-93037588D01*
X146929339Y-93156141D01*
X146927430Y-93164878D01*
X146925160Y-93189083D01*
X146925000Y-93192520D01*
X146925000Y-93335257D01*
X146927059Y-93342940D01*
X146934743Y-93345000D01*
X149515256Y-93345000D01*
X149522939Y-93342940D01*
X149524999Y-93335257D01*
X149524999Y-93192523D01*
X149524838Y-93189080D01*
X149522569Y-93164878D01*
X149520660Y-93156142D01*
X149479177Y-93037588D01*
X149474054Y-93027893D01*
X149400085Y-92927670D01*
X149392329Y-92919914D01*
X149292106Y-92845945D01*
X149282411Y-92840822D01*
X149163858Y-92799339D01*
X149150720Y-92796469D01*
X149151070Y-92794866D01*
X149116809Y-92780448D01*
X149093109Y-92742884D01*
X149095185Y-92698516D01*
X149122290Y-92663330D01*
X149164659Y-92650000D01*
X149626000Y-92650000D01*
X149663000Y-92659914D01*
X149690086Y-92687000D01*
X149700000Y-92724000D01*
X149700000Y-96076000D01*
X149690086Y-96113000D01*
X149663000Y-96140086D01*
X149626000Y-96150000D01*
X142374000Y-96150000D01*
X142337000Y-96140086D01*
X142309914Y-96113000D01*
X142300000Y-96076000D01*
X142300000Y-95585598D01*
X142679612Y-95585598D01*
X142688923Y-95644393D01*
X142692480Y-95655340D01*
X142744713Y-95757852D01*
X142751478Y-95767164D01*
X142832835Y-95848521D01*
X142842147Y-95855286D01*
X142944658Y-95907518D01*
X142955607Y-95911076D01*
X143040646Y-95924544D01*
X143046428Y-95925000D01*
X143090257Y-95925000D01*
X143097940Y-95922940D01*
X143100000Y-95915257D01*
X143100000Y-95915256D01*
X143600000Y-95915256D01*
X143602059Y-95922939D01*
X143609743Y-95924999D01*
X143653571Y-95924999D01*
X143659354Y-95924543D01*
X143744393Y-95911076D01*
X143755340Y-95907519D01*
X143857852Y-95855286D01*
X143867164Y-95848521D01*
X143948521Y-95767164D01*
X143955286Y-95757852D01*
X144007518Y-95655341D01*
X144011076Y-95644392D01*
X144016715Y-95608789D01*
X144600256Y-95608789D01*
X144600456Y-95611323D01*
X144614850Y-95702214D01*
X144618407Y-95713161D01*
X144674236Y-95822730D01*
X144681001Y-95832042D01*
X144767957Y-95918998D01*
X144777269Y-95925763D01*
X144886837Y-95981591D01*
X144897786Y-95985149D01*
X144988676Y-95999545D01*
X144994458Y-96000000D01*
X145140257Y-96000000D01*
X145147940Y-95997940D01*
X145150000Y-95990257D01*
X145150000Y-95990256D01*
X145650000Y-95990256D01*
X145652059Y-95997939D01*
X145659743Y-95999999D01*
X145805541Y-95999999D01*
X145811323Y-95999543D01*
X145902214Y-95985149D01*
X145913161Y-95981592D01*
X146022730Y-95925763D01*
X146032042Y-95918998D01*
X146118998Y-95832042D01*
X146125763Y-95822730D01*
X146181591Y-95713162D01*
X146185149Y-95702213D01*
X146199545Y-95611323D01*
X146199744Y-95608789D01*
X146197940Y-95602059D01*
X146190257Y-95600000D01*
X145659743Y-95600000D01*
X145652059Y-95602059D01*
X145650000Y-95609743D01*
X145650000Y-95990256D01*
X145150000Y-95990256D01*
X145150000Y-95609743D01*
X145147940Y-95602059D01*
X145140257Y-95600000D01*
X144609744Y-95600000D01*
X144602060Y-95602059D01*
X144600256Y-95608789D01*
X144016715Y-95608789D01*
X144020388Y-95585598D01*
X144019303Y-95577359D01*
X144011337Y-95575000D01*
X143609743Y-95575000D01*
X143602059Y-95577059D01*
X143600000Y-95584743D01*
X143600000Y-95915256D01*
X143100000Y-95915256D01*
X143100000Y-95584743D01*
X143097940Y-95577059D01*
X143090257Y-95575000D01*
X142688664Y-95575000D01*
X142680697Y-95577359D01*
X142679612Y-95585598D01*
X142300000Y-95585598D01*
X142300000Y-95091210D01*
X144600255Y-95091210D01*
X144602059Y-95097940D01*
X144609743Y-95100000D01*
X145140257Y-95100000D01*
X145147940Y-95097940D01*
X145150000Y-95090257D01*
X145650000Y-95090257D01*
X145652059Y-95097940D01*
X145659743Y-95100000D01*
X146190256Y-95100000D01*
X146197939Y-95097940D01*
X146199743Y-95091210D01*
X146199543Y-95088676D01*
X146185149Y-94997785D01*
X146181592Y-94986838D01*
X146125763Y-94877269D01*
X146118998Y-94867957D01*
X146032042Y-94781001D01*
X146022730Y-94774236D01*
X145913162Y-94718408D01*
X145902213Y-94714850D01*
X145811323Y-94700454D01*
X145805542Y-94700000D01*
X145659743Y-94700000D01*
X145652059Y-94702059D01*
X145650000Y-94709743D01*
X145650000Y-95090257D01*
X145150000Y-95090257D01*
X145150000Y-94709744D01*
X145147940Y-94702060D01*
X145140257Y-94700001D01*
X144994459Y-94700001D01*
X144988676Y-94700456D01*
X144897785Y-94714850D01*
X144886838Y-94718407D01*
X144777269Y-94774236D01*
X144767957Y-94781001D01*
X144681001Y-94867957D01*
X144674236Y-94877269D01*
X144618408Y-94986837D01*
X144614850Y-94997786D01*
X144600454Y-95088676D01*
X144600255Y-95091210D01*
X142300000Y-95091210D01*
X142300000Y-95064401D01*
X142679611Y-95064401D01*
X142680696Y-95072640D01*
X142688663Y-95075000D01*
X143090257Y-95075000D01*
X143097940Y-95072940D01*
X143100000Y-95065257D01*
X143600000Y-95065257D01*
X143602059Y-95072940D01*
X143609743Y-95075000D01*
X144011336Y-95075000D01*
X144019302Y-95072640D01*
X144020387Y-95064401D01*
X144011076Y-95005606D01*
X144007519Y-94994659D01*
X143955286Y-94892147D01*
X143948521Y-94882835D01*
X143867164Y-94801478D01*
X143857852Y-94794713D01*
X143755341Y-94742481D01*
X143744392Y-94738923D01*
X143659353Y-94725455D01*
X143653572Y-94725000D01*
X143609743Y-94725000D01*
X143602059Y-94727059D01*
X143600000Y-94734743D01*
X143600000Y-95065257D01*
X143100000Y-95065257D01*
X143100000Y-94734744D01*
X143097940Y-94727060D01*
X143090257Y-94725001D01*
X143046429Y-94725001D01*
X143040645Y-94725456D01*
X142955606Y-94738923D01*
X142944659Y-94742480D01*
X142842147Y-94794713D01*
X142832835Y-94801478D01*
X142751478Y-94882835D01*
X142744713Y-94892147D01*
X142692481Y-94994658D01*
X142688923Y-95005607D01*
X142679611Y-95064401D01*
X142300000Y-95064401D01*
X142300000Y-94624000D01*
X142309914Y-94587000D01*
X142337000Y-94559914D01*
X142374000Y-94550000D01*
X146590257Y-94550000D01*
X146600000Y-94550000D01*
X146600000Y-94250000D01*
X146590257Y-94250000D01*
X141674000Y-94250000D01*
X141637000Y-94240086D01*
X141609914Y-94213000D01*
X141600000Y-94176000D01*
X141600000Y-93702477D01*
X143075001Y-93702477D01*
X143075161Y-93705919D01*
X143077430Y-93730121D01*
X143079339Y-93738857D01*
X143120822Y-93857411D01*
X143125945Y-93867106D01*
X143199914Y-93967329D01*
X143207670Y-93975085D01*
X143307893Y-94049054D01*
X143317588Y-94054177D01*
X143436141Y-94095660D01*
X143444878Y-94097569D01*
X143469083Y-94099839D01*
X143472520Y-94100000D01*
X143740257Y-94100000D01*
X143747940Y-94097940D01*
X143750000Y-94090257D01*
X143750000Y-94090256D01*
X144250000Y-94090256D01*
X144252059Y-94097939D01*
X144259743Y-94099999D01*
X144527477Y-94099999D01*
X144530919Y-94099838D01*
X144555121Y-94097569D01*
X144563857Y-94095660D01*
X144682411Y-94054177D01*
X144692106Y-94049054D01*
X144792329Y-93975085D01*
X144800085Y-93967329D01*
X144874054Y-93867106D01*
X144879177Y-93857411D01*
X144920660Y-93738858D01*
X144922569Y-93730121D01*
X144924839Y-93705916D01*
X144925000Y-93702480D01*
X144925000Y-93683789D01*
X145175256Y-93683789D01*
X145175456Y-93686323D01*
X145189850Y-93777214D01*
X145193407Y-93788161D01*
X145249236Y-93897730D01*
X145256001Y-93907042D01*
X145342957Y-93993998D01*
X145352269Y-94000763D01*
X145461837Y-94056591D01*
X145472786Y-94060149D01*
X145563676Y-94074545D01*
X145569458Y-94075000D01*
X145590257Y-94075000D01*
X145597940Y-94072940D01*
X145600000Y-94065257D01*
X145600000Y-94065256D01*
X146100000Y-94065256D01*
X146102059Y-94072939D01*
X146109743Y-94074999D01*
X146130541Y-94074999D01*
X146136323Y-94074543D01*
X146227214Y-94060149D01*
X146238161Y-94056592D01*
X146347730Y-94000763D01*
X146352253Y-93997477D01*
X146925001Y-93997477D01*
X146925161Y-94000919D01*
X146927430Y-94025121D01*
X146929339Y-94033857D01*
X146970822Y-94152411D01*
X146975945Y-94162106D01*
X147049914Y-94262329D01*
X147057670Y-94270085D01*
X147157893Y-94344054D01*
X147167588Y-94349177D01*
X147286141Y-94390660D01*
X147294878Y-94392569D01*
X147319083Y-94394839D01*
X147322520Y-94395000D01*
X147965257Y-94395000D01*
X147972940Y-94392940D01*
X147975000Y-94385257D01*
X147975000Y-94385256D01*
X148475000Y-94385256D01*
X148477059Y-94392939D01*
X148484743Y-94394999D01*
X149127477Y-94394999D01*
X149130919Y-94394838D01*
X149155121Y-94392569D01*
X149163857Y-94390660D01*
X149282411Y-94349177D01*
X149292106Y-94344054D01*
X149392329Y-94270085D01*
X149400085Y-94262329D01*
X149474054Y-94162106D01*
X149479177Y-94152411D01*
X149520660Y-94033858D01*
X149522569Y-94025121D01*
X149524839Y-94000916D01*
X149525000Y-93997480D01*
X149525000Y-93854743D01*
X149522940Y-93847059D01*
X149515257Y-93845000D01*
X148484743Y-93845000D01*
X148477059Y-93847059D01*
X148475000Y-93854743D01*
X148475000Y-94385256D01*
X147975000Y-94385256D01*
X147975000Y-93854743D01*
X147972940Y-93847059D01*
X147965257Y-93845000D01*
X146934744Y-93845000D01*
X146927060Y-93847059D01*
X146925001Y-93854743D01*
X146925001Y-93997477D01*
X146352253Y-93997477D01*
X146357042Y-93993998D01*
X146443998Y-93907042D01*
X146450763Y-93897730D01*
X146506591Y-93788162D01*
X146510149Y-93777213D01*
X146524545Y-93686323D01*
X146524744Y-93683789D01*
X146522940Y-93677059D01*
X146515257Y-93675000D01*
X146109743Y-93675000D01*
X146102059Y-93677059D01*
X146100000Y-93684743D01*
X146100000Y-94065256D01*
X145600000Y-94065256D01*
X145600000Y-93684743D01*
X145597940Y-93677059D01*
X145590257Y-93675000D01*
X145184744Y-93675000D01*
X145177060Y-93677059D01*
X145175256Y-93683789D01*
X144925000Y-93683789D01*
X144925000Y-93659743D01*
X144922940Y-93652059D01*
X144915257Y-93650000D01*
X144259743Y-93650000D01*
X144252059Y-93652059D01*
X144250000Y-93659743D01*
X144250000Y-94090256D01*
X143750000Y-94090256D01*
X143750000Y-93659743D01*
X143747940Y-93652059D01*
X143740257Y-93650000D01*
X143084744Y-93650000D01*
X143077060Y-93652059D01*
X143075001Y-93659743D01*
X143075001Y-93702477D01*
X141600000Y-93702477D01*
X141600000Y-92767755D01*
X141605633Y-92739436D01*
X141621674Y-92715429D01*
X141665429Y-92671674D01*
X141689436Y-92655633D01*
X141717755Y-92650000D01*
X143219788Y-92650000D01*
X143263172Y-92664052D01*
G37*
%TD.AperFunction*%
%TD*%
%TA.AperFunction,Conductor*%
%TO.N,GND*%
G36*
X143508754Y-86420848D02*
G01*
X143517126Y-86434510D01*
X143515034Y-86450396D01*
X143490692Y-86498168D01*
X143489539Y-86501717D01*
X143475146Y-86592594D01*
X143475000Y-86594457D01*
X143475000Y-86645227D01*
X143476397Y-86648602D01*
X143479773Y-86650000D01*
X144301000Y-86650000D01*
X144317971Y-86657029D01*
X144325000Y-86674000D01*
X144325000Y-87568584D01*
X144325765Y-87571169D01*
X144328437Y-87571521D01*
X144398283Y-87560460D01*
X144401831Y-87559307D01*
X144511361Y-87503498D01*
X144514379Y-87501306D01*
X144601306Y-87414379D01*
X144603498Y-87411361D01*
X144654616Y-87311039D01*
X144665952Y-87300140D01*
X144681603Y-87298598D01*
X144694848Y-87307077D01*
X144700000Y-87321935D01*
X144700000Y-88136228D01*
X144694651Y-88151332D01*
X144680990Y-88159704D01*
X144665104Y-88157612D01*
X144584652Y-88116619D01*
X144581103Y-88115466D01*
X144484375Y-88100146D01*
X144482513Y-88100000D01*
X144479773Y-88100000D01*
X144476397Y-88101397D01*
X144475000Y-88104773D01*
X144475000Y-89695226D01*
X144476397Y-89698601D01*
X144479773Y-89699999D01*
X144482512Y-89699999D01*
X144484374Y-89699852D01*
X144581103Y-89684533D01*
X144584652Y-89683380D01*
X144701239Y-89623975D01*
X144704257Y-89621783D01*
X144796783Y-89529257D01*
X144798975Y-89526239D01*
X144858379Y-89409653D01*
X144858849Y-89408208D01*
X144868601Y-89395492D01*
X144884182Y-89391749D01*
X144898647Y-89398647D01*
X145725000Y-90225000D01*
X148623666Y-90225000D01*
X148640637Y-90232029D01*
X148711658Y-90303050D01*
X148824696Y-90360646D01*
X148918481Y-90375500D01*
X148918417Y-90375900D01*
X148932279Y-90382279D01*
X149692971Y-91142971D01*
X149700000Y-91159942D01*
X149700000Y-92226000D01*
X149692971Y-92242971D01*
X149676000Y-92250000D01*
X146534641Y-92250000D01*
X146521570Y-92246128D01*
X146512716Y-92235762D01*
X146510936Y-92222246D01*
X146524853Y-92134374D01*
X146525000Y-92132513D01*
X146525000Y-92129773D01*
X146523602Y-92126397D01*
X146520227Y-92125000D01*
X145179774Y-92125000D01*
X145176398Y-92126397D01*
X145175001Y-92129773D01*
X145175001Y-92132512D01*
X145175147Y-92134374D01*
X145189064Y-92222246D01*
X145187284Y-92235762D01*
X145178430Y-92246128D01*
X145165359Y-92250000D01*
X141599000Y-92250000D01*
X141582029Y-92242971D01*
X141575000Y-92226000D01*
X141575000Y-91803633D01*
X143075001Y-91803633D01*
X143075054Y-91804771D01*
X143077714Y-91833151D01*
X143078333Y-91835982D01*
X143122058Y-91960945D01*
X143123724Y-91964096D01*
X143202137Y-92070341D01*
X143204658Y-92072862D01*
X143310903Y-92151275D01*
X143314054Y-92152941D01*
X143439016Y-92196666D01*
X143441849Y-92197285D01*
X143470229Y-92199946D01*
X143471365Y-92200000D01*
X143745227Y-92200000D01*
X143748602Y-92198602D01*
X143750000Y-92195227D01*
X143750000Y-92195226D01*
X144250000Y-92195226D01*
X144251397Y-92198601D01*
X144254773Y-92199999D01*
X144528633Y-92199999D01*
X144529771Y-92199945D01*
X144558151Y-92197285D01*
X144560982Y-92196666D01*
X144685945Y-92152941D01*
X144689096Y-92151275D01*
X144795341Y-92072862D01*
X144797862Y-92070341D01*
X144876275Y-91964096D01*
X144877941Y-91960945D01*
X144921666Y-91835983D01*
X144922285Y-91833150D01*
X144924946Y-91804770D01*
X144925000Y-91803635D01*
X144925000Y-91754773D01*
X144923602Y-91751397D01*
X144920227Y-91750000D01*
X144254773Y-91750000D01*
X144251397Y-91751397D01*
X144250000Y-91754773D01*
X144250000Y-92195226D01*
X143750000Y-92195226D01*
X143750000Y-91754773D01*
X143748602Y-91751397D01*
X143745227Y-91750000D01*
X143079774Y-91750000D01*
X143076398Y-91751397D01*
X143075001Y-91754773D01*
X143075001Y-91803633D01*
X141575000Y-91803633D01*
X141575000Y-91620227D01*
X145175000Y-91620227D01*
X145176397Y-91623602D01*
X145179773Y-91625000D01*
X145595227Y-91625000D01*
X145598602Y-91623602D01*
X145600000Y-91620227D01*
X146100000Y-91620227D01*
X146101397Y-91623602D01*
X146104773Y-91625000D01*
X146520226Y-91625000D01*
X146523601Y-91623602D01*
X146524999Y-91620227D01*
X146524999Y-91617488D01*
X146524852Y-91615625D01*
X146509533Y-91518896D01*
X146508380Y-91515347D01*
X146448975Y-91398760D01*
X146446783Y-91395742D01*
X146354257Y-91303216D01*
X146351239Y-91301024D01*
X146234652Y-91241619D01*
X146231103Y-91240466D01*
X146134375Y-91225146D01*
X146132513Y-91225000D01*
X146104773Y-91225000D01*
X146101397Y-91226397D01*
X146100000Y-91229773D01*
X146100000Y-91620227D01*
X145600000Y-91620227D01*
X145600000Y-91229774D01*
X145598602Y-91226398D01*
X145595227Y-91225001D01*
X145567488Y-91225001D01*
X145565625Y-91225147D01*
X145468896Y-91240466D01*
X145465347Y-91241619D01*
X145348760Y-91301024D01*
X145345742Y-91303216D01*
X145253216Y-91395742D01*
X145251024Y-91398760D01*
X145191619Y-91515347D01*
X145190466Y-91518896D01*
X145175146Y-91615624D01*
X145175000Y-91617487D01*
X145175000Y-91620227D01*
X141575000Y-91620227D01*
X141575000Y-91245227D01*
X143075000Y-91245227D01*
X143076397Y-91248602D01*
X143079773Y-91250000D01*
X143745227Y-91250000D01*
X143748602Y-91248602D01*
X143750000Y-91245227D01*
X144250000Y-91245227D01*
X144251397Y-91248602D01*
X144254773Y-91250000D01*
X144920226Y-91250000D01*
X144923601Y-91248602D01*
X144924999Y-91245227D01*
X144924999Y-91196367D01*
X144924945Y-91195228D01*
X144922285Y-91166848D01*
X144921666Y-91164017D01*
X144877941Y-91039054D01*
X144876275Y-91035903D01*
X144797862Y-90929658D01*
X144795341Y-90927137D01*
X144689096Y-90848724D01*
X144685945Y-90847058D01*
X144560983Y-90803333D01*
X144558150Y-90802714D01*
X144529770Y-90800053D01*
X144528635Y-90800000D01*
X144254773Y-90800000D01*
X144251397Y-90801397D01*
X144250000Y-90804773D01*
X144250000Y-91245227D01*
X143750000Y-91245227D01*
X143750000Y-90804774D01*
X143748602Y-90801398D01*
X143745227Y-90800001D01*
X143471367Y-90800001D01*
X143470228Y-90800054D01*
X143441848Y-90802714D01*
X143439017Y-90803333D01*
X143314054Y-90847058D01*
X143310903Y-90848724D01*
X143204658Y-90927137D01*
X143202137Y-90929658D01*
X143123724Y-91035903D01*
X143122058Y-91039054D01*
X143078333Y-91164016D01*
X143077714Y-91166849D01*
X143075053Y-91195229D01*
X143075000Y-91196365D01*
X143075000Y-91245227D01*
X141575000Y-91245227D01*
X141575000Y-90995226D01*
X142075000Y-90995226D01*
X142076397Y-90998601D01*
X142079773Y-90999999D01*
X142444850Y-90999999D01*
X142446578Y-90999873D01*
X142511905Y-90990356D01*
X142515423Y-90989269D01*
X142616901Y-90939659D01*
X142620094Y-90937380D01*
X142699880Y-90857594D01*
X142702159Y-90854401D01*
X142751768Y-90752924D01*
X142752065Y-90751965D01*
X142751893Y-90750758D01*
X142749314Y-90750000D01*
X142079773Y-90750000D01*
X142076397Y-90751397D01*
X142075000Y-90754773D01*
X142075000Y-90995226D01*
X141575000Y-90995226D01*
X141575000Y-90245227D01*
X142075000Y-90245227D01*
X142076397Y-90248602D01*
X142079773Y-90250000D01*
X142749314Y-90250000D01*
X142751893Y-90249241D01*
X142752065Y-90248034D01*
X142751768Y-90247075D01*
X142702159Y-90145598D01*
X142699880Y-90142405D01*
X142620094Y-90062619D01*
X142616901Y-90060340D01*
X142515423Y-90010730D01*
X142511905Y-90009643D01*
X142446579Y-90000125D01*
X142444851Y-90000000D01*
X142079773Y-90000000D01*
X142076397Y-90001397D01*
X142075000Y-90004773D01*
X142075000Y-90245227D01*
X141575000Y-90245227D01*
X141575000Y-89307512D01*
X143575001Y-89307512D01*
X143575147Y-89309374D01*
X143590466Y-89406103D01*
X143591619Y-89409652D01*
X143651024Y-89526239D01*
X143653216Y-89529257D01*
X143745742Y-89621783D01*
X143748760Y-89623975D01*
X143865347Y-89683380D01*
X143868896Y-89684533D01*
X143965624Y-89699853D01*
X143967487Y-89700000D01*
X143970227Y-89700000D01*
X143973602Y-89698602D01*
X143975000Y-89695227D01*
X143975000Y-89154773D01*
X143973602Y-89151397D01*
X143970227Y-89150000D01*
X143579774Y-89150000D01*
X143576398Y-89151397D01*
X143575001Y-89154773D01*
X143575001Y-89307512D01*
X141575000Y-89307512D01*
X141575000Y-88645227D01*
X143575000Y-88645227D01*
X143576397Y-88648602D01*
X143579773Y-88650000D01*
X143970227Y-88650000D01*
X143973602Y-88648602D01*
X143975000Y-88645227D01*
X143975000Y-88104774D01*
X143973602Y-88101398D01*
X143970227Y-88100001D01*
X143967488Y-88100001D01*
X143965625Y-88100147D01*
X143868896Y-88115466D01*
X143865347Y-88116619D01*
X143748760Y-88176024D01*
X143745742Y-88178216D01*
X143653216Y-88270742D01*
X143651024Y-88273760D01*
X143591619Y-88390347D01*
X143590466Y-88393896D01*
X143575146Y-88490624D01*
X143575000Y-88492487D01*
X143575000Y-88645227D01*
X141575000Y-88645227D01*
X141575000Y-87709942D01*
X141582029Y-87692971D01*
X142069458Y-87205542D01*
X143475001Y-87205542D01*
X143475147Y-87207404D01*
X143489539Y-87298283D01*
X143490692Y-87301831D01*
X143546501Y-87411361D01*
X143548693Y-87414379D01*
X143635620Y-87501306D01*
X143638638Y-87503498D01*
X143748168Y-87559307D01*
X143751717Y-87560460D01*
X143821562Y-87571522D01*
X143824234Y-87571170D01*
X143825000Y-87568585D01*
X143825000Y-87154773D01*
X143823602Y-87151397D01*
X143820227Y-87150000D01*
X143479774Y-87150000D01*
X143476398Y-87151397D01*
X143475001Y-87154773D01*
X143475001Y-87205542D01*
X142069458Y-87205542D01*
X142852471Y-86422529D01*
X142869442Y-86415500D01*
X143493650Y-86415500D01*
X143508754Y-86420848D01*
G37*
%TD.AperFunction*%
%TD*%
%TA.AperFunction,Conductor*%
%TO.N,GND*%
G36*
X128238000Y-82267113D02*
G01*
X128283387Y-82312500D01*
X128300000Y-82374500D01*
X128300000Y-82840506D01*
X128280994Y-82906478D01*
X128229802Y-82952226D01*
X128162117Y-82963726D01*
X128098688Y-82937453D01*
X128058959Y-82881461D01*
X128029807Y-82798150D01*
X128018852Y-82766843D01*
X127939999Y-82660001D01*
X127833157Y-82581148D01*
X127824384Y-82578078D01*
X127714945Y-82539783D01*
X127714941Y-82539782D01*
X127707819Y-82537290D01*
X127700301Y-82536585D01*
X127680951Y-82534770D01*
X127680939Y-82534769D01*
X127678066Y-82534500D01*
X127171934Y-82534500D01*
X127169061Y-82534769D01*
X127169048Y-82534770D01*
X127149698Y-82536585D01*
X127149697Y-82536585D01*
X127142181Y-82537290D01*
X127135060Y-82539781D01*
X127135054Y-82539783D01*
X127025615Y-82578078D01*
X127025612Y-82578079D01*
X127016843Y-82581148D01*
X127009367Y-82586665D01*
X127009366Y-82586666D01*
X126917475Y-82654484D01*
X126917471Y-82654487D01*
X126910001Y-82660001D01*
X126904487Y-82667471D01*
X126904484Y-82667475D01*
X126842083Y-82752026D01*
X126831148Y-82766843D01*
X126828079Y-82775612D01*
X126828078Y-82775615D01*
X126789783Y-82885054D01*
X126789781Y-82885060D01*
X126787290Y-82892181D01*
X126786585Y-82899697D01*
X126786585Y-82899698D01*
X126784770Y-82919048D01*
X126784769Y-82919061D01*
X126784500Y-82921934D01*
X126784500Y-83578066D01*
X126784769Y-83580939D01*
X126784770Y-83580951D01*
X126785186Y-83585384D01*
X126787290Y-83607819D01*
X126789782Y-83614941D01*
X126789783Y-83614945D01*
X126826817Y-83720779D01*
X126831148Y-83733157D01*
X126910001Y-83839999D01*
X126969865Y-83884181D01*
X126994836Y-83902610D01*
X127035763Y-83954926D01*
X127043817Y-84020859D01*
X127016689Y-84081489D01*
X126962162Y-84119420D01*
X126956014Y-84121571D01*
X126939766Y-84130158D01*
X126841024Y-84203033D01*
X126828033Y-84216024D01*
X126755158Y-84314766D01*
X126746571Y-84331014D01*
X126712008Y-84429788D01*
X126678625Y-84480359D01*
X126625264Y-84509074D01*
X126564668Y-84509073D01*
X126511307Y-84480358D01*
X126477925Y-84429786D01*
X126444934Y-84335501D01*
X126441866Y-84326733D01*
X126433034Y-84314766D01*
X126365178Y-84222823D01*
X126365175Y-84222820D01*
X126359657Y-84215343D01*
X126352178Y-84209823D01*
X126352175Y-84209820D01*
X126315867Y-84183024D01*
X126278806Y-84139135D01*
X126265500Y-84083254D01*
X126265500Y-83913902D01*
X126274939Y-83866449D01*
X126291749Y-83841290D01*
X126289999Y-83839999D01*
X126295516Y-83832524D01*
X126368852Y-83733157D01*
X126412710Y-83607819D01*
X126415500Y-83578066D01*
X126415500Y-82921934D01*
X126412710Y-82892181D01*
X126368852Y-82766843D01*
X126289999Y-82660001D01*
X126183157Y-82581148D01*
X126174384Y-82578078D01*
X126064945Y-82539783D01*
X126064941Y-82539782D01*
X126057819Y-82537290D01*
X126050301Y-82536585D01*
X126030951Y-82534770D01*
X126030939Y-82534769D01*
X126028066Y-82534500D01*
X125521934Y-82534500D01*
X125519061Y-82534769D01*
X125519048Y-82534770D01*
X125499698Y-82536585D01*
X125499697Y-82536585D01*
X125492181Y-82537290D01*
X125485060Y-82539781D01*
X125485054Y-82539783D01*
X125375615Y-82578078D01*
X125375612Y-82578079D01*
X125366843Y-82581148D01*
X125359367Y-82586665D01*
X125359366Y-82586666D01*
X125267475Y-82654484D01*
X125267471Y-82654487D01*
X125260001Y-82660001D01*
X125254487Y-82667471D01*
X125254484Y-82667475D01*
X125192083Y-82752026D01*
X125181148Y-82766843D01*
X125178079Y-82775612D01*
X125178078Y-82775615D01*
X125139783Y-82885054D01*
X125139781Y-82885060D01*
X125137290Y-82892181D01*
X125136585Y-82899697D01*
X125136585Y-82899698D01*
X125134770Y-82919048D01*
X125134769Y-82919061D01*
X125134500Y-82921934D01*
X125134500Y-83578066D01*
X125134769Y-83580939D01*
X125134770Y-83580951D01*
X125135186Y-83585384D01*
X125137290Y-83607819D01*
X125139782Y-83614941D01*
X125139783Y-83614945D01*
X125176817Y-83720779D01*
X125181148Y-83733157D01*
X125186666Y-83740633D01*
X125260001Y-83839999D01*
X125258250Y-83841290D01*
X125275061Y-83866449D01*
X125284500Y-83913902D01*
X125284500Y-84148584D01*
X125278287Y-84187343D01*
X125260272Y-84222213D01*
X125183134Y-84326733D01*
X125180067Y-84335495D01*
X125180065Y-84335501D01*
X125139900Y-84450287D01*
X125139898Y-84450294D01*
X125137410Y-84457406D01*
X125136706Y-84464911D01*
X125136705Y-84464917D01*
X125134770Y-84485553D01*
X125134500Y-84488437D01*
X125134500Y-84491328D01*
X125134500Y-84491329D01*
X125134500Y-85108659D01*
X125134500Y-85108680D01*
X125134501Y-85111562D01*
X125134770Y-85114436D01*
X125134771Y-85114448D01*
X125135258Y-85119640D01*
X125137410Y-85142594D01*
X125139900Y-85149712D01*
X125139901Y-85149713D01*
X125180065Y-85264498D01*
X125180066Y-85264501D01*
X125183134Y-85273267D01*
X125188649Y-85280740D01*
X125188651Y-85280743D01*
X125235091Y-85343667D01*
X125265343Y-85384657D01*
X125376733Y-85466866D01*
X125507406Y-85512590D01*
X125538437Y-85515500D01*
X126086562Y-85515499D01*
X126117594Y-85512590D01*
X126248267Y-85466866D01*
X126359657Y-85384657D01*
X126441866Y-85273267D01*
X126477925Y-85170212D01*
X126511307Y-85119641D01*
X126564668Y-85090926D01*
X126625264Y-85090925D01*
X126678626Y-85119640D01*
X126712008Y-85170212D01*
X126746570Y-85268983D01*
X126755158Y-85285233D01*
X126828033Y-85383975D01*
X126841024Y-85396966D01*
X126939766Y-85469841D01*
X126956016Y-85478429D01*
X127073493Y-85519537D01*
X127088137Y-85522735D01*
X127109396Y-85524729D01*
X127115176Y-85525000D01*
X127121174Y-85525000D01*
X127134049Y-85521549D01*
X127137500Y-85508674D01*
X127137500Y-84674000D01*
X127154113Y-84612000D01*
X127199500Y-84566613D01*
X127261500Y-84550000D01*
X127513500Y-84550000D01*
X127575500Y-84566613D01*
X127620887Y-84612000D01*
X127637500Y-84674000D01*
X127637500Y-85508674D01*
X127640950Y-85521549D01*
X127653826Y-85525000D01*
X127659824Y-85525000D01*
X127665603Y-85524729D01*
X127686862Y-85522735D01*
X127701506Y-85519537D01*
X127818983Y-85478429D01*
X127835234Y-85469840D01*
X127836870Y-85468634D01*
X127839121Y-85467786D01*
X127843450Y-85465499D01*
X127843740Y-85466048D01*
X127900081Y-85444846D01*
X127966383Y-85457713D01*
X128016107Y-85503420D01*
X128034500Y-85568407D01*
X128034500Y-85699235D01*
X128031874Y-85724547D01*
X128031870Y-85724636D01*
X128029763Y-85734687D01*
X128031033Y-85744878D01*
X128031033Y-85744885D01*
X128033573Y-85765262D01*
X128034101Y-85770353D01*
X128034500Y-85775166D01*
X128034500Y-85780286D01*
X128035343Y-85785336D01*
X128037818Y-85800171D01*
X128038556Y-85805236D01*
X128044851Y-85855733D01*
X128048250Y-85862686D01*
X128049524Y-85870319D01*
X128054413Y-85879353D01*
X128073736Y-85915059D01*
X128076078Y-85919609D01*
X128098425Y-85965320D01*
X128103897Y-85970792D01*
X128107581Y-85977599D01*
X128115137Y-85984555D01*
X128115139Y-85984557D01*
X128145019Y-86012063D01*
X128148717Y-86015612D01*
X128263681Y-86130576D01*
X128290561Y-86170804D01*
X128300000Y-86218257D01*
X128300000Y-88285500D01*
X128283387Y-88347500D01*
X128238000Y-88392887D01*
X128176000Y-88409500D01*
X127723005Y-88409500D01*
X127673418Y-88399154D01*
X127632106Y-88369841D01*
X127605963Y-88326454D01*
X127596920Y-88300610D01*
X127596919Y-88300608D01*
X127593852Y-88291843D01*
X127514999Y-88185001D01*
X127408157Y-88106148D01*
X127399384Y-88103078D01*
X127289945Y-88064783D01*
X127289941Y-88064782D01*
X127282819Y-88062290D01*
X127275301Y-88061585D01*
X127255951Y-88059770D01*
X127255939Y-88059769D01*
X127253066Y-88059500D01*
X126746934Y-88059500D01*
X126744061Y-88059769D01*
X126744048Y-88059770D01*
X126724698Y-88061585D01*
X126724697Y-88061585D01*
X126717181Y-88062290D01*
X126710060Y-88064781D01*
X126710054Y-88064783D01*
X126600615Y-88103078D01*
X126600612Y-88103079D01*
X126591843Y-88106148D01*
X126584367Y-88111665D01*
X126584366Y-88111666D01*
X126492475Y-88179484D01*
X126492471Y-88179487D01*
X126485001Y-88185001D01*
X126479487Y-88192471D01*
X126479484Y-88192475D01*
X126421387Y-88271195D01*
X126406148Y-88291843D01*
X126403079Y-88300612D01*
X126403078Y-88300615D01*
X126364783Y-88410054D01*
X126364781Y-88410060D01*
X126362290Y-88417181D01*
X126361585Y-88424697D01*
X126361585Y-88424698D01*
X126359770Y-88444048D01*
X126359769Y-88444061D01*
X126359500Y-88446934D01*
X126359500Y-89103066D01*
X126359769Y-89105939D01*
X126359770Y-89105951D01*
X126361585Y-89125301D01*
X126362290Y-89132819D01*
X126364782Y-89139941D01*
X126364783Y-89139945D01*
X126394037Y-89223546D01*
X126406148Y-89258157D01*
X126485001Y-89364999D01*
X126591843Y-89443852D01*
X126717181Y-89487710D01*
X126746934Y-89490500D01*
X127250172Y-89490500D01*
X127253066Y-89490500D01*
X127282819Y-89487710D01*
X127408157Y-89443852D01*
X127514999Y-89364999D01*
X127593852Y-89258157D01*
X127605962Y-89223546D01*
X127632106Y-89180159D01*
X127673418Y-89150846D01*
X127723005Y-89140500D01*
X128176000Y-89140500D01*
X128238000Y-89157113D01*
X128283387Y-89202500D01*
X128300000Y-89264500D01*
X128300000Y-91781742D01*
X128290561Y-91829195D01*
X128263681Y-91869423D01*
X126707446Y-93425657D01*
X126687696Y-93441696D01*
X126687630Y-93441756D01*
X126679031Y-93447375D01*
X126672722Y-93455479D01*
X126672720Y-93455482D01*
X126660111Y-93471682D01*
X126656888Y-93475651D01*
X126653760Y-93479344D01*
X126650137Y-93482968D01*
X126647160Y-93487136D01*
X126647156Y-93487142D01*
X126638411Y-93499390D01*
X126635351Y-93503493D01*
X126610413Y-93535533D01*
X126610411Y-93535536D01*
X126604107Y-93543636D01*
X126601593Y-93550957D01*
X126597098Y-93557254D01*
X126594171Y-93567084D01*
X126594168Y-93567091D01*
X126582580Y-93606013D01*
X126581019Y-93610885D01*
X126567836Y-93649289D01*
X126567835Y-93649293D01*
X126564500Y-93659009D01*
X126564500Y-93666748D01*
X126562292Y-93674165D01*
X126562716Y-93684425D01*
X126562716Y-93684429D01*
X126564394Y-93724986D01*
X126564500Y-93730110D01*
X126564500Y-96736580D01*
X126549027Y-96796562D01*
X126506474Y-96841571D01*
X126478665Y-96859044D01*
X126471272Y-96863690D01*
X126471269Y-96863691D01*
X126465384Y-96867390D01*
X126460465Y-96872308D01*
X126460461Y-96872312D01*
X126382681Y-96950093D01*
X126327094Y-96982187D01*
X126262906Y-96982187D01*
X126207319Y-96950093D01*
X126129544Y-96872318D01*
X126124616Y-96867390D01*
X126118720Y-96863685D01*
X126118716Y-96863682D01*
X126008355Y-96794339D01*
X125983324Y-96778611D01*
X125863208Y-96736580D01*
X125832395Y-96725798D01*
X125832394Y-96725797D01*
X125825819Y-96723497D01*
X125818902Y-96722717D01*
X125818895Y-96722716D01*
X125666923Y-96705594D01*
X125660000Y-96704814D01*
X125653077Y-96705594D01*
X125501104Y-96722716D01*
X125501095Y-96722717D01*
X125494181Y-96723497D01*
X125487607Y-96725797D01*
X125487604Y-96725798D01*
X125343251Y-96776310D01*
X125343248Y-96776311D01*
X125336676Y-96778611D01*
X125330781Y-96782315D01*
X125330779Y-96782316D01*
X125201283Y-96863682D01*
X125201274Y-96863688D01*
X125195384Y-96867390D01*
X125190459Y-96872314D01*
X125190455Y-96872318D01*
X125112681Y-96950093D01*
X125057094Y-96982187D01*
X124992906Y-96982187D01*
X124937319Y-96950093D01*
X124859544Y-96872318D01*
X124854616Y-96867390D01*
X124848720Y-96863685D01*
X124848716Y-96863682D01*
X124738355Y-96794339D01*
X124713324Y-96778611D01*
X124593208Y-96736580D01*
X124562395Y-96725798D01*
X124562394Y-96725797D01*
X124555819Y-96723497D01*
X124548902Y-96722717D01*
X124548895Y-96722716D01*
X124396923Y-96705594D01*
X124390000Y-96704814D01*
X124383077Y-96705594D01*
X124231104Y-96722716D01*
X124231095Y-96722717D01*
X124224181Y-96723497D01*
X124217607Y-96725797D01*
X124217604Y-96725798D01*
X124073251Y-96776310D01*
X124073248Y-96776311D01*
X124066676Y-96778611D01*
X124060781Y-96782315D01*
X124060779Y-96782316D01*
X123931283Y-96863682D01*
X123931274Y-96863688D01*
X123925384Y-96867390D01*
X123920459Y-96872314D01*
X123920455Y-96872318D01*
X123849398Y-96943376D01*
X123793811Y-96975470D01*
X123729623Y-96975470D01*
X123674036Y-96943376D01*
X123595504Y-96864844D01*
X123584675Y-96856208D01*
X123453368Y-96773701D01*
X123440896Y-96767696D01*
X123384021Y-96747794D01*
X123372688Y-96746677D01*
X123370000Y-96757741D01*
X123370000Y-98142259D01*
X123372688Y-98153322D01*
X123384021Y-98152205D01*
X123440896Y-98132303D01*
X123453368Y-98126298D01*
X123584675Y-98043791D01*
X123595504Y-98035155D01*
X123674036Y-97956624D01*
X123729623Y-97924530D01*
X123793811Y-97924530D01*
X123849398Y-97956624D01*
X123925384Y-98032610D01*
X123931280Y-98036314D01*
X123931283Y-98036317D01*
X123947197Y-98046316D01*
X124066676Y-98121389D01*
X124224181Y-98176503D01*
X124390000Y-98195186D01*
X124555819Y-98176503D01*
X124713324Y-98121389D01*
X124854616Y-98032610D01*
X124937319Y-97949906D01*
X124992906Y-97917813D01*
X125057094Y-97917813D01*
X125112680Y-97949906D01*
X125195384Y-98032610D01*
X125201280Y-98036314D01*
X125201283Y-98036317D01*
X125217197Y-98046316D01*
X125336676Y-98121389D01*
X125494181Y-98176503D01*
X125660000Y-98195186D01*
X125825819Y-98176503D01*
X125983324Y-98121389D01*
X126124616Y-98032610D01*
X126207319Y-97949906D01*
X126262906Y-97917813D01*
X126327094Y-97917813D01*
X126382680Y-97949906D01*
X126465384Y-98032610D01*
X126471280Y-98036314D01*
X126471283Y-98036317D01*
X126487197Y-98046316D01*
X126606676Y-98121389D01*
X126764181Y-98176503D01*
X126930000Y-98195186D01*
X127095819Y-98176503D01*
X127253324Y-98121389D01*
X127342768Y-98065187D01*
X127402945Y-98046316D01*
X127464622Y-98059487D01*
X127511842Y-98101291D01*
X127526609Y-98123391D01*
X127606161Y-98176546D01*
X127676312Y-98190500D01*
X127682408Y-98190500D01*
X128176000Y-98190500D01*
X128238000Y-98207113D01*
X128283387Y-98252500D01*
X128300000Y-98314500D01*
X128300000Y-99625500D01*
X128283387Y-99687500D01*
X128238000Y-99732887D01*
X128176000Y-99749500D01*
X120509756Y-99749500D01*
X120490359Y-99747973D01*
X120442297Y-99740361D01*
X120405400Y-99728372D01*
X120370845Y-99710765D01*
X120339461Y-99687963D01*
X120312036Y-99660538D01*
X120289235Y-99629156D01*
X120271625Y-99594595D01*
X120259639Y-99557706D01*
X120252025Y-99509631D01*
X120250500Y-99490244D01*
X120250500Y-97702688D01*
X122416677Y-97702688D01*
X122417794Y-97714021D01*
X122437696Y-97770896D01*
X122443701Y-97783368D01*
X122526208Y-97914675D01*
X122534844Y-97925504D01*
X122644495Y-98035155D01*
X122655324Y-98043791D01*
X122786631Y-98126298D01*
X122799103Y-98132303D01*
X122855978Y-98152205D01*
X122867311Y-98153322D01*
X122870000Y-98142259D01*
X122870000Y-97716326D01*
X122866549Y-97703450D01*
X122853674Y-97700000D01*
X122427741Y-97700000D01*
X122416677Y-97702688D01*
X120250500Y-97702688D01*
X120250500Y-97197311D01*
X122416677Y-97197311D01*
X122427741Y-97200000D01*
X122853674Y-97200000D01*
X122866549Y-97196549D01*
X122870000Y-97183674D01*
X122870000Y-96757741D01*
X122867311Y-96746677D01*
X122855978Y-96747794D01*
X122799103Y-96767696D01*
X122786631Y-96773701D01*
X122655324Y-96856208D01*
X122644495Y-96864844D01*
X122534844Y-96974495D01*
X122526208Y-96985324D01*
X122443701Y-97116631D01*
X122437696Y-97129103D01*
X122417794Y-97185978D01*
X122416677Y-97197311D01*
X120250500Y-97197311D01*
X120250500Y-96879228D01*
X120250500Y-96874802D01*
X120214864Y-96626954D01*
X120144320Y-96386700D01*
X120040301Y-96158932D01*
X119904927Y-95948285D01*
X119740952Y-95759048D01*
X119551715Y-95595073D01*
X119547995Y-95592682D01*
X119344789Y-95462090D01*
X119344785Y-95462088D01*
X119341068Y-95459699D01*
X119337046Y-95457862D01*
X119337042Y-95457860D01*
X119227184Y-95407689D01*
X119113300Y-95355680D01*
X118873046Y-95285136D01*
X118868666Y-95284506D01*
X118868656Y-95284504D01*
X118629578Y-95250129D01*
X118629567Y-95250128D01*
X118625198Y-95249500D01*
X118374802Y-95249500D01*
X118370433Y-95250128D01*
X118370421Y-95250129D01*
X118131343Y-95284504D01*
X118131330Y-95284506D01*
X118126954Y-95285136D01*
X118122699Y-95286385D01*
X118122696Y-95286386D01*
X117890949Y-95354432D01*
X117890943Y-95354433D01*
X117886700Y-95355680D01*
X117882674Y-95357518D01*
X117882673Y-95357519D01*
X117662957Y-95457860D01*
X117662947Y-95457865D01*
X117658932Y-95459699D01*
X117655220Y-95462084D01*
X117655210Y-95462090D01*
X117452004Y-95592682D01*
X117451994Y-95592688D01*
X117448285Y-95595073D01*
X117444950Y-95597962D01*
X117444943Y-95597968D01*
X117262388Y-95756153D01*
X117262381Y-95756159D01*
X117259048Y-95759048D01*
X117256159Y-95762381D01*
X117256153Y-95762388D01*
X117097968Y-95944943D01*
X117097962Y-95944950D01*
X117095073Y-95948285D01*
X117092688Y-95951994D01*
X117092682Y-95952004D01*
X116962090Y-96155210D01*
X116962084Y-96155220D01*
X116959699Y-96158932D01*
X116957865Y-96162947D01*
X116957860Y-96162957D01*
X116857519Y-96382673D01*
X116855680Y-96386700D01*
X116785136Y-96626954D01*
X116784506Y-96631330D01*
X116784504Y-96631343D01*
X116750129Y-96870421D01*
X116750128Y-96870433D01*
X116749500Y-96874802D01*
X116749500Y-96879228D01*
X116749500Y-98990244D01*
X116747973Y-99009642D01*
X116740361Y-99057702D01*
X116728372Y-99094600D01*
X116710766Y-99129153D01*
X116687963Y-99160538D01*
X116660538Y-99187963D01*
X116629153Y-99210766D01*
X116594600Y-99228372D01*
X116557702Y-99240361D01*
X116522884Y-99245875D01*
X116509640Y-99247973D01*
X116490244Y-99249500D01*
X96509756Y-99249500D01*
X96490359Y-99247973D01*
X96442297Y-99240361D01*
X96405400Y-99228372D01*
X96370845Y-99210765D01*
X96339461Y-99187963D01*
X96312036Y-99160538D01*
X96289235Y-99129156D01*
X96271625Y-99094595D01*
X96259639Y-99057706D01*
X96252025Y-99009631D01*
X96250500Y-98990244D01*
X96250500Y-91403356D01*
X97750000Y-91403356D01*
X97750248Y-91408896D01*
X97764617Y-91568548D01*
X97766599Y-91579470D01*
X97823494Y-91785622D01*
X97827395Y-91796015D01*
X97920183Y-91988693D01*
X97925877Y-91998223D01*
X98051581Y-92171239D01*
X98058879Y-92179594D01*
X98213460Y-92327388D01*
X98222141Y-92334310D01*
X98400622Y-92452125D01*
X98410386Y-92457380D01*
X98607053Y-92541439D01*
X98617594Y-92544863D01*
X98736378Y-92571975D01*
X98747521Y-92571975D01*
X98750000Y-92561112D01*
X98750000Y-92559810D01*
X99250000Y-92559810D01*
X99253884Y-92573104D01*
X99267580Y-92575169D01*
X99273764Y-92574331D01*
X99284566Y-92571865D01*
X99487970Y-92505776D01*
X99498169Y-92501416D01*
X99686507Y-92400068D01*
X99695752Y-92393964D01*
X99862968Y-92260614D01*
X99870982Y-92252952D01*
X100011695Y-92091893D01*
X100018213Y-92082921D01*
X100127905Y-91899330D01*
X100132719Y-91889332D01*
X100207866Y-91689106D01*
X100210819Y-91678406D01*
X100249004Y-91467987D01*
X100250000Y-91456929D01*
X100250000Y-91366326D01*
X100246549Y-91353450D01*
X100233674Y-91350000D01*
X99266326Y-91350000D01*
X99253450Y-91353450D01*
X99250000Y-91366326D01*
X99250000Y-92559810D01*
X98750000Y-92559810D01*
X98750000Y-91366326D01*
X98746549Y-91353450D01*
X98733674Y-91350000D01*
X97766326Y-91350000D01*
X97753450Y-91353450D01*
X97750000Y-91366326D01*
X97750000Y-91403356D01*
X96250500Y-91403356D01*
X96250500Y-91303356D01*
X102750000Y-91303356D01*
X102750248Y-91308896D01*
X102764617Y-91468548D01*
X102766599Y-91479470D01*
X102823494Y-91685622D01*
X102827395Y-91696015D01*
X102920183Y-91888693D01*
X102925877Y-91898223D01*
X103051581Y-92071239D01*
X103058879Y-92079594D01*
X103213460Y-92227388D01*
X103222141Y-92234310D01*
X103400622Y-92352125D01*
X103410386Y-92357380D01*
X103607053Y-92441439D01*
X103617594Y-92444863D01*
X103736378Y-92471975D01*
X103747521Y-92471975D01*
X103750000Y-92461112D01*
X103750000Y-92459810D01*
X104250000Y-92459810D01*
X104253884Y-92473104D01*
X104267580Y-92475169D01*
X104273764Y-92474331D01*
X104284566Y-92471865D01*
X104487970Y-92405776D01*
X104498169Y-92401416D01*
X104686507Y-92300068D01*
X104695752Y-92293964D01*
X104862968Y-92160614D01*
X104870982Y-92152952D01*
X105011695Y-91991893D01*
X105018213Y-91982921D01*
X105127905Y-91799330D01*
X105132719Y-91789332D01*
X105207866Y-91589106D01*
X105210819Y-91578406D01*
X105249004Y-91367987D01*
X105250000Y-91356929D01*
X105250000Y-91266326D01*
X105246549Y-91253450D01*
X105233674Y-91250000D01*
X104266326Y-91250000D01*
X104253450Y-91253450D01*
X104250000Y-91266326D01*
X104250000Y-92459810D01*
X103750000Y-92459810D01*
X103750000Y-91266326D01*
X103746549Y-91253450D01*
X103733674Y-91250000D01*
X102766326Y-91250000D01*
X102753450Y-91253450D01*
X102750000Y-91266326D01*
X102750000Y-91303356D01*
X96250500Y-91303356D01*
X96250500Y-90833674D01*
X97750000Y-90833674D01*
X97753450Y-90846549D01*
X97766326Y-90850000D01*
X98733674Y-90850000D01*
X98746549Y-90846549D01*
X98750000Y-90833674D01*
X99250000Y-90833674D01*
X99253450Y-90846549D01*
X99266326Y-90850000D01*
X100233674Y-90850000D01*
X100246549Y-90846549D01*
X100250000Y-90833674D01*
X100250000Y-90796644D01*
X100249751Y-90791103D01*
X100244582Y-90733674D01*
X102750000Y-90733674D01*
X102753450Y-90746549D01*
X102766326Y-90750000D01*
X103733674Y-90750000D01*
X103746549Y-90746549D01*
X103750000Y-90733674D01*
X104250000Y-90733674D01*
X104253450Y-90746549D01*
X104266326Y-90750000D01*
X105233674Y-90750000D01*
X105246549Y-90746549D01*
X105250000Y-90733674D01*
X105250000Y-90696644D01*
X105249751Y-90691103D01*
X105235382Y-90531451D01*
X105233400Y-90520529D01*
X105176505Y-90314377D01*
X105172604Y-90303984D01*
X105079816Y-90111306D01*
X105074122Y-90101776D01*
X104948418Y-89928760D01*
X104941120Y-89920405D01*
X104786539Y-89772611D01*
X104777858Y-89765689D01*
X104599377Y-89647874D01*
X104589613Y-89642619D01*
X104392946Y-89558560D01*
X104382405Y-89555136D01*
X104263622Y-89528025D01*
X104252479Y-89528025D01*
X104250000Y-89538888D01*
X104250000Y-90733674D01*
X103750000Y-90733674D01*
X103750000Y-89540190D01*
X103746115Y-89526895D01*
X103732419Y-89524830D01*
X103726235Y-89525668D01*
X103715433Y-89528134D01*
X103512029Y-89594223D01*
X103501830Y-89598583D01*
X103313492Y-89699931D01*
X103304247Y-89706035D01*
X103137031Y-89839385D01*
X103129017Y-89847047D01*
X102988304Y-90008106D01*
X102981786Y-90017078D01*
X102872094Y-90200669D01*
X102867280Y-90210667D01*
X102792133Y-90410893D01*
X102789180Y-90421593D01*
X102750995Y-90632012D01*
X102750000Y-90643071D01*
X102750000Y-90733674D01*
X100244582Y-90733674D01*
X100235382Y-90631451D01*
X100233400Y-90620529D01*
X100176505Y-90414377D01*
X100172604Y-90403984D01*
X100079816Y-90211306D01*
X100074122Y-90201776D01*
X99948418Y-90028760D01*
X99941120Y-90020405D01*
X99786539Y-89872611D01*
X99777858Y-89865689D01*
X99599377Y-89747874D01*
X99589613Y-89742619D01*
X99392946Y-89658560D01*
X99382405Y-89655136D01*
X99263622Y-89628025D01*
X99252479Y-89628025D01*
X99250000Y-89638888D01*
X99250000Y-90833674D01*
X98750000Y-90833674D01*
X98750000Y-89640190D01*
X98746115Y-89626895D01*
X98732419Y-89624830D01*
X98726235Y-89625668D01*
X98715433Y-89628134D01*
X98512029Y-89694223D01*
X98501830Y-89698583D01*
X98313492Y-89799931D01*
X98304247Y-89806035D01*
X98137031Y-89939385D01*
X98129017Y-89947047D01*
X97988304Y-90108106D01*
X97981786Y-90117078D01*
X97872094Y-90300669D01*
X97867280Y-90310667D01*
X97792133Y-90510893D01*
X97789180Y-90521593D01*
X97750995Y-90732012D01*
X97750000Y-90743071D01*
X97750000Y-90833674D01*
X96250500Y-90833674D01*
X96250500Y-89395657D01*
X121255001Y-89395657D01*
X121255762Y-89405336D01*
X121268309Y-89484560D01*
X121274263Y-89502888D01*
X121322928Y-89598397D01*
X121334260Y-89613994D01*
X121410053Y-89689787D01*
X121425650Y-89701119D01*
X121521155Y-89749781D01*
X121539493Y-89755740D01*
X121541720Y-89756092D01*
X121552653Y-89755447D01*
X121555000Y-89744753D01*
X122055000Y-89744753D01*
X122057346Y-89755447D01*
X122068279Y-89756092D01*
X122070506Y-89755740D01*
X122088844Y-89749781D01*
X122184349Y-89701119D01*
X122199946Y-89689787D01*
X122275739Y-89613994D01*
X122287071Y-89598397D01*
X122335733Y-89502892D01*
X122341692Y-89484553D01*
X122354236Y-89405351D01*
X122355000Y-89395649D01*
X122355000Y-89047874D01*
X122351549Y-89034998D01*
X122338674Y-89031548D01*
X122071326Y-89031548D01*
X122058450Y-89034998D01*
X122055000Y-89047874D01*
X122055000Y-89744753D01*
X121555000Y-89744753D01*
X121555000Y-89047874D01*
X121551549Y-89034998D01*
X121538674Y-89031548D01*
X121271327Y-89031548D01*
X121258451Y-89034998D01*
X121255001Y-89047874D01*
X121255001Y-89395657D01*
X96250500Y-89395657D01*
X96250500Y-88515222D01*
X121255000Y-88515222D01*
X121258450Y-88528097D01*
X121271326Y-88531548D01*
X121538674Y-88531548D01*
X121551549Y-88528097D01*
X121555000Y-88515222D01*
X121555000Y-87818343D01*
X121552653Y-87807648D01*
X121541720Y-87807003D01*
X121539493Y-87807355D01*
X121521155Y-87813314D01*
X121425650Y-87861976D01*
X121410053Y-87873308D01*
X121334260Y-87949101D01*
X121322928Y-87964698D01*
X121274266Y-88060203D01*
X121268307Y-88078542D01*
X121255763Y-88157744D01*
X121255000Y-88167447D01*
X121255000Y-88515222D01*
X96250500Y-88515222D01*
X96250500Y-83009756D01*
X96252025Y-82990368D01*
X96259639Y-82942291D01*
X96271624Y-82905406D01*
X96289237Y-82870840D01*
X96312033Y-82839464D01*
X96339464Y-82812033D01*
X96370840Y-82789237D01*
X96405406Y-82771624D01*
X96442291Y-82759639D01*
X96490368Y-82752025D01*
X96509756Y-82750500D01*
X96544170Y-82750500D01*
X116455830Y-82750500D01*
X116490244Y-82750500D01*
X116509631Y-82752025D01*
X116557706Y-82759639D01*
X116594595Y-82771625D01*
X116629156Y-82789235D01*
X116660538Y-82812036D01*
X116687963Y-82839461D01*
X116710765Y-82870845D01*
X116716174Y-82881461D01*
X116728372Y-82905399D01*
X116740361Y-82942297D01*
X116747973Y-82990358D01*
X116749500Y-83009756D01*
X116749500Y-84955830D01*
X116749500Y-85000000D01*
X116749500Y-85125198D01*
X116750128Y-85129567D01*
X116750129Y-85129578D01*
X116784504Y-85368656D01*
X116784506Y-85368666D01*
X116785136Y-85373046D01*
X116795132Y-85407089D01*
X116837873Y-85552656D01*
X116855680Y-85613300D01*
X116873837Y-85653058D01*
X116931940Y-85780286D01*
X116959699Y-85841068D01*
X116962088Y-85844785D01*
X116962090Y-85844789D01*
X117048502Y-85979249D01*
X117095073Y-86051715D01*
X117259048Y-86240952D01*
X117448285Y-86404927D01*
X117658932Y-86540301D01*
X117886700Y-86644320D01*
X118126954Y-86714864D01*
X118374802Y-86750500D01*
X118620772Y-86750500D01*
X118625198Y-86750500D01*
X118873046Y-86714864D01*
X119113300Y-86644320D01*
X119341068Y-86540301D01*
X119551715Y-86404927D01*
X119740952Y-86240952D01*
X119904927Y-86051715D01*
X120040301Y-85841068D01*
X120144320Y-85613300D01*
X120214864Y-85373046D01*
X120250500Y-85125198D01*
X120250500Y-85000000D01*
X120250500Y-84955830D01*
X120250500Y-84573688D01*
X121789500Y-84573688D01*
X121790688Y-84579662D01*
X121790689Y-84579668D01*
X121801071Y-84631860D01*
X121803454Y-84643839D01*
X121810237Y-84653991D01*
X121810238Y-84653992D01*
X121825925Y-84677470D01*
X121856609Y-84723391D01*
X121936161Y-84776546D01*
X122006312Y-84790500D01*
X122641466Y-84790500D01*
X122697761Y-84804015D01*
X122741784Y-84841615D01*
X122763939Y-84895102D01*
X122759397Y-84952818D01*
X122729148Y-85002179D01*
X122466831Y-85264496D01*
X122449878Y-85281449D01*
X122439548Y-85289774D01*
X122439649Y-85289891D01*
X122432943Y-85295701D01*
X122425488Y-85300493D01*
X122419685Y-85307189D01*
X122419680Y-85307194D01*
X122393678Y-85337201D01*
X122387659Y-85343667D01*
X122381487Y-85349839D01*
X122381475Y-85349852D01*
X122378357Y-85352971D01*
X122375708Y-85356508D01*
X122375703Y-85356515D01*
X122370476Y-85363497D01*
X122364933Y-85370375D01*
X122333122Y-85407089D01*
X122329439Y-85415152D01*
X122324644Y-85422614D01*
X122324515Y-85422531D01*
X122324499Y-85422557D01*
X122324634Y-85422631D01*
X122320385Y-85430410D01*
X122315071Y-85437511D01*
X122311973Y-85445815D01*
X122311970Y-85445822D01*
X122298092Y-85483029D01*
X122294708Y-85491198D01*
X122278214Y-85527318D01*
X122278212Y-85527322D01*
X122274529Y-85535389D01*
X122273266Y-85544165D01*
X122270768Y-85552676D01*
X122270620Y-85552632D01*
X122270614Y-85552656D01*
X122270765Y-85552689D01*
X122268879Y-85561354D01*
X122265781Y-85569664D01*
X122265148Y-85578509D01*
X122265148Y-85578511D01*
X122262315Y-85618114D01*
X122261370Y-85626902D01*
X122260130Y-85635526D01*
X122260128Y-85635545D01*
X122259500Y-85639918D01*
X122259500Y-85644346D01*
X122259500Y-85653058D01*
X122259184Y-85661904D01*
X122256351Y-85701505D01*
X122256351Y-85701510D01*
X122255719Y-85710352D01*
X122257604Y-85719017D01*
X122258237Y-85727863D01*
X122258082Y-85727874D01*
X122259500Y-85741063D01*
X122259500Y-86107210D01*
X122245985Y-86163505D01*
X122233413Y-86188176D01*
X122233410Y-86188183D01*
X122228983Y-86196873D01*
X122227456Y-86206508D01*
X122227455Y-86206514D01*
X122215263Y-86283492D01*
X122215262Y-86283499D01*
X122214500Y-86288313D01*
X122214500Y-86293190D01*
X122214500Y-86293191D01*
X122214500Y-87519912D01*
X122214500Y-87519924D01*
X122214501Y-87524782D01*
X122215261Y-87529586D01*
X122215262Y-87529588D01*
X122227456Y-87606586D01*
X122227457Y-87606590D01*
X122228983Y-87616223D01*
X122233411Y-87624914D01*
X122233414Y-87624922D01*
X122241225Y-87640252D01*
X122254740Y-87696546D01*
X122241225Y-87752840D01*
X122203626Y-87796863D01*
X122150139Y-87819018D01*
X122092424Y-87814477D01*
X122070506Y-87807355D01*
X122068279Y-87807003D01*
X122057346Y-87807648D01*
X122055000Y-87818343D01*
X122055000Y-88515222D01*
X122058450Y-88528097D01*
X122071326Y-88531548D01*
X122338673Y-88531548D01*
X122351548Y-88528097D01*
X122354999Y-88515222D01*
X122354999Y-88167439D01*
X122354237Y-88157759D01*
X122341690Y-88078535D01*
X122335736Y-88060207D01*
X122325377Y-88039877D01*
X122311862Y-87983582D01*
X122325377Y-87927288D01*
X122362976Y-87883265D01*
X122416463Y-87861109D01*
X122474156Y-87865648D01*
X122482825Y-87870065D01*
X122574265Y-87884548D01*
X122935734Y-87884547D01*
X123027175Y-87870065D01*
X123035869Y-87865635D01*
X123045152Y-87862619D01*
X123045854Y-87864781D01*
X123091228Y-87854631D01*
X123150462Y-87871830D01*
X123194080Y-87915439D01*
X123211293Y-87974669D01*
X123197839Y-88034864D01*
X123183415Y-88063173D01*
X123183413Y-88063177D01*
X123178983Y-88071873D01*
X123177456Y-88081508D01*
X123177455Y-88081514D01*
X123165263Y-88158492D01*
X123165262Y-88158499D01*
X123164500Y-88163313D01*
X123164500Y-88168190D01*
X123164500Y-88168191D01*
X123164500Y-89394912D01*
X123164500Y-89394924D01*
X123164501Y-89399782D01*
X123165261Y-89404586D01*
X123165262Y-89404588D01*
X123177456Y-89481586D01*
X123177457Y-89481590D01*
X123178983Y-89491223D01*
X123183411Y-89499914D01*
X123183412Y-89499916D01*
X123203933Y-89540190D01*
X123235141Y-89601439D01*
X123322609Y-89688907D01*
X123432825Y-89745065D01*
X123524265Y-89759548D01*
X123885734Y-89759547D01*
X123977175Y-89745065D01*
X124087391Y-89688907D01*
X124174859Y-89601439D01*
X124231017Y-89491223D01*
X124245500Y-89399783D01*
X124245500Y-89389500D01*
X124262113Y-89327500D01*
X124307500Y-89282113D01*
X124369500Y-89265500D01*
X124698969Y-89265500D01*
X124754850Y-89278805D01*
X124798739Y-89315866D01*
X124835001Y-89364999D01*
X124941843Y-89443852D01*
X125067181Y-89487710D01*
X125096934Y-89490500D01*
X125600172Y-89490500D01*
X125603066Y-89490500D01*
X125632819Y-89487710D01*
X125758157Y-89443852D01*
X125864999Y-89364999D01*
X125943852Y-89258157D01*
X125987710Y-89132819D01*
X125990500Y-89103066D01*
X125990500Y-88446934D01*
X125987710Y-88417181D01*
X125943852Y-88291843D01*
X125864999Y-88185001D01*
X125758157Y-88106148D01*
X125749384Y-88103078D01*
X125639945Y-88064783D01*
X125639941Y-88064782D01*
X125632819Y-88062290D01*
X125625301Y-88061585D01*
X125605951Y-88059770D01*
X125605939Y-88059769D01*
X125603066Y-88059500D01*
X125096934Y-88059500D01*
X125094061Y-88059769D01*
X125094048Y-88059770D01*
X125074698Y-88061585D01*
X125074697Y-88061585D01*
X125067181Y-88062290D01*
X125060060Y-88064781D01*
X125060054Y-88064783D01*
X124950615Y-88103078D01*
X124950612Y-88103079D01*
X124941843Y-88106148D01*
X124934367Y-88111665D01*
X124934366Y-88111666D01*
X124842475Y-88179484D01*
X124842471Y-88179487D01*
X124835001Y-88185001D01*
X124829487Y-88192471D01*
X124829484Y-88192475D01*
X124798739Y-88234134D01*
X124754850Y-88271195D01*
X124698969Y-88284500D01*
X124369278Y-88284500D01*
X124310110Y-88269473D01*
X124265283Y-88228035D01*
X124245660Y-88170228D01*
X124245499Y-88168183D01*
X124245499Y-88163314D01*
X124231017Y-88071873D01*
X124174859Y-87961657D01*
X124087391Y-87874189D01*
X124070632Y-87865650D01*
X124007462Y-87833463D01*
X123977175Y-87818031D01*
X123967537Y-87816504D01*
X123967533Y-87816503D01*
X123890555Y-87804311D01*
X123890549Y-87804310D01*
X123885735Y-87803548D01*
X123880856Y-87803548D01*
X123529135Y-87803548D01*
X123529122Y-87803548D01*
X123524266Y-87803549D01*
X123519462Y-87804309D01*
X123519459Y-87804310D01*
X123442461Y-87816504D01*
X123442455Y-87816505D01*
X123432825Y-87818031D01*
X123424133Y-87822459D01*
X123414848Y-87825477D01*
X123414146Y-87823318D01*
X123368739Y-87833463D01*
X123309516Y-87816253D01*
X123265910Y-87772640D01*
X123248706Y-87713415D01*
X123262160Y-87653231D01*
X123281017Y-87616223D01*
X123295500Y-87524783D01*
X123295499Y-86288314D01*
X123281017Y-86196873D01*
X123254014Y-86143878D01*
X123240500Y-86087584D01*
X123240500Y-85929534D01*
X123249939Y-85882081D01*
X123276819Y-85841853D01*
X123408320Y-85710352D01*
X124100119Y-85018550D01*
X124110448Y-85010228D01*
X124110347Y-85010111D01*
X124117052Y-85004300D01*
X124124512Y-84999507D01*
X124156327Y-84962789D01*
X124162347Y-84956323D01*
X124171642Y-84947029D01*
X124179525Y-84936496D01*
X124185041Y-84929651D01*
X124216878Y-84892911D01*
X124220561Y-84884844D01*
X124225358Y-84877381D01*
X124225488Y-84877465D01*
X124225498Y-84877448D01*
X124225361Y-84877373D01*
X124229607Y-84869595D01*
X124234928Y-84862489D01*
X124251902Y-84816977D01*
X124255289Y-84808802D01*
X124271785Y-84772682D01*
X124271784Y-84772682D01*
X124275471Y-84764611D01*
X124276733Y-84755830D01*
X124279232Y-84747320D01*
X124279383Y-84747364D01*
X124279387Y-84747350D01*
X124279233Y-84747317D01*
X124281118Y-84738646D01*
X124284219Y-84730336D01*
X124287683Y-84681887D01*
X124288630Y-84673081D01*
X124289869Y-84664469D01*
X124289869Y-84664468D01*
X124290500Y-84660082D01*
X124290500Y-84655650D01*
X124290816Y-84651233D01*
X124291848Y-84651306D01*
X124299939Y-84610635D01*
X124326820Y-84570406D01*
X124377687Y-84519539D01*
X124377687Y-84519538D01*
X124382610Y-84514616D01*
X124471389Y-84373324D01*
X124526503Y-84215819D01*
X124545186Y-84050000D01*
X124526503Y-83884181D01*
X124471389Y-83726676D01*
X124417808Y-83641401D01*
X124386317Y-83591283D01*
X124386314Y-83591280D01*
X124382610Y-83585384D01*
X124264616Y-83467390D01*
X124258720Y-83463685D01*
X124258716Y-83463682D01*
X124136296Y-83386762D01*
X124123324Y-83378611D01*
X124044571Y-83351053D01*
X123972395Y-83325798D01*
X123972394Y-83325797D01*
X123965819Y-83323497D01*
X123958902Y-83322717D01*
X123958895Y-83322716D01*
X123806923Y-83305594D01*
X123800000Y-83304814D01*
X123793077Y-83305594D01*
X123641104Y-83322716D01*
X123641095Y-83322717D01*
X123634181Y-83323497D01*
X123627607Y-83325797D01*
X123627604Y-83325798D01*
X123483251Y-83376310D01*
X123483248Y-83376311D01*
X123476676Y-83378611D01*
X123470783Y-83382313D01*
X123470774Y-83382318D01*
X123387230Y-83434812D01*
X123327052Y-83453683D01*
X123265376Y-83440512D01*
X123218156Y-83398707D01*
X123203391Y-83376609D01*
X123123839Y-83323454D01*
X123111860Y-83321071D01*
X123059668Y-83310689D01*
X123059662Y-83310688D01*
X123053688Y-83309500D01*
X122006312Y-83309500D01*
X122000338Y-83310688D01*
X122000331Y-83310689D01*
X121948139Y-83321071D01*
X121948137Y-83321071D01*
X121936161Y-83323454D01*
X121926009Y-83330236D01*
X121926007Y-83330238D01*
X121866762Y-83369824D01*
X121866759Y-83369826D01*
X121856609Y-83376609D01*
X121849826Y-83386759D01*
X121849824Y-83386762D01*
X121810238Y-83446007D01*
X121810236Y-83446009D01*
X121803454Y-83456161D01*
X121801071Y-83468137D01*
X121801071Y-83468139D01*
X121790689Y-83520331D01*
X121790688Y-83520338D01*
X121789500Y-83526312D01*
X121789500Y-84573688D01*
X120250500Y-84573688D01*
X120250500Y-82509756D01*
X120252025Y-82490368D01*
X120259639Y-82442291D01*
X120271624Y-82405406D01*
X120289237Y-82370840D01*
X120312033Y-82339464D01*
X120339464Y-82312033D01*
X120370840Y-82289237D01*
X120405406Y-82271624D01*
X120442291Y-82259639D01*
X120490368Y-82252025D01*
X120509756Y-82250500D01*
X128176000Y-82250500D01*
X128238000Y-82267113D01*
G37*
%TD.AperFunction*%
%TD*%
M02*
