%TF.GenerationSoftware,KiCad,Pcbnew,(7.0.0)*%
%TF.CreationDate,2023-05-08T01:10:33+02:00*%
%TF.ProjectId,Stacja Lutownicza V0.1,53746163-6a61-4204-9c75-746f776e6963,rev?*%
%TF.SameCoordinates,Original*%
%TF.FileFunction,Profile,NP*%
%FSLAX46Y46*%
G04 Gerber Fmt 4.6, Leading zero omitted, Abs format (unit mm)*
G04 Created by KiCad (PCBNEW (7.0.0)) date 2023-05-08 01:10:33*
%MOMM*%
%LPD*%
G01*
G04 APERTURE LIST*
%TA.AperFunction,Profile*%
%ADD10C,0.200000*%
%TD*%
G04 APERTURE END LIST*
D10*
X117000000Y-83000000D02*
G75*
G03*
X116500000Y-82500000I-500000J0D01*
G01*
X224500000Y-100000000D02*
G75*
G03*
X225000000Y-99500000I0J500000D01*
G01*
X96500000Y-82500000D02*
G75*
G03*
X96000000Y-83000000I0J-500000D01*
G01*
X96000000Y-99000000D02*
G75*
G03*
X96500000Y-99500000I500000J0D01*
G01*
X225000000Y-82500000D02*
G75*
G03*
X224500000Y-82000000I-500000J0D01*
G01*
X117000000Y-85000000D02*
X117000000Y-83000000D01*
X225000000Y-82500000D02*
X225000000Y-99500000D01*
X120000000Y-85000000D02*
X120000000Y-82500000D01*
X116500000Y-99500000D02*
G75*
G03*
X117000000Y-99000000I0J500000D01*
G01*
X120500000Y-82000000D02*
G75*
G03*
X120000000Y-82500000I0J-500000D01*
G01*
X224500000Y-100000000D02*
X120500000Y-100000000D01*
X120500000Y-82000000D02*
X224500000Y-82000000D01*
X116500000Y-99500000D02*
X96500000Y-99500000D01*
X120000000Y-97000000D02*
X120000000Y-99500000D01*
X117000000Y-85000000D02*
G75*
G03*
X120000000Y-85000000I1500000J0D01*
G01*
X96000000Y-99000000D02*
X96000000Y-83000000D01*
X120000000Y-97000000D02*
G75*
G03*
X117000000Y-97000000I-1500000J0D01*
G01*
X117000000Y-97000000D02*
X117000000Y-99000000D01*
X120000000Y-99500000D02*
G75*
G03*
X120500000Y-100000000I500000J0D01*
G01*
X116500000Y-82500000D02*
X96500000Y-82500000D01*
M02*
