%TF.GenerationSoftware,KiCad,Pcbnew,(7.0.0)*%
%TF.CreationDate,2023-05-08T01:10:33+02:00*%
%TF.ProjectId,Stacja Lutownicza V0.1,53746163-6a61-4204-9c75-746f776e6963,rev?*%
%TF.SameCoordinates,Original*%
%TF.FileFunction,Legend,Bot*%
%TF.FilePolarity,Positive*%
%FSLAX46Y46*%
G04 Gerber Fmt 4.6, Leading zero omitted, Abs format (unit mm)*
G04 Created by KiCad (PCBNEW (7.0.0)) date 2023-05-08 01:10:33*
%MOMM*%
%LPD*%
G01*
G04 APERTURE LIST*
%ADD10C,0.250000*%
%ADD11C,0.150000*%
%ADD12C,0.120000*%
G04 APERTURE END LIST*
D10*
G36*
X109543466Y-84837500D02*
G01*
X109791677Y-84837500D01*
X109902503Y-84476936D01*
X109942803Y-84330390D01*
X109981576Y-84480600D01*
X110090570Y-84837500D01*
X110328401Y-84837500D01*
X110390988Y-83723752D01*
X110204753Y-83723752D01*
X110178192Y-84436331D01*
X110171170Y-84631114D01*
X110120489Y-84463197D01*
X109996841Y-84055922D01*
X109863729Y-84055922D01*
X109733364Y-84494338D01*
X109691233Y-84629282D01*
X109687874Y-84455870D01*
X109659481Y-83723752D01*
X109479962Y-83723752D01*
X109543466Y-84837500D01*
G37*
G36*
X108814401Y-84732780D02*
G01*
X108820102Y-84746795D01*
X108825835Y-84760596D01*
X108831599Y-84774186D01*
X108837394Y-84787563D01*
X108843220Y-84800728D01*
X108849076Y-84813681D01*
X108854964Y-84826422D01*
X108860883Y-84838950D01*
X108866833Y-84851266D01*
X108872814Y-84863369D01*
X108878826Y-84875261D01*
X108884869Y-84886940D01*
X108890942Y-84898406D01*
X108897047Y-84909661D01*
X108903183Y-84920703D01*
X108909350Y-84931533D01*
X108915534Y-84942145D01*
X108924957Y-84957642D01*
X108934557Y-84972634D01*
X108944334Y-84987123D01*
X108954288Y-85001106D01*
X108964420Y-85014586D01*
X108974728Y-85027561D01*
X108985214Y-85040031D01*
X108995876Y-85051997D01*
X109006716Y-85063458D01*
X109017733Y-85074415D01*
X109028956Y-85084925D01*
X109040416Y-85094930D01*
X109052112Y-85104431D01*
X109064044Y-85113427D01*
X109076212Y-85121919D01*
X109088616Y-85129906D01*
X109101256Y-85137389D01*
X109114132Y-85144368D01*
X109127245Y-85150842D01*
X109140594Y-85156811D01*
X109149624Y-85160511D01*
X109163349Y-85165639D01*
X109177391Y-85170264D01*
X109191750Y-85174383D01*
X109206425Y-85177999D01*
X109221417Y-85181110D01*
X109236725Y-85183716D01*
X109252350Y-85185818D01*
X109268292Y-85187416D01*
X109284550Y-85188509D01*
X109301125Y-85189097D01*
X109312351Y-85189209D01*
X109324686Y-85189016D01*
X109337649Y-85188436D01*
X109351240Y-85187470D01*
X109359062Y-85186767D01*
X109371809Y-85185565D01*
X109384708Y-85184095D01*
X109397759Y-85182359D01*
X109410964Y-85180355D01*
X109410964Y-84993815D01*
X109399159Y-84997555D01*
X109387455Y-85001142D01*
X109375526Y-85004323D01*
X109363246Y-85006919D01*
X109359673Y-85007554D01*
X109346792Y-85009515D01*
X109333794Y-85011127D01*
X109330058Y-85011523D01*
X109317169Y-85012775D01*
X109304396Y-85013338D01*
X109301970Y-85013354D01*
X109288643Y-85012893D01*
X109275681Y-85011508D01*
X109263084Y-85009201D01*
X109250851Y-85005970D01*
X109238984Y-85001816D01*
X109235109Y-85000226D01*
X109223614Y-84994949D01*
X109212483Y-84988963D01*
X109201718Y-84982269D01*
X109191317Y-84974867D01*
X109181281Y-84966756D01*
X109178017Y-84963895D01*
X109168343Y-84954872D01*
X109159012Y-84945205D01*
X109150025Y-84934894D01*
X109141381Y-84923939D01*
X109133080Y-84912339D01*
X109130390Y-84908330D01*
X109123750Y-84898068D01*
X109117379Y-84887507D01*
X109111276Y-84876649D01*
X109105441Y-84865492D01*
X109099874Y-84854037D01*
X109094576Y-84842284D01*
X109092532Y-84837500D01*
X109438441Y-83958225D01*
X109204884Y-83958225D01*
X109023839Y-84466556D01*
X108969800Y-84617681D01*
X108916372Y-84463503D01*
X108733495Y-83958225D01*
X108508487Y-83958225D01*
X108814401Y-84732780D01*
G37*
G36*
X107837735Y-84837500D02*
G01*
X108159830Y-84401831D01*
X108159830Y-84837500D01*
X108369268Y-84837500D01*
X108369268Y-83626055D01*
X108159830Y-83626055D01*
X108159830Y-84334970D01*
X107854832Y-83958225D01*
X107592881Y-83958225D01*
X107946728Y-84358784D01*
X107563877Y-84837500D01*
X107837735Y-84837500D01*
G37*
G36*
X107050203Y-83938718D02*
G01*
X107062599Y-83938978D01*
X107074835Y-83939498D01*
X107092889Y-83940766D01*
X107110584Y-83942618D01*
X107127919Y-83945055D01*
X107144895Y-83948078D01*
X107161511Y-83951685D01*
X107177768Y-83955877D01*
X107193665Y-83960655D01*
X107209202Y-83966017D01*
X107224380Y-83971964D01*
X107234246Y-83976231D01*
X107248692Y-83983034D01*
X107262714Y-83990320D01*
X107276313Y-83998089D01*
X107289487Y-84006342D01*
X107302237Y-84015077D01*
X107314564Y-84024295D01*
X107326466Y-84033996D01*
X107337944Y-84044180D01*
X107348999Y-84054847D01*
X107359629Y-84065997D01*
X107366437Y-84073653D01*
X107376272Y-84085507D01*
X107385656Y-84097806D01*
X107394590Y-84110551D01*
X107403073Y-84123742D01*
X107411105Y-84137377D01*
X107418686Y-84151459D01*
X107425817Y-84165985D01*
X107432497Y-84180957D01*
X107438726Y-84196375D01*
X107444504Y-84212238D01*
X107449796Y-84228490D01*
X107454568Y-84245075D01*
X107458819Y-84261992D01*
X107462550Y-84279242D01*
X107465760Y-84296825D01*
X107468450Y-84314741D01*
X107469954Y-84326870D01*
X107471226Y-84339146D01*
X107472267Y-84351571D01*
X107473077Y-84364143D01*
X107473655Y-84376863D01*
X107474002Y-84389731D01*
X107474118Y-84402747D01*
X107474007Y-84416796D01*
X107473674Y-84430625D01*
X107473120Y-84444235D01*
X107472343Y-84457626D01*
X107471345Y-84470797D01*
X107470125Y-84483748D01*
X107468683Y-84496480D01*
X107467020Y-84508993D01*
X107465134Y-84521286D01*
X107463027Y-84533360D01*
X107459450Y-84551059D01*
X107455374Y-84568265D01*
X107450799Y-84584976D01*
X107445725Y-84601195D01*
X107442079Y-84611731D01*
X107436248Y-84627120D01*
X107429983Y-84642010D01*
X107423282Y-84656401D01*
X107416147Y-84670292D01*
X107408578Y-84683685D01*
X107400573Y-84696578D01*
X107392134Y-84708972D01*
X107383260Y-84720868D01*
X107373952Y-84732264D01*
X107364209Y-84743161D01*
X107357478Y-84750149D01*
X107347041Y-84760221D01*
X107336197Y-84769798D01*
X107324945Y-84778882D01*
X107313285Y-84787473D01*
X107301217Y-84795569D01*
X107288742Y-84803172D01*
X107275858Y-84810281D01*
X107262567Y-84816896D01*
X107248867Y-84823018D01*
X107234760Y-84828646D01*
X107225102Y-84832084D01*
X107210321Y-84836825D01*
X107195185Y-84841068D01*
X107179695Y-84844811D01*
X107163851Y-84848055D01*
X107147653Y-84850800D01*
X107131100Y-84853046D01*
X107114193Y-84854793D01*
X107096932Y-84856041D01*
X107079317Y-84856789D01*
X107061348Y-84857039D01*
X107054977Y-84857006D01*
X107042369Y-84856744D01*
X107029938Y-84856219D01*
X107011621Y-84854940D01*
X106993702Y-84853071D01*
X106976180Y-84850611D01*
X106959055Y-84847561D01*
X106942327Y-84843920D01*
X106925996Y-84839690D01*
X106910063Y-84834869D01*
X106894526Y-84829457D01*
X106879387Y-84823456D01*
X106869486Y-84819112D01*
X106855001Y-84812194D01*
X106840957Y-84804794D01*
X106827352Y-84796910D01*
X106814188Y-84788544D01*
X106801463Y-84779694D01*
X106789179Y-84770361D01*
X106777335Y-84760546D01*
X106765931Y-84750247D01*
X106754967Y-84739465D01*
X106744443Y-84728201D01*
X106737675Y-84720397D01*
X106727903Y-84708332D01*
X106718587Y-84695839D01*
X106709728Y-84682916D01*
X106701324Y-84669563D01*
X106693377Y-84655782D01*
X106685886Y-84641571D01*
X106678851Y-84626931D01*
X106672273Y-84611861D01*
X106666150Y-84596362D01*
X106660484Y-84580434D01*
X106656935Y-84569603D01*
X106652041Y-84553097D01*
X106647661Y-84536279D01*
X106643797Y-84519151D01*
X106640449Y-84501711D01*
X106637615Y-84483960D01*
X106635297Y-84465897D01*
X106634037Y-84453683D01*
X106633007Y-84441330D01*
X106632205Y-84428839D01*
X106631633Y-84416209D01*
X106631289Y-84403441D01*
X106631221Y-84395725D01*
X106849162Y-84395725D01*
X106849352Y-84410642D01*
X106849925Y-84425321D01*
X106850879Y-84439761D01*
X106852215Y-84453962D01*
X106853932Y-84467925D01*
X106856031Y-84481649D01*
X106858512Y-84495135D01*
X106861374Y-84508382D01*
X106862130Y-84511632D01*
X106865393Y-84524369D01*
X106869037Y-84536686D01*
X106873064Y-84548583D01*
X106877471Y-84560061D01*
X106883518Y-84573817D01*
X106890161Y-84586918D01*
X106897400Y-84599363D01*
X106900435Y-84604106D01*
X106908534Y-84615389D01*
X106917364Y-84625853D01*
X106926924Y-84635496D01*
X106937214Y-84644320D01*
X106948235Y-84652324D01*
X106959987Y-84659508D01*
X106969823Y-84664588D01*
X106982736Y-84669986D01*
X106996335Y-84674325D01*
X107010619Y-84677607D01*
X107025589Y-84679829D01*
X107038059Y-84680845D01*
X107050967Y-84681184D01*
X107062717Y-84680905D01*
X107079751Y-84679440D01*
X107096076Y-84676719D01*
X107111693Y-84672742D01*
X107126602Y-84667510D01*
X107140802Y-84661022D01*
X107154294Y-84653277D01*
X107167077Y-84644278D01*
X107179152Y-84634022D01*
X107190518Y-84622510D01*
X107201177Y-84609743D01*
X107207831Y-84600542D01*
X107217008Y-84585726D01*
X107225219Y-84569691D01*
X107230157Y-84558324D01*
X107234665Y-84546416D01*
X107238743Y-84533967D01*
X107242393Y-84520976D01*
X107245613Y-84507444D01*
X107248403Y-84493370D01*
X107250765Y-84478755D01*
X107252697Y-84463598D01*
X107254199Y-84447900D01*
X107255273Y-84431660D01*
X107255917Y-84414879D01*
X107256131Y-84397557D01*
X107255950Y-84383017D01*
X107255406Y-84368706D01*
X107254500Y-84354624D01*
X107253231Y-84340771D01*
X107251599Y-84327146D01*
X107249605Y-84313751D01*
X107247249Y-84300585D01*
X107244530Y-84287648D01*
X107241424Y-84274954D01*
X107237909Y-84262670D01*
X107233983Y-84250797D01*
X107228498Y-84236532D01*
X107222373Y-84222908D01*
X107215606Y-84209925D01*
X107208199Y-84197583D01*
X107205017Y-84192802D01*
X107196603Y-84181423D01*
X107187533Y-84170864D01*
X107177808Y-84161125D01*
X107167426Y-84152206D01*
X107156389Y-84144107D01*
X107144696Y-84136828D01*
X107142256Y-84135457D01*
X107129587Y-84129254D01*
X107116127Y-84124139D01*
X107101877Y-84120112D01*
X107089908Y-84117675D01*
X107077433Y-84115934D01*
X107064453Y-84114889D01*
X107050967Y-84114541D01*
X107038716Y-84114816D01*
X107021050Y-84116262D01*
X107004237Y-84118948D01*
X106988277Y-84122874D01*
X106973171Y-84128040D01*
X106958918Y-84134445D01*
X106945518Y-84142090D01*
X106932972Y-84150974D01*
X106921279Y-84161098D01*
X106910439Y-84172462D01*
X106900453Y-84185066D01*
X106897297Y-84189542D01*
X106888431Y-84203785D01*
X106880467Y-84219251D01*
X106873405Y-84235942D01*
X106869197Y-84247748D01*
X106865390Y-84260099D01*
X106861984Y-84272993D01*
X106858979Y-84286431D01*
X106856374Y-84300413D01*
X106854171Y-84314939D01*
X106852367Y-84330009D01*
X106850965Y-84345622D01*
X106849963Y-84361779D01*
X106849362Y-84378480D01*
X106849162Y-84395725D01*
X106631221Y-84395725D01*
X106631175Y-84390535D01*
X106631202Y-84383634D01*
X106631422Y-84369989D01*
X106631861Y-84356551D01*
X106632519Y-84343320D01*
X106633397Y-84330297D01*
X106634494Y-84317481D01*
X106635811Y-84304873D01*
X106637347Y-84292473D01*
X106639102Y-84280280D01*
X106642147Y-84262379D01*
X106645685Y-84244946D01*
X106649717Y-84227979D01*
X106654243Y-84211479D01*
X106659263Y-84195446D01*
X106662835Y-84184982D01*
X106668564Y-84169689D01*
X106674738Y-84154879D01*
X106681358Y-84140552D01*
X106688423Y-84126707D01*
X106695934Y-84113346D01*
X106703890Y-84100468D01*
X106712291Y-84088073D01*
X106721138Y-84076161D01*
X106730430Y-84064731D01*
X106740168Y-84053785D01*
X106746900Y-84046759D01*
X106757343Y-84036630D01*
X106768199Y-84026995D01*
X106779468Y-84017854D01*
X106791150Y-84009206D01*
X106803246Y-84001052D01*
X106815755Y-83993392D01*
X106828677Y-83986226D01*
X106842012Y-83979554D01*
X106855761Y-83973375D01*
X106869922Y-83967690D01*
X106879547Y-83964177D01*
X106894296Y-83959334D01*
X106909421Y-83955000D01*
X106924922Y-83951177D01*
X106940798Y-83947863D01*
X106957050Y-83945059D01*
X106973678Y-83942764D01*
X106990681Y-83940980D01*
X107008060Y-83939705D01*
X107025815Y-83938941D01*
X107043945Y-83938686D01*
X107050203Y-83938718D01*
G37*
G36*
X105935388Y-84837500D02*
G01*
X105935388Y-84260170D01*
X105935804Y-84242536D01*
X105937053Y-84226038D01*
X105939134Y-84210679D01*
X105942048Y-84196457D01*
X105945793Y-84183374D01*
X105950372Y-84171427D01*
X105958800Y-84155641D01*
X105969102Y-84142415D01*
X105981276Y-84131749D01*
X105995323Y-84123643D01*
X106011243Y-84118096D01*
X106029036Y-84115110D01*
X106041939Y-84114541D01*
X106055148Y-84115223D01*
X106068214Y-84117269D01*
X106081137Y-84120680D01*
X106093917Y-84125455D01*
X106106554Y-84131595D01*
X106119047Y-84139099D01*
X106131398Y-84147967D01*
X106143605Y-84158199D01*
X106152755Y-84166659D01*
X106162002Y-84175666D01*
X106171345Y-84185220D01*
X106180785Y-84195322D01*
X106190322Y-84205971D01*
X106199955Y-84217168D01*
X106209685Y-84228912D01*
X106219511Y-84241203D01*
X106229434Y-84254042D01*
X106239454Y-84267429D01*
X106246187Y-84276657D01*
X106246187Y-84837500D01*
X106455625Y-84837500D01*
X106455625Y-83958225D01*
X106274580Y-83958225D01*
X106269390Y-84087979D01*
X106261038Y-84077538D01*
X106252581Y-84067395D01*
X106244019Y-84057550D01*
X106235354Y-84048004D01*
X106226584Y-84038755D01*
X106217709Y-84029805D01*
X106214130Y-84026308D01*
X106204962Y-84017827D01*
X106195585Y-84009749D01*
X106186000Y-84002073D01*
X106174222Y-83993393D01*
X106162143Y-83985293D01*
X106151848Y-83978986D01*
X106139083Y-83971981D01*
X106125974Y-83965619D01*
X106112521Y-83959902D01*
X106101049Y-83955630D01*
X106089337Y-83951804D01*
X106079797Y-83949066D01*
X106067449Y-83946076D01*
X106054639Y-83943592D01*
X106041367Y-83941615D01*
X106027633Y-83940146D01*
X106013436Y-83939183D01*
X105998778Y-83938726D01*
X105992785Y-83938686D01*
X105980399Y-83938882D01*
X105964351Y-83939752D01*
X105948838Y-83941319D01*
X105933859Y-83943583D01*
X105919415Y-83946543D01*
X105905504Y-83950199D01*
X105892128Y-83954552D01*
X105879286Y-83959602D01*
X105876159Y-83960973D01*
X105863904Y-83966755D01*
X105852174Y-83973109D01*
X105840968Y-83980035D01*
X105830287Y-83987534D01*
X105820131Y-83995606D01*
X105810500Y-84004250D01*
X105801393Y-84013466D01*
X105792811Y-84023255D01*
X105784678Y-84033516D01*
X105777069Y-84044302D01*
X105769985Y-84055612D01*
X105763426Y-84067448D01*
X105757391Y-84079808D01*
X105751882Y-84092692D01*
X105746897Y-84106102D01*
X105742436Y-84120036D01*
X105738501Y-84134443D01*
X105735090Y-84149269D01*
X105732204Y-84164515D01*
X105729843Y-84180181D01*
X105728006Y-84196267D01*
X105726973Y-84208606D01*
X105726235Y-84221182D01*
X105725792Y-84233994D01*
X105725645Y-84247042D01*
X105725645Y-84837500D01*
X105935388Y-84837500D01*
G37*
G36*
X105148367Y-83938730D02*
G01*
X105164836Y-83938962D01*
X105181193Y-83939392D01*
X105197437Y-83940021D01*
X105213568Y-83940848D01*
X105229587Y-83941874D01*
X105245493Y-83943098D01*
X105261286Y-83944521D01*
X105276966Y-83946143D01*
X105292534Y-83947963D01*
X105307989Y-83949982D01*
X105318142Y-83951379D01*
X105333089Y-83953558D01*
X105347698Y-83955840D01*
X105361969Y-83958224D01*
X105375901Y-83960709D01*
X105389496Y-83963297D01*
X105402753Y-83965987D01*
X105415671Y-83968778D01*
X105428251Y-83971672D01*
X105440494Y-83974667D01*
X105452398Y-83977765D01*
X105452398Y-84153620D01*
X105443564Y-84150196D01*
X105430247Y-84145243D01*
X105416849Y-84140511D01*
X105403371Y-84135998D01*
X105389812Y-84131706D01*
X105376172Y-84127633D01*
X105362453Y-84123781D01*
X105348652Y-84120149D01*
X105334771Y-84116736D01*
X105320810Y-84113544D01*
X105306768Y-84110572D01*
X105297372Y-84108686D01*
X105283246Y-84106086D01*
X105269082Y-84103760D01*
X105254881Y-84101707D01*
X105240642Y-84099928D01*
X105226366Y-84098422D01*
X105212052Y-84097191D01*
X105197701Y-84096233D01*
X105183312Y-84095549D01*
X105168886Y-84095138D01*
X105154422Y-84095001D01*
X105139537Y-84095247D01*
X105125412Y-84095985D01*
X105112047Y-84097215D01*
X105099443Y-84098937D01*
X105085322Y-84101652D01*
X105072295Y-84105076D01*
X105062106Y-84108433D01*
X105050685Y-84113013D01*
X105038474Y-84119115D01*
X105027461Y-84126036D01*
X105017646Y-84133775D01*
X105016340Y-84134947D01*
X105006714Y-84144903D01*
X104998537Y-84155889D01*
X104991811Y-84167905D01*
X104987115Y-84179265D01*
X104984897Y-84186006D01*
X104981727Y-84198284D01*
X104979462Y-84211175D01*
X104978104Y-84224680D01*
X104977651Y-84238799D01*
X104977651Y-84290396D01*
X105091834Y-84290396D01*
X105098562Y-84290417D01*
X105111855Y-84290589D01*
X105124930Y-84290932D01*
X105137789Y-84291447D01*
X105150430Y-84292134D01*
X105162855Y-84292993D01*
X105181084Y-84294603D01*
X105198826Y-84296599D01*
X105216079Y-84298982D01*
X105232843Y-84301751D01*
X105249119Y-84304907D01*
X105264907Y-84308449D01*
X105280207Y-84312377D01*
X105290140Y-84315190D01*
X105304650Y-84319649D01*
X105318694Y-84324399D01*
X105332271Y-84329438D01*
X105345381Y-84334767D01*
X105358024Y-84340386D01*
X105370200Y-84346295D01*
X105381909Y-84352493D01*
X105393151Y-84358981D01*
X105403926Y-84365760D01*
X105414235Y-84372827D01*
X105427167Y-84382683D01*
X105439251Y-84393016D01*
X105450485Y-84403825D01*
X105460870Y-84415112D01*
X105470406Y-84426876D01*
X105479093Y-84439117D01*
X105486931Y-84451834D01*
X105493919Y-84465029D01*
X105500073Y-84478539D01*
X105505406Y-84492354D01*
X105509919Y-84506474D01*
X105513611Y-84520900D01*
X105516483Y-84535631D01*
X105518534Y-84550667D01*
X105519765Y-84566008D01*
X105520175Y-84581655D01*
X105519903Y-84596834D01*
X105519088Y-84611689D01*
X105517728Y-84626220D01*
X105515825Y-84640426D01*
X105513378Y-84654308D01*
X105510386Y-84667865D01*
X105506852Y-84681098D01*
X105502773Y-84694007D01*
X105498088Y-84706448D01*
X105492889Y-84718431D01*
X105487174Y-84729956D01*
X105480944Y-84741024D01*
X105474198Y-84751633D01*
X105466938Y-84761784D01*
X105459162Y-84771478D01*
X105450871Y-84780713D01*
X105441994Y-84789471D01*
X105432610Y-84797734D01*
X105422721Y-84805500D01*
X105412327Y-84812770D01*
X105401427Y-84819544D01*
X105390021Y-84825822D01*
X105378109Y-84831603D01*
X105365692Y-84836889D01*
X105362508Y-84838129D01*
X105349452Y-84842694D01*
X105335880Y-84846629D01*
X105321793Y-84849935D01*
X105307191Y-84852611D01*
X105292074Y-84854658D01*
X105276441Y-84856075D01*
X105260293Y-84856862D01*
X105247845Y-84857039D01*
X105238469Y-84856950D01*
X105226185Y-84856557D01*
X105211179Y-84855622D01*
X105196561Y-84854195D01*
X105182331Y-84852277D01*
X105168488Y-84849866D01*
X105155032Y-84846964D01*
X105149716Y-84845709D01*
X105136654Y-84842281D01*
X105123920Y-84838434D01*
X105111514Y-84834171D01*
X105099436Y-84829490D01*
X105087686Y-84824392D01*
X105076264Y-84818876D01*
X105065155Y-84813002D01*
X105054344Y-84806831D01*
X105043831Y-84800361D01*
X105033617Y-84793593D01*
X105021753Y-84785078D01*
X105010318Y-84776133D01*
X105006551Y-84773023D01*
X104997226Y-84765081D01*
X104988036Y-84756899D01*
X104978980Y-84748480D01*
X104970058Y-84739821D01*
X104961270Y-84730925D01*
X104952616Y-84721789D01*
X104947426Y-84837500D01*
X104768213Y-84837500D01*
X104768213Y-84446711D01*
X104977651Y-84446711D01*
X104977651Y-84570664D01*
X104988215Y-84582147D01*
X104998613Y-84593125D01*
X105008845Y-84603599D01*
X105018910Y-84613569D01*
X105028809Y-84623034D01*
X105038541Y-84631994D01*
X105048107Y-84640451D01*
X105057507Y-84648402D01*
X105069781Y-84658220D01*
X105081759Y-84667140D01*
X105093461Y-84675011D01*
X105105058Y-84681833D01*
X105116550Y-84687605D01*
X105130767Y-84693344D01*
X105144820Y-84697444D01*
X105158709Y-84699904D01*
X105172435Y-84700724D01*
X105176112Y-84700695D01*
X105190340Y-84700000D01*
X105203795Y-84698381D01*
X105216477Y-84695836D01*
X105228386Y-84692366D01*
X105242186Y-84686726D01*
X105254778Y-84679641D01*
X105266163Y-84671109D01*
X105276014Y-84661199D01*
X105284195Y-84649976D01*
X105290706Y-84637442D01*
X105295548Y-84623596D01*
X105298220Y-84611575D01*
X105299822Y-84598714D01*
X105300357Y-84585013D01*
X105299689Y-84571160D01*
X105297685Y-84557689D01*
X105294346Y-84544599D01*
X105289671Y-84531891D01*
X105288287Y-84528785D01*
X105281770Y-84516840D01*
X105273689Y-84505658D01*
X105265335Y-84496500D01*
X105255782Y-84487927D01*
X105244974Y-84479906D01*
X105232850Y-84472675D01*
X105221412Y-84467104D01*
X105209008Y-84462113D01*
X105195638Y-84457702D01*
X105186149Y-84455126D01*
X105173578Y-84452389D01*
X105160216Y-84450189D01*
X105146065Y-84448525D01*
X105131123Y-84447398D01*
X105118601Y-84446883D01*
X105105573Y-84446711D01*
X104977651Y-84446711D01*
X104768213Y-84446711D01*
X104768213Y-84236662D01*
X104768234Y-84232024D01*
X104768551Y-84218330D01*
X104769250Y-84204962D01*
X104770329Y-84191922D01*
X104771790Y-84179209D01*
X104773632Y-84166824D01*
X104776680Y-84150819D01*
X104780406Y-84135397D01*
X104784809Y-84120556D01*
X104789889Y-84106297D01*
X104795604Y-84092621D01*
X104802063Y-84079526D01*
X104809266Y-84067013D01*
X104817214Y-84055083D01*
X104825905Y-84043734D01*
X104835341Y-84032967D01*
X104845521Y-84022783D01*
X104856445Y-84013180D01*
X104868052Y-84004159D01*
X104880431Y-83995720D01*
X104893583Y-83987864D01*
X104907507Y-83980589D01*
X104922205Y-83973896D01*
X104933735Y-83969258D01*
X104945700Y-83964948D01*
X104958100Y-83960965D01*
X104970934Y-83957309D01*
X104979706Y-83955054D01*
X104993270Y-83951944D01*
X105007323Y-83949162D01*
X105021864Y-83946706D01*
X105036893Y-83944578D01*
X105052411Y-83942778D01*
X105068417Y-83941305D01*
X105084911Y-83940159D01*
X105101894Y-83939341D01*
X105119365Y-83938850D01*
X105137325Y-83938686D01*
X105148367Y-83938730D01*
G37*
G36*
X104478480Y-84251317D02*
G01*
X104251944Y-84138660D01*
X104251944Y-83782370D01*
X104498324Y-83782370D01*
X104498324Y-83626055D01*
X104037011Y-83626055D01*
X104037011Y-84031498D01*
X103810475Y-83919146D01*
X103810475Y-84114541D01*
X104037011Y-84227198D01*
X104037011Y-84681184D01*
X103785440Y-84681184D01*
X103785440Y-84837500D01*
X104528244Y-84837500D01*
X104528244Y-84681184D01*
X104251944Y-84681184D01*
X104251944Y-84334054D01*
X104478480Y-84446711D01*
X104478480Y-84251317D01*
G37*
G36*
X103208417Y-83958225D02*
G01*
X103194329Y-83958810D01*
X103180651Y-83960563D01*
X103167381Y-83963485D01*
X103154521Y-83967575D01*
X103147356Y-83970437D01*
X103135314Y-83976218D01*
X103124031Y-83982876D01*
X103113508Y-83990410D01*
X103103745Y-83998821D01*
X103098507Y-84004021D01*
X103089848Y-84013602D01*
X103082037Y-84023914D01*
X103075072Y-84034957D01*
X103068955Y-84046730D01*
X103065840Y-84053785D01*
X103061082Y-84066502D01*
X103057492Y-84079539D01*
X103055071Y-84092898D01*
X103053819Y-84106579D01*
X103053628Y-84114541D01*
X103054057Y-84126755D01*
X103055643Y-84140626D01*
X103058398Y-84154087D01*
X103062322Y-84167139D01*
X103065840Y-84176212D01*
X103071473Y-84188388D01*
X103077953Y-84199804D01*
X103085281Y-84210460D01*
X103093456Y-84220357D01*
X103098507Y-84225671D01*
X103107837Y-84234345D01*
X103117925Y-84242200D01*
X103128774Y-84249238D01*
X103140382Y-84255457D01*
X103147356Y-84258644D01*
X103159983Y-84263402D01*
X103173018Y-84266992D01*
X103186463Y-84269413D01*
X103200317Y-84270665D01*
X103208417Y-84270856D01*
X103222371Y-84270272D01*
X103235916Y-84268519D01*
X103249051Y-84265597D01*
X103261778Y-84261506D01*
X103268867Y-84258644D01*
X103280700Y-84252892D01*
X103291891Y-84246322D01*
X103302439Y-84238934D01*
X103312344Y-84230728D01*
X103317715Y-84225671D01*
X103326508Y-84216209D01*
X103334453Y-84205986D01*
X103341551Y-84195004D01*
X103347802Y-84183263D01*
X103350994Y-84176212D01*
X103355633Y-84163452D01*
X103359133Y-84150283D01*
X103361493Y-84136704D01*
X103362714Y-84122717D01*
X103362900Y-84114541D01*
X103362331Y-84100676D01*
X103360621Y-84087134D01*
X103357772Y-84073912D01*
X103353784Y-84061012D01*
X103350994Y-84053785D01*
X103345227Y-84041595D01*
X103338613Y-84030135D01*
X103331152Y-84019406D01*
X103322844Y-84009407D01*
X103317715Y-84004021D01*
X103308178Y-83995109D01*
X103297997Y-83987074D01*
X103287174Y-83979916D01*
X103275708Y-83973634D01*
X103268867Y-83970437D01*
X103256374Y-83965679D01*
X103243472Y-83962089D01*
X103230161Y-83959668D01*
X103216440Y-83958416D01*
X103208417Y-83958225D01*
G37*
G36*
X103208417Y-84544408D02*
G01*
X103194329Y-84544992D01*
X103180651Y-84546746D01*
X103167381Y-84549667D01*
X103154521Y-84553758D01*
X103147356Y-84556620D01*
X103135314Y-84562372D01*
X103124031Y-84568942D01*
X103113508Y-84576330D01*
X103103745Y-84584536D01*
X103098507Y-84589593D01*
X103089848Y-84599056D01*
X103082037Y-84609278D01*
X103075072Y-84620260D01*
X103068955Y-84632002D01*
X103065840Y-84639052D01*
X103061082Y-84651768D01*
X103057492Y-84664806D01*
X103055071Y-84678165D01*
X103053819Y-84691846D01*
X103053628Y-84699808D01*
X103054057Y-84712022D01*
X103055643Y-84725893D01*
X103058398Y-84739354D01*
X103062322Y-84752406D01*
X103065840Y-84761479D01*
X103071473Y-84773684D01*
X103077953Y-84785188D01*
X103085281Y-84795990D01*
X103093456Y-84806091D01*
X103098507Y-84811549D01*
X103107837Y-84820341D01*
X103117925Y-84828287D01*
X103128774Y-84835385D01*
X103140382Y-84841635D01*
X103147356Y-84844827D01*
X103159983Y-84849585D01*
X103173018Y-84853175D01*
X103186463Y-84855596D01*
X103200317Y-84856848D01*
X103208417Y-84857039D01*
X103222371Y-84856455D01*
X103235916Y-84854701D01*
X103249051Y-84851780D01*
X103261778Y-84847689D01*
X103268867Y-84844827D01*
X103280700Y-84839060D01*
X103291891Y-84832446D01*
X103302439Y-84824985D01*
X103312344Y-84816677D01*
X103317715Y-84811549D01*
X103326508Y-84801848D01*
X103334453Y-84791446D01*
X103341551Y-84780343D01*
X103347802Y-84768539D01*
X103350994Y-84761479D01*
X103355633Y-84748719D01*
X103359133Y-84735550D01*
X103361493Y-84721971D01*
X103362714Y-84707984D01*
X103362900Y-84699808D01*
X103362331Y-84685943D01*
X103360621Y-84672401D01*
X103357772Y-84659179D01*
X103353784Y-84646279D01*
X103350994Y-84639052D01*
X103345227Y-84626876D01*
X103338613Y-84615460D01*
X103331152Y-84604804D01*
X103322844Y-84594907D01*
X103317715Y-84589593D01*
X103308178Y-84580919D01*
X103297997Y-84573064D01*
X103287174Y-84566026D01*
X103275708Y-84559807D01*
X103268867Y-84556620D01*
X103256374Y-84551862D01*
X103243472Y-84548272D01*
X103230161Y-84545851D01*
X103216440Y-84544599D01*
X103208417Y-84544408D01*
G37*
G36*
X114633486Y-86937500D02*
G01*
X114422216Y-86937500D01*
X114422216Y-86468553D01*
X114381916Y-86468553D01*
X114378552Y-86468579D01*
X114365372Y-86469202D01*
X114352630Y-86470654D01*
X114340328Y-86472937D01*
X114328464Y-86476050D01*
X114314251Y-86481108D01*
X114300724Y-86487463D01*
X114287883Y-86495115D01*
X114282953Y-86498497D01*
X114271232Y-86507829D01*
X114260377Y-86518413D01*
X114252315Y-86527782D01*
X114244806Y-86537953D01*
X114237851Y-86548924D01*
X114231449Y-86560698D01*
X114225601Y-86573272D01*
X114067759Y-86937500D01*
X113819547Y-86937500D01*
X113999066Y-86557702D01*
X114001203Y-86553196D01*
X114007619Y-86540099D01*
X114014040Y-86527636D01*
X114020467Y-86515806D01*
X114026899Y-86504609D01*
X114033336Y-86494046D01*
X114041927Y-86480947D01*
X114050528Y-86468973D01*
X114059139Y-86458125D01*
X114067759Y-86448403D01*
X114072060Y-86443935D01*
X114083055Y-86433733D01*
X114094392Y-86424919D01*
X114106072Y-86417490D01*
X114118095Y-86411448D01*
X114130460Y-86406793D01*
X114143169Y-86403524D01*
X114130012Y-86401191D01*
X114117104Y-86398467D01*
X114104443Y-86395352D01*
X114092030Y-86391846D01*
X114079866Y-86387948D01*
X114067950Y-86383660D01*
X114056281Y-86378980D01*
X114044861Y-86373909D01*
X114036502Y-86369844D01*
X114025706Y-86364065D01*
X114012776Y-86356264D01*
X114000471Y-86347821D01*
X113988793Y-86338738D01*
X113977740Y-86329014D01*
X113967314Y-86318649D01*
X113959376Y-86309896D01*
X113950098Y-86298377D01*
X113941535Y-86286217D01*
X113933688Y-86273416D01*
X113926556Y-86259974D01*
X113921366Y-86248759D01*
X113916634Y-86237133D01*
X113912412Y-86225088D01*
X113908753Y-86212613D01*
X113905657Y-86199710D01*
X113903124Y-86186376D01*
X113901154Y-86172614D01*
X113899746Y-86158422D01*
X113899390Y-86152259D01*
X114119966Y-86152259D01*
X114120027Y-86157072D01*
X114120939Y-86171111D01*
X114122946Y-86184549D01*
X114126048Y-86197386D01*
X114130245Y-86209622D01*
X114135536Y-86221257D01*
X114137496Y-86224960D01*
X114143989Y-86235626D01*
X114151406Y-86245626D01*
X114159746Y-86254960D01*
X114169009Y-86263629D01*
X114179195Y-86271632D01*
X114186474Y-86276517D01*
X114198073Y-86283272D01*
X114210488Y-86289340D01*
X114223719Y-86294721D01*
X114235367Y-86298680D01*
X114247583Y-86302163D01*
X114252581Y-86303383D01*
X114265400Y-86306089D01*
X114278681Y-86308302D01*
X114292424Y-86310024D01*
X114306629Y-86311254D01*
X114321296Y-86311992D01*
X114336426Y-86312238D01*
X114422216Y-86312238D01*
X114422216Y-85999607D01*
X114329404Y-85999607D01*
X114316519Y-85999747D01*
X114304045Y-86000165D01*
X114286102Y-86001316D01*
X114269083Y-86003095D01*
X114252986Y-86005502D01*
X114237813Y-86008537D01*
X114223563Y-86012200D01*
X114210235Y-86016490D01*
X114197831Y-86021409D01*
X114186350Y-86026955D01*
X114172478Y-86035327D01*
X114169247Y-86037586D01*
X114157350Y-86047520D01*
X114147094Y-86058895D01*
X114138478Y-86071711D01*
X114131504Y-86085967D01*
X114127350Y-86097605D01*
X114124120Y-86110053D01*
X114121812Y-86123311D01*
X114120427Y-86137380D01*
X114119966Y-86152259D01*
X113899390Y-86152259D01*
X113898902Y-86143801D01*
X113898621Y-86128750D01*
X113898733Y-86118319D01*
X113899321Y-86103052D01*
X113900414Y-86088240D01*
X113902012Y-86073885D01*
X113904114Y-86059987D01*
X113906720Y-86046544D01*
X113909831Y-86033558D01*
X113913446Y-86021027D01*
X113917566Y-86008953D01*
X113922190Y-85997335D01*
X113927319Y-85986174D01*
X113934880Y-85971867D01*
X113943214Y-85958257D01*
X113952321Y-85945344D01*
X113962200Y-85933127D01*
X113972852Y-85921607D01*
X113984277Y-85910783D01*
X113996475Y-85900655D01*
X114009446Y-85891224D01*
X114016174Y-85886764D01*
X114026598Y-85880378D01*
X114037419Y-85874356D01*
X114048637Y-85868700D01*
X114060253Y-85863408D01*
X114072265Y-85858482D01*
X114084675Y-85853920D01*
X114097481Y-85849723D01*
X114110685Y-85845891D01*
X114124286Y-85842425D01*
X114138284Y-85839323D01*
X114147778Y-85837437D01*
X114162274Y-85834837D01*
X114177077Y-85832511D01*
X114192185Y-85830458D01*
X114207599Y-85828679D01*
X114223318Y-85827173D01*
X114239344Y-85825942D01*
X114255676Y-85824984D01*
X114272313Y-85824300D01*
X114289257Y-85823889D01*
X114306506Y-85823752D01*
X114633486Y-85823752D01*
X114633486Y-86937500D01*
G37*
G36*
X113317679Y-86038730D02*
G01*
X113334149Y-86038962D01*
X113350505Y-86039392D01*
X113366749Y-86040021D01*
X113382881Y-86040848D01*
X113398899Y-86041874D01*
X113414805Y-86043098D01*
X113430598Y-86044521D01*
X113446279Y-86046143D01*
X113461847Y-86047963D01*
X113477302Y-86049982D01*
X113487454Y-86051379D01*
X113502401Y-86053558D01*
X113517010Y-86055840D01*
X113531281Y-86058224D01*
X113545214Y-86060709D01*
X113558809Y-86063297D01*
X113572065Y-86065987D01*
X113584984Y-86068778D01*
X113597564Y-86071672D01*
X113609806Y-86074667D01*
X113621710Y-86077765D01*
X113621710Y-86253620D01*
X113612877Y-86250196D01*
X113599559Y-86245243D01*
X113586162Y-86240511D01*
X113572683Y-86235998D01*
X113559124Y-86231706D01*
X113545485Y-86227633D01*
X113531765Y-86223781D01*
X113517965Y-86220149D01*
X113504084Y-86216736D01*
X113490122Y-86213544D01*
X113476081Y-86210572D01*
X113466684Y-86208686D01*
X113452558Y-86206086D01*
X113438395Y-86203760D01*
X113424194Y-86201707D01*
X113409955Y-86199928D01*
X113395679Y-86198422D01*
X113381365Y-86197191D01*
X113367014Y-86196233D01*
X113352625Y-86195549D01*
X113338198Y-86195138D01*
X113323734Y-86195001D01*
X113308849Y-86195247D01*
X113294724Y-86195985D01*
X113281360Y-86197215D01*
X113268756Y-86198937D01*
X113254634Y-86201652D01*
X113241607Y-86205076D01*
X113231418Y-86208433D01*
X113219998Y-86213013D01*
X113207787Y-86219115D01*
X113196773Y-86226036D01*
X113186958Y-86233775D01*
X113185653Y-86234947D01*
X113176026Y-86244903D01*
X113167850Y-86255889D01*
X113161124Y-86267905D01*
X113156428Y-86279265D01*
X113154209Y-86286006D01*
X113151039Y-86298284D01*
X113148775Y-86311175D01*
X113147416Y-86324680D01*
X113146963Y-86338799D01*
X113146963Y-86390396D01*
X113261147Y-86390396D01*
X113267875Y-86390417D01*
X113281167Y-86390589D01*
X113294243Y-86390932D01*
X113307101Y-86391447D01*
X113319743Y-86392134D01*
X113332167Y-86392993D01*
X113350397Y-86394603D01*
X113368138Y-86396599D01*
X113385391Y-86398982D01*
X113402156Y-86401751D01*
X113418432Y-86404907D01*
X113434220Y-86408449D01*
X113449519Y-86412377D01*
X113459452Y-86415190D01*
X113473963Y-86419649D01*
X113488006Y-86424399D01*
X113501583Y-86429438D01*
X113514693Y-86434767D01*
X113527336Y-86440386D01*
X113539512Y-86446295D01*
X113551221Y-86452493D01*
X113562464Y-86458981D01*
X113573239Y-86465760D01*
X113583547Y-86472827D01*
X113596480Y-86482683D01*
X113608563Y-86493016D01*
X113619797Y-86503825D01*
X113630182Y-86515112D01*
X113639718Y-86526876D01*
X113648405Y-86539117D01*
X113656243Y-86551834D01*
X113663232Y-86565029D01*
X113669385Y-86578539D01*
X113674719Y-86592354D01*
X113679231Y-86606474D01*
X113682924Y-86620900D01*
X113685795Y-86635631D01*
X113687847Y-86650667D01*
X113689077Y-86666008D01*
X113689488Y-86681655D01*
X113689216Y-86696834D01*
X113688400Y-86711689D01*
X113687041Y-86726220D01*
X113685137Y-86740426D01*
X113682690Y-86754308D01*
X113679699Y-86767865D01*
X113676164Y-86781098D01*
X113672085Y-86794007D01*
X113667401Y-86806448D01*
X113662201Y-86818431D01*
X113656486Y-86829956D01*
X113650256Y-86841024D01*
X113643511Y-86851633D01*
X113636250Y-86861784D01*
X113628475Y-86871478D01*
X113620184Y-86880713D01*
X113611306Y-86889471D01*
X113601923Y-86897734D01*
X113592034Y-86905500D01*
X113581639Y-86912770D01*
X113570739Y-86919544D01*
X113559333Y-86925822D01*
X113547421Y-86931603D01*
X113535004Y-86936889D01*
X113531820Y-86938129D01*
X113518764Y-86942694D01*
X113505192Y-86946629D01*
X113491105Y-86949935D01*
X113476503Y-86952611D01*
X113461386Y-86954658D01*
X113445753Y-86956075D01*
X113429606Y-86956862D01*
X113417157Y-86957039D01*
X113407781Y-86956950D01*
X113395498Y-86956557D01*
X113380492Y-86955622D01*
X113365874Y-86954195D01*
X113351643Y-86952277D01*
X113337800Y-86949866D01*
X113324345Y-86946964D01*
X113319028Y-86945709D01*
X113305966Y-86942281D01*
X113293232Y-86938434D01*
X113280826Y-86934171D01*
X113268748Y-86929490D01*
X113256998Y-86924392D01*
X113245576Y-86918876D01*
X113234467Y-86913002D01*
X113223656Y-86906831D01*
X113213144Y-86900361D01*
X113202929Y-86893593D01*
X113191065Y-86885078D01*
X113179631Y-86876133D01*
X113175863Y-86873023D01*
X113166539Y-86865081D01*
X113157348Y-86856899D01*
X113148292Y-86848480D01*
X113139370Y-86839821D01*
X113130582Y-86830925D01*
X113121928Y-86821789D01*
X113116738Y-86937500D01*
X112937525Y-86937500D01*
X112937525Y-86546711D01*
X113146963Y-86546711D01*
X113146963Y-86670664D01*
X113157528Y-86682147D01*
X113167925Y-86693125D01*
X113178157Y-86703599D01*
X113188222Y-86713569D01*
X113198121Y-86723034D01*
X113207853Y-86731994D01*
X113217420Y-86740451D01*
X113226819Y-86748402D01*
X113239093Y-86758220D01*
X113251072Y-86767140D01*
X113262774Y-86775011D01*
X113274370Y-86781833D01*
X113285862Y-86787605D01*
X113300079Y-86793344D01*
X113314132Y-86797444D01*
X113328022Y-86799904D01*
X113341747Y-86800724D01*
X113345425Y-86800695D01*
X113359652Y-86800000D01*
X113373107Y-86798381D01*
X113385789Y-86795836D01*
X113397698Y-86792366D01*
X113411498Y-86786726D01*
X113424090Y-86779641D01*
X113435475Y-86771109D01*
X113445326Y-86761199D01*
X113453507Y-86749976D01*
X113460019Y-86737442D01*
X113464861Y-86723596D01*
X113467532Y-86711575D01*
X113469135Y-86698714D01*
X113469669Y-86685013D01*
X113469001Y-86671160D01*
X113466998Y-86657689D01*
X113463658Y-86644599D01*
X113458984Y-86631891D01*
X113457599Y-86628785D01*
X113451083Y-86616840D01*
X113443002Y-86605658D01*
X113434647Y-86596500D01*
X113425095Y-86587927D01*
X113414286Y-86579906D01*
X113402162Y-86572675D01*
X113390724Y-86567104D01*
X113378320Y-86562113D01*
X113364950Y-86557702D01*
X113355462Y-86555126D01*
X113342890Y-86552389D01*
X113329529Y-86550189D01*
X113315377Y-86548525D01*
X113300436Y-86547398D01*
X113287913Y-86546883D01*
X113274885Y-86546711D01*
X113146963Y-86546711D01*
X112937525Y-86546711D01*
X112937525Y-86336662D01*
X112937546Y-86332024D01*
X112937864Y-86318330D01*
X112938562Y-86304962D01*
X112939642Y-86291922D01*
X112941103Y-86279209D01*
X112942944Y-86266824D01*
X112945992Y-86250819D01*
X112949718Y-86235397D01*
X112954121Y-86220556D01*
X112959202Y-86206297D01*
X112964916Y-86192621D01*
X112971376Y-86179526D01*
X112978579Y-86167013D01*
X112986526Y-86155083D01*
X112995218Y-86143734D01*
X113004654Y-86132967D01*
X113014834Y-86122783D01*
X113025758Y-86113180D01*
X113037364Y-86104159D01*
X113049743Y-86095720D01*
X113062895Y-86087864D01*
X113076820Y-86080589D01*
X113091517Y-86073896D01*
X113103048Y-86069258D01*
X113115013Y-86064948D01*
X113127412Y-86060965D01*
X113140247Y-86057309D01*
X113149018Y-86055054D01*
X113162582Y-86051944D01*
X113176635Y-86049162D01*
X113191176Y-86046706D01*
X113206205Y-86044578D01*
X113221723Y-86042778D01*
X113237729Y-86041305D01*
X113254224Y-86040159D01*
X113271206Y-86039341D01*
X113288677Y-86038850D01*
X113306637Y-86038686D01*
X113317679Y-86038730D01*
G37*
G36*
X112182509Y-86053951D02*
G01*
X112190710Y-86051912D01*
X112202817Y-86049257D01*
X112215654Y-86046836D01*
X112229222Y-86044649D01*
X112241433Y-86042960D01*
X112245553Y-86042442D01*
X112257900Y-86041090D01*
X112270226Y-86040038D01*
X112282530Y-86039287D01*
X112294812Y-86038836D01*
X112307073Y-86038686D01*
X112319115Y-86038797D01*
X112336967Y-86039379D01*
X112354567Y-86040460D01*
X112371915Y-86042041D01*
X112389010Y-86044120D01*
X112405853Y-86046699D01*
X112422445Y-86049777D01*
X112438783Y-86053354D01*
X112454870Y-86057430D01*
X112470704Y-86062005D01*
X112486286Y-86067079D01*
X112496503Y-86070709D01*
X112511502Y-86076602D01*
X112526109Y-86083031D01*
X112540325Y-86089997D01*
X112554148Y-86097500D01*
X112567580Y-86105539D01*
X112580620Y-86114115D01*
X112593269Y-86123227D01*
X112605525Y-86132877D01*
X112617390Y-86143063D01*
X112628863Y-86153785D01*
X112636279Y-86161232D01*
X112647017Y-86172849D01*
X112657295Y-86185003D01*
X112667110Y-86197693D01*
X112676464Y-86210920D01*
X112685357Y-86224684D01*
X112693788Y-86238984D01*
X112701757Y-86253821D01*
X112709265Y-86269195D01*
X112716312Y-86285105D01*
X112722897Y-86301552D01*
X112724982Y-86307156D01*
X112730839Y-86324345D01*
X112734413Y-86336121D01*
X112737723Y-86348149D01*
X112740768Y-86360430D01*
X112743548Y-86372965D01*
X112746063Y-86385752D01*
X112748313Y-86398791D01*
X112750299Y-86412084D01*
X112752020Y-86425629D01*
X112753476Y-86439428D01*
X112754667Y-86453479D01*
X112755594Y-86467783D01*
X112756256Y-86482340D01*
X112756653Y-86497149D01*
X112756785Y-86512212D01*
X112756764Y-86518547D01*
X112756597Y-86531108D01*
X112756264Y-86543520D01*
X112755450Y-86561862D01*
X112754260Y-86579870D01*
X112752695Y-86597546D01*
X112750754Y-86614890D01*
X112748437Y-86631900D01*
X112745745Y-86648578D01*
X112742677Y-86664923D01*
X112739233Y-86680935D01*
X112735414Y-86696615D01*
X112732631Y-86706822D01*
X112728178Y-86721771D01*
X112723393Y-86736285D01*
X112718275Y-86750365D01*
X112712824Y-86764010D01*
X112707041Y-86777220D01*
X112700924Y-86789995D01*
X112694475Y-86802336D01*
X112687694Y-86814242D01*
X112680579Y-86825713D01*
X112673132Y-86836749D01*
X112667944Y-86843860D01*
X112659885Y-86854140D01*
X112651494Y-86863960D01*
X112642769Y-86873317D01*
X112633712Y-86882213D01*
X112624322Y-86890648D01*
X112614600Y-86898621D01*
X112604544Y-86906133D01*
X112594156Y-86913183D01*
X112583436Y-86919771D01*
X112572382Y-86925898D01*
X112564797Y-86929669D01*
X112553169Y-86934869D01*
X112541241Y-86939522D01*
X112529012Y-86943628D01*
X112516483Y-86947186D01*
X112503653Y-86950196D01*
X112490522Y-86952660D01*
X112477091Y-86954576D01*
X112463360Y-86955944D01*
X112449328Y-86956765D01*
X112434995Y-86957039D01*
X112429227Y-86956997D01*
X112415087Y-86956528D01*
X112401350Y-86955536D01*
X112388015Y-86954023D01*
X112375083Y-86951988D01*
X112362553Y-86949432D01*
X112350426Y-86946353D01*
X112340890Y-86943548D01*
X112329198Y-86939666D01*
X112317760Y-86935367D01*
X112304368Y-86929657D01*
X112291342Y-86923346D01*
X112278680Y-86916434D01*
X112268297Y-86910222D01*
X112256133Y-86902236D01*
X112244290Y-86893671D01*
X112234667Y-86886090D01*
X112225268Y-86878108D01*
X112216093Y-86869722D01*
X112212436Y-86866265D01*
X112203358Y-86857423D01*
X112194368Y-86848298D01*
X112185469Y-86838890D01*
X112176658Y-86829199D01*
X112167938Y-86819224D01*
X112159306Y-86808967D01*
X112154116Y-86937500D01*
X111972766Y-86937500D01*
X111972766Y-86614183D01*
X112182509Y-86614183D01*
X112189242Y-86623749D01*
X112199255Y-86637619D01*
X112209166Y-86650915D01*
X112218976Y-86663637D01*
X112228683Y-86675784D01*
X112238288Y-86687357D01*
X112247792Y-86698356D01*
X112257193Y-86708781D01*
X112266493Y-86718631D01*
X112275690Y-86727908D01*
X112284786Y-86736610D01*
X112296850Y-86747057D01*
X112309077Y-86756111D01*
X112321465Y-86763772D01*
X112334016Y-86770040D01*
X112346729Y-86774916D01*
X112359604Y-86778398D01*
X112372642Y-86780488D01*
X112385842Y-86781184D01*
X112388086Y-86781169D01*
X112401238Y-86780439D01*
X112413853Y-86778614D01*
X112425931Y-86775695D01*
X112437473Y-86771681D01*
X112450261Y-86765614D01*
X112453774Y-86763596D01*
X112463885Y-86756683D01*
X112473352Y-86748483D01*
X112482174Y-86738995D01*
X112490353Y-86728219D01*
X112497888Y-86716154D01*
X112503675Y-86705007D01*
X112509015Y-86692935D01*
X112513907Y-86679938D01*
X112518353Y-86666018D01*
X112521587Y-86654216D01*
X112524535Y-86641823D01*
X112527197Y-86628838D01*
X112527798Y-86625496D01*
X112530012Y-86611700D01*
X112531920Y-86597217D01*
X112533523Y-86582047D01*
X112534820Y-86566191D01*
X112535593Y-86553847D01*
X112536194Y-86541118D01*
X112536623Y-86528002D01*
X112536881Y-86514499D01*
X112536967Y-86500610D01*
X112536833Y-86487507D01*
X112536430Y-86474646D01*
X112535759Y-86462026D01*
X112534820Y-86449648D01*
X112533150Y-86433520D01*
X112531004Y-86417820D01*
X112528380Y-86402550D01*
X112525279Y-86387710D01*
X112521702Y-86373299D01*
X112517604Y-86359374D01*
X112513096Y-86345993D01*
X112508178Y-86333156D01*
X112502849Y-86320863D01*
X112497110Y-86309113D01*
X112490961Y-86297908D01*
X112484402Y-86287246D01*
X112477433Y-86277128D01*
X112473763Y-86272275D01*
X112464203Y-86260759D01*
X112454091Y-86250123D01*
X112443428Y-86240366D01*
X112432213Y-86231489D01*
X112420447Y-86223491D01*
X112408129Y-86216372D01*
X112397891Y-86211364D01*
X112384639Y-86206042D01*
X112370879Y-86201763D01*
X112356613Y-86198528D01*
X112341840Y-86196337D01*
X112329656Y-86195335D01*
X112317148Y-86195001D01*
X112312533Y-86195026D01*
X112298716Y-86195402D01*
X112284941Y-86196228D01*
X112271210Y-86197506D01*
X112257521Y-86199234D01*
X112243875Y-86201413D01*
X112234969Y-86202996D01*
X112222272Y-86205587D01*
X112208462Y-86208934D01*
X112195733Y-86212633D01*
X112182509Y-86217288D01*
X112182509Y-86614183D01*
X111972766Y-86614183D01*
X111972766Y-85726055D01*
X112182509Y-85726055D01*
X112182509Y-86053951D01*
G37*
G36*
X111375133Y-86038718D02*
G01*
X111387529Y-86038978D01*
X111399765Y-86039498D01*
X111417819Y-86040766D01*
X111435514Y-86042618D01*
X111452849Y-86045055D01*
X111469825Y-86048078D01*
X111486441Y-86051685D01*
X111502698Y-86055877D01*
X111518595Y-86060655D01*
X111534132Y-86066017D01*
X111549310Y-86071964D01*
X111559176Y-86076231D01*
X111573622Y-86083034D01*
X111587644Y-86090320D01*
X111601243Y-86098089D01*
X111614417Y-86106342D01*
X111627167Y-86115077D01*
X111639494Y-86124295D01*
X111651396Y-86133996D01*
X111662874Y-86144180D01*
X111673929Y-86154847D01*
X111684559Y-86165997D01*
X111691367Y-86173653D01*
X111701202Y-86185507D01*
X111710586Y-86197806D01*
X111719520Y-86210551D01*
X111728003Y-86223742D01*
X111736035Y-86237377D01*
X111743616Y-86251459D01*
X111750747Y-86265985D01*
X111757427Y-86280957D01*
X111763656Y-86296375D01*
X111769434Y-86312238D01*
X111774726Y-86328490D01*
X111779498Y-86345075D01*
X111783749Y-86361992D01*
X111787480Y-86379242D01*
X111790690Y-86396825D01*
X111793380Y-86414741D01*
X111794884Y-86426870D01*
X111796156Y-86439146D01*
X111797197Y-86451571D01*
X111798007Y-86464143D01*
X111798585Y-86476863D01*
X111798932Y-86489731D01*
X111799048Y-86502747D01*
X111798937Y-86516796D01*
X111798604Y-86530625D01*
X111798050Y-86544235D01*
X111797273Y-86557626D01*
X111796275Y-86570797D01*
X111795055Y-86583748D01*
X111793613Y-86596480D01*
X111791950Y-86608993D01*
X111790064Y-86621286D01*
X111787957Y-86633360D01*
X111784380Y-86651059D01*
X111780304Y-86668265D01*
X111775729Y-86684976D01*
X111770655Y-86701195D01*
X111767009Y-86711731D01*
X111761178Y-86727120D01*
X111754913Y-86742010D01*
X111748212Y-86756401D01*
X111741077Y-86770292D01*
X111733508Y-86783685D01*
X111725503Y-86796578D01*
X111717064Y-86808972D01*
X111708190Y-86820868D01*
X111698882Y-86832264D01*
X111689139Y-86843161D01*
X111682408Y-86850149D01*
X111671971Y-86860221D01*
X111661127Y-86869798D01*
X111649875Y-86878882D01*
X111638215Y-86887473D01*
X111626147Y-86895569D01*
X111613672Y-86903172D01*
X111600788Y-86910281D01*
X111587497Y-86916896D01*
X111573797Y-86923018D01*
X111559690Y-86928646D01*
X111550032Y-86932084D01*
X111535251Y-86936825D01*
X111520115Y-86941068D01*
X111504625Y-86944811D01*
X111488781Y-86948055D01*
X111472583Y-86950800D01*
X111456030Y-86953046D01*
X111439123Y-86954793D01*
X111421862Y-86956041D01*
X111404247Y-86956789D01*
X111386278Y-86957039D01*
X111379907Y-86957006D01*
X111367299Y-86956744D01*
X111354868Y-86956219D01*
X111336551Y-86954940D01*
X111318632Y-86953071D01*
X111301110Y-86950611D01*
X111283985Y-86947561D01*
X111267257Y-86943920D01*
X111250926Y-86939690D01*
X111234993Y-86934869D01*
X111219456Y-86929457D01*
X111204317Y-86923456D01*
X111194416Y-86919112D01*
X111179931Y-86912194D01*
X111165887Y-86904794D01*
X111152282Y-86896910D01*
X111139118Y-86888544D01*
X111126393Y-86879694D01*
X111114109Y-86870361D01*
X111102265Y-86860546D01*
X111090861Y-86850247D01*
X111079897Y-86839465D01*
X111069373Y-86828201D01*
X111062605Y-86820397D01*
X111052833Y-86808332D01*
X111043517Y-86795839D01*
X111034658Y-86782916D01*
X111026254Y-86769563D01*
X111018307Y-86755782D01*
X111010816Y-86741571D01*
X111003781Y-86726931D01*
X110997203Y-86711861D01*
X110991080Y-86696362D01*
X110985414Y-86680434D01*
X110981865Y-86669603D01*
X110976971Y-86653097D01*
X110972591Y-86636279D01*
X110968727Y-86619151D01*
X110965379Y-86601711D01*
X110962545Y-86583960D01*
X110960227Y-86565897D01*
X110958967Y-86553683D01*
X110957937Y-86541330D01*
X110957135Y-86528839D01*
X110956563Y-86516209D01*
X110956219Y-86503441D01*
X110956151Y-86495725D01*
X111174092Y-86495725D01*
X111174282Y-86510642D01*
X111174855Y-86525321D01*
X111175809Y-86539761D01*
X111177145Y-86553962D01*
X111178862Y-86567925D01*
X111180961Y-86581649D01*
X111183442Y-86595135D01*
X111186304Y-86608382D01*
X111187060Y-86611632D01*
X111190323Y-86624369D01*
X111193967Y-86636686D01*
X111197994Y-86648583D01*
X111202401Y-86660061D01*
X111208448Y-86673817D01*
X111215091Y-86686918D01*
X111222330Y-86699363D01*
X111225365Y-86704106D01*
X111233464Y-86715389D01*
X111242294Y-86725853D01*
X111251854Y-86735496D01*
X111262144Y-86744320D01*
X111273165Y-86752324D01*
X111284917Y-86759508D01*
X111294753Y-86764588D01*
X111307666Y-86769986D01*
X111321265Y-86774325D01*
X111335549Y-86777607D01*
X111350519Y-86779829D01*
X111362989Y-86780845D01*
X111375897Y-86781184D01*
X111387647Y-86780905D01*
X111404681Y-86779440D01*
X111421006Y-86776719D01*
X111436623Y-86772742D01*
X111451532Y-86767510D01*
X111465732Y-86761022D01*
X111479224Y-86753277D01*
X111492007Y-86744278D01*
X111504082Y-86734022D01*
X111515448Y-86722510D01*
X111526107Y-86709743D01*
X111532761Y-86700542D01*
X111541938Y-86685726D01*
X111550149Y-86669691D01*
X111555087Y-86658324D01*
X111559595Y-86646416D01*
X111563673Y-86633967D01*
X111567323Y-86620976D01*
X111570543Y-86607444D01*
X111573333Y-86593370D01*
X111575695Y-86578755D01*
X111577627Y-86563598D01*
X111579129Y-86547900D01*
X111580203Y-86531660D01*
X111580847Y-86514879D01*
X111581061Y-86497557D01*
X111580880Y-86483017D01*
X111580336Y-86468706D01*
X111579430Y-86454624D01*
X111578161Y-86440771D01*
X111576529Y-86427146D01*
X111574535Y-86413751D01*
X111572179Y-86400585D01*
X111569460Y-86387648D01*
X111566354Y-86374954D01*
X111562839Y-86362670D01*
X111558913Y-86350797D01*
X111553428Y-86336532D01*
X111547303Y-86322908D01*
X111540536Y-86309925D01*
X111533129Y-86297583D01*
X111529947Y-86292802D01*
X111521533Y-86281423D01*
X111512463Y-86270864D01*
X111502738Y-86261125D01*
X111492356Y-86252206D01*
X111481319Y-86244107D01*
X111469626Y-86236828D01*
X111467186Y-86235457D01*
X111454517Y-86229254D01*
X111441057Y-86224139D01*
X111426807Y-86220112D01*
X111414838Y-86217675D01*
X111402363Y-86215934D01*
X111389383Y-86214889D01*
X111375897Y-86214541D01*
X111363646Y-86214816D01*
X111345980Y-86216262D01*
X111329167Y-86218948D01*
X111313207Y-86222874D01*
X111298101Y-86228040D01*
X111283848Y-86234445D01*
X111270448Y-86242090D01*
X111257902Y-86250974D01*
X111246209Y-86261098D01*
X111235369Y-86272462D01*
X111225383Y-86285066D01*
X111222227Y-86289542D01*
X111213361Y-86303785D01*
X111205397Y-86319251D01*
X111198335Y-86335942D01*
X111194127Y-86347748D01*
X111190320Y-86360099D01*
X111186914Y-86372993D01*
X111183909Y-86386431D01*
X111181304Y-86400413D01*
X111179101Y-86414939D01*
X111177297Y-86430009D01*
X111175895Y-86445622D01*
X111174893Y-86461779D01*
X111174292Y-86478480D01*
X111174092Y-86495725D01*
X110956151Y-86495725D01*
X110956105Y-86490535D01*
X110956132Y-86483634D01*
X110956352Y-86469989D01*
X110956791Y-86456551D01*
X110957449Y-86443320D01*
X110958327Y-86430297D01*
X110959424Y-86417481D01*
X110960741Y-86404873D01*
X110962277Y-86392473D01*
X110964032Y-86380280D01*
X110967077Y-86362379D01*
X110970615Y-86344946D01*
X110974647Y-86327979D01*
X110979173Y-86311479D01*
X110984193Y-86295446D01*
X110987765Y-86284982D01*
X110993494Y-86269689D01*
X110999668Y-86254879D01*
X111006288Y-86240552D01*
X111013353Y-86226707D01*
X111020864Y-86213346D01*
X111028820Y-86200468D01*
X111037221Y-86188073D01*
X111046068Y-86176161D01*
X111055360Y-86164731D01*
X111065098Y-86153785D01*
X111071830Y-86146759D01*
X111082273Y-86136630D01*
X111093129Y-86126995D01*
X111104398Y-86117854D01*
X111116080Y-86109206D01*
X111128176Y-86101052D01*
X111140685Y-86093392D01*
X111153607Y-86086226D01*
X111166942Y-86079554D01*
X111180691Y-86073375D01*
X111194852Y-86067690D01*
X111204477Y-86064177D01*
X111219226Y-86059334D01*
X111234351Y-86055000D01*
X111249852Y-86051177D01*
X111265728Y-86047863D01*
X111281980Y-86045059D01*
X111298608Y-86042764D01*
X111315611Y-86040980D01*
X111332990Y-86039705D01*
X111350745Y-86038941D01*
X111368875Y-86038686D01*
X111375133Y-86038718D01*
G37*
G36*
X110060955Y-86678297D02*
G01*
X110061247Y-86692240D01*
X110062125Y-86705792D01*
X110063587Y-86718952D01*
X110065635Y-86731720D01*
X110068267Y-86744097D01*
X110071484Y-86756081D01*
X110076684Y-86771451D01*
X110082924Y-86786125D01*
X110090203Y-86800102D01*
X110094233Y-86806830D01*
X110102815Y-86819805D01*
X110112074Y-86832170D01*
X110122011Y-86843924D01*
X110132625Y-86855068D01*
X110143916Y-86865601D01*
X110155885Y-86875523D01*
X110168531Y-86884835D01*
X110181855Y-86893536D01*
X110195675Y-86901569D01*
X110209962Y-86909030D01*
X110224717Y-86915918D01*
X110236090Y-86920709D01*
X110247726Y-86925178D01*
X110259624Y-86929324D01*
X110271786Y-86933149D01*
X110284211Y-86936652D01*
X110296899Y-86939832D01*
X110305503Y-86941774D01*
X110318467Y-86944502D01*
X110331485Y-86946962D01*
X110344556Y-86949153D01*
X110357681Y-86951076D01*
X110370860Y-86952731D01*
X110384092Y-86954117D01*
X110397379Y-86955235D01*
X110410718Y-86956085D01*
X110424112Y-86956666D01*
X110437559Y-86956979D01*
X110446553Y-86957039D01*
X110464419Y-86956993D01*
X110481952Y-86956856D01*
X110499152Y-86956628D01*
X110516019Y-86956309D01*
X110532554Y-86955899D01*
X110548756Y-86955397D01*
X110564625Y-86954804D01*
X110580162Y-86954119D01*
X110595366Y-86953344D01*
X110610237Y-86952477D01*
X110619966Y-86951849D01*
X110634373Y-86950893D01*
X110648631Y-86949856D01*
X110662738Y-86948739D01*
X110676695Y-86947541D01*
X110690502Y-86946263D01*
X110704158Y-86944904D01*
X110717664Y-86943465D01*
X110731020Y-86941945D01*
X110744225Y-86940345D01*
X110757281Y-86938665D01*
X110765901Y-86937500D01*
X110765901Y-86742105D01*
X110750791Y-86747739D01*
X110735687Y-86753078D01*
X110720587Y-86758122D01*
X110705494Y-86762871D01*
X110690405Y-86767324D01*
X110675322Y-86771482D01*
X110660245Y-86775345D01*
X110645172Y-86778913D01*
X110630105Y-86782186D01*
X110615044Y-86785164D01*
X110605006Y-86786985D01*
X110590028Y-86789440D01*
X110575207Y-86791654D01*
X110560540Y-86793626D01*
X110546030Y-86795357D01*
X110531675Y-86796846D01*
X110517476Y-86798094D01*
X110503432Y-86799100D01*
X110489544Y-86799865D01*
X110475811Y-86800388D01*
X110462235Y-86800670D01*
X110453270Y-86800724D01*
X110438182Y-86800479D01*
X110423828Y-86799747D01*
X110410211Y-86798526D01*
X110397328Y-86796817D01*
X110385180Y-86794619D01*
X110370128Y-86790929D01*
X110356382Y-86786371D01*
X110343943Y-86780945D01*
X110332811Y-86774650D01*
X110330233Y-86772941D01*
X110318447Y-86763753D01*
X110308659Y-86753746D01*
X110300868Y-86742919D01*
X110295075Y-86731272D01*
X110291280Y-86718805D01*
X110289482Y-86705518D01*
X110289322Y-86699973D01*
X110290332Y-86686727D01*
X110293362Y-86674274D01*
X110297870Y-86663642D01*
X110304704Y-86653487D01*
X110313403Y-86644603D01*
X110323164Y-86636908D01*
X110330233Y-86632196D01*
X110341453Y-86625488D01*
X110352558Y-86619692D01*
X110365037Y-86613853D01*
X110376486Y-86608955D01*
X110388889Y-86604026D01*
X110396789Y-86601055D01*
X110410802Y-86595909D01*
X110422957Y-86591663D01*
X110435951Y-86587303D01*
X110449785Y-86582829D01*
X110464459Y-86578239D01*
X110479972Y-86573536D01*
X110492158Y-86569933D01*
X110504816Y-86566266D01*
X110509141Y-86565029D01*
X110521080Y-86561554D01*
X110536564Y-86556796D01*
X110551553Y-86551894D01*
X110566045Y-86546850D01*
X110580041Y-86541662D01*
X110593541Y-86536331D01*
X110606545Y-86530857D01*
X110619053Y-86525240D01*
X110622103Y-86523813D01*
X110633976Y-86517960D01*
X110645325Y-86511849D01*
X110656149Y-86505481D01*
X110666448Y-86498855D01*
X110678584Y-86490210D01*
X110689901Y-86481163D01*
X110700397Y-86471713D01*
X110702398Y-86469774D01*
X110711932Y-86459797D01*
X110720692Y-86449327D01*
X110728676Y-86438366D01*
X110735886Y-86426913D01*
X110742320Y-86414967D01*
X110747979Y-86402530D01*
X110750025Y-86397418D01*
X110754599Y-86384195D01*
X110758397Y-86370286D01*
X110761420Y-86355692D01*
X110763281Y-86343522D01*
X110764645Y-86330914D01*
X110765513Y-86317867D01*
X110765885Y-86304382D01*
X110765901Y-86300942D01*
X110765529Y-86287604D01*
X110764412Y-86274456D01*
X110762552Y-86261500D01*
X110759947Y-86248735D01*
X110756599Y-86236160D01*
X110752506Y-86223776D01*
X110747668Y-86211583D01*
X110742087Y-86199581D01*
X110735690Y-86187860D01*
X110728558Y-86176511D01*
X110720692Y-86165535D01*
X110712091Y-86154930D01*
X110702755Y-86144698D01*
X110692685Y-86134837D01*
X110681880Y-86125349D01*
X110670341Y-86116233D01*
X110657995Y-86107465D01*
X110644924Y-86099174D01*
X110631128Y-86091360D01*
X110616607Y-86084023D01*
X110605241Y-86078834D01*
X110593466Y-86073913D01*
X110581284Y-86069260D01*
X110568694Y-86064875D01*
X110555696Y-86060759D01*
X110551272Y-86059446D01*
X110537720Y-86055736D01*
X110523738Y-86052391D01*
X110509327Y-86049411D01*
X110494486Y-86046795D01*
X110479216Y-86044545D01*
X110463517Y-86042660D01*
X110447388Y-86041139D01*
X110430830Y-86039983D01*
X110413843Y-86039193D01*
X110396426Y-86038767D01*
X110384577Y-86038686D01*
X110369287Y-86038739D01*
X110354330Y-86038900D01*
X110339706Y-86039169D01*
X110325415Y-86039544D01*
X110311456Y-86040027D01*
X110297830Y-86040618D01*
X110284537Y-86041315D01*
X110271576Y-86042120D01*
X110258948Y-86043033D01*
X110246653Y-86044052D01*
X110238642Y-86044792D01*
X110222995Y-86046337D01*
X110207806Y-86047921D01*
X110193075Y-86049543D01*
X110178802Y-86051203D01*
X110164987Y-86052902D01*
X110151630Y-86054638D01*
X110138731Y-86056413D01*
X110126290Y-86058225D01*
X110126290Y-86234080D01*
X110140234Y-86230183D01*
X110154018Y-86226506D01*
X110167640Y-86223049D01*
X110181101Y-86219812D01*
X110194402Y-86216795D01*
X110207541Y-86213998D01*
X110220520Y-86211421D01*
X110233337Y-86209064D01*
X110245993Y-86206927D01*
X110258489Y-86205011D01*
X110266730Y-86203855D01*
X110279026Y-86202273D01*
X110291302Y-86200846D01*
X110303556Y-86199575D01*
X110315788Y-86198460D01*
X110327999Y-86197500D01*
X110340188Y-86196696D01*
X110356408Y-86195866D01*
X110372589Y-86195313D01*
X110388732Y-86195036D01*
X110396789Y-86195001D01*
X110412498Y-86195364D01*
X110427415Y-86196451D01*
X110441540Y-86198264D01*
X110454873Y-86200802D01*
X110467414Y-86204065D01*
X110479164Y-86208053D01*
X110492737Y-86214058D01*
X110500287Y-86218204D01*
X110511545Y-86225895D01*
X110520895Y-86234465D01*
X110529596Y-86245911D01*
X110535549Y-86258622D01*
X110538755Y-86272601D01*
X110539366Y-86282623D01*
X110538464Y-86295762D01*
X110535758Y-86307890D01*
X110531733Y-86318039D01*
X110524544Y-86328671D01*
X110515003Y-86338212D01*
X110505310Y-86345759D01*
X110501203Y-86348569D01*
X110490338Y-86355053D01*
X110477778Y-86361684D01*
X110465663Y-86367483D01*
X110452304Y-86373390D01*
X110440220Y-86378395D01*
X110437699Y-86379405D01*
X110424281Y-86384440D01*
X110412634Y-86388576D01*
X110400177Y-86392808D01*
X110386908Y-86397134D01*
X110372828Y-86401556D01*
X110357937Y-86406074D01*
X110342236Y-86410687D01*
X110329927Y-86414209D01*
X110315943Y-86418300D01*
X110302382Y-86422445D01*
X110289245Y-86426644D01*
X110276533Y-86430896D01*
X110264244Y-86435202D01*
X110252379Y-86439561D01*
X110240938Y-86443975D01*
X110226343Y-86449942D01*
X110212502Y-86456005D01*
X110202616Y-86460615D01*
X110190036Y-86466898D01*
X110178096Y-86473381D01*
X110166795Y-86480064D01*
X110156133Y-86486948D01*
X110146111Y-86494032D01*
X110134481Y-86503169D01*
X110123851Y-86512618D01*
X110119878Y-86516486D01*
X110110484Y-86526434D01*
X110101954Y-86536814D01*
X110094288Y-86547626D01*
X110087488Y-86558871D01*
X110081552Y-86570548D01*
X110076480Y-86582657D01*
X110074694Y-86587622D01*
X110070736Y-86600300D01*
X110067449Y-86613531D01*
X110064832Y-86627313D01*
X110062887Y-86641646D01*
X110061612Y-86656531D01*
X110061076Y-86668836D01*
X110060955Y-86678297D01*
G37*
G36*
X109764505Y-86351317D02*
G01*
X109537970Y-86238660D01*
X109537970Y-85882370D01*
X109784350Y-85882370D01*
X109784350Y-85726055D01*
X109323036Y-85726055D01*
X109323036Y-86131498D01*
X109096501Y-86019146D01*
X109096501Y-86214541D01*
X109323036Y-86327198D01*
X109323036Y-86781184D01*
X109071466Y-86781184D01*
X109071466Y-86937500D01*
X109814270Y-86937500D01*
X109814270Y-86781184D01*
X109537970Y-86781184D01*
X109537970Y-86434054D01*
X109764505Y-86546711D01*
X109764505Y-86351317D01*
G37*
G36*
X108512201Y-86038730D02*
G01*
X108528671Y-86038962D01*
X108545027Y-86039392D01*
X108561271Y-86040021D01*
X108577403Y-86040848D01*
X108593421Y-86041874D01*
X108609327Y-86043098D01*
X108625120Y-86044521D01*
X108640801Y-86046143D01*
X108656369Y-86047963D01*
X108671824Y-86049982D01*
X108681976Y-86051379D01*
X108696923Y-86053558D01*
X108711532Y-86055840D01*
X108725803Y-86058224D01*
X108739736Y-86060709D01*
X108753331Y-86063297D01*
X108766587Y-86065987D01*
X108779506Y-86068778D01*
X108792086Y-86071672D01*
X108804328Y-86074667D01*
X108816232Y-86077765D01*
X108816232Y-86253620D01*
X108807399Y-86250196D01*
X108794081Y-86245243D01*
X108780684Y-86240511D01*
X108767205Y-86235998D01*
X108753646Y-86231706D01*
X108740007Y-86227633D01*
X108726287Y-86223781D01*
X108712487Y-86220149D01*
X108698606Y-86216736D01*
X108684644Y-86213544D01*
X108670602Y-86210572D01*
X108661206Y-86208686D01*
X108647080Y-86206086D01*
X108632917Y-86203760D01*
X108618716Y-86201707D01*
X108604477Y-86199928D01*
X108590201Y-86198422D01*
X108575887Y-86197191D01*
X108561535Y-86196233D01*
X108547147Y-86195549D01*
X108532720Y-86195138D01*
X108518256Y-86195001D01*
X108503371Y-86195247D01*
X108489246Y-86195985D01*
X108475882Y-86197215D01*
X108463278Y-86198937D01*
X108449156Y-86201652D01*
X108436129Y-86205076D01*
X108425940Y-86208433D01*
X108414520Y-86213013D01*
X108402309Y-86219115D01*
X108391295Y-86226036D01*
X108381480Y-86233775D01*
X108380175Y-86234947D01*
X108370548Y-86244903D01*
X108362372Y-86255889D01*
X108355646Y-86267905D01*
X108350950Y-86279265D01*
X108348731Y-86286006D01*
X108345561Y-86298284D01*
X108343297Y-86311175D01*
X108341938Y-86324680D01*
X108341485Y-86338799D01*
X108341485Y-86390396D01*
X108455669Y-86390396D01*
X108462397Y-86390417D01*
X108475689Y-86390589D01*
X108488765Y-86390932D01*
X108501623Y-86391447D01*
X108514265Y-86392134D01*
X108526689Y-86392993D01*
X108544919Y-86394603D01*
X108562660Y-86396599D01*
X108579913Y-86398982D01*
X108596678Y-86401751D01*
X108612954Y-86404907D01*
X108628742Y-86408449D01*
X108644041Y-86412377D01*
X108653974Y-86415190D01*
X108668485Y-86419649D01*
X108682528Y-86424399D01*
X108696105Y-86429438D01*
X108709215Y-86434767D01*
X108721858Y-86440386D01*
X108734034Y-86446295D01*
X108745743Y-86452493D01*
X108756986Y-86458981D01*
X108767761Y-86465760D01*
X108778069Y-86472827D01*
X108791002Y-86482683D01*
X108803085Y-86493016D01*
X108814319Y-86503825D01*
X108824704Y-86515112D01*
X108834240Y-86526876D01*
X108842927Y-86539117D01*
X108850765Y-86551834D01*
X108857754Y-86565029D01*
X108863907Y-86578539D01*
X108869241Y-86592354D01*
X108873753Y-86606474D01*
X108877446Y-86620900D01*
X108880317Y-86635631D01*
X108882369Y-86650667D01*
X108883599Y-86666008D01*
X108884010Y-86681655D01*
X108883738Y-86696834D01*
X108882922Y-86711689D01*
X108881562Y-86726220D01*
X108879659Y-86740426D01*
X108877212Y-86754308D01*
X108874221Y-86767865D01*
X108870686Y-86781098D01*
X108866607Y-86794007D01*
X108861923Y-86806448D01*
X108856723Y-86818431D01*
X108851008Y-86829956D01*
X108844778Y-86841024D01*
X108838033Y-86851633D01*
X108830772Y-86861784D01*
X108822997Y-86871478D01*
X108814706Y-86880713D01*
X108805828Y-86889471D01*
X108796445Y-86897734D01*
X108786556Y-86905500D01*
X108776161Y-86912770D01*
X108765261Y-86919544D01*
X108753855Y-86925822D01*
X108741943Y-86931603D01*
X108729526Y-86936889D01*
X108726342Y-86938129D01*
X108713286Y-86942694D01*
X108699714Y-86946629D01*
X108685627Y-86949935D01*
X108671025Y-86952611D01*
X108655908Y-86954658D01*
X108640275Y-86956075D01*
X108624128Y-86956862D01*
X108611679Y-86957039D01*
X108602303Y-86956950D01*
X108590020Y-86956557D01*
X108575014Y-86955622D01*
X108560396Y-86954195D01*
X108546165Y-86952277D01*
X108532322Y-86949866D01*
X108518867Y-86946964D01*
X108513550Y-86945709D01*
X108500488Y-86942281D01*
X108487754Y-86938434D01*
X108475348Y-86934171D01*
X108463270Y-86929490D01*
X108451520Y-86924392D01*
X108440098Y-86918876D01*
X108428989Y-86913002D01*
X108418178Y-86906831D01*
X108407666Y-86900361D01*
X108397451Y-86893593D01*
X108385587Y-86885078D01*
X108374153Y-86876133D01*
X108370385Y-86873023D01*
X108361061Y-86865081D01*
X108351870Y-86856899D01*
X108342814Y-86848480D01*
X108333892Y-86839821D01*
X108325104Y-86830925D01*
X108316450Y-86821789D01*
X108311260Y-86937500D01*
X108132047Y-86937500D01*
X108132047Y-86546711D01*
X108341485Y-86546711D01*
X108341485Y-86670664D01*
X108352050Y-86682147D01*
X108362447Y-86693125D01*
X108372679Y-86703599D01*
X108382744Y-86713569D01*
X108392643Y-86723034D01*
X108402375Y-86731994D01*
X108411942Y-86740451D01*
X108421341Y-86748402D01*
X108433615Y-86758220D01*
X108445594Y-86767140D01*
X108457295Y-86775011D01*
X108468892Y-86781833D01*
X108480384Y-86787605D01*
X108494601Y-86793344D01*
X108508654Y-86797444D01*
X108522544Y-86799904D01*
X108536269Y-86800724D01*
X108539947Y-86800695D01*
X108554174Y-86800000D01*
X108567629Y-86798381D01*
X108580311Y-86795836D01*
X108592220Y-86792366D01*
X108606020Y-86786726D01*
X108618612Y-86779641D01*
X108629997Y-86771109D01*
X108639848Y-86761199D01*
X108648029Y-86749976D01*
X108654541Y-86737442D01*
X108659383Y-86723596D01*
X108662054Y-86711575D01*
X108663657Y-86698714D01*
X108664191Y-86685013D01*
X108663523Y-86671160D01*
X108661520Y-86657689D01*
X108658180Y-86644599D01*
X108653505Y-86631891D01*
X108652121Y-86628785D01*
X108645605Y-86616840D01*
X108637524Y-86605658D01*
X108629169Y-86596500D01*
X108619617Y-86587927D01*
X108608808Y-86579906D01*
X108596684Y-86572675D01*
X108585246Y-86567104D01*
X108572842Y-86562113D01*
X108559472Y-86557702D01*
X108549984Y-86555126D01*
X108537412Y-86552389D01*
X108524051Y-86550189D01*
X108509899Y-86548525D01*
X108494958Y-86547398D01*
X108482435Y-86546883D01*
X108469407Y-86546711D01*
X108341485Y-86546711D01*
X108132047Y-86546711D01*
X108132047Y-86336662D01*
X108132068Y-86332024D01*
X108132386Y-86318330D01*
X108133084Y-86304962D01*
X108134164Y-86291922D01*
X108135624Y-86279209D01*
X108137466Y-86266824D01*
X108140514Y-86250819D01*
X108144240Y-86235397D01*
X108148643Y-86220556D01*
X108153724Y-86206297D01*
X108159438Y-86192621D01*
X108165898Y-86179526D01*
X108173101Y-86167013D01*
X108181048Y-86155083D01*
X108189740Y-86143734D01*
X108199176Y-86132967D01*
X108209356Y-86122783D01*
X108220280Y-86113180D01*
X108231886Y-86104159D01*
X108244265Y-86095720D01*
X108257417Y-86087864D01*
X108271342Y-86080589D01*
X108286039Y-86073896D01*
X108297570Y-86069258D01*
X108309535Y-86064948D01*
X108321934Y-86060965D01*
X108334769Y-86057309D01*
X108343540Y-86055054D01*
X108357104Y-86051944D01*
X108371157Y-86049162D01*
X108385698Y-86046706D01*
X108400727Y-86044578D01*
X108416245Y-86042778D01*
X108432251Y-86041305D01*
X108448745Y-86040159D01*
X108465728Y-86039341D01*
X108483199Y-86038850D01*
X108501159Y-86038686D01*
X108512201Y-86038730D01*
G37*
G36*
X107181026Y-86937500D02*
G01*
X107413973Y-86937500D01*
X107506480Y-86644103D01*
X107534873Y-86542131D01*
X107563266Y-86646851D01*
X107652415Y-86937500D01*
X107885972Y-86937500D01*
X108009620Y-86058225D01*
X107810562Y-86058225D01*
X107747975Y-86579073D01*
X107733321Y-86699668D01*
X107698211Y-86572051D01*
X107610589Y-86292698D01*
X107450915Y-86292698D01*
X107357187Y-86570219D01*
X107316887Y-86701500D01*
X107300705Y-86560144D01*
X107248193Y-86058225D01*
X107058294Y-86058225D01*
X107181026Y-86937500D01*
G37*
G36*
X105983626Y-86937500D02*
G01*
X105641075Y-86937500D01*
X105627608Y-86937417D01*
X105614340Y-86937169D01*
X105601271Y-86936756D01*
X105588401Y-86936178D01*
X105575730Y-86935435D01*
X105563259Y-86934526D01*
X105538913Y-86932214D01*
X105515364Y-86929241D01*
X105492612Y-86925607D01*
X105470656Y-86921312D01*
X105449497Y-86916357D01*
X105429135Y-86910741D01*
X105409569Y-86904465D01*
X105390800Y-86897527D01*
X105372828Y-86889929D01*
X105355652Y-86881671D01*
X105339273Y-86872751D01*
X105323691Y-86863171D01*
X105308905Y-86852930D01*
X105294967Y-86841994D01*
X105281929Y-86830405D01*
X105269789Y-86818162D01*
X105258549Y-86805265D01*
X105248208Y-86791715D01*
X105238766Y-86777511D01*
X105230224Y-86762654D01*
X105222580Y-86747143D01*
X105215836Y-86730978D01*
X105209991Y-86714160D01*
X105205046Y-86696689D01*
X105200999Y-86678564D01*
X105197852Y-86659785D01*
X105195604Y-86640353D01*
X105194255Y-86620268D01*
X105193806Y-86599528D01*
X105193807Y-86599223D01*
X105421257Y-86599223D01*
X105421270Y-86601337D01*
X105421900Y-86613860D01*
X105423474Y-86626103D01*
X105425993Y-86638067D01*
X105430125Y-86651672D01*
X105434690Y-86663032D01*
X105440064Y-86673972D01*
X105447473Y-86686031D01*
X105456109Y-86697331D01*
X105464488Y-86706411D01*
X105473769Y-86714933D01*
X105478687Y-86718972D01*
X105489185Y-86726549D01*
X105500562Y-86733462D01*
X105512819Y-86739708D01*
X105525957Y-86745290D01*
X105537577Y-86749433D01*
X105544843Y-86751615D01*
X105557441Y-86754775D01*
X105570651Y-86757339D01*
X105584471Y-86759307D01*
X105598903Y-86760679D01*
X105613946Y-86761454D01*
X105626421Y-86761645D01*
X105774188Y-86761645D01*
X105774188Y-86449014D01*
X105642907Y-86449014D01*
X105629053Y-86449170D01*
X105615654Y-86449639D01*
X105602711Y-86450420D01*
X105590223Y-86451513D01*
X105572346Y-86453740D01*
X105555494Y-86456669D01*
X105539666Y-86460301D01*
X105524864Y-86464637D01*
X105511087Y-86469675D01*
X105498335Y-86475417D01*
X105486608Y-86481861D01*
X105475906Y-86489009D01*
X105469288Y-86494090D01*
X105457334Y-86504976D01*
X105447087Y-86516826D01*
X105438548Y-86529639D01*
X105431717Y-86543416D01*
X105426594Y-86558156D01*
X105423178Y-86573860D01*
X105421737Y-86586271D01*
X105421257Y-86599223D01*
X105193807Y-86599223D01*
X105193822Y-86596218D01*
X105194216Y-86583181D01*
X105195134Y-86570468D01*
X105196577Y-86558079D01*
X105198545Y-86546015D01*
X105201742Y-86531391D01*
X105205760Y-86517274D01*
X105210597Y-86503663D01*
X105212743Y-86498327D01*
X105218513Y-86485385D01*
X105224865Y-86473009D01*
X105231799Y-86461199D01*
X105239314Y-86449956D01*
X105247410Y-86439279D01*
X105256087Y-86429169D01*
X105259712Y-86425247D01*
X105269096Y-86415848D01*
X105278942Y-86407030D01*
X105289251Y-86398793D01*
X105300021Y-86391139D01*
X105311254Y-86384065D01*
X105322949Y-86377573D01*
X105327735Y-86375143D01*
X105339835Y-86369519D01*
X105352129Y-86364535D01*
X105364617Y-86360193D01*
X105377299Y-86356491D01*
X105390174Y-86353431D01*
X105403244Y-86351011D01*
X105398021Y-86349135D01*
X105385352Y-86344059D01*
X105373233Y-86338432D01*
X105361667Y-86332253D01*
X105350652Y-86325522D01*
X105340188Y-86318240D01*
X105330276Y-86310406D01*
X105326462Y-86307132D01*
X105317282Y-86298687D01*
X105308609Y-86289870D01*
X105300443Y-86280679D01*
X105292784Y-86271116D01*
X105285631Y-86261180D01*
X105278985Y-86250872D01*
X105276433Y-86246649D01*
X105270428Y-86235872D01*
X105264960Y-86224783D01*
X105260029Y-86213380D01*
X105255634Y-86201664D01*
X105251776Y-86189635D01*
X105248455Y-86177294D01*
X105247235Y-86172249D01*
X105244529Y-86159575D01*
X105242315Y-86146811D01*
X105240960Y-86136688D01*
X105458198Y-86136688D01*
X105458356Y-86144712D01*
X105459389Y-86158432D01*
X105461386Y-86171743D01*
X105464348Y-86184645D01*
X105468273Y-86197138D01*
X105470921Y-86203989D01*
X105476541Y-86215517D01*
X105483418Y-86226462D01*
X105491551Y-86236822D01*
X105500941Y-86246598D01*
X105502366Y-86247943D01*
X105513058Y-86256844D01*
X105523222Y-86263753D01*
X105534310Y-86269996D01*
X105546320Y-86275574D01*
X105559254Y-86280486D01*
X105566036Y-86282669D01*
X105577973Y-86285829D01*
X105590699Y-86288393D01*
X105604216Y-86290361D01*
X105618522Y-86291732D01*
X105633619Y-86292508D01*
X105646265Y-86292698D01*
X105774188Y-86292698D01*
X105774188Y-85999607D01*
X105646265Y-85999607D01*
X105643113Y-85999617D01*
X105627797Y-85999950D01*
X105613226Y-86000761D01*
X105599401Y-86002049D01*
X105586322Y-86003814D01*
X105573987Y-86006057D01*
X105560170Y-86009377D01*
X105547225Y-86013319D01*
X105535183Y-86017820D01*
X105524041Y-86022879D01*
X105512183Y-86029487D01*
X105501552Y-86036854D01*
X105500133Y-86037968D01*
X105490904Y-86046204D01*
X105481859Y-86056546D01*
X105474418Y-86067880D01*
X105468579Y-86080207D01*
X105466724Y-86085009D01*
X105462669Y-86098314D01*
X105460185Y-86110550D01*
X105458695Y-86123342D01*
X105458198Y-86136688D01*
X105240960Y-86136688D01*
X105240594Y-86133958D01*
X105239364Y-86121015D01*
X105238626Y-86107983D01*
X105238380Y-86094862D01*
X105238754Y-86078074D01*
X105239878Y-86061827D01*
X105241750Y-86046122D01*
X105244371Y-86030958D01*
X105247742Y-86016335D01*
X105251861Y-86002255D01*
X105256729Y-85988715D01*
X105262346Y-85975717D01*
X105268712Y-85963260D01*
X105275827Y-85951345D01*
X105283691Y-85939971D01*
X105292304Y-85929139D01*
X105301666Y-85918848D01*
X105311777Y-85909099D01*
X105322637Y-85899891D01*
X105334245Y-85891224D01*
X105346565Y-85883054D01*
X105359633Y-85875410D01*
X105373450Y-85868294D01*
X105388017Y-85861705D01*
X105403332Y-85855643D01*
X105419396Y-85850108D01*
X105436209Y-85845101D01*
X105453772Y-85840620D01*
X105472083Y-85836667D01*
X105491143Y-85833240D01*
X105510952Y-85830341D01*
X105531509Y-85827969D01*
X105552816Y-85826124D01*
X105574872Y-85824806D01*
X105597677Y-85824016D01*
X105621231Y-85823752D01*
X105983626Y-85823752D01*
X105983626Y-86937500D01*
G37*
G36*
X104647464Y-86038718D02*
G01*
X104659860Y-86038978D01*
X104672096Y-86039498D01*
X104690150Y-86040766D01*
X104707845Y-86042618D01*
X104725180Y-86045055D01*
X104742156Y-86048078D01*
X104758772Y-86051685D01*
X104775028Y-86055877D01*
X104790925Y-86060655D01*
X104806463Y-86066017D01*
X104821641Y-86071964D01*
X104831507Y-86076231D01*
X104845953Y-86083034D01*
X104859975Y-86090320D01*
X104873573Y-86098089D01*
X104886748Y-86106342D01*
X104899498Y-86115077D01*
X104911824Y-86124295D01*
X104923727Y-86133996D01*
X104935205Y-86144180D01*
X104946260Y-86154847D01*
X104956890Y-86165997D01*
X104963697Y-86173653D01*
X104973533Y-86185507D01*
X104982917Y-86197806D01*
X104991851Y-86210551D01*
X105000334Y-86223742D01*
X105008366Y-86237377D01*
X105015947Y-86251459D01*
X105023078Y-86265985D01*
X105029757Y-86280957D01*
X105035986Y-86296375D01*
X105041764Y-86312238D01*
X105047057Y-86328490D01*
X105051829Y-86345075D01*
X105056080Y-86361992D01*
X105059811Y-86379242D01*
X105063021Y-86396825D01*
X105065710Y-86414741D01*
X105067214Y-86426870D01*
X105068487Y-86439146D01*
X105069528Y-86451571D01*
X105070338Y-86464143D01*
X105070916Y-86476863D01*
X105071263Y-86489731D01*
X105071379Y-86502747D01*
X105071268Y-86516796D01*
X105070935Y-86530625D01*
X105070381Y-86544235D01*
X105069604Y-86557626D01*
X105068606Y-86570797D01*
X105067386Y-86583748D01*
X105065944Y-86596480D01*
X105064281Y-86608993D01*
X105062395Y-86621286D01*
X105060288Y-86633360D01*
X105056711Y-86651059D01*
X105052635Y-86668265D01*
X105048060Y-86684976D01*
X105042986Y-86701195D01*
X105039340Y-86711731D01*
X105033509Y-86727120D01*
X105027243Y-86742010D01*
X105020543Y-86756401D01*
X105013408Y-86770292D01*
X105005838Y-86783685D01*
X104997834Y-86796578D01*
X104989395Y-86808972D01*
X104980521Y-86820868D01*
X104971213Y-86832264D01*
X104961470Y-86843161D01*
X104954739Y-86850149D01*
X104944302Y-86860221D01*
X104933458Y-86869798D01*
X104922206Y-86878882D01*
X104910546Y-86887473D01*
X104898478Y-86895569D01*
X104886002Y-86903172D01*
X104873119Y-86910281D01*
X104859827Y-86916896D01*
X104846128Y-86923018D01*
X104832021Y-86928646D01*
X104822363Y-86932084D01*
X104807582Y-86936825D01*
X104792446Y-86941068D01*
X104776956Y-86944811D01*
X104761112Y-86948055D01*
X104744913Y-86950800D01*
X104728361Y-86953046D01*
X104711454Y-86954793D01*
X104694193Y-86956041D01*
X104676578Y-86956789D01*
X104658608Y-86957039D01*
X104652238Y-86957006D01*
X104639630Y-86956744D01*
X104627199Y-86956219D01*
X104608882Y-86954940D01*
X104590963Y-86953071D01*
X104573441Y-86950611D01*
X104556316Y-86947561D01*
X104539588Y-86943920D01*
X104523257Y-86939690D01*
X104507323Y-86934869D01*
X104491787Y-86929457D01*
X104476648Y-86923456D01*
X104466747Y-86919112D01*
X104452262Y-86912194D01*
X104438217Y-86904794D01*
X104424613Y-86896910D01*
X104411449Y-86888544D01*
X104398724Y-86879694D01*
X104386440Y-86870361D01*
X104374596Y-86860546D01*
X104363191Y-86850247D01*
X104352227Y-86839465D01*
X104341703Y-86828201D01*
X104334935Y-86820397D01*
X104325164Y-86808332D01*
X104315848Y-86795839D01*
X104306988Y-86782916D01*
X104298585Y-86769563D01*
X104290638Y-86755782D01*
X104283147Y-86741571D01*
X104276112Y-86726931D01*
X104269534Y-86711861D01*
X104263411Y-86696362D01*
X104257745Y-86680434D01*
X104254196Y-86669603D01*
X104249301Y-86653097D01*
X104244922Y-86636279D01*
X104241058Y-86619151D01*
X104237709Y-86601711D01*
X104234876Y-86583960D01*
X104232557Y-86565897D01*
X104231298Y-86553683D01*
X104230268Y-86541330D01*
X104229466Y-86528839D01*
X104228894Y-86516209D01*
X104228550Y-86503441D01*
X104228482Y-86495725D01*
X104446422Y-86495725D01*
X104446613Y-86510642D01*
X104447186Y-86525321D01*
X104448140Y-86539761D01*
X104449475Y-86553962D01*
X104451193Y-86567925D01*
X104453292Y-86581649D01*
X104455772Y-86595135D01*
X104458635Y-86608382D01*
X104459391Y-86611632D01*
X104462654Y-86624369D01*
X104466298Y-86636686D01*
X104470324Y-86648583D01*
X104474732Y-86660061D01*
X104480779Y-86673817D01*
X104487421Y-86686918D01*
X104494660Y-86699363D01*
X104497696Y-86704106D01*
X104505795Y-86715389D01*
X104514624Y-86725853D01*
X104524185Y-86735496D01*
X104534475Y-86744320D01*
X104545496Y-86752324D01*
X104557248Y-86759508D01*
X104567084Y-86764588D01*
X104579997Y-86769986D01*
X104593595Y-86774325D01*
X104607880Y-86777607D01*
X104622850Y-86779829D01*
X104635319Y-86780845D01*
X104648228Y-86781184D01*
X104659978Y-86780905D01*
X104677011Y-86779440D01*
X104693337Y-86776719D01*
X104708954Y-86772742D01*
X104723862Y-86767510D01*
X104738062Y-86761022D01*
X104751554Y-86753277D01*
X104764338Y-86744278D01*
X104776413Y-86734022D01*
X104787779Y-86722510D01*
X104798437Y-86709743D01*
X104805092Y-86700542D01*
X104814269Y-86685726D01*
X104822480Y-86669691D01*
X104827417Y-86658324D01*
X104831925Y-86646416D01*
X104836004Y-86633967D01*
X104839653Y-86620976D01*
X104842873Y-86607444D01*
X104845664Y-86593370D01*
X104848025Y-86578755D01*
X104849957Y-86563598D01*
X104851460Y-86547900D01*
X104852533Y-86531660D01*
X104853177Y-86514879D01*
X104853392Y-86497557D01*
X104853211Y-86483017D01*
X104852667Y-86468706D01*
X104851761Y-86454624D01*
X104850492Y-86440771D01*
X104848860Y-86427146D01*
X104846866Y-86413751D01*
X104844510Y-86400585D01*
X104841791Y-86387648D01*
X104838685Y-86374954D01*
X104835169Y-86362670D01*
X104831243Y-86350797D01*
X104825759Y-86336532D01*
X104819633Y-86322908D01*
X104812867Y-86309925D01*
X104805459Y-86297583D01*
X104802278Y-86292802D01*
X104793864Y-86281423D01*
X104784794Y-86270864D01*
X104775069Y-86261125D01*
X104764687Y-86252206D01*
X104753650Y-86244107D01*
X104741956Y-86236828D01*
X104739517Y-86235457D01*
X104726847Y-86229254D01*
X104713387Y-86224139D01*
X104699137Y-86220112D01*
X104687169Y-86217675D01*
X104674694Y-86215934D01*
X104661714Y-86214889D01*
X104648228Y-86214541D01*
X104635977Y-86214816D01*
X104618310Y-86216262D01*
X104601498Y-86218948D01*
X104585538Y-86222874D01*
X104570432Y-86228040D01*
X104556179Y-86234445D01*
X104542779Y-86242090D01*
X104530233Y-86250974D01*
X104518540Y-86261098D01*
X104507700Y-86272462D01*
X104497713Y-86285066D01*
X104494558Y-86289542D01*
X104485692Y-86303785D01*
X104477728Y-86319251D01*
X104470665Y-86335942D01*
X104466458Y-86347748D01*
X104462651Y-86360099D01*
X104459245Y-86372993D01*
X104456240Y-86386431D01*
X104453635Y-86400413D01*
X104451431Y-86414939D01*
X104449628Y-86430009D01*
X104448226Y-86445622D01*
X104447224Y-86461779D01*
X104446623Y-86478480D01*
X104446422Y-86495725D01*
X104228482Y-86495725D01*
X104228436Y-86490535D01*
X104228463Y-86483634D01*
X104228683Y-86469989D01*
X104229121Y-86456551D01*
X104229780Y-86443320D01*
X104230658Y-86430297D01*
X104231755Y-86417481D01*
X104233071Y-86404873D01*
X104234607Y-86392473D01*
X104236363Y-86380280D01*
X104239408Y-86362379D01*
X104242946Y-86344946D01*
X104246978Y-86327979D01*
X104251504Y-86311479D01*
X104256524Y-86295446D01*
X104260095Y-86284982D01*
X104265824Y-86269689D01*
X104271999Y-86254879D01*
X104278618Y-86240552D01*
X104285684Y-86226707D01*
X104293194Y-86213346D01*
X104301150Y-86200468D01*
X104309552Y-86188073D01*
X104318399Y-86176161D01*
X104327691Y-86164731D01*
X104337429Y-86153785D01*
X104344161Y-86146759D01*
X104354604Y-86136630D01*
X104365460Y-86126995D01*
X104376729Y-86117854D01*
X104388411Y-86109206D01*
X104400507Y-86101052D01*
X104413016Y-86093392D01*
X104425938Y-86086226D01*
X104439273Y-86079554D01*
X104453021Y-86073375D01*
X104467183Y-86067690D01*
X104476807Y-86064177D01*
X104491557Y-86059334D01*
X104506682Y-86055000D01*
X104522182Y-86051177D01*
X104538059Y-86047863D01*
X104554311Y-86045059D01*
X104570939Y-86042764D01*
X104587942Y-86040980D01*
X104605321Y-86039705D01*
X104623076Y-86038941D01*
X104641206Y-86038686D01*
X104647464Y-86038718D01*
G37*
G36*
X103491433Y-86390396D02*
G01*
X103491069Y-86376046D01*
X103491123Y-86362382D01*
X103491594Y-86349403D01*
X103492482Y-86337111D01*
X103494100Y-86323265D01*
X103496318Y-86310406D01*
X103498990Y-86298449D01*
X103502787Y-86285530D01*
X103507313Y-86273722D01*
X103513381Y-86261586D01*
X103516773Y-86256062D01*
X103524215Y-86245968D01*
X103533590Y-86236391D01*
X103544029Y-86228698D01*
X103551578Y-86224616D01*
X103563591Y-86219745D01*
X103576619Y-86216469D01*
X103589050Y-86214895D01*
X103598900Y-86214541D01*
X103613388Y-86215539D01*
X103628041Y-86218536D01*
X103639881Y-86222371D01*
X103651826Y-86227485D01*
X103663876Y-86233877D01*
X103676031Y-86241548D01*
X103688291Y-86250497D01*
X103694460Y-86255451D01*
X103703819Y-86263589D01*
X103713350Y-86272660D01*
X103723053Y-86282666D01*
X103732928Y-86293605D01*
X103742974Y-86305478D01*
X103753193Y-86318284D01*
X103763582Y-86332025D01*
X103774144Y-86346699D01*
X103781280Y-86357001D01*
X103788493Y-86367717D01*
X103795782Y-86378849D01*
X103803148Y-86390396D01*
X103803148Y-86937500D01*
X104017776Y-86937500D01*
X104017776Y-86058225D01*
X103827877Y-86058225D01*
X103820245Y-86195001D01*
X103813432Y-86184017D01*
X103806351Y-86173391D01*
X103799002Y-86163123D01*
X103791384Y-86153213D01*
X103783498Y-86143660D01*
X103775344Y-86134465D01*
X103772007Y-86130887D01*
X103763374Y-86122113D01*
X103754458Y-86113726D01*
X103743385Y-86104173D01*
X103731904Y-86095179D01*
X103720015Y-86086743D01*
X103711862Y-86081428D01*
X103701291Y-86075179D01*
X103690378Y-86069407D01*
X103679121Y-86064112D01*
X103667522Y-86059294D01*
X103655579Y-86054953D01*
X103643294Y-86051089D01*
X103638284Y-86049677D01*
X103625496Y-86046510D01*
X103612321Y-86043881D01*
X103598758Y-86041788D01*
X103584808Y-86040231D01*
X103570470Y-86039212D01*
X103555745Y-86038729D01*
X103549746Y-86038686D01*
X103537513Y-86038882D01*
X103521611Y-86039752D01*
X103506176Y-86041319D01*
X103491209Y-86043583D01*
X103476709Y-86046543D01*
X103462677Y-86050199D01*
X103449113Y-86054552D01*
X103436016Y-86059602D01*
X103432815Y-86060973D01*
X103420249Y-86066883D01*
X103408200Y-86073471D01*
X103396665Y-86080737D01*
X103385645Y-86088679D01*
X103375141Y-86097299D01*
X103365152Y-86106597D01*
X103355678Y-86116572D01*
X103346719Y-86127224D01*
X103338299Y-86138563D01*
X103330443Y-86150599D01*
X103323149Y-86163331D01*
X103316418Y-86176759D01*
X103310250Y-86190884D01*
X103304644Y-86205706D01*
X103299602Y-86221224D01*
X103296190Y-86233320D01*
X103295123Y-86237438D01*
X103292146Y-86249988D01*
X103289513Y-86262909D01*
X103287223Y-86276199D01*
X103285277Y-86289860D01*
X103283674Y-86303891D01*
X103282414Y-86318293D01*
X103281499Y-86333064D01*
X103280926Y-86348206D01*
X103280697Y-86363719D01*
X103280812Y-86379601D01*
X103281079Y-86390396D01*
X103491433Y-86390396D01*
G37*
G36*
X102385929Y-86917960D02*
G01*
X102401490Y-86922759D01*
X102413248Y-86926145D01*
X102425082Y-86929349D01*
X102436990Y-86932371D01*
X102448974Y-86935210D01*
X102461033Y-86937866D01*
X102473167Y-86940340D01*
X102485376Y-86942632D01*
X102497660Y-86944741D01*
X102510020Y-86946668D01*
X102514156Y-86947269D01*
X102526575Y-86949015D01*
X102539100Y-86950589D01*
X102551734Y-86951992D01*
X102564474Y-86953223D01*
X102577322Y-86954282D01*
X102590277Y-86955169D01*
X102603339Y-86955884D01*
X102616509Y-86956428D01*
X102629786Y-86956800D01*
X102643171Y-86957001D01*
X102652153Y-86957039D01*
X102665045Y-86956927D01*
X102677770Y-86956591D01*
X102690328Y-86956030D01*
X102702719Y-86955245D01*
X102714943Y-86954236D01*
X102732966Y-86952303D01*
X102750614Y-86949864D01*
X102767886Y-86946922D01*
X102784782Y-86943474D01*
X102801302Y-86939523D01*
X102817447Y-86935067D01*
X102833216Y-86930106D01*
X102838389Y-86928340D01*
X102853627Y-86922658D01*
X102868431Y-86916487D01*
X102882800Y-86909828D01*
X102896735Y-86902681D01*
X102910235Y-86895045D01*
X102923300Y-86886920D01*
X102935930Y-86878308D01*
X102948126Y-86869207D01*
X102959887Y-86859618D01*
X102971214Y-86849540D01*
X102978523Y-86842550D01*
X102989049Y-86831664D01*
X102999102Y-86820300D01*
X103008684Y-86808458D01*
X103017793Y-86796139D01*
X103026429Y-86783342D01*
X103034594Y-86770068D01*
X103042286Y-86756316D01*
X103049506Y-86742086D01*
X103056254Y-86727379D01*
X103062529Y-86712194D01*
X103066450Y-86701805D01*
X103071906Y-86685780D01*
X103076826Y-86669305D01*
X103081209Y-86652378D01*
X103085055Y-86635001D01*
X103088364Y-86617173D01*
X103090272Y-86605037D01*
X103091942Y-86592701D01*
X103093373Y-86580164D01*
X103094566Y-86567427D01*
X103095520Y-86554490D01*
X103096235Y-86541353D01*
X103096712Y-86528015D01*
X103096951Y-86514476D01*
X103096981Y-86507632D01*
X103096852Y-86494355D01*
X103096466Y-86481238D01*
X103095822Y-86468280D01*
X103094920Y-86455482D01*
X103093761Y-86442845D01*
X103092344Y-86430366D01*
X103090670Y-86418048D01*
X103088738Y-86405890D01*
X103085357Y-86387952D01*
X103081396Y-86370373D01*
X103076856Y-86353154D01*
X103071736Y-86336295D01*
X103066037Y-86319795D01*
X103064008Y-86314375D01*
X103057535Y-86298343D01*
X103050595Y-86282762D01*
X103043188Y-86267631D01*
X103035314Y-86252952D01*
X103026973Y-86238723D01*
X103018166Y-86224945D01*
X103008891Y-86211618D01*
X102999150Y-86198741D01*
X102988942Y-86186316D01*
X102978267Y-86174341D01*
X102970890Y-86166608D01*
X102959399Y-86155349D01*
X102947477Y-86144583D01*
X102935127Y-86134311D01*
X102922347Y-86124533D01*
X102909138Y-86115249D01*
X102895499Y-86106458D01*
X102881432Y-86098162D01*
X102866934Y-86090358D01*
X102852008Y-86083049D01*
X102836652Y-86076233D01*
X102826176Y-86071964D01*
X102810096Y-86066017D01*
X102793683Y-86060655D01*
X102776937Y-86055877D01*
X102759859Y-86051685D01*
X102742448Y-86048078D01*
X102724704Y-86045055D01*
X102706627Y-86042618D01*
X102694391Y-86041318D01*
X102682007Y-86040278D01*
X102669475Y-86039498D01*
X102656796Y-86038978D01*
X102643968Y-86038718D01*
X102637499Y-86038686D01*
X102621821Y-86038785D01*
X102606616Y-86039083D01*
X102591882Y-86039579D01*
X102577621Y-86040274D01*
X102563832Y-86041168D01*
X102550516Y-86042260D01*
X102537672Y-86043551D01*
X102525300Y-86045040D01*
X102509539Y-86047334D01*
X102494617Y-86049982D01*
X102480296Y-86052820D01*
X102466338Y-86055840D01*
X102452743Y-86059041D01*
X102439510Y-86062423D01*
X102426639Y-86065987D01*
X102414131Y-86069731D01*
X102401986Y-86073657D01*
X102390203Y-86077765D01*
X102390203Y-86273159D01*
X102403627Y-86266337D01*
X102417337Y-86259916D01*
X102431333Y-86253896D01*
X102445616Y-86248277D01*
X102460184Y-86243058D01*
X102475039Y-86238240D01*
X102490180Y-86233823D01*
X102505608Y-86229806D01*
X102521078Y-86226228D01*
X102536348Y-86223127D01*
X102551418Y-86220504D01*
X102566287Y-86218357D01*
X102580956Y-86216687D01*
X102595424Y-86215495D01*
X102609692Y-86214779D01*
X102623760Y-86214541D01*
X102638152Y-86214865D01*
X102652173Y-86215838D01*
X102665821Y-86217460D01*
X102679096Y-86219731D01*
X102692000Y-86222650D01*
X102704532Y-86226219D01*
X102716692Y-86230436D01*
X102728479Y-86235301D01*
X102739852Y-86240744D01*
X102750766Y-86246693D01*
X102761223Y-86253147D01*
X102773650Y-86261926D01*
X102785361Y-86271495D01*
X102796357Y-86281854D01*
X102806637Y-86293004D01*
X102814341Y-86302487D01*
X102821578Y-86312467D01*
X102828347Y-86322943D01*
X102834649Y-86333914D01*
X102840483Y-86345382D01*
X102845849Y-86357346D01*
X102850749Y-86369807D01*
X102855180Y-86382763D01*
X102859116Y-86396130D01*
X102862527Y-86409820D01*
X102865413Y-86423836D01*
X102867774Y-86438176D01*
X102869611Y-86452840D01*
X102870923Y-86467828D01*
X102871710Y-86483141D01*
X102871972Y-86498778D01*
X102871814Y-86511025D01*
X102871110Y-86526987D01*
X102869844Y-86542529D01*
X102868014Y-86557651D01*
X102865622Y-86572353D01*
X102862667Y-86586635D01*
X102859148Y-86600498D01*
X102855067Y-86613941D01*
X102853959Y-86617236D01*
X102849222Y-86630045D01*
X102844018Y-86642366D01*
X102838346Y-86654202D01*
X102832206Y-86665550D01*
X102825599Y-86676412D01*
X102818525Y-86686788D01*
X102810983Y-86696677D01*
X102802973Y-86706079D01*
X102794454Y-86714900D01*
X102783240Y-86725187D01*
X102771401Y-86734655D01*
X102758935Y-86743303D01*
X102745843Y-86751131D01*
X102734919Y-86756803D01*
X102723594Y-86761950D01*
X102711831Y-86766458D01*
X102699743Y-86770365D01*
X102687330Y-86773671D01*
X102674593Y-86776376D01*
X102661532Y-86778479D01*
X102648146Y-86779982D01*
X102634436Y-86780884D01*
X102620402Y-86781184D01*
X102606472Y-86780917D01*
X102593971Y-86780245D01*
X102581178Y-86779164D01*
X102568092Y-86777674D01*
X102562394Y-86776910D01*
X102549037Y-86774850D01*
X102535680Y-86772410D01*
X102522323Y-86769591D01*
X102508966Y-86766391D01*
X102501333Y-86764392D01*
X102488020Y-86760684D01*
X102474795Y-86756771D01*
X102461657Y-86752653D01*
X102448607Y-86748331D01*
X102441189Y-86745769D01*
X102428422Y-86741006D01*
X102416036Y-86736068D01*
X102404029Y-86730955D01*
X102392402Y-86725667D01*
X102385929Y-86722566D01*
X102385929Y-86917960D01*
G37*
G36*
X102121231Y-86937500D02*
G01*
X102121231Y-86810188D01*
X101694416Y-86234080D01*
X102110850Y-86234080D01*
X102110850Y-86058225D01*
X101418116Y-86058225D01*
X101418116Y-86192559D01*
X101835466Y-86761645D01*
X101411094Y-86761645D01*
X101411094Y-86937500D01*
X102121231Y-86937500D01*
G37*
G36*
X100961688Y-86058225D02*
G01*
X100961688Y-86634944D01*
X100961454Y-86648147D01*
X100960754Y-86660739D01*
X100959094Y-86676577D01*
X100956604Y-86691327D01*
X100953283Y-86704989D01*
X100949133Y-86717564D01*
X100944153Y-86729051D01*
X100936760Y-86741880D01*
X100935126Y-86744242D01*
X100926147Y-86754885D01*
X100915812Y-86763723D01*
X100904120Y-86770758D01*
X100891072Y-86775989D01*
X100876667Y-86779416D01*
X100864166Y-86780859D01*
X100854221Y-86781184D01*
X100841226Y-86780497D01*
X100828346Y-86778436D01*
X100815581Y-86775002D01*
X100802930Y-86770193D01*
X100790393Y-86764011D01*
X100777971Y-86756454D01*
X100765664Y-86747524D01*
X100753471Y-86737220D01*
X100744320Y-86728703D01*
X100735074Y-86719639D01*
X100725730Y-86710027D01*
X100716290Y-86699868D01*
X100706754Y-86689162D01*
X100697121Y-86677908D01*
X100687391Y-86666107D01*
X100677565Y-86653758D01*
X100667642Y-86640862D01*
X100657622Y-86627418D01*
X100650889Y-86618152D01*
X100650889Y-86058225D01*
X100441450Y-86058225D01*
X100441450Y-86937500D01*
X100622495Y-86937500D01*
X100627686Y-86807745D01*
X100636295Y-86818099D01*
X100644948Y-86828169D01*
X100653647Y-86837955D01*
X100662390Y-86847459D01*
X100671178Y-86856679D01*
X100680011Y-86865616D01*
X100683556Y-86869112D01*
X100692541Y-86877504D01*
X100703618Y-86887064D01*
X100715016Y-86896066D01*
X100726737Y-86904509D01*
X100738780Y-86912395D01*
X100744922Y-86916128D01*
X100757502Y-86923041D01*
X100770510Y-86929352D01*
X100783948Y-86935062D01*
X100795475Y-86939361D01*
X100807299Y-86943243D01*
X100816974Y-86946048D01*
X100829387Y-86949214D01*
X100842203Y-86951844D01*
X100855421Y-86953937D01*
X100869042Y-86955493D01*
X100883066Y-86956513D01*
X100897492Y-86956996D01*
X100903375Y-86957039D01*
X100915821Y-86956846D01*
X100931957Y-86955987D01*
X100947568Y-86954441D01*
X100962654Y-86952209D01*
X100977215Y-86949289D01*
X100991252Y-86945683D01*
X101004764Y-86941390D01*
X101017752Y-86936409D01*
X101020917Y-86935057D01*
X101033176Y-86929199D01*
X101044921Y-86922769D01*
X101056150Y-86915766D01*
X101066865Y-86908190D01*
X101077064Y-86900043D01*
X101086748Y-86891322D01*
X101095916Y-86882030D01*
X101104570Y-86872165D01*
X101112632Y-86861765D01*
X101120178Y-86850870D01*
X101127210Y-86839478D01*
X101133726Y-86827590D01*
X101139727Y-86815206D01*
X101145213Y-86802326D01*
X101150184Y-86788950D01*
X101154639Y-86775078D01*
X101158575Y-86760671D01*
X101161986Y-86745845D01*
X101164872Y-86730599D01*
X101167233Y-86714933D01*
X101169070Y-86698848D01*
X101170103Y-86686508D01*
X101170841Y-86673932D01*
X101171284Y-86661120D01*
X101171431Y-86648072D01*
X101171431Y-86058225D01*
X100961688Y-86058225D01*
G37*
G36*
X99502642Y-86917960D02*
G01*
X99518203Y-86922759D01*
X99529961Y-86926145D01*
X99541795Y-86929349D01*
X99553703Y-86932371D01*
X99565687Y-86935210D01*
X99577746Y-86937866D01*
X99589880Y-86940340D01*
X99602089Y-86942632D01*
X99614373Y-86944741D01*
X99626733Y-86946668D01*
X99630869Y-86947269D01*
X99643288Y-86949015D01*
X99655814Y-86950589D01*
X99668447Y-86951992D01*
X99681187Y-86953223D01*
X99694035Y-86954282D01*
X99706990Y-86955169D01*
X99720053Y-86955884D01*
X99733222Y-86956428D01*
X99746500Y-86956800D01*
X99759884Y-86957001D01*
X99768867Y-86957039D01*
X99781759Y-86956927D01*
X99794484Y-86956591D01*
X99807041Y-86956030D01*
X99819433Y-86955245D01*
X99831657Y-86954236D01*
X99849680Y-86952303D01*
X99867327Y-86949864D01*
X99884599Y-86946922D01*
X99901495Y-86943474D01*
X99918015Y-86939523D01*
X99934160Y-86935067D01*
X99949929Y-86930106D01*
X99955102Y-86928340D01*
X99970340Y-86922658D01*
X99985144Y-86916487D01*
X99999514Y-86909828D01*
X100013448Y-86902681D01*
X100026948Y-86895045D01*
X100040013Y-86886920D01*
X100052644Y-86878308D01*
X100064839Y-86869207D01*
X100076600Y-86859618D01*
X100087927Y-86849540D01*
X100095236Y-86842550D01*
X100105762Y-86831664D01*
X100115816Y-86820300D01*
X100125397Y-86808458D01*
X100134506Y-86796139D01*
X100143143Y-86783342D01*
X100151307Y-86770068D01*
X100158999Y-86756316D01*
X100166219Y-86742086D01*
X100172967Y-86727379D01*
X100179242Y-86712194D01*
X100183164Y-86701805D01*
X100188620Y-86685780D01*
X100193539Y-86669305D01*
X100197922Y-86652378D01*
X100201768Y-86635001D01*
X100205077Y-86617173D01*
X100206986Y-86605037D01*
X100208655Y-86592701D01*
X100210086Y-86580164D01*
X100211279Y-86567427D01*
X100212233Y-86554490D01*
X100212949Y-86541353D01*
X100213426Y-86528015D01*
X100213664Y-86514476D01*
X100213694Y-86507632D01*
X100213565Y-86494355D01*
X100213179Y-86481238D01*
X100212535Y-86468280D01*
X100211633Y-86455482D01*
X100210474Y-86442845D01*
X100209057Y-86430366D01*
X100207383Y-86418048D01*
X100205451Y-86405890D01*
X100202070Y-86387952D01*
X100198109Y-86370373D01*
X100193569Y-86353154D01*
X100188449Y-86336295D01*
X100182750Y-86319795D01*
X100180721Y-86314375D01*
X100174248Y-86298343D01*
X100167308Y-86282762D01*
X100159901Y-86267631D01*
X100152027Y-86252952D01*
X100143687Y-86238723D01*
X100134879Y-86224945D01*
X100125605Y-86211618D01*
X100115863Y-86198741D01*
X100105655Y-86186316D01*
X100094980Y-86174341D01*
X100087604Y-86166608D01*
X100076112Y-86155349D01*
X100064191Y-86144583D01*
X100051840Y-86134311D01*
X100039060Y-86124533D01*
X100025851Y-86115249D01*
X100012213Y-86106458D01*
X99998145Y-86098162D01*
X99983648Y-86090358D01*
X99968721Y-86083049D01*
X99953365Y-86076233D01*
X99942890Y-86071964D01*
X99926809Y-86066017D01*
X99910396Y-86060655D01*
X99893651Y-86055877D01*
X99876572Y-86051685D01*
X99859161Y-86048078D01*
X99841417Y-86045055D01*
X99823340Y-86042618D01*
X99811104Y-86041318D01*
X99798720Y-86040278D01*
X99786188Y-86039498D01*
X99773509Y-86038978D01*
X99760681Y-86038718D01*
X99754212Y-86038686D01*
X99738534Y-86038785D01*
X99723329Y-86039083D01*
X99708595Y-86039579D01*
X99694334Y-86040274D01*
X99680546Y-86041168D01*
X99667229Y-86042260D01*
X99654385Y-86043551D01*
X99642013Y-86045040D01*
X99626252Y-86047334D01*
X99611330Y-86049982D01*
X99597009Y-86052820D01*
X99583051Y-86055840D01*
X99569456Y-86059041D01*
X99556223Y-86062423D01*
X99543352Y-86065987D01*
X99530844Y-86069731D01*
X99518699Y-86073657D01*
X99506916Y-86077765D01*
X99506916Y-86273159D01*
X99520340Y-86266337D01*
X99534050Y-86259916D01*
X99548046Y-86253896D01*
X99562329Y-86248277D01*
X99576897Y-86243058D01*
X99591752Y-86238240D01*
X99606894Y-86233823D01*
X99622321Y-86229806D01*
X99637791Y-86226228D01*
X99653061Y-86223127D01*
X99668131Y-86220504D01*
X99683000Y-86218357D01*
X99697669Y-86216687D01*
X99712137Y-86215495D01*
X99726406Y-86214779D01*
X99740473Y-86214541D01*
X99754866Y-86214865D01*
X99768886Y-86215838D01*
X99782534Y-86217460D01*
X99795810Y-86219731D01*
X99808714Y-86222650D01*
X99821245Y-86226219D01*
X99833405Y-86230436D01*
X99845193Y-86235301D01*
X99856565Y-86240744D01*
X99867480Y-86246693D01*
X99877936Y-86253147D01*
X99890363Y-86261926D01*
X99902074Y-86271495D01*
X99913070Y-86281854D01*
X99923350Y-86293004D01*
X99931054Y-86302487D01*
X99938291Y-86312467D01*
X99945060Y-86322943D01*
X99951362Y-86333914D01*
X99957196Y-86345382D01*
X99962563Y-86357346D01*
X99967462Y-86369807D01*
X99971893Y-86382763D01*
X99975829Y-86396130D01*
X99979240Y-86409820D01*
X99982126Y-86423836D01*
X99984487Y-86438176D01*
X99986324Y-86452840D01*
X99987636Y-86467828D01*
X99988423Y-86483141D01*
X99988685Y-86498778D01*
X99988527Y-86511025D01*
X99987823Y-86526987D01*
X99986557Y-86542529D01*
X99984727Y-86557651D01*
X99982335Y-86572353D01*
X99979380Y-86586635D01*
X99975862Y-86600498D01*
X99971780Y-86613941D01*
X99970672Y-86617236D01*
X99965935Y-86630045D01*
X99960731Y-86642366D01*
X99955059Y-86654202D01*
X99948919Y-86665550D01*
X99942312Y-86676412D01*
X99935238Y-86686788D01*
X99927696Y-86696677D01*
X99919687Y-86706079D01*
X99911167Y-86714900D01*
X99899953Y-86725187D01*
X99888114Y-86734655D01*
X99875648Y-86743303D01*
X99862557Y-86751131D01*
X99851633Y-86756803D01*
X99840308Y-86761950D01*
X99828544Y-86766458D01*
X99816456Y-86770365D01*
X99804043Y-86773671D01*
X99791306Y-86776376D01*
X99778245Y-86778479D01*
X99764860Y-86779982D01*
X99751149Y-86780884D01*
X99737115Y-86781184D01*
X99723186Y-86780917D01*
X99710684Y-86780245D01*
X99697891Y-86779164D01*
X99684805Y-86777674D01*
X99679107Y-86776910D01*
X99665750Y-86774850D01*
X99652393Y-86772410D01*
X99639036Y-86769591D01*
X99625679Y-86766391D01*
X99618047Y-86764392D01*
X99604733Y-86760684D01*
X99591508Y-86756771D01*
X99578370Y-86752653D01*
X99565320Y-86748331D01*
X99557902Y-86745769D01*
X99545135Y-86741006D01*
X99532749Y-86736068D01*
X99520742Y-86730955D01*
X99509115Y-86725667D01*
X99502642Y-86722566D01*
X99502642Y-86917960D01*
G37*
G36*
X98727171Y-86937500D02*
G01*
X98727171Y-86360170D01*
X98727587Y-86342536D01*
X98728836Y-86326038D01*
X98730917Y-86310679D01*
X98733830Y-86296457D01*
X98737576Y-86283374D01*
X98742155Y-86271427D01*
X98750583Y-86255641D01*
X98760884Y-86242415D01*
X98773059Y-86231749D01*
X98787106Y-86223643D01*
X98803026Y-86218096D01*
X98820819Y-86215110D01*
X98833722Y-86214541D01*
X98846931Y-86215223D01*
X98859997Y-86217269D01*
X98872920Y-86220680D01*
X98885700Y-86225455D01*
X98898336Y-86231595D01*
X98910830Y-86239099D01*
X98923181Y-86247967D01*
X98935388Y-86258199D01*
X98944538Y-86266659D01*
X98953785Y-86275666D01*
X98963128Y-86285220D01*
X98972568Y-86295322D01*
X98982105Y-86305971D01*
X98991738Y-86317168D01*
X99001468Y-86328912D01*
X99011294Y-86341203D01*
X99021217Y-86354042D01*
X99031237Y-86367429D01*
X99037970Y-86376657D01*
X99037970Y-86937500D01*
X99247408Y-86937500D01*
X99247408Y-85726055D01*
X99037970Y-85726055D01*
X99037970Y-86019452D01*
X99048350Y-86174546D01*
X99040027Y-86164692D01*
X99031660Y-86155166D01*
X99023248Y-86145968D01*
X99014791Y-86137099D01*
X99004583Y-86126888D01*
X98994312Y-86117149D01*
X98983753Y-86107832D01*
X98972916Y-86099117D01*
X98961800Y-86091002D01*
X98950405Y-86083489D01*
X98938731Y-86076577D01*
X98934777Y-86074406D01*
X98922688Y-86068170D01*
X98910234Y-86062514D01*
X98897415Y-86057437D01*
X98884230Y-86052940D01*
X98870681Y-86049022D01*
X98866084Y-86047845D01*
X98851963Y-86044732D01*
X98839785Y-86042630D01*
X98827234Y-86040976D01*
X98814311Y-86039768D01*
X98801015Y-86039008D01*
X98787346Y-86038695D01*
X98784568Y-86038686D01*
X98772182Y-86038882D01*
X98756134Y-86039752D01*
X98740621Y-86041319D01*
X98725642Y-86043583D01*
X98711197Y-86046543D01*
X98697287Y-86050199D01*
X98683911Y-86054552D01*
X98671069Y-86059602D01*
X98667942Y-86060973D01*
X98655687Y-86066755D01*
X98643957Y-86073109D01*
X98632751Y-86080035D01*
X98622070Y-86087534D01*
X98611914Y-86095606D01*
X98602283Y-86104250D01*
X98593176Y-86113466D01*
X98584594Y-86123255D01*
X98576461Y-86133516D01*
X98568852Y-86144302D01*
X98561768Y-86155612D01*
X98555209Y-86167448D01*
X98549174Y-86179808D01*
X98543664Y-86192692D01*
X98538679Y-86206102D01*
X98534219Y-86220036D01*
X98530283Y-86234443D01*
X98526873Y-86249269D01*
X98523987Y-86264515D01*
X98521625Y-86280181D01*
X98519789Y-86296267D01*
X98518756Y-86308606D01*
X98518018Y-86321182D01*
X98517575Y-86333994D01*
X98517427Y-86347042D01*
X98517427Y-86937500D01*
X98727171Y-86937500D01*
G37*
X127201904Y-96008452D02*
X127023333Y-96067976D01*
X127023333Y-96067976D02*
X126725714Y-96067976D01*
X126725714Y-96067976D02*
X126606666Y-96008452D01*
X126606666Y-96008452D02*
X126547142Y-95948928D01*
X126547142Y-95948928D02*
X126487619Y-95829880D01*
X126487619Y-95829880D02*
X126487619Y-95710833D01*
X126487619Y-95710833D02*
X126547142Y-95591785D01*
X126547142Y-95591785D02*
X126606666Y-95532261D01*
X126606666Y-95532261D02*
X126725714Y-95472738D01*
X126725714Y-95472738D02*
X126963809Y-95413214D01*
X126963809Y-95413214D02*
X127082857Y-95353690D01*
X127082857Y-95353690D02*
X127142380Y-95294166D01*
X127142380Y-95294166D02*
X127201904Y-95175119D01*
X127201904Y-95175119D02*
X127201904Y-95056071D01*
X127201904Y-95056071D02*
X127142380Y-94937023D01*
X127142380Y-94937023D02*
X127082857Y-94877500D01*
X127082857Y-94877500D02*
X126963809Y-94817976D01*
X126963809Y-94817976D02*
X126666190Y-94817976D01*
X126666190Y-94817976D02*
X126487619Y-94877500D01*
X126070952Y-94817976D02*
X125773333Y-96067976D01*
X125773333Y-96067976D02*
X125535238Y-95175119D01*
X125535238Y-95175119D02*
X125297143Y-96067976D01*
X125297143Y-96067976D02*
X124999524Y-94817976D01*
X124523333Y-96067976D02*
X124523333Y-94817976D01*
X124523333Y-94817976D02*
X124225714Y-94817976D01*
X124225714Y-94817976D02*
X124047143Y-94877500D01*
X124047143Y-94877500D02*
X123928095Y-94996547D01*
X123928095Y-94996547D02*
X123868572Y-95115595D01*
X123868572Y-95115595D02*
X123809048Y-95353690D01*
X123809048Y-95353690D02*
X123809048Y-95532261D01*
X123809048Y-95532261D02*
X123868572Y-95770357D01*
X123868572Y-95770357D02*
X123928095Y-95889404D01*
X123928095Y-95889404D02*
X124047143Y-96008452D01*
X124047143Y-96008452D02*
X124225714Y-96067976D01*
X124225714Y-96067976D02*
X124523333Y-96067976D01*
D11*
%TO.C,U5*%
X181761904Y-88217380D02*
X181761904Y-89026904D01*
X181761904Y-89026904D02*
X181714285Y-89122142D01*
X181714285Y-89122142D02*
X181666666Y-89169761D01*
X181666666Y-89169761D02*
X181571428Y-89217380D01*
X181571428Y-89217380D02*
X181380952Y-89217380D01*
X181380952Y-89217380D02*
X181285714Y-89169761D01*
X181285714Y-89169761D02*
X181238095Y-89122142D01*
X181238095Y-89122142D02*
X181190476Y-89026904D01*
X181190476Y-89026904D02*
X181190476Y-88217380D01*
X180238095Y-88217380D02*
X180714285Y-88217380D01*
X180714285Y-88217380D02*
X180761904Y-88693571D01*
X180761904Y-88693571D02*
X180714285Y-88645952D01*
X180714285Y-88645952D02*
X180619047Y-88598333D01*
X180619047Y-88598333D02*
X180380952Y-88598333D01*
X180380952Y-88598333D02*
X180285714Y-88645952D01*
X180285714Y-88645952D02*
X180238095Y-88693571D01*
X180238095Y-88693571D02*
X180190476Y-88788809D01*
X180190476Y-88788809D02*
X180190476Y-89026904D01*
X180190476Y-89026904D02*
X180238095Y-89122142D01*
X180238095Y-89122142D02*
X180285714Y-89169761D01*
X180285714Y-89169761D02*
X180380952Y-89217380D01*
X180380952Y-89217380D02*
X180619047Y-89217380D01*
X180619047Y-89217380D02*
X180714285Y-89169761D01*
X180714285Y-89169761D02*
X180761904Y-89122142D01*
%TO.C,C15*%
X134067857Y-85547142D02*
X134115476Y-85594761D01*
X134115476Y-85594761D02*
X134258333Y-85642380D01*
X134258333Y-85642380D02*
X134353571Y-85642380D01*
X134353571Y-85642380D02*
X134496428Y-85594761D01*
X134496428Y-85594761D02*
X134591666Y-85499523D01*
X134591666Y-85499523D02*
X134639285Y-85404285D01*
X134639285Y-85404285D02*
X134686904Y-85213809D01*
X134686904Y-85213809D02*
X134686904Y-85070952D01*
X134686904Y-85070952D02*
X134639285Y-84880476D01*
X134639285Y-84880476D02*
X134591666Y-84785238D01*
X134591666Y-84785238D02*
X134496428Y-84690000D01*
X134496428Y-84690000D02*
X134353571Y-84642380D01*
X134353571Y-84642380D02*
X134258333Y-84642380D01*
X134258333Y-84642380D02*
X134115476Y-84690000D01*
X134115476Y-84690000D02*
X134067857Y-84737619D01*
X133115476Y-85642380D02*
X133686904Y-85642380D01*
X133401190Y-85642380D02*
X133401190Y-84642380D01*
X133401190Y-84642380D02*
X133496428Y-84785238D01*
X133496428Y-84785238D02*
X133591666Y-84880476D01*
X133591666Y-84880476D02*
X133686904Y-84928095D01*
X132210714Y-84642380D02*
X132686904Y-84642380D01*
X132686904Y-84642380D02*
X132734523Y-85118571D01*
X132734523Y-85118571D02*
X132686904Y-85070952D01*
X132686904Y-85070952D02*
X132591666Y-85023333D01*
X132591666Y-85023333D02*
X132353571Y-85023333D01*
X132353571Y-85023333D02*
X132258333Y-85070952D01*
X132258333Y-85070952D02*
X132210714Y-85118571D01*
X132210714Y-85118571D02*
X132163095Y-85213809D01*
X132163095Y-85213809D02*
X132163095Y-85451904D01*
X132163095Y-85451904D02*
X132210714Y-85547142D01*
X132210714Y-85547142D02*
X132258333Y-85594761D01*
X132258333Y-85594761D02*
X132353571Y-85642380D01*
X132353571Y-85642380D02*
X132591666Y-85642380D01*
X132591666Y-85642380D02*
X132686904Y-85594761D01*
X132686904Y-85594761D02*
X132734523Y-85547142D01*
%TO.C,C25*%
X130312134Y-92422002D02*
X130312134Y-92489346D01*
X130312134Y-92489346D02*
X130379478Y-92624033D01*
X130379478Y-92624033D02*
X130446821Y-92691376D01*
X130446821Y-92691376D02*
X130581508Y-92758720D01*
X130581508Y-92758720D02*
X130716195Y-92758720D01*
X130716195Y-92758720D02*
X130817210Y-92725048D01*
X130817210Y-92725048D02*
X130985569Y-92624033D01*
X130985569Y-92624033D02*
X131086584Y-92523017D01*
X131086584Y-92523017D02*
X131187600Y-92354659D01*
X131187600Y-92354659D02*
X131221271Y-92253643D01*
X131221271Y-92253643D02*
X131221271Y-92118956D01*
X131221271Y-92118956D02*
X131153928Y-91984269D01*
X131153928Y-91984269D02*
X131086584Y-91916926D01*
X131086584Y-91916926D02*
X130951897Y-91849582D01*
X130951897Y-91849582D02*
X130884554Y-91849582D01*
X130615180Y-91580208D02*
X130615180Y-91512865D01*
X130615180Y-91512865D02*
X130581508Y-91411850D01*
X130581508Y-91411850D02*
X130413149Y-91243491D01*
X130413149Y-91243491D02*
X130312134Y-91209819D01*
X130312134Y-91209819D02*
X130244791Y-91209819D01*
X130244791Y-91209819D02*
X130143775Y-91243491D01*
X130143775Y-91243491D02*
X130076432Y-91310834D01*
X130076432Y-91310834D02*
X130009088Y-91445521D01*
X130009088Y-91445521D02*
X130009088Y-92253643D01*
X130009088Y-92253643D02*
X129571356Y-91815911D01*
X129638699Y-90469041D02*
X129975417Y-90805758D01*
X129975417Y-90805758D02*
X129672371Y-91176147D01*
X129672371Y-91176147D02*
X129672371Y-91108804D01*
X129672371Y-91108804D02*
X129638699Y-91007789D01*
X129638699Y-91007789D02*
X129470340Y-90839430D01*
X129470340Y-90839430D02*
X129369325Y-90805758D01*
X129369325Y-90805758D02*
X129301982Y-90805758D01*
X129301982Y-90805758D02*
X129200966Y-90839430D01*
X129200966Y-90839430D02*
X129032608Y-91007789D01*
X129032608Y-91007789D02*
X128998936Y-91108804D01*
X128998936Y-91108804D02*
X128998936Y-91176147D01*
X128998936Y-91176147D02*
X129032608Y-91277163D01*
X129032608Y-91277163D02*
X129200966Y-91445521D01*
X129200966Y-91445521D02*
X129301982Y-91479193D01*
X129301982Y-91479193D02*
X129369325Y-91479193D01*
%TO.C,R15*%
X153692857Y-90142380D02*
X154026190Y-89666190D01*
X154264285Y-90142380D02*
X154264285Y-89142380D01*
X154264285Y-89142380D02*
X153883333Y-89142380D01*
X153883333Y-89142380D02*
X153788095Y-89190000D01*
X153788095Y-89190000D02*
X153740476Y-89237619D01*
X153740476Y-89237619D02*
X153692857Y-89332857D01*
X153692857Y-89332857D02*
X153692857Y-89475714D01*
X153692857Y-89475714D02*
X153740476Y-89570952D01*
X153740476Y-89570952D02*
X153788095Y-89618571D01*
X153788095Y-89618571D02*
X153883333Y-89666190D01*
X153883333Y-89666190D02*
X154264285Y-89666190D01*
X152740476Y-90142380D02*
X153311904Y-90142380D01*
X153026190Y-90142380D02*
X153026190Y-89142380D01*
X153026190Y-89142380D02*
X153121428Y-89285238D01*
X153121428Y-89285238D02*
X153216666Y-89380476D01*
X153216666Y-89380476D02*
X153311904Y-89428095D01*
X151835714Y-89142380D02*
X152311904Y-89142380D01*
X152311904Y-89142380D02*
X152359523Y-89618571D01*
X152359523Y-89618571D02*
X152311904Y-89570952D01*
X152311904Y-89570952D02*
X152216666Y-89523333D01*
X152216666Y-89523333D02*
X151978571Y-89523333D01*
X151978571Y-89523333D02*
X151883333Y-89570952D01*
X151883333Y-89570952D02*
X151835714Y-89618571D01*
X151835714Y-89618571D02*
X151788095Y-89713809D01*
X151788095Y-89713809D02*
X151788095Y-89951904D01*
X151788095Y-89951904D02*
X151835714Y-90047142D01*
X151835714Y-90047142D02*
X151883333Y-90094761D01*
X151883333Y-90094761D02*
X151978571Y-90142380D01*
X151978571Y-90142380D02*
X152216666Y-90142380D01*
X152216666Y-90142380D02*
X152311904Y-90094761D01*
X152311904Y-90094761D02*
X152359523Y-90047142D01*
%TO.C,R7*%
X163392380Y-85033333D02*
X162916190Y-84700000D01*
X163392380Y-84461905D02*
X162392380Y-84461905D01*
X162392380Y-84461905D02*
X162392380Y-84842857D01*
X162392380Y-84842857D02*
X162440000Y-84938095D01*
X162440000Y-84938095D02*
X162487619Y-84985714D01*
X162487619Y-84985714D02*
X162582857Y-85033333D01*
X162582857Y-85033333D02*
X162725714Y-85033333D01*
X162725714Y-85033333D02*
X162820952Y-84985714D01*
X162820952Y-84985714D02*
X162868571Y-84938095D01*
X162868571Y-84938095D02*
X162916190Y-84842857D01*
X162916190Y-84842857D02*
X162916190Y-84461905D01*
X162392380Y-85366667D02*
X162392380Y-86033333D01*
X162392380Y-86033333D02*
X163392380Y-85604762D01*
%TO.C,C6*%
X155341666Y-83197142D02*
X155389285Y-83244761D01*
X155389285Y-83244761D02*
X155532142Y-83292380D01*
X155532142Y-83292380D02*
X155627380Y-83292380D01*
X155627380Y-83292380D02*
X155770237Y-83244761D01*
X155770237Y-83244761D02*
X155865475Y-83149523D01*
X155865475Y-83149523D02*
X155913094Y-83054285D01*
X155913094Y-83054285D02*
X155960713Y-82863809D01*
X155960713Y-82863809D02*
X155960713Y-82720952D01*
X155960713Y-82720952D02*
X155913094Y-82530476D01*
X155913094Y-82530476D02*
X155865475Y-82435238D01*
X155865475Y-82435238D02*
X155770237Y-82340000D01*
X155770237Y-82340000D02*
X155627380Y-82292380D01*
X155627380Y-82292380D02*
X155532142Y-82292380D01*
X155532142Y-82292380D02*
X155389285Y-82340000D01*
X155389285Y-82340000D02*
X155341666Y-82387619D01*
X154484523Y-82292380D02*
X154674999Y-82292380D01*
X154674999Y-82292380D02*
X154770237Y-82340000D01*
X154770237Y-82340000D02*
X154817856Y-82387619D01*
X154817856Y-82387619D02*
X154913094Y-82530476D01*
X154913094Y-82530476D02*
X154960713Y-82720952D01*
X154960713Y-82720952D02*
X154960713Y-83101904D01*
X154960713Y-83101904D02*
X154913094Y-83197142D01*
X154913094Y-83197142D02*
X154865475Y-83244761D01*
X154865475Y-83244761D02*
X154770237Y-83292380D01*
X154770237Y-83292380D02*
X154579761Y-83292380D01*
X154579761Y-83292380D02*
X154484523Y-83244761D01*
X154484523Y-83244761D02*
X154436904Y-83197142D01*
X154436904Y-83197142D02*
X154389285Y-83101904D01*
X154389285Y-83101904D02*
X154389285Y-82863809D01*
X154389285Y-82863809D02*
X154436904Y-82768571D01*
X154436904Y-82768571D02*
X154484523Y-82720952D01*
X154484523Y-82720952D02*
X154579761Y-82673333D01*
X154579761Y-82673333D02*
X154770237Y-82673333D01*
X154770237Y-82673333D02*
X154865475Y-82720952D01*
X154865475Y-82720952D02*
X154913094Y-82768571D01*
X154913094Y-82768571D02*
X154960713Y-82863809D01*
%TO.C,C12*%
X181792857Y-87172142D02*
X181840476Y-87219761D01*
X181840476Y-87219761D02*
X181983333Y-87267380D01*
X181983333Y-87267380D02*
X182078571Y-87267380D01*
X182078571Y-87267380D02*
X182221428Y-87219761D01*
X182221428Y-87219761D02*
X182316666Y-87124523D01*
X182316666Y-87124523D02*
X182364285Y-87029285D01*
X182364285Y-87029285D02*
X182411904Y-86838809D01*
X182411904Y-86838809D02*
X182411904Y-86695952D01*
X182411904Y-86695952D02*
X182364285Y-86505476D01*
X182364285Y-86505476D02*
X182316666Y-86410238D01*
X182316666Y-86410238D02*
X182221428Y-86315000D01*
X182221428Y-86315000D02*
X182078571Y-86267380D01*
X182078571Y-86267380D02*
X181983333Y-86267380D01*
X181983333Y-86267380D02*
X181840476Y-86315000D01*
X181840476Y-86315000D02*
X181792857Y-86362619D01*
X180840476Y-87267380D02*
X181411904Y-87267380D01*
X181126190Y-87267380D02*
X181126190Y-86267380D01*
X181126190Y-86267380D02*
X181221428Y-86410238D01*
X181221428Y-86410238D02*
X181316666Y-86505476D01*
X181316666Y-86505476D02*
X181411904Y-86553095D01*
X180459523Y-86362619D02*
X180411904Y-86315000D01*
X180411904Y-86315000D02*
X180316666Y-86267380D01*
X180316666Y-86267380D02*
X180078571Y-86267380D01*
X180078571Y-86267380D02*
X179983333Y-86315000D01*
X179983333Y-86315000D02*
X179935714Y-86362619D01*
X179935714Y-86362619D02*
X179888095Y-86457857D01*
X179888095Y-86457857D02*
X179888095Y-86553095D01*
X179888095Y-86553095D02*
X179935714Y-86695952D01*
X179935714Y-86695952D02*
X180507142Y-87267380D01*
X180507142Y-87267380D02*
X179888095Y-87267380D01*
%TO.C,R6*%
X203991666Y-87167380D02*
X204324999Y-86691190D01*
X204563094Y-87167380D02*
X204563094Y-86167380D01*
X204563094Y-86167380D02*
X204182142Y-86167380D01*
X204182142Y-86167380D02*
X204086904Y-86215000D01*
X204086904Y-86215000D02*
X204039285Y-86262619D01*
X204039285Y-86262619D02*
X203991666Y-86357857D01*
X203991666Y-86357857D02*
X203991666Y-86500714D01*
X203991666Y-86500714D02*
X204039285Y-86595952D01*
X204039285Y-86595952D02*
X204086904Y-86643571D01*
X204086904Y-86643571D02*
X204182142Y-86691190D01*
X204182142Y-86691190D02*
X204563094Y-86691190D01*
X203134523Y-86167380D02*
X203324999Y-86167380D01*
X203324999Y-86167380D02*
X203420237Y-86215000D01*
X203420237Y-86215000D02*
X203467856Y-86262619D01*
X203467856Y-86262619D02*
X203563094Y-86405476D01*
X203563094Y-86405476D02*
X203610713Y-86595952D01*
X203610713Y-86595952D02*
X203610713Y-86976904D01*
X203610713Y-86976904D02*
X203563094Y-87072142D01*
X203563094Y-87072142D02*
X203515475Y-87119761D01*
X203515475Y-87119761D02*
X203420237Y-87167380D01*
X203420237Y-87167380D02*
X203229761Y-87167380D01*
X203229761Y-87167380D02*
X203134523Y-87119761D01*
X203134523Y-87119761D02*
X203086904Y-87072142D01*
X203086904Y-87072142D02*
X203039285Y-86976904D01*
X203039285Y-86976904D02*
X203039285Y-86738809D01*
X203039285Y-86738809D02*
X203086904Y-86643571D01*
X203086904Y-86643571D02*
X203134523Y-86595952D01*
X203134523Y-86595952D02*
X203229761Y-86548333D01*
X203229761Y-86548333D02*
X203420237Y-86548333D01*
X203420237Y-86548333D02*
X203515475Y-86595952D01*
X203515475Y-86595952D02*
X203563094Y-86643571D01*
X203563094Y-86643571D02*
X203610713Y-86738809D01*
%TO.C,R39*%
X216192380Y-88457142D02*
X215716190Y-88123809D01*
X216192380Y-87885714D02*
X215192380Y-87885714D01*
X215192380Y-87885714D02*
X215192380Y-88266666D01*
X215192380Y-88266666D02*
X215240000Y-88361904D01*
X215240000Y-88361904D02*
X215287619Y-88409523D01*
X215287619Y-88409523D02*
X215382857Y-88457142D01*
X215382857Y-88457142D02*
X215525714Y-88457142D01*
X215525714Y-88457142D02*
X215620952Y-88409523D01*
X215620952Y-88409523D02*
X215668571Y-88361904D01*
X215668571Y-88361904D02*
X215716190Y-88266666D01*
X215716190Y-88266666D02*
X215716190Y-87885714D01*
X215192380Y-88790476D02*
X215192380Y-89409523D01*
X215192380Y-89409523D02*
X215573333Y-89076190D01*
X215573333Y-89076190D02*
X215573333Y-89219047D01*
X215573333Y-89219047D02*
X215620952Y-89314285D01*
X215620952Y-89314285D02*
X215668571Y-89361904D01*
X215668571Y-89361904D02*
X215763809Y-89409523D01*
X215763809Y-89409523D02*
X216001904Y-89409523D01*
X216001904Y-89409523D02*
X216097142Y-89361904D01*
X216097142Y-89361904D02*
X216144761Y-89314285D01*
X216144761Y-89314285D02*
X216192380Y-89219047D01*
X216192380Y-89219047D02*
X216192380Y-88933333D01*
X216192380Y-88933333D02*
X216144761Y-88838095D01*
X216144761Y-88838095D02*
X216097142Y-88790476D01*
X216192380Y-89885714D02*
X216192380Y-90076190D01*
X216192380Y-90076190D02*
X216144761Y-90171428D01*
X216144761Y-90171428D02*
X216097142Y-90219047D01*
X216097142Y-90219047D02*
X215954285Y-90314285D01*
X215954285Y-90314285D02*
X215763809Y-90361904D01*
X215763809Y-90361904D02*
X215382857Y-90361904D01*
X215382857Y-90361904D02*
X215287619Y-90314285D01*
X215287619Y-90314285D02*
X215240000Y-90266666D01*
X215240000Y-90266666D02*
X215192380Y-90171428D01*
X215192380Y-90171428D02*
X215192380Y-89980952D01*
X215192380Y-89980952D02*
X215240000Y-89885714D01*
X215240000Y-89885714D02*
X215287619Y-89838095D01*
X215287619Y-89838095D02*
X215382857Y-89790476D01*
X215382857Y-89790476D02*
X215620952Y-89790476D01*
X215620952Y-89790476D02*
X215716190Y-89838095D01*
X215716190Y-89838095D02*
X215763809Y-89885714D01*
X215763809Y-89885714D02*
X215811428Y-89980952D01*
X215811428Y-89980952D02*
X215811428Y-90171428D01*
X215811428Y-90171428D02*
X215763809Y-90266666D01*
X215763809Y-90266666D02*
X215716190Y-90314285D01*
X215716190Y-90314285D02*
X215620952Y-90361904D01*
%TO.C,U3*%
X141686904Y-87442380D02*
X141686904Y-88251904D01*
X141686904Y-88251904D02*
X141639285Y-88347142D01*
X141639285Y-88347142D02*
X141591666Y-88394761D01*
X141591666Y-88394761D02*
X141496428Y-88442380D01*
X141496428Y-88442380D02*
X141305952Y-88442380D01*
X141305952Y-88442380D02*
X141210714Y-88394761D01*
X141210714Y-88394761D02*
X141163095Y-88347142D01*
X141163095Y-88347142D02*
X141115476Y-88251904D01*
X141115476Y-88251904D02*
X141115476Y-87442380D01*
X140734523Y-87442380D02*
X140115476Y-87442380D01*
X140115476Y-87442380D02*
X140448809Y-87823333D01*
X140448809Y-87823333D02*
X140305952Y-87823333D01*
X140305952Y-87823333D02*
X140210714Y-87870952D01*
X140210714Y-87870952D02*
X140163095Y-87918571D01*
X140163095Y-87918571D02*
X140115476Y-88013809D01*
X140115476Y-88013809D02*
X140115476Y-88251904D01*
X140115476Y-88251904D02*
X140163095Y-88347142D01*
X140163095Y-88347142D02*
X140210714Y-88394761D01*
X140210714Y-88394761D02*
X140305952Y-88442380D01*
X140305952Y-88442380D02*
X140591666Y-88442380D01*
X140591666Y-88442380D02*
X140686904Y-88394761D01*
X140686904Y-88394761D02*
X140734523Y-88347142D01*
%TO.C,D3*%
X195813094Y-99092380D02*
X195813094Y-98092380D01*
X195813094Y-98092380D02*
X195574999Y-98092380D01*
X195574999Y-98092380D02*
X195432142Y-98140000D01*
X195432142Y-98140000D02*
X195336904Y-98235238D01*
X195336904Y-98235238D02*
X195289285Y-98330476D01*
X195289285Y-98330476D02*
X195241666Y-98520952D01*
X195241666Y-98520952D02*
X195241666Y-98663809D01*
X195241666Y-98663809D02*
X195289285Y-98854285D01*
X195289285Y-98854285D02*
X195336904Y-98949523D01*
X195336904Y-98949523D02*
X195432142Y-99044761D01*
X195432142Y-99044761D02*
X195574999Y-99092380D01*
X195574999Y-99092380D02*
X195813094Y-99092380D01*
X194908332Y-98092380D02*
X194289285Y-98092380D01*
X194289285Y-98092380D02*
X194622618Y-98473333D01*
X194622618Y-98473333D02*
X194479761Y-98473333D01*
X194479761Y-98473333D02*
X194384523Y-98520952D01*
X194384523Y-98520952D02*
X194336904Y-98568571D01*
X194336904Y-98568571D02*
X194289285Y-98663809D01*
X194289285Y-98663809D02*
X194289285Y-98901904D01*
X194289285Y-98901904D02*
X194336904Y-98997142D01*
X194336904Y-98997142D02*
X194384523Y-99044761D01*
X194384523Y-99044761D02*
X194479761Y-99092380D01*
X194479761Y-99092380D02*
X194765475Y-99092380D01*
X194765475Y-99092380D02*
X194860713Y-99044761D01*
X194860713Y-99044761D02*
X194908332Y-98997142D01*
%TO.C,Q1*%
X209462619Y-93029761D02*
X209415000Y-92934523D01*
X209415000Y-92934523D02*
X209319761Y-92839285D01*
X209319761Y-92839285D02*
X209176904Y-92696428D01*
X209176904Y-92696428D02*
X209129285Y-92601190D01*
X209129285Y-92601190D02*
X209129285Y-92505952D01*
X209367380Y-92553571D02*
X209319761Y-92458333D01*
X209319761Y-92458333D02*
X209224523Y-92363095D01*
X209224523Y-92363095D02*
X209034047Y-92315476D01*
X209034047Y-92315476D02*
X208700714Y-92315476D01*
X208700714Y-92315476D02*
X208510238Y-92363095D01*
X208510238Y-92363095D02*
X208415000Y-92458333D01*
X208415000Y-92458333D02*
X208367380Y-92553571D01*
X208367380Y-92553571D02*
X208367380Y-92744047D01*
X208367380Y-92744047D02*
X208415000Y-92839285D01*
X208415000Y-92839285D02*
X208510238Y-92934523D01*
X208510238Y-92934523D02*
X208700714Y-92982142D01*
X208700714Y-92982142D02*
X209034047Y-92982142D01*
X209034047Y-92982142D02*
X209224523Y-92934523D01*
X209224523Y-92934523D02*
X209319761Y-92839285D01*
X209319761Y-92839285D02*
X209367380Y-92744047D01*
X209367380Y-92744047D02*
X209367380Y-92553571D01*
X209367380Y-93934523D02*
X209367380Y-93363095D01*
X209367380Y-93648809D02*
X208367380Y-93648809D01*
X208367380Y-93648809D02*
X208510238Y-93553571D01*
X208510238Y-93553571D02*
X208605476Y-93458333D01*
X208605476Y-93458333D02*
X208653095Y-93363095D01*
%TO.C,Q4*%
X141862619Y-98479761D02*
X141815000Y-98384523D01*
X141815000Y-98384523D02*
X141719761Y-98289285D01*
X141719761Y-98289285D02*
X141576904Y-98146428D01*
X141576904Y-98146428D02*
X141529285Y-98051190D01*
X141529285Y-98051190D02*
X141529285Y-97955952D01*
X141767380Y-98003571D02*
X141719761Y-97908333D01*
X141719761Y-97908333D02*
X141624523Y-97813095D01*
X141624523Y-97813095D02*
X141434047Y-97765476D01*
X141434047Y-97765476D02*
X141100714Y-97765476D01*
X141100714Y-97765476D02*
X140910238Y-97813095D01*
X140910238Y-97813095D02*
X140815000Y-97908333D01*
X140815000Y-97908333D02*
X140767380Y-98003571D01*
X140767380Y-98003571D02*
X140767380Y-98194047D01*
X140767380Y-98194047D02*
X140815000Y-98289285D01*
X140815000Y-98289285D02*
X140910238Y-98384523D01*
X140910238Y-98384523D02*
X141100714Y-98432142D01*
X141100714Y-98432142D02*
X141434047Y-98432142D01*
X141434047Y-98432142D02*
X141624523Y-98384523D01*
X141624523Y-98384523D02*
X141719761Y-98289285D01*
X141719761Y-98289285D02*
X141767380Y-98194047D01*
X141767380Y-98194047D02*
X141767380Y-98003571D01*
X141100714Y-99289285D02*
X141767380Y-99289285D01*
X140719761Y-99051190D02*
X141434047Y-98813095D01*
X141434047Y-98813095D02*
X141434047Y-99432142D01*
%TO.C,R10*%
X136092380Y-94157142D02*
X135616190Y-93823809D01*
X136092380Y-93585714D02*
X135092380Y-93585714D01*
X135092380Y-93585714D02*
X135092380Y-93966666D01*
X135092380Y-93966666D02*
X135140000Y-94061904D01*
X135140000Y-94061904D02*
X135187619Y-94109523D01*
X135187619Y-94109523D02*
X135282857Y-94157142D01*
X135282857Y-94157142D02*
X135425714Y-94157142D01*
X135425714Y-94157142D02*
X135520952Y-94109523D01*
X135520952Y-94109523D02*
X135568571Y-94061904D01*
X135568571Y-94061904D02*
X135616190Y-93966666D01*
X135616190Y-93966666D02*
X135616190Y-93585714D01*
X136092380Y-95109523D02*
X136092380Y-94538095D01*
X136092380Y-94823809D02*
X135092380Y-94823809D01*
X135092380Y-94823809D02*
X135235238Y-94728571D01*
X135235238Y-94728571D02*
X135330476Y-94633333D01*
X135330476Y-94633333D02*
X135378095Y-94538095D01*
X135092380Y-95728571D02*
X135092380Y-95823809D01*
X135092380Y-95823809D02*
X135140000Y-95919047D01*
X135140000Y-95919047D02*
X135187619Y-95966666D01*
X135187619Y-95966666D02*
X135282857Y-96014285D01*
X135282857Y-96014285D02*
X135473333Y-96061904D01*
X135473333Y-96061904D02*
X135711428Y-96061904D01*
X135711428Y-96061904D02*
X135901904Y-96014285D01*
X135901904Y-96014285D02*
X135997142Y-95966666D01*
X135997142Y-95966666D02*
X136044761Y-95919047D01*
X136044761Y-95919047D02*
X136092380Y-95823809D01*
X136092380Y-95823809D02*
X136092380Y-95728571D01*
X136092380Y-95728571D02*
X136044761Y-95633333D01*
X136044761Y-95633333D02*
X135997142Y-95585714D01*
X135997142Y-95585714D02*
X135901904Y-95538095D01*
X135901904Y-95538095D02*
X135711428Y-95490476D01*
X135711428Y-95490476D02*
X135473333Y-95490476D01*
X135473333Y-95490476D02*
X135282857Y-95538095D01*
X135282857Y-95538095D02*
X135187619Y-95585714D01*
X135187619Y-95585714D02*
X135140000Y-95633333D01*
X135140000Y-95633333D02*
X135092380Y-95728571D01*
%TO.C,R21*%
X198367857Y-85592380D02*
X198701190Y-85116190D01*
X198939285Y-85592380D02*
X198939285Y-84592380D01*
X198939285Y-84592380D02*
X198558333Y-84592380D01*
X198558333Y-84592380D02*
X198463095Y-84640000D01*
X198463095Y-84640000D02*
X198415476Y-84687619D01*
X198415476Y-84687619D02*
X198367857Y-84782857D01*
X198367857Y-84782857D02*
X198367857Y-84925714D01*
X198367857Y-84925714D02*
X198415476Y-85020952D01*
X198415476Y-85020952D02*
X198463095Y-85068571D01*
X198463095Y-85068571D02*
X198558333Y-85116190D01*
X198558333Y-85116190D02*
X198939285Y-85116190D01*
X197986904Y-84687619D02*
X197939285Y-84640000D01*
X197939285Y-84640000D02*
X197844047Y-84592380D01*
X197844047Y-84592380D02*
X197605952Y-84592380D01*
X197605952Y-84592380D02*
X197510714Y-84640000D01*
X197510714Y-84640000D02*
X197463095Y-84687619D01*
X197463095Y-84687619D02*
X197415476Y-84782857D01*
X197415476Y-84782857D02*
X197415476Y-84878095D01*
X197415476Y-84878095D02*
X197463095Y-85020952D01*
X197463095Y-85020952D02*
X198034523Y-85592380D01*
X198034523Y-85592380D02*
X197415476Y-85592380D01*
X196463095Y-85592380D02*
X197034523Y-85592380D01*
X196748809Y-85592380D02*
X196748809Y-84592380D01*
X196748809Y-84592380D02*
X196844047Y-84735238D01*
X196844047Y-84735238D02*
X196939285Y-84830476D01*
X196939285Y-84830476D02*
X197034523Y-84878095D01*
%TO.C,C30*%
X212717857Y-99247142D02*
X212765476Y-99294761D01*
X212765476Y-99294761D02*
X212908333Y-99342380D01*
X212908333Y-99342380D02*
X213003571Y-99342380D01*
X213003571Y-99342380D02*
X213146428Y-99294761D01*
X213146428Y-99294761D02*
X213241666Y-99199523D01*
X213241666Y-99199523D02*
X213289285Y-99104285D01*
X213289285Y-99104285D02*
X213336904Y-98913809D01*
X213336904Y-98913809D02*
X213336904Y-98770952D01*
X213336904Y-98770952D02*
X213289285Y-98580476D01*
X213289285Y-98580476D02*
X213241666Y-98485238D01*
X213241666Y-98485238D02*
X213146428Y-98390000D01*
X213146428Y-98390000D02*
X213003571Y-98342380D01*
X213003571Y-98342380D02*
X212908333Y-98342380D01*
X212908333Y-98342380D02*
X212765476Y-98390000D01*
X212765476Y-98390000D02*
X212717857Y-98437619D01*
X212384523Y-98342380D02*
X211765476Y-98342380D01*
X211765476Y-98342380D02*
X212098809Y-98723333D01*
X212098809Y-98723333D02*
X211955952Y-98723333D01*
X211955952Y-98723333D02*
X211860714Y-98770952D01*
X211860714Y-98770952D02*
X211813095Y-98818571D01*
X211813095Y-98818571D02*
X211765476Y-98913809D01*
X211765476Y-98913809D02*
X211765476Y-99151904D01*
X211765476Y-99151904D02*
X211813095Y-99247142D01*
X211813095Y-99247142D02*
X211860714Y-99294761D01*
X211860714Y-99294761D02*
X211955952Y-99342380D01*
X211955952Y-99342380D02*
X212241666Y-99342380D01*
X212241666Y-99342380D02*
X212336904Y-99294761D01*
X212336904Y-99294761D02*
X212384523Y-99247142D01*
X211146428Y-98342380D02*
X211051190Y-98342380D01*
X211051190Y-98342380D02*
X210955952Y-98390000D01*
X210955952Y-98390000D02*
X210908333Y-98437619D01*
X210908333Y-98437619D02*
X210860714Y-98532857D01*
X210860714Y-98532857D02*
X210813095Y-98723333D01*
X210813095Y-98723333D02*
X210813095Y-98961428D01*
X210813095Y-98961428D02*
X210860714Y-99151904D01*
X210860714Y-99151904D02*
X210908333Y-99247142D01*
X210908333Y-99247142D02*
X210955952Y-99294761D01*
X210955952Y-99294761D02*
X211051190Y-99342380D01*
X211051190Y-99342380D02*
X211146428Y-99342380D01*
X211146428Y-99342380D02*
X211241666Y-99294761D01*
X211241666Y-99294761D02*
X211289285Y-99247142D01*
X211289285Y-99247142D02*
X211336904Y-99151904D01*
X211336904Y-99151904D02*
X211384523Y-98961428D01*
X211384523Y-98961428D02*
X211384523Y-98723333D01*
X211384523Y-98723333D02*
X211336904Y-98532857D01*
X211336904Y-98532857D02*
X211289285Y-98437619D01*
X211289285Y-98437619D02*
X211241666Y-98390000D01*
X211241666Y-98390000D02*
X211146428Y-98342380D01*
%TO.C,BZ1*%
X120268571Y-86819047D02*
X120316190Y-86961904D01*
X120316190Y-86961904D02*
X120363809Y-87009523D01*
X120363809Y-87009523D02*
X120459047Y-87057142D01*
X120459047Y-87057142D02*
X120601904Y-87057142D01*
X120601904Y-87057142D02*
X120697142Y-87009523D01*
X120697142Y-87009523D02*
X120744761Y-86961904D01*
X120744761Y-86961904D02*
X120792380Y-86866666D01*
X120792380Y-86866666D02*
X120792380Y-86485714D01*
X120792380Y-86485714D02*
X119792380Y-86485714D01*
X119792380Y-86485714D02*
X119792380Y-86819047D01*
X119792380Y-86819047D02*
X119840000Y-86914285D01*
X119840000Y-86914285D02*
X119887619Y-86961904D01*
X119887619Y-86961904D02*
X119982857Y-87009523D01*
X119982857Y-87009523D02*
X120078095Y-87009523D01*
X120078095Y-87009523D02*
X120173333Y-86961904D01*
X120173333Y-86961904D02*
X120220952Y-86914285D01*
X120220952Y-86914285D02*
X120268571Y-86819047D01*
X120268571Y-86819047D02*
X120268571Y-86485714D01*
X119792380Y-87390476D02*
X119792380Y-88057142D01*
X119792380Y-88057142D02*
X120792380Y-87390476D01*
X120792380Y-87390476D02*
X120792380Y-88057142D01*
X120792380Y-88961904D02*
X120792380Y-88390476D01*
X120792380Y-88676190D02*
X119792380Y-88676190D01*
X119792380Y-88676190D02*
X119935238Y-88580952D01*
X119935238Y-88580952D02*
X120030476Y-88485714D01*
X120030476Y-88485714D02*
X120078095Y-88390476D01*
%TO.C,D9*%
X130988094Y-86792380D02*
X130988094Y-85792380D01*
X130988094Y-85792380D02*
X130749999Y-85792380D01*
X130749999Y-85792380D02*
X130607142Y-85840000D01*
X130607142Y-85840000D02*
X130511904Y-85935238D01*
X130511904Y-85935238D02*
X130464285Y-86030476D01*
X130464285Y-86030476D02*
X130416666Y-86220952D01*
X130416666Y-86220952D02*
X130416666Y-86363809D01*
X130416666Y-86363809D02*
X130464285Y-86554285D01*
X130464285Y-86554285D02*
X130511904Y-86649523D01*
X130511904Y-86649523D02*
X130607142Y-86744761D01*
X130607142Y-86744761D02*
X130749999Y-86792380D01*
X130749999Y-86792380D02*
X130988094Y-86792380D01*
X129940475Y-86792380D02*
X129749999Y-86792380D01*
X129749999Y-86792380D02*
X129654761Y-86744761D01*
X129654761Y-86744761D02*
X129607142Y-86697142D01*
X129607142Y-86697142D02*
X129511904Y-86554285D01*
X129511904Y-86554285D02*
X129464285Y-86363809D01*
X129464285Y-86363809D02*
X129464285Y-85982857D01*
X129464285Y-85982857D02*
X129511904Y-85887619D01*
X129511904Y-85887619D02*
X129559523Y-85840000D01*
X129559523Y-85840000D02*
X129654761Y-85792380D01*
X129654761Y-85792380D02*
X129845237Y-85792380D01*
X129845237Y-85792380D02*
X129940475Y-85840000D01*
X129940475Y-85840000D02*
X129988094Y-85887619D01*
X129988094Y-85887619D02*
X130035713Y-85982857D01*
X130035713Y-85982857D02*
X130035713Y-86220952D01*
X130035713Y-86220952D02*
X129988094Y-86316190D01*
X129988094Y-86316190D02*
X129940475Y-86363809D01*
X129940475Y-86363809D02*
X129845237Y-86411428D01*
X129845237Y-86411428D02*
X129654761Y-86411428D01*
X129654761Y-86411428D02*
X129559523Y-86363809D01*
X129559523Y-86363809D02*
X129511904Y-86316190D01*
X129511904Y-86316190D02*
X129464285Y-86220952D01*
%TO.C,Q5*%
X122795238Y-91037619D02*
X122890476Y-90990000D01*
X122890476Y-90990000D02*
X122985714Y-90894761D01*
X122985714Y-90894761D02*
X123128571Y-90751904D01*
X123128571Y-90751904D02*
X123223809Y-90704285D01*
X123223809Y-90704285D02*
X123319047Y-90704285D01*
X123271428Y-90942380D02*
X123366666Y-90894761D01*
X123366666Y-90894761D02*
X123461904Y-90799523D01*
X123461904Y-90799523D02*
X123509523Y-90609047D01*
X123509523Y-90609047D02*
X123509523Y-90275714D01*
X123509523Y-90275714D02*
X123461904Y-90085238D01*
X123461904Y-90085238D02*
X123366666Y-89990000D01*
X123366666Y-89990000D02*
X123271428Y-89942380D01*
X123271428Y-89942380D02*
X123080952Y-89942380D01*
X123080952Y-89942380D02*
X122985714Y-89990000D01*
X122985714Y-89990000D02*
X122890476Y-90085238D01*
X122890476Y-90085238D02*
X122842857Y-90275714D01*
X122842857Y-90275714D02*
X122842857Y-90609047D01*
X122842857Y-90609047D02*
X122890476Y-90799523D01*
X122890476Y-90799523D02*
X122985714Y-90894761D01*
X122985714Y-90894761D02*
X123080952Y-90942380D01*
X123080952Y-90942380D02*
X123271428Y-90942380D01*
X121938095Y-89942380D02*
X122414285Y-89942380D01*
X122414285Y-89942380D02*
X122461904Y-90418571D01*
X122461904Y-90418571D02*
X122414285Y-90370952D01*
X122414285Y-90370952D02*
X122319047Y-90323333D01*
X122319047Y-90323333D02*
X122080952Y-90323333D01*
X122080952Y-90323333D02*
X121985714Y-90370952D01*
X121985714Y-90370952D02*
X121938095Y-90418571D01*
X121938095Y-90418571D02*
X121890476Y-90513809D01*
X121890476Y-90513809D02*
X121890476Y-90751904D01*
X121890476Y-90751904D02*
X121938095Y-90847142D01*
X121938095Y-90847142D02*
X121985714Y-90894761D01*
X121985714Y-90894761D02*
X122080952Y-90942380D01*
X122080952Y-90942380D02*
X122319047Y-90942380D01*
X122319047Y-90942380D02*
X122414285Y-90894761D01*
X122414285Y-90894761D02*
X122461904Y-90847142D01*
%TO.C,C20*%
X187167857Y-83647142D02*
X187215476Y-83694761D01*
X187215476Y-83694761D02*
X187358333Y-83742380D01*
X187358333Y-83742380D02*
X187453571Y-83742380D01*
X187453571Y-83742380D02*
X187596428Y-83694761D01*
X187596428Y-83694761D02*
X187691666Y-83599523D01*
X187691666Y-83599523D02*
X187739285Y-83504285D01*
X187739285Y-83504285D02*
X187786904Y-83313809D01*
X187786904Y-83313809D02*
X187786904Y-83170952D01*
X187786904Y-83170952D02*
X187739285Y-82980476D01*
X187739285Y-82980476D02*
X187691666Y-82885238D01*
X187691666Y-82885238D02*
X187596428Y-82790000D01*
X187596428Y-82790000D02*
X187453571Y-82742380D01*
X187453571Y-82742380D02*
X187358333Y-82742380D01*
X187358333Y-82742380D02*
X187215476Y-82790000D01*
X187215476Y-82790000D02*
X187167857Y-82837619D01*
X186786904Y-82837619D02*
X186739285Y-82790000D01*
X186739285Y-82790000D02*
X186644047Y-82742380D01*
X186644047Y-82742380D02*
X186405952Y-82742380D01*
X186405952Y-82742380D02*
X186310714Y-82790000D01*
X186310714Y-82790000D02*
X186263095Y-82837619D01*
X186263095Y-82837619D02*
X186215476Y-82932857D01*
X186215476Y-82932857D02*
X186215476Y-83028095D01*
X186215476Y-83028095D02*
X186263095Y-83170952D01*
X186263095Y-83170952D02*
X186834523Y-83742380D01*
X186834523Y-83742380D02*
X186215476Y-83742380D01*
X185596428Y-82742380D02*
X185501190Y-82742380D01*
X185501190Y-82742380D02*
X185405952Y-82790000D01*
X185405952Y-82790000D02*
X185358333Y-82837619D01*
X185358333Y-82837619D02*
X185310714Y-82932857D01*
X185310714Y-82932857D02*
X185263095Y-83123333D01*
X185263095Y-83123333D02*
X185263095Y-83361428D01*
X185263095Y-83361428D02*
X185310714Y-83551904D01*
X185310714Y-83551904D02*
X185358333Y-83647142D01*
X185358333Y-83647142D02*
X185405952Y-83694761D01*
X185405952Y-83694761D02*
X185501190Y-83742380D01*
X185501190Y-83742380D02*
X185596428Y-83742380D01*
X185596428Y-83742380D02*
X185691666Y-83694761D01*
X185691666Y-83694761D02*
X185739285Y-83647142D01*
X185739285Y-83647142D02*
X185786904Y-83551904D01*
X185786904Y-83551904D02*
X185834523Y-83361428D01*
X185834523Y-83361428D02*
X185834523Y-83123333D01*
X185834523Y-83123333D02*
X185786904Y-82932857D01*
X185786904Y-82932857D02*
X185739285Y-82837619D01*
X185739285Y-82837619D02*
X185691666Y-82790000D01*
X185691666Y-82790000D02*
X185596428Y-82742380D01*
%TO.C,C3*%
X204672142Y-93708333D02*
X204719761Y-93660714D01*
X204719761Y-93660714D02*
X204767380Y-93517857D01*
X204767380Y-93517857D02*
X204767380Y-93422619D01*
X204767380Y-93422619D02*
X204719761Y-93279762D01*
X204719761Y-93279762D02*
X204624523Y-93184524D01*
X204624523Y-93184524D02*
X204529285Y-93136905D01*
X204529285Y-93136905D02*
X204338809Y-93089286D01*
X204338809Y-93089286D02*
X204195952Y-93089286D01*
X204195952Y-93089286D02*
X204005476Y-93136905D01*
X204005476Y-93136905D02*
X203910238Y-93184524D01*
X203910238Y-93184524D02*
X203815000Y-93279762D01*
X203815000Y-93279762D02*
X203767380Y-93422619D01*
X203767380Y-93422619D02*
X203767380Y-93517857D01*
X203767380Y-93517857D02*
X203815000Y-93660714D01*
X203815000Y-93660714D02*
X203862619Y-93708333D01*
X203767380Y-94041667D02*
X203767380Y-94660714D01*
X203767380Y-94660714D02*
X204148333Y-94327381D01*
X204148333Y-94327381D02*
X204148333Y-94470238D01*
X204148333Y-94470238D02*
X204195952Y-94565476D01*
X204195952Y-94565476D02*
X204243571Y-94613095D01*
X204243571Y-94613095D02*
X204338809Y-94660714D01*
X204338809Y-94660714D02*
X204576904Y-94660714D01*
X204576904Y-94660714D02*
X204672142Y-94613095D01*
X204672142Y-94613095D02*
X204719761Y-94565476D01*
X204719761Y-94565476D02*
X204767380Y-94470238D01*
X204767380Y-94470238D02*
X204767380Y-94184524D01*
X204767380Y-94184524D02*
X204719761Y-94089286D01*
X204719761Y-94089286D02*
X204672142Y-94041667D01*
%TO.C,D5*%
X146588094Y-89492380D02*
X146588094Y-88492380D01*
X146588094Y-88492380D02*
X146349999Y-88492380D01*
X146349999Y-88492380D02*
X146207142Y-88540000D01*
X146207142Y-88540000D02*
X146111904Y-88635238D01*
X146111904Y-88635238D02*
X146064285Y-88730476D01*
X146064285Y-88730476D02*
X146016666Y-88920952D01*
X146016666Y-88920952D02*
X146016666Y-89063809D01*
X146016666Y-89063809D02*
X146064285Y-89254285D01*
X146064285Y-89254285D02*
X146111904Y-89349523D01*
X146111904Y-89349523D02*
X146207142Y-89444761D01*
X146207142Y-89444761D02*
X146349999Y-89492380D01*
X146349999Y-89492380D02*
X146588094Y-89492380D01*
X145111904Y-88492380D02*
X145588094Y-88492380D01*
X145588094Y-88492380D02*
X145635713Y-88968571D01*
X145635713Y-88968571D02*
X145588094Y-88920952D01*
X145588094Y-88920952D02*
X145492856Y-88873333D01*
X145492856Y-88873333D02*
X145254761Y-88873333D01*
X145254761Y-88873333D02*
X145159523Y-88920952D01*
X145159523Y-88920952D02*
X145111904Y-88968571D01*
X145111904Y-88968571D02*
X145064285Y-89063809D01*
X145064285Y-89063809D02*
X145064285Y-89301904D01*
X145064285Y-89301904D02*
X145111904Y-89397142D01*
X145111904Y-89397142D02*
X145159523Y-89444761D01*
X145159523Y-89444761D02*
X145254761Y-89492380D01*
X145254761Y-89492380D02*
X145492856Y-89492380D01*
X145492856Y-89492380D02*
X145588094Y-89444761D01*
X145588094Y-89444761D02*
X145635713Y-89397142D01*
%TO.C,R1*%
X204366666Y-96342380D02*
X204699999Y-95866190D01*
X204938094Y-96342380D02*
X204938094Y-95342380D01*
X204938094Y-95342380D02*
X204557142Y-95342380D01*
X204557142Y-95342380D02*
X204461904Y-95390000D01*
X204461904Y-95390000D02*
X204414285Y-95437619D01*
X204414285Y-95437619D02*
X204366666Y-95532857D01*
X204366666Y-95532857D02*
X204366666Y-95675714D01*
X204366666Y-95675714D02*
X204414285Y-95770952D01*
X204414285Y-95770952D02*
X204461904Y-95818571D01*
X204461904Y-95818571D02*
X204557142Y-95866190D01*
X204557142Y-95866190D02*
X204938094Y-95866190D01*
X203414285Y-96342380D02*
X203985713Y-96342380D01*
X203699999Y-96342380D02*
X203699999Y-95342380D01*
X203699999Y-95342380D02*
X203795237Y-95485238D01*
X203795237Y-95485238D02*
X203890475Y-95580476D01*
X203890475Y-95580476D02*
X203985713Y-95628095D01*
%TO.C,R40*%
X214142380Y-88682142D02*
X213666190Y-88348809D01*
X214142380Y-88110714D02*
X213142380Y-88110714D01*
X213142380Y-88110714D02*
X213142380Y-88491666D01*
X213142380Y-88491666D02*
X213190000Y-88586904D01*
X213190000Y-88586904D02*
X213237619Y-88634523D01*
X213237619Y-88634523D02*
X213332857Y-88682142D01*
X213332857Y-88682142D02*
X213475714Y-88682142D01*
X213475714Y-88682142D02*
X213570952Y-88634523D01*
X213570952Y-88634523D02*
X213618571Y-88586904D01*
X213618571Y-88586904D02*
X213666190Y-88491666D01*
X213666190Y-88491666D02*
X213666190Y-88110714D01*
X213475714Y-89539285D02*
X214142380Y-89539285D01*
X213094761Y-89301190D02*
X213809047Y-89063095D01*
X213809047Y-89063095D02*
X213809047Y-89682142D01*
X213142380Y-90253571D02*
X213142380Y-90348809D01*
X213142380Y-90348809D02*
X213190000Y-90444047D01*
X213190000Y-90444047D02*
X213237619Y-90491666D01*
X213237619Y-90491666D02*
X213332857Y-90539285D01*
X213332857Y-90539285D02*
X213523333Y-90586904D01*
X213523333Y-90586904D02*
X213761428Y-90586904D01*
X213761428Y-90586904D02*
X213951904Y-90539285D01*
X213951904Y-90539285D02*
X214047142Y-90491666D01*
X214047142Y-90491666D02*
X214094761Y-90444047D01*
X214094761Y-90444047D02*
X214142380Y-90348809D01*
X214142380Y-90348809D02*
X214142380Y-90253571D01*
X214142380Y-90253571D02*
X214094761Y-90158333D01*
X214094761Y-90158333D02*
X214047142Y-90110714D01*
X214047142Y-90110714D02*
X213951904Y-90063095D01*
X213951904Y-90063095D02*
X213761428Y-90015476D01*
X213761428Y-90015476D02*
X213523333Y-90015476D01*
X213523333Y-90015476D02*
X213332857Y-90063095D01*
X213332857Y-90063095D02*
X213237619Y-90110714D01*
X213237619Y-90110714D02*
X213190000Y-90158333D01*
X213190000Y-90158333D02*
X213142380Y-90253571D01*
%TO.C,D7*%
X198588094Y-84192380D02*
X198588094Y-83192380D01*
X198588094Y-83192380D02*
X198349999Y-83192380D01*
X198349999Y-83192380D02*
X198207142Y-83240000D01*
X198207142Y-83240000D02*
X198111904Y-83335238D01*
X198111904Y-83335238D02*
X198064285Y-83430476D01*
X198064285Y-83430476D02*
X198016666Y-83620952D01*
X198016666Y-83620952D02*
X198016666Y-83763809D01*
X198016666Y-83763809D02*
X198064285Y-83954285D01*
X198064285Y-83954285D02*
X198111904Y-84049523D01*
X198111904Y-84049523D02*
X198207142Y-84144761D01*
X198207142Y-84144761D02*
X198349999Y-84192380D01*
X198349999Y-84192380D02*
X198588094Y-84192380D01*
X197683332Y-83192380D02*
X197016666Y-83192380D01*
X197016666Y-83192380D02*
X197445237Y-84192380D01*
%TO.C,R19*%
X212517380Y-89532142D02*
X212041190Y-89198809D01*
X212517380Y-88960714D02*
X211517380Y-88960714D01*
X211517380Y-88960714D02*
X211517380Y-89341666D01*
X211517380Y-89341666D02*
X211565000Y-89436904D01*
X211565000Y-89436904D02*
X211612619Y-89484523D01*
X211612619Y-89484523D02*
X211707857Y-89532142D01*
X211707857Y-89532142D02*
X211850714Y-89532142D01*
X211850714Y-89532142D02*
X211945952Y-89484523D01*
X211945952Y-89484523D02*
X211993571Y-89436904D01*
X211993571Y-89436904D02*
X212041190Y-89341666D01*
X212041190Y-89341666D02*
X212041190Y-88960714D01*
X212517380Y-90484523D02*
X212517380Y-89913095D01*
X212517380Y-90198809D02*
X211517380Y-90198809D01*
X211517380Y-90198809D02*
X211660238Y-90103571D01*
X211660238Y-90103571D02*
X211755476Y-90008333D01*
X211755476Y-90008333D02*
X211803095Y-89913095D01*
X212517380Y-90960714D02*
X212517380Y-91151190D01*
X212517380Y-91151190D02*
X212469761Y-91246428D01*
X212469761Y-91246428D02*
X212422142Y-91294047D01*
X212422142Y-91294047D02*
X212279285Y-91389285D01*
X212279285Y-91389285D02*
X212088809Y-91436904D01*
X212088809Y-91436904D02*
X211707857Y-91436904D01*
X211707857Y-91436904D02*
X211612619Y-91389285D01*
X211612619Y-91389285D02*
X211565000Y-91341666D01*
X211565000Y-91341666D02*
X211517380Y-91246428D01*
X211517380Y-91246428D02*
X211517380Y-91055952D01*
X211517380Y-91055952D02*
X211565000Y-90960714D01*
X211565000Y-90960714D02*
X211612619Y-90913095D01*
X211612619Y-90913095D02*
X211707857Y-90865476D01*
X211707857Y-90865476D02*
X211945952Y-90865476D01*
X211945952Y-90865476D02*
X212041190Y-90913095D01*
X212041190Y-90913095D02*
X212088809Y-90960714D01*
X212088809Y-90960714D02*
X212136428Y-91055952D01*
X212136428Y-91055952D02*
X212136428Y-91246428D01*
X212136428Y-91246428D02*
X212088809Y-91341666D01*
X212088809Y-91341666D02*
X212041190Y-91389285D01*
X212041190Y-91389285D02*
X211945952Y-91436904D01*
%TO.C,C16*%
X148717857Y-91797142D02*
X148765476Y-91844761D01*
X148765476Y-91844761D02*
X148908333Y-91892380D01*
X148908333Y-91892380D02*
X149003571Y-91892380D01*
X149003571Y-91892380D02*
X149146428Y-91844761D01*
X149146428Y-91844761D02*
X149241666Y-91749523D01*
X149241666Y-91749523D02*
X149289285Y-91654285D01*
X149289285Y-91654285D02*
X149336904Y-91463809D01*
X149336904Y-91463809D02*
X149336904Y-91320952D01*
X149336904Y-91320952D02*
X149289285Y-91130476D01*
X149289285Y-91130476D02*
X149241666Y-91035238D01*
X149241666Y-91035238D02*
X149146428Y-90940000D01*
X149146428Y-90940000D02*
X149003571Y-90892380D01*
X149003571Y-90892380D02*
X148908333Y-90892380D01*
X148908333Y-90892380D02*
X148765476Y-90940000D01*
X148765476Y-90940000D02*
X148717857Y-90987619D01*
X147765476Y-91892380D02*
X148336904Y-91892380D01*
X148051190Y-91892380D02*
X148051190Y-90892380D01*
X148051190Y-90892380D02*
X148146428Y-91035238D01*
X148146428Y-91035238D02*
X148241666Y-91130476D01*
X148241666Y-91130476D02*
X148336904Y-91178095D01*
X146908333Y-90892380D02*
X147098809Y-90892380D01*
X147098809Y-90892380D02*
X147194047Y-90940000D01*
X147194047Y-90940000D02*
X147241666Y-90987619D01*
X147241666Y-90987619D02*
X147336904Y-91130476D01*
X147336904Y-91130476D02*
X147384523Y-91320952D01*
X147384523Y-91320952D02*
X147384523Y-91701904D01*
X147384523Y-91701904D02*
X147336904Y-91797142D01*
X147336904Y-91797142D02*
X147289285Y-91844761D01*
X147289285Y-91844761D02*
X147194047Y-91892380D01*
X147194047Y-91892380D02*
X147003571Y-91892380D01*
X147003571Y-91892380D02*
X146908333Y-91844761D01*
X146908333Y-91844761D02*
X146860714Y-91797142D01*
X146860714Y-91797142D02*
X146813095Y-91701904D01*
X146813095Y-91701904D02*
X146813095Y-91463809D01*
X146813095Y-91463809D02*
X146860714Y-91368571D01*
X146860714Y-91368571D02*
X146908333Y-91320952D01*
X146908333Y-91320952D02*
X147003571Y-91273333D01*
X147003571Y-91273333D02*
X147194047Y-91273333D01*
X147194047Y-91273333D02*
X147289285Y-91320952D01*
X147289285Y-91320952D02*
X147336904Y-91368571D01*
X147336904Y-91368571D02*
X147384523Y-91463809D01*
%TO.C,C27*%
X141472002Y-83312865D02*
X141539346Y-83312865D01*
X141539346Y-83312865D02*
X141674033Y-83245521D01*
X141674033Y-83245521D02*
X141741376Y-83178178D01*
X141741376Y-83178178D02*
X141808720Y-83043491D01*
X141808720Y-83043491D02*
X141808720Y-82908804D01*
X141808720Y-82908804D02*
X141775048Y-82807789D01*
X141775048Y-82807789D02*
X141674033Y-82639430D01*
X141674033Y-82639430D02*
X141573017Y-82538415D01*
X141573017Y-82538415D02*
X141404659Y-82437399D01*
X141404659Y-82437399D02*
X141303643Y-82403728D01*
X141303643Y-82403728D02*
X141168956Y-82403728D01*
X141168956Y-82403728D02*
X141034269Y-82471071D01*
X141034269Y-82471071D02*
X140966926Y-82538415D01*
X140966926Y-82538415D02*
X140899582Y-82673102D01*
X140899582Y-82673102D02*
X140899582Y-82740445D01*
X140630208Y-83009819D02*
X140562865Y-83009819D01*
X140562865Y-83009819D02*
X140461850Y-83043491D01*
X140461850Y-83043491D02*
X140293491Y-83211850D01*
X140293491Y-83211850D02*
X140259819Y-83312865D01*
X140259819Y-83312865D02*
X140259819Y-83380208D01*
X140259819Y-83380208D02*
X140293491Y-83481224D01*
X140293491Y-83481224D02*
X140360834Y-83548567D01*
X140360834Y-83548567D02*
X140495521Y-83615911D01*
X140495521Y-83615911D02*
X141303643Y-83615911D01*
X141303643Y-83615911D02*
X140865911Y-84053643D01*
X139923102Y-83582239D02*
X139451697Y-84053643D01*
X139451697Y-84053643D02*
X140461850Y-84457704D01*
%TO.C,L1*%
X192766666Y-96617380D02*
X193242856Y-96617380D01*
X193242856Y-96617380D02*
X193242856Y-95617380D01*
X191909523Y-96617380D02*
X192480951Y-96617380D01*
X192195237Y-96617380D02*
X192195237Y-95617380D01*
X192195237Y-95617380D02*
X192290475Y-95760238D01*
X192290475Y-95760238D02*
X192385713Y-95855476D01*
X192385713Y-95855476D02*
X192480951Y-95903095D01*
%TO.C,C5*%
X194197142Y-84383333D02*
X194244761Y-84335714D01*
X194244761Y-84335714D02*
X194292380Y-84192857D01*
X194292380Y-84192857D02*
X194292380Y-84097619D01*
X194292380Y-84097619D02*
X194244761Y-83954762D01*
X194244761Y-83954762D02*
X194149523Y-83859524D01*
X194149523Y-83859524D02*
X194054285Y-83811905D01*
X194054285Y-83811905D02*
X193863809Y-83764286D01*
X193863809Y-83764286D02*
X193720952Y-83764286D01*
X193720952Y-83764286D02*
X193530476Y-83811905D01*
X193530476Y-83811905D02*
X193435238Y-83859524D01*
X193435238Y-83859524D02*
X193340000Y-83954762D01*
X193340000Y-83954762D02*
X193292380Y-84097619D01*
X193292380Y-84097619D02*
X193292380Y-84192857D01*
X193292380Y-84192857D02*
X193340000Y-84335714D01*
X193340000Y-84335714D02*
X193387619Y-84383333D01*
X193292380Y-85288095D02*
X193292380Y-84811905D01*
X193292380Y-84811905D02*
X193768571Y-84764286D01*
X193768571Y-84764286D02*
X193720952Y-84811905D01*
X193720952Y-84811905D02*
X193673333Y-84907143D01*
X193673333Y-84907143D02*
X193673333Y-85145238D01*
X193673333Y-85145238D02*
X193720952Y-85240476D01*
X193720952Y-85240476D02*
X193768571Y-85288095D01*
X193768571Y-85288095D02*
X193863809Y-85335714D01*
X193863809Y-85335714D02*
X194101904Y-85335714D01*
X194101904Y-85335714D02*
X194197142Y-85288095D01*
X194197142Y-85288095D02*
X194244761Y-85240476D01*
X194244761Y-85240476D02*
X194292380Y-85145238D01*
X194292380Y-85145238D02*
X194292380Y-84907143D01*
X194292380Y-84907143D02*
X194244761Y-84811905D01*
X194244761Y-84811905D02*
X194197142Y-84764286D01*
%TO.C,C11*%
X184242857Y-83572142D02*
X184290476Y-83619761D01*
X184290476Y-83619761D02*
X184433333Y-83667380D01*
X184433333Y-83667380D02*
X184528571Y-83667380D01*
X184528571Y-83667380D02*
X184671428Y-83619761D01*
X184671428Y-83619761D02*
X184766666Y-83524523D01*
X184766666Y-83524523D02*
X184814285Y-83429285D01*
X184814285Y-83429285D02*
X184861904Y-83238809D01*
X184861904Y-83238809D02*
X184861904Y-83095952D01*
X184861904Y-83095952D02*
X184814285Y-82905476D01*
X184814285Y-82905476D02*
X184766666Y-82810238D01*
X184766666Y-82810238D02*
X184671428Y-82715000D01*
X184671428Y-82715000D02*
X184528571Y-82667380D01*
X184528571Y-82667380D02*
X184433333Y-82667380D01*
X184433333Y-82667380D02*
X184290476Y-82715000D01*
X184290476Y-82715000D02*
X184242857Y-82762619D01*
X183290476Y-83667380D02*
X183861904Y-83667380D01*
X183576190Y-83667380D02*
X183576190Y-82667380D01*
X183576190Y-82667380D02*
X183671428Y-82810238D01*
X183671428Y-82810238D02*
X183766666Y-82905476D01*
X183766666Y-82905476D02*
X183861904Y-82953095D01*
X182338095Y-83667380D02*
X182909523Y-83667380D01*
X182623809Y-83667380D02*
X182623809Y-82667380D01*
X182623809Y-82667380D02*
X182719047Y-82810238D01*
X182719047Y-82810238D02*
X182814285Y-82905476D01*
X182814285Y-82905476D02*
X182909523Y-82953095D01*
%TO.C,D1*%
X209367380Y-84661905D02*
X208367380Y-84661905D01*
X208367380Y-84661905D02*
X208367380Y-84900000D01*
X208367380Y-84900000D02*
X208415000Y-85042857D01*
X208415000Y-85042857D02*
X208510238Y-85138095D01*
X208510238Y-85138095D02*
X208605476Y-85185714D01*
X208605476Y-85185714D02*
X208795952Y-85233333D01*
X208795952Y-85233333D02*
X208938809Y-85233333D01*
X208938809Y-85233333D02*
X209129285Y-85185714D01*
X209129285Y-85185714D02*
X209224523Y-85138095D01*
X209224523Y-85138095D02*
X209319761Y-85042857D01*
X209319761Y-85042857D02*
X209367380Y-84900000D01*
X209367380Y-84900000D02*
X209367380Y-84661905D01*
X209367380Y-86185714D02*
X209367380Y-85614286D01*
X209367380Y-85900000D02*
X208367380Y-85900000D01*
X208367380Y-85900000D02*
X208510238Y-85804762D01*
X208510238Y-85804762D02*
X208605476Y-85709524D01*
X208605476Y-85709524D02*
X208653095Y-85614286D01*
%TO.C,D8*%
X184113094Y-97992380D02*
X184113094Y-96992380D01*
X184113094Y-96992380D02*
X183874999Y-96992380D01*
X183874999Y-96992380D02*
X183732142Y-97040000D01*
X183732142Y-97040000D02*
X183636904Y-97135238D01*
X183636904Y-97135238D02*
X183589285Y-97230476D01*
X183589285Y-97230476D02*
X183541666Y-97420952D01*
X183541666Y-97420952D02*
X183541666Y-97563809D01*
X183541666Y-97563809D02*
X183589285Y-97754285D01*
X183589285Y-97754285D02*
X183636904Y-97849523D01*
X183636904Y-97849523D02*
X183732142Y-97944761D01*
X183732142Y-97944761D02*
X183874999Y-97992380D01*
X183874999Y-97992380D02*
X184113094Y-97992380D01*
X182970237Y-97420952D02*
X183065475Y-97373333D01*
X183065475Y-97373333D02*
X183113094Y-97325714D01*
X183113094Y-97325714D02*
X183160713Y-97230476D01*
X183160713Y-97230476D02*
X183160713Y-97182857D01*
X183160713Y-97182857D02*
X183113094Y-97087619D01*
X183113094Y-97087619D02*
X183065475Y-97040000D01*
X183065475Y-97040000D02*
X182970237Y-96992380D01*
X182970237Y-96992380D02*
X182779761Y-96992380D01*
X182779761Y-96992380D02*
X182684523Y-97040000D01*
X182684523Y-97040000D02*
X182636904Y-97087619D01*
X182636904Y-97087619D02*
X182589285Y-97182857D01*
X182589285Y-97182857D02*
X182589285Y-97230476D01*
X182589285Y-97230476D02*
X182636904Y-97325714D01*
X182636904Y-97325714D02*
X182684523Y-97373333D01*
X182684523Y-97373333D02*
X182779761Y-97420952D01*
X182779761Y-97420952D02*
X182970237Y-97420952D01*
X182970237Y-97420952D02*
X183065475Y-97468571D01*
X183065475Y-97468571D02*
X183113094Y-97516190D01*
X183113094Y-97516190D02*
X183160713Y-97611428D01*
X183160713Y-97611428D02*
X183160713Y-97801904D01*
X183160713Y-97801904D02*
X183113094Y-97897142D01*
X183113094Y-97897142D02*
X183065475Y-97944761D01*
X183065475Y-97944761D02*
X182970237Y-97992380D01*
X182970237Y-97992380D02*
X182779761Y-97992380D01*
X182779761Y-97992380D02*
X182684523Y-97944761D01*
X182684523Y-97944761D02*
X182636904Y-97897142D01*
X182636904Y-97897142D02*
X182589285Y-97801904D01*
X182589285Y-97801904D02*
X182589285Y-97611428D01*
X182589285Y-97611428D02*
X182636904Y-97516190D01*
X182636904Y-97516190D02*
X182684523Y-97468571D01*
X182684523Y-97468571D02*
X182779761Y-97420952D01*
%TO.C,R9*%
X136087380Y-97708333D02*
X135611190Y-97375000D01*
X136087380Y-97136905D02*
X135087380Y-97136905D01*
X135087380Y-97136905D02*
X135087380Y-97517857D01*
X135087380Y-97517857D02*
X135135000Y-97613095D01*
X135135000Y-97613095D02*
X135182619Y-97660714D01*
X135182619Y-97660714D02*
X135277857Y-97708333D01*
X135277857Y-97708333D02*
X135420714Y-97708333D01*
X135420714Y-97708333D02*
X135515952Y-97660714D01*
X135515952Y-97660714D02*
X135563571Y-97613095D01*
X135563571Y-97613095D02*
X135611190Y-97517857D01*
X135611190Y-97517857D02*
X135611190Y-97136905D01*
X136087380Y-98184524D02*
X136087380Y-98375000D01*
X136087380Y-98375000D02*
X136039761Y-98470238D01*
X136039761Y-98470238D02*
X135992142Y-98517857D01*
X135992142Y-98517857D02*
X135849285Y-98613095D01*
X135849285Y-98613095D02*
X135658809Y-98660714D01*
X135658809Y-98660714D02*
X135277857Y-98660714D01*
X135277857Y-98660714D02*
X135182619Y-98613095D01*
X135182619Y-98613095D02*
X135135000Y-98565476D01*
X135135000Y-98565476D02*
X135087380Y-98470238D01*
X135087380Y-98470238D02*
X135087380Y-98279762D01*
X135087380Y-98279762D02*
X135135000Y-98184524D01*
X135135000Y-98184524D02*
X135182619Y-98136905D01*
X135182619Y-98136905D02*
X135277857Y-98089286D01*
X135277857Y-98089286D02*
X135515952Y-98089286D01*
X135515952Y-98089286D02*
X135611190Y-98136905D01*
X135611190Y-98136905D02*
X135658809Y-98184524D01*
X135658809Y-98184524D02*
X135706428Y-98279762D01*
X135706428Y-98279762D02*
X135706428Y-98470238D01*
X135706428Y-98470238D02*
X135658809Y-98565476D01*
X135658809Y-98565476D02*
X135611190Y-98613095D01*
X135611190Y-98613095D02*
X135515952Y-98660714D01*
%TO.C,R2*%
X210892380Y-96158333D02*
X210416190Y-95825000D01*
X210892380Y-95586905D02*
X209892380Y-95586905D01*
X209892380Y-95586905D02*
X209892380Y-95967857D01*
X209892380Y-95967857D02*
X209940000Y-96063095D01*
X209940000Y-96063095D02*
X209987619Y-96110714D01*
X209987619Y-96110714D02*
X210082857Y-96158333D01*
X210082857Y-96158333D02*
X210225714Y-96158333D01*
X210225714Y-96158333D02*
X210320952Y-96110714D01*
X210320952Y-96110714D02*
X210368571Y-96063095D01*
X210368571Y-96063095D02*
X210416190Y-95967857D01*
X210416190Y-95967857D02*
X210416190Y-95586905D01*
X209987619Y-96539286D02*
X209940000Y-96586905D01*
X209940000Y-96586905D02*
X209892380Y-96682143D01*
X209892380Y-96682143D02*
X209892380Y-96920238D01*
X209892380Y-96920238D02*
X209940000Y-97015476D01*
X209940000Y-97015476D02*
X209987619Y-97063095D01*
X209987619Y-97063095D02*
X210082857Y-97110714D01*
X210082857Y-97110714D02*
X210178095Y-97110714D01*
X210178095Y-97110714D02*
X210320952Y-97063095D01*
X210320952Y-97063095D02*
X210892380Y-96491667D01*
X210892380Y-96491667D02*
X210892380Y-97110714D01*
%TO.C,C17*%
X151342857Y-91747142D02*
X151390476Y-91794761D01*
X151390476Y-91794761D02*
X151533333Y-91842380D01*
X151533333Y-91842380D02*
X151628571Y-91842380D01*
X151628571Y-91842380D02*
X151771428Y-91794761D01*
X151771428Y-91794761D02*
X151866666Y-91699523D01*
X151866666Y-91699523D02*
X151914285Y-91604285D01*
X151914285Y-91604285D02*
X151961904Y-91413809D01*
X151961904Y-91413809D02*
X151961904Y-91270952D01*
X151961904Y-91270952D02*
X151914285Y-91080476D01*
X151914285Y-91080476D02*
X151866666Y-90985238D01*
X151866666Y-90985238D02*
X151771428Y-90890000D01*
X151771428Y-90890000D02*
X151628571Y-90842380D01*
X151628571Y-90842380D02*
X151533333Y-90842380D01*
X151533333Y-90842380D02*
X151390476Y-90890000D01*
X151390476Y-90890000D02*
X151342857Y-90937619D01*
X150390476Y-91842380D02*
X150961904Y-91842380D01*
X150676190Y-91842380D02*
X150676190Y-90842380D01*
X150676190Y-90842380D02*
X150771428Y-90985238D01*
X150771428Y-90985238D02*
X150866666Y-91080476D01*
X150866666Y-91080476D02*
X150961904Y-91128095D01*
X150057142Y-90842380D02*
X149390476Y-90842380D01*
X149390476Y-90842380D02*
X149819047Y-91842380D01*
%TO.C,C14*%
X131512134Y-91122002D02*
X131512134Y-91189346D01*
X131512134Y-91189346D02*
X131579478Y-91324033D01*
X131579478Y-91324033D02*
X131646821Y-91391376D01*
X131646821Y-91391376D02*
X131781508Y-91458720D01*
X131781508Y-91458720D02*
X131916195Y-91458720D01*
X131916195Y-91458720D02*
X132017210Y-91425048D01*
X132017210Y-91425048D02*
X132185569Y-91324033D01*
X132185569Y-91324033D02*
X132286584Y-91223017D01*
X132286584Y-91223017D02*
X132387600Y-91054659D01*
X132387600Y-91054659D02*
X132421271Y-90953643D01*
X132421271Y-90953643D02*
X132421271Y-90818956D01*
X132421271Y-90818956D02*
X132353928Y-90684269D01*
X132353928Y-90684269D02*
X132286584Y-90616926D01*
X132286584Y-90616926D02*
X132151897Y-90549582D01*
X132151897Y-90549582D02*
X132084554Y-90549582D01*
X130771356Y-90515911D02*
X131175417Y-90919972D01*
X130973386Y-90717941D02*
X131680493Y-90010834D01*
X131680493Y-90010834D02*
X131646821Y-90179193D01*
X131646821Y-90179193D02*
X131646821Y-90313880D01*
X131646821Y-90313880D02*
X131680493Y-90414895D01*
X130636669Y-89438415D02*
X130165264Y-89909819D01*
X131074401Y-89337399D02*
X130737684Y-90010834D01*
X130737684Y-90010834D02*
X130299951Y-89573102D01*
%TO.C,U1*%
X203311904Y-93192380D02*
X203311904Y-94001904D01*
X203311904Y-94001904D02*
X203264285Y-94097142D01*
X203264285Y-94097142D02*
X203216666Y-94144761D01*
X203216666Y-94144761D02*
X203121428Y-94192380D01*
X203121428Y-94192380D02*
X202930952Y-94192380D01*
X202930952Y-94192380D02*
X202835714Y-94144761D01*
X202835714Y-94144761D02*
X202788095Y-94097142D01*
X202788095Y-94097142D02*
X202740476Y-94001904D01*
X202740476Y-94001904D02*
X202740476Y-93192380D01*
X201740476Y-94192380D02*
X202311904Y-94192380D01*
X202026190Y-94192380D02*
X202026190Y-93192380D01*
X202026190Y-93192380D02*
X202121428Y-93335238D01*
X202121428Y-93335238D02*
X202216666Y-93430476D01*
X202216666Y-93430476D02*
X202311904Y-93478095D01*
%TO.C,D4*%
X143842380Y-97961905D02*
X142842380Y-97961905D01*
X142842380Y-97961905D02*
X142842380Y-98200000D01*
X142842380Y-98200000D02*
X142890000Y-98342857D01*
X142890000Y-98342857D02*
X142985238Y-98438095D01*
X142985238Y-98438095D02*
X143080476Y-98485714D01*
X143080476Y-98485714D02*
X143270952Y-98533333D01*
X143270952Y-98533333D02*
X143413809Y-98533333D01*
X143413809Y-98533333D02*
X143604285Y-98485714D01*
X143604285Y-98485714D02*
X143699523Y-98438095D01*
X143699523Y-98438095D02*
X143794761Y-98342857D01*
X143794761Y-98342857D02*
X143842380Y-98200000D01*
X143842380Y-98200000D02*
X143842380Y-97961905D01*
X143175714Y-99390476D02*
X143842380Y-99390476D01*
X142794761Y-99152381D02*
X143509047Y-98914286D01*
X143509047Y-98914286D02*
X143509047Y-99533333D01*
%TO.C,J3*%
X221467380Y-90666666D02*
X222181666Y-90666666D01*
X222181666Y-90666666D02*
X222324523Y-90619047D01*
X222324523Y-90619047D02*
X222419761Y-90523809D01*
X222419761Y-90523809D02*
X222467380Y-90380952D01*
X222467380Y-90380952D02*
X222467380Y-90285714D01*
X221467380Y-91047619D02*
X221467380Y-91666666D01*
X221467380Y-91666666D02*
X221848333Y-91333333D01*
X221848333Y-91333333D02*
X221848333Y-91476190D01*
X221848333Y-91476190D02*
X221895952Y-91571428D01*
X221895952Y-91571428D02*
X221943571Y-91619047D01*
X221943571Y-91619047D02*
X222038809Y-91666666D01*
X222038809Y-91666666D02*
X222276904Y-91666666D01*
X222276904Y-91666666D02*
X222372142Y-91619047D01*
X222372142Y-91619047D02*
X222419761Y-91571428D01*
X222419761Y-91571428D02*
X222467380Y-91476190D01*
X222467380Y-91476190D02*
X222467380Y-91190476D01*
X222467380Y-91190476D02*
X222419761Y-91095238D01*
X222419761Y-91095238D02*
X222372142Y-91047619D01*
%TO.C,R5*%
X203966666Y-88717380D02*
X204299999Y-88241190D01*
X204538094Y-88717380D02*
X204538094Y-87717380D01*
X204538094Y-87717380D02*
X204157142Y-87717380D01*
X204157142Y-87717380D02*
X204061904Y-87765000D01*
X204061904Y-87765000D02*
X204014285Y-87812619D01*
X204014285Y-87812619D02*
X203966666Y-87907857D01*
X203966666Y-87907857D02*
X203966666Y-88050714D01*
X203966666Y-88050714D02*
X204014285Y-88145952D01*
X204014285Y-88145952D02*
X204061904Y-88193571D01*
X204061904Y-88193571D02*
X204157142Y-88241190D01*
X204157142Y-88241190D02*
X204538094Y-88241190D01*
X203061904Y-87717380D02*
X203538094Y-87717380D01*
X203538094Y-87717380D02*
X203585713Y-88193571D01*
X203585713Y-88193571D02*
X203538094Y-88145952D01*
X203538094Y-88145952D02*
X203442856Y-88098333D01*
X203442856Y-88098333D02*
X203204761Y-88098333D01*
X203204761Y-88098333D02*
X203109523Y-88145952D01*
X203109523Y-88145952D02*
X203061904Y-88193571D01*
X203061904Y-88193571D02*
X203014285Y-88288809D01*
X203014285Y-88288809D02*
X203014285Y-88526904D01*
X203014285Y-88526904D02*
X203061904Y-88622142D01*
X203061904Y-88622142D02*
X203109523Y-88669761D01*
X203109523Y-88669761D02*
X203204761Y-88717380D01*
X203204761Y-88717380D02*
X203442856Y-88717380D01*
X203442856Y-88717380D02*
X203538094Y-88669761D01*
X203538094Y-88669761D02*
X203585713Y-88622142D01*
%TO.C,C28*%
X140347002Y-86887865D02*
X140414346Y-86887865D01*
X140414346Y-86887865D02*
X140549033Y-86820521D01*
X140549033Y-86820521D02*
X140616376Y-86753178D01*
X140616376Y-86753178D02*
X140683720Y-86618491D01*
X140683720Y-86618491D02*
X140683720Y-86483804D01*
X140683720Y-86483804D02*
X140650048Y-86382789D01*
X140650048Y-86382789D02*
X140549033Y-86214430D01*
X140549033Y-86214430D02*
X140448017Y-86113415D01*
X140448017Y-86113415D02*
X140279659Y-86012399D01*
X140279659Y-86012399D02*
X140178643Y-85978728D01*
X140178643Y-85978728D02*
X140043956Y-85978728D01*
X140043956Y-85978728D02*
X139909269Y-86046071D01*
X139909269Y-86046071D02*
X139841926Y-86113415D01*
X139841926Y-86113415D02*
X139774582Y-86248102D01*
X139774582Y-86248102D02*
X139774582Y-86315445D01*
X139505208Y-86584819D02*
X139437865Y-86584819D01*
X139437865Y-86584819D02*
X139336850Y-86618491D01*
X139336850Y-86618491D02*
X139168491Y-86786850D01*
X139168491Y-86786850D02*
X139134819Y-86887865D01*
X139134819Y-86887865D02*
X139134819Y-86955208D01*
X139134819Y-86955208D02*
X139168491Y-87056224D01*
X139168491Y-87056224D02*
X139235834Y-87123567D01*
X139235834Y-87123567D02*
X139370521Y-87190911D01*
X139370521Y-87190911D02*
X140178643Y-87190911D01*
X140178643Y-87190911D02*
X139740911Y-87628643D01*
X138932789Y-87628643D02*
X138966460Y-87527628D01*
X138966460Y-87527628D02*
X138966460Y-87460285D01*
X138966460Y-87460285D02*
X138932789Y-87359269D01*
X138932789Y-87359269D02*
X138899117Y-87325598D01*
X138899117Y-87325598D02*
X138798102Y-87291926D01*
X138798102Y-87291926D02*
X138730758Y-87291926D01*
X138730758Y-87291926D02*
X138629743Y-87325598D01*
X138629743Y-87325598D02*
X138495056Y-87460285D01*
X138495056Y-87460285D02*
X138461384Y-87561300D01*
X138461384Y-87561300D02*
X138461384Y-87628643D01*
X138461384Y-87628643D02*
X138495056Y-87729659D01*
X138495056Y-87729659D02*
X138528728Y-87763330D01*
X138528728Y-87763330D02*
X138629743Y-87797002D01*
X138629743Y-87797002D02*
X138697086Y-87797002D01*
X138697086Y-87797002D02*
X138798102Y-87763330D01*
X138798102Y-87763330D02*
X138932789Y-87628643D01*
X138932789Y-87628643D02*
X139033804Y-87594972D01*
X139033804Y-87594972D02*
X139101147Y-87594972D01*
X139101147Y-87594972D02*
X139202163Y-87628643D01*
X139202163Y-87628643D02*
X139336850Y-87763330D01*
X139336850Y-87763330D02*
X139370521Y-87864346D01*
X139370521Y-87864346D02*
X139370521Y-87931689D01*
X139370521Y-87931689D02*
X139336850Y-88032704D01*
X139336850Y-88032704D02*
X139202163Y-88167391D01*
X139202163Y-88167391D02*
X139101147Y-88201063D01*
X139101147Y-88201063D02*
X139033804Y-88201063D01*
X139033804Y-88201063D02*
X138932789Y-88167391D01*
X138932789Y-88167391D02*
X138798102Y-88032704D01*
X138798102Y-88032704D02*
X138764430Y-87931689D01*
X138764430Y-87931689D02*
X138764430Y-87864346D01*
X138764430Y-87864346D02*
X138798102Y-87763330D01*
%TO.C,Q2*%
X209462619Y-89154761D02*
X209415000Y-89059523D01*
X209415000Y-89059523D02*
X209319761Y-88964285D01*
X209319761Y-88964285D02*
X209176904Y-88821428D01*
X209176904Y-88821428D02*
X209129285Y-88726190D01*
X209129285Y-88726190D02*
X209129285Y-88630952D01*
X209367380Y-88678571D02*
X209319761Y-88583333D01*
X209319761Y-88583333D02*
X209224523Y-88488095D01*
X209224523Y-88488095D02*
X209034047Y-88440476D01*
X209034047Y-88440476D02*
X208700714Y-88440476D01*
X208700714Y-88440476D02*
X208510238Y-88488095D01*
X208510238Y-88488095D02*
X208415000Y-88583333D01*
X208415000Y-88583333D02*
X208367380Y-88678571D01*
X208367380Y-88678571D02*
X208367380Y-88869047D01*
X208367380Y-88869047D02*
X208415000Y-88964285D01*
X208415000Y-88964285D02*
X208510238Y-89059523D01*
X208510238Y-89059523D02*
X208700714Y-89107142D01*
X208700714Y-89107142D02*
X209034047Y-89107142D01*
X209034047Y-89107142D02*
X209224523Y-89059523D01*
X209224523Y-89059523D02*
X209319761Y-88964285D01*
X209319761Y-88964285D02*
X209367380Y-88869047D01*
X209367380Y-88869047D02*
X209367380Y-88678571D01*
X208462619Y-89488095D02*
X208415000Y-89535714D01*
X208415000Y-89535714D02*
X208367380Y-89630952D01*
X208367380Y-89630952D02*
X208367380Y-89869047D01*
X208367380Y-89869047D02*
X208415000Y-89964285D01*
X208415000Y-89964285D02*
X208462619Y-90011904D01*
X208462619Y-90011904D02*
X208557857Y-90059523D01*
X208557857Y-90059523D02*
X208653095Y-90059523D01*
X208653095Y-90059523D02*
X208795952Y-90011904D01*
X208795952Y-90011904D02*
X209367380Y-89440476D01*
X209367380Y-89440476D02*
X209367380Y-90059523D01*
%TO.C,C2*%
X207016666Y-99222142D02*
X207064285Y-99269761D01*
X207064285Y-99269761D02*
X207207142Y-99317380D01*
X207207142Y-99317380D02*
X207302380Y-99317380D01*
X207302380Y-99317380D02*
X207445237Y-99269761D01*
X207445237Y-99269761D02*
X207540475Y-99174523D01*
X207540475Y-99174523D02*
X207588094Y-99079285D01*
X207588094Y-99079285D02*
X207635713Y-98888809D01*
X207635713Y-98888809D02*
X207635713Y-98745952D01*
X207635713Y-98745952D02*
X207588094Y-98555476D01*
X207588094Y-98555476D02*
X207540475Y-98460238D01*
X207540475Y-98460238D02*
X207445237Y-98365000D01*
X207445237Y-98365000D02*
X207302380Y-98317380D01*
X207302380Y-98317380D02*
X207207142Y-98317380D01*
X207207142Y-98317380D02*
X207064285Y-98365000D01*
X207064285Y-98365000D02*
X207016666Y-98412619D01*
X206635713Y-98412619D02*
X206588094Y-98365000D01*
X206588094Y-98365000D02*
X206492856Y-98317380D01*
X206492856Y-98317380D02*
X206254761Y-98317380D01*
X206254761Y-98317380D02*
X206159523Y-98365000D01*
X206159523Y-98365000D02*
X206111904Y-98412619D01*
X206111904Y-98412619D02*
X206064285Y-98507857D01*
X206064285Y-98507857D02*
X206064285Y-98603095D01*
X206064285Y-98603095D02*
X206111904Y-98745952D01*
X206111904Y-98745952D02*
X206683332Y-99317380D01*
X206683332Y-99317380D02*
X206064285Y-99317380D01*
%TO.C,C4*%
X202691666Y-95372142D02*
X202739285Y-95419761D01*
X202739285Y-95419761D02*
X202882142Y-95467380D01*
X202882142Y-95467380D02*
X202977380Y-95467380D01*
X202977380Y-95467380D02*
X203120237Y-95419761D01*
X203120237Y-95419761D02*
X203215475Y-95324523D01*
X203215475Y-95324523D02*
X203263094Y-95229285D01*
X203263094Y-95229285D02*
X203310713Y-95038809D01*
X203310713Y-95038809D02*
X203310713Y-94895952D01*
X203310713Y-94895952D02*
X203263094Y-94705476D01*
X203263094Y-94705476D02*
X203215475Y-94610238D01*
X203215475Y-94610238D02*
X203120237Y-94515000D01*
X203120237Y-94515000D02*
X202977380Y-94467380D01*
X202977380Y-94467380D02*
X202882142Y-94467380D01*
X202882142Y-94467380D02*
X202739285Y-94515000D01*
X202739285Y-94515000D02*
X202691666Y-94562619D01*
X201834523Y-94800714D02*
X201834523Y-95467380D01*
X202072618Y-94419761D02*
X202310713Y-95134047D01*
X202310713Y-95134047D02*
X201691666Y-95134047D01*
%TO.C,D6*%
X126963094Y-86792380D02*
X126963094Y-85792380D01*
X126963094Y-85792380D02*
X126724999Y-85792380D01*
X126724999Y-85792380D02*
X126582142Y-85840000D01*
X126582142Y-85840000D02*
X126486904Y-85935238D01*
X126486904Y-85935238D02*
X126439285Y-86030476D01*
X126439285Y-86030476D02*
X126391666Y-86220952D01*
X126391666Y-86220952D02*
X126391666Y-86363809D01*
X126391666Y-86363809D02*
X126439285Y-86554285D01*
X126439285Y-86554285D02*
X126486904Y-86649523D01*
X126486904Y-86649523D02*
X126582142Y-86744761D01*
X126582142Y-86744761D02*
X126724999Y-86792380D01*
X126724999Y-86792380D02*
X126963094Y-86792380D01*
X125534523Y-85792380D02*
X125724999Y-85792380D01*
X125724999Y-85792380D02*
X125820237Y-85840000D01*
X125820237Y-85840000D02*
X125867856Y-85887619D01*
X125867856Y-85887619D02*
X125963094Y-86030476D01*
X125963094Y-86030476D02*
X126010713Y-86220952D01*
X126010713Y-86220952D02*
X126010713Y-86601904D01*
X126010713Y-86601904D02*
X125963094Y-86697142D01*
X125963094Y-86697142D02*
X125915475Y-86744761D01*
X125915475Y-86744761D02*
X125820237Y-86792380D01*
X125820237Y-86792380D02*
X125629761Y-86792380D01*
X125629761Y-86792380D02*
X125534523Y-86744761D01*
X125534523Y-86744761D02*
X125486904Y-86697142D01*
X125486904Y-86697142D02*
X125439285Y-86601904D01*
X125439285Y-86601904D02*
X125439285Y-86363809D01*
X125439285Y-86363809D02*
X125486904Y-86268571D01*
X125486904Y-86268571D02*
X125534523Y-86220952D01*
X125534523Y-86220952D02*
X125629761Y-86173333D01*
X125629761Y-86173333D02*
X125820237Y-86173333D01*
X125820237Y-86173333D02*
X125915475Y-86220952D01*
X125915475Y-86220952D02*
X125963094Y-86268571D01*
X125963094Y-86268571D02*
X126010713Y-86363809D01*
%TO.C,U6*%
X218436904Y-96742380D02*
X218436904Y-97551904D01*
X218436904Y-97551904D02*
X218389285Y-97647142D01*
X218389285Y-97647142D02*
X218341666Y-97694761D01*
X218341666Y-97694761D02*
X218246428Y-97742380D01*
X218246428Y-97742380D02*
X218055952Y-97742380D01*
X218055952Y-97742380D02*
X217960714Y-97694761D01*
X217960714Y-97694761D02*
X217913095Y-97647142D01*
X217913095Y-97647142D02*
X217865476Y-97551904D01*
X217865476Y-97551904D02*
X217865476Y-96742380D01*
X216960714Y-96742380D02*
X217151190Y-96742380D01*
X217151190Y-96742380D02*
X217246428Y-96790000D01*
X217246428Y-96790000D02*
X217294047Y-96837619D01*
X217294047Y-96837619D02*
X217389285Y-96980476D01*
X217389285Y-96980476D02*
X217436904Y-97170952D01*
X217436904Y-97170952D02*
X217436904Y-97551904D01*
X217436904Y-97551904D02*
X217389285Y-97647142D01*
X217389285Y-97647142D02*
X217341666Y-97694761D01*
X217341666Y-97694761D02*
X217246428Y-97742380D01*
X217246428Y-97742380D02*
X217055952Y-97742380D01*
X217055952Y-97742380D02*
X216960714Y-97694761D01*
X216960714Y-97694761D02*
X216913095Y-97647142D01*
X216913095Y-97647142D02*
X216865476Y-97551904D01*
X216865476Y-97551904D02*
X216865476Y-97313809D01*
X216865476Y-97313809D02*
X216913095Y-97218571D01*
X216913095Y-97218571D02*
X216960714Y-97170952D01*
X216960714Y-97170952D02*
X217055952Y-97123333D01*
X217055952Y-97123333D02*
X217246428Y-97123333D01*
X217246428Y-97123333D02*
X217341666Y-97170952D01*
X217341666Y-97170952D02*
X217389285Y-97218571D01*
X217389285Y-97218571D02*
X217436904Y-97313809D01*
%TO.C,E1*%
X102190475Y-94393571D02*
X101857142Y-94393571D01*
X101714285Y-94917380D02*
X102190475Y-94917380D01*
X102190475Y-94917380D02*
X102190475Y-93917380D01*
X102190475Y-93917380D02*
X101714285Y-93917380D01*
X100761904Y-94917380D02*
X101333332Y-94917380D01*
X101047618Y-94917380D02*
X101047618Y-93917380D01*
X101047618Y-93917380D02*
X101142856Y-94060238D01*
X101142856Y-94060238D02*
X101238094Y-94155476D01*
X101238094Y-94155476D02*
X101333332Y-94203095D01*
%TO.C,U4*%
X132970717Y-86066327D02*
X133543137Y-86638747D01*
X133543137Y-86638747D02*
X133576809Y-86739762D01*
X133576809Y-86739762D02*
X133576809Y-86807106D01*
X133576809Y-86807106D02*
X133543137Y-86908121D01*
X133543137Y-86908121D02*
X133408450Y-87042808D01*
X133408450Y-87042808D02*
X133307435Y-87076480D01*
X133307435Y-87076480D02*
X133240091Y-87076480D01*
X133240091Y-87076480D02*
X133139076Y-87042808D01*
X133139076Y-87042808D02*
X132566656Y-86470388D01*
X132162595Y-87345854D02*
X132634000Y-87817258D01*
X132061580Y-86908121D02*
X132735015Y-87244839D01*
X132735015Y-87244839D02*
X132297282Y-87682571D01*
%TO.C,J1*%
X129262380Y-97116666D02*
X129976666Y-97116666D01*
X129976666Y-97116666D02*
X130119523Y-97069047D01*
X130119523Y-97069047D02*
X130214761Y-96973809D01*
X130214761Y-96973809D02*
X130262380Y-96830952D01*
X130262380Y-96830952D02*
X130262380Y-96735714D01*
X130262380Y-98116666D02*
X130262380Y-97545238D01*
X130262380Y-97830952D02*
X129262380Y-97830952D01*
X129262380Y-97830952D02*
X129405238Y-97735714D01*
X129405238Y-97735714D02*
X129500476Y-97640476D01*
X129500476Y-97640476D02*
X129548095Y-97545238D01*
%TO.C,-P1*%
X165157142Y-94436428D02*
X164395238Y-94436428D01*
X163919047Y-94817380D02*
X163919047Y-93817380D01*
X163919047Y-93817380D02*
X163538095Y-93817380D01*
X163538095Y-93817380D02*
X163442857Y-93865000D01*
X163442857Y-93865000D02*
X163395238Y-93912619D01*
X163395238Y-93912619D02*
X163347619Y-94007857D01*
X163347619Y-94007857D02*
X163347619Y-94150714D01*
X163347619Y-94150714D02*
X163395238Y-94245952D01*
X163395238Y-94245952D02*
X163442857Y-94293571D01*
X163442857Y-94293571D02*
X163538095Y-94341190D01*
X163538095Y-94341190D02*
X163919047Y-94341190D01*
X162395238Y-94817380D02*
X162966666Y-94817380D01*
X162680952Y-94817380D02*
X162680952Y-93817380D01*
X162680952Y-93817380D02*
X162776190Y-93960238D01*
X162776190Y-93960238D02*
X162871428Y-94055476D01*
X162871428Y-94055476D02*
X162966666Y-94103095D01*
%TO.C,D2*%
X170438094Y-97692380D02*
X170438094Y-96692380D01*
X170438094Y-96692380D02*
X170199999Y-96692380D01*
X170199999Y-96692380D02*
X170057142Y-96740000D01*
X170057142Y-96740000D02*
X169961904Y-96835238D01*
X169961904Y-96835238D02*
X169914285Y-96930476D01*
X169914285Y-96930476D02*
X169866666Y-97120952D01*
X169866666Y-97120952D02*
X169866666Y-97263809D01*
X169866666Y-97263809D02*
X169914285Y-97454285D01*
X169914285Y-97454285D02*
X169961904Y-97549523D01*
X169961904Y-97549523D02*
X170057142Y-97644761D01*
X170057142Y-97644761D02*
X170199999Y-97692380D01*
X170199999Y-97692380D02*
X170438094Y-97692380D01*
X169485713Y-96787619D02*
X169438094Y-96740000D01*
X169438094Y-96740000D02*
X169342856Y-96692380D01*
X169342856Y-96692380D02*
X169104761Y-96692380D01*
X169104761Y-96692380D02*
X169009523Y-96740000D01*
X169009523Y-96740000D02*
X168961904Y-96787619D01*
X168961904Y-96787619D02*
X168914285Y-96882857D01*
X168914285Y-96882857D02*
X168914285Y-96978095D01*
X168914285Y-96978095D02*
X168961904Y-97120952D01*
X168961904Y-97120952D02*
X169533332Y-97692380D01*
X169533332Y-97692380D02*
X168914285Y-97692380D01*
%TO.C,Q3*%
X159795238Y-97412619D02*
X159890476Y-97365000D01*
X159890476Y-97365000D02*
X159985714Y-97269761D01*
X159985714Y-97269761D02*
X160128571Y-97126904D01*
X160128571Y-97126904D02*
X160223809Y-97079285D01*
X160223809Y-97079285D02*
X160319047Y-97079285D01*
X160271428Y-97317380D02*
X160366666Y-97269761D01*
X160366666Y-97269761D02*
X160461904Y-97174523D01*
X160461904Y-97174523D02*
X160509523Y-96984047D01*
X160509523Y-96984047D02*
X160509523Y-96650714D01*
X160509523Y-96650714D02*
X160461904Y-96460238D01*
X160461904Y-96460238D02*
X160366666Y-96365000D01*
X160366666Y-96365000D02*
X160271428Y-96317380D01*
X160271428Y-96317380D02*
X160080952Y-96317380D01*
X160080952Y-96317380D02*
X159985714Y-96365000D01*
X159985714Y-96365000D02*
X159890476Y-96460238D01*
X159890476Y-96460238D02*
X159842857Y-96650714D01*
X159842857Y-96650714D02*
X159842857Y-96984047D01*
X159842857Y-96984047D02*
X159890476Y-97174523D01*
X159890476Y-97174523D02*
X159985714Y-97269761D01*
X159985714Y-97269761D02*
X160080952Y-97317380D01*
X160080952Y-97317380D02*
X160271428Y-97317380D01*
X159509523Y-96317380D02*
X158890476Y-96317380D01*
X158890476Y-96317380D02*
X159223809Y-96698333D01*
X159223809Y-96698333D02*
X159080952Y-96698333D01*
X159080952Y-96698333D02*
X158985714Y-96745952D01*
X158985714Y-96745952D02*
X158938095Y-96793571D01*
X158938095Y-96793571D02*
X158890476Y-96888809D01*
X158890476Y-96888809D02*
X158890476Y-97126904D01*
X158890476Y-97126904D02*
X158938095Y-97222142D01*
X158938095Y-97222142D02*
X158985714Y-97269761D01*
X158985714Y-97269761D02*
X159080952Y-97317380D01*
X159080952Y-97317380D02*
X159366666Y-97317380D01*
X159366666Y-97317380D02*
X159461904Y-97269761D01*
X159461904Y-97269761D02*
X159509523Y-97222142D01*
%TO.C,U2*%
X152861904Y-85442380D02*
X152861904Y-86251904D01*
X152861904Y-86251904D02*
X152814285Y-86347142D01*
X152814285Y-86347142D02*
X152766666Y-86394761D01*
X152766666Y-86394761D02*
X152671428Y-86442380D01*
X152671428Y-86442380D02*
X152480952Y-86442380D01*
X152480952Y-86442380D02*
X152385714Y-86394761D01*
X152385714Y-86394761D02*
X152338095Y-86347142D01*
X152338095Y-86347142D02*
X152290476Y-86251904D01*
X152290476Y-86251904D02*
X152290476Y-85442380D01*
X151861904Y-85537619D02*
X151814285Y-85490000D01*
X151814285Y-85490000D02*
X151719047Y-85442380D01*
X151719047Y-85442380D02*
X151480952Y-85442380D01*
X151480952Y-85442380D02*
X151385714Y-85490000D01*
X151385714Y-85490000D02*
X151338095Y-85537619D01*
X151338095Y-85537619D02*
X151290476Y-85632857D01*
X151290476Y-85632857D02*
X151290476Y-85728095D01*
X151290476Y-85728095D02*
X151338095Y-85870952D01*
X151338095Y-85870952D02*
X151909523Y-86442380D01*
X151909523Y-86442380D02*
X151290476Y-86442380D01*
%TO.C,+P1*%
X174107142Y-94536428D02*
X173345238Y-94536428D01*
X173726190Y-94917380D02*
X173726190Y-94155476D01*
X172869047Y-94917380D02*
X172869047Y-93917380D01*
X172869047Y-93917380D02*
X172488095Y-93917380D01*
X172488095Y-93917380D02*
X172392857Y-93965000D01*
X172392857Y-93965000D02*
X172345238Y-94012619D01*
X172345238Y-94012619D02*
X172297619Y-94107857D01*
X172297619Y-94107857D02*
X172297619Y-94250714D01*
X172297619Y-94250714D02*
X172345238Y-94345952D01*
X172345238Y-94345952D02*
X172392857Y-94393571D01*
X172392857Y-94393571D02*
X172488095Y-94441190D01*
X172488095Y-94441190D02*
X172869047Y-94441190D01*
X171345238Y-94917380D02*
X171916666Y-94917380D01*
X171630952Y-94917380D02*
X171630952Y-93917380D01*
X171630952Y-93917380D02*
X171726190Y-94060238D01*
X171726190Y-94060238D02*
X171821428Y-94155476D01*
X171821428Y-94155476D02*
X171916666Y-94203095D01*
D12*
%TO.C,R28*%
X189512258Y-87972500D02*
X189037742Y-87972500D01*
X189512258Y-86927500D02*
X189037742Y-86927500D01*
D11*
%TO.C,U5*%
X182500000Y-92750000D02*
X182500000Y-92225000D01*
X182500000Y-92750000D02*
X183025000Y-92750000D01*
X182500000Y-88450000D02*
X182500000Y-88975000D01*
X182500000Y-88450000D02*
X183025000Y-88450000D01*
X186800000Y-92750000D02*
X186275000Y-92750000D01*
X186800000Y-92750000D02*
X186800000Y-92225000D01*
X186800000Y-88450000D02*
X186275000Y-88450000D01*
D12*
%TO.C,C15*%
X133890580Y-82740000D02*
X133609420Y-82740000D01*
X133890580Y-83760000D02*
X133609420Y-83760000D01*
%TO.C,R17*%
X147772500Y-86412258D02*
X147772500Y-85937742D01*
X146727500Y-86412258D02*
X146727500Y-85937742D01*
%TO.C,C25*%
X131673792Y-94386982D02*
X132043259Y-94756449D01*
X132713239Y-93347535D02*
X133082706Y-93717002D01*
%TO.C,R15*%
X150212258Y-89177500D02*
X149737742Y-89177500D01*
X150212258Y-90222500D02*
X149737742Y-90222500D01*
%TO.C,R7*%
X159990000Y-84572936D02*
X159990000Y-86027064D01*
X161810000Y-84572936D02*
X161810000Y-86027064D01*
%TO.C,C6*%
X157740580Y-82695000D02*
X157459420Y-82695000D01*
X157740580Y-83715000D02*
X157459420Y-83715000D01*
%TO.C,C12*%
X184412962Y-87310000D02*
X184131802Y-87310000D01*
X184412962Y-86290000D02*
X184131802Y-86290000D01*
%TO.C,R32*%
X189512258Y-94427500D02*
X189037742Y-94427500D01*
X189512258Y-95472500D02*
X189037742Y-95472500D01*
%TO.C,R6*%
X201562258Y-87222500D02*
X201087742Y-87222500D01*
X201562258Y-86177500D02*
X201087742Y-86177500D01*
%TO.C,R33*%
X189037742Y-92927500D02*
X189512258Y-92927500D01*
X189037742Y-93972500D02*
X189512258Y-93972500D01*
%TO.C,R20*%
X126837258Y-83772500D02*
X126362742Y-83772500D01*
X126837258Y-82727500D02*
X126362742Y-82727500D01*
%TO.C,R34*%
X189512258Y-96972500D02*
X189037742Y-96972500D01*
X189512258Y-95927500D02*
X189037742Y-95927500D01*
%TO.C,R25*%
X180727500Y-94062258D02*
X180727500Y-93587742D01*
X181772500Y-94062258D02*
X181772500Y-93587742D01*
%TO.C,R39*%
X215152500Y-92562258D02*
X215152500Y-92087742D01*
X216197500Y-92562258D02*
X216197500Y-92087742D01*
%TO.C,U3*%
X140887500Y-88940000D02*
X141537500Y-88940000D01*
X140887500Y-88940000D02*
X140237500Y-88940000D01*
X140887500Y-92060000D02*
X141537500Y-92060000D01*
X140887500Y-92060000D02*
X139212500Y-92060000D01*
%TO.C,D3*%
X203060000Y-99050000D02*
X197550000Y-99050000D01*
X203060000Y-95750000D02*
X197550000Y-95750000D01*
X203060000Y-95750000D02*
X203060000Y-99050000D01*
%TO.C,Q1*%
X205040000Y-93125000D02*
X205040000Y-92475000D01*
X205040000Y-93125000D02*
X205040000Y-93775000D01*
X208160000Y-93125000D02*
X208160000Y-92475000D01*
X208160000Y-93125000D02*
X208160000Y-94800000D01*
%TO.C,Q4*%
X138170000Y-97410000D02*
X138170000Y-94250000D01*
X138170000Y-97410000D02*
X139100000Y-97410000D01*
X141330000Y-97410000D02*
X141330000Y-95950000D01*
X141330000Y-97410000D02*
X140400000Y-97410000D01*
%TO.C,R8*%
X142827500Y-95912742D02*
X142827500Y-96387258D01*
X143872500Y-95912742D02*
X143872500Y-96387258D01*
%TO.C,R10*%
X136627500Y-94562742D02*
X136627500Y-95037258D01*
X137672500Y-94562742D02*
X137672500Y-95037258D01*
%TO.C,R21*%
X197987258Y-87677500D02*
X197512742Y-87677500D01*
X197987258Y-88722500D02*
X197512742Y-88722500D01*
%TO.C,C30*%
X211590000Y-96615580D02*
X211590000Y-96334420D01*
X212610000Y-96615580D02*
X212610000Y-96334420D01*
%TO.C,BZ1*%
X121770000Y-82940000D02*
X121770000Y-84050000D01*
X122530000Y-82940000D02*
X121770000Y-82940000D01*
X123290000Y-82940000D02*
X124495000Y-82940000D01*
X123290000Y-82940000D02*
X123290000Y-83486529D01*
X124495000Y-82940000D02*
X124495000Y-83742470D01*
X124495000Y-84357530D02*
X124495000Y-85160000D01*
X123290000Y-84613471D02*
X123290000Y-85160000D01*
X123290000Y-85160000D02*
X124495000Y-85160000D01*
%TO.C,D9*%
X131697500Y-84115000D02*
X131697500Y-85585000D01*
X131697500Y-85585000D02*
X129412500Y-85585000D01*
X129412500Y-84115000D02*
X131697500Y-84115000D01*
%TO.C,Q5*%
X121195000Y-87844048D02*
X121195000Y-87194048D01*
X121195000Y-87844048D02*
X121195000Y-88494048D01*
X124315000Y-87844048D02*
X124315000Y-87194048D01*
X124315000Y-87844048D02*
X124315000Y-89519048D01*
%TO.C,R36*%
X189487258Y-92472500D02*
X189012742Y-92472500D01*
X189487258Y-91427500D02*
X189012742Y-91427500D01*
%TO.C,C20*%
X187060000Y-86115580D02*
X187060000Y-85834420D01*
X186040000Y-86115580D02*
X186040000Y-85834420D01*
%TO.C,C3*%
X203115000Y-91511252D02*
X203115000Y-90988748D01*
X204585000Y-91511252D02*
X204585000Y-90988748D01*
%TO.C,D5*%
X148235000Y-87900000D02*
X148235000Y-89900000D01*
X148235000Y-87900000D02*
X144225000Y-87900000D01*
X148235000Y-89900000D02*
X144225000Y-89900000D01*
%TO.C,R1*%
X206562742Y-95290000D02*
X207037258Y-95290000D01*
X206562742Y-96335000D02*
X207037258Y-96335000D01*
%TO.C,R40*%
X213190000Y-92587258D02*
X213190000Y-92112742D01*
X214235000Y-92587258D02*
X214235000Y-92112742D01*
%TO.C,R13*%
X157812258Y-87477500D02*
X157337742Y-87477500D01*
X157812258Y-88522500D02*
X157337742Y-88522500D01*
%TO.C,R11*%
X157337742Y-86922500D02*
X157812258Y-86922500D01*
X157337742Y-85877500D02*
X157812258Y-85877500D01*
%TO.C,D7*%
X199235000Y-85965000D02*
X199235000Y-87435000D01*
X199235000Y-87435000D02*
X196950000Y-87435000D01*
X196950000Y-85965000D02*
X199235000Y-85965000D01*
%TO.C,R19*%
X211577500Y-93737258D02*
X211577500Y-93262742D01*
X212622500Y-93737258D02*
X212622500Y-93262742D01*
%TO.C,C16*%
X144735000Y-92711252D02*
X144735000Y-92188748D01*
X143265000Y-92711252D02*
X143265000Y-92188748D01*
%TO.C,R16*%
X145137258Y-86377500D02*
X144662742Y-86377500D01*
X145137258Y-87422500D02*
X144662742Y-87422500D01*
%TO.C,C27*%
X137784990Y-85404457D02*
X138154457Y-85034990D01*
X136745543Y-84365010D02*
X137115010Y-83995543D01*
%TO.C,R37*%
X183024882Y-95462258D02*
X183024882Y-94987742D01*
X184069882Y-95462258D02*
X184069882Y-94987742D01*
%TO.C,L1*%
X194625000Y-89500000D02*
X195825000Y-89500000D01*
X195825000Y-95100000D02*
X194625000Y-95100000D01*
%TO.C,R12*%
X157887258Y-84277500D02*
X157412742Y-84277500D01*
X157887258Y-85322500D02*
X157412742Y-85322500D01*
%TO.C,C5*%
X193215000Y-87811252D02*
X193215000Y-87288748D01*
X194685000Y-87811252D02*
X194685000Y-87288748D01*
%TO.C,R35*%
X189012742Y-97427500D02*
X189487258Y-97427500D01*
X189012742Y-98472500D02*
X189487258Y-98472500D01*
%TO.C,C11*%
X184311252Y-85735000D02*
X183788748Y-85735000D01*
X184311252Y-84265000D02*
X183788748Y-84265000D01*
%TO.C,R14*%
X126412258Y-88252500D02*
X125937742Y-88252500D01*
X126412258Y-89297500D02*
X125937742Y-89297500D01*
%TO.C,D1*%
X205040000Y-85400000D02*
X205040000Y-84750000D01*
X205040000Y-85400000D02*
X205040000Y-86050000D01*
X208160000Y-85400000D02*
X208160000Y-84750000D01*
X208160000Y-85400000D02*
X208160000Y-87075000D01*
%TO.C,R31*%
X189037742Y-83927500D02*
X189512258Y-83927500D01*
X189037742Y-84972500D02*
X189512258Y-84972500D01*
%TO.C,D8*%
X184972382Y-96765000D02*
X187257382Y-96765000D01*
X187257382Y-98235000D02*
X184972382Y-98235000D01*
X187257382Y-96765000D02*
X187257382Y-98235000D01*
%TO.C,R9*%
X136627500Y-97637742D02*
X136627500Y-98112258D01*
X137672500Y-97637742D02*
X137672500Y-98112258D01*
%TO.C,R22*%
X189487258Y-90972500D02*
X189012742Y-90972500D01*
X189487258Y-89927500D02*
X189012742Y-89927500D01*
%TO.C,R2*%
X209572500Y-96312742D02*
X209572500Y-96787258D01*
X208527500Y-96312742D02*
X208527500Y-96787258D01*
%TO.C,C17*%
X146360000Y-92790580D02*
X146360000Y-92509420D01*
X145340000Y-92790580D02*
X145340000Y-92509420D01*
%TO.C,C14*%
X133068219Y-92863211D02*
X133267030Y-93062022D01*
X133789468Y-92141962D02*
X133988279Y-92340773D01*
%TO.C,U1*%
X200750000Y-89740000D02*
X201550000Y-89740000D01*
X200750000Y-89740000D02*
X199950000Y-89740000D01*
X200750000Y-92860000D02*
X201550000Y-92860000D01*
X200750000Y-92860000D02*
X198950000Y-92860000D01*
%TO.C,D4*%
X144400000Y-94640000D02*
X146400000Y-94640000D01*
X144400000Y-94640000D02*
X144400000Y-98650000D01*
X146400000Y-94640000D02*
X146400000Y-98650000D01*
%TO.C,R27*%
X186024882Y-95487258D02*
X186024882Y-95012742D01*
X187069882Y-95487258D02*
X187069882Y-95012742D01*
%TO.C,R30*%
X189512258Y-86472500D02*
X189037742Y-86472500D01*
X189512258Y-85427500D02*
X189037742Y-85427500D01*
%TO.C,J3*%
X220225000Y-86420000D02*
X222145000Y-86420000D01*
X225860000Y-86420000D02*
X224155000Y-86420000D01*
X222145000Y-95580000D02*
X220225000Y-95580000D01*
X224155000Y-95580000D02*
X225860000Y-95580000D01*
X225860000Y-95580000D02*
X225860000Y-86420000D01*
%TO.C,R5*%
X201068576Y-87677500D02*
X201543092Y-87677500D01*
X201068576Y-88722500D02*
X201543092Y-88722500D01*
%TO.C,C28*%
X138811219Y-86510030D02*
X139010030Y-86311219D01*
X138089970Y-85788781D02*
X138288781Y-85589970D01*
%TO.C,C31*%
X140015580Y-92540000D02*
X139734420Y-92540000D01*
X140015580Y-93560000D02*
X139734420Y-93560000D01*
%TO.C,Q2*%
X205040000Y-89250000D02*
X205040000Y-88600000D01*
X205040000Y-89250000D02*
X205040000Y-89900000D01*
X208160000Y-89250000D02*
X208160000Y-88600000D01*
X208160000Y-89250000D02*
X208160000Y-90925000D01*
%TO.C,C2*%
X206659420Y-96802500D02*
X206940580Y-96802500D01*
X206659420Y-97822500D02*
X206940580Y-97822500D01*
%TO.C,C4*%
X200390580Y-94310000D02*
X200109420Y-94310000D01*
X200390580Y-93290000D02*
X200109420Y-93290000D01*
%TO.C,R29*%
X189012742Y-88427500D02*
X189487258Y-88427500D01*
X189012742Y-89472500D02*
X189487258Y-89472500D01*
%TO.C,R38*%
X130437258Y-82777500D02*
X129962742Y-82777500D01*
X130437258Y-83822500D02*
X129962742Y-83822500D01*
%TO.C,R26*%
X185569882Y-95012742D02*
X185569882Y-95487258D01*
X184524882Y-95012742D02*
X184524882Y-95487258D01*
%TO.C,D6*%
X125800000Y-84065000D02*
X128085000Y-84065000D01*
X128085000Y-85535000D02*
X125800000Y-85535000D01*
X128085000Y-84065000D02*
X128085000Y-85535000D01*
%TO.C,U6*%
X216247500Y-95900000D02*
X216247500Y-96700000D01*
X216247500Y-95900000D02*
X216247500Y-95100000D01*
X213127500Y-95900000D02*
X213127500Y-96700000D01*
X213127500Y-95900000D02*
X213127500Y-94100000D01*
%TO.C,E1*%
X102500000Y-91000000D02*
X100500000Y-91000000D01*
%TO.C,U4*%
X132242903Y-89400000D02*
X132402002Y-89559099D01*
X135226894Y-92383991D02*
X135067795Y-92224892D01*
X132402002Y-89240901D02*
X132242903Y-89400000D01*
X135385993Y-92224892D02*
X135226894Y-92383991D01*
X135067795Y-86575108D02*
X135226894Y-86416009D01*
X138051786Y-89559099D02*
X138210885Y-89400000D01*
X138210885Y-89400000D02*
X138051786Y-89240901D01*
%TO.C,J1*%
X122425000Y-98560000D02*
X122425000Y-97757530D01*
X127440000Y-98560000D02*
X122425000Y-98560000D01*
X127440000Y-98560000D02*
X127440000Y-98013471D01*
X128200000Y-98560000D02*
X128960000Y-98560000D01*
X128960000Y-98560000D02*
X128960000Y-97450000D01*
X122425000Y-97142470D02*
X122425000Y-96340000D01*
X127440000Y-96886529D02*
X127440000Y-96340000D01*
X127440000Y-96340000D02*
X122425000Y-96340000D01*
%TO.C,-P1*%
X164500000Y-91000000D02*
X162500000Y-91000000D01*
%TO.C,D2*%
X171040000Y-95550000D02*
X176550000Y-95550000D01*
X171040000Y-98850000D02*
X171040000Y-95550000D01*
X171040000Y-98850000D02*
X176550000Y-98850000D01*
%TO.C,Q3*%
X149955000Y-92425000D02*
X149955000Y-92695000D01*
X149955000Y-92695000D02*
X148855000Y-92695000D01*
X149955000Y-99055000D02*
X147125000Y-99055000D01*
X149955000Y-99325000D02*
X149955000Y-99055000D01*
X156375000Y-92425000D02*
X149955000Y-92425000D01*
X156375000Y-99325000D02*
X149955000Y-99325000D01*
%TO.C,U2*%
X152075000Y-88660000D02*
X154025000Y-88660000D01*
X152075000Y-88660000D02*
X150125000Y-88660000D01*
X152075000Y-83540000D02*
X155525000Y-83540000D01*
X152075000Y-83540000D02*
X150125000Y-83540000D01*
%TO.C,+P1*%
X173500000Y-91000000D02*
X171500000Y-91000000D01*
%TD*%
M02*
